<?xml version="1.0" encoding="utf-8"?>
<!-- Generator: Adobe Illustrator 15.0.2, SVG Export Plug-In  -->
<!DOCTYPE svg PUBLIC "-//W3C//DTD SVG 1.1//EN" "http://www.w3.org/Graphics/SVG/1.1/DTD/svg11.dtd" [
	<!ENTITY ns_flows "http://ns.adobe.com/Flows/1.0/">
]>
<svg version="1.1"
	 xmlns="http://www.w3.org/2000/svg" xmlns:xlink="http://www.w3.org/1999/xlink" xmlns:a="http://ns.adobe.com/AdobeSVGViewerExtensions/3.0/"
	 x="0px" y="0px" width="57px" height="51px" viewBox="47.667 0.333 57 51"
	 overflow="visible" enable-background="new 47.667 0.333 57 51" xml:space="preserve">
<defs>
</defs>
<path d="M72.92,32.187c1.768-3.55,1.768-7.543,0-11.094c-0.18-0.36-0.719-0.044-0.54,0.315c1.657,3.329,1.658,7.135,0,10.463
	C72.202,32.23,72.741,32.547,72.92,32.187L72.92,32.187z"/>
<path d="M81.032,31.871c-1.577-3.147-1.866-7.358,0-10.463c0.208-0.346-0.332-0.66-0.54-0.315c-1.987,3.307-1.679,7.743,0,11.094
	C80.672,32.547,81.211,32.23,81.032,31.871L81.032,31.871z"/>
<polygon fill-rule="evenodd" clip-rule="evenodd" points="77.983,26.695 77.983,26.362 77.872,26.14 77.762,25.917 77.54,25.807 
	77.428,25.584 77.206,25.473 76.983,25.362 76.762,25.362 76.428,25.362 76.206,25.473 75.983,25.584 75.872,25.807 75.651,25.917 
	75.54,26.14 75.428,26.362 75.428,26.695 75.428,26.918 75.54,27.14 75.651,27.362 75.872,27.473 75.983,27.695 76.206,27.807 
	76.428,27.917 76.762,27.917 76.983,27.917 77.206,27.807 77.428,27.695 77.54,27.473 77.762,27.362 77.872,27.14 77.983,26.918 
	77.983,26.695 "/>
<path d="M78.295,26.695c0-0.461-0.126-0.923-0.564-1.142c0.073,0.086,0.08,0.08,0.022-0.016c-0.03-0.061-0.056-0.125-0.104-0.174
	c-0.076-0.075-0.193-0.113-0.286-0.16c-0.216-0.108-0.36-0.153-0.601-0.153c-0.463,0-0.924,0.125-1.144,0.564
	c0.085-0.073,0.081-0.08-0.016-0.022c-0.06,0.03-0.125,0.056-0.174,0.104c-0.075,0.075-0.113,0.192-0.16,0.286
	c-0.123,0.246-0.153,0.403-0.153,0.679c0,0.432,0.163,0.863,0.562,1.064c-0.072-0.086-0.08-0.08-0.021,0.017
	c0.03,0.061,0.056,0.125,0.104,0.174c0.075,0.075,0.192,0.113,0.286,0.16c0.246,0.123,0.404,0.153,0.68,0.153
	c0.434,0,0.864-0.163,1.064-0.564c-0.086,0.073-0.08,0.08,0.017,0.022c0.061-0.03,0.126-0.056,0.175-0.104
	c0.074-0.075,0.112-0.192,0.158-0.285C78.249,27.08,78.295,26.938,78.295,26.695c0-0.403-0.625-0.403-0.625,0
	c0,0.062,0,0.125,0,0.188c0-0.185-0.026,0.014-0.069,0.1c-0.049,0.098-0.171,0.196-0.032,0.127
	c-0.082,0.041-0.184,0.076-0.251,0.143c-0.066,0.067-0.101,0.168-0.143,0.251c0.069-0.14-0.03-0.015-0.128,0.034
	c-0.086,0.042-0.285,0.068-0.1,0.068c-0.073,0-0.146,0-0.221,0c-0.088,0-0.176,0-0.265,0c0.185,0-0.015-0.025-0.1-0.068
	c-0.097-0.048-0.198-0.173-0.128-0.034c-0.041-0.083-0.076-0.184-0.143-0.251c-0.066-0.066-0.168-0.101-0.25-0.143
	c0.141,0.071,0.016-0.03-0.033-0.127c-0.043-0.086-0.068-0.284-0.068-0.1c0-0.074,0-0.148,0-0.222c0-0.088,0-0.176,0-0.265
	c0,0.185,0.025-0.014,0.068-0.099c0.049-0.097,0.174-0.199,0.033-0.128c0.082-0.042,0.184-0.076,0.25-0.143s0.102-0.168,0.143-0.251
	c-0.07,0.141,0.031,0.015,0.128-0.034c0.085-0.042,0.284-0.068,0.1-0.068c0.1,0,0.2,0,0.3,0c0.062,0,0.123,0,0.186,0
	c-0.186,0,0.014,0.025,0.1,0.068c0.097,0.048,0.198,0.174,0.128,0.034c0.042,0.083,0.076,0.185,0.143,0.251
	c0.067,0.067,0.169,0.102,0.251,0.143c-0.139-0.07-0.016,0.029,0.032,0.128c0.042,0.085,0.069,0.284,0.069,0.099
	c0,0.1,0,0.199,0,0.299C77.67,27.099,78.295,27.099,78.295,26.695z"/>
<rect id="_x3C_Slice_x3E__103_" y="50.667" fill="none" width="48" height="57.333"/>
<rect id="_x3C_Slice_x3E__102_" x="48" y="50.667" fill="none" width="57.333" height="57.333"/>
<rect id="_x3C_Slice_x3E__101_" fill="none" width="48" height="50.667"/>
<rect id="_x3C_Slice_x3E__100_" x="48" fill="none" width="57.333" height="50.667"/>
</svg>
