<?xml version="1.0" encoding="utf-8"?>
<!-- Generator: Adobe Illustrator 15.0.2, SVG Export Plug-In  -->
<!DOCTYPE svg PUBLIC "-//W3C//DTD SVG 1.1//EN" "http://www.w3.org/Graphics/SVG/1.1/DTD/svg11.dtd" [
	<!ENTITY ns_flows "http://ns.adobe.com/Flows/1.0/">
]>
<svg version="1.1"
	 xmlns="http://www.w3.org/2000/svg" xmlns:xlink="http://www.w3.org/1999/xlink" xmlns:a="http://ns.adobe.com/AdobeSVGViewerExtensions/3.0/"
	 x="0px" y="0px" width="53px" height="51px" viewBox="0 0.333 53 51" overflow="visible" enable-background="new 0 0.333 53 51"
	 xml:space="preserve">
<defs>
</defs>
<path d="M23.316,29.919c-0.572-0.69-1.145-1.381-1.716-2.071c-0.372-0.449-0.744-0.897-1.116-1.347
	c-0.107-0.129-0.214-0.259-0.321-0.388c-0.186-0.224-0.18,0.489-0.01,0.29c1.239-1.458,2.479-2.917,3.719-4.375
	c0.259-0.305-0.181-0.75-0.442-0.442c-1.259,1.481-2.519,2.963-3.777,4.444c-0.119,0.139-0.116,0.302,0,0.442
	c1.074,1.296,2.148,2.593,3.222,3.889C23.132,30.672,23.571,30.227,23.316,29.919L23.316,29.919z"/>
<path d="M24.508,31.39c-0.127-0.423-0.29-0.847-0.362-1.283c-0.058-0.349-0.071-0.434-0.071-0.72c0-0.288-0.282-0.448-0.535-0.448
	c-0.17,0-0.312,0.142-0.312,0.312c0,0.037,0,0.074,0,0.111c0.03-0.074,0.061-0.147,0.092-0.221c-0.169,0.168-0.203,0.284-0.203,0.52
	c0-0.186-0.005-0.027-0.057,0.076c-0.049,0.099-0.054,0.185-0.054,0.292c0.052-0.09,0.104-0.18,0.155-0.27
	c-0.208,0.104-0.344,0.219-0.507,0.382c0.073-0.031,0.147-0.061,0.221-0.091c-0.448,0-1.09-0.095-1.09,0.534
	c0,0.171,0.142,0.312,0.312,0.312c0.695,0,1.294,0.479,1.954,0.846c0.353,0.196,0.668-0.344,0.315-0.54
	c-0.677-0.376-1.467-0.932-2.269-0.932c0.104,0.104,0.208,0.208,0.312,0.312c0-0.037,0-0.074,0-0.111
	c-0.031,0.074-0.061,0.147-0.091,0.221c0.037-0.037,0.074-0.074,0.111-0.111c-0.074,0.03-0.147,0.061-0.221,0.092
	c0.222,0,0.444,0,0.667,0c0.22,0,0.426-0.288,0.602-0.376c0.097-0.048,0.155-0.166,0.155-0.27c0-0.169-0.086,0.133-0.003-0.031
	c0.024-0.048,0.048-0.096,0.072-0.144c0.06-0.119,0.043-0.252,0.043-0.381c-0.03,0.074-0.061,0.147-0.092,0.221
	c0.142-0.141,0.203-0.237,0.203-0.443c-0.104,0.104-0.208,0.208-0.312,0.312c0.037,0,0.074,0,0.111,0
	c-0.074-0.031-0.147-0.062-0.221-0.092c0.037,0.037,0.074,0.074,0.111,0.111c-0.03-0.074-0.061-0.147-0.091-0.221
	c0,0.768,0.237,1.465,0.456,2.193C24.021,31.941,24.624,31.777,24.508,31.39z"/>
<rect id="_x3C_Slice_x3E__101_" y="50.667" fill="none" width="53.333" height="57.333"/>
<rect id="_x3C_Slice_x3E__100_" fill="none" width="53.333" height="50.667"/>
</svg>
