<?xml version="1.0" encoding="utf-8"?>
<!-- Generator: Adobe Illustrator 15.0.2, SVG Export Plug-In  -->
<!DOCTYPE svg PUBLIC "-//W3C//DTD SVG 1.1//EN" "http://www.w3.org/Graphics/SVG/1.1/DTD/svg11.dtd" [
	<!ENTITY ns_flows "http://ns.adobe.com/Flows/1.0/">
]>
<svg version="1.1"
	 xmlns="http://www.w3.org/2000/svg" xmlns:xlink="http://www.w3.org/1999/xlink" xmlns:a="http://ns.adobe.com/AdobeSVGViewerExtensions/3.0/"
	 x="0px" y="0px" width="52px" height="52px" viewBox="0 0.666 52 52" overflow="visible" enable-background="new 0 0.666 52 52"
	 xml:space="preserve">
<defs>
</defs>
<path d="M26.287,30.942c-0.704-2.111-1.407-4.223-2.111-6.334c-0.101,0.132-0.201,0.264-0.301,0.396c1.444,0,2.889,0,4.333,0
	c-0.1-0.132-0.201-0.264-0.301-0.396c-0.741,2.111-1.481,4.223-2.222,6.334c-0.134,0.382,0.47,0.544,0.603,0.166
	c0.741-2.111,1.481-4.223,2.222-6.334c0.068-0.194-0.108-0.396-0.301-0.396c-1.444,0-2.889,0-4.333,0
	c-0.195,0-0.366,0.201-0.301,0.396c0.704,2.111,1.407,4.223,2.111,6.334C25.811,31.488,26.415,31.326,26.287,30.942L26.287,30.942z"
	/>
<path d="M27.652,25.824c-1.074,0-2.148,0-3.222,0c-0.403,0-0.403,0.625,0,0.625c1.074,0,2.148,0,3.222,0
	C28.055,26.449,28.055,25.824,27.652,25.824L27.652,25.824z"/>
<polygon fill-rule="evenodd" clip-rule="evenodd" points="27.319,22.246 27.319,21.914 27.208,21.691 27.097,21.469 26.874,21.357 
	26.763,21.137 26.541,21.025 26.319,21.025 25.985,20.914 25.763,21.025 25.541,21.025 25.319,21.137 25.208,21.357 24.985,21.469 
	24.874,21.691 24.763,21.914 24.763,22.246 24.763,22.469 24.874,22.691 24.985,22.914 25.208,23.137 25.319,23.246 25.541,23.357 
	25.763,23.469 25.985,23.469 26.319,23.469 26.541,23.357 26.763,23.246 26.874,23.137 27.097,22.914 27.208,22.691 27.319,22.469 
	27.319,22.246 "/>
<path d="M27.631,22.246c0-0.462-0.127-0.922-0.565-1.141c0.073,0.085,0.08,0.08,0.022-0.016c-0.03-0.061-0.055-0.125-0.104-0.174
	c-0.075-0.076-0.192-0.113-0.286-0.16c-0.21-0.105-0.379-0.059-0.606-0.135c-0.11-0.037-0.2-0.01-0.3,0.041
	c-0.051,0.025-0.102,0.051-0.153,0.076c0.16-0.08,0.023-0.025-0.064-0.025c-0.185,0-0.458,0.131-0.544,0.301
	c-0.026,0.051-0.051,0.102-0.077,0.151c0.068-0.134,0.004-0.032-0.093,0.017c-0.108,0.055-0.151,0.138-0.202,0.24
	c-0.102,0.203-0.209,0.377-0.209,0.609c0,0.441,0.063,0.853,0.392,1.182c0.307,0.308,0.658,0.568,1.108,0.568
	c0.44,0,0.821-0.104,1.144-0.424C27.408,23.049,27.631,22.694,27.631,22.246c0-0.402-0.625-0.402-0.625,0c0,0.062,0,0.125,0,0.188
	c0-0.185-0.026,0.015-0.069,0.1c-0.086,0.173-0.143,0.24-0.284,0.383c-0.09,0.09-0.188,0.131-0.305,0.189
	c-0.051,0.025-0.102,0.051-0.153,0.076c0.116-0.024,0.118-0.033,0.005-0.025c-0.083,0-0.167,0-0.25,0
	c-0.087,0-0.224-0.055-0.064,0.025c-0.074-0.037-0.148-0.074-0.222-0.111c-0.161-0.081-0.25-0.169-0.38-0.299
	c-0.096-0.097-0.162-0.281-0.234-0.426c0.083,0.168,0.025-0.012,0.025-0.1c0-0.1,0-0.198,0-0.297c0,0.178,0.009,0.02,0.051-0.065
	c0.037-0.074,0.074-0.148,0.111-0.223c-0.07,0.14,0.031,0.015,0.127-0.034c0.088-0.044,0.126-0.141,0.168-0.223
	c0.058-0.096,0.051-0.101-0.022-0.016c0.051-0.025,0.102-0.051,0.153-0.076c-0.167,0.084,0.011,0.025,0.099,0.025
	c0.098,0,0.184-0.056,0.269-0.098c0.174-0.088-0.261-0.068,0.037,0.031c0.153,0.051,0.274,0.066,0.437,0.066
	c-0.114-0.039-0.118-0.034-0.012,0.014c0.097,0.058,0.102,0.051,0.017-0.022c0.041,0.082,0.076,0.183,0.143,0.249
	s0.168,0.102,0.251,0.143c-0.14-0.069-0.015,0.031,0.033,0.129c0.043,0.085,0.069,0.284,0.069,0.1c0,0.099,0,0.197,0,0.297
	C27.006,22.648,27.631,22.648,27.631,22.246z"/>
<rect id="_x3C_Slice_x3E__101_" y="52" fill="none" width="52" height="35.666"/>
<rect id="_x3C_Slice_x3E__100_" fill="none" width="52" height="52"/>
</svg>
