<?xml version="1.0" encoding="utf-8"?>
<!-- Generator: Adobe Illustrator 15.0.2, SVG Export Plug-In  -->
<!DOCTYPE svg PUBLIC "-//W3C//DTD SVG 1.1//EN" "http://www.w3.org/Graphics/SVG/1.1/DTD/svg11.dtd" [
	<!ENTITY ns_flows "http://ns.adobe.com/Flows/1.0/">
]>
<svg version="1.1"
	 xmlns="http://www.w3.org/2000/svg" xmlns:xlink="http://www.w3.org/1999/xlink" xmlns:a="http://ns.adobe.com/AdobeSVGViewerExtensions/3.0/"
	 x="0px" y="0px" width="52px" height="53px" viewBox="55.666 0.333 52 53"
	 overflow="visible" enable-background="new 55.666 0.333 52 53" xml:space="preserve">
<defs>
</defs>
<polygon fill-rule="evenodd" clip-rule="evenodd" points="83.314,26.694 82.426,26.25 81.871,25.916 81.537,25.694 81.426,25.694 
	81.314,25.694 81.314,25.806 81.314,25.916 81.426,26.027 81.537,26.139 81.648,26.361 81.76,26.472 81.76,26.694 81.76,26.806 
	81.648,26.916 81.537,27.139 81.426,27.25 81.314,27.361 81.314,27.472 81.314,27.583 81.426,27.583 81.537,27.583 81.871,27.361 
	82.426,27.027 83.314,26.694 "/>
<path d="M83.472,26.424c-0.359-0.18-0.728-0.347-1.071-0.554c-0.357-0.215-0.66-0.488-1.086-0.488c-0.171,0-0.312,0.142-0.312,0.312
	c0,0.22,0.008,0.36,0.174,0.525c0.137,0.138,0.201,0.312,0.362,0.473c-0.03-0.074-0.062-0.147-0.091-0.221c0,0.111,0,0.223,0,0.334
	c0.029-0.074,0.061-0.147,0.091-0.221c-0.146,0.146-0.216,0.327-0.334,0.444c-0.179,0.178-0.202,0.313-0.202,0.554
	c0,0.171,0.142,0.312,0.312,0.312c0.409,0,0.682-0.245,1.023-0.45c0.078-0.048,0.157-0.095,0.236-0.143
	c-0.127,0.076,0.121-0.044,0.164-0.061c0.22-0.082,0.439-0.164,0.658-0.247c0.375-0.14,0.213-0.744-0.166-0.603
	c-0.34,0.128-0.726,0.223-1.038,0.41c-0.164,0.099-0.334,0.192-0.493,0.298c-0.103,0.068-0.204,0.136-0.307,0.203
	c0.115-0.076,0.151-0.033,0.033-0.033c-0.037,0-0.074,0-0.111,0c0.104,0.104,0.208,0.208,0.312,0.312c0-0.074,0-0.148,0-0.222
	c-0.031,0.073-0.062,0.147-0.092,0.221c0.256-0.256,0.537-0.548,0.537-0.911c0-0.409-0.25-0.688-0.537-0.976
	c0.03,0.074,0.061,0.147,0.092,0.221c0-0.074,0-0.148,0-0.222c-0.104,0.104-0.209,0.208-0.312,0.312c0.064,0,0.129,0,0.193,0
	c-0.141,0-0.137-0.049-0.023,0.027c0.059,0.039,0.117,0.078,0.176,0.117c0.156,0.104,0.321,0.196,0.482,0.293
	c0.324,0.195,0.675,0.35,1.014,0.52C83.516,27.144,83.832,26.604,83.472,26.424z"/>
<path d="M81.76,26.382c-2.557,0-5.112,0-7.668,0c-0.403,0-0.403,0.625,0,0.625c2.556,0,5.111,0,7.668,0
	C82.162,27.007,82.162,26.382,81.76,26.382L81.76,26.382z"/>
<polygon fill-rule="evenodd" clip-rule="evenodd" points="77.982,21.806 77.537,22.694 77.314,23.25 77.092,23.472 77.092,23.694 
	77.092,23.694 77.203,23.806 77.203,23.694 77.314,23.583 77.537,23.472 77.648,23.472 77.76,23.361 77.982,23.361 78.203,23.361 
	78.314,23.472 78.426,23.472 78.648,23.694 78.76,23.806 78.871,23.806 78.871,23.806 78.98,23.694 78.871,23.583 78.76,23.25 
	78.426,22.694 77.982,21.806 "/>
<path d="M77.712,21.647c-0.194,0.388-0.399,0.77-0.561,1.173c-0.044,0.111-0.089,0.224-0.134,0.335
	c0.078-0.198,0.041-0.092-0.036-0.016c-0.054,0.054-0.121,0.108-0.16,0.175c-0.143,0.244-0.013,0.538,0.16,0.712
	c0.192,0.193,0.534,0.052,0.534-0.221c0-0.037,0-0.074,0-0.111c-0.031,0.073-0.062,0.147-0.092,0.221
	c0.009-0.009,0.125-0.101,0.07-0.073c0.107-0.054,0.266-0.058,0.071-0.058c0.19,0,0.284-0.072,0.415-0.202
	c-0.074,0.03-0.147,0.061-0.221,0.092c0.147,0,0.295,0,0.443,0c-0.074-0.031-0.148-0.062-0.222-0.092
	c0.142,0.141,0.241,0.202,0.444,0.202c-0.074-0.03-0.148-0.061-0.222-0.091c0.314,0.314,0.603,0.625,0.997,0.222
	c0.119-0.122,0.12-0.32,0-0.442c-0.161-0.164,0.002,0.119-0.073-0.104c-0.028-0.088-0.051-0.197-0.099-0.277
	c-0.104-0.173-0.209-0.347-0.312-0.52c-0.177-0.293-0.312-0.618-0.465-0.924c-0.18-0.36-0.719-0.044-0.54,0.315
	c0.153,0.307,0.288,0.631,0.465,0.924c0.056,0.091,0.11,0.183,0.165,0.274c0.025,0.042,0.16,0.301,0.123,0.19
	c0.074,0.225,0.125,0.392,0.294,0.563c0-0.147,0-0.295,0-0.442c-0.036,0.037-0.073,0.074-0.109,0.111
	c0.073-0.031,0.147-0.061,0.222-0.091c-0.037,0-0.074,0-0.111,0c0.073,0.03,0.146,0.061,0.221,0.091
	c-0.205-0.206-0.355-0.425-0.666-0.425c0.073,0.031,0.146,0.062,0.221,0.092c-0.293-0.291-0.815-0.291-1.108,0
	c0.073-0.03,0.147-0.061,0.222-0.092c-0.373,0-0.758,0.251-0.758,0.646c0.178-0.074,0.355-0.147,0.533-0.221
	c-0.037-0.037-0.074-0.074-0.111-0.111c0.03,0.074,0.061,0.147,0.092,0.221c0-0.074,0-0.148,0-0.223
	c-0.031,0.074-0.062,0.147-0.092,0.221c0.277-0.277,0.376-0.542,0.521-0.905c-0.055,0.137,0.012-0.014,0.023-0.038
	c0.051-0.103,0.103-0.205,0.154-0.308c0.08-0.16,0.16-0.319,0.24-0.479C78.432,21.604,77.893,21.287,77.712,21.647z"/>
<path d="M77.982,23.361v8.11 M136.203,25.916h-8.223 M136.203,27.361h-8.223 M135.648,27.694l1.777-1l-1.777-1.111"/>
<path d="M77.67,23.361c0,2.703,0,5.407,0,8.11c0,0.403,0.625,0.403,0.625,0c0-2.703,0-5.407,0-8.11
	C78.295,22.958,77.67,22.958,77.67,23.361L77.67,23.361z"/>
<rect id="_x3C_Slice_x3E__101_" fill="none" width="56" height="53.333"/>
<rect id="_x3C_Slice_x3E__100_" x="56" fill="none" width="52" height="53.333"/>
</svg>
