<?xml version="1.0" encoding="utf-8"?>
<!-- Generator: Adobe Illustrator 15.0.2, SVG Export Plug-In  -->
<!DOCTYPE svg PUBLIC "-//W3C//DTD SVG 1.1//EN" "http://www.w3.org/Graphics/SVG/1.1/DTD/svg11.dtd" [
	<!ENTITY ns_flows "http://ns.adobe.com/Flows/1.0/">
]>
<svg version="1.1"
	 xmlns="http://www.w3.org/2000/svg" xmlns:xlink="http://www.w3.org/1999/xlink" xmlns:a="http://ns.adobe.com/AdobeSVGViewerExtensions/3.0/"
	 x="0px" y="0px" width="32px" height="51px" viewBox="51.666 0.333 32 51"
	 overflow="visible" enable-background="new 51.666 0.333 32 51" xml:space="preserve">
<defs>
</defs>
<path d="M74.694,32.298c1.948-1.303,1.376-3.268,1.376-5.449c0-2.252,0.653-4.511-1.376-5.869c-0.336-0.225-0.648,0.317-0.315,0.54
	c1.625,1.088,1.066,3.116,1.066,4.909c0,1.853,0.628,4.195-1.066,5.329C74.046,31.981,74.358,32.523,74.694,32.298L74.694,32.298z"
	/>
<path d="M79.026,31.759c-1.625-1.087-1.065-3.115-1.065-4.909c0-1.853-0.629-4.195,1.065-5.329c0.333-0.223,0.021-0.765-0.315-0.54
	c-1.947,1.303-1.375,3.268-1.375,5.449c0,2.252-0.654,4.511,1.375,5.869C79.047,32.523,79.359,31.981,79.026,31.759L79.026,31.759z"
	/>
<rect id="_x3C_Slice_x3E__103_" y="50.667" fill="none" width="52" height="57.333"/>
<rect id="_x3C_Slice_x3E__102_" x="52" y="50.667" fill="none" width="31.666" height="57.333"/>
<rect id="_x3C_Slice_x3E__101_" fill="none" width="52" height="50.667"/>
<rect id="_x3C_Slice_x3E__100_" x="52" fill="none" width="31.666" height="50.667"/>
</svg>
