<?xml version="1.0" encoding="utf-8"?>
<!-- Generator: Adobe Illustrator 15.0.2, SVG Export Plug-In  -->
<!DOCTYPE svg PUBLIC "-//W3C//DTD SVG 1.1//EN" "http://www.w3.org/Graphics/SVG/1.1/DTD/svg11.dtd" [
	<!ENTITY ns_flows "http://ns.adobe.com/Flows/1.0/">
]>
<svg version="1.1"
	 xmlns="http://www.w3.org/2000/svg" xmlns:xlink="http://www.w3.org/1999/xlink" xmlns:a="http://ns.adobe.com/AdobeSVGViewerExtensions/3.0/"
	 x="0px" y="0px" width="57px" height="35px" viewBox="47.667 0.666 57 35"
	 overflow="visible" enable-background="new 47.667 0.666 57 35" xml:space="preserve">
<defs>
</defs>
<path d="M73.45,25.023c0,3.223,0,6.445,0,9.668c0,0.402,0.625,0.402,0.625,0c0-3.223,0-6.445,0-9.668
	C74.075,24.621,73.45,24.621,73.45,25.023L73.45,25.023z"/>
<path d="M80.204,33.137c-0.572-0.69-1.144-1.381-1.715-2.071c-0.373-0.448-0.744-0.897-1.115-1.347
	c-0.107-0.129-0.215-0.258-0.322-0.388c-0.186-0.224-0.18,0.489-0.01,0.289c1.24-1.458,2.479-2.917,3.719-4.376
	c0.17-0.2,0.068-0.533-0.221-0.533c-2.741,0-5.482,0-8.223,0c-0.403,0-0.403,0.625,0,0.625c2.74,0,5.481,0,8.223,0
	c-0.074-0.178-0.148-0.355-0.222-0.533c-1.259,1.481-2.519,2.963-3.777,4.445c-0.118,0.139-0.115,0.303,0,0.441
	c1.073,1.297,2.147,2.593,3.221,3.889C80.018,33.889,80.458,33.444,80.204,33.137L80.204,33.137z"/>
<polygon fill-rule="evenodd" clip-rule="evenodd" points="81.094,34.691 80.762,33.58 80.651,32.914 80.651,32.58 80.54,32.469 
	80.54,32.469 80.428,32.357 80.428,32.469 80.317,32.469 80.317,32.691 80.317,32.914 80.206,33.023 80.094,33.246 79.983,33.357 
	79.872,33.469 79.651,33.58 79.54,33.58 79.317,33.58 79.094,33.58 78.983,33.58 78.983,33.691 78.983,33.803 79.094,33.803 
	79.428,33.912 80.094,34.135 81.094,34.691 "/>
<path d="M81.395,34.608c-0.121-0.405-0.282-0.815-0.352-1.233c-0.055-0.32-0.08-0.473-0.08-0.709c0-0.25-0.15-0.365-0.314-0.529
	c-0.193-0.193-0.533-0.052-0.533,0.221c0,0.037,0,0.074,0,0.111c0.104-0.104,0.208-0.209,0.312-0.312c-0.037,0-0.074,0-0.111,0
	c-0.171,0-0.312,0.143-0.312,0.312c0,0.074,0,0.148,0,0.223c0,0.221-0.076,0.166,0.062,0.03c-0.131,0.128-0.182,0.291-0.306,0.415
	c-0.059,0.059-0.085,0.081-0.158,0.117c-0.167,0.085,0.084,0.014-0.099,0.014c-0.174,0-0.348,0-0.521,0
	c-0.171,0-0.312,0.143-0.312,0.312c0,0.074,0,0.148,0,0.223c0,0.17,0.142,0.312,0.312,0.312c0.302,0,0.721,0.219,1.015,0.316
	c-0.132-0.044,0.024,0.021,0.053,0.037c0.115,0.063,0.231,0.128,0.347,0.192c0.18,0.101,0.359,0.2,0.539,0.3
	c0.353,0.196,0.668-0.344,0.315-0.539c-0.344-0.191-0.701-0.463-1.075-0.588c-0.366-0.123-0.803-0.344-1.193-0.344
	c0.104,0.104,0.208,0.209,0.312,0.312c0-0.074,0-0.148,0-0.223c-0.104,0.104-0.209,0.209-0.312,0.312
	c0.441,0,0.853,0.054,1.191-0.285c0.148-0.148,0.223-0.334,0.363-0.473c0.152-0.15,0.092-0.47,0.092-0.666
	c-0.104,0.104-0.209,0.209-0.312,0.312c0.037,0,0.074,0,0.111,0c0.17,0,0.312-0.143,0.312-0.312c0-0.037,0-0.074,0-0.111
	c-0.178,0.074-0.355,0.147-0.534,0.221c0.065,0.064,0.13,0.129,0.194,0.193c-0.049-0.189-0.07-0.225-0.062-0.105
	c0,0.074,0,0.148,0,0.223c0,0.236,0.074,0.485,0.112,0.717c0.065,0.394,0.228,0.786,0.342,1.169
	C80.908,35.16,81.51,34.996,81.395,34.608z"/>
<g>
	<polygon fill-rule="evenodd" clip-rule="evenodd" points="77.651,22.58 77.651,22.246 77.651,22.023 77.428,21.803 77.317,21.691 
		77.094,21.469 76.983,21.357 76.651,21.357 76.428,21.246 76.206,21.357 75.983,21.357 75.762,21.469 75.54,21.691 75.428,21.803 
		75.317,22.023 75.206,22.246 75.206,22.58 75.206,22.803 75.317,23.023 75.428,23.246 75.54,23.469 75.762,23.58 75.983,23.691 
		76.206,23.803 76.428,23.803 76.651,23.803 76.983,23.691 77.094,23.58 77.317,23.469 77.428,23.246 77.651,23.023 77.651,22.803 
		77.651,22.58 	"/>
</g>
<rect id="_x3C_Slice_x3E__101_" fill="none" width="48" height="35.666"/>
<rect id="_x3C_Slice_x3E__100_" x="48" fill="none" width="57.333" height="35.666"/>
</svg>
