<?xml version="1.0" encoding="utf-8"?>
<!-- Generator: Adobe Illustrator 15.0.2, SVG Export Plug-In  -->
<!DOCTYPE svg PUBLIC "-//W3C//DTD SVG 1.1//EN" "http://www.w3.org/Graphics/SVG/1.1/DTD/svg11.dtd" [
	<!ENTITY ns_flows "http://ns.adobe.com/Flows/1.0/">
]>
<svg version="1.1"
	 xmlns="http://www.w3.org/2000/svg" xmlns:xlink="http://www.w3.org/1999/xlink" xmlns:a="http://ns.adobe.com/AdobeSVGViewerExtensions/3.0/"
	 x="0px" y="0px" width="32px" height="57px" viewBox="51.666 0.667 32 57"
	 overflow="visible" enable-background="new 51.666 0.667 32 57" xml:space="preserve">
<defs>
</defs>
<path d="M72.113,25.139c0,3.223,0,6.444,0,9.667c0,0.403,0.625,0.403,0.625,0c0-3.223,0-6.444,0-9.667
	C72.738,24.736,72.113,24.736,72.113,25.139L72.113,25.139z"/>
<path d="M78.869,33.251c-0.572-0.69-1.145-1.381-1.717-2.071c-0.371-0.448-0.744-0.897-1.115-1.346
	c-0.107-0.13-0.215-0.259-0.322-0.389c-0.186-0.224-0.18,0.489-0.01,0.289c1.24-1.458,2.479-2.916,3.719-4.375
	c0.17-0.201,0.068-0.534-0.221-0.534c-2.741,0-5.482,0-8.223,0c-0.403,0-0.403,0.625,0,0.625c2.74,0,5.481,0,8.223,0
	c-0.074-0.178-0.148-0.355-0.222-0.533c-1.259,1.481-2.519,2.963-3.777,4.444c-0.118,0.139-0.115,0.303,0,0.442
	c1.074,1.296,2.148,2.592,3.223,3.889C78.685,34.004,79.124,33.559,78.869,33.251L78.869,33.251z"/>
<polygon fill-rule="evenodd" clip-rule="evenodd" points="79.758,34.806 79.537,33.695 79.314,33.028 79.314,32.695 79.203,32.583 
	79.203,32.583 79.203,32.583 79.092,32.583 79.092,32.695 78.98,32.806 78.98,33.028 78.869,33.25 78.869,33.362 78.648,33.472 
	78.537,33.583 78.426,33.695 78.203,33.695 77.98,33.695 77.758,33.695 77.758,33.695 77.648,33.806 77.648,33.917 77.869,33.917 
	78.203,34.028 78.758,34.25 79.758,34.806 "/>
<path d="M80.059,34.723c-0.085-0.428-0.141-0.871-0.278-1.284c-0.117-0.351-0.153-0.421-0.153-0.719
	c0-0.289-0.283-0.449-0.535-0.449c-0.171,0-0.312,0.143-0.312,0.312c0,0.037,0,0.074,0,0.111c0.029-0.073,0.061-0.147,0.091-0.221
	c-0.169,0.168-0.202,0.283-0.202,0.52c0-0.187-0.006-0.027-0.058,0.076c-0.05,0.099-0.054,0.185-0.054,0.292
	c0.051-0.09,0.103-0.18,0.154-0.27c-0.207,0.104-0.344,0.219-0.507,0.382c0.073-0.03,0.147-0.061,0.222-0.092
	c-0.449,0-1.09-0.095-1.09,0.535c0,0.17,0.142,0.312,0.312,0.312c0.693,0,1.293,0.479,1.951,0.846
	c0.353,0.196,0.668-0.344,0.315-0.54c-0.676-0.375-1.466-0.931-2.267-0.931c0.104,0.104,0.208,0.208,0.312,0.312
	c0-0.037,0-0.074,0-0.111c-0.031,0.073-0.062,0.147-0.092,0.221c0.036-0.037,0.072-0.074,0.109-0.111
	c-0.074,0.031-0.147,0.061-0.221,0.091c0.223,0,0.445,0,0.668,0c0.22,0,0.425-0.288,0.601-0.376c0.097-0.048,0.155-0.165,0.155-0.27
	c0-0.169-0.086,0.133-0.004-0.032c0.023-0.048,0.048-0.096,0.072-0.144c0.059-0.119,0.043-0.252,0.043-0.38
	c-0.031,0.073-0.062,0.147-0.092,0.221c0.142-0.142,0.203-0.237,0.203-0.443c-0.104,0.104-0.209,0.208-0.312,0.312
	c0.037,0,0.074,0,0.111,0c-0.074-0.03-0.148-0.061-0.222-0.091c0.037,0.037,0.074,0.074,0.111,0.111
	c-0.03-0.074-0.062-0.147-0.091-0.221c0,0.4,0.106,0.703,0.233,1.083c0.116,0.35,0.149,0.75,0.221,1.111
	C79.535,35.284,80.137,35.117,80.059,34.723z"/>
<path d="M79.98,24.452c0.688,0,1.375,0,2.062,0c0.582,0,0.07-0.197,0.07-0.219c0,0.229,0,0.458,0,0.688c0,1.684,0,3.368,0,5.052
	s0,3.369,0,5.052c0,0.83-0.105,0.469,0.207,0.469c-0.78,0-1.561,0-2.34,0c-0.403,0-0.403,0.625,0,0.625c0.814,0,1.63,0,2.445,0
	c0.17,0,0.312-0.143,0.312-0.312c0-3.889,0-7.778,0-11.667c0-0.17-0.143-0.312-0.312-0.312c-0.815,0-1.631,0-2.445,0
	C79.577,23.827,79.577,24.452,79.98,24.452L79.98,24.452z"/>
<rect id="_x3C_Slice_x3E__103_" y="57.333" fill="none" width="52" height="53.333"/>
<rect id="_x3C_Slice_x3E__102_" x="52" y="57.333" fill="none" width="31.666" height="53.333"/>
<rect id="_x3C_Slice_x3E__101_" fill="none" width="52" height="57.333"/>
<rect id="_x3C_Slice_x3E__100_" x="52" fill="none" width="31.666" height="57.333"/>
</svg>
