<?xml version="1.0" encoding="utf-8"?>
<!-- Generator: Adobe Illustrator 15.0.2, SVG Export Plug-In  -->
<!DOCTYPE svg PUBLIC "-//W3C//DTD SVG 1.1//EN" "http://www.w3.org/Graphics/SVG/1.1/DTD/svg11.dtd" [
	<!ENTITY ns_flows "http://ns.adobe.com/Flows/1.0/">
]>
<svg version="1.1"
	 xmlns="http://www.w3.org/2000/svg" xmlns:xlink="http://www.w3.org/1999/xlink" xmlns:a="http://ns.adobe.com/AdobeSVGViewerExtensions/3.0/"
	 x="0px" y="0px" width="52px" height="35px" viewBox="0 0.666 52 35" overflow="visible" enable-background="new 0 0.666 52 35"
	 xml:space="preserve">
<defs>
</defs>
<path d="M20.451,23.135c0,3.223,0,6.445,0,9.668c0,0.402,0.625,0.402,0.625,0c0-3.223,0-6.445,0-9.668
	C21.076,22.732,20.451,22.732,20.451,23.135L20.451,23.135z"/>
<path d="M27.317,31.248c-0.556-0.648-1.111-1.297-1.667-1.945c-0.382-0.445-0.764-0.891-1.146-1.336
	c-0.126-0.146-0.252-0.294-0.377-0.44c-0.285-0.333-0.15,0.282-0.083,0.205c1.276-1.458,2.552-2.917,3.828-4.376
	c0.174-0.199,0.065-0.533-0.221-0.533c-2.741,0-5.481,0-8.222,0c-0.403,0-0.403,0.625,0,0.625c2.741,0,5.481,0,8.222,0
	c-0.074-0.178-0.147-0.355-0.221-0.533c-1.296,1.481-2.592,2.963-3.889,4.445c-0.119,0.136-0.116,0.306,0,0.441
	c1.111,1.297,2.223,2.593,3.334,3.889C27.139,31.996,27.578,31.552,27.317,31.248L27.317,31.248z"/>
<polygon fill-rule="evenodd" clip-rule="evenodd" points="28.097,32.803 27.874,31.691 27.763,31.023 27.652,30.691 27.652,30.58 
	27.541,30.58 27.541,30.58 27.43,30.58 27.43,30.691 27.43,30.803 27.319,31.023 27.319,31.246 27.208,31.357 27.097,31.469 
	26.874,31.58 26.763,31.691 26.541,31.691 26.319,31.691 26.208,31.691 26.097,31.691 26.097,31.803 26.097,31.914 26.208,31.914 
	26.541,32.023 27.097,32.246 28.097,32.803 "/>
<path d="M28.398,32.72c-0.074-0.368-0.147-0.735-0.221-1.104c-0.038-0.188-0.063-0.382-0.095-0.571
	c-0.026-0.158-0.118-0.316-0.118-0.465c0-0.17-0.142-0.312-0.312-0.312c-0.074,0-0.148,0-0.222,0c-0.17,0-0.312,0.143-0.312,0.312
	c0,0.056,0,0.111,0,0.167c0-0.154-0.012,0.006-0.057,0.096c-0.066,0.132-0.054,0.26-0.054,0.403
	c0.031-0.074,0.061-0.147,0.091-0.221c-0.184,0.184-0.361,0.25-0.556,0.445c0.074-0.031,0.147-0.062,0.221-0.092
	c-0.222,0-0.444,0-0.667,0c-0.17,0-0.312,0.143-0.312,0.312c0,0.074,0,0.148,0,0.223c0,0.17,0.142,0.312,0.312,0.312
	c0.129,0,0.279,0.065,0.41,0.117c0.089,0.036,0.178,0.072,0.267,0.107c0.037,0.015,0.301,0.141,0.173,0.068
	c0.331,0.185,0.662,0.369,0.993,0.553c0.353,0.196,0.667-0.344,0.315-0.539c-0.614-0.342-1.423-0.932-2.158-0.932
	c0.104,0.104,0.208,0.209,0.312,0.312c0-0.074,0-0.148,0-0.223c-0.104,0.104-0.208,0.209-0.312,0.312
	c0.471,0,0.89,0.019,1.221-0.314c0.176-0.176,0.314-0.289,0.314-0.555c0-0.227-0.089,0.139-0.003-0.031
	c0.023-0.048,0.048-0.096,0.071-0.143c0.06-0.119,0.043-0.252,0.043-0.381c-0.104,0.104-0.208,0.209-0.312,0.312
	c0.074,0,0.148,0,0.222,0c-0.104-0.104-0.208-0.209-0.312-0.312c0,0.199,0.093,0.348,0.125,0.539
	c0.036,0.215,0.071,0.428,0.106,0.643c0.062,0.376,0.15,0.75,0.225,1.124C27.875,33.281,28.477,33.113,28.398,32.72z"/>
<path d="M26.763,22.447c0.688,0,1.375,0,2.062,0c0.581,0,0.069-0.197,0.069-0.219c0,0.229,0,0.458,0,0.688c0,1.684,0,3.368,0,5.053
	s0,3.369,0,5.053c0,0.83-0.104,0.469,0.208,0.469c-0.78,0-1.56,0-2.339,0c-0.403,0-0.403,0.625,0,0.625c0.815,0,1.629,0,2.444,0
	c0.17,0,0.312-0.143,0.312-0.312c0-3.889,0-7.779,0-11.668c0-0.17-0.142-0.312-0.312-0.312c-0.815,0-1.629,0-2.444,0
	C26.36,21.822,26.36,22.447,26.763,22.447L26.763,22.447z"/>
<polygon fill-rule="evenodd" clip-rule="evenodd" points="32.652,28.023 32.652,27.691 32.541,27.469 32.43,27.246 32.319,27.135 
	32.096,26.914 31.874,26.803 31.652,26.691 31.43,26.691 31.208,26.691 30.985,26.803 30.763,26.914 30.541,27.135 30.43,27.246 
	30.319,27.469 30.208,27.691 30.208,28.023 30.208,28.246 30.319,28.469 30.43,28.691 30.541,28.803 30.763,29.023 30.985,29.135 
	31.208,29.246 31.43,29.246 31.652,29.246 31.874,29.135 32.096,29.023 32.319,28.803 32.43,28.691 32.541,28.469 32.652,28.246 
	32.652,28.023 "/>
<path d="M32.964,28.023c0-0.799-0.642-1.645-1.5-1.645c-0.86,0-1.569,0.767-1.569,1.609c0,0.772,0.7,1.57,1.5,1.57
	S32.964,28.838,32.964,28.023c0-0.402-0.625-0.402-0.625,0c0,0.062,0,0.125,0,0.188c0-0.185-0.026,0.015-0.068,0.1
	c-0.062,0.123-0.102,0.2-0.197,0.294c-0.134,0.134-0.194,0.179-0.358,0.261c-0.062,0.031-0.125,0.062-0.188,0.094
	c0.167-0.084-0.011-0.025-0.099-0.025c-0.062,0-0.125,0-0.188,0c0.185,0-0.014-0.025-0.099-0.068
	c-0.165-0.082-0.224-0.127-0.358-0.261c-0.095-0.095-0.135-0.171-0.196-0.294c-0.043-0.085-0.069-0.284-0.069-0.1
	c0-0.074,0-0.148,0-0.223c0-0.087,0-0.175,0-0.262c0,0.185,0.026-0.015,0.069-0.1c0.062-0.123,0.101-0.199,0.196-0.294
	c0.134-0.134,0.193-0.179,0.358-0.261c0.062-0.031,0.125-0.062,0.188-0.094c-0.167,0.084,0.011,0.025,0.099,0.025
	c0.062,0,0.125,0,0.188,0c-0.185,0,0.014,0.025,0.099,0.068c0.165,0.082,0.224,0.127,0.358,0.261
	c0.095,0.094,0.135,0.171,0.197,0.294c0.042,0.085,0.068,0.284,0.068,0.1c0,0.099,0,0.197,0,0.297
	C32.339,28.426,32.964,28.426,32.964,28.023z"/>
<rect id="_x3C_Slice_x3E__100_" fill="none" width="52" height="35.666"/>
</svg>
