<?xml version="1.0" encoding="utf-8"?>
<!-- Generator: Adobe Illustrator 15.0.2, SVG Export Plug-In  -->
<!DOCTYPE svg PUBLIC "-//W3C//DTD SVG 1.1//EN" "http://www.w3.org/Graphics/SVG/1.1/DTD/svg11.dtd" [
	<!ENTITY ns_flows "http://ns.adobe.com/Flows/1.0/">
]>
<svg version="1.1"
	 xmlns="http://www.w3.org/2000/svg" xmlns:xlink="http://www.w3.org/1999/xlink" xmlns:a="http://ns.adobe.com/AdobeSVGViewerExtensions/3.0/"
	 x="0px" y="0px" width="56px" height="50px" viewBox="54.333 0.666 56 50"
	 overflow="visible" enable-background="new 54.333 0.666 56 50" xml:space="preserve">
<defs>
</defs>
<path d="M84.045,24.295c0.608,1.014,1.06,3.529-0.952,3.529c-2.17,0-3.881-2.569-5.509-3.791c-1.026-0.77-3.048-0.813-3.706,0.502
	c-0.615,1.231-0.338,2.328,0.39,3.537c0.208,0.344,0.749,0.03,0.54-0.316c-0.74-1.229-1.145-2.996,0.479-3.541
	c1.921-0.644,4.058,2.064,5.253,3.254c1.221,1.215,3.009,1.322,4.22,0.111c0.973-0.973,0.418-2.613-0.174-3.602
	C84.378,23.634,83.837,23.947,84.045,24.295L84.045,24.295z"/>
<g>
	<polygon fill-rule="evenodd" clip-rule="evenodd" points="77.204,25.914 77.204,25.693 77.093,25.471 76.981,25.248 76.872,25.025 
		76.649,24.914 76.427,24.805 76.204,24.693 75.981,24.693 75.761,24.693 75.538,24.805 75.315,24.914 75.093,25.025 74.981,25.248 
		74.872,25.471 74.761,25.693 74.761,25.914 74.761,26.248 74.872,26.471 74.981,26.693 75.093,26.805 75.315,27.025 75.538,27.137 
		75.761,27.248 75.981,27.248 76.204,27.248 76.427,27.137 76.649,27.025 76.872,26.805 76.981,26.693 77.093,26.471 77.204,26.248 
		77.204,25.914 	"/>
</g>
<g>
	<polygon fill-rule="evenodd" clip-rule="evenodd" points="83.981,25.914 83.981,25.693 83.872,25.471 83.761,25.248 83.649,25.025 
		83.427,24.914 83.204,24.805 82.981,24.693 82.761,24.693 82.538,24.693 82.315,24.805 82.093,24.914 81.872,25.025 81.761,25.248 
		81.649,25.471 81.538,25.693 81.538,25.914 81.538,26.248 81.649,26.471 81.761,26.693 81.872,26.805 82.093,27.025 82.315,27.137 
		82.538,27.248 82.761,27.248 82.981,27.248 83.204,27.137 83.427,27.025 83.649,26.805 83.761,26.693 83.872,26.471 83.981,26.248 
		83.981,25.914 	"/>
</g>
<rect id="_x3C_Slice_x3E__101_" fill="none" width="54.667" height="50.666"/>
<rect id="_x3C_Slice_x3E__100_" x="54.667" fill="none" width="56" height="50.666"/>
</svg>
