<?xml version="1.0" encoding="utf-8"?>
<!-- Generator: Adobe Illustrator 15.0.2, SVG Export Plug-In  -->
<!DOCTYPE svg PUBLIC "-//W3C//DTD SVG 1.1//EN" "http://www.w3.org/Graphics/SVG/1.1/DTD/svg11.dtd" [
	<!ENTITY ns_flows "http://ns.adobe.com/Flows/1.0/">
]>
<svg version="1.1"
	 xmlns="http://www.w3.org/2000/svg" xmlns:xlink="http://www.w3.org/1999/xlink" xmlns:a="http://ns.adobe.com/AdobeSVGViewerExtensions/3.0/"
	 x="0px" y="0px" width="53px" height="52px" viewBox="0 0.666 53 52" overflow="visible" enable-background="new 0 0.666 53 52"
	 xml:space="preserve">
<defs>
</defs>
<path d="M22.286,32.831c-0.704-2.074-1.408-4.148-2.111-6.223c-0.1,0.132-0.201,0.264-0.301,0.396c1.444,0,2.889,0,4.333,0
	c-0.1-0.132-0.201-0.264-0.301-0.396c-0.741,2.074-1.481,4.148-2.222,6.223c-0.136,0.38,0.468,0.543,0.603,0.166
	c0.741-2.074,1.481-4.148,2.222-6.223c0.069-0.194-0.109-0.396-0.301-0.396c-1.445,0-2.889,0-4.333,0
	c-0.194,0-0.367,0.201-0.301,0.396c0.704,2.074,1.408,4.148,2.111,6.223C21.812,33.377,22.416,33.214,22.286,32.831L22.286,32.831z"
	/>
<polygon fill-rule="evenodd" clip-rule="evenodd" points="23.207,20.248 23.207,19.914 23.207,19.691 23.095,19.58 22.873,19.357 
	22.762,19.248 22.54,19.137 22.317,19.025 21.984,19.025 21.762,19.025 21.54,19.137 21.317,19.248 21.207,19.357 20.984,19.58 
	20.873,19.691 20.873,19.914 20.873,20.248 20.873,20.469 20.873,20.691 20.984,20.914 21.207,21.025 21.317,21.246 21.54,21.357 
	21.762,21.357 21.984,21.469 22.317,21.357 22.54,21.357 22.762,21.246 22.873,21.025 23.095,20.914 23.207,20.691 23.207,20.469 
	23.207,20.248 "/>
<path d="M23.519,20.248c0-0.186,0-0.371,0-0.557c0-0.211-0.266-0.396-0.402-0.531c-0.309-0.311-0.679-0.447-1.108-0.447
	c-0.399,0-0.762,0.162-1.046,0.447c-0.136,0.136-0.402,0.32-0.402,0.531c0,0.186,0,0.371,0,0.557s-0.042,0.432,0.043,0.602
	c0.046,0.093,0.084,0.21,0.16,0.285c0.028,0.029,0.061,0.051,0.098,0.066c0.097,0.049,0.16,0.15,0.093,0.017
	c0.112,0.224,0.249,0.371,0.503,0.44c0.069,0.02,0.368,0.08,0.182-0.014c0.104,0.053,0.225,0.137,0.345,0.137
	c0.229,0,0.357-0.111,0.556-0.111c0.228,0,0.453-0.188,0.547-0.377c0.058-0.096,0.051-0.101-0.022-0.016
	c0.062-0.031,0.125-0.062,0.188-0.094c0.11-0.055,0.155-0.198,0.206-0.3C23.555,20.692,23.519,20.457,23.519,20.248
	c0-0.402-0.625-0.402-0.625,0c0,0.137,0,0.272,0,0.408c0.039-0.113,0.034-0.117-0.013-0.012c-0.058,0.098-0.051,0.103,0.022,0.018
	c-0.083,0.041-0.184,0.076-0.25,0.143s-0.102,0.167-0.143,0.249c0.085-0.073,0.08-0.08-0.017-0.022
	c-0.105,0.048-0.102,0.053,0.012,0.014c-0.194,0-0.333,0.032-0.518,0.094c-0.113,0.037,0.26,0.113-0.033-0.033
	c-0.076-0.039-0.141-0.061-0.227-0.061c-0.25,0,0.001,0.059-0.141-0.014c-0.096-0.058-0.102-0.051-0.017,0.022
	c-0.025-0.05-0.051-0.101-0.076-0.151c-0.038-0.075-0.089-0.127-0.164-0.164c-0.051-0.025-0.102-0.051-0.153-0.076
	c0.073,0.085,0.08,0.08,0.021-0.018c-0.071-0.142-0.013,0.109-0.013-0.141c0-0.074,0-0.147,0-0.221c0-0.123,0-0.246,0-0.369
	c0-0.218,0.076-0.17-0.062-0.031c0.054-0.053,0.107-0.106,0.16-0.16c0.13-0.131,0.218-0.218,0.38-0.299
	c0.074-0.037,0.148-0.074,0.222-0.111c-0.167,0.084,0.011,0.025,0.099,0.025c0.082,0,0.165,0,0.247,0
	c0.095,0.005,0.083-0.004-0.037-0.025c0.051,0.025,0.102,0.051,0.153,0.076c0.13,0.065,0.227,0.111,0.328,0.213
	c0.066,0.066,0.132,0.133,0.199,0.199c0.191,0.191,0.02-0.193,0.02,0.002c0,0.148,0,0.297,0,0.445
	C22.894,20.65,23.519,20.65,23.519,20.248z"/>
<polygon fill-rule="evenodd" clip-rule="evenodd" points="22.429,24.246 22.429,24.025 22.317,23.803 22.095,23.803 21.984,23.691 
	21.762,23.803 21.651,23.803 21.54,24.025 21.429,24.246 21.54,24.357 21.651,24.58 21.762,24.691 21.984,24.691 22.095,24.691 
	22.317,24.58 22.429,24.357 22.429,24.246 "/>
<path d="M22.741,24.246c0-0.097,0.015-0.209-0.011-0.304c-0.028-0.103-0.096-0.203-0.143-0.298c-0.048-0.096-0.165-0.154-0.27-0.154
	c-0.074,0-0.148,0-0.222,0c0.074,0.03,0.147,0.061,0.221,0.092c-0.037-0.037-0.074-0.074-0.111-0.111
	c-0.104-0.104-0.252-0.112-0.378-0.049c-0.05,0.025-0.101,0.051-0.152,0.076c-0.161,0.08,0.198-0.008-0.024-0.008
	c-0.104,0-0.222,0.059-0.27,0.154c-0.073,0.148-0.147,0.297-0.222,0.443c-0.064,0.127-0.056,0.275,0.049,0.379
	c0.023,0.024,0.048,0.049,0.072,0.072c0.066,0.066-0.036-0.076,0.025,0.047c0.04,0.08,0.072,0.162,0.136,0.227
	c0.177,0.177,0.321,0.191,0.561,0.191C22.428,25.004,22.741,24.665,22.741,24.246c0-0.402-0.625-0.402-0.625,0
	c0,0.031,0,0.062,0,0.094c0-0.164,0.048-0.15-0.013-0.029c-0.018,0.034-0.034,0.068-0.051,0.102
	c0.066-0.131,0.131-0.114-0.003-0.047c-0.034,0.018-0.068,0.035-0.102,0.052c0.164-0.083,0.149-0.038,0.037-0.038
	c-0.074,0-0.148,0-0.222,0c0.074,0.03,0.147,0.061,0.221,0.092c-0.033-0.033-0.066-0.066-0.1-0.1
	c0.084,0.084-0.019-0.061-0.039-0.102c-0.049-0.098-0.118-0.167-0.195-0.244c0.017,0.126,0.033,0.252,0.049,0.379
	c0.075-0.148,0.148-0.296,0.223-0.443c-0.09,0.051-0.18,0.103-0.27,0.154c0.191,0,0.324-0.07,0.491-0.154
	c-0.126-0.016-0.252-0.032-0.378-0.049c0.073,0.074,0.144,0.163,0.249,0.191c0.095,0.027,0.208,0.012,0.305,0.012
	c-0.09-0.052-0.18-0.104-0.27-0.154c0.035,0.07,0.071,0.142,0.106,0.213c-0.072-0.143-0.038-0.176-0.038-0.062
	c0,0.044,0,0.089,0,0.134C22.116,24.648,22.741,24.648,22.741,24.246z"/>
<path d="M23.429,23.934c-1,0-2,0-3,0c-0.403,0-0.403,0.625,0,0.625c1,0,2,0,3,0C23.832,24.559,23.832,23.934,23.429,23.934
	L23.429,23.934z"/>
<path d="M22.381,22.756c-0.481,0.852-0.963,1.703-1.444,2.555c-0.198,0.352,0.342,0.666,0.54,0.316
	c0.481-0.852,0.963-1.703,1.444-2.555C23.119,22.721,22.579,22.406,22.381,22.756L22.381,22.756z"/>
<path d="M22.921,25.311c-0.481-0.852-0.963-1.703-1.444-2.555c-0.198-0.35-0.738-0.035-0.54,0.316
	c0.481,0.852,0.963,1.703,1.444,2.555C22.579,25.977,23.119,25.662,22.921,25.311L22.921,25.311z"/>
<rect id="_x3C_Slice_x3E__101_" y="52" fill="none" width="53.333" height="35.666"/>
<rect id="_x3C_Slice_x3E__100_" fill="none" width="53.333" height="52"/>
</svg>
