<?xml version="1.0" encoding="utf-8"?>
<!-- Generator: Adobe Illustrator 15.0.2, SVG Export Plug-In  -->
<!DOCTYPE svg PUBLIC "-//W3C//DTD SVG 1.1//EN" "http://www.w3.org/Graphics/SVG/1.1/DTD/svg11.dtd" [
	<!ENTITY ns_flows "http://ns.adobe.com/Flows/1.0/">
]>
<svg version="1.1"
	 xmlns="http://www.w3.org/2000/svg" xmlns:xlink="http://www.w3.org/1999/xlink" xmlns:a="http://ns.adobe.com/AdobeSVGViewerExtensions/3.0/"
	 x="0px" y="0px" width="55px" height="52px" viewBox="56.666 0.666 55 52"
	 overflow="visible" enable-background="new 56.666 0.666 55 52" xml:space="preserve">
<defs>
</defs>
<path d="M83.061,30.942c-0.74-2.074-1.482-4.148-2.223-6.223c-0.101,0.132-0.201,0.264-0.301,0.396c1.444,0,2.889,0,4.334,0
	c-0.102-0.132-0.201-0.264-0.302-0.396c-0.704,2.074-1.407,4.148-2.111,6.223c-0.13,0.383,0.474,0.546,0.603,0.166
	c0.703-2.074,1.408-4.148,2.111-6.223c0.066-0.194-0.107-0.396-0.301-0.396c-1.445,0-2.89,0-4.334,0
	c-0.192,0-0.371,0.201-0.302,0.396c0.741,2.074,1.481,4.148,2.223,6.223C82.592,31.485,83.197,31.322,83.061,30.942L83.061,30.942z"
	/>
<path d="M84.316,25.934c-1.074,0-2.148,0-3.223,0c-0.403,0-0.403,0.625,0,0.625c1.074,0,2.148,0,3.223,0
	C84.719,26.559,84.719,25.934,84.316,25.934L84.316,25.934z"/>
<polygon fill-rule="evenodd" clip-rule="evenodd" points="83.205,22.246 83.205,22.025 83.094,21.914 82.871,21.803 82.76,21.691 
	82.537,21.803 82.316,21.914 82.205,22.025 82.205,22.246 82.205,22.469 82.316,22.58 82.537,22.691 82.76,22.803 82.871,22.691 
	83.094,22.58 83.205,22.469 83.205,22.246 "/>
<path d="M83.518,22.246c0-0.232-0.021-0.37-0.191-0.541c-0.064-0.064-0.147-0.098-0.228-0.137c-0.038-0.02-0.091-0.07-0.019,0.002
	c-0.033-0.033-0.066-0.066-0.1-0.1c-0.104-0.104-0.252-0.112-0.379-0.049c-0.148,0.074-0.296,0.148-0.443,0.223
	c-0.239,0.121-0.266,0.366-0.266,0.602c0,0.236,0.025,0.482,0.266,0.604c0.147,0.074,0.295,0.148,0.443,0.223
	c0.127,0.063,0.274,0.056,0.379-0.049c0.023-0.023,0.048-0.048,0.072-0.072c0.065-0.065-0.076,0.036,0.046-0.025
	c0.08-0.039,0.163-0.072,0.228-0.137C83.498,22.617,83.518,22.48,83.518,22.246c0-0.402-0.625-0.402-0.625,0
	c0,0.074,0,0.148,0,0.223c0.029-0.074,0.061-0.147,0.091-0.221c-0.033,0.033-0.066,0.066-0.1,0.1
	c0.085-0.085-0.061,0.019-0.101,0.039c-0.099,0.049-0.168,0.117-0.245,0.195c0.126-0.017,0.253-0.033,0.379-0.049
	c-0.086-0.043-0.171-0.086-0.257-0.129c-0.059-0.029-0.118-0.06-0.178-0.09c0.105,0.054-0.024-0.034-0.057-0.066
	c0.03,0.073,0.061,0.146,0.092,0.221c0-0.148,0-0.295,0-0.443c-0.031,0.074-0.062,0.147-0.092,0.221
	c0.032-0.032,0.162-0.12,0.057-0.066c0.06-0.03,0.119-0.061,0.178-0.09c0.086-0.043,0.171-0.086,0.257-0.129
	c-0.126-0.016-0.253-0.032-0.379-0.049c0.077,0.078,0.146,0.146,0.245,0.195c0.048,0.023,0.096,0.048,0.143,0.072
	c-0.105-0.053,0.025,0.034,0.058,0.066c-0.03-0.073-0.062-0.146-0.091-0.221c0,0.074,0,0.146,0,0.221
	C82.893,22.648,83.518,22.648,83.518,22.246z"/>
<path d="M84.205,21.934c-1,0-2,0-3,0c-0.403,0-0.403,0.625,0,0.625c1,0,2,0,3,0C84.607,22.559,84.607,21.934,84.205,21.934
	L84.205,21.934z"/>
<path d="M83.157,20.756c-0.481,0.889-0.964,1.777-1.445,2.666c-0.192,0.355,0.348,0.67,0.54,0.316
	c0.481-0.889,0.963-1.777,1.445-2.666C83.889,20.717,83.35,20.402,83.157,20.756L83.157,20.756z"/>
<path d="M83.697,23.422c-0.482-0.889-0.964-1.777-1.445-2.666c-0.192-0.354-0.732-0.039-0.54,0.316
	c0.481,0.889,0.964,1.777,1.445,2.666C83.35,24.092,83.889,23.777,83.697,23.422L83.697,23.422z"/>
<rect id="_x3C_Slice_x3E__103_" y="52" fill="none" width="57.333" height="35.666"/>
<rect id="_x3C_Slice_x3E__102_" x="57.333" y="52" fill="none" width="54.667" height="35.666"/>
<rect id="_x3C_Slice_x3E__101_" fill="none" width="57.333" height="52"/>
<rect id="_x3C_Slice_x3E__100_" x="57.333" fill="none" width="54.667" height="52"/>
</svg>
