<?xml version="1.0" encoding="utf-8"?>
<!-- Generator: Adobe Illustrator 15.0.2, SVG Export Plug-In  -->
<!DOCTYPE svg PUBLIC "-//W3C//DTD SVG 1.1//EN" "http://www.w3.org/Graphics/SVG/1.1/DTD/svg11.dtd" [
	<!ENTITY ns_flows "http://ns.adobe.com/Flows/1.0/">
]>
<svg version="1.1"
	 xmlns="http://www.w3.org/2000/svg" xmlns:xlink="http://www.w3.org/1999/xlink" xmlns:a="http://ns.adobe.com/AdobeSVGViewerExtensions/3.0/"
	 x="0px" y="0px" width="55px" height="55px" viewBox="56.666 0 55 55" overflow="visible" enable-background="new 56.666 0 55 55"
	 xml:space="preserve">
<defs>
</defs>
<path d="M76.67,22.583c0,3.148,0,6.296,0,9.444c0,0.403,0.625,0.403,0.625,0c0-3.148,0-6.296,0-9.444
	C77.295,22.18,76.67,22.18,76.67,22.583L76.67,22.583z"/>
<path d="M88.428,30.271c-3.52,0-7.038,0-10.557,0c-0.403,0-0.403,0.625,0,0.625c3.519,0,7.037,0,10.557,0
	C88.83,30.896,88.83,30.271,88.428,30.271L88.428,30.271z"/>
<path d="M88.428,27.048c-3.52,0-7.038,0-10.557,0c-0.403,0-0.403,0.625,0,0.625c3.519,0,7.037,0,10.557,0
	C88.83,27.673,88.83,27.048,88.428,27.048L88.428,27.048z"/>
<path d="M81.094,23.715c-1.074,0-2.148,0-3.223,0c-0.403,0-0.403,0.625,0,0.625c1.074,0,2.148,0,3.223,0
	C81.496,24.34,81.496,23.715,81.094,23.715L81.094,23.715z"/>
<path d="M88.428,23.715c-1.074,0-2.148,0-3.223,0c-0.403,0-0.403,0.625,0,0.625c1.074,0,2.148,0,3.223,0
	C88.83,24.34,88.83,23.715,88.428,23.715L88.428,23.715z"/>
<rect id="_x3C_Slice_x3E__103_" y="54.667" fill="none" width="57.333" height="54.667"/>
<rect id="_x3C_Slice_x3E__102_" x="57.333" y="54.667" fill="none" width="54.667" height="54.667"/>
<rect id="_x3C_Slice_x3E__101_" fill="none" width="57.333" height="54.667"/>
<rect id="_x3C_Slice_x3E__100_" x="57.333" fill="none" width="54.667" height="54.667"/>
</svg>
