<?xml version="1.0" encoding="utf-8"?>
<!-- Generator: Adobe Illustrator 15.0.2, SVG Export Plug-In  -->
<!DOCTYPE svg PUBLIC "-//W3C//DTD SVG 1.1//EN" "http://www.w3.org/Graphics/SVG/1.1/DTD/svg11.dtd" [
	<!ENTITY ns_flows "http://ns.adobe.com/Flows/1.0/">
]>
<svg version="1.1"
	 xmlns="http://www.w3.org/2000/svg" xmlns:xlink="http://www.w3.org/1999/xlink" xmlns:a="http://ns.adobe.com/AdobeSVGViewerExtensions/3.0/"
	 x="0px" y="0px" width="56px" height="58px" viewBox="54.333 0 56 58" overflow="visible" enable-background="new 54.333 0 56 58"
	 xml:space="preserve">
<defs>
</defs>
<path d="M29.538,29.248h-8.332 M84.427,29.582H74.315 M79.427,27.471l-2.223,3.666h4.334L79.427,27.471 M138.427,29.248h-10.111
	 M134.093,30.693l-1.443-2.779 M134.093,27.914l-1.443,2.779"/>
<path d="M84.427,29.27c-3.371,0-6.741,0-10.111,0c-0.403,0-0.403,0.625,0,0.625c3.37,0,6.74,0,10.111,0
	C84.829,29.895,84.829,29.27,84.427,29.27L84.427,29.27z"/>
<path d="M79.156,27.312c-0.741,1.223-1.481,2.444-2.223,3.666c-0.124,0.204,0.036,0.471,0.271,0.471c1.444,0,2.889,0,4.334,0
	c0.237,0,0.387-0.266,0.27-0.471c-0.704-1.222-1.408-2.443-2.111-3.666c-0.201-0.349-0.741-0.034-0.54,0.316
	c0.704,1.222,1.407,2.443,2.111,3.666c0.091-0.157,0.181-0.314,0.271-0.471c-1.445,0-2.89,0-4.334,0
	c0.09,0.156,0.18,0.313,0.27,0.471c0.74-1.223,1.481-2.444,2.223-3.666C79.905,27.283,79.365,26.969,79.156,27.312L79.156,27.312z"
	/>
<rect id="_x3C_Slice_x3E__103_" y="57.334" fill="none" width="54.667" height="52"/>
<rect id="_x3C_Slice_x3E__102_" x="54.667" y="57.334" fill="none" width="56" height="52"/>
<rect id="_x3C_Slice_x3E__101_" fill="none" width="54.667" height="57.334"/>
<rect id="_x3C_Slice_x3E__100_" x="54.667" fill="none" width="56" height="57.334"/>
</svg>
