<?xml version="1.0" encoding="utf-8"?>
<!-- Generator: Adobe Illustrator 15.0.2, SVG Export Plug-In  -->
<!DOCTYPE svg PUBLIC "-//W3C//DTD SVG 1.1//EN" "http://www.w3.org/Graphics/SVG/1.1/DTD/svg11.dtd" [
	<!ENTITY ns_flows "http://ns.adobe.com/Flows/1.0/">
]>
<svg version="1.1"
	 xmlns="http://www.w3.org/2000/svg" xmlns:xlink="http://www.w3.org/1999/xlink" xmlns:a="http://ns.adobe.com/AdobeSVGViewerExtensions/3.0/"
	 x="0px" y="0px" width="35px" height="57px" viewBox="0 0.667 35 57" overflow="visible" enable-background="new 0 0.667 35 57"
	 xml:space="preserve">
<defs>
</defs>
<polygon fill-rule="evenodd" clip-rule="evenodd" points="5.319,30.917 5.542,30.695 5.764,30.472 5.986,30.362 5.986,30.139 
	6.097,30.028 5.986,29.917 5.986,29.806 5.764,29.806 5.542,29.806 5.319,29.695 5.208,29.583 5.208,29.362 5.208,29.25 
	5.208,29.139 5.319,29.028 5.542,28.917 5.764,28.917 5.875,28.917 5.986,28.917 6.208,29.028 6.208,29.139 6.319,29.25 
	6.43,29.362 6.43,29.583 6.43,29.695 6.43,30.028 6.319,30.25 6.319,30.362 6.097,30.583 5.986,30.695 5.764,30.917 5.43,31.028 
	5.319,30.917 "/>
<path d="M5.54,31.138c0.229-0.229,0.37-0.391,0.604-0.507c0.097-0.048,0.155-0.165,0.155-0.27c0-0.074,0-0.148,0-0.223
	c-0.031,0.074-0.061,0.147-0.091,0.221c0.037-0.037,0.074-0.074,0.111-0.111c0.12-0.12,0.12-0.322,0-0.442
	c-0.037-0.037-0.074-0.074-0.111-0.111c0.03,0.074,0.061,0.147,0.091,0.221c0-0.037,0-0.074,0-0.111
	c0-0.171-0.142-0.312-0.312-0.312c-0.136,0-0.273,0-0.41,0c0.16,0,0.084,0.023-0.021-0.029c-0.059-0.029-0.066-0.042-0.126-0.102
	c0.031,0.074,0.062,0.147,0.092,0.221c0-0.148,0-0.296,0-0.444c-0.03,0.074-0.061,0.147-0.092,0.221
	c0.061-0.06,0.068-0.072,0.126-0.102c0.041-0.02,0.081-0.04,0.121-0.06c-0.175,0.087-0.044,0.031,0.053,0.031
	c0.067,0,0.134,0,0.202,0c-0.158,0,0.029,0.023,0.12,0.068c-0.051-0.09-0.103-0.18-0.155-0.27c0,0.267,0.138,0.378,0.313,0.555
	c-0.03-0.074-0.061-0.147-0.091-0.221c0,0.193,0,0.387,0,0.58c-0.005,0.099,0.005,0.083,0.031-0.048
	c-0.029,0.059-0.059,0.117-0.088,0.176c-0.049,0.099-0.054,0.185-0.054,0.292c0.03-0.074,0.061-0.147,0.092-0.221
	c-0.117,0.117-0.233,0.233-0.35,0.35c-0.086,0.086-0.304,0.204-0.086,0.131c-0.105,0.035-0.21,0.07-0.315,0.105
	c0.101,0.026,0.203,0.053,0.304,0.08c-0.037-0.037-0.074-0.074-0.111-0.111c-0.285-0.285-0.727,0.157-0.441,0.442
	c0.037,0.037,0.074,0.074,0.11,0.111c0.076,0.076,0.2,0.115,0.304,0.081c0.292-0.098,0.458-0.178,0.677-0.397
	c0.18-0.18,0.441-0.352,0.441-0.626c0,0.136-0.017,0.05,0.029-0.042c0.038-0.076,0.082-0.148,0.082-0.236c0-0.129,0-0.259,0-0.389
	c0-0.347-0.072-0.479-0.314-0.721c0.031,0.074,0.062,0.147,0.092,0.221c0-0.037,0-0.074,0-0.111c0-0.104-0.058-0.222-0.155-0.27
	c-0.277-0.138-0.484-0.153-0.79-0.153c-0.25,0-0.681,0.253-0.681,0.534c0,0.297-0.056,0.665,0.266,0.826
	c0.288,0.144,0.506,0.154,0.824,0.154c-0.104-0.104-0.208-0.208-0.312-0.312c0,0.206,0.061,0.302,0.203,0.443
	c0-0.147,0-0.294,0-0.442c-0.18,0.18-0.203,0.305-0.203,0.555c0.051-0.09,0.103-0.18,0.155-0.27
	c-0.298,0.148-0.496,0.371-0.729,0.604C4.813,30.981,5.255,31.423,5.54,31.138z"/>
<path d="M6.43,36.119c0.815,0,1.63,0,2.445,0c0.17,0,0.312-0.143,0.312-0.312c0-3.889,0-7.778,0-11.667
	c0-0.17-0.142-0.312-0.312-0.312c-0.815,0-1.63,0-2.445,0c-0.403,0-0.403,0.625,0,0.625c0.688,0,1.375,0,2.063,0
	c0.581,0,0.069-0.197,0.069-0.219c0,0.229,0,0.458,0,0.688c0,1.684,0,3.368,0,5.052s0,3.369,0,5.052c0,0.83-0.104,0.469,0.208,0.469
	c-0.78,0-1.56,0-2.34,0C6.027,35.494,6.027,36.119,6.43,36.119L6.43,36.119z"/>
<rect id="_x3C_Slice_x3E__101_" y="57.333" fill="none" width="35" height="53.333"/>
<rect id="_x3C_Slice_x3E__100_" fill="none" width="35" height="57.333"/>
</svg>
