<?xml version="1.0" encoding="utf-8"?>
<!-- Generator: Adobe Illustrator 15.0.2, SVG Export Plug-In  -->
<!DOCTYPE svg PUBLIC "-//W3C//DTD SVG 1.1//EN" "http://www.w3.org/Graphics/SVG/1.1/DTD/svg11.dtd" [
	<!ENTITY ns_flows "http://ns.adobe.com/Flows/1.0/">
]>
<svg version="1.1"
	 xmlns="http://www.w3.org/2000/svg" xmlns:xlink="http://www.w3.org/1999/xlink" xmlns:a="http://ns.adobe.com/AdobeSVGViewerExtensions/3.0/"
	 x="0px" y="0px" width="60px" height="55px" viewBox="0 0.333 60 55" overflow="visible" enable-background="new 0 0.333 60 55"
	 xml:space="preserve">
<defs>
</defs>
<polygon fill-rule="evenodd" clip-rule="evenodd" points="27.541,25.583 27.763,25.36 27.985,25.249 28.207,25.026 28.318,24.806 
	28.318,24.583 28.318,24.472 28.207,24.472 27.985,24.472 27.651,24.36 27.541,24.36 27.429,24.249 27.429,24.138 27.318,24.138 
	27.318,23.915 27.318,23.806 27.318,23.694 27.541,23.472 27.763,23.36 27.985,23.36 28.096,23.36 28.318,23.36 28.429,23.472 
	28.541,23.583 28.651,23.806 28.651,23.915 28.763,24.138 28.763,24.249 28.763,24.472 28.763,24.694 28.651,24.806 28.541,25.026 
	28.429,25.249 28.207,25.36 27.985,25.583 27.651,25.806 27.541,25.583 "/>
<path d="M27.762,25.804c0.205-0.205,0.426-0.314,0.643-0.533c0.222-0.223,0.226-0.508,0.226-0.799c0-0.17-0.142-0.312-0.312-0.312
	c-0.192,0-0.266,0.006-0.417-0.045c-0.079-0.025-0.165-0.066-0.25-0.066c-0.104-0.008-0.077,0.014,0.081,0.062
	c-0.157-0.158,0.009,0.199,0.009,0.027c0-0.17-0.142-0.312-0.312-0.312c-0.037,0-0.074,0-0.111,0
	c0.104,0.104,0.208,0.209,0.312,0.312c0-0.074,0-0.148,0-0.223c0-0.037,0-0.072,0-0.109c0-0.176-0.177,0.195-0.014,0.031
	c0.082-0.082,0.104-0.107,0.192-0.15c0.105-0.048,0.102-0.053-0.012-0.014c0.062,0,0.125,0,0.188,0c0.074,0,0.148,0,0.222,0
	c0.146,0-0.17-0.152,0.03,0.049c0.071,0.07,0.102,0.271,0.102,0.139c0,0.126,0.043,0.215,0.099,0.324
	c0.084,0.168,0.013-0.084,0.013,0.1c0,0.1,0,0.199,0,0.299c0,0.195,0.171-0.189-0.02,0.002c-0.075,0.074-0.113,0.191-0.16,0.283
	c-0.048,0.098-0.174,0.199-0.034,0.129c-0.097,0.049-0.196,0.088-0.274,0.166c-0.167,0.166-0.249,0.227-0.469,0.373
	c0.143,0.037,0.285,0.074,0.427,0.111c-0.037-0.074-0.073-0.148-0.11-0.223c-0.18-0.36-0.719-0.043-0.54,0.316
	c0.037,0.074,0.074,0.148,0.111,0.223c0.072,0.146,0.292,0.201,0.427,0.111c0.438-0.291,0.821-0.533,1.057-1.002
	c0.122-0.24,0.209-0.338,0.209-0.637c0-0.118,0.021-0.266-0.011-0.382c-0.017-0.06-0.06-0.131-0.087-0.187
	c-0.104-0.209-0.013,0.098-0.013-0.062c0-0.254-0.231-0.473-0.396-0.637c-0.177-0.178-0.463-0.121-0.694-0.121
	c-0.29,0-0.501,0.148-0.698,0.348c-0.214,0.213-0.17,0.46-0.17,0.742c0,0.17,0.142,0.312,0.312,0.312c0.037,0,0.074,0,0.111,0
	c-0.104-0.104-0.208-0.209-0.312-0.312c0,0.596,0.743,0.646,1.202,0.646c-0.104-0.104-0.208-0.209-0.312-0.312
	c0,0.1,0,0.199,0,0.299c0-0.177-0.008-0.021-0.051,0.063c0.017-0.032-0.121,0.124-0.113,0.116c-0.134,0.134-0.359,0.249-0.522,0.412
	C27.035,25.647,27.477,26.089,27.762,25.804z"/>
<polygon fill-rule="evenodd" clip-rule="evenodd" points="27.541,29.694 27.763,29.583 27.985,29.36 28.207,29.138 28.318,28.915 
	28.318,28.806 28.318,28.583 28.207,28.583 27.985,28.583 27.651,28.472 27.541,28.472 27.429,28.36 27.429,28.36 27.318,28.249 
	27.318,28.026 27.318,27.915 27.318,27.806 27.541,27.583 27.763,27.472 27.985,27.472 28.096,27.472 28.318,27.583 28.429,27.583 
	28.541,27.806 28.651,27.915 28.651,28.026 28.763,28.249 28.763,28.36 28.763,28.583 28.763,28.806 28.651,28.915 28.541,29.138 
	28.429,29.36 28.207,29.583 27.985,29.806 27.651,29.915 27.541,29.694 "/>
<path d="M27.698,29.964c0.289-0.145,0.48-0.355,0.707-0.582c0.222-0.223,0.226-0.508,0.226-0.799c0-0.17-0.142-0.312-0.312-0.312
	c-0.259,0-0.33-0.016-0.584-0.1c-0.299-0.101,0.122,0.175-0.084-0.031c-0.131-0.131-0.02-0.098-0.02,0.074c0-0.062,0-0.125,0-0.188
	c0-0.037,0-0.074,0-0.111c0-0.174-0.177,0.197-0.014,0.033c-0.007,0.008,0.147-0.129,0.116-0.113
	c0.084-0.042,0.242-0.051,0.064-0.051c0.062,0,0.125,0,0.188,0c0.161,0-0.144-0.092,0.064,0.014c0.131,0.064,0.232,0.098,0.38,0.098
	c-0.09-0.052-0.18-0.104-0.27-0.154c0.056,0.11,0.1,0.226,0.189,0.314c0.157,0.154-0.01-0.201-0.01-0.029
	c0,0.072,0.028,0.13,0.06,0.192c0.034,0.067,0.051,0.234,0.051,0.086c0,0.056,0,0.111,0,0.167c0,0.049,0,0.098,0,0.146
	c0,0.213-0.062,0.117,0.062-0.005c-0.177,0.175-0.232,0.454-0.383,0.604c-0.096,0.096-0.192,0.192-0.288,0.289
	c-0.162,0.162,0.162-0.036-0.026,0.025c-0.083,0.027-0.165,0.055-0.247,0.082c0.118,0.047,0.235,0.096,0.353,0.143
	c-0.037-0.073-0.073-0.146-0.11-0.221c-0.181-0.359-0.72-0.043-0.54,0.316c0.037,0.073,0.074,0.146,0.111,0.221
	c0.06,0.119,0.227,0.185,0.353,0.143c0.317-0.104,0.48-0.197,0.717-0.436c0.228-0.228,0.317-0.543,0.532-0.754
	c0.148-0.145,0.134-0.665,0.081-0.86c-0.017-0.06-0.06-0.131-0.087-0.187c-0.086-0.172,0.044,0.098-0.024-0.147
	c-0.039-0.14-0.187-0.272-0.253-0.407c-0.049-0.096-0.166-0.154-0.27-0.154c-0.161,0,0.144,0.092-0.064-0.014
	c-0.084-0.041-0.171-0.098-0.269-0.098c-0.158,0-0.346-0.03-0.491,0.043c-0.337,0.168-0.599,0.369-0.599,0.769
	c0,0.327,0.071,0.592,0.377,0.771c0.243,0.143,0.649,0.154,0.936,0.154c-0.104-0.104-0.208-0.209-0.312-0.312
	c0,0.092,0,0.186,0,0.277c0.038-0.094,0.033-0.092-0.013,0.008c-0.058,0.116,0.001,0.041-0.085,0.127
	c-0.181,0.181-0.311,0.322-0.525,0.43C27.022,29.604,27.339,30.144,27.698,29.964z"/>
<rect id="_x3C_Slice_x3E__101_" y="54.667" fill="none" width="60" height="50.666"/>
<rect id="_x3C_Slice_x3E__100_" fill="none" width="60" height="54.667"/>
</svg>
