<?xml version="1.0" encoding="utf-8"?>
<!-- Generator: Adobe Illustrator 15.0.2, SVG Export Plug-In  -->
<!DOCTYPE svg PUBLIC "-//W3C//DTD SVG 1.1//EN" "http://www.w3.org/Graphics/SVG/1.1/DTD/svg11.dtd" [
	<!ENTITY ns_flows "http://ns.adobe.com/Flows/1.0/">
]>
<svg version="1.1"
	 xmlns="http://www.w3.org/2000/svg" xmlns:xlink="http://www.w3.org/1999/xlink" xmlns:a="http://ns.adobe.com/AdobeSVGViewerExtensions/3.0/"
	 x="0px" y="0px" width="52px" height="35px" viewBox="0 0 52 35" overflow="visible" enable-background="new 0 0 52 35"
	 xml:space="preserve">
<defs>
</defs>
<path d="M31.742,6.141c0-3.132-2.626-5.757-5.757-5.757c-3.085,0-5.646,2.714-5.646,5.757C20.339,13.471,31.742,13.47,31.742,6.141
	c0-0.403-0.625-0.403-0.625,0c0,6.516-10.153,6.517-10.153,0c0-6.574,10.153-6.574,10.153,0C31.117,6.544,31.742,6.544,31.742,6.141
	L31.742,6.141z"/>
<polygon fill-rule="evenodd" clip-rule="evenodd" points="25.208,11.474 25.652,11.474 25.985,11.474 26.43,11.474 26.874,11.474 
	26.652,11.474 26.43,11.585 26.208,11.696 26.208,11.808 26.097,11.918 26.097,12.141 25.985,12.696 25.985,12.141 25.985,11.918 
	25.874,11.808 25.874,11.696 25.652,11.585 25.43,11.474 25.208,11.474 "/>
<path d="M25.208,11.786c0.555,0,1.111,0,1.667,0c0.403,0,0.403-0.625,0-0.625c-0.323,0-0.541,0.124-0.824,0.265
	c-0.097,0.048-0.155,0.166-0.155,0.27c0,0.037,0,0.074,0,0.111c0.031-0.074,0.061-0.147,0.091-0.221
	c-0.073,0.074-0.162,0.144-0.191,0.249c-0.013,0.049-0.026,0.351-0.002,0.231c-0.037,0.183-0.073,0.364-0.109,0.547
	c0.205,0.027,0.409,0.055,0.614,0.083c0-0.183,0-0.364,0-0.547c0-0.249-0.021-0.383-0.203-0.563
	c0.031,0.074,0.062,0.147,0.092,0.221c0-0.037,0-0.074,0-0.111c0-0.104-0.058-0.222-0.155-0.27
	c-0.283-0.141-0.501-0.265-0.824-0.265C24.805,11.161,24.805,11.786,25.208,11.786c0.066,0,0.133,0,0.199,0
	c-0.13-0.045-0.155-0.05-0.077-0.014c0.036,0.018,0.071,0.036,0.107,0.054c0.093,0.047,0.187,0.093,0.28,0.14
	c-0.051-0.09-0.103-0.18-0.155-0.27c0,0.202,0.063,0.304,0.203,0.443c-0.031-0.074-0.062-0.147-0.092-0.221c0,0.26,0,0.519,0,0.778
	c0,0.345,0.543,0.436,0.614,0.083c0.058-0.29,0.123-0.565,0.123-0.861c-0.03,0.074-0.061,0.147-0.092,0.221
	c0.14-0.139,0.203-0.241,0.203-0.443c-0.051,0.09-0.103,0.18-0.155,0.27c0.093-0.046,0.187-0.093,0.28-0.14
	c0.036-0.018,0.071-0.036,0.107-0.054c0.079-0.036,0.053-0.032-0.077,0.014c0.066,0,0.133,0,0.199,0c0.403,0,0.403-0.625,0-0.625
	c-0.556,0-1.111,0-1.667,0C24.805,11.161,24.805,11.786,25.208,11.786z"/>
<path d="M26.298,13.918c0-0.814,0-1.629,0-2.444c0-0.403-0.625-0.403-0.625,0c0,0.815,0,1.63,0,2.444
	C25.673,14.321,26.298,14.321,26.298,13.918L26.298,13.918z"/>
<rect id="_x3C_Slice_x3E__101_" y="34.667" fill="none" width="52" height="50.667"/>
<rect id="_x3C_Slice_x3E__100_" fill="none" width="52" height="34.667"/>
</svg>
