<?xml version="1.0" encoding="utf-8"?>
<!-- Generator: Adobe Illustrator 15.0.2, SVG Export Plug-In  -->
<!DOCTYPE svg PUBLIC "-//W3C//DTD SVG 1.1//EN" "http://www.w3.org/Graphics/SVG/1.1/DTD/svg11.dtd" [
	<!ENTITY ns_flows "http://ns.adobe.com/Flows/1.0/">
]>
<svg version="1.1"
	 xmlns="http://www.w3.org/2000/svg" xmlns:xlink="http://www.w3.org/1999/xlink" xmlns:a="http://ns.adobe.com/AdobeSVGViewerExtensions/3.0/"
	 x="0px" y="0px" width="55px" height="57px" viewBox="56.666 0.667 55 57"
	 overflow="visible" enable-background="new 56.666 0.667 55 57" xml:space="preserve">
<defs>
</defs>
<path d="M83.871,24.452c0.688,0,1.375,0,2.062,0c0.582,0,0.07-0.197,0.07-0.219c0,0.229,0,0.458,0,0.688c0,1.684,0,3.368,0,5.052
	s0,3.369,0,5.052c0,0.83-0.105,0.469,0.207,0.469c-0.78,0-1.561,0-2.34,0c-0.403,0-0.403,0.625,0,0.625c0.814,0,1.63,0,2.445,0
	c0.17,0,0.312-0.143,0.312-0.312c0-3.889,0-7.778,0-11.667c0-0.17-0.143-0.312-0.312-0.312c-0.815,0-1.631,0-2.445,0
	C83.468,23.827,83.468,24.452,83.871,24.452L83.871,24.452z"/>
<path d="M81.506,35.167c-0.703-2.074-1.408-4.148-2.111-6.223c-0.101,0.132-0.201,0.264-0.301,0.396c1.444,0,2.889,0,4.334,0
	c-0.102-0.132-0.201-0.264-0.302-0.396c-0.741,2.074-1.481,4.148-2.223,6.223c-0.136,0.38,0.468,0.542,0.603,0.166
	c0.74-2.074,1.482-4.148,2.223-6.223c0.069-0.193-0.109-0.396-0.301-0.396c-1.445,0-2.89,0-4.334,0
	c-0.195,0-0.367,0.201-0.302,0.396c0.704,2.074,1.407,4.148,2.111,6.223C81.032,35.713,81.636,35.55,81.506,35.167L81.506,35.167z"
	/>
<path d="M82.072,26.583c0-0.097,0.015-0.21-0.012-0.305c-0.027-0.099-0.092-0.197-0.139-0.288c-0.101-0.202-0.432-0.276-0.63-0.276
	c-0.221,0-0.372,0.051-0.569,0.149c-0.202,0.101-0.275,0.434-0.275,0.632c0,0.463,0.258,0.844,0.758,0.844
	c0.097,0,0.21,0.015,0.305-0.011c0.1-0.027,0.195-0.092,0.287-0.138C81.986,27.096,82.072,26.772,82.072,26.583
	c0-0.403-0.625-0.403-0.625,0c0,0.222,0.088-0.137,0.007,0.024c-0.02,0.039-0.039,0.078-0.059,0.117
	c-0.052,0.104,0.165-0.113,0.06-0.061c-0.038,0.02-0.077,0.039-0.115,0.059c-0.105,0.053-0.059-0.008,0.075-0.008
	c-0.07,0-0.14,0-0.21,0c-0.223,0,0.137,0.088-0.024,0.008c-0.039-0.02-0.079-0.039-0.118-0.059
	c-0.104-0.052,0.113,0.165,0.061,0.061c-0.02-0.039-0.039-0.078-0.059-0.117c-0.053-0.105,0.008-0.059,0.008,0.07
	c0-0.061,0-0.121,0-0.181c0-0.041,0-0.082,0-0.123c0,0.135-0.061,0.182-0.008,0.075c0.02-0.039,0.039-0.078,0.059-0.117
	c0.053-0.104-0.164,0.112-0.061,0.061c0.039-0.02,0.079-0.039,0.118-0.059c0.104-0.052,0.06,0.007-0.069,0.007
	c0.061,0,0.121,0,0.181,0c0.041,0,0.082,0,0.123,0c-0.134,0-0.181-0.061-0.075-0.007c0.038,0.02,0.077,0.04,0.115,0.059
	c0.105,0.052-0.111-0.165-0.06-0.061c0.02,0.039,0.039,0.078,0.059,0.117c0.054,0.106-0.007,0.06-0.007-0.075c0,0.07,0,0.14,0,0.21
	C81.447,26.987,82.072,26.987,82.072,26.583z"/>
<path d="M82.76,26.271c-1,0-2,0-3,0c-0.403,0-0.403,0.625,0,0.625c1,0,2,0,3,0C83.162,26.896,83.162,26.271,82.76,26.271
	L82.76,26.271z"/>
<path d="M81.712,24.982c-0.481,0.926-0.964,1.852-1.445,2.777c-0.186,0.357,0.354,0.673,0.54,0.315
	c0.481-0.926,0.963-1.852,1.445-2.777C82.438,24.94,81.898,24.624,81.712,24.982L81.712,24.982z"/>
<path d="M82.252,27.759c-0.482-0.926-0.964-1.852-1.445-2.777c-0.186-0.358-0.726-0.042-0.54,0.315
	c0.481,0.926,0.964,1.852,1.445,2.777C81.898,28.433,82.438,28.117,82.252,27.759L82.252,27.759z"/>
<rect id="_x3C_Slice_x3E__103_" y="57.333" fill="none" width="57.333" height="53.333"/>
<rect id="_x3C_Slice_x3E__102_" x="57.333" y="57.333" fill="none" width="54.667" height="53.333"/>
<rect id="_x3C_Slice_x3E__101_" fill="none" width="57.333" height="57.333"/>
<rect id="_x3C_Slice_x3E__100_" x="57.333" fill="none" width="54.667" height="57.333"/>
</svg>
