<?xml version="1.0" encoding="utf-8"?>
<!-- Generator: Adobe Illustrator 15.0.2, SVG Export Plug-In  -->
<!DOCTYPE svg PUBLIC "-//W3C//DTD SVG 1.1//EN" "http://www.w3.org/Graphics/SVG/1.1/DTD/svg11.dtd" [
	<!ENTITY ns_flows "http://ns.adobe.com/Flows/1.0/">
]>
<svg version="1.1"
	 xmlns="http://www.w3.org/2000/svg" xmlns:xlink="http://www.w3.org/1999/xlink" xmlns:a="http://ns.adobe.com/AdobeSVGViewerExtensions/3.0/"
	 x="0px" y="0px" width="60px" height="52px" viewBox="0 0.666 60 52" overflow="visible" enable-background="new 0 0.666 60 52"
	 xml:space="preserve">
<defs>
</defs>
<path d="M28.286,32.831c-0.704-2.074-1.407-4.148-2.111-6.223c-0.101,0.132-0.201,0.264-0.301,0.396c1.445,0,2.889,0,4.333,0
	c-0.101-0.132-0.201-0.264-0.301-0.396c-0.741,2.074-1.481,4.148-2.222,6.223c-0.136,0.38,0.468,0.543,0.603,0.166
	c0.741-2.074,1.481-4.148,2.222-6.223c0.069-0.194-0.11-0.396-0.301-0.396c-1.444,0-2.889,0-4.333,0
	c-0.194,0-0.368,0.201-0.301,0.396c0.704,2.074,1.407,4.148,2.111,6.223C27.812,33.377,28.416,33.214,28.286,32.831L28.286,32.831z"
	/>
<polygon fill-rule="evenodd" clip-rule="evenodd" points="29.207,24.025 29.207,23.691 29.207,23.469 29.096,23.357 28.874,23.137 
	28.763,23.025 28.541,22.914 28.318,22.803 27.985,22.803 27.763,22.803 27.541,22.914 27.318,23.025 27.207,23.137 26.985,23.357 
	26.874,23.469 26.874,23.691 26.874,24.025 26.874,24.246 26.874,24.469 26.985,24.691 27.207,24.803 27.318,25.025 27.541,25.137 
	27.763,25.137 27.985,25.246 28.318,25.137 28.541,25.137 28.763,25.025 28.874,24.803 29.096,24.691 29.207,24.469 29.207,24.246 
	29.207,24.025 "/>
<path d="M29.52,24.025c0-0.186,0-0.371,0-0.557c0-0.212-0.266-0.395-0.402-0.53c-0.312-0.31-0.676-0.448-1.108-0.448
	c-0.403,0-0.76,0.164-1.047,0.448c-0.137,0.136-0.402,0.318-0.402,0.53c0,0.186,0,0.371,0,0.557s-0.042,0.432,0.042,0.602
	c0.047,0.093,0.085,0.21,0.16,0.285c0.029,0.029,0.062,0.051,0.098,0.066c0.097,0.049,0.16,0.15,0.093,0.017
	c0.112,0.225,0.249,0.373,0.503,0.442c0.069,0.02,0.371,0.078,0.182-0.014c0.104,0.051,0.226,0.135,0.345,0.135
	c0.229,0,0.358-0.109,0.556-0.109c0.228,0,0.453-0.188,0.547-0.377c0.059-0.098,0.051-0.103-0.022-0.018
	c0.062-0.031,0.125-0.062,0.188-0.094c0.11-0.055,0.155-0.198,0.206-0.3C29.555,24.47,29.52,24.234,29.52,24.025
	c0-0.402-0.625-0.402-0.625,0c0,0.137,0,0.272,0,0.408c0.038-0.113,0.034-0.117-0.013-0.012c-0.059,0.098-0.052,0.103,0.021,0.018
	c-0.083,0.041-0.184,0.076-0.251,0.143c-0.066,0.066-0.101,0.168-0.142,0.251c0.085-0.073,0.08-0.08-0.016-0.022
	c-0.106,0.048-0.102,0.053,0.012,0.014c-0.193,0-0.334,0.031-0.518,0.092c-0.115,0.038,0.261,0.113-0.033-0.032
	c-0.076-0.037-0.141-0.06-0.227-0.06c-0.25,0,0.001,0.059-0.141-0.014c-0.096-0.058-0.102-0.051-0.016,0.022
	c-0.026-0.052-0.051-0.103-0.077-0.153c-0.038-0.075-0.089-0.127-0.164-0.164c-0.051-0.025-0.102-0.051-0.153-0.076
	c0.073,0.085,0.08,0.08,0.022-0.018c-0.071-0.142-0.013,0.109-0.013-0.141c0-0.074,0-0.147,0-0.221c0-0.123,0-0.246,0-0.369
	c0-0.218,0.076-0.17-0.063-0.031c0.054-0.053,0.107-0.105,0.161-0.16c0.129-0.128,0.219-0.219,0.379-0.299
	c0.074-0.037,0.148-0.074,0.222-0.111c-0.167,0.084,0.011,0.025,0.099,0.025c0.083,0,0.165,0,0.247,0
	c0.095,0.005,0.083-0.004-0.037-0.025c0.051,0.025,0.102,0.051,0.153,0.076c0.131,0.066,0.226,0.113,0.328,0.215
	c0.066,0.066,0.133,0.132,0.199,0.197c0.19,0.189,0.02-0.193,0.02,0.002c0,0.148,0,0.297,0,0.445
	C28.895,24.428,29.52,24.428,29.52,24.025z"/>
<polygon fill-rule="evenodd" clip-rule="evenodd" points="29.207,20.248 29.207,19.914 29.207,19.691 29.096,19.58 28.874,19.357 
	28.763,19.248 28.541,19.137 28.318,19.025 27.985,19.025 27.763,19.025 27.541,19.137 27.318,19.248 27.207,19.357 26.985,19.58 
	26.874,19.691 26.874,19.914 26.874,20.248 26.874,20.469 26.874,20.691 26.985,20.914 27.207,21.025 27.318,21.246 27.541,21.357 
	27.763,21.357 27.985,21.469 28.318,21.357 28.541,21.357 28.763,21.246 28.874,21.025 29.096,20.914 29.207,20.691 29.207,20.469 
	29.207,20.248 "/>
<path d="M29.52,20.248c0-0.186,0-0.371,0-0.557c0-0.211-0.266-0.396-0.402-0.531c-0.309-0.311-0.679-0.447-1.108-0.447
	c-0.399,0-0.763,0.162-1.047,0.447c-0.136,0.136-0.402,0.32-0.402,0.531c0,0.186,0,0.371,0,0.557s-0.042,0.432,0.042,0.602
	c0.047,0.093,0.085,0.21,0.16,0.285c0.029,0.029,0.062,0.051,0.098,0.066c0.097,0.049,0.161,0.15,0.093,0.017
	c0.113,0.224,0.25,0.371,0.503,0.44c0.07,0.02,0.368,0.08,0.182-0.014c0.104,0.053,0.225,0.137,0.345,0.137
	c0.229,0,0.358-0.111,0.556-0.111c0.228,0,0.453-0.188,0.547-0.377c0.058-0.096,0.051-0.101-0.022-0.016
	c0.062-0.031,0.125-0.062,0.188-0.094c0.11-0.055,0.155-0.198,0.206-0.3C29.555,20.692,29.52,20.457,29.52,20.248
	c0-0.402-0.625-0.402-0.625,0c0,0.137,0,0.272,0,0.408c0.038-0.113,0.034-0.117-0.013-0.012c-0.059,0.098-0.052,0.103,0.021,0.018
	c-0.083,0.041-0.184,0.076-0.251,0.143c-0.066,0.066-0.101,0.167-0.142,0.249c0.085-0.073,0.08-0.08-0.016-0.022
	c-0.106,0.048-0.102,0.053,0.012,0.014c-0.194,0-0.333,0.032-0.518,0.094c-0.114,0.037,0.26,0.113-0.033-0.033
	c-0.076-0.039-0.141-0.061-0.227-0.061c-0.25,0,0.001,0.059-0.141-0.014c-0.096-0.058-0.102-0.051-0.016,0.022
	c-0.026-0.05-0.051-0.101-0.077-0.151c-0.038-0.075-0.089-0.127-0.164-0.164c-0.051-0.025-0.102-0.051-0.153-0.076
	c0.073,0.085,0.08,0.08,0.022-0.018c-0.071-0.142-0.013,0.109-0.013-0.141c0-0.074,0-0.147,0-0.221c0-0.123,0-0.246,0-0.369
	c0-0.218,0.076-0.17-0.063-0.031c0.054-0.053,0.107-0.106,0.161-0.16c0.13-0.13,0.218-0.218,0.379-0.299
	c0.074-0.037,0.148-0.074,0.222-0.111c-0.167,0.084,0.011,0.025,0.099,0.025c0.083,0,0.165,0,0.247,0
	c0.095,0.005,0.083-0.004-0.037-0.025c0.051,0.025,0.102,0.051,0.153,0.076c0.13,0.066,0.227,0.111,0.328,0.213
	c0.066,0.066,0.133,0.133,0.199,0.199c0.19,0.191,0.02-0.193,0.02,0.002c0,0.148,0,0.297,0,0.445
	C28.895,20.65,29.52,20.65,29.52,20.248z"/>
<rect id="_x3C_Slice_x3E__101_" y="52" fill="none" width="60" height="35.666"/>
<rect id="_x3C_Slice_x3E__100_" fill="none" width="60" height="52"/>
</svg>
