<?xml version="1.0" encoding="utf-8"?>
<!-- Generator: Adobe Illustrator 15.0.2, SVG Export Plug-In  -->
<!DOCTYPE svg PUBLIC "-//W3C//DTD SVG 1.1//EN" "http://www.w3.org/Graphics/SVG/1.1/DTD/svg11.dtd" [
	<!ENTITY ns_flows "http://ns.adobe.com/Flows/1.0/">
]>
<svg version="1.1"
	 xmlns="http://www.w3.org/2000/svg" xmlns:xlink="http://www.w3.org/1999/xlink" xmlns:a="http://ns.adobe.com/AdobeSVGViewerExtensions/3.0/"
	 x="0px" y="0px" width="60px" height="51px" viewBox="0 0.333 60 51" overflow="visible" enable-background="new 0 0.333 60 51"
	 xml:space="preserve">
<defs>
</defs>
<path d="M33.318,30.716c-3.518,0-7.037,0-10.555,0c-0.403,0-0.403,0.625,0,0.625c3.519,0,7.037,0,10.555,0
	C33.721,31.341,33.721,30.716,33.318,30.716L33.318,30.716z"/>
<path d="M26.318,26.383c-1.186,0-2.37,0-3.556,0c-0.403,0-0.403,0.625,0,0.625c1.186,0,2.37,0,3.556,0
	C26.722,27.008,26.722,26.383,26.318,26.383L26.318,26.383z"/>
<path d="M33.318,26.383c-1.185,0-2.37,0-3.555,0c-0.403,0-0.403,0.625,0,0.625c1.185,0,2.37,0,3.555,0
	C33.721,27.008,33.721,26.383,33.318,26.383L33.318,26.383z"/>
<rect id="_x3C_Slice_x3E__101_" y="50.667" fill="none" width="60" height="57.333"/>
<rect id="_x3C_Slice_x3E__100_" fill="none" width="60" height="50.667"/>
</svg>
