<?xml version="1.0" encoding="utf-8"?>
<!-- Generator: Adobe Illustrator 15.0.2, SVG Export Plug-In  -->
<!DOCTYPE svg PUBLIC "-//W3C//DTD SVG 1.1//EN" "http://www.w3.org/Graphics/SVG/1.1/DTD/svg11.dtd" [
	<!ENTITY ns_flows "http://ns.adobe.com/Flows/1.0/">
]>
<svg version="1.1"
	 xmlns="http://www.w3.org/2000/svg" xmlns:xlink="http://www.w3.org/1999/xlink" xmlns:a="http://ns.adobe.com/AdobeSVGViewerExtensions/3.0/"
	 x="0px" y="0px" width="53px" height="35px" viewBox="0 0 53 35" overflow="visible" enable-background="new 0 0 53 35"
	 xml:space="preserve">
<defs>
</defs>
<path d="M27.741,8.474c0-7.33-11.403-7.329-11.403,0c0,3.133,2.626,5.757,5.757,5.757C25.18,14.23,27.741,11.518,27.741,8.474
	c0-0.403-0.625-0.403-0.625,0c0,1.413-0.592,2.685-1.579,3.672c-1.018,1.018-1.991,1.089-3.303,1.416
	c-2.564,0.639-5.271-2.477-5.271-4.81c0-2.723,1.968-5.299,4.854-5.299c2.844,0,5.299,2.05,5.299,5.021
	C27.116,8.877,27.741,8.877,27.741,8.474L27.741,8.474z"/>
<polygon fill-rule="evenodd" clip-rule="evenodd" points="21.207,3.141 21.651,3.141 22.095,3.141 22.429,3.141 22.873,3.141 
	22.651,3.141 22.429,3.029 22.207,2.918 22.207,2.808 22.095,2.696 22.095,2.474 22.095,1.918 21.984,2.474 21.984,2.696 
	21.873,2.808 21.873,2.918 21.651,3.029 21.429,3.141 21.207,3.141 "/>
<path d="M21.207,3.453c0.555,0,1.111,0,1.667,0c0.403,0,0.403-0.625,0-0.625c-0.066,0-0.133,0-0.199,0
	c0.13,0.046,0.156,0.051,0.077,0.014c-0.036-0.018-0.071-0.036-0.107-0.054c-0.093-0.046-0.187-0.093-0.28-0.14
	c0.052,0.09,0.104,0.18,0.155,0.27c0-0.202-0.064-0.304-0.203-0.443c0.03,0.074,0.061,0.147,0.091,0.221c0-0.26,0-0.519,0-0.778
	c0-0.345-0.543-0.436-0.614-0.083c-0.058,0.29-0.122,0.565-0.122,0.861c0.03-0.074,0.061-0.147,0.092-0.221
	c-0.14,0.139-0.203,0.241-0.203,0.443c0.052-0.09,0.104-0.18,0.155-0.27c-0.093,0.047-0.187,0.094-0.28,0.14
	c-0.036,0.018-0.071,0.036-0.107,0.054c-0.079,0.037-0.053,0.032,0.077-0.014c-0.066,0-0.132,0-0.199,0
	C20.804,2.828,20.804,3.453,21.207,3.453c0.323,0,0.542-0.123,0.824-0.265c0.097-0.048,0.155-0.166,0.155-0.27
	c0-0.037,0-0.074,0-0.11c-0.03,0.073-0.061,0.147-0.092,0.221c0.074-0.074,0.163-0.145,0.192-0.249
	c0.013-0.049,0.026-0.351,0.002-0.231c0.037-0.183,0.073-0.364,0.109-0.547c-0.205-0.027-0.409-0.055-0.614-0.083
	c0,0.183,0,0.364,0,0.547c0,0.249,0.022,0.383,0.203,0.563c-0.03-0.074-0.061-0.147-0.091-0.221c0,0.037,0,0.074,0,0.11
	c0,0.104,0.058,0.222,0.155,0.27c0.283,0.142,0.501,0.265,0.824,0.265c0.403,0,0.403-0.625,0-0.625c-0.556,0-1.111,0-1.667,0
	C20.804,2.828,20.804,3.453,21.207,3.453z"/>
<path d="M21.783,0.696c0,0.814,0,1.63,0,2.444c0,0.403,0.625,0.403,0.625,0c0-0.814,0-1.63,0-2.444
	C22.408,0.293,21.783,0.293,21.783,0.696L21.783,0.696z"/>
<rect id="_x3C_Slice_x3E__101_" y="34.667" fill="none" width="53.333" height="50.667"/>
<rect id="_x3C_Slice_x3E__100_" fill="none" width="53.333" height="34.667"/>
</svg>
