<?xml version="1.0" encoding="utf-8"?>
<!-- Generator: Adobe Illustrator 15.0.2, SVG Export Plug-In  -->
<!DOCTYPE svg PUBLIC "-//W3C//DTD SVG 1.1//EN" "http://www.w3.org/Graphics/SVG/1.1/DTD/svg11.dtd" [
	<!ENTITY ns_flows "http://ns.adobe.com/Flows/1.0/">
]>
<svg version="1.1"
	 xmlns="http://www.w3.org/2000/svg" xmlns:xlink="http://www.w3.org/1999/xlink" xmlns:a="http://ns.adobe.com/AdobeSVGViewerExtensions/3.0/"
	 x="0px" y="0px" width="52px" height="35px" viewBox="55.666 0.666 52 35"
	 overflow="visible" enable-background="new 55.666 0.666 52 35" xml:space="preserve">
<defs>
</defs>
<path d="M75.447,25.246c0,3.223,0,6.443,0,9.666c0,0.402,0.625,0.402,0.625,0c0-3.223,0-6.443,0-9.666
	C76.072,24.844,75.447,24.844,75.447,25.246L75.447,25.246z"/>
<path d="M82.201,33.359c-0.572-0.69-1.144-1.381-1.715-2.071c-0.373-0.448-0.744-0.897-1.115-1.347
	c-0.107-0.129-0.215-0.258-0.322-0.388c-0.186-0.224-0.18,0.489-0.01,0.289c1.24-1.458,2.479-2.917,3.719-4.376
	c0.17-0.2,0.068-0.533-0.221-0.533c-2.741,0-5.482,0-8.223,0c-0.403,0-0.403,0.625,0,0.625c2.74,0,5.481,0,8.223,0
	c-0.074-0.178-0.148-0.355-0.222-0.533c-1.259,1.481-2.519,2.963-3.777,4.445c-0.118,0.139-0.115,0.303,0,0.441
	c1.073,1.297,2.147,2.593,3.221,3.889C82.016,34.111,82.456,33.667,82.201,33.359L82.201,33.359z"/>
<path d="M83.393,34.829c-0.121-0.405-0.283-0.813-0.352-1.231c-0.055-0.32-0.08-0.474-0.08-0.709c0-0.25-0.15-0.365-0.314-0.529
	c-0.193-0.193-0.533-0.052-0.533,0.221c0,0.037,0,0.074,0,0.111c0.104-0.104,0.208-0.209,0.312-0.312c-0.037,0-0.074,0-0.111,0
	c-0.171,0-0.312,0.143-0.312,0.312c0,0.074,0,0.148,0,0.223c0,0.037,0,0.074,0,0.11c0,0.228,0.17-0.188,0.009-0.028
	c-0.12,0.121-0.151,0.263-0.252,0.363c-0.061,0.061-0.065,0.072-0.124,0.102c-0.209,0.104,0.038,0.029-0.133,0.029
	c-0.174,0-0.348,0-0.521,0c-0.171,0-0.312,0.143-0.312,0.312c0,0.074,0,0.146,0,0.221c0,0.17,0.142,0.312,0.312,0.312
	c0.301,0,0.723,0.221,1.015,0.318c-0.132-0.044,0.025,0.021,0.053,0.036c0.115,0.064,0.231,0.128,0.347,0.192
	c0.18,0.1,0.359,0.199,0.539,0.299c0.353,0.195,0.668-0.344,0.315-0.539c-0.344-0.191-0.701-0.462-1.075-0.586
	c-0.365-0.123-0.804-0.346-1.193-0.346c0.104,0.104,0.208,0.209,0.312,0.312c0-0.074,0-0.146,0-0.221
	c-0.104,0.104-0.209,0.209-0.312,0.312c0.439,0,0.857,0.055,1.191-0.285c0.139-0.141,0.23-0.342,0.334-0.445
	c0.178-0.177,0.121-0.463,0.121-0.693c-0.104,0.104-0.209,0.209-0.312,0.312c0.037,0,0.074,0,0.111,0
	c0.17,0,0.312-0.143,0.312-0.312c0-0.037,0-0.074,0-0.111c-0.178,0.074-0.355,0.147-0.534,0.221c0.065,0.064,0.13,0.129,0.194,0.193
	c-0.049-0.189-0.07-0.225-0.062-0.105c0,0.074,0,0.148,0,0.222c0,0.235,0.074,0.485,0.112,0.718
	c0.065,0.393,0.228,0.785,0.342,1.167C82.905,35.381,83.508,35.217,83.393,34.829z"/>
<path d="M77.761,24.355c0.224,0.229,0.509,0.426,0.829,0.426c0.389,0,0.509-0.101,0.778-0.369c0.253-0.254,0.37-0.473,0.37-0.832
	c0-0.396-0.211-0.494-0.377-0.824c-0.113-0.224-0.572-0.42-0.778-0.557c-0.358-0.238-0.288-0.15-0.288-0.563
	c0-0.107-0.024-0.054,0.102-0.089c0.083-0.021,0.137-0.077,0.194-0.135c-0.061,0.06-0.154,0.074,0.028,0.023
	c0.371-0.102-0.087-0.178,0.146-0.06c0.135,0.067,0.249,0.181,0.391,0.251c0.359,0.18,0.676-0.359,0.315-0.539
	c-0.284-0.143-0.485-0.377-0.823-0.377c-0.083,0-0.163,0.033-0.222,0.092c-0.147,0.147,0.151,0.02-0.001,0.02
	c-0.083,0-0.163,0.033-0.222,0.092c-0.147,0.147,0.151,0.02-0.001,0.02c-0.639,0-0.664,1.202-0.333,1.533
	c0.205,0.205,0.524,0.355,0.767,0.518c0.247,0.166,0.195,0.107,0.296,0.309c0.031,0.061,0.114,0.129,0.16,0.174
	c0.19,0.19,0.021-0.211,0.021,0.056c0,0.304-0.139,0.395-0.409,0.669c0.108-0.109,0.111-0.035-0.056-0.035
	c-0.165,0-0.168-0.074-0.058,0.035c-0.118-0.117-0.272-0.16-0.388-0.277C77.92,23.626,77.479,24.068,77.761,24.355L77.761,24.355z"
	/>
<path d="M80.396,22.279c-0.122-0.05-0.245-0.1-0.367-0.148c-0.057-0.022-0.112-0.045-0.168-0.067
	c-0.082-0.032,0.182,0.136,0.08,0.034c-0.024-0.024-0.049-0.049-0.072-0.072c-0.193-0.193-0.533-0.052-0.533,0.221
	c0,0.2,0.064,0.307,0.202,0.443c-0.03-0.073-0.062-0.146-0.091-0.221c0,0.074,0,0.148,0,0.223c0.029-0.074,0.061-0.147,0.091-0.221
	c-0.138,0.137-0.202,0.243-0.202,0.443c0,0.272,0.34,0.414,0.533,0.221c0.08-0.08,0.191-0.119-0.021-0.033
	c0.061-0.023,0.121-0.048,0.182-0.072c0.122-0.049,0.245-0.099,0.367-0.148c0.369-0.147,0.209-0.752-0.166-0.602
	c-0.285,0.114-0.584,0.193-0.804,0.414c0.179,0.073,0.356,0.146,0.534,0.221c0-0.037,0-0.074,0-0.111
	c-0.031,0.074-0.062,0.147-0.092,0.221c0.138-0.137,0.203-0.243,0.203-0.443s-0.065-0.307-0.203-0.443
	c0.03,0.073,0.061,0.146,0.092,0.221c0-0.037,0-0.074,0-0.111c-0.178,0.074-0.355,0.147-0.534,0.221
	c0.22,0.221,0.519,0.3,0.804,0.414C80.605,23.031,80.766,22.427,80.396,22.279z"/>
<path d="M79.76,22.268c-0.89,0-1.779,0-2.668,0c-0.403,0-0.403,0.625,0,0.625c0.889,0,1.778,0,2.668,0
	C80.162,22.893,80.162,22.268,79.76,22.268L79.76,22.268z"/>
<rect id="_x3C_Slice_x3E__101_" fill="none" width="56" height="35.666"/>
<rect id="_x3C_Slice_x3E__100_" x="56" fill="none" width="52" height="35.666"/>
</svg>
