<?xml version="1.0" encoding="utf-8"?>
<!-- Generator: Adobe Illustrator 15.0.2, SVG Export Plug-In  -->
<!DOCTYPE svg PUBLIC "-//W3C//DTD SVG 1.1//EN" "http://www.w3.org/Graphics/SVG/1.1/DTD/svg11.dtd" [
	<!ENTITY ns_flows "http://ns.adobe.com/Flows/1.0/">
]>
<svg version="1.1"
	 xmlns="http://www.w3.org/2000/svg" xmlns:xlink="http://www.w3.org/1999/xlink" xmlns:a="http://ns.adobe.com/AdobeSVGViewerExtensions/3.0/"
	 x="0px" y="0px" width="35px" height="53px" viewBox="0 0.333 35 53" overflow="visible" enable-background="new 0 0.333 35 53"
	 xml:space="preserve">
<defs>
</defs>
<path d="M4.099,31.137c2.212,2.216,5.818-0.278,4.379-3.157c-0.866-1.731-3.381-2.054-3.968-3.813
	c-0.619-1.855,2.304-2.948,3.318-1.426c0.223,0.333,0.764,0.021,0.54-0.315c-1.889-2.836-6.282,0.592-3.769,3.101
	c1.326,1.324,4.034,1.848,3.42,4.307c-0.428,1.715-2.281,2.061-3.478,0.862C4.255,30.41,3.813,30.852,4.099,31.137L4.099,31.137z"/>
<polygon fill-rule="evenodd" clip-rule="evenodd" points="11.097,26.139 10.097,25.694 9.542,25.361 9.319,25.25 9.208,25.139 
	9.097,25.25 8.986,25.25 9.097,25.361 9.208,25.472 9.319,25.694 9.43,25.806 9.43,25.916 9.43,26.139 9.43,26.25 9.43,26.472 
	9.319,26.583 9.208,26.694 9.097,26.916 8.986,26.916 9.097,27.027 9.208,27.027 9.319,27.027 9.542,26.806 10.097,26.583 
	11.097,26.139 "/>
<path d="M11.255,25.869c-0.331-0.147-0.662-0.294-0.993-0.441c-0.257-0.114-0.663-0.34-0.833-0.51c-0.12-0.12-0.321-0.121-0.441,0
	c-0.037,0.037-0.074,0.074-0.111,0.111c0.074-0.031,0.147-0.061,0.221-0.091c-0.037,0-0.074,0-0.111,0
	c-0.272,0-0.414,0.34-0.221,0.533c0.185,0.184,0.251,0.361,0.444,0.556c-0.03-0.074-0.061-0.147-0.091-0.221
	c0,0.222,0,0.444,0,0.666c0.031-0.073,0.061-0.147,0.091-0.221c-0.163,0.164-0.278,0.3-0.382,0.508
	c0.09-0.052,0.18-0.104,0.27-0.155c-0.037,0-0.074,0-0.111,0c-0.272,0-0.414,0.341-0.221,0.534c0.175,0.174,0.468,0.303,0.712,0.16
	c0.103-0.06,0.186-0.171,0.269-0.254c-0.101,0.101-0.136,0.07-0.02,0.023c0.096-0.039,0.191-0.077,0.287-0.115
	c0.419-0.167,0.829-0.359,1.242-0.542c0.368-0.164,0.049-0.702-0.315-0.54c-0.331,0.147-0.662,0.294-0.993,0.441
	c0.143-0.064-0.079,0.03-0.1,0.038c-0.114,0.045-0.227,0.091-0.34,0.136c-0.174,0.07-0.278,0.191-0.408,0.322
	c0.073-0.03,0.147-0.061,0.221-0.092c-0.074,0-0.148,0-0.222,0c0.074,0.031,0.147,0.062,0.221,0.092
	c-0.037-0.037-0.074-0.074-0.111-0.111c-0.074,0.178-0.147,0.355-0.221,0.533c0.037,0,0.074,0,0.111,0
	c0.104,0,0.222-0.058,0.27-0.154c0.089-0.179,0.139-0.235,0.284-0.381c0.153-0.154,0.091-0.465,0.091-0.666
	c0-0.424-0.239-0.701-0.536-0.999c-0.074,0.178-0.147,0.356-0.221,0.534c0.206,0,0.302-0.061,0.443-0.203c-0.147,0-0.294,0-0.441,0
	c0.498,0.496,1.321,0.768,1.952,1.049C11.304,26.571,11.623,26.033,11.255,25.869z"/>
<path d="M9.43,25.826c-2.592,0-5.185,0-7.777,0c-0.403,0-0.403,0.625,0,0.625c2.592,0,5.185,0,7.777,0
	C9.833,26.451,9.833,25.826,9.43,25.826L9.43,25.826z"/>
<path d="M12.118,21.25c0,3.592,0,7.185,0,10.777c0,0.403,0.625,0.403,0.625,0c0-3.592,0-7.185,0-10.777
	C12.743,20.847,12.118,20.847,12.118,21.25L12.118,21.25z"/>
<rect id="_x3C_Slice_x3E__100_" fill="none" width="35" height="53.333"/>
</svg>
