<?xml version="1.0" encoding="utf-8"?>
<!-- Generator: Adobe Illustrator 15.0.2, SVG Export Plug-In  -->
<!DOCTYPE svg PUBLIC "-//W3C//DTD SVG 1.1//EN" "http://www.w3.org/Graphics/SVG/1.1/DTD/svg11.dtd" [
	<!ENTITY ns_flows "http://ns.adobe.com/Flows/1.0/">
]>
<svg version="1.1"
	 xmlns="http://www.w3.org/2000/svg" xmlns:xlink="http://www.w3.org/1999/xlink" xmlns:a="http://ns.adobe.com/AdobeSVGViewerExtensions/3.0/"
	 x="0px" y="0px" width="53px" height="35px" viewBox="0 0.666 53 35" overflow="visible" enable-background="new 0 0.666 53 35"
	 xml:space="preserve">
<defs>
</defs>
<path d="M16.338,23.135c0,3.223,0,6.445,0,9.668c0,0.402,0.625,0.402,0.625,0c0-3.223,0-6.445,0-9.668
	C16.963,22.732,16.338,22.732,16.338,23.135L16.338,23.135z"/>
<path d="M23.094,31.248c-0.572-0.69-1.144-1.381-1.716-2.071c-0.372-0.448-0.744-0.897-1.115-1.347
	c-0.107-0.129-0.215-0.258-0.322-0.388c-0.185-0.224-0.18,0.489-0.01,0.289c1.24-1.458,2.479-2.917,3.719-4.376
	c0.171-0.2,0.068-0.533-0.221-0.533c-2.704,0-5.407,0-8.111,0c-0.403,0-0.403,0.625,0,0.625c2.704,0,5.407,0,8.111,0
	c-0.074-0.178-0.147-0.355-0.221-0.533c-1.26,1.481-2.519,2.963-3.778,4.445c-0.118,0.139-0.115,0.303,0,0.441
	c1.074,1.297,2.148,2.593,3.223,3.889C22.909,32,23.349,31.556,23.094,31.248L23.094,31.248z"/>
<path d="M24.286,32.72c-0.085-0.428-0.142-0.87-0.28-1.284c-0.116-0.351-0.153-0.422-0.153-0.72c0-0.288-0.282-0.448-0.535-0.448
	c-0.17,0-0.312,0.143-0.312,0.312c0,0.037,0,0.074,0,0.111c0.03-0.074,0.061-0.147,0.092-0.221
	c-0.168,0.168-0.203,0.283-0.203,0.518c0-0.186-0.005-0.026-0.057,0.077c-0.049,0.099-0.054,0.185-0.054,0.292
	c0.051-0.09,0.103-0.18,0.155-0.27c-0.208,0.104-0.344,0.219-0.508,0.383c0.074-0.031,0.147-0.062,0.221-0.092
	c-0.368,0-0.722-0.074-0.999,0.203c-0.121,0.12-0.121,0.321,0,0.441c0.264,0.265,0.784,0.338,1.147,0.483
	c0.168,0.067-0.028-0.021,0.088,0.043c0.121,0.067,0.243,0.136,0.364,0.202c0.191,0.107,0.383,0.214,0.575,0.32
	c0.353,0.196,0.667-0.344,0.315-0.539c-0.614-0.342-1.423-0.932-2.158-0.932c0.074,0.03,0.147,0.061,0.221,0.092
	c-0.037-0.037-0.074-0.074-0.111-0.111c0,0.146,0,0.295,0,0.441c0.037-0.037,0.074-0.074,0.111-0.111
	c-0.073,0.031-0.147,0.062-0.221,0.092c0.222,0,0.444,0,0.667,0c0.22,0,0.426-0.289,0.602-0.377c0.097-0.048,0.155-0.165,0.155-0.27
	c0-0.169-0.086,0.133-0.003-0.031c0.024-0.049,0.048-0.097,0.072-0.145c0.059-0.119,0.042-0.25,0.042-0.379
	c-0.031,0.074-0.061,0.147-0.091,0.221c0.141-0.142,0.202-0.238,0.202-0.443c-0.104,0.104-0.208,0.209-0.312,0.312
	c0.037,0,0.074,0,0.111,0c-0.074-0.03-0.147-0.061-0.221-0.092c0.037,0.037,0.074,0.074,0.111,0.111
	c-0.031-0.073-0.062-0.146-0.092-0.221c0,0.4,0.107,0.703,0.233,1.083c0.116,0.351,0.149,0.749,0.222,1.111
	C23.762,33.281,24.364,33.113,24.286,32.72z"/>
<path d="M22.651,22.447c0.688,0,1.375,0,2.062,0c0.581,0,0.069-0.197,0.069-0.219c0,0.229,0,0.458,0,0.688c0,1.684,0,3.368,0,5.053
	s0,3.369,0,5.053c0,0.83-0.104,0.469,0.208,0.469c-0.78,0-1.56,0-2.339,0c-0.403,0-0.403,0.625,0,0.625c0.815,0,1.629,0,2.444,0
	c0.17,0,0.312-0.143,0.312-0.312c0-3.889,0-7.779,0-11.668c0-0.17-0.142-0.312-0.312-0.312c-0.815,0-1.629,0-2.444,0
	C22.248,21.822,22.248,22.447,22.651,22.447L22.651,22.447z"/>
<path d="M28.075,28.023c0-0.097,0.015-0.209-0.011-0.304c-0.027-0.099-0.093-0.196-0.138-0.288c-0.096-0.189-0.42-0.275-0.608-0.275
	c-0.097,0-0.21-0.016-0.305,0.012c-0.099,0.027-0.197,0.092-0.288,0.138c-0.201,0.101-0.275,0.433-0.275,0.631
	c0,0.221,0.051,0.372,0.149,0.569c0.101,0.201,0.434,0.275,0.631,0.275C27.693,28.781,28.075,28.522,28.075,28.023
	c0-0.402-0.625-0.402-0.625,0c0,0.222,0.088-0.137,0.007,0.023c-0.02,0.039-0.039,0.079-0.059,0.118
	c-0.052,0.104,0.165-0.112,0.06-0.06c-0.039,0.02-0.078,0.039-0.117,0.059c-0.105,0.053-0.059-0.008,0.07-0.008
	c-0.061,0-0.121,0-0.181,0c-0.041,0-0.082,0-0.123,0c0.134,0,0.181,0.061,0.075,0.008c-0.039-0.02-0.078-0.039-0.117-0.059
	c-0.104-0.053,0.112,0.164,0.06,0.06c-0.02-0.039-0.039-0.079-0.058-0.118c-0.053-0.104,0.007-0.059,0.007,0.07
	c0-0.061,0-0.12,0-0.181c0-0.04,0-0.081,0-0.122c0,0.135-0.061,0.182-0.007,0.076c0.02-0.039,0.039-0.079,0.058-0.118
	c0.052-0.104-0.165,0.112-0.06,0.06c0.039-0.02,0.078-0.039,0.117-0.059c0.106-0.053,0.059,0.008-0.075,0.008c0.07,0,0.14,0,0.21,0
	c0.222,0-0.137-0.088,0.024-0.008c0.039,0.02,0.078,0.039,0.117,0.059c0.104,0.053-0.112-0.164-0.06-0.06
	c0.02,0.039,0.039,0.079,0.059,0.118c0.053,0.105-0.007,0.059-0.007-0.076c0,0.07,0,0.14,0,0.209
	C27.45,28.426,28.075,28.426,28.075,28.023z"/>
<path d="M28.762,27.711c-1,0-2,0-3,0c-0.403,0-0.403,0.625,0,0.625c1,0,2,0,3,0C29.165,28.336,29.165,27.711,28.762,27.711
	L28.762,27.711z"/>
<path d="M27.825,26.422c-0.519,0.926-1.037,1.852-1.555,2.777c-0.197,0.353,0.343,0.668,0.539,0.316
	c0.519-0.926,1.037-1.852,1.556-2.777C28.562,26.386,28.022,26.07,27.825,26.422L27.825,26.422z"/>
<path d="M28.365,29.199c-0.519-0.926-1.037-1.852-1.556-2.777c-0.196-0.352-0.736-0.036-0.539,0.316
	c0.518,0.926,1.036,1.852,1.555,2.777C28.022,29.867,28.562,29.552,28.365,29.199L28.365,29.199z"/>
<rect id="_x3C_Slice_x3E__100_" fill="none" width="53.333" height="35.666"/>
</svg>
