<?xml version="1.0" encoding="utf-8"?>
<!-- Generator: Adobe Illustrator 15.0.2, SVG Export Plug-In  -->
<!DOCTYPE svg PUBLIC "-//W3C//DTD SVG 1.1//EN" "http://www.w3.org/Graphics/SVG/1.1/DTD/svg11.dtd" [
	<!ENTITY ns_flows "http://ns.adobe.com/Flows/1.0/">
]>
<svg version="1.1"
	 xmlns="http://www.w3.org/2000/svg" xmlns:xlink="http://www.w3.org/1999/xlink" xmlns:a="http://ns.adobe.com/AdobeSVGViewerExtensions/3.0/"
	 x="0px" y="0px" width="60px" height="35px" viewBox="0 0 60 35" overflow="visible" enable-background="new 0 0 60 35"
	 xml:space="preserve">
<defs>
</defs>
<path d="M33.742,7.362c0-3.105-2.495-5.757-5.646-5.757c-3.193,0-5.757,2.563-5.757,5.757C22.339,14.657,33.742,14.658,33.742,7.362
	c0-0.403-0.625-0.403-0.625,0c0,6.462-10.153,6.46-10.153,0c0-6.596,10.153-6.598,10.153,0C33.117,7.766,33.742,7.766,33.742,7.362
	L33.742,7.362z"/>
<polygon fill-rule="evenodd" clip-rule="evenodd" points="22.763,6.474 22.651,6.918 22.651,7.362 22.651,7.696 22.763,8.141 
	22.651,7.918 22.541,7.696 22.541,7.474 22.429,7.474 22.207,7.362 21.985,7.362 21.541,7.362 21.985,7.252 22.207,7.252 
	22.429,7.141 22.541,7.141 22.541,6.918 22.651,6.696 22.763,6.474 "/>
<path d="M22.461,6.391c-0.158,0.63-0.158,1.204,0,1.833c0.19-0.081,0.38-0.161,0.571-0.241c-0.046-0.093-0.093-0.187-0.14-0.279
	c-0.018-0.036-0.036-0.071-0.054-0.107c-0.036-0.079-0.031-0.053,0.014,0.077c0-0.066,0-0.133,0-0.199
	c0-0.17-0.142-0.312-0.312-0.312c-0.099,0-0.119-0.04,0.03,0.035c-0.049-0.025-0.099-0.049-0.148-0.074
	c-0.098-0.049-0.184-0.072-0.293-0.072c-0.196,0-0.393,0-0.588,0c0.028,0.205,0.055,0.409,0.083,0.614
	c0.084-0.021,0.168-0.042,0.252-0.063c0.051-0.013,0.102-0.025,0.153-0.038c0.101-0.025-0.134,0.002,0.034,0.002
	c0.116,0,0.211,0.002,0.318-0.051c0.05-0.025,0.099-0.05,0.148-0.074c0.119-0.06-0.191,0.014,0.011,0.014
	c0.17,0,0.312-0.142,0.312-0.312c0-0.055,0-0.109,0-0.165c0-0.108-0.091,0.198,0.013-0.011c0.055-0.111,0.111-0.222,0.167-0.333
	c0.181-0.359-0.359-0.676-0.539-0.315c-0.142,0.282-0.265,0.502-0.265,0.824c0.104-0.104,0.208-0.208,0.312-0.312
	c-0.104,0-0.189,0.003-0.286,0.051c-0.049,0.025-0.099,0.05-0.148,0.074c-0.089,0.044,0.196-0.014-0.044-0.014
	c-0.206,0-0.408,0.072-0.605,0.122c-0.346,0.086-0.268,0.613,0.083,0.613c0.174,0,0.348,0,0.522,0c0.118,0,0.168,0.049,0.002-0.034
	c0.05,0.024,0.099,0.05,0.148,0.074c0.11,0.055,0.205,0.071,0.327,0.071c-0.104-0.104-0.208-0.208-0.312-0.312
	c0,0.323,0.123,0.542,0.265,0.824c0.163,0.326,0.655,0.094,0.571-0.24c-0.139-0.556-0.139-0.945,0-1.501
	C23.162,6.166,22.56,6,22.461,6.391z"/>
<path d="M20.318,7.675c0.777,0,1.556,0,2.333,0c0.403,0,0.403-0.625,0-0.625c-0.777,0-1.556,0-2.333,0
	C19.915,7.05,19.915,7.675,20.318,7.675L20.318,7.675z"/>
<polygon fill-rule="evenodd" clip-rule="evenodd" points="33.318,6.474 33.429,6.918 33.429,7.362 33.429,7.696 33.318,8.141 
	33.429,7.918 33.541,7.696 33.651,7.474 33.763,7.474 33.985,7.362 34.318,7.362 35.096,7.362 34.318,7.252 33.985,7.252 
	33.763,7.141 33.651,7.141 33.541,6.918 33.429,6.696 33.318,6.474 "/>
<path d="M33.017,6.557c0.036,0.145,0.072,0.288,0.108,0.432c-0.034-0.135-0.008,0.048-0.008,0.086c0,0.092,0,0.184,0,0.275
	c0,0.04,0,0.079,0,0.118c0,0.045-0.025,0.29,0.008,0.158c-0.036,0.144-0.072,0.288-0.108,0.432c-0.084,0.334,0.408,0.566,0.571,0.24
	c0.111-0.222,0.223-0.444,0.333-0.666c-0.09,0.051-0.18,0.103-0.27,0.154c0.146,0,0.251-0.033,0.38-0.098
	c0.207-0.104-0.09-0.013,0.006-0.013c0.089,0,0.178,0,0.267,0c0.264,0,0.528,0,0.792,0c0.343,0,0.439-0.562,0.083-0.613
	C34.9,7.021,34.6,6.939,34.318,6.939c-0.055,0-0.111,0-0.167,0c-0.038,0-0.076,0-0.114,0c-0.144,0,0.194,0.087,0.048,0.014
	c-0.148-0.074-0.265-0.125-0.434-0.125c0.09,0.052,0.18,0.104,0.27,0.155c-0.11-0.223-0.222-0.445-0.333-0.667
	c-0.181-0.36-0.72-0.044-0.54,0.315c0.111,0.222,0.223,0.444,0.334,0.667c0.048,0.097,0.165,0.154,0.27,0.154
	c0.202,0-0.108-0.073,0.011-0.014c0.055,0.027,0.11,0.055,0.165,0.082c0.142,0.07,0.323,0.043,0.477,0.043
	c-0.138,0,0.004-0.001,0.04,0.004c0.082,0.012,0.164,0.023,0.246,0.035c0.141,0.021,0.282,0.04,0.423,0.061
	c0.027-0.205,0.056-0.409,0.083-0.614c-0.259,0-0.519,0-0.778,0c-0.131,0-0.288-0.024-0.416,0.012
	c-0.062,0.017-0.128,0.058-0.186,0.087c-0.21,0.105,0.131,0.013-0.064,0.013c-0.104,0-0.222,0.059-0.27,0.155
	c-0.111,0.222-0.223,0.444-0.334,0.666c0.19,0.081,0.381,0.161,0.571,0.241c0.158-0.63,0.158-1.203,0-1.833
	C33.521,6,32.918,6.166,33.017,6.557z"/>
<path d="M35.763,7.05c-0.778,0-1.556,0-2.333,0c-0.403,0-0.403,0.625,0,0.625c0.778,0,1.556,0,2.333,0
	C36.166,7.675,36.166,7.05,35.763,7.05L35.763,7.05z"/>
<rect id="_x3C_Slice_x3E__101_" y="34.667" fill="none" width="60" height="50.667"/>
<rect id="_x3C_Slice_x3E__100_" fill="none" width="60" height="34.667"/>
</svg>
