<?xml version="1.0" encoding="utf-8"?>
<!-- Generator: Adobe Illustrator 15.0.2, SVG Export Plug-In  -->
<!DOCTYPE svg PUBLIC "-//W3C//DTD SVG 1.1//EN" "http://www.w3.org/Graphics/SVG/1.1/DTD/svg11.dtd" [
	<!ENTITY ns_flows "http://ns.adobe.com/Flows/1.0/">
]>
<svg version="1.1"
	 xmlns="http://www.w3.org/2000/svg" xmlns:xlink="http://www.w3.org/1999/xlink" xmlns:a="http://ns.adobe.com/AdobeSVGViewerExtensions/3.0/"
	 x="0px" y="0px" width="48px" height="53px" viewBox="53 0.333 48 53" overflow="visible" enable-background="new 53 0.333 48 53"
	 xml:space="preserve">
<defs>
</defs>
<path d="M73.826,31.186c1.255,0.835,2.034,1.03,3.427,0.333c1.357-0.679,1.415-2.865,0.667-3.983
	c-1.029-1.542-3.183-1.794-3.801-3.647c-0.285-0.853,0.98-1.994,1.754-1.994c0.691,0,1.178,0.308,1.668,0.797
	c0.285,0.285,0.728-0.157,0.441-0.442c-2.425-2.42-6.062,0.819-3.553,3.331c1.202,1.204,4.009,1.875,3.252,4.141
	c-0.632,1.893-2.092,1.888-3.541,0.924C73.805,30.422,73.492,30.964,73.826,31.186L73.826,31.186z"/>
<path d="M79.539,25.049c-2.74,0-5.481,0-8.222,0c-0.403,0-0.403,0.625,0,0.625c2.74,0,5.481,0,8.222,0
	C79.942,25.674,79.942,25.049,79.539,25.049L79.539,25.049z"/>
<path d="M79.539,26.382c-2.74,0-5.481,0-8.222,0c-0.403,0-0.403,0.625,0,0.625c2.74,0,5.481,0,8.222,0
	C79.942,27.007,79.942,26.382,79.539,26.382L79.539,26.382z"/>
<path d="M79.141,27.297c0.593-0.333,1.186-0.667,1.778-1c0.203-0.114,0.203-0.425,0-0.54c-0.593-0.333-1.186-0.667-1.778-1
	c-0.352-0.198-0.667,0.342-0.315,0.54c0.593,0.333,1.186,0.667,1.778,1c0-0.18,0-0.36,0-0.54c-0.593,0.333-1.186,0.667-1.778,1
	C78.475,26.955,78.789,27.495,79.141,27.297L79.141,27.297z"/>
<rect id="_x3C_Slice_x3E__101_" fill="none" width="53.333" height="53.333"/>
<rect id="_x3C_Slice_x3E__100_" x="53.333" fill="none" width="48" height="53.333"/>
</svg>
