<?xml version="1.0" encoding="utf-8"?>
<!-- Generator: Adobe Illustrator 15.0.2, SVG Export Plug-In  -->
<!DOCTYPE svg PUBLIC "-//W3C//DTD SVG 1.1//EN" "http://www.w3.org/Graphics/SVG/1.1/DTD/svg11.dtd" [
	<!ENTITY ns_flows "http://ns.adobe.com/Flows/1.0/">
]>
<svg version="1.1"
	 xmlns="http://www.w3.org/2000/svg" xmlns:xlink="http://www.w3.org/1999/xlink" xmlns:a="http://ns.adobe.com/AdobeSVGViewerExtensions/3.0/"
	 x="0px" y="0px" width="48px" height="50px" viewBox="53 0.666 48 50" overflow="visible" enable-background="new 53 0.666 48 50"
	 xml:space="preserve">
<defs>
</defs>
<polygon fill-rule="evenodd" clip-rule="evenodd" points="77.317,30.137 77.317,29.805 77.206,29.582 77.095,29.359 76.873,29.248 
	76.762,29.025 76.539,28.914 76.317,28.914 75.983,28.805 75.762,28.914 75.539,28.914 75.317,29.025 75.206,29.248 74.983,29.359 
	74.873,29.582 74.762,29.805 74.762,30.137 74.762,30.359 74.873,30.582 74.983,30.805 75.206,31.025 75.317,31.137 75.539,31.248 
	75.762,31.359 75.983,31.359 76.317,31.359 76.539,31.248 76.762,31.137 76.873,31.025 77.095,30.805 77.206,30.582 77.317,30.359 
	77.317,30.137 "/>
<path d="M77.63,30.137c0-0.461-0.127-0.922-0.564-1.141c0.073,0.085,0.08,0.08,0.021-0.018c-0.03-0.061-0.055-0.125-0.104-0.174
	c-0.075-0.076-0.192-0.113-0.286-0.16c-0.21-0.105-0.379-0.059-0.605-0.133c-0.111-0.037-0.2-0.01-0.3,0.04
	c-0.051,0.025-0.102,0.05-0.152,0.075c0.162-0.08,0.021-0.025-0.065-0.025c-0.185,0-0.458,0.131-0.543,0.301
	c-0.025,0.051-0.051,0.102-0.077,0.153c0.067-0.134,0.004-0.032-0.093,0.017c-0.108,0.055-0.15,0.137-0.202,0.24
	c-0.101,0.204-0.209,0.377-0.209,0.609c0,0.439,0.062,0.854,0.392,1.182c0.309,0.307,0.656,0.568,1.108,0.568
	c0.44,0,0.824-0.104,1.145-0.426C77.405,30.936,77.63,30.588,77.63,30.137c0-0.402-0.625-0.402-0.625,0c0,0.062,0,0.125,0,0.188
	c0-0.185-0.026,0.015-0.068,0.1c-0.086,0.172-0.143,0.239-0.284,0.381c-0.091,0.09-0.188,0.132-0.306,0.191
	c-0.051,0.025-0.102,0.051-0.152,0.076c0.116-0.024,0.118-0.033,0.005-0.025c-0.083,0-0.167,0-0.251,0
	c-0.087,0-0.224-0.055-0.064,0.025c-0.074-0.037-0.148-0.074-0.223-0.111c-0.16-0.08-0.25-0.172-0.379-0.299
	c-0.096-0.096-0.162-0.281-0.234-0.426c0.083,0.167,0.025-0.012,0.025-0.1c0-0.1,0-0.198,0-0.297c0,0.178,0.009,0.02,0.051-0.065
	c0.037-0.074,0.074-0.148,0.111-0.223c-0.069,0.14,0.03,0.015,0.127-0.034c0.089-0.044,0.126-0.141,0.167-0.223
	c0.059-0.098,0.051-0.103-0.021-0.018c0.051-0.025,0.102-0.051,0.152-0.076c-0.167,0.084,0.012,0.025,0.1,0.025
	c0.098,0,0.184-0.056,0.269-0.098c0.175-0.086-0.262-0.066,0.037,0.031c0.153,0.051,0.275,0.066,0.437,0.066
	c-0.114-0.039-0.118-0.034-0.012,0.014c0.096,0.058,0.102,0.051,0.017-0.022c0.042,0.083,0.076,0.185,0.143,0.251
	c0.066,0.066,0.168,0.102,0.25,0.143c-0.141-0.07-0.015,0.031,0.034,0.129c0.042,0.085,0.068,0.284,0.068,0.1
	c0,0.099,0,0.197,0,0.297C77.005,30.539,77.63,30.539,77.63,30.137z"/>
<polygon fill-rule="evenodd" clip-rule="evenodd" points="77.317,26.025 77.317,25.693 77.206,25.471 77.095,25.248 76.873,25.137 
	76.762,24.914 76.539,24.805 76.317,24.693 75.983,24.693 75.762,24.693 75.539,24.805 75.317,24.914 75.206,25.137 74.983,25.248 
	74.873,25.471 74.762,25.693 74.762,26.025 74.762,26.248 74.873,26.471 74.983,26.693 75.206,26.805 75.317,27.025 75.539,27.137 
	75.762,27.248 75.983,27.248 76.317,27.248 76.539,27.137 76.762,27.025 76.873,26.805 77.095,26.693 77.206,26.471 77.317,26.248 
	77.317,26.025 "/>
<path d="M77.63,26.025c0-0.461-0.127-0.922-0.564-1.141c0.073,0.085,0.08,0.08,0.021-0.018c-0.03-0.061-0.055-0.125-0.104-0.174
	c-0.075-0.076-0.192-0.113-0.286-0.158c-0.248-0.122-0.402-0.154-0.679-0.154c-0.433,0-0.864,0.162-1.064,0.563
	c0.085-0.073,0.08-0.08-0.017-0.022c-0.061,0.031-0.125,0.057-0.174,0.105c-0.075,0.075-0.113,0.192-0.159,0.285
	c-0.122,0.246-0.154,0.402-0.154,0.678c0,0.434,0.163,0.866,0.564,1.066c-0.073-0.085-0.08-0.08-0.021,0.016
	c0.03,0.061,0.056,0.125,0.104,0.174c0.075,0.075,0.191,0.113,0.285,0.16c0.216,0.109,0.36,0.154,0.602,0.154
	c0.462,0,0.921-0.127,1.142-0.563c-0.085,0.073-0.08,0.08,0.016,0.022c0.061-0.031,0.125-0.057,0.174-0.105
	c0.076-0.075,0.114-0.192,0.16-0.285C77.584,26.412,77.63,26.268,77.63,26.025c0-0.402-0.625-0.402-0.625,0c0,0.062,0,0.125,0,0.188
	c0-0.185-0.026,0.015-0.068,0.1c-0.049,0.098-0.175,0.199-0.034,0.129c-0.082,0.041-0.184,0.076-0.25,0.143
	s-0.102,0.167-0.143,0.249c0.071-0.141-0.032-0.015-0.128,0.034c-0.085,0.043-0.284,0.068-0.099,0.068c-0.1,0-0.2,0-0.299,0
	c-0.062,0-0.125,0-0.187,0c0.185,0-0.014-0.025-0.1-0.068c-0.096-0.049-0.198-0.175-0.127-0.034
	c-0.042-0.082-0.077-0.183-0.143-0.249s-0.168-0.102-0.251-0.143c0.14,0.069,0.016-0.031-0.033-0.129
	c-0.042-0.085-0.068-0.284-0.068-0.1c0-0.074,0-0.148,0-0.223c0-0.087,0-0.175,0-0.262c0,0.185,0.026-0.015,0.068-0.1
	c0.049-0.098,0.173-0.198,0.033-0.129c0.083-0.041,0.185-0.076,0.251-0.143c0.067-0.066,0.102-0.168,0.143-0.251
	c-0.07,0.14,0.029,0.017,0.127-0.032c0.085-0.042,0.285-0.068,0.1-0.068c0.074,0,0.148,0,0.222,0c0.088,0,0.176,0,0.265,0
	c-0.185,0,0.013,0.025,0.099,0.068c0.097,0.049,0.198,0.172,0.128,0.032c0.042,0.083,0.076,0.185,0.143,0.251
	c0.066,0.066,0.168,0.102,0.25,0.143c-0.141-0.07-0.015,0.031,0.034,0.129c0.042,0.085,0.068,0.284,0.068,0.1
	c0,0.099,0,0.197,0,0.297C77.005,26.428,77.63,26.428,77.63,26.025z"/>
<polygon fill-rule="evenodd" clip-rule="evenodd" points="77.317,21.805 77.317,21.582 77.206,21.359 77.095,21.137 76.873,20.914 
	76.762,20.805 76.539,20.693 76.317,20.582 75.983,20.582 75.762,20.582 75.539,20.693 75.317,20.805 75.206,20.914 74.983,21.137 
	74.873,21.359 74.762,21.582 74.762,21.805 74.762,22.137 74.873,22.359 74.983,22.582 75.206,22.693 75.317,22.914 75.539,23.025 
	75.762,23.025 75.983,23.137 76.317,23.025 76.539,23.025 76.762,22.914 76.873,22.693 77.095,22.582 77.206,22.359 77.317,22.137 
	77.317,21.805 "/>
<path d="M77.63,21.805c0-0.45-0.225-0.799-0.536-1.111c-0.319-0.321-0.708-0.424-1.145-0.424c-0.45,0-0.801,0.261-1.108,0.568
	c-0.329,0.328-0.392,0.741-0.392,1.182c0,0.232,0.108,0.405,0.209,0.609c0.052,0.104,0.094,0.186,0.202,0.24
	c0.051,0.025,0.102,0.051,0.153,0.076c-0.134-0.066-0.032-0.006,0.017,0.092c0.085,0.17,0.358,0.301,0.543,0.301
	c0.051,0,0.102,0,0.153,0c-0.178,0-0.021,0.009,0.064,0.051c0.1,0.051,0.189,0.078,0.3,0.041c0.227-0.075,0.395-0.029,0.605-0.135
	c0.093-0.047,0.21-0.084,0.286-0.16c0.029-0.028,0.051-0.061,0.066-0.098c0.049-0.097,0.15-0.158,0.017-0.092
	C77.503,22.727,77.63,22.266,77.63,21.805c0-0.402-0.625-0.402-0.625,0c0,0.072,0,0.144,0,0.215
	c-0.008,0.112,0.001,0.11,0.025-0.006c-0.025,0.051-0.051,0.102-0.077,0.153c-0.037,0.074-0.074,0.148-0.111,0.223
	c0.07-0.14-0.03-0.015-0.127,0.034c-0.061,0.03-0.1,0.088-0.129,0.146c-0.025,0.051-0.051,0.102-0.077,0.151
	c0.085-0.073,0.08-0.08-0.017-0.022c-0.143,0.072,0.109,0.014-0.141,0.014c-0.075,0-0.135,0.018-0.205,0.04
	c-0.074,0.024-0.148,0.05-0.223,0.074c0.204,0.046,0.239,0.04,0.105-0.017c-0.037-0.018-0.074-0.037-0.111-0.055
	c-0.089-0.045-0.172-0.043-0.269-0.043c-0.106-0.007-0.103,0.002,0.012,0.025c-0.051-0.025-0.102-0.051-0.152-0.076
	c0.141,0.07,0.015-0.029-0.034-0.127c-0.044-0.088-0.14-0.126-0.223-0.168c-0.096-0.058-0.102-0.051-0.016,0.022
	c-0.025-0.052-0.051-0.103-0.076-0.153c-0.037-0.074-0.074-0.148-0.111-0.223c0.084,0.168,0.025-0.005,0.025-0.092
	c0-0.076,0-0.152,0-0.229c0.007-0.105-0.001-0.102-0.025,0.012c0.025-0.051,0.051-0.102,0.077-0.153
	c0.037-0.074,0.074-0.148,0.111-0.223c0.021-0.042,0.2-0.235,0.273-0.272c0.074-0.037,0.147-0.074,0.222-0.111
	c0.051-0.025,0.103-0.051,0.153-0.076c-0.114,0.023-0.118,0.032-0.012,0.025c0.358,0,0.454-0.08,0.75,0.212
	c0.137,0.134,0.217,0.218,0.296,0.376c0.037,0.074,0.074,0.148,0.111,0.223c-0.083-0.167-0.025,0.012-0.025,0.1
	C77.005,22.207,77.63,22.207,77.63,21.805z"/>
<rect id="_x3C_Slice_x3E__101_" fill="none" width="53.333" height="50.666"/>
<rect id="_x3C_Slice_x3E__100_" x="53.333" fill="none" width="48" height="50.666"/>
</svg>
