<?xml version="1.0" encoding="utf-8"?>
<!-- Generator: Adobe Illustrator 15.0.2, SVG Export Plug-In  -->
<!DOCTYPE svg PUBLIC "-//W3C//DTD SVG 1.1//EN" "http://www.w3.org/Graphics/SVG/1.1/DTD/svg11.dtd" [
	<!ENTITY ns_flows "http://ns.adobe.com/Flows/1.0/">
]>
<svg version="1.1"
	 xmlns="http://www.w3.org/2000/svg" xmlns:xlink="http://www.w3.org/1999/xlink" xmlns:a="http://ns.adobe.com/AdobeSVGViewerExtensions/3.0/"
	 x="0px" y="0px" width="60px" height="58px" viewBox="0 0 60 58" overflow="visible" enable-background="new 0 0 60 58"
	 xml:space="preserve">
<defs>
</defs>
<polygon fill-rule="evenodd" clip-rule="evenodd" points="28.541,31.359 28.541,31.137 28.429,31.025 28.207,30.914 27.985,30.805 
	27.874,30.914 27.651,31.025 27.541,31.137 27.541,31.359 27.541,31.582 27.651,31.693 27.874,31.805 27.985,31.914 28.207,31.805 
	28.429,31.693 28.541,31.582 28.541,31.359 "/>
<path d="M28.853,31.359c0-0.235-0.026-0.483-0.266-0.604c-0.148-0.074-0.296-0.148-0.444-0.221
	c-0.128-0.063-0.273-0.055-0.379,0.049c-0.024,0.023-0.048,0.047-0.072,0.07c-0.065,0.064,0.077-0.036-0.046,0.025
	c-0.08,0.039-0.163,0.072-0.227,0.137c-0.171,0.172-0.191,0.309-0.191,0.543s0.02,0.371,0.191,0.543
	c0.064,0.064,0.147,0.098,0.227,0.137c0.036,0.019,0.092,0.07,0.019-0.002c0.033,0.033,0.066,0.065,0.1,0.098
	c0.106,0.104,0.251,0.112,0.379,0.049c0.148-0.072,0.296-0.146,0.444-0.221C28.827,31.843,28.853,31.595,28.853,31.359
	c0-0.402-0.625-0.402-0.625,0c0,0.074,0,0.148,0,0.223c0.031-0.074,0.061-0.147,0.091-0.221c-0.032,0.032-0.163,0.119-0.058,0.066
	c-0.059,0.03-0.118,0.061-0.178,0.09c-0.085,0.043-0.171,0.084-0.257,0.127c0.126,0.016,0.252,0.032,0.379,0.049
	c-0.078-0.076-0.147-0.145-0.245-0.193c-0.047-0.023-0.095-0.048-0.143-0.072c0.105,0.053-0.024-0.034-0.057-0.066
	c0.03,0.073,0.061,0.146,0.091,0.221c0-0.148,0-0.297,0-0.445c-0.031,0.074-0.061,0.147-0.091,0.221
	c0.033-0.033,0.066-0.066,0.099-0.1c-0.084,0.085,0.06-0.019,0.1-0.039c0.098-0.049,0.167-0.117,0.245-0.193
	c-0.126,0.017-0.253,0.033-0.379,0.049c0.086,0.043,0.171,0.084,0.257,0.127c0.06,0.029,0.119,0.06,0.178,0.09
	c-0.105-0.053,0.025,0.034,0.058,0.066c-0.03-0.073-0.061-0.146-0.091-0.221c0,0.074,0,0.148,0,0.223
	C28.228,31.762,28.853,31.762,28.853,31.359z"/>
<path d="M29.541,31.359h-3 M28.763,30.025l-1.444,2.668 M28.763,32.693l-1.444-2.668"/>
<path d="M29.541,31.047c-1,0-2,0-3,0c-0.403,0-0.403,0.625,0,0.625c1,0,2,0,3,0C29.943,31.672,29.943,31.047,29.541,31.047
	L29.541,31.047z"/>
<path d="M28.493,29.867c-0.481,0.89-0.963,1.779-1.444,2.668c-0.192,0.355,0.348,0.67,0.539,0.316
	c0.481-0.89,0.963-1.779,1.444-2.668C29.225,29.828,28.685,29.514,28.493,29.867L28.493,29.867z"/>
<path d="M29.032,32.535c-0.481-0.889-0.963-1.778-1.444-2.668c-0.191-0.354-0.731-0.039-0.539,0.316
	c0.481,0.889,0.963,1.778,1.444,2.668C28.685,33.205,29.225,32.891,29.032,32.535L29.032,32.535z"/>
<polygon fill-rule="evenodd" clip-rule="evenodd" points="28.541,27.248 28.541,27.025 28.429,26.914 28.207,26.805 27.985,26.693 
	27.874,26.805 27.651,26.914 27.541,27.025 27.541,27.248 27.541,27.471 27.651,27.582 27.874,27.693 27.985,27.805 28.207,27.693 
	28.429,27.582 28.541,27.471 28.541,27.248 "/>
<path d="M28.853,27.248c0-0.234-0.025-0.485-0.266-0.604c-0.148-0.073-0.296-0.146-0.444-0.221
	c-0.127-0.064-0.274-0.056-0.379,0.049c-0.024,0.023-0.048,0.048-0.072,0.072c-0.065,0.065,0.077-0.035-0.046,0.024
	c-0.08,0.04-0.163,0.071-0.227,0.136c-0.171,0.172-0.191,0.309-0.191,0.543s0.02,0.371,0.191,0.543
	c0.064,0.064,0.147,0.098,0.227,0.137c0.038,0.02,0.09,0.07,0.019-0.002c0.033,0.033,0.066,0.066,0.1,0.1
	c0.104,0.104,0.252,0.113,0.379,0.049c0.148-0.074,0.296-0.148,0.444-0.223C28.827,27.731,28.853,27.483,28.853,27.248
	c0-0.402-0.625-0.402-0.625,0c0,0.074,0,0.148,0,0.223c0.031-0.074,0.061-0.147,0.091-0.221c-0.032,0.032-0.163,0.119-0.058,0.066
	c-0.059,0.03-0.118,0.061-0.178,0.09c-0.086,0.043-0.171,0.086-0.257,0.129c0.126,0.016,0.252,0.032,0.379,0.049
	c-0.078-0.078-0.146-0.146-0.245-0.195c-0.047-0.023-0.095-0.048-0.143-0.072c0.105,0.053-0.024-0.034-0.057-0.066
	c0.03,0.073,0.061,0.146,0.091,0.221c0-0.148,0-0.297,0-0.445c-0.031,0.074-0.061,0.147-0.091,0.221
	c0.033-0.033,0.066-0.066,0.099-0.1c-0.084,0.085,0.06-0.018,0.1-0.037c0.099-0.049,0.168-0.117,0.245-0.195
	c-0.126,0.017-0.253,0.033-0.379,0.049c0.086,0.043,0.171,0.086,0.257,0.129c0.06,0.029,0.119,0.059,0.178,0.088
	c-0.104-0.053,0.024,0.033,0.058,0.066c-0.03-0.073-0.061-0.146-0.091-0.221c0,0.074,0,0.148,0,0.223
	C28.228,27.65,28.853,27.65,28.853,27.248z"/>
<path d="M29.541,27.248h-3 M28.763,25.914l-1.444,2.668 M28.763,28.582l-1.444-2.668"/>
<path d="M29.541,26.936c-1,0-2,0-3,0c-0.403,0-0.403,0.625,0,0.625c1,0,2,0,3,0C29.943,27.561,29.943,26.936,29.541,26.936
	L29.541,26.936z"/>
<path d="M28.493,25.756c-0.481,0.89-0.963,1.779-1.444,2.668c-0.192,0.355,0.348,0.67,0.539,0.316
	c0.481-0.89,0.963-1.779,1.444-2.668C29.225,25.717,28.685,25.402,28.493,25.756L28.493,25.756z"/>
<path d="M29.032,28.424c-0.481-0.889-0.963-1.778-1.444-2.668c-0.191-0.354-0.731-0.039-0.539,0.316
	c0.481,0.889,0.963,1.778,1.444,2.668C28.685,29.094,29.225,28.779,29.032,28.424L29.032,28.424z"/>
<rect id="_x3C_Slice_x3E__101_" y="57.334" fill="none" width="60" height="52"/>
<rect id="_x3C_Slice_x3E__100_" fill="none" width="60" height="57.334"/>
</svg>
