<?xml version="1.0" encoding="utf-8"?>
<!-- Generator: Adobe Illustrator 15.0.2, SVG Export Plug-In  -->
<!DOCTYPE svg PUBLIC "-//W3C//DTD SVG 1.1//EN" "http://www.w3.org/Graphics/SVG/1.1/DTD/svg11.dtd" [
	<!ENTITY ns_flows "http://ns.adobe.com/Flows/1.0/">
]>
<svg version="1.1"
	 xmlns="http://www.w3.org/2000/svg" xmlns:xlink="http://www.w3.org/1999/xlink" xmlns:a="http://ns.adobe.com/AdobeSVGViewerExtensions/3.0/"
	 x="0px" y="0px" width="48px" height="51px" viewBox="53 0.333 48 51" overflow="visible" enable-background="new 53 0.333 48 51"
	 xml:space="preserve">
<defs>
</defs>
<path d="M81.715,27.647c-3.757,1.61-7.594,1.612-11.352,0c-0.366-0.157-0.685,0.381-0.315,0.54c4,1.716,7.982,1.714,11.982,0
	C82.4,28.029,82.082,27.49,81.715,27.647L81.715,27.647z"/>
<polygon fill-rule="evenodd" clip-rule="evenodd" points="77.317,25.251 77.317,25.028 77.206,24.807 77.095,24.584 76.873,24.362 
	76.762,24.251 76.539,24.14 76.317,24.028 76.095,24.028 75.762,24.028 75.539,24.14 75.317,24.251 75.206,24.362 74.983,24.584 
	74.873,24.807 74.762,25.028 74.762,25.251 74.762,25.473 74.873,25.807 74.983,26.028 75.206,26.14 75.317,26.362 75.539,26.473 
	75.762,26.473 76.095,26.584 76.317,26.473 76.539,26.473 76.762,26.362 76.873,26.14 77.095,26.028 77.206,25.807 77.317,25.473 
	77.317,25.251 "/>
<path d="M77.63,25.251c0-0.879-0.822-1.535-1.652-1.535c-0.468,0-0.816,0.249-1.137,0.569c-0.331,0.33-0.392,0.745-0.392,1.188
	c0,0.196,0.123,0.43,0.209,0.603c0.052,0.104,0.094,0.187,0.202,0.241c0.051,0.025,0.102,0.051,0.153,0.077
	c-0.134-0.067-0.032-0.005,0.017,0.093c0.085,0.169,0.359,0.3,0.543,0.3c0.168,0,0.393,0.158,0.604,0.101
	c0.083-0.023,0.371-0.101,0.174-0.101c0.119,0,0.235,0.013,0.345-0.042c0.093-0.046,0.21-0.084,0.286-0.16
	c0.029-0.028,0.051-0.062,0.066-0.098c0.049-0.097,0.151-0.16,0.017-0.093C77.484,26.182,77.63,25.701,77.63,25.251
	c0-0.403-0.625-0.403-0.625,0c0,0.185-0.008,0.195-0.071,0.386c-0.022,0.067-0.045,0.107-0.091,0.199
	c0.07-0.14-0.03-0.015-0.127,0.034c-0.061,0.03-0.1,0.088-0.129,0.146c-0.025,0.051-0.051,0.102-0.077,0.153
	c0.085-0.073,0.08-0.081-0.017-0.022c-0.143,0.071,0.109,0.013-0.141,0.013c-0.086,0-0.151,0.022-0.227,0.061
	c-0.212,0.105-0.147-0.005,0.028,0.054c-0.095-0.031-0.189-0.063-0.284-0.095c-0.071-0.023-0.145-0.02-0.219-0.02
	c-0.106-0.007-0.103,0.002,0.012,0.025c-0.051-0.025-0.102-0.051-0.152-0.076c0.14,0.07,0.015-0.03-0.034-0.127
	c-0.044-0.089-0.141-0.127-0.223-0.168c-0.096-0.059-0.102-0.051-0.016,0.021c-0.025-0.051-0.051-0.102-0.076-0.152
	c0.003,0.007-0.053-0.161-0.068-0.207c-0.024-0.072-0.018-0.202-0.018-0.337c0.007-0.106-0.001-0.102-0.025,0.012
	c0.025-0.051,0.051-0.102,0.077-0.152c0.037-0.074,0.074-0.148,0.111-0.223c0.02-0.04,0.201-0.237,0.273-0.273
	c0.074-0.037,0.148-0.074,0.222-0.11c0.051-0.026,0.103-0.051,0.153-0.077c-0.116,0.024-0.118,0.033-0.006,0.025
	c0.072,0,0.144,0,0.216,0c0.088,0,0.266,0.059,0.1-0.025c0.141,0.071,0.321,0.13,0.429,0.238c0.136,0.135,0.216,0.217,0.296,0.375
	c0.037,0.074,0.074,0.148,0.111,0.222c-0.084-0.167-0.025,0.012-0.025,0.1C77.005,25.654,77.63,25.654,77.63,25.251z"/>
<rect id="_x3C_Slice_x3E__103_" y="50.667" fill="none" width="53.333" height="57.333"/>
<rect id="_x3C_Slice_x3E__102_" x="53.333" y="50.667" fill="none" width="48" height="57.333"/>
<rect id="_x3C_Slice_x3E__101_" fill="none" width="53.333" height="50.667"/>
<rect id="_x3C_Slice_x3E__100_" x="53.333" fill="none" width="48" height="50.667"/>
</svg>
