<?xml version="1.0" encoding="utf-8"?>
<!-- Generator: Adobe Illustrator 15.0.2, SVG Export Plug-In  -->
<!DOCTYPE svg PUBLIC "-//W3C//DTD SVG 1.1//EN" "http://www.w3.org/Graphics/SVG/1.1/DTD/svg11.dtd" [
	<!ENTITY ns_flows "http://ns.adobe.com/Flows/1.0/">
]>
<svg version="1.1"
	 xmlns="http://www.w3.org/2000/svg" xmlns:xlink="http://www.w3.org/1999/xlink" xmlns:a="http://ns.adobe.com/AdobeSVGViewerExtensions/3.0/"
	 x="0px" y="0px" width="32px" height="35px" viewBox="51.666 0 32 35" overflow="visible" enable-background="new 51.666 0 32 35"
	 xml:space="preserve">
<defs>
</defs>
<path d="M71.584,12.538c-1.577-3.146-1.866-7.358,0-10.462c0.208-0.347-0.332-0.661-0.54-0.315c-1.987,3.307-1.679,7.743,0,11.093
	C71.225,13.214,71.764,12.897,71.584,12.538L71.584,12.538z"/>
<path d="M82.361,12.854c1.773-3.538,1.771-7.554,0-11.093c-0.181-0.36-0.72-0.044-0.54,0.315c1.661,3.318,1.663,7.145,0,10.462
	C81.642,12.897,82.181,13.214,82.361,12.854L82.361,12.854z"/>
<path d="M74.6,11.855c1.052,0.787,1.994,1.161,3.206,0.555c1.044-0.522,1.991-2.414,1.333-3.538
	c-0.36-0.615-0.982-1.351-1.556-1.779c-0.792-0.593-1.88-0.931-2.444-1.776c-1.229-1.839,1.942-3.683,3.128-1.907
	c0.223,0.333,0.765,0.021,0.54-0.315c-2.198-3.292-6.778,1.694-3.096,3.539c1.729,0.867,3.572,2.434,2.556,4.461
	c-0.741,1.481-2.292,1.014-3.352,0.222C74.592,11.074,74.281,11.617,74.6,11.855L74.6,11.855z"/>
<polygon fill-rule="evenodd" clip-rule="evenodd" points="81.537,6.808 80.537,6.363 80.092,6.029 79.758,5.918 79.648,5.808 
	79.537,5.918 79.537,5.918 79.537,6.029 79.648,6.141 79.758,6.363 79.869,6.474 79.869,6.585 79.869,6.808 79.869,6.918 
	79.869,7.141 79.758,7.252 79.648,7.362 79.537,7.585 79.537,7.585 79.537,7.696 79.648,7.696 79.758,7.696 80.092,7.474 
	80.537,7.252 81.537,6.808 "/>
<path d="M81.694,6.538c-0.333-0.148-0.667-0.296-1-0.444c-0.153-0.068-0.3-0.225-0.435-0.326c-0.057-0.042-0.151-0.062-0.217-0.083
	c-0.062-0.021-0.123-0.041-0.184-0.062c0.168,0.057,0.074,0.029,0.01-0.037c-0.12-0.122-0.322-0.12-0.442,0
	c-0.382,0.38-0.09,0.799,0.221,1.108c-0.03-0.074-0.062-0.147-0.091-0.221c0,0.223,0,0.445,0,0.667
	c0.029-0.073,0.061-0.147,0.091-0.221c-0.224,0.224-0.423,0.442-0.423,0.776c0,0.17,0.142,0.312,0.312,0.312
	c0.41,0,0.701-0.26,1.061-0.439c0.358-0.179,0.73-0.33,1.097-0.492c0.368-0.163,0.05-0.702-0.315-0.54
	c-0.336,0.149-0.684,0.286-1.013,0.451c-0.161,0.08-0.335,0.15-0.485,0.25c-0.088,0.059-0.178,0.119-0.268,0.178
	c0.113-0.075,0.153-0.033,0.035-0.033c-0.037,0-0.074,0-0.111,0c0.104,0.104,0.208,0.208,0.312,0.312
	c0-0.177-0.088,0.136,0.029-0.098c0.035-0.07,0.103-0.129,0.182-0.208c0.154-0.154,0.121-0.354,0.121-0.555
	c0-0.153,0.037-0.383-0.043-0.52c-0.099-0.168-0.224-0.35-0.381-0.508c0.03,0.074,0.061,0.147,0.092,0.221c0-0.037,0-0.074,0-0.111
	c-0.031,0.074-0.062,0.147-0.092,0.221c0.037-0.037,0.074-0.074,0.111-0.111c-0.147,0-0.295,0-0.442,0
	c0.158,0.16,0.306,0.21,0.515,0.28c0.063,0.022,0.064,0.021,0.002-0.001c0.041,0.031,0.083,0.062,0.124,0.092
	c0.101,0.075,0.2,0.15,0.302,0.226c0.274,0.206,0.694,0.312,1.01,0.452C81.744,7.239,82.062,6.701,81.694,6.538z"/>
<path d="M79.869,6.495c-2.593,0-5.186,0-7.777,0c-0.403,0-0.403,0.625,0,0.625c2.592,0,5.185,0,7.777,0
	C80.271,7.12,80.271,6.495,79.869,6.495L79.869,6.495z"/>
<rect id="_x3C_Slice_x3E__103_" y="34.667" fill="none" width="52" height="50.667"/>
<rect id="_x3C_Slice_x3E__102_" x="52" y="34.667" fill="none" width="31.666" height="50.667"/>
<rect id="_x3C_Slice_x3E__101_" fill="none" width="52" height="34.667"/>
<rect id="_x3C_Slice_x3E__100_" x="52" fill="none" width="31.666" height="34.667"/>
</svg>
