<?xml version="1.0" encoding="utf-8"?>
<!-- Generator: Adobe Illustrator 15.0.2, SVG Export Plug-In  -->
<!DOCTYPE svg PUBLIC "-//W3C//DTD SVG 1.1//EN" "http://www.w3.org/Graphics/SVG/1.1/DTD/svg11.dtd" [
	<!ENTITY ns_flows "http://ns.adobe.com/Flows/1.0/">
]>
<svg version="1.1"
	 xmlns="http://www.w3.org/2000/svg" xmlns:xlink="http://www.w3.org/1999/xlink" xmlns:a="http://ns.adobe.com/AdobeSVGViewerExtensions/3.0/"
	 x="0px" y="0px" width="52px" height="57px" viewBox="0 0.667 52 57" overflow="visible" enable-background="new 0 0.667 52 57"
	 xml:space="preserve">
<defs>
</defs>
<polygon fill-rule="evenodd" clip-rule="evenodd" points="25.985,29.917 25.985,29.695 25.874,29.472 25.763,29.25 25.652,29.139 
	25.43,28.917 25.208,28.806 24.985,28.695 24.763,28.695 24.43,28.695 24.208,28.806 23.985,28.917 23.875,29.139 23.652,29.25 
	23.541,29.472 23.541,29.695 23.43,29.917 23.541,30.25 23.541,30.472 23.652,30.695 23.875,30.806 23.985,31.028 24.208,31.139 
	24.43,31.25 24.763,31.25 24.985,31.25 25.208,31.139 25.43,31.028 25.652,30.806 25.763,30.695 25.874,30.472 25.985,30.25 
	25.985,29.917 "/>
<path d="M26.298,29.917c0-0.878-0.821-1.535-1.652-1.535c-0.254,0-0.405,0.058-0.63,0.171c-0.101,0.051-0.245,0.097-0.299,0.206
	c-0.019,0.037-0.037,0.074-0.056,0.111c-0.093,0.187,0.132-0.039-0.055,0.055c-0.189,0.095-0.377,0.319-0.377,0.547
	c0,0.037,0,0.074,0,0.111c0,0.219,0.095-0.15-0.013,0.065c-0.055,0.108-0.13,0.225-0.087,0.352c0.133,0.398,0.079,0.822,0.553,1.058
	c-0.072-0.085-0.08-0.08-0.021,0.017c0.03,0.061,0.055,0.125,0.104,0.174c0.075,0.075,0.192,0.114,0.285,0.16
	c0.246,0.124,0.403,0.154,0.679,0.154C25.616,31.563,26.298,30.774,26.298,29.917c0-0.403-0.625-0.403-0.625,0
	c0,0.072,0,0.144,0,0.216c-0.008,0.112,0.001,0.11,0.025-0.006c-0.025,0.051-0.051,0.102-0.077,0.152
	c-0.066,0.131-0.112,0.227-0.214,0.328c-0.134,0.134-0.193,0.179-0.358,0.262c-0.085,0.043-0.284,0.068-0.099,0.068
	c-0.074,0-0.148,0-0.222,0c-0.088,0-0.176,0-0.264,0c0.185,0-0.014-0.025-0.099-0.068c-0.097-0.049-0.197-0.174-0.127-0.034
	c-0.041-0.082-0.076-0.184-0.142-0.25c-0.067-0.067-0.169-0.101-0.251-0.142c0.072,0.085,0.08,0.08,0.021-0.017
	c-0.047-0.106-0.051-0.102-0.013,0.012c0-0.194-0.032-0.333-0.094-0.518c-0.065-0.195-0.12,0.273-0.005,0.043
	c0.043-0.084,0.099-0.17,0.099-0.269c0-0.087,0.059-0.267-0.025-0.1c0.025-0.051,0.051-0.102,0.076-0.152
	c-0.085,0.073-0.08,0.08,0.017,0.022c0.083-0.042,0.179-0.079,0.224-0.167c0.048-0.097,0.173-0.198,0.033-0.128
	c0.074-0.037,0.148-0.074,0.222-0.111c0.051-0.025,0.102-0.051,0.153-0.076c-0.116,0.025-0.118,0.033-0.006,0.025
	c0.072,0,0.145,0,0.216,0c0.087,0,0.266,0.059,0.099-0.025c0.145,0.072,0.328,0.139,0.425,0.234c0.129,0.129,0.219,0.218,0.3,0.379
	c0.037,0.074,0.074,0.148,0.111,0.223c-0.083-0.167-0.025,0.012-0.025,0.1C25.673,30.32,26.298,30.32,26.298,29.917z"/>
<path d="M26.208,36.119c0.815,0,1.629,0,2.444,0c0.17,0,0.312-0.143,0.312-0.312c0-3.889,0-7.778,0-11.667
	c0-0.17-0.142-0.312-0.312-0.312c-0.815,0-1.629,0-2.444,0c-0.403,0-0.403,0.625,0,0.625c0.688,0,1.375,0,2.062,0
	c0.581,0,0.069-0.197,0.069-0.219c0,0.229,0,0.458,0,0.688c0,1.684,0,3.368,0,5.052s0,3.369,0,5.052c0,0.83-0.104,0.469,0.208,0.469
	c-0.78,0-1.56,0-2.339,0C25.805,35.494,25.805,36.119,26.208,36.119L26.208,36.119z"/>
<rect id="_x3C_Slice_x3E__101_" y="57.333" fill="none" width="52" height="53.333"/>
<rect id="_x3C_Slice_x3E__100_" fill="none" width="52" height="57.333"/>
</svg>
