<?xml version="1.0" encoding="utf-8"?>
<!-- Generator: Adobe Illustrator 15.0.2, SVG Export Plug-In  -->
<!DOCTYPE svg PUBLIC "-//W3C//DTD SVG 1.1//EN" "http://www.w3.org/Graphics/SVG/1.1/DTD/svg11.dtd" [
	<!ENTITY ns_flows "http://ns.adobe.com/Flows/1.0/">
]>
<svg version="1.1"
	 xmlns="http://www.w3.org/2000/svg" xmlns:xlink="http://www.w3.org/1999/xlink" xmlns:a="http://ns.adobe.com/AdobeSVGViewerExtensions/3.0/"
	 x="0px" y="0px" width="32px" height="53px" viewBox="51.666 0.333 32 53"
	 overflow="visible" enable-background="new 51.666 0.333 32 53" xml:space="preserve">
<defs>
</defs>
<path d="M21.982,23.361v8.11 M80.203,25.916H71.98 M80.203,27.361H71.98 M79.648,27.694l1.777-1l-1.777-1.111"/>
<path d="M80.203,25.604c-2.741,0-5.482,0-8.223,0c-0.403,0-0.403,0.625,0,0.625c2.74,0,5.481,0,8.223,0
	C80.605,26.229,80.605,25.604,80.203,25.604L80.203,25.604z"/>
<path d="M80.203,27.049c-2.741,0-5.482,0-8.223,0c-0.403,0-0.403,0.625,0,0.625c2.74,0,5.481,0,8.223,0
	C80.605,27.674,80.605,27.049,80.203,27.049L80.203,27.049z"/>
<path d="M79.806,27.964c0.593-0.333,1.185-0.667,1.777-1c0.21-0.118,0.194-0.418,0-0.54c-0.593-0.371-1.185-0.741-1.777-1.111
	c-0.343-0.214-0.656,0.327-0.315,0.54c0.592,0.371,1.186,0.741,1.777,1.111c0-0.18,0-0.359,0-0.54c-0.592,0.333-1.186,0.667-1.777,1
	C79.139,27.622,79.454,28.162,79.806,27.964L79.806,27.964z"/>
<polygon fill-rule="evenodd" clip-rule="evenodd" points="75.869,21.806 75.537,22.694 75.203,23.25 74.98,23.472 74.98,23.694 
	74.98,23.694 75.092,23.806 75.203,23.694 75.314,23.583 75.426,23.472 75.648,23.472 75.758,23.361 75.869,23.361 76.092,23.361 
	76.203,23.472 76.426,23.472 76.537,23.694 76.648,23.806 76.758,23.806 76.869,23.806 76.869,23.694 76.758,23.583 76.648,23.25 
	76.314,22.694 75.869,21.806 "/>
<path d="M75.567,21.723c-0.082,0.219-0.164,0.438-0.246,0.658c-0.017,0.044-0.136,0.291-0.06,0.165c-0.061,0.1-0.121,0.2-0.182,0.3
	c-0.026,0.044-0.186,0.27-0.115,0.199c-0.082,0.083-0.194,0.167-0.255,0.27c-0.143,0.244-0.013,0.538,0.16,0.712
	c0.12,0.12,0.321,0.12,0.442,0c0.111-0.111,0.223-0.222,0.334-0.333c-0.074,0.031-0.147,0.061-0.221,0.091
	c0.246,0,0.373-0.021,0.553-0.202c-0.074,0.03-0.147,0.061-0.221,0.092c0.111,0,0.223,0,0.334,0
	c-0.074-0.031-0.148-0.062-0.222-0.092c0.181,0.18,0.308,0.202,0.556,0.202c-0.09-0.051-0.18-0.103-0.271-0.154
	c0.171,0.34,0.326,0.488,0.714,0.488c0.17,0,0.312-0.143,0.312-0.312c0-0.122,0.002-0.239-0.092-0.333
	c-0.066-0.066-0.093-0.161-0.037,0.008c-0.02-0.061-0.041-0.122-0.061-0.184c-0.069-0.212-0.184-0.387-0.299-0.578
	c-0.207-0.345-0.375-0.712-0.555-1.072c-0.181-0.36-0.72-0.043-0.54,0.315c0.153,0.307,0.29,0.631,0.467,0.924
	c0.056,0.091,0.11,0.183,0.165,0.274c0.025,0.042,0.158,0.301,0.122,0.19c0.075,0.227,0.124,0.393,0.295,0.563
	c-0.03-0.074-0.062-0.147-0.091-0.221c0,0.037,0,0.074,0,0.111c0.104-0.104,0.208-0.208,0.312-0.312c-0.074,0-0.147,0-0.221,0
	c0.073,0.03,0.146,0.061,0.221,0.091c-0.086-0.086-0.109-0.142-0.174-0.27c-0.049-0.097-0.166-0.155-0.27-0.155
	c-0.074,0-0.148,0-0.223,0c0.073,0.031,0.146,0.062,0.221,0.092c-0.283-0.282-0.716-0.285-0.997,0
	c0.073-0.03,0.147-0.061,0.222-0.092c-0.38,0-0.521,0.169-0.778,0.425c0.147,0,0.295,0,0.442,0
	c-0.037-0.037-0.074-0.074-0.111-0.111c0.03,0.074,0.061,0.147,0.092,0.221c0-0.074,0-0.148,0-0.223
	c-0.031,0.074-0.062,0.147-0.092,0.221c0.512-0.511,0.721-1.14,0.969-1.804C76.312,21.51,75.707,21.349,75.567,21.723z"/>
<path d="M75.557,23.361c0,2.703,0,5.407,0,8.11c0,0.403,0.625,0.403,0.625,0c0-2.703,0-5.407,0-8.11
	C76.182,22.958,75.557,22.958,75.557,23.361L75.557,23.361z"/>
<rect id="_x3C_Slice_x3E__101_" fill="none" width="52" height="53.333"/>
<rect id="_x3C_Slice_x3E__100_" x="52" fill="none" width="31.666" height="53.333"/>
</svg>
