<?xml version="1.0" encoding="utf-8"?>
<!-- Generator: Adobe Illustrator 15.0.2, SVG Export Plug-In  -->
<!DOCTYPE svg PUBLIC "-//W3C//DTD SVG 1.1//EN" "http://www.w3.org/Graphics/SVG/1.1/DTD/svg11.dtd" [
	<!ENTITY ns_flows "http://ns.adobe.com/Flows/1.0/">
]>
<svg version="1.1"
	 xmlns="http://www.w3.org/2000/svg" xmlns:xlink="http://www.w3.org/1999/xlink" xmlns:a="http://ns.adobe.com/AdobeSVGViewerExtensions/3.0/"
	 x="0px" y="0px" width="55px" height="50px" viewBox="56.666 0.666 55 50"
	 overflow="visible" enable-background="new 56.666 0.666 55 50" xml:space="preserve">
<defs>
</defs>
<path d="M87.378,24.295c0.608,1.014,1.062,3.529-0.952,3.529c-2.169,0-3.881-2.568-5.509-3.791c-1.026-0.77-3.046-0.813-3.704,0.502
	c-0.617,1.234-0.338,2.324,0.388,3.537c0.207,0.345,0.747,0.031,0.54-0.316c-0.736-1.229-1.146-2.998,0.48-3.541
	c1.922-0.641,4.055,2.062,5.251,3.254c1.221,1.215,3.009,1.322,4.22,0.111c0.973-0.973,0.42-2.612-0.174-3.602
	C87.711,23.634,87.17,23.947,87.378,24.295L87.378,24.295z"/>
<g>
	<polygon fill-rule="evenodd" clip-rule="evenodd" points="80.537,25.914 80.537,25.693 80.428,25.471 80.316,25.248 80.205,25.025 
		79.982,24.914 79.76,24.805 79.539,24.693 79.316,24.693 79.094,24.693 78.871,24.805 78.648,24.914 78.428,25.025 78.316,25.248 
		78.205,25.471 78.094,25.693 78.094,25.914 78.094,26.248 78.205,26.471 78.316,26.693 78.428,26.805 78.648,27.025 78.871,27.137 
		79.094,27.248 79.316,27.248 79.539,27.248 79.76,27.137 79.982,27.025 80.205,26.805 80.316,26.693 80.428,26.471 80.537,26.248 
		80.537,25.914 	"/>
</g>
<rect id="_x3C_Slice_x3E__101_" fill="none" width="57.333" height="50.666"/>
<rect id="_x3C_Slice_x3E__100_" x="57.333" fill="none" width="54.667" height="50.666"/>
</svg>
