<?xml version="1.0" encoding="utf-8"?>
<!-- Generator: Adobe Illustrator 15.0.2, SVG Export Plug-In  -->
<!DOCTYPE svg PUBLIC "-//W3C//DTD SVG 1.1//EN" "http://www.w3.org/Graphics/SVG/1.1/DTD/svg11.dtd" [
	<!ENTITY ns_flows "http://ns.adobe.com/Flows/1.0/">
]>
<svg version="1.1"
	 xmlns="http://www.w3.org/2000/svg" xmlns:xlink="http://www.w3.org/1999/xlink" xmlns:a="http://ns.adobe.com/AdobeSVGViewerExtensions/3.0/"
	 x="0px" y="0px" width="55px" height="53px" viewBox="56.666 0.333 55 53"
	 overflow="visible" enable-background="new 56.666 0.333 55 53" xml:space="preserve">
<defs>
</defs>
<polygon fill-rule="evenodd" clip-rule="evenodd" points="87.316,26.694 86.428,26.25 85.871,25.916 85.537,25.694 85.428,25.694 
	85.316,25.694 85.316,25.806 85.316,25.916 85.428,26.027 85.537,26.139 85.648,26.361 85.76,26.472 85.76,26.694 85.76,26.806 
	85.648,26.916 85.537,27.139 85.428,27.25 85.316,27.361 85.316,27.472 85.316,27.583 85.428,27.583 85.537,27.583 85.871,27.361 
	86.428,27.027 87.316,26.694 "/>
<path d="M87.474,26.424c-0.36-0.18-0.728-0.348-1.072-0.554c-0.356-0.214-0.66-0.488-1.085-0.488c-0.171,0-0.312,0.142-0.312,0.312
	c0,0.22,0.008,0.36,0.174,0.525c0.137,0.137,0.199,0.312,0.36,0.473c-0.03-0.074-0.062-0.147-0.091-0.221c0,0.111,0,0.223,0,0.334
	c0.029-0.074,0.061-0.147,0.091-0.221c-0.146,0.146-0.216,0.327-0.332,0.444c-0.177,0.18-0.202,0.312-0.202,0.554
	c0,0.171,0.142,0.312,0.312,0.312c0.408,0,0.682-0.246,1.022-0.45c0.079-0.048,0.157-0.095,0.237-0.143
	c-0.127,0.076,0.121-0.044,0.164-0.061c0.22-0.082,0.439-0.164,0.658-0.247c0.375-0.14,0.213-0.744-0.166-0.603
	c-0.34,0.128-0.725,0.223-1.038,0.41c-0.165,0.099-0.336,0.191-0.495,0.298c-0.103,0.068-0.204,0.136-0.307,0.203
	c0.113-0.075,0.153-0.033,0.035-0.033c-0.037,0-0.074,0-0.111,0c0.104,0.104,0.208,0.208,0.312,0.312c0-0.074,0-0.148,0-0.222
	c-0.031,0.073-0.062,0.147-0.092,0.221c0.256-0.255,0.535-0.55,0.535-0.911c0-0.407-0.249-0.689-0.535-0.976
	c0.03,0.074,0.061,0.147,0.092,0.221c0-0.074,0-0.148,0-0.222c-0.104,0.104-0.209,0.208-0.312,0.312c0.063,0,0.128,0,0.191,0
	c-0.141,0-0.138-0.049-0.023,0.027c0.059,0.039,0.117,0.078,0.176,0.117c0.157,0.104,0.322,0.196,0.484,0.293
	c0.324,0.195,0.675,0.35,1.014,0.52C87.518,27.144,87.834,26.604,87.474,26.424z"/>
<path d="M85.76,26.382c-2.556,0-5.111,0-7.666,0c-0.403,0-0.403,0.625,0,0.625c2.555,0,5.11,0,7.666,0
	C86.162,27.007,86.162,26.382,85.76,26.382L85.76,26.382z"/>
<polygon fill-rule="evenodd" clip-rule="evenodd" points="81.982,31.472 82.428,30.583 82.76,30.027 82.871,29.694 82.982,29.583 
	82.871,29.472 82.871,29.472 82.76,29.472 82.648,29.583 82.428,29.806 82.316,29.806 82.205,29.916 81.982,29.916 81.76,29.916 
	81.648,29.806 81.537,29.806 81.316,29.583 81.205,29.472 81.205,29.472 81.094,29.472 81.094,29.583 81.094,29.694 81.316,30.027 
	81.537,30.583 81.982,31.472 "/>
<path d="M82.252,31.63c0.153-0.307,0.291-0.63,0.467-0.924c0.102-0.17,0.203-0.34,0.305-0.511c0.038-0.063,0.058-0.145,0.081-0.215
	c0.021-0.062,0.041-0.123,0.062-0.184c-0.057,0.169-0.028,0.073,0.037,0.008c0.121-0.12,0.12-0.322,0-0.442
	c-0.398-0.398-0.682-0.095-0.997,0.222c0.073-0.031,0.147-0.061,0.222-0.091c-0.203,0-0.303,0.062-0.444,0.202
	c0.073-0.03,0.147-0.061,0.222-0.092c-0.148,0-0.297,0-0.445,0c0.073,0.031,0.146,0.062,0.221,0.092
	c-0.142-0.141-0.241-0.202-0.443-0.202c0.073,0.03,0.146,0.061,0.221,0.091c-0.205-0.206-0.354-0.425-0.664-0.425
	c-0.171,0-0.312,0.143-0.312,0.312c0,0.188,0.005,0.324,0.113,0.485c0.15,0.228,0.156,0.246,0.283,0.565
	c0.151,0.381,0.352,0.741,0.534,1.107c0.181,0.36,0.72,0.043,0.54-0.315c-0.092-0.183-0.184-0.366-0.275-0.549
	c-0.047-0.094-0.094-0.187-0.141-0.28c-0.012-0.023-0.053-0.122-0.002,0.004c-0.018-0.044-0.035-0.089-0.053-0.133
	c-0.07-0.176-0.125-0.38-0.23-0.539c-0.059-0.089-0.119-0.178-0.178-0.267c0.075,0.113,0.033,0.151,0.033,0.032
	c0-0.037,0-0.074,0-0.111c-0.104,0.104-0.209,0.208-0.312,0.312c0.037,0,0.074,0,0.111,0c-0.074-0.03-0.148-0.061-0.222-0.091
	c0.206,0.206,0.353,0.425,0.665,0.425c-0.074-0.031-0.148-0.062-0.222-0.092c0.293,0.292,0.817,0.292,1.11,0
	c-0.074,0.03-0.147,0.061-0.221,0.092c0.311,0,0.459-0.22,0.664-0.425c-0.074,0.031-0.147,0.061-0.221,0.091
	c0.037,0,0.074,0,0.111,0c-0.074-0.03-0.148-0.061-0.222-0.091c0.037,0.037,0.074,0.074,0.111,0.111c0-0.147,0-0.294,0-0.442
	c-0.159,0.159-0.21,0.306-0.28,0.516c-0.023,0.063-0.021,0.063,0.004,0c-0.023,0.039-0.047,0.078-0.07,0.116
	c-0.07,0.119-0.141,0.237-0.212,0.355c-0.185,0.308-0.329,0.643-0.49,0.964C81.532,31.673,82.071,31.99,82.252,31.63z"/>
<path d="M81.982,29.916v-8.11 M140.205,25.916h-8.223 M140.205,27.361h-8.223 M139.648,27.694l1.777-1l-1.777-1.111"/>
<path d="M82.295,29.916c0-2.703,0-5.407,0-8.11c0-0.403-0.625-0.403-0.625,0c0,2.703,0,5.407,0,8.11
	C81.67,30.319,82.295,30.319,82.295,29.916L82.295,29.916z"/>
<rect id="_x3C_Slice_x3E__101_" fill="none" width="57.333" height="53.333"/>
<rect id="_x3C_Slice_x3E__100_" x="57.333" fill="none" width="54.667" height="53.333"/>
</svg>
