<?xml version="1.0" encoding="utf-8"?>
<!-- Generator: Adobe Illustrator 15.0.2, SVG Export Plug-In  -->
<!DOCTYPE svg PUBLIC "-//W3C//DTD SVG 1.1//EN" "http://www.w3.org/Graphics/SVG/1.1/DTD/svg11.dtd" [
	<!ENTITY ns_flows "http://ns.adobe.com/Flows/1.0/">
]>
<svg version="1.1"
	 xmlns="http://www.w3.org/2000/svg" xmlns:xlink="http://www.w3.org/1999/xlink" xmlns:a="http://ns.adobe.com/AdobeSVGViewerExtensions/3.0/"
	 x="0px" y="0px" width="52px" height="55px" viewBox="55.666 0.333 52 55"
	 overflow="visible" enable-background="new 55.666 0.333 52 55" xml:space="preserve">
<defs>
</defs>
<g>
	<polygon fill-rule="evenodd" clip-rule="evenodd" points="79.98,24.583 79.98,24.36 79.871,24.138 79.76,23.915 79.537,23.694 
		79.426,23.583 79.203,23.472 78.98,23.36 78.76,23.36 78.426,23.36 78.203,23.472 77.982,23.583 77.871,23.694 77.648,23.915 
		77.537,24.138 77.426,24.36 77.426,24.583 77.426,24.806 77.537,25.026 77.648,25.249 77.871,25.472 77.982,25.583 78.203,25.694 
		78.426,25.806 78.76,25.806 78.98,25.806 79.203,25.694 79.426,25.583 79.537,25.472 79.76,25.249 79.871,25.026 79.98,24.806 
		79.98,24.583 	"/>
</g>
<polygon fill-rule="evenodd" clip-rule="evenodd" points="78.203,29.694 78.426,29.583 78.648,29.36 78.871,29.138 78.98,28.915 
	78.98,28.806 78.98,28.583 78.871,28.583 78.648,28.583 78.314,28.472 78.203,28.472 78.092,28.36 78.092,28.36 77.982,28.249 
	77.982,28.026 77.982,27.915 77.982,27.806 78.203,27.583 78.314,27.472 78.648,27.472 78.76,27.472 78.98,27.583 79.092,27.583 
	79.203,27.806 79.314,27.915 79.314,28.026 79.426,28.249 79.426,28.36 79.426,28.583 79.426,28.806 79.314,28.915 79.203,29.138 
	79.092,29.36 78.871,29.583 78.537,29.806 78.314,29.915 78.203,29.694 "/>
<path d="M78.36,29.964c0.289-0.145,0.481-0.355,0.708-0.582c0.221-0.221,0.225-0.51,0.225-0.799c0-0.17-0.143-0.312-0.312-0.312
	c-0.259,0-0.33-0.016-0.584-0.1c-0.277-0.094,0.111,0.168-0.113-0.061c-0.158-0.161,0.012,0.258,0.012,0.027
	c0-0.056,0-0.111,0-0.167c0-0.167,0.045-0.083-0.068,0.032c0.058-0.059,0.115-0.117,0.174-0.176c0.207-0.209-0.211-0.043,0.08-0.043
	c0.057,0,0.111,0,0.168,0c0.16,0-0.143-0.091,0.063,0.014c0.131,0.065,0.231,0.098,0.38,0.098c-0.09-0.052-0.18-0.104-0.271-0.154
	c0.056,0.11,0.1,0.226,0.189,0.314c0.157,0.154-0.009-0.201-0.009-0.029c0,0.072,0.028,0.13,0.06,0.192
	c0.034,0.067,0.052,0.234,0.052,0.086c0,0.056,0,0.111,0,0.167c0,0.049,0,0.098,0,0.146c0,0.213-0.062,0.117,0.062-0.005
	c-0.178,0.175-0.234,0.454-0.383,0.604c-0.16,0.161-0.378,0.301-0.637,0.428c0.143,0.037,0.285,0.074,0.428,0.111
	c-0.037-0.073-0.074-0.146-0.111-0.221c-0.182-0.359-0.721-0.043-0.54,0.316c0.037,0.073,0.074,0.146,0.111,0.221
	c0.081,0.159,0.282,0.184,0.428,0.111c0.249-0.122,0.501-0.26,0.698-0.459c0.207-0.209,0.277-0.504,0.477-0.699
	c0.148-0.145,0.134-0.665,0.08-0.86c-0.017-0.06-0.06-0.131-0.087-0.187c-0.087-0.172,0.044,0.098-0.024-0.147
	c-0.039-0.14-0.188-0.272-0.254-0.407c-0.049-0.096-0.166-0.154-0.27-0.154c-0.162,0,0.143,0.091-0.064-0.014
	c-0.084-0.042-0.17-0.098-0.268-0.098c-0.148,0-0.297,0-0.445,0c-0.309,0-0.645,0.49-0.645,0.756c0,0.347,0.045,0.633,0.375,0.826
	c0.242,0.143,0.649,0.154,0.936,0.154c-0.104-0.104-0.209-0.209-0.312-0.312c0,0.092,0,0.186,0,0.277
	c0.037-0.094,0.033-0.092-0.013,0.008c-0.057,0.116,0.002,0.041-0.084,0.127c-0.181,0.181-0.312,0.322-0.526,0.43
	C77.685,29.604,78.001,30.144,78.36,29.964z"/>
<rect id="_x3C_Slice_x3E__103_" y="54.667" fill="none" width="56" height="50.666"/>
<rect id="_x3C_Slice_x3E__102_" x="56" y="54.667" fill="none" width="52" height="50.666"/>
<rect id="_x3C_Slice_x3E__101_" fill="none" width="56" height="54.667"/>
<rect id="_x3C_Slice_x3E__100_" x="56" fill="none" width="52" height="54.667"/>
</svg>
