<?xml version="1.0" encoding="utf-8"?>
<!-- Generator: Adobe Illustrator 15.0.2, SVG Export Plug-In  -->
<!DOCTYPE svg PUBLIC "-//W3C//DTD SVG 1.1//EN" "http://www.w3.org/Graphics/SVG/1.1/DTD/svg11.dtd" [
	<!ENTITY ns_flows "http://ns.adobe.com/Flows/1.0/">
]>
<svg version="1.1"
	 xmlns="http://www.w3.org/2000/svg" xmlns:xlink="http://www.w3.org/1999/xlink" xmlns:a="http://ns.adobe.com/AdobeSVGViewerExtensions/3.0/"
	 x="0px" y="0px" width="60px" height="35px" viewBox="0 0.666 60 35" overflow="visible" enable-background="new 0 0.666 60 35"
	 xml:space="preserve">
<defs>
</defs>
<path d="M22.45,23.135c0,3.223,0,6.445,0,9.668c0,0.402,0.625,0.402,0.625,0c0-3.223,0-6.445,0-9.668
	C23.075,22.732,22.45,22.732,22.45,23.135L22.45,23.135z"/>
<path d="M29.316,31.248c-0.555-0.648-1.111-1.297-1.666-1.945c-0.382-0.445-0.764-0.891-1.146-1.336
	c-0.125-0.146-0.251-0.294-0.377-0.44c-0.285-0.333-0.15,0.282-0.083,0.205c1.276-1.458,2.552-2.917,3.828-4.376
	c0.175-0.199,0.065-0.533-0.221-0.533c-2.741,0-5.481,0-8.222,0c-0.403,0-0.403,0.625,0,0.625c2.741,0,5.481,0,8.222,0
	c-0.074-0.178-0.147-0.355-0.221-0.533c-1.296,1.481-2.593,2.963-3.889,4.445c-0.119,0.136-0.117,0.306,0,0.441
	c1.111,1.297,2.222,2.593,3.333,3.889C29.138,31.996,29.577,31.553,29.316,31.248L29.316,31.248z"/>
<polygon fill-rule="evenodd" clip-rule="evenodd" points="30.096,32.803 29.874,31.691 29.763,31.023 29.651,30.691 29.651,30.58 
	29.541,30.58 29.541,30.58 29.429,30.58 29.429,30.691 29.429,30.803 29.318,31.023 29.318,31.246 29.207,31.357 29.096,31.469 
	28.874,31.58 28.763,31.691 28.541,31.691 28.318,31.691 28.207,31.691 28.096,31.691 28.096,31.803 28.096,31.914 28.207,31.914 
	28.541,32.023 29.096,32.246 30.096,32.803 "/>
<path d="M30.397,32.72c-0.074-0.368-0.147-0.735-0.22-1.104c-0.038-0.188-0.063-0.382-0.096-0.571
	c-0.026-0.158-0.117-0.316-0.117-0.465c0-0.17-0.142-0.312-0.312-0.312c-0.074,0-0.148,0-0.222,0c-0.17,0-0.312,0.143-0.312,0.312
	c0,0.056,0,0.111,0,0.167c0-0.154-0.012,0.006-0.057,0.096c-0.066,0.132-0.054,0.26-0.054,0.403c0.03-0.074,0.061-0.147,0.092-0.221
	c-0.185,0.184-0.362,0.25-0.556,0.445c0.073-0.031,0.147-0.062,0.221-0.092c-0.223,0-0.444,0-0.667,0
	c-0.17,0-0.312,0.143-0.312,0.312c0,0.074,0,0.148,0,0.223c0,0.17,0.142,0.312,0.312,0.312c0.13,0,0.28,0.065,0.41,0.117
	c0.089,0.036,0.178,0.072,0.267,0.107c0.037,0.015,0.301,0.141,0.173,0.068c0.331,0.185,0.662,0.369,0.993,0.553
	c0.353,0.196,0.667-0.344,0.315-0.539c-0.614-0.342-1.423-0.932-2.158-0.932c0.104,0.104,0.208,0.209,0.312,0.312
	c0-0.074,0-0.148,0-0.223c-0.104,0.104-0.208,0.209-0.312,0.312c0.472,0,0.889,0.019,1.221-0.314
	c0.177-0.176,0.314-0.289,0.314-0.555c0-0.227-0.089,0.139-0.004-0.031c0.024-0.048,0.048-0.096,0.072-0.143
	c0.059-0.119,0.042-0.252,0.042-0.381c-0.104,0.104-0.208,0.209-0.312,0.312c0.074,0,0.148,0,0.222,0
	c-0.104-0.104-0.208-0.209-0.312-0.312c0,0.199,0.093,0.348,0.125,0.539c0.035,0.215,0.07,0.428,0.106,0.643
	c0.062,0.376,0.149,0.75,0.224,1.124C29.873,33.281,30.476,33.113,30.397,32.72z"/>
<path d="M28.763,22.447c0.688,0,1.375,0,2.062,0c0.581,0,0.069-0.197,0.069-0.219c0,0.229,0,0.458,0,0.688c0,1.684,0,3.368,0,5.053
	s0,3.369,0,5.053c0,0.83-0.104,0.469,0.208,0.469c-0.78,0-1.56,0-2.339,0c-0.403,0-0.403,0.625,0,0.625c0.814,0,1.63,0,2.444,0
	c0.17,0,0.312-0.143,0.312-0.312c0-3.889,0-7.779,0-11.668c0-0.17-0.142-0.312-0.312-0.312c-0.814,0-1.63,0-2.444,0
	C28.359,21.822,28.359,22.447,28.763,22.447L28.763,22.447z"/>
<polygon fill-rule="evenodd" clip-rule="evenodd" points="34.651,25.914 34.651,25.691 34.541,25.469 34.429,25.246 34.318,25.023 
	34.096,24.914 33.874,24.803 33.651,24.691 33.429,24.691 33.207,24.691 32.985,24.803 32.763,24.914 32.541,25.023 32.429,25.246 
	32.318,25.469 32.207,25.691 32.207,25.914 32.207,26.135 32.318,26.357 32.429,26.58 32.541,26.803 32.763,26.914 32.985,27.023 
	33.207,27.135 33.429,27.135 33.651,27.135 33.874,27.023 34.096,26.914 34.318,26.803 34.429,26.58 34.541,26.357 34.651,26.135 
	34.651,25.914 "/>
<path d="M34.964,25.914c0-0.826-0.708-1.535-1.535-1.535s-1.535,0.709-1.535,1.535s0.709,1.533,1.535,1.533
	S34.964,26.74,34.964,25.914c0-0.402-0.625-0.402-0.625,0c0,0.062,0,0.124,0,0.186c0-0.185-0.025,0.015-0.068,0.1
	c-0.068,0.137-0.137,0.273-0.205,0.411c0.067-0.134,0.004-0.032-0.093,0.017c-0.074,0.037-0.148,0.073-0.222,0.109
	c-0.074,0.037-0.148,0.074-0.222,0.111c0.167-0.084-0.011-0.025-0.099-0.025c-0.062,0-0.125,0-0.188,0
	c0.185,0-0.014-0.025-0.099-0.068c-0.136-0.068-0.273-0.135-0.41-0.203c0.134,0.066,0.032,0.004-0.017-0.094
	c-0.037-0.074-0.074-0.148-0.111-0.223s-0.074-0.148-0.111-0.223c0.083,0.167,0.025-0.01,0.025-0.098c0-0.062,0-0.125,0-0.188
	c0,0.185,0.026-0.015,0.068-0.1c0.068-0.137,0.137-0.274,0.205-0.411c-0.067,0.134-0.005,0.034,0.093-0.015
	c0.074-0.037,0.148-0.074,0.222-0.111s0.148-0.074,0.222-0.111c-0.167,0.084,0.011,0.025,0.099,0.025c0.062,0,0.125,0,0.188,0
	c-0.185,0,0.014,0.025,0.099,0.068c0.136,0.068,0.272,0.137,0.41,0.204c-0.133-0.065-0.033-0.006,0.017,0.093
	c0.037,0.074,0.074,0.148,0.111,0.223c0.037,0.074,0.074,0.148,0.111,0.223c-0.083-0.168-0.025,0.012-0.025,0.1
	C34.339,26.316,34.964,26.316,34.964,25.914z"/>
<polygon fill-rule="evenodd" clip-rule="evenodd" points="34.651,30.023 34.651,29.803 34.541,29.58 34.429,29.357 34.318,29.135 
	34.096,29.023 33.874,28.914 33.651,28.803 33.429,28.803 33.207,28.803 32.985,28.914 32.763,29.023 32.541,29.135 32.429,29.357 
	32.318,29.58 32.207,29.803 32.207,30.023 32.207,30.246 32.318,30.469 32.429,30.691 32.541,30.914 32.763,31.023 32.985,31.135 
	33.207,31.246 33.429,31.246 33.651,31.246 33.874,31.135 34.096,31.023 34.318,30.914 34.429,30.691 34.541,30.469 34.651,30.246 
	34.651,30.023 "/>
<path d="M34.964,30.023c0-0.826-0.709-1.533-1.535-1.533s-1.535,0.707-1.535,1.533s0.708,1.535,1.535,1.535
	S34.964,30.85,34.964,30.023c0-0.402-0.625-0.402-0.625,0c0,0.062,0,0.125,0,0.188c0-0.185-0.025,0.015-0.068,0.1
	c-0.068,0.137-0.137,0.273-0.205,0.411c0.067-0.134,0.005-0.034-0.093,0.015c-0.074,0.037-0.148,0.074-0.222,0.111
	s-0.148,0.074-0.222,0.111c0.167-0.084-0.011-0.025-0.099-0.025c-0.062,0-0.125,0-0.188,0c0.185,0-0.014-0.025-0.099-0.068
	c-0.136-0.068-0.272-0.137-0.41-0.204c0.133,0.065,0.033,0.006-0.017-0.093c-0.037-0.074-0.074-0.148-0.111-0.223
	s-0.074-0.148-0.111-0.223c0.083,0.167,0.025-0.012,0.025-0.1c0-0.062,0-0.124,0-0.186c0,0.185,0.026-0.015,0.068-0.1
	c0.068-0.137,0.137-0.274,0.205-0.411c-0.067,0.134-0.004,0.032,0.093-0.017c0.074-0.037,0.148-0.073,0.222-0.109
	c0.074-0.037,0.148-0.074,0.222-0.111c-0.167,0.084,0.011,0.025,0.099,0.025c0.062,0,0.125,0,0.188,0
	c-0.185,0,0.014,0.025,0.099,0.068c0.136,0.068,0.273,0.135,0.41,0.203c-0.134-0.066-0.032-0.004,0.017,0.094
	c0.037,0.074,0.074,0.148,0.111,0.223c0.037,0.074,0.074,0.148,0.111,0.223c-0.083-0.168-0.025,0.01-0.025,0.098
	C34.339,30.426,34.964,30.426,34.964,30.023z"/>
<rect id="_x3C_Slice_x3E__100_" fill="none" width="60" height="35.666"/>
</svg>
