<?xml version="1.0" encoding="utf-8"?>
<!-- Generator: Adobe Illustrator 15.0.2, SVG Export Plug-In  -->
<!DOCTYPE svg PUBLIC "-//W3C//DTD SVG 1.1//EN" "http://www.w3.org/Graphics/SVG/1.1/DTD/svg11.dtd" [
	<!ENTITY ns_flows "http://ns.adobe.com/Flows/1.0/">
]>
<svg version="1.1"
	 xmlns="http://www.w3.org/2000/svg" xmlns:xlink="http://www.w3.org/1999/xlink" xmlns:a="http://ns.adobe.com/AdobeSVGViewerExtensions/3.0/"
	 x="0px" y="0px" width="57px" height="57px" viewBox="47.667 0.667 57 57"
	 overflow="visible" enable-background="new 47.667 0.667 57 57" xml:space="preserve">
<defs>
</defs>
<path d="M77.872,24.452c0.688,0,1.375,0,2.062,0c0.582,0,0.07-0.197,0.07-0.219c0,0.229,0,0.458,0,0.688c0,1.684,0,3.368,0,5.052
	s0,3.369,0,5.052c0,0.83-0.105,0.469,0.207,0.469c-0.78,0-1.561,0-2.34,0c-0.403,0-0.403,0.625,0,0.625c0.814,0,1.63,0,2.445,0
	c0.17,0,0.312-0.143,0.312-0.312c0-3.889,0-7.778,0-11.667c0-0.17-0.143-0.312-0.312-0.312c-0.815,0-1.631,0-2.445,0
	C77.468,23.827,77.468,24.452,77.872,24.452L77.872,24.452z"/>
<path d="M75.506,35.167c-0.703-2.074-1.408-4.148-2.111-6.223c-0.101,0.132-0.201,0.264-0.301,0.396c1.444,0,2.889,0,4.334,0
	c-0.102-0.132-0.201-0.264-0.302-0.396c-0.741,2.074-1.481,4.148-2.223,6.223c-0.136,0.38,0.468,0.542,0.603,0.166
	c0.74-2.074,1.482-4.148,2.223-6.223c0.069-0.193-0.109-0.396-0.301-0.396c-1.445,0-2.89,0-4.334,0
	c-0.195,0-0.367,0.201-0.302,0.396c0.704,2.074,1.407,4.148,2.111,6.223C75.033,35.713,75.636,35.55,75.506,35.167L75.506,35.167z"
	/>
<polygon fill-rule="evenodd" clip-rule="evenodd" points="76.54,26.583 76.54,26.25 76.428,26.028 76.317,25.806 76.094,25.695 
	75.983,25.473 75.762,25.362 75.54,25.25 75.206,25.25 74.983,25.25 74.762,25.362 74.54,25.473 74.317,25.695 74.206,25.806 
	74.094,26.028 73.983,26.25 73.983,26.583 73.983,26.806 74.094,27.028 74.206,27.25 74.317,27.362 74.54,27.583 74.762,27.695 
	74.983,27.806 75.206,27.806 75.54,27.806 75.762,27.695 75.983,27.583 76.094,27.362 76.317,27.25 76.428,27.028 76.54,26.806 
	76.54,26.583 "/>
<path d="M76.852,26.583c0-0.395-0.098-0.908-0.489-1.103c-0.097-0.059-0.103-0.051-0.017,0.021
	c-0.031-0.062-0.062-0.125-0.094-0.188c-0.055-0.109-0.197-0.155-0.299-0.206c-0.225-0.113-0.377-0.171-0.631-0.171
	c-0.893,0-1.652,0.702-1.652,1.611c0,0.799,0.721,1.569,1.535,1.569c0.463,0,0.921-0.126,1.141-0.564
	c-0.086,0.073-0.08,0.08,0.017,0.021c0.061-0.03,0.126-0.055,0.175-0.104c0.075-0.075,0.113-0.193,0.16-0.286
	C76.805,26.969,76.852,26.826,76.852,26.583c0-0.403-0.625-0.403-0.625,0c0,0.062,0,0.125,0,0.188c0-0.185-0.026,0.014-0.069,0.1
	c-0.048,0.097-0.174,0.197-0.034,0.128c-0.082,0.041-0.184,0.075-0.251,0.142c-0.049,0.049-0.073,0.114-0.104,0.174
	c-0.059,0.097-0.051,0.102,0.021,0.017c-0.05,0.025-0.101,0.051-0.15,0.076c-0.074,0.037-0.148,0.074-0.223,0.111
	c0.178-0.089-0.086-0.025-0.177-0.025c-0.049,0-0.097,0-0.146,0c-0.107-0.007-0.103,0.001,0.012,0.025
	c-0.051-0.025-0.102-0.051-0.152-0.076c-0.177-0.089-0.252-0.138-0.393-0.279c-0.096-0.095-0.137-0.17-0.197-0.293
	c-0.043-0.086-0.068-0.284-0.068-0.1c0-0.074,0-0.148,0-0.222c0-0.088,0-0.176,0-0.264c0,0.185,0.025-0.015,0.068-0.1
	c0.074-0.149,0.135-0.232,0.252-0.348c0.113-0.113,0.188-0.148,0.338-0.224c0.051-0.025,0.102-0.051,0.152-0.076
	c-0.114,0.024-0.119,0.033-0.012,0.025c0.076,0,0.152,0,0.229,0c0.086,0,0.262,0.059,0.094-0.025
	c0.074,0.037,0.148,0.074,0.223,0.111c0.05,0.025,0.101,0.051,0.15,0.076c-0.072-0.085-0.08-0.08-0.021,0.017
	c0.041,0.083,0.079,0.179,0.168,0.223c0.062,0.031,0.125,0.062,0.188,0.093c-0.14-0.069-0.014,0.03,0.034,0.128
	c0.043,0.085,0.069,0.284,0.069,0.1c0,0.099,0,0.199,0,0.298C76.227,26.987,76.852,26.987,76.852,26.583z"/>
<rect id="_x3C_Slice_x3E__103_" y="57.333" fill="none" width="48" height="53.333"/>
<rect id="_x3C_Slice_x3E__102_" x="48" y="57.333" fill="none" width="57.333" height="53.333"/>
<rect id="_x3C_Slice_x3E__101_" fill="none" width="48" height="57.333"/>
<rect id="_x3C_Slice_x3E__100_" x="48" fill="none" width="57.333" height="57.333"/>
</svg>
