<?xml version="1.0" encoding="utf-8"?>
<!-- Generator: Adobe Illustrator 15.0.2, SVG Export Plug-In  -->
<!DOCTYPE svg PUBLIC "-//W3C//DTD SVG 1.1//EN" "http://www.w3.org/Graphics/SVG/1.1/DTD/svg11.dtd" [
	<!ENTITY ns_flows "http://ns.adobe.com/Flows/1.0/">
]>
<svg version="1.1"
	 xmlns="http://www.w3.org/2000/svg" xmlns:xlink="http://www.w3.org/1999/xlink" xmlns:a="http://ns.adobe.com/AdobeSVGViewerExtensions/3.0/"
	 x="0px" y="0px" width="52px" height="57px" viewBox="55.666 0.667 52 57"
	 overflow="visible" enable-background="new 55.666 0.667 52 57" xml:space="preserve">
<defs>
</defs>
<path d="M82.537,32.938c-3.519,0-7.037,0-10.555,0c-0.403,0-0.403,0.625,0,0.625c3.518,0,7.036,0,10.555,0
	C82.939,33.563,82.939,32.938,82.537,32.938L82.537,32.938z"/>
<path d="M82.537,29.605c-3.519,0-7.037,0-10.555,0c-0.403,0-0.403,0.625,0,0.625c3.518,0,7.036,0,10.555,0
	C82.939,30.23,82.939,29.605,82.537,29.605L82.537,29.605z"/>
<path d="M82.537,26.382c-3.519,0-7.037,0-10.555,0c-0.403,0-0.403,0.625,0,0.625c3.518,0,7.036,0,10.555,0
	C82.939,27.007,82.939,26.382,82.537,26.382L82.537,26.382z"/>
<path d="M82.98,24.452c0.688,0,1.375,0,2.062,0c0.582,0,0.07-0.197,0.07-0.219c0,0.229,0,0.458,0,0.688c0,1.684,0,3.368,0,5.052
	s0,3.369,0,5.052c0,0.83-0.105,0.469,0.207,0.469c-0.78,0-1.561,0-2.34,0c-0.403,0-0.403,0.625,0,0.625c0.814,0,1.63,0,2.445,0
	c0.17,0,0.312-0.143,0.312-0.312c0-3.889,0-7.778,0-11.667c0-0.17-0.143-0.312-0.312-0.312c-0.815,0-1.631,0-2.445,0
	C82.577,23.827,82.577,24.452,82.98,24.452L82.98,24.452z"/>
<rect id="_x3C_Slice_x3E__103_" y="57.333" fill="none" width="56" height="53.333"/>
<rect id="_x3C_Slice_x3E__102_" x="56" y="57.333" fill="none" width="52" height="53.333"/>
<rect id="_x3C_Slice_x3E__101_" fill="none" width="56" height="57.333"/>
<rect id="_x3C_Slice_x3E__100_" x="56" fill="none" width="52" height="57.333"/>
</svg>
