<?xml version="1.0" encoding="utf-8"?>
<!-- Generator: Adobe Illustrator 15.0.2, SVG Export Plug-In  -->
<!DOCTYPE svg PUBLIC "-//W3C//DTD SVG 1.1//EN" "http://www.w3.org/Graphics/SVG/1.1/DTD/svg11.dtd" [
	<!ENTITY ns_flows "http://ns.adobe.com/Flows/1.0/">
]>
<svg version="1.1"
	 xmlns="http://www.w3.org/2000/svg" xmlns:xlink="http://www.w3.org/1999/xlink" xmlns:a="http://ns.adobe.com/AdobeSVGViewerExtensions/3.0/"
	 x="0px" y="0px" width="32px" height="35px" viewBox="51.666 0.666 32 35"
	 overflow="visible" enable-background="new 51.666 0.666 32 35" xml:space="preserve">
<defs>
</defs>
<path d="M73.668,25.135c0,3.223,0,6.445,0,9.668c0,0.402,0.625,0.402,0.625,0c0-3.223,0-6.445,0-9.668
	C74.293,24.732,73.668,24.732,73.668,25.135L73.668,25.135z"/>
<path d="M78.312,33.801c0.703-0.852,1.407-1.704,2.111-2.557c0.1-0.12,0.141-0.326,0-0.441c-0.5-0.408-1-0.814-1.5-1.223
	c-0.374-0.304-0.748-0.608-1.121-0.912c-0.534-0.436-0.191-0.049-0.297,0.053c1.158-1.121,2.314-2.243,3.473-3.365
	c0.197-0.191,0.049-0.533-0.221-0.533c-2.703,0-5.406,0-8.109,0c-0.403,0-0.403,0.625,0,0.625c2.703,0,5.406,0,8.109,0
	c-0.074-0.178-0.148-0.355-0.222-0.533c-1.185,1.148-2.37,2.297-3.555,3.445c-0.112,0.109-0.13,0.335,0,0.441
	c0.966,0.787,1.932,1.573,2.897,2.359c0.063,0.053,0.248-0.533-0.117-0.092c-0.243,0.295-0.486,0.59-0.73,0.885
	c-0.387,0.469-0.773,0.938-1.161,1.406C77.615,33.668,78.055,34.112,78.312,33.801L78.312,33.801z"/>
<path d="M76.378,20.977c-0.63,1.148-1.261,2.297-1.891,3.445c-0.112,0.207,0.028,0.471,0.271,0.471c1.297,0,2.594,0,3.891,0
	c0.236,0,0.389-0.266,0.27-0.471c-0.667-1.148-1.334-2.297-2-3.445c-0.203-0.348-0.742-0.033-0.54,0.316
	c0.667,1.148,1.333,2.297,2,3.445c0.091-0.157,0.181-0.314,0.271-0.471c-1.297,0-2.594,0-3.891,0c0.09,0.156,0.18,0.313,0.27,0.471
	c0.63-1.148,1.26-2.297,1.891-3.445C77.111,20.939,76.572,20.623,76.378,20.977L76.378,20.977z"/>
<path d="M77.249,35.072c0.22-0.109,0.438-0.22,0.658-0.33c0.034-0.017,0.304-0.143,0.169-0.088c0.146-0.06,0.295-0.119,0.441-0.178
	c0.197-0.078,0.449-0.109,0.602-0.262c0.25-0.249,0.209-0.506-0.029-0.744c-0.121-0.121-0.322-0.121-0.442,0
	c-0.037,0.037-0.074,0.074-0.111,0.111c0.126-0.017,0.253-0.033,0.379-0.049c-0.253-0.127-0.431-0.154-0.712-0.154
	c0.073,0.03,0.146,0.061,0.221,0.092c-0.064-0.064-0.129-0.129-0.193-0.193c-0.035-0.035-0.049-0.26-0.049-0.087
	c0-0.112-0.033-0.193-0.082-0.291c-0.047-0.093-0.029-0.177-0.029-0.041c0-0.056,0-0.111,0-0.167c0-0.17-0.143-0.312-0.312-0.312
	c-0.074,0-0.147,0-0.221,0c-0.171,0-0.312,0.143-0.312,0.312c0,0.115-0.084,0.26-0.107,0.402c-0.035,0.205-0.068,0.41-0.103,0.615
	c-0.057,0.338-0.149,0.675-0.225,1.011c-0.087,0.393,0.515,0.56,0.603,0.166c0.077-0.347,0.172-0.692,0.23-1.042
	c0.033-0.205,0.067-0.41,0.102-0.615c0.032-0.19,0.125-0.338,0.125-0.537c-0.104,0.104-0.209,0.209-0.312,0.312
	c0.073,0,0.146,0,0.221,0c-0.104-0.104-0.209-0.209-0.312-0.312c0,0.203,0.022,0.342,0.114,0.523
	c0.038,0.08,0.038,0.072-0.003-0.024c0,0.078,0.006,0.142,0.042,0.214c0.037,0.074,0.074,0.148,0.111,0.223
	c0.073,0.146,0.327,0.377,0.493,0.377c0.092,0,0.186,0,0.277,0c-0.157,0,0.029,0.023,0.119,0.068
	c0.127,0.064,0.275,0.055,0.379-0.049c0.037-0.037,0.074-0.074,0.111-0.111c-0.147,0-0.295,0-0.442,0
	c0.037,0.037,0.074,0.074,0.111,0.111c-0.03-0.073-0.062-0.146-0.091-0.221c0,0.037,0,0.072,0,0.109
	c0.029-0.074,0.061-0.147,0.091-0.221c-0.153,0.153,0.056,0.021-0.039,0.053c-0.089,0.029-0.177,0.06-0.267,0.09
	c-0.184,0.061-0.363,0.145-0.543,0.217c-0.336,0.135-0.654,0.32-0.977,0.482C76.573,34.713,76.89,35.252,77.249,35.072z"/>
<rect id="_x3C_Slice_x3E__101_" fill="none" width="52" height="35.666"/>
<rect id="_x3C_Slice_x3E__100_" x="52" fill="none" width="31.666" height="35.666"/>
</svg>
