<?xml version="1.0" encoding="utf-8"?>
<!-- Generator: Adobe Illustrator 15.0.2, SVG Export Plug-In  -->
<!DOCTYPE svg PUBLIC "-//W3C//DTD SVG 1.1//EN" "http://www.w3.org/Graphics/SVG/1.1/DTD/svg11.dtd" [
	<!ENTITY ns_flows "http://ns.adobe.com/Flows/1.0/">
]>
<svg version="1.1"
	 xmlns="http://www.w3.org/2000/svg" xmlns:xlink="http://www.w3.org/1999/xlink" xmlns:a="http://ns.adobe.com/AdobeSVGViewerExtensions/3.0/"
	 x="0px" y="0px" width="55px" height="35px" viewBox="56.666 0 55 35" overflow="visible" enable-background="new 56.666 0 55 35"
	 xml:space="preserve">
<defs>
</defs>
<path d="M80.379,12.077c0.818,0.612,2.416,1.59,3.38,0.618c1.181-1.192,1.909-2.149,1.302-3.97c-0.578-1.732-4.32-2.46-4.32-4.195
	c0-1.905,2.307-3.293,3.526-1.453c0.222,0.334,0.763,0.021,0.54-0.315c-2.003-3.022-6.497,0.602-3.879,3.212
	c1.275,1.271,5.27,2.836,3.396,5.344c-1.062,1.42-2.321,1.199-3.629,0.221C80.371,11.296,80.061,11.839,80.379,12.077L80.379,12.077
	z"/>
<rect id="_x3C_Slice_x3E__103_" y="34.667" fill="none" width="57.333" height="50.667"/>
<rect id="_x3C_Slice_x3E__102_" x="57.333" y="34.667" fill="none" width="54.667" height="50.667"/>
<rect id="_x3C_Slice_x3E__101_" fill="none" width="57.333" height="34.667"/>
<rect id="_x3C_Slice_x3E__100_" x="57.333" fill="none" width="54.667" height="34.667"/>
</svg>
