<?xml version="1.0" encoding="utf-8"?>
<!-- Generator: Adobe Illustrator 15.0.2, SVG Export Plug-In  -->
<!DOCTYPE svg PUBLIC "-//W3C//DTD SVG 1.1//EN" "http://www.w3.org/Graphics/SVG/1.1/DTD/svg11.dtd" [
	<!ENTITY ns_flows "http://ns.adobe.com/Flows/1.0/">
]>
<svg version="1.1"
	 xmlns="http://www.w3.org/2000/svg" xmlns:xlink="http://www.w3.org/1999/xlink" xmlns:a="http://ns.adobe.com/AdobeSVGViewerExtensions/3.0/"
	 x="0px" y="0px" width="35px" height="55px" viewBox="0.09 0 35 55" overflow="visible" enable-background="new 0.09 0 35 55"
	 xml:space="preserve">
<defs>
</defs>
<path d="M1.901,32.536c-1.551-3.102-1.837-7.402,0-10.462c0.208-0.347-0.333-0.661-0.54-0.315c-1.964,3.273-1.659,7.775,0,11.093
	C1.542,33.212,2.081,32.896,1.901,32.536L1.901,32.536z"/>
<path d="M12.409,30.271c-3.519,0-7.037,0-10.556,0c-0.403,0-0.403,0.625,0,0.625c3.519,0,7.037,0,10.556,0
	C12.812,30.896,12.812,30.271,12.409,30.271L12.409,30.271z"/>
<path d="M12.409,27.048c-3.519,0-7.037,0-10.556,0c-0.403,0-0.403,0.625,0,0.625c3.519,0,7.037,0,10.556,0
	C12.812,27.673,12.812,27.048,12.409,27.048L12.409,27.048z"/>
<path d="M12.409,23.715c-3.519,0-7.037,0-10.556,0c-0.403,0-0.403,0.625,0,0.625c3.519,0,7.037,0,10.556,0
	C12.812,24.34,12.812,23.715,12.409,23.715L12.409,23.715z"/>
<path d="M12.901,32.852c1.75-3.506,1.752-7.586,0-11.093c-0.181-0.361-0.72-0.044-0.54,0.315c1.638,3.278,1.637,7.184,0,10.462
	C12.182,32.896,12.721,33.212,12.901,32.852L12.901,32.852z"/>
<rect id="_x3C_Slice_x3E__101_" x="0.09" y="54.667" fill="none" width="35" height="54.667"/>
<rect id="_x3C_Slice_x3E__100_" x="0.09" fill="none" width="35" height="54.667"/>
</svg>
