<?xml version="1.0" encoding="utf-8"?>
<!-- Generator: Adobe Illustrator 15.0.2, SVG Export Plug-In  -->
<!DOCTYPE svg PUBLIC "-//W3C//DTD SVG 1.1//EN" "http://www.w3.org/Graphics/SVG/1.1/DTD/svg11.dtd" [
	<!ENTITY ns_flows "http://ns.adobe.com/Flows/1.0/">
]>
<svg version="1.1"
	 xmlns="http://www.w3.org/2000/svg" xmlns:xlink="http://www.w3.org/1999/xlink" xmlns:a="http://ns.adobe.com/AdobeSVGViewerExtensions/3.0/"
	 x="0px" y="0px" width="52px" height="58px" viewBox="89.127 0 52 58" overflow="visible" enable-background="new 89.127 0 52 58"
	 xml:space="preserve">
<defs>
</defs>
<path d="M8.332,29.248H0 M63.221,29.582H53.109 M58.221,27.471l-2.223,3.666h4.334L58.221,27.471 M117.221,29.248h-10.111
	 M112.887,30.693l-1.443-2.779 M112.887,27.914l-1.443,2.779"/>
<path d="M117.221,28.936c-3.371,0-6.741,0-10.111,0c-0.403,0-0.403,0.625,0,0.625c3.37,0,6.74,0,10.111,0
	C117.623,29.561,117.623,28.936,117.221,28.936L117.221,28.936z"/>
<path d="M113.156,30.535c-0.481-0.926-0.963-1.853-1.443-2.779c-0.186-0.357-0.725-0.041-0.54,0.316
	c0.481,0.926,0.962,1.853,1.443,2.779C112.803,31.209,113.342,30.893,113.156,30.535L113.156,30.535z"/>
<path d="M112.616,27.756c-0.481,0.927-0.962,1.854-1.443,2.779c-0.185,0.357,0.354,0.674,0.54,0.316
	c0.48-0.927,0.962-1.854,1.443-2.779C113.342,27.715,112.803,27.398,112.616,27.756L112.616,27.756z"/>
<rect id="_x3C_Slice_x3E__103_" x="33.461" y="57.334" fill="none" width="56" height="52"/>
<rect id="_x3C_Slice_x3E__102_" x="89.461" y="57.334" fill="none" width="52" height="52"/>
<rect id="_x3C_Slice_x3E__101_" x="33.461" fill="none" width="56" height="57.334"/>
<rect id="_x3C_Slice_x3E__100_" x="89.461" fill="none" width="52" height="57.334"/>
</svg>
