<?xml version="1.0" encoding="utf-8"?>
<!-- Generator: Adobe Illustrator 15.0.2, SVG Export Plug-In  -->
<!DOCTYPE svg PUBLIC "-//W3C//DTD SVG 1.1//EN" "http://www.w3.org/Graphics/SVG/1.1/DTD/svg11.dtd" [
	<!ENTITY ns_flows "http://ns.adobe.com/Flows/1.0/">
]>
<svg version="1.1"
	 xmlns="http://www.w3.org/2000/svg" xmlns:xlink="http://www.w3.org/1999/xlink" xmlns:a="http://ns.adobe.com/AdobeSVGViewerExtensions/3.0/"
	 x="0px" y="0px" width="53px" height="53px" viewBox="0 0.333 53 53" overflow="visible" enable-background="new 0 0.333 53 53"
	 xml:space="preserve">
<defs>
</defs>
<path d="M19.097,31.137c2.214,2.217,5.813-0.277,4.38-3.157c-0.864-1.734-3.381-2.053-3.969-3.813
	c-0.619-1.855,2.304-2.948,3.317-1.426c0.223,0.333,0.764,0.021,0.54-0.315c-1.889-2.836-6.281,0.592-3.769,3.101
	c1.325,1.323,4.035,1.849,3.419,4.307c-0.429,1.714-2.279,2.062-3.477,0.862C19.254,30.41,18.812,30.852,19.097,31.137
	L19.097,31.137z"/>
<path d="M24.873,25.159c-2.741,0-5.481,0-8.222,0c-0.403,0-0.403,0.625,0,0.625c2.741,0,5.481,0,8.222,0
	C25.276,25.784,25.276,25.159,24.873,25.159L24.873,25.159z"/>
<path d="M24.873,26.493c-2.741,0-5.481,0-8.222,0c-0.403,0-0.403,0.625,0,0.625c2.741,0,5.481,0,8.222,0
	C25.276,27.118,25.276,26.493,24.873,26.493L24.873,26.493z"/>
<path d="M24.475,27.409c0.592-0.333,1.185-0.667,1.778-1c0.203-0.114,0.203-0.425,0-0.54c-0.593-0.333-1.186-0.667-1.778-1
	c-0.352-0.198-0.667,0.342-0.315,0.54c0.592,0.333,1.185,0.667,1.778,1c0-0.18,0-0.36,0-0.54c-0.593,0.333-1.186,0.667-1.778,1
	C23.809,27.066,24.123,27.606,24.475,27.409L24.475,27.409z"/>
<path d="M27.116,21.25c0,3.592,0,7.185,0,10.777c0,0.403,0.625,0.403,0.625,0c0-3.592,0-7.185,0-10.777
	C27.741,20.847,27.116,20.847,27.116,21.25L27.116,21.25z"/>
<rect id="_x3C_Slice_x3E__100_" fill="none" width="53.333" height="53.333"/>
</svg>
