<?xml version="1.0" encoding="utf-8"?>
<!-- Generator: Adobe Illustrator 15.0.2, SVG Export Plug-In  -->
<!DOCTYPE svg PUBLIC "-//W3C//DTD SVG 1.1//EN" "http://www.w3.org/Graphics/SVG/1.1/DTD/svg11.dtd" [
	<!ENTITY ns_flows "http://ns.adobe.com/Flows/1.0/">
]>
<svg version="1.1"
	 xmlns="http://www.w3.org/2000/svg" xmlns:xlink="http://www.w3.org/1999/xlink" xmlns:a="http://ns.adobe.com/AdobeSVGViewerExtensions/3.0/"
	 x="0px" y="0px" width="52px" height="50px" viewBox="0 0.666 52 50" overflow="visible" enable-background="new 0 0.666 52 50"
	 xml:space="preserve">
<defs>
</defs>
<polygon fill-rule="evenodd" clip-rule="evenodd" points="25.43,26.025 25.43,25.693 25.43,25.471 25.208,25.248 25.097,25.137 
	24.874,24.914 24.652,24.805 24.43,24.693 24.208,24.693 23.985,24.693 23.763,24.805 23.541,24.914 23.319,25.137 23.208,25.248 
	23.097,25.471 22.985,25.693 22.985,26.025 22.985,26.248 23.097,26.471 23.208,26.693 23.319,26.805 23.541,27.025 23.763,27.137 
	23.985,27.248 24.208,27.248 24.43,27.248 24.652,27.137 24.874,27.025 25.097,26.805 25.208,26.693 25.43,26.471 25.43,26.248 
	25.43,26.025 "/>
<path d="M25.742,26.025c0-0.186,0-0.369,0-0.555c0-0.217-0.256-0.386-0.396-0.525c-0.306-0.308-0.656-0.564-1.104-0.564
	c-0.861,0-1.569,0.766-1.569,1.609c0,0.801,0.72,1.57,1.535,1.57c0.434,0,0.784-0.211,1.087-0.512
	c0.13-0.129,0.312-0.262,0.405-0.42C25.791,26.473,25.742,26.201,25.742,26.025c0-0.402-0.625-0.402-0.625,0c0,0.137,0,0.273,0,0.41
	c0-0.186,0.11-0.204-0.053-0.041c-0.053,0.053-0.106,0.106-0.16,0.16c-0.103,0.104-0.189,0.201-0.299,0.256
	c-0.074,0.037-0.148,0.074-0.223,0.111c-0.142,0.072,0.109,0.014-0.141,0.014c-0.049,0-0.097,0-0.146,0
	c-0.106-0.007-0.103,0.002,0.012,0.025c-0.051-0.025-0.102-0.051-0.153-0.076c-0.177-0.089-0.251-0.138-0.393-0.278
	c-0.095-0.095-0.135-0.171-0.197-0.294c-0.042-0.085-0.068-0.284-0.068-0.1c0-0.074,0-0.148,0-0.223c0-0.087,0-0.175,0-0.262
	c0,0.185,0.026-0.015,0.068-0.1c0.062-0.123,0.102-0.199,0.197-0.295c0.134-0.135,0.192-0.178,0.358-0.26
	c0.085-0.042,0.284-0.068,0.099-0.068c0.074,0,0.148,0,0.222,0c0.087,0,0.224,0.055,0.064-0.025
	c0.074,0.037,0.148,0.074,0.222,0.111c0.16,0.078,0.24,0.158,0.375,0.295c0.035,0.035,0.07,0.07,0.105,0.105
	c0.04,0.041,0.081,0.08,0.121,0.121c0.088,0.103,0.084,0.066-0.014-0.107c0,0.173,0,0.346,0,0.52
	C25.117,26.428,25.742,26.428,25.742,26.025z"/>
<polygon fill-rule="evenodd" clip-rule="evenodd" points="29.097,26.025 29.097,25.693 28.985,25.471 28.874,25.248 28.763,25.137 
	28.541,24.914 28.319,24.805 28.097,24.693 27.874,24.693 27.652,24.693 27.43,24.805 27.208,24.914 26.985,25.137 26.874,25.248 
	26.652,25.471 26.652,25.693 26.652,26.025 26.652,26.248 26.652,26.471 26.874,26.693 26.985,26.805 27.208,27.025 27.43,27.137 
	27.652,27.248 27.874,27.248 28.097,27.248 28.319,27.137 28.541,27.025 28.763,26.805 28.874,26.693 28.985,26.471 29.097,26.248 
	29.097,26.025 "/>
<path d="M29.409,26.025c0-0.829-0.662-1.645-1.535-1.645c-0.434,0-0.785,0.21-1.086,0.512c-0.13,0.131-0.312,0.262-0.406,0.42
	c-0.099,0.17-0.042,0.49-0.042,0.678c0,0.16,0,0.32,0,0.48c0,0.217,0.256,0.387,0.396,0.525c0.306,0.307,0.656,0.564,1.104,0.564
	C28.64,27.561,29.409,26.84,29.409,26.025c0-0.402-0.625-0.402-0.625,0c0,0.062,0,0.125,0,0.188c0-0.185-0.026,0.015-0.068,0.1
	c-0.062,0.123-0.102,0.2-0.197,0.294c-0.134,0.134-0.194,0.179-0.358,0.261c-0.085,0.043-0.284,0.068-0.099,0.068
	c-0.074,0-0.148,0-0.223,0c-0.087,0-0.224-0.055-0.064,0.025c-0.074-0.037-0.148-0.074-0.222-0.111
	c-0.158-0.08-0.24-0.16-0.375-0.295c-0.035-0.035-0.071-0.07-0.106-0.105c-0.041-0.041-0.081-0.08-0.121-0.121
	c-0.089-0.103-0.084-0.066,0.013,0.107c0-0.148,0-0.297,0-0.445c0-0.161,0-0.322,0-0.484c0,0.186-0.11,0.204,0.052,0.041
	c0.054-0.053,0.107-0.107,0.161-0.16c0.103-0.104,0.188-0.203,0.299-0.258c0.074-0.036,0.148-0.073,0.222-0.109
	c0.143-0.072-0.108-0.014,0.141-0.014c0.048,0,0.097,0,0.146,0c0.106,0.007,0.103-0.002-0.012-0.025
	c0.051,0.025,0.102,0.051,0.153,0.076c0.178,0.09,0.25,0.136,0.393,0.277c0.094,0.096,0.135,0.172,0.197,0.295
	c0.042,0.085,0.068,0.284,0.068,0.1c0,0.099,0,0.197,0,0.297C28.784,26.428,29.409,26.428,29.409,26.025z"/>
<rect id="_x3C_Slice_x3E__100_" fill="none" width="52" height="50.666"/>
</svg>
