<?xml version="1.0" encoding="utf-8"?>
<!-- Generator: Adobe Illustrator 15.0.2, SVG Export Plug-In  -->
<!DOCTYPE svg PUBLIC "-//W3C//DTD SVG 1.1//EN" "http://www.w3.org/Graphics/SVG/1.1/DTD/svg11.dtd" [
	<!ENTITY ns_flows "http://ns.adobe.com/Flows/1.0/">
]>
<svg version="1.1"
	 xmlns="http://www.w3.org/2000/svg" xmlns:xlink="http://www.w3.org/1999/xlink" xmlns:a="http://ns.adobe.com/AdobeSVGViewerExtensions/3.0/"
	 x="0px" y="0px" width="32px" height="50px" viewBox="51.666 0.666 32 50"
	 overflow="visible" enable-background="new 51.666 0.666 32 50" xml:space="preserve">
<defs>
</defs>
<polygon fill-rule="evenodd" clip-rule="evenodd" points="77.203,30.137 77.203,29.914 77.092,29.693 76.869,29.582 76.758,29.582 
	76.537,29.582 76.314,29.693 76.203,29.914 76.203,30.137 76.203,30.248 76.314,30.471 76.537,30.582 76.758,30.582 76.869,30.582 
	77.092,30.471 77.203,30.248 77.203,30.137 "/>
<path d="M77.516,30.137c0-0.233-0.045-0.385-0.15-0.592c-0.096-0.189-0.419-0.275-0.607-0.275c-0.098,0-0.21-0.015-0.305,0.012
	c-0.099,0.027-0.196,0.092-0.287,0.138c-0.202,0.101-0.275,0.433-0.275,0.63c0,0.221,0.051,0.373,0.148,0.57
	c0.102,0.201,0.434,0.275,0.631,0.275C77.134,30.895,77.516,30.636,77.516,30.137c0-0.402-0.625-0.402-0.625,0
	c0,0.222,0.088-0.137,0.007,0.023c-0.02,0.039-0.039,0.079-0.059,0.118c-0.052,0.104,0.165-0.112,0.06-0.06
	c-0.039,0.02-0.078,0.039-0.117,0.059c-0.105,0.053-0.059-0.008,0.07-0.008c-0.061,0-0.121,0-0.182,0c-0.04,0-0.08,0-0.121,0
	c0.135,0,0.182,0.061,0.075,0.008c-0.039-0.02-0.079-0.039-0.118-0.059c-0.104-0.053,0.113,0.164,0.061,0.06
	c-0.02-0.039-0.039-0.079-0.059-0.118c-0.053-0.104,0.008-0.059,0.008,0.07c0-0.061,0-0.121,0-0.182c0-0.041,0-0.082,0-0.123
	c0,0.135-0.061,0.182-0.008,0.076c0.02-0.039,0.039-0.078,0.059-0.116c0.053-0.104-0.164,0.112-0.061,0.06
	c0.039-0.02,0.079-0.039,0.118-0.059c0.106-0.053,0.06,0.008-0.075,0.008c0.069,0,0.139,0,0.209,0c0.221,0-0.137-0.088,0.023-0.008
	c0.039,0.02,0.078,0.039,0.117,0.059c0.105,0.053-0.112-0.164-0.06-0.06c0.02,0.038,0.039,0.077,0.059,0.116
	c0.054,0.105-0.007,0.059-0.007-0.076c0,0.07,0,0.141,0,0.211C76.891,30.539,77.516,30.539,77.516,30.137z"/>
<path d="M78.203,30.137h-3 M77.426,28.805l-1.445,2.666 M77.426,31.471l-1.445-2.666"/>
<path d="M78.203,29.824c-1,0-2,0-3,0c-0.403,0-0.403,0.625,0,0.625c1,0,2,0,3,0C78.605,30.449,78.605,29.824,78.203,29.824
	L78.203,29.824z"/>
<path d="M77.155,28.646c-0.481,0.889-0.964,1.777-1.445,2.666c-0.192,0.355,0.348,0.67,0.54,0.316
	c0.481-0.889,0.963-1.777,1.445-2.666C77.887,28.607,77.348,28.293,77.155,28.646L77.155,28.646z"/>
<path d="M77.695,31.312c-0.482-0.889-0.964-1.777-1.445-2.666c-0.192-0.354-0.732-0.039-0.54,0.316
	c0.481,0.889,0.964,1.777,1.445,2.666C77.348,31.982,77.887,31.668,77.695,31.312L77.695,31.312z"/>
<polygon fill-rule="evenodd" clip-rule="evenodd" points="77.98,26.025 77.98,25.693 77.869,25.471 77.758,25.248 77.537,25.137 
	77.426,24.914 77.203,24.805 76.98,24.693 76.758,24.693 76.426,24.693 76.203,24.805 75.98,24.914 75.869,25.137 75.648,25.248 
	75.537,25.471 75.426,25.693 75.426,26.025 75.426,26.248 75.537,26.471 75.648,26.693 75.869,26.805 75.98,27.025 76.203,27.137 
	76.426,27.248 76.758,27.248 76.98,27.248 77.203,27.137 77.426,27.025 77.537,26.805 77.758,26.693 77.869,26.471 77.98,26.248 
	77.98,26.025 "/>
<path d="M78.293,26.025c0-0.461-0.127-0.921-0.564-1.141c0.152,0.076-0.018-0.127-0.082-0.191c-0.075-0.076-0.193-0.113-0.286-0.158
	c-0.218-0.107-0.36-0.154-0.603-0.154c-0.461,0-0.923,0.126-1.142,0.563c0.085-0.073,0.081-0.08-0.016-0.022
	c-0.06,0.031-0.125,0.057-0.174,0.105c-0.075,0.075-0.113,0.192-0.16,0.285c-0.122,0.246-0.153,0.403-0.153,0.678
	c0,0.434,0.163,0.865,0.562,1.066c-0.072-0.085-0.08-0.08-0.021,0.016c0.031,0.061,0.057,0.125,0.104,0.174
	c0.075,0.076,0.192,0.113,0.286,0.16c0.246,0.123,0.402,0.154,0.678,0.154c0.434,0,0.865-0.164,1.066-0.563
	c-0.086,0.073-0.08,0.08,0.016,0.022c0.061-0.031,0.125-0.057,0.174-0.105c0.075-0.075,0.113-0.192,0.16-0.285
	C78.247,26.412,78.293,26.268,78.293,26.025c0-0.402-0.625-0.402-0.625,0c0,0.062,0,0.125,0,0.188c0-0.185-0.026,0.015-0.069,0.1
	c-0.048,0.097-0.175,0.199-0.034,0.129c-0.082,0.041-0.182,0.076-0.249,0.143c-0.066,0.066-0.101,0.167-0.143,0.249
	c0.071-0.141-0.032-0.015-0.128,0.034c-0.086,0.043-0.285,0.068-0.1,0.068c-0.074,0-0.148,0-0.223,0c-0.088,0-0.176,0-0.263,0
	c0.185,0-0.015-0.025-0.1-0.068c-0.097-0.049-0.198-0.175-0.128-0.034c-0.041-0.082-0.076-0.183-0.143-0.249
	s-0.168-0.102-0.25-0.143c0.141,0.07,0.015-0.032-0.033-0.129c-0.043-0.085-0.068-0.284-0.068-0.1c0-0.074,0-0.148,0-0.223
	c0-0.087,0-0.175,0-0.262c0,0.185,0.025-0.015,0.068-0.1c0.048-0.097,0.174-0.199,0.033-0.129c0.082-0.041,0.184-0.076,0.25-0.143
	s0.102-0.168,0.143-0.251c-0.07,0.14,0.03,0.017,0.128-0.032c0.085-0.041,0.284-0.068,0.1-0.068c0.099,0,0.198,0,0.298,0
	c0.062,0,0.125,0,0.188,0c-0.186,0,0.014,0.025,0.1,0.068c0.098,0.049,0.197,0.172,0.128,0.032c0.042,0.083,0.076,0.185,0.143,0.251
	c0.067,0.066,0.167,0.102,0.249,0.143c-0.141-0.07-0.014,0.032,0.034,0.129c0.043,0.085,0.069,0.284,0.069,0.1
	c0,0.099,0,0.197,0,0.297C77.668,26.428,78.293,26.428,78.293,26.025z"/>
<polygon fill-rule="evenodd" clip-rule="evenodd" points="77.203,21.805 77.203,21.693 77.092,21.471 76.869,21.359 76.758,21.359 
	76.537,21.359 76.314,21.471 76.203,21.693 76.203,21.805 76.203,22.025 76.314,22.248 76.537,22.359 76.758,22.359 76.869,22.359 
	77.092,22.248 77.203,22.025 77.203,21.805 "/>
<path d="M77.516,21.805c0-0.499-0.382-0.758-0.846-0.758c-0.188,0-0.528,0.07-0.626,0.266c-0.101,0.201-0.153,0.354-0.153,0.579
	c0,0.188,0.07,0.528,0.266,0.626c0.074,0.037,0.148,0.074,0.223,0.111c0.117,0.059,0.251,0.043,0.379,0.043
	c0.18,0,0.512-0.082,0.604-0.266c0.037-0.074,0.074-0.148,0.111-0.223C77.531,22.065,77.516,21.932,77.516,21.805
	c0-0.402-0.625-0.402-0.625,0c0,0.069,0,0.139,0,0.209c0-0.135,0.061-0.182,0.007-0.076c-0.02,0.039-0.039,0.079-0.059,0.118
	c-0.052,0.104,0.165-0.112,0.06-0.06c-0.039,0.02-0.078,0.039-0.117,0.059c-0.16,0.08,0.197-0.008-0.023-0.008
	c-0.07,0-0.14,0-0.209,0c0.135,0,0.182,0.061,0.075,0.008c-0.039-0.02-0.079-0.039-0.118-0.059c-0.104-0.053,0.113,0.164,0.061,0.06
	c-0.02-0.039-0.039-0.079-0.059-0.118c-0.053-0.105,0.008-0.059,0.008,0.076c0-0.041,0-0.082,0-0.122c0-0.061,0-0.12,0-0.181
	c0,0.129-0.061,0.175-0.008,0.07c0.02-0.039,0.039-0.079,0.059-0.118c0.053-0.104-0.164,0.112-0.061,0.06
	c0.039-0.02,0.079-0.039,0.118-0.059c0.106-0.053,0.06,0.008-0.075,0.008c0.041,0,0.081,0,0.121,0c0.061,0,0.121,0,0.182,0
	c-0.129,0-0.176-0.061-0.07-0.008c0.039,0.02,0.078,0.039,0.117,0.059c0.105,0.053-0.111-0.164-0.06-0.06
	c0.02,0.039,0.039,0.079,0.059,0.118c0.081,0.16-0.007-0.198-0.007,0.023C76.891,22.207,77.516,22.207,77.516,21.805z"/>
<path d="M78.203,21.805h-3 M77.426,20.471l-1.445,2.666 M77.426,23.137l-1.445-2.666"/>
<path d="M78.203,21.492c-1,0-2,0-3,0c-0.403,0-0.403,0.625,0,0.625c1,0,2,0,3,0C78.605,22.117,78.605,21.492,78.203,21.492
	L78.203,21.492z"/>
<path d="M77.155,20.312c-0.481,0.889-0.964,1.777-1.445,2.666c-0.192,0.355,0.348,0.67,0.54,0.316
	c0.481-0.889,0.963-1.777,1.445-2.666C77.887,20.273,77.348,19.959,77.155,20.312L77.155,20.312z"/>
<path d="M77.695,22.979c-0.482-0.889-0.964-1.777-1.445-2.666c-0.192-0.354-0.732-0.039-0.54,0.316
	c0.481,0.889,0.964,1.777,1.445,2.666C77.348,23.648,77.887,23.334,77.695,22.979L77.695,22.979z"/>
<rect id="_x3C_Slice_x3E__101_" fill="none" width="52" height="50.666"/>
<rect id="_x3C_Slice_x3E__100_" x="52" fill="none" width="31.666" height="50.666"/>
</svg>
