<?xml version="1.0" encoding="utf-8"?>
<!-- Generator: Adobe Illustrator 15.0.2, SVG Export Plug-In  -->
<!DOCTYPE svg PUBLIC "-//W3C//DTD SVG 1.1//EN" "http://www.w3.org/Graphics/SVG/1.1/DTD/svg11.dtd" [
	<!ENTITY ns_flows "http://ns.adobe.com/Flows/1.0/">
]>
<svg version="1.1"
	 xmlns="http://www.w3.org/2000/svg" xmlns:xlink="http://www.w3.org/1999/xlink" xmlns:a="http://ns.adobe.com/AdobeSVGViewerExtensions/3.0/"
	 x="0px" y="0px" width="48px" height="35px" viewBox="53 0 48 35" overflow="visible" enable-background="new 53 0 48 35"
	 xml:space="preserve">
<defs>
</defs>
<path d="M81.253,3.205c-0.38-0.766-0.989-1.331-1.872-0.89c-0.706,0.353-0.727,1.624-1.398,1.624c-0.436,0-0.911-1.153-1.335-1.575
	c-0.674-0.671-1.46,0.116-1.768,0.73c-1.238,2.471-1.347-1.432-3.202-0.921c-1.129,0.311-0.896,1.819-0.896,2.677
	c0,2.431,0,4.86,0,7.291c0,0.403,0.625,0.403,0.625,0c0-2.112,0-4.225,0-6.337c0-0.647-0.437-3.017,0.688-3.017
	c1.065,0,1.207,3.026,2.999,1.242c0.428-0.426,0.64-1.693,1.169-1.167c0.519,0.517,0.622,1.239,1.341,1.66
	c1.536,0.9,1.96-3.314,3.11-1.001C80.893,3.882,81.432,3.565,81.253,3.205L81.253,3.205z"/>
<rect id="_x3C_Slice_x3E__103_" y="34.667" fill="none" width="53.333" height="50.667"/>
<rect id="_x3C_Slice_x3E__102_" x="53.333" y="34.667" fill="none" width="48" height="50.667"/>
<rect id="_x3C_Slice_x3E__101_" fill="none" width="53.333" height="34.667"/>
<rect id="_x3C_Slice_x3E__100_" x="53.333" fill="none" width="48" height="34.667"/>
</svg>
