<?xml version="1.0" encoding="utf-8"?>
<!-- Generator: Adobe Illustrator 15.0.2, SVG Export Plug-In  -->
<!DOCTYPE svg PUBLIC "-//W3C//DTD SVG 1.1//EN" "http://www.w3.org/Graphics/SVG/1.1/DTD/svg11.dtd" [
	<!ENTITY ns_flows "http://ns.adobe.com/Flows/1.0/">
]>
<svg version="1.1"
	 xmlns="http://www.w3.org/2000/svg" xmlns:xlink="http://www.w3.org/1999/xlink" xmlns:a="http://ns.adobe.com/AdobeSVGViewerExtensions/3.0/"
	 x="0px" y="0px" width="53px" height="50px" viewBox="0 0.666 53 50" overflow="visible" enable-background="new 0 0.666 53 50"
	 xml:space="preserve">
<defs>
</defs>
<polygon fill-rule="evenodd" clip-rule="evenodd" points="20.762,28.025 20.762,27.805 20.651,27.582 20.54,27.359 20.429,27.137 
	20.207,27.025 19.984,26.914 19.762,26.805 19.54,26.805 19.318,26.805 19.095,26.914 18.873,27.025 18.651,27.137 18.54,27.359 
	18.429,27.582 18.318,27.805 18.318,28.025 18.318,28.248 18.429,28.471 18.54,28.693 18.651,28.914 18.873,29.025 19.095,29.137 
	19.318,29.248 19.54,29.248 19.762,29.248 19.984,29.137 20.207,29.025 20.429,28.914 20.54,28.693 20.651,28.471 20.762,28.248 
	20.762,28.025 "/>
<path d="M21.075,28.025c0-0.826-0.708-1.533-1.535-1.533s-1.535,0.706-1.535,1.533c0,0.826,0.708,1.535,1.535,1.535
	C20.366,29.561,21.075,28.852,21.075,28.025c0-0.402-0.625-0.402-0.625,0c0,0.062,0,0.125,0,0.188c0-0.185-0.026,0.015-0.069,0.1
	c-0.068,0.137-0.136,0.273-0.205,0.409c0.068-0.134,0.004-0.032-0.093,0.017c-0.074,0.037-0.148,0.074-0.222,0.111
	s-0.148,0.074-0.222,0.111c0.167-0.084-0.011-0.025-0.099-0.025c-0.062,0-0.125,0-0.188,0c0.185,0-0.014-0.025-0.1-0.068
	c-0.137-0.068-0.273-0.137-0.41-0.205c0.134,0.066,0.033,0.006-0.016-0.092c-0.037-0.074-0.074-0.148-0.111-0.223
	s-0.074-0.148-0.111-0.223c0.083,0.168,0.025-0.012,0.025-0.1c0-0.062,0-0.124,0-0.186c0,0.185,0.026-0.015,0.068-0.1
	c0.068-0.137,0.137-0.273,0.205-0.411c-0.066,0.134-0.005,0.032,0.093-0.017c0.074-0.037,0.148-0.074,0.222-0.111
	s0.148-0.073,0.223-0.109c-0.169,0.083,0.013,0.025,0.099,0.025c0.062,0,0.125,0,0.188,0c-0.185,0,0.014,0.025,0.099,0.066
	c0.137,0.068,0.273,0.137,0.41,0.205c-0.134-0.066-0.032-0.004,0.017,0.094c0.037,0.074,0.074,0.148,0.111,0.223
	c0.037,0.074,0.074,0.148,0.111,0.223c-0.083-0.167-0.025,0.01-0.025,0.098C20.45,28.428,21.075,28.428,21.075,28.025z"/>
<polygon fill-rule="evenodd" clip-rule="evenodd" points="25.762,28.025 25.762,27.805 25.651,27.471 25.54,27.359 25.429,27.137 
	25.207,26.914 24.984,26.805 24.762,26.805 24.54,26.805 24.317,26.805 24.095,26.805 23.873,26.914 23.651,27.137 23.54,27.359 
	23.429,27.471 23.317,27.805 23.317,28.025 23.317,28.248 23.429,28.471 23.54,28.693 23.651,28.914 23.873,29.025 24.095,29.137 
	24.317,29.248 24.54,29.248 24.762,29.248 24.984,29.137 25.207,29.025 25.429,28.914 25.54,28.693 25.651,28.471 25.762,28.248 
	25.762,28.025 "/>
<path d="M26.075,28.025c0-0.438-0.194-0.683-0.376-1.047c-0.216-0.432-0.708-0.486-1.124-0.486c-0.44,0-0.74,0.018-1.067,0.346
	c-0.266,0.266-0.503,0.689-0.503,1.077c0,0.44,0.163,0.733,0.359,1.122c0.151,0.301,0.834,0.523,1.142,0.523
	c0.414,0,0.717-0.193,1.081-0.377C25.882,29.035,26.075,28.315,26.075,28.025c0-0.402-0.625-0.402-0.625,0c0,0.062,0,0.125,0,0.188
	c0-0.185-0.026,0.015-0.069,0.1c-0.068,0.137-0.136,0.273-0.205,0.409c0.068-0.134,0.004-0.032-0.093,0.017
	c-0.074,0.037-0.148,0.074-0.222,0.111s-0.148,0.074-0.222,0.111c0.167-0.084-0.011-0.025-0.099-0.025c-0.062,0-0.125,0-0.188,0
	c0.185,0-0.014-0.025-0.099-0.068c-0.074-0.037-0.148-0.074-0.222-0.111c-0.097-0.049-0.198-0.175-0.127-0.034
	c-0.068-0.136-0.137-0.272-0.205-0.409c-0.042-0.085-0.068-0.284-0.068-0.1c0-0.074,0-0.148,0-0.223
	c0-0.162,0.028-0.221,0.092-0.412c-0.07,0.212,0.146-0.178,0.182-0.249c0.054-0.108,0.195-0.179,0.315-0.237
	c-0.169,0.083,0.013,0.025,0.099,0.025c0.074,0,0.148,0,0.223,0c0.137,0,0.273,0,0.41,0c-0.2,0,0.019,0.001,0.059,0.041
	c0.046,0.047,0.153,0.142,0.167,0.171c0.036,0.071,0.252,0.461,0.182,0.249c0.07,0.209,0.092,0.257,0.092,0.447
	C25.45,28.428,26.075,28.428,26.075,28.025z"/>
<polygon fill-rule="evenodd" clip-rule="evenodd" points="23.095,23.914 23.095,23.693 22.984,23.471 22.873,23.248 22.651,23.025 
	22.54,22.914 22.317,22.805 22.095,22.693 21.762,22.693 21.54,22.693 21.317,22.805 21.095,22.914 20.873,23.025 20.762,23.248 
	20.651,23.471 20.54,23.693 20.54,23.914 20.54,24.137 20.651,24.359 20.762,24.582 20.873,24.805 21.095,24.914 21.317,25.025 
	21.54,25.137 21.762,25.137 22.095,25.137 22.317,25.025 22.54,24.914 22.651,24.805 22.873,24.582 22.984,24.359 23.095,24.137 
	23.095,23.914 "/>
<path d="M23.408,23.914c0-0.848-0.795-1.533-1.611-1.533c-0.839,0-1.569,0.68-1.569,1.533c0,0.826,0.708,1.535,1.535,1.535
	C22.592,25.449,23.408,24.788,23.408,23.914c0-0.402-0.625-0.402-0.625,0c0,0.062,0,0.125,0,0.188c0-0.185-0.026,0.015-0.068,0.1
	c-0.083,0.166-0.128,0.225-0.262,0.359c-0.094,0.094-0.171,0.134-0.293,0.195c-0.085,0.043-0.284,0.068-0.099,0.068
	c-0.1,0-0.199,0-0.298,0c-0.062,0-0.125,0-0.188,0c0.185,0-0.014-0.025-0.1-0.068c-0.136-0.068-0.273-0.137-0.41-0.204
	c0.133,0.065,0.033,0.007-0.016-0.093c-0.037-0.074-0.074-0.148-0.111-0.223c-0.037-0.074-0.074-0.148-0.111-0.223
	c0.083,0.168,0.025-0.012,0.025-0.1c0-0.062,0-0.124,0-0.186c0,0.185,0.025-0.015,0.068-0.1c0.068-0.137,0.137-0.273,0.205-0.411
	c-0.066,0.134-0.005,0.032,0.093-0.017c0.074-0.037,0.148-0.073,0.222-0.109c0.074-0.037,0.148-0.074,0.223-0.111
	c-0.167,0.084,0.012,0.025,0.099,0.025c0.072,0,0.144,0,0.216,0c0.112,0.008,0.11-0.001-0.006-0.025
	c0.051,0.025,0.102,0.051,0.153,0.076c0.118,0.06,0.214,0.099,0.305,0.189c0.13,0.131,0.191,0.194,0.268,0.348
	c0.037,0.074,0.074,0.148,0.111,0.223c-0.083-0.168-0.025,0.01-0.025,0.098C22.783,24.316,23.408,24.316,23.408,23.914z"/>
<rect id="_x3C_Slice_x3E__100_" fill="none" width="53.333" height="50.666"/>
</svg>
