<?xml version="1.0" encoding="utf-8"?>
<!-- Generator: Adobe Illustrator 15.0.2, SVG Export Plug-In  -->
<!DOCTYPE svg PUBLIC "-//W3C//DTD SVG 1.1//EN" "http://www.w3.org/Graphics/SVG/1.1/DTD/svg11.dtd" [
	<!ENTITY ns_flows "http://ns.adobe.com/Flows/1.0/">
]>
<svg version="1.1"
	 xmlns="http://www.w3.org/2000/svg" xmlns:xlink="http://www.w3.org/1999/xlink" xmlns:a="http://ns.adobe.com/AdobeSVGViewerExtensions/3.0/"
	 x="0px" y="0px" width="55px" height="51px" viewBox="56.666 0.333 55 51"
	 overflow="visible" enable-background="new 56.666 0.333 55 51" xml:space="preserve">
<defs>
</defs>
<path d="M80.252,31.871c-1.553-3.099-1.838-7.406,0-10.463c0.208-0.346-0.332-0.66-0.54-0.315c-1.965,3.27-1.661,7.779,0,11.094
	C79.893,32.547,80.432,32.23,80.252,31.871L80.252,31.871z"/>
<path d="M85.697,32.187c1.748-3.511,1.748-7.582,0-11.094c-0.18-0.36-0.719-0.044-0.54,0.315c1.634,3.283,1.636,7.181,0,10.463
	C84.979,32.23,85.518,32.547,85.697,32.187L85.697,32.187z"/>
<polygon fill-rule="evenodd" clip-rule="evenodd" points="83.982,26.695 83.982,26.362 83.871,26.14 83.76,25.917 83.537,25.807 
	83.428,25.584 83.205,25.473 82.982,25.362 82.76,25.362 82.428,25.362 82.205,25.473 81.982,25.584 81.871,25.807 81.648,25.917 
	81.537,26.14 81.428,26.362 81.428,26.695 81.428,26.918 81.537,27.14 81.648,27.362 81.871,27.473 81.982,27.695 82.205,27.807 
	82.428,27.917 82.76,27.917 82.982,27.917 83.205,27.807 83.428,27.695 83.537,27.473 83.76,27.362 83.871,27.14 83.982,26.918 
	83.982,26.695 "/>
<path d="M84.295,26.695c0-0.462-0.127-0.923-0.566-1.142c0.073,0.086,0.081,0.08,0.023-0.016c-0.03-0.061-0.055-0.125-0.104-0.174
	c-0.076-0.075-0.193-0.113-0.286-0.16c-0.216-0.108-0.36-0.153-0.603-0.153c-0.463,0-0.922,0.126-1.142,0.564
	c0.085-0.073,0.08-0.081-0.017-0.022c-0.061,0.03-0.125,0.056-0.175,0.104c-0.075,0.075-0.113,0.192-0.16,0.286
	c-0.122,0.245-0.151,0.405-0.151,0.679c0,0.433,0.16,0.864,0.562,1.064c-0.072-0.086-0.08-0.08-0.021,0.017
	c0.03,0.061,0.056,0.125,0.104,0.174c0.075,0.075,0.192,0.113,0.286,0.16c0.246,0.122,0.402,0.153,0.678,0.153
	c0.433,0,0.867-0.162,1.064-0.564c-0.086,0.073-0.08,0.08,0.017,0.022c0.061-0.03,0.126-0.056,0.175-0.104
	c0.075-0.075,0.113-0.192,0.16-0.285C84.249,27.081,84.295,26.938,84.295,26.695c0-0.403-0.625-0.403-0.625,0
	c0,0.062,0,0.125,0,0.188c0-0.185-0.026,0.014-0.069,0.1c-0.048,0.097-0.174,0.197-0.034,0.127
	c-0.082,0.041-0.184,0.076-0.251,0.143c-0.066,0.066-0.101,0.168-0.142,0.251c0.069-0.14-0.028-0.016-0.127,0.034
	c-0.086,0.042-0.285,0.068-0.1,0.068c-0.074,0-0.148,0-0.223,0c-0.088,0-0.176,0-0.263,0c0.185,0-0.015-0.025-0.1-0.068
	c-0.097-0.048-0.198-0.173-0.128-0.034c-0.041-0.083-0.076-0.184-0.143-0.251s-0.168-0.102-0.252-0.143
	c0.141,0.07,0.016-0.03-0.033-0.127c-0.043-0.086-0.066-0.284-0.066-0.1c0-0.074,0-0.148,0-0.222c0-0.088,0-0.176,0-0.265
	c0,0.186,0.023-0.014,0.066-0.099C81.854,26.2,81.98,26.1,81.84,26.17c0.084-0.041,0.186-0.076,0.252-0.143
	c0.066-0.066,0.102-0.168,0.143-0.251c-0.07,0.141,0.031,0.015,0.128-0.034c0.085-0.042,0.284-0.068,0.1-0.068
	c0.099,0,0.198,0,0.298,0c0.062,0,0.125,0,0.188,0c-0.186,0,0.014,0.025,0.1,0.068c0.098,0.049,0.196,0.174,0.127,0.034
	c0.041,0.083,0.075,0.185,0.142,0.251c0.067,0.067,0.169,0.102,0.251,0.143c-0.14-0.07-0.014,0.03,0.034,0.128
	c0.043,0.085,0.069,0.284,0.069,0.099c0,0.1,0,0.199,0,0.299C83.67,27.099,84.295,27.099,84.295,26.695z"/>
<rect id="_x3C_Slice_x3E__103_" y="50.667" fill="none" width="57.333" height="57.333"/>
<rect id="_x3C_Slice_x3E__102_" x="57.333" y="50.667" fill="none" width="54.667" height="57.333"/>
<rect id="_x3C_Slice_x3E__101_" fill="none" width="57.333" height="50.667"/>
<rect id="_x3C_Slice_x3E__100_" x="57.333" fill="none" width="54.667" height="50.667"/>
</svg>
