<?xml version="1.0" encoding="utf-8"?>
<!-- Generator: Adobe Illustrator 15.0.2, SVG Export Plug-In  -->
<!DOCTYPE svg PUBLIC "-//W3C//DTD SVG 1.1//EN" "http://www.w3.org/Graphics/SVG/1.1/DTD/svg11.dtd" [
	<!ENTITY ns_flows "http://ns.adobe.com/Flows/1.0/">
]>
<svg version="1.1"
	 xmlns="http://www.w3.org/2000/svg" xmlns:xlink="http://www.w3.org/1999/xlink" xmlns:a="http://ns.adobe.com/AdobeSVGViewerExtensions/3.0/"
	 x="0px" y="0px" width="56px" height="55px" viewBox="54.333 0.333 56 55"
	 overflow="visible" enable-background="new 54.333 0.333 56 55" xml:space="preserve">
<defs>
</defs>
<path d="M84.045,24.964c0.61,1.014,1.059,3.529-0.952,3.529c-2.172,0-3.876-2.574-5.509-3.791c-1.027-0.767-3.047-0.817-3.706,0.5
	c-0.616,1.232-0.336,2.329,0.39,3.539c0.207,0.345,0.747,0.031,0.54-0.316c-0.738-1.229-1.146-2.995,0.479-3.541
	c1.92-0.643,4.057,2.062,5.253,3.252c1.224,1.218,3.007,1.324,4.22,0.111c0.972-0.971,0.42-2.613-0.174-3.6
	C84.378,24.304,83.837,24.617,84.045,24.964L84.045,24.964z"/>
<polygon fill-rule="evenodd" clip-rule="evenodd" points="75.427,27.694 75.761,27.472 75.981,27.249 76.093,27.026 76.204,26.806 
	76.204,26.694 76.204,26.583 76.093,26.472 75.872,26.472 75.649,26.472 75.538,26.36 75.427,26.36 75.315,26.249 75.315,26.138 
	75.315,25.915 75.315,25.806 75.315,25.694 75.427,25.583 75.649,25.472 75.872,25.36 76.093,25.36 76.204,25.472 76.315,25.583 
	76.427,25.694 76.538,25.806 76.649,26.026 76.649,26.138 76.761,26.36 76.649,26.472 76.649,26.694 76.538,26.915 76.538,27.026 
	76.315,27.249 76.093,27.472 75.872,27.694 75.538,27.915 75.427,27.694 "/>
<path d="M75.584,27.964c0.363-0.242,0.933-0.654,0.933-1.158c0-0.254-0.047-0.555-0.342-0.635c-0.105-0.029-0.229-0.012-0.338-0.012
	c-0.211,0-0.121-0.062,0.004,0.062c-0.044-0.045-0.091-0.1-0.146-0.131c-0.067-0.04-0.138-0.043-0.214-0.043
	c0.125,0,0.146,0.021,0.146,0.146c0-0.11,0-0.222,0-0.333c0-0.164,0.045-0.082-0.062,0.025c0.073-0.073,0.031-0.039,0.13-0.088
	c0.049-0.025,0.097-0.049,0.146-0.074c0.086-0.042,0.244-0.051,0.065-0.051c0.21,0,0.118,0.062-0.006-0.062
	c0.037,0.037,0.074,0.074,0.111,0.111c0.074,0.074,0.148,0.148,0.223,0.223c0.073,0.074,0.039,0.03,0.089,0.129
	c0.104,0.207,0.014-0.097,0.014,0.064c0,0.131,0.098,0.268,0.153,0.381c0.017-0.127,0.032-0.253,0.049-0.379
	c-0.169,0.168-0.202,0.283-0.202,0.52c0-0.184-0.025,0.012-0.069,0.098c-0.028,0.049-0.042,0.102-0.042,0.158
	c0,0.176,0.176-0.195,0.013-0.031c-0.299,0.299-0.531,0.545-0.858,0.762c0.143,0.037,0.285,0.074,0.428,0.111
	c-0.037-0.073-0.074-0.146-0.111-0.221c-0.182-0.359-0.721-0.043-0.54,0.316c0.037,0.073,0.074,0.146,0.111,0.221
	c0.073,0.146,0.292,0.201,0.428,0.111c0.351-0.23,0.623-0.497,0.919-0.793c0.063-0.063,0.146-0.129,0.193-0.207
	c0.027-0.049,0.043-0.102,0.043-0.158c0-0.161-0.092,0.143,0.013-0.064c0.051-0.1,0.099-0.186,0.099-0.303
	c0-0.309-0.154,0.096,0.02-0.078c0.104-0.104,0.111-0.252,0.049-0.379c-0.031-0.062-0.062-0.125-0.094-0.188
	c0.074,0.15,0.024-0.033,0.014-0.071c-0.031-0.113-0.108-0.275-0.191-0.358c-0.155-0.155-0.319-0.383-0.509-0.494
	c-0.255-0.149-0.567,0.016-0.794,0.129c-0.298,0.148-0.453,0.293-0.453,0.641c0,0.301-0.021,0.497,0.202,0.721
	c0.059,0.059,0.139,0.092,0.222,0.092c0.172,0-0.186-0.166-0.027-0.01c0.129,0.131,0.267,0.121,0.438,0.121c0.049,0,0.097,0,0.145,0
	c0.229,0-0.188-0.17-0.027-0.01c-0.109-0.107-0.062-0.189-0.062-0.024c0-0.149-0.033,0.047-0.069,0.118
	c-0.144,0.287-0.279,0.373-0.554,0.557C74.935,27.647,75.247,28.188,75.584,27.964z"/>
<polygon fill-rule="evenodd" clip-rule="evenodd" points="82.204,27.694 82.427,27.472 82.761,27.249 82.872,27.026 82.981,26.806 
	82.981,26.694 82.981,26.583 82.872,26.472 82.649,26.472 82.427,26.472 82.315,26.36 82.204,26.36 82.093,26.249 82.093,26.138 
	81.981,25.915 82.093,25.806 82.093,25.694 82.204,25.583 82.427,25.472 82.649,25.36 82.872,25.36 82.981,25.472 83.093,25.583 
	83.204,25.694 83.315,25.806 83.427,26.026 83.427,26.138 83.427,26.36 83.427,26.472 83.427,26.694 83.315,26.915 83.204,27.026 
	83.093,27.249 82.872,27.472 82.649,27.694 82.315,27.915 82.204,27.694 "/>
<path d="M82.425,27.915c0.205-0.205,0.518-0.332,0.661-0.619c0.126-0.252,0.368-0.677,0.116-0.934
	c-0.111-0.113-0.195-0.203-0.365-0.203c-0.074,0-0.148,0-0.223,0c-0.305,0,0.064,0.123-0.049,0.01
	c-0.05-0.05-0.099-0.091-0.168-0.109c-0.303-0.084,0.099,0.151-0.055-0.002c0.049,0.157,0.07,0.184,0.062,0.08
	c0-0.057-0.016-0.109-0.043-0.158c-0.037-0.074-0.074-0.148-0.111-0.223c-0.017,0.127-0.033,0.253-0.049,0.379
	c0.055-0.053,0.121-0.105,0.16-0.172c0.027-0.049,0.043-0.102,0.043-0.158c0.008-0.104-0.014-0.077-0.062,0.08
	c0.062-0.062,0.123-0.086,0.207-0.127c0.087-0.043,0.322-0.086,0.134-0.086c0.304,0-0.063-0.123,0.048-0.01
	c0.047,0.048,0.094,0.094,0.14,0.141c0.047,0.047,0.094,0.094,0.141,0.141c0.07,0.07,0.103,0.268,0.103,0.138
	c0,0.142,0,0.283,0,0.425c0,0.249,0.058,0-0.014,0.141c-0.043,0.086-0.123,0.134-0.167,0.221c-0.174,0.349-0.46,0.567-0.776,0.777
	c0.143,0.037,0.285,0.074,0.428,0.111c-0.037-0.073-0.074-0.146-0.111-0.221c-0.182-0.359-0.721-0.043-0.54,0.316
	c0.037,0.073,0.074,0.146,0.111,0.221c0.073,0.146,0.292,0.201,0.428,0.111c0.222-0.146,0.409-0.281,0.597-0.469
	c0.148-0.148,0.251-0.364,0.385-0.498c0.283-0.283,0.434-0.969,0.242-1.35c-0.169-0.334-0.533-0.82-0.936-0.82
	c-0.254,0-0.458,0.137-0.68,0.248c-0.096,0.047-0.205,0.148-0.259,0.24c-0.04,0.068-0.042,0.139-0.042,0.214
	c0-0.151,0.106-0.181-0.021-0.056c-0.104,0.104-0.112,0.252-0.049,0.379c0.032,0.062,0.063,0.125,0.095,0.188
	c-0.076-0.15-0.025,0.033-0.015,0.071c0.035,0.129,0.2,0.294,0.329,0.329c0.204,0.057,0.078,0.024,0.003-0.051
	c0.044,0.045,0.091,0.1,0.146,0.131c0.119,0.07,0.283,0.043,0.415,0.043c0.213,0,0.118,0.062-0.005-0.062
	c0.156,0.158-0.01-0.201-0.01-0.027c0,0.162,0.09-0.144-0.013,0.064c-0.036,0.073-0.073,0.147-0.11,0.221
	c-0.104,0.208,0.143-0.057-0.029,0.058c-0.074,0.05-0.148,0.099-0.223,0.148c-0.118,0.078-0.212,0.188-0.312,0.288
	C81.697,27.759,82.14,28.2,82.425,27.915z"/>
<rect id="_x3C_Slice_x3E__103_" y="54.667" fill="none" width="54.667" height="50.666"/>
<rect id="_x3C_Slice_x3E__102_" x="54.667" y="54.667" fill="none" width="56" height="50.666"/>
<rect id="_x3C_Slice_x3E__101_" fill="none" width="54.667" height="54.667"/>
<rect id="_x3C_Slice_x3E__100_" x="54.667" fill="none" width="56" height="54.667"/>
</svg>
