<?xml version="1.0" encoding="utf-8"?>
<!-- Generator: Adobe Illustrator 15.0.2, SVG Export Plug-In  -->
<!DOCTYPE svg PUBLIC "-//W3C//DTD SVG 1.1//EN" "http://www.w3.org/Graphics/SVG/1.1/DTD/svg11.dtd" [
	<!ENTITY ns_flows "http://ns.adobe.com/Flows/1.0/">
]>
<svg version="1.1"
	 xmlns="http://www.w3.org/2000/svg" xmlns:xlink="http://www.w3.org/1999/xlink" xmlns:a="http://ns.adobe.com/AdobeSVGViewerExtensions/3.0/"
	 x="0px" y="0px" width="55px" height="55px" viewBox="56.666 0.333 55 55"
	 overflow="visible" enable-background="new 56.666 0.333 55 55" xml:space="preserve">
<defs>
</defs>
<path d="M87.378,24.964c0.61,1.012,1.06,3.529-0.952,3.529c-2.172,0-3.875-2.574-5.509-3.791c-1.028-0.767-3.045-0.817-3.704,0.5
	c-0.617,1.235-0.336,2.324,0.388,3.539c0.206,0.346,0.747,0.031,0.54-0.316c-0.734-1.23-1.148-2.998,0.48-3.541
	c1.922-0.64,4.054,2.061,5.251,3.252c1.224,1.218,3.007,1.324,4.22,0.111c0.973-0.973,0.42-2.611-0.174-3.6
	C87.711,24.304,87.17,24.617,87.378,24.964L87.378,24.964z"/>
<polygon fill-rule="evenodd" clip-rule="evenodd" points="78.76,27.694 79.094,27.472 79.316,27.249 79.428,27.026 79.539,26.806 
	79.539,26.694 79.539,26.583 79.428,26.472 79.205,26.472 78.982,26.472 78.871,26.36 78.76,26.36 78.648,26.249 78.648,26.138 
	78.648,25.915 78.648,25.806 78.648,25.694 78.76,25.583 78.982,25.472 79.205,25.36 79.428,25.36 79.539,25.472 79.648,25.583 
	79.76,25.694 79.871,25.806 79.982,26.026 79.982,26.138 80.094,26.36 79.982,26.472 79.982,26.694 79.871,26.915 79.871,27.026 
	79.648,27.249 79.428,27.472 79.205,27.694 78.871,27.915 78.76,27.694 "/>
<path d="M78.917,27.964c0.364-0.242,0.935-0.652,0.935-1.158c0-0.254-0.047-0.555-0.342-0.635c-0.105-0.029-0.23-0.012-0.34-0.012
	c-0.211,0-0.121-0.062,0.004,0.062c-0.044-0.045-0.091-0.1-0.146-0.131c-0.067-0.04-0.138-0.043-0.214-0.043
	c0.125,0,0.146,0.021,0.146,0.146c0-0.11,0-0.222,0-0.333c0-0.164,0.045-0.082-0.062,0.025c0.073-0.073,0.03-0.039,0.13-0.088
	c0.049-0.025,0.098-0.049,0.146-0.074c0.085-0.041,0.243-0.051,0.065-0.051c0.211,0,0.121,0.062-0.004-0.062
	c0.036,0.037,0.073,0.074,0.11,0.111c0.074,0.074,0.147,0.148,0.222,0.223c0.073,0.074,0.039,0.03,0.089,0.129
	c0.104,0.207,0.014-0.097,0.014,0.064c0,0.131,0.098,0.268,0.153,0.381c0.017-0.127,0.032-0.253,0.049-0.379
	c-0.169,0.168-0.202,0.283-0.202,0.52c0-0.184-0.025,0.012-0.069,0.098c-0.028,0.049-0.042,0.102-0.042,0.158
	c0,0.176,0.176-0.195,0.013-0.031c-0.299,0.299-0.53,0.545-0.858,0.762c0.143,0.037,0.285,0.074,0.428,0.111
	c-0.037-0.073-0.074-0.146-0.111-0.221c-0.182-0.359-0.721-0.043-0.54,0.316c0.037,0.073,0.074,0.146,0.111,0.221
	c0.073,0.146,0.292,0.201,0.428,0.111c0.351-0.231,0.622-0.496,0.919-0.793c0.063-0.063,0.146-0.129,0.193-0.207
	c0.027-0.049,0.043-0.102,0.043-0.158c0-0.161-0.092,0.143,0.013-0.064c0.051-0.1,0.099-0.186,0.099-0.303
	c0-0.309-0.154,0.096,0.02-0.078c0.104-0.104,0.111-0.252,0.049-0.379c-0.031-0.062-0.062-0.125-0.094-0.188
	c0.074,0.15,0.024-0.033,0.014-0.071c-0.031-0.113-0.108-0.275-0.191-0.358c-0.154-0.154-0.318-0.384-0.507-0.494
	c-0.255-0.149-0.568,0.015-0.796,0.129c-0.298,0.148-0.453,0.293-0.453,0.641c0,0.301-0.021,0.497,0.202,0.721
	c0.059,0.059,0.139,0.092,0.222,0.092c0.172,0-0.186-0.166-0.027-0.01c0.129,0.131,0.267,0.121,0.438,0.121c0.049,0,0.098,0,0.146,0
	c0.229,0-0.188-0.17-0.027-0.01c-0.109-0.107-0.062-0.189-0.062-0.024c0-0.149-0.033,0.047-0.069,0.118
	c-0.144,0.286-0.282,0.373-0.556,0.557C78.268,27.647,78.58,28.188,78.917,27.964z"/>
<rect id="_x3C_Slice_x3E__103_" y="54.667" fill="none" width="57.333" height="50.666"/>
<rect id="_x3C_Slice_x3E__102_" x="57.333" y="54.667" fill="none" width="54.667" height="50.666"/>
<rect id="_x3C_Slice_x3E__101_" fill="none" width="57.333" height="54.667"/>
<rect id="_x3C_Slice_x3E__100_" x="57.333" fill="none" width="54.667" height="54.667"/>
</svg>
