<?xml version="1.0" encoding="utf-8"?>
<!-- Generator: Adobe Illustrator 15.0.2, SVG Export Plug-In  -->
<!DOCTYPE svg PUBLIC "-//W3C//DTD SVG 1.1//EN" "http://www.w3.org/Graphics/SVG/1.1/DTD/svg11.dtd" [
	<!ENTITY ns_flows "http://ns.adobe.com/Flows/1.0/">
]>
<svg version="1.1"
	 xmlns="http://www.w3.org/2000/svg" xmlns:xlink="http://www.w3.org/1999/xlink" xmlns:a="http://ns.adobe.com/AdobeSVGViewerExtensions/3.0/"
	 x="0px" y="0px" width="53px" height="58px" viewBox="0 0 53 58" overflow="visible" enable-background="new 0 0 53 58"
	 xml:space="preserve">
<defs>
</defs>
<polygon fill-rule="evenodd" clip-rule="evenodd" points="22.54,27.248 22.54,27.025 22.429,26.914 22.207,26.805 21.984,26.805 
	21.873,26.805 21.651,26.914 21.54,27.025 21.54,27.248 21.54,27.471 21.651,27.693 21.873,27.805 21.984,27.805 22.207,27.805 
	22.429,27.693 22.54,27.471 22.54,27.248 "/>
<path d="M22.853,27.248c0-0.234-0.025-0.485-0.266-0.604c-0.074-0.037-0.148-0.073-0.222-0.109c-0.119-0.059-0.251-0.043-0.38-0.043
	c-0.19,0-0.426,0.071-0.566,0.213c-0.097,0.098-0.191,0.182-0.191,0.332c0,0.1,0,0.199,0,0.299c0,0.189,0.07,0.529,0.266,0.627
	c0.2,0.101,0.354,0.154,0.579,0.154c0.189,0,0.529-0.07,0.626-0.266c0.037-0.074,0.074-0.148,0.111-0.223
	C22.869,27.51,22.853,27.376,22.853,27.248c0-0.402-0.625-0.402-0.625,0c0,0.029,0,0.059,0,0.088c0,0.131-0.049,0.16,0.038-0.014
	c-0.017,0.034-0.034,0.068-0.051,0.102c-0.068,0.136-0.085,0.07,0.047,0.004c-0.034,0.018-0.068,0.035-0.102,0.051
	c-0.124,0.062-0.136,0.014,0.034,0.014c-0.089,0-0.177,0-0.266,0c-0.144,0,0.175,0.08,0.067,0.025
	c-0.051-0.025-0.102-0.051-0.153-0.076c-0.104-0.053,0.112,0.164,0.06,0.06c-0.025-0.052-0.051-0.103-0.076-0.153
	c-0.054-0.109,0.025,0.209,0.025,0.079c0-0.056,0-0.11,0-0.167c0-0.078,0-0.156,0-0.234c-0.03,0.074-0.061,0.147-0.092,0.221
	c0.033-0.033,0.066-0.066,0.1-0.1c-0.081,0.082,0.021,0.002,0.06-0.018c0.122-0.06,0.136-0.012-0.029-0.012c0.035,0,0.07,0,0.106,0
	c0.055,0,0.111,0,0.166,0c0.117,0-0.211-0.091-0.043-0.008c0.047,0.023,0.095,0.047,0.143,0.07
	c-0.105-0.053,0.024,0.033,0.058,0.066c-0.031-0.073-0.062-0.146-0.092-0.221c0,0.074,0,0.148,0,0.223
	C22.228,27.65,22.853,27.65,22.853,27.248z"/>
<path d="M23.54,27.248h-3 M22.762,25.914l-1.445,2.668 M22.762,28.582l-1.445-2.668"/>
<path d="M23.54,26.936c-1,0-2,0-3,0c-0.403,0-0.403,0.625,0,0.625c1,0,2,0,3,0C23.943,27.561,23.943,26.936,23.54,26.936
	L23.54,26.936z"/>
<path d="M22.492,25.756c-0.481,0.89-0.963,1.779-1.444,2.668c-0.192,0.355,0.348,0.67,0.539,0.316
	c0.482-0.89,0.964-1.779,1.445-2.668C23.224,25.717,22.685,25.402,22.492,25.756L22.492,25.756z"/>
<path d="M23.032,28.424c-0.481-0.889-0.963-1.778-1.445-2.668c-0.191-0.354-0.731-0.039-0.539,0.316
	c0.481,0.889,0.963,1.778,1.444,2.668C22.685,29.094,23.224,28.779,23.032,28.424L23.032,28.424z"/>
<polygon fill-rule="evenodd" clip-rule="evenodd" points="20.318,31.359 20.207,31.137 20.095,30.914 19.984,30.805 19.762,30.805 
	19.54,30.805 19.429,30.914 19.318,31.137 19.318,31.359 19.318,31.582 19.429,31.693 19.54,31.805 19.762,31.805 19.984,31.805 
	20.095,31.693 20.207,31.582 20.318,31.359 "/>
<path d="M20.588,31.201c-0.073-0.145-0.146-0.29-0.218-0.436c-0.12-0.238-0.358-0.273-0.596-0.273s-0.379,0.016-0.555,0.189
	c-0.151,0.148-0.214,0.389-0.214,0.59c0,0.211-0.031,0.408,0.13,0.57c0.061,0.062,0.122,0.123,0.184,0.184
	c0.109,0.109,0.259,0.092,0.399,0.092c0.226,0,0.388,0.008,0.559-0.164c0.137-0.138,0.223-0.262,0.311-0.436
	c0.18-0.359-0.359-0.676-0.54-0.316c-0.019,0.037-0.037,0.074-0.056,0.111s-0.1,0.143-0.019,0.061c-0.07,0.07-0.14,0.141-0.21,0.211
	c0.073-0.031,0.147-0.062,0.221-0.092c-0.148,0-0.296,0-0.444,0c0.074,0.03,0.147,0.061,0.221,0.092
	c-0.074-0.074-0.148-0.148-0.222-0.223c0.03,0.073,0.061,0.146,0.091,0.221c0-0.134,0-0.268,0-0.401c0-0.13-0.08,0.188-0.025,0.079
	c0.02-0.039,0.039-0.078,0.059-0.117c0.019-0.039,0.069-0.089-0.002-0.02c0.033-0.032,0.066-0.064,0.1-0.098
	c-0.073,0.031-0.147,0.062-0.221,0.092c0.148,0,0.296,0,0.444,0c-0.074-0.03-0.147-0.061-0.221-0.092
	c0.033,0.033,0.119,0.16,0.066,0.057c0.03,0.059,0.06,0.118,0.089,0.178c0.042,0.086,0.085,0.172,0.128,0.258
	C20.229,31.877,20.768,31.561,20.588,31.201z"/>
<path d="M21.317,31.359h-3.111 M20.54,30.025l-1.556,2.668 M20.54,32.693l-1.556-2.668"/>
<path d="M21.317,31.047c-1.037,0-2.074,0-3.111,0c-0.403,0-0.403,0.625,0,0.625c1.037,0,2.074,0,3.111,0
	C21.721,31.672,21.721,31.047,21.317,31.047L21.317,31.047z"/>
<path d="M20.271,29.867c-0.519,0.89-1.037,1.779-1.556,2.668c-0.204,0.35,0.336,0.664,0.539,0.316
	c0.519-0.89,1.037-1.779,1.556-2.668C21.014,29.834,20.473,29.52,20.271,29.867L20.271,29.867z"/>
<path d="M20.81,32.535c-0.519-0.889-1.037-1.778-1.556-2.668c-0.203-0.348-0.743-0.033-0.539,0.316
	c0.519,0.889,1.037,1.778,1.556,2.668C20.473,33.199,21.014,32.885,20.81,32.535L20.81,32.535z"/>
<polygon fill-rule="evenodd" clip-rule="evenodd" points="24.762,31.359 24.762,31.137 24.651,30.914 24.54,30.805 24.317,30.805 
	24.095,30.805 23.984,30.914 23.873,31.137 23.762,31.359 23.873,31.582 23.984,31.693 24.095,31.805 24.317,31.805 24.54,31.805 
	24.651,31.693 24.762,31.582 24.762,31.359 "/>
<path d="M25.075,31.359c0-0.098,0.015-0.211-0.011-0.306c-0.027-0.099-0.093-0.196-0.138-0.288c-0.12-0.238-0.359-0.273-0.596-0.273
	c-0.079,0-0.157,0-0.235,0c-0.147,0-0.236,0.107-0.332,0.201c-0.122,0.119-0.191,0.347-0.267,0.498
	c-0.104,0.211,0.038,0.494,0.194,0.65c0.061,0.062,0.122,0.123,0.183,0.184c0.109,0.109,0.259,0.092,0.399,0.092
	c0.085,0,0.169,0,0.254,0c0.151,0,0.236-0.094,0.333-0.191c0.077-0.077,0.173-0.151,0.203-0.261
	C25.09,31.57,25.075,31.457,25.075,31.359c0-0.402-0.625-0.402-0.625,0c0,0.074,0,0.148,0,0.223
	c0.031-0.074,0.061-0.147,0.091-0.221c-0.074,0.074-0.148,0.148-0.222,0.223c0.073-0.031,0.147-0.062,0.221-0.092
	c-0.148,0-0.297,0-0.445,0c0.074,0.03,0.147,0.061,0.221,0.092c-0.062-0.062-0.122-0.123-0.183-0.184
	c-0.066-0.066,0.036,0.076-0.025-0.047c-0.025-0.051-0.05-0.102-0.076-0.152c0,0.105,0,0.211,0,0.316
	c0.042-0.086,0.085-0.172,0.128-0.258c0.03-0.06,0.06-0.119,0.089-0.178c-0.052,0.104,0.034-0.023,0.067-0.057
	c-0.074,0.031-0.147,0.062-0.221,0.092c0.148,0,0.296,0,0.445,0c-0.074-0.03-0.147-0.061-0.221-0.092
	c0.033,0.033,0.066,0.065,0.099,0.098c-0.085-0.084,0.018,0.061,0.039,0.102c0.084,0.167-0.007-0.16-0.007-0.044
	c0,0.06,0,0.119,0,0.179C24.45,31.762,25.075,31.762,25.075,31.359z"/>
<path d="M25.873,31.359h-3.111 M25.095,30.025l-1.555,2.668 M25.095,32.693l-1.555-2.668"/>
<path d="M25.873,31.047c-1.037,0-2.074,0-3.111,0c-0.403,0-0.403,0.625,0,0.625c1.037,0,2.074,0,3.111,0
	C26.276,31.672,26.276,31.047,25.873,31.047L25.873,31.047z"/>
<path d="M24.825,29.867c-0.519,0.89-1.037,1.779-1.555,2.668c-0.204,0.35,0.337,0.664,0.539,0.316
	c0.519-0.89,1.037-1.779,1.556-2.668C25.568,29.834,25.028,29.52,24.825,29.867L24.825,29.867z"/>
<path d="M25.365,32.535c-0.519-0.889-1.037-1.778-1.556-2.668c-0.202-0.348-0.743-0.033-0.539,0.316
	c0.518,0.889,1.036,1.778,1.555,2.668C25.028,33.199,25.568,32.885,25.365,32.535L25.365,32.535z"/>
<rect id="_x3C_Slice_x3E__101_" y="57.334" fill="none" width="53.333" height="52"/>
<rect id="_x3C_Slice_x3E__100_" fill="none" width="53.333" height="57.334"/>
</svg>
