<?xml version="1.0" encoding="utf-8"?>
<!-- Generator: Adobe Illustrator 15.0.2, SVG Export Plug-In  -->
<!DOCTYPE svg PUBLIC "-//W3C//DTD SVG 1.1//EN" "http://www.w3.org/Graphics/SVG/1.1/DTD/svg11.dtd" [
	<!ENTITY ns_flows "http://ns.adobe.com/Flows/1.0/">
]>
<svg version="1.1"
	 xmlns="http://www.w3.org/2000/svg" xmlns:xlink="http://www.w3.org/1999/xlink" xmlns:a="http://ns.adobe.com/AdobeSVGViewerExtensions/3.0/"
	 x="0px" y="0px" width="55px" height="35px" viewBox="56.666 0.666 55 35" enable-background="new 56.666 0.666 55 35"
	 xml:space="preserve">
<defs>
</defs>
<path d="M79.447,25.246c0,3.223,0,6.443,0,9.666c0,0.402,0.625,0.402,0.625,0c0-3.223,0-6.443,0-9.666
	C80.072,24.844,79.447,24.844,79.447,25.246L79.447,25.246z"/>
<path d="M86.203,33.359c-0.572-0.69-1.145-1.381-1.717-2.071c-0.371-0.448-0.744-0.897-1.115-1.347
	c-0.107-0.129-0.215-0.258-0.322-0.388c-0.186-0.224-0.18,0.489-0.01,0.289c1.24-1.458,2.479-2.917,3.719-4.376
	c0.17-0.2,0.068-0.533-0.221-0.533c-2.74,0-5.48,0-8.221,0c-0.403,0-0.403,0.625,0,0.625c2.74,0,5.48,0,8.221,0
	c-0.074-0.178-0.148-0.355-0.222-0.533c-1.259,1.481-2.519,2.963-3.777,4.445c-0.118,0.139-0.115,0.303,0,0.441
	c1.074,1.297,2.148,2.593,3.223,3.889C86.019,34.111,86.458,33.667,86.203,33.359L86.203,33.359z"/>
<path d="M87.395,34.829c-0.121-0.405-0.285-0.813-0.354-1.231c-0.055-0.32-0.08-0.474-0.08-0.709c0-0.249-0.15-0.363-0.312-0.529
	c-0.191-0.195-0.533-0.051-0.533,0.221c0,0.037,0,0.074,0,0.111c0.104-0.104,0.208-0.209,0.312-0.312c-0.037,0-0.074,0-0.111,0
	c-0.171,0-0.312,0.143-0.312,0.312c0,0.074,0,0.148,0,0.223c0,0.037,0,0.074,0,0.11c0,0.228,0.17-0.188,0.009-0.028
	c-0.12,0.121-0.151,0.263-0.252,0.363c-0.06,0.06-0.067,0.072-0.126,0.102c-0.209,0.104,0.038,0.029-0.133,0.029
	c-0.174,0-0.347,0-0.52,0c-0.171,0-0.312,0.143-0.312,0.312c0,0.074,0,0.146,0,0.221c0,0.17,0.142,0.312,0.312,0.312
	c0.301,0,0.723,0.221,1.015,0.318c-0.132-0.044,0.025,0.021,0.053,0.036c0.115,0.064,0.231,0.128,0.347,0.192
	c0.18,0.1,0.359,0.199,0.539,0.299c0.353,0.195,0.668-0.344,0.315-0.539c-0.344-0.191-0.701-0.462-1.075-0.586
	c-0.365-0.123-0.804-0.346-1.193-0.346c0.104,0.104,0.208,0.209,0.312,0.312c0-0.074,0-0.146,0-0.221
	c-0.104,0.104-0.209,0.209-0.312,0.312c0.441,0,0.854,0.053,1.191-0.285c0.14-0.14,0.229-0.341,0.334-0.445
	c0.177-0.177,0.121-0.463,0.121-0.693c-0.104,0.104-0.209,0.209-0.312,0.312c0.037,0,0.074,0,0.111,0
	c0.17,0,0.312-0.143,0.312-0.312c0-0.037,0-0.074,0-0.111c-0.178,0.074-0.355,0.147-0.534,0.221c0.063,0.064,0.128,0.13,0.192,0.193
	c-0.049-0.189-0.07-0.225-0.062-0.105c0,0.074,0,0.148,0,0.222c0,0.235,0.074,0.485,0.112,0.718
	c0.065,0.393,0.229,0.785,0.344,1.167C86.908,35.38,87.512,35.216,87.395,34.829z"/>
<path d="M82.157,20.865c-0.63,1.148-1.261,2.297-1.891,3.445c-0.112,0.207,0.028,0.471,0.271,0.471c1.297,0,2.594,0,3.891,0
	c0.236,0,0.389-0.266,0.27-0.471c-0.667-1.148-1.334-2.297-2-3.445c-0.202-0.348-0.742-0.033-0.54,0.316
	c0.667,1.148,1.333,2.297,2,3.445c0.091-0.157,0.181-0.314,0.271-0.471c-1.297,0-2.594,0-3.891,0c0.09,0.156,0.18,0.313,0.27,0.471
	c0.63-1.148,1.26-2.297,1.891-3.445C82.891,20.828,82.352,20.512,82.157,20.865L82.157,20.865z"/>
<rect id="_x3C_Slice_x3E__101_" fill="none" width="57.333" height="35.666"/>
<rect id="_x3C_Slice_x3E__100_" x="57.333" fill="none" width="54.667" height="35.666"/>
</svg>
