<?xml version="1.0" encoding="utf-8"?>
<!-- Generator: Adobe Illustrator 15.0.2, SVG Export Plug-In  -->
<!DOCTYPE svg PUBLIC "-//W3C//DTD SVG 1.1//EN" "http://www.w3.org/Graphics/SVG/1.1/DTD/svg11.dtd" [
	<!ENTITY ns_flows "http://ns.adobe.com/Flows/1.0/">
]>
<svg version="1.1"
	 xmlns="http://www.w3.org/2000/svg" xmlns:xlink="http://www.w3.org/1999/xlink" xmlns:a="http://ns.adobe.com/AdobeSVGViewerExtensions/3.0/"
	 x="0px" y="0px" width="56px" height="35px" viewBox="54.333 0.666 56 35"
	 overflow="visible" enable-background="new 54.333 0.666 56 35" xml:space="preserve">
<defs>
</defs>
<path d="M76.337,25.023c0,3.223,0,6.445,0,9.668c0,0.402,0.625,0.402,0.625,0c0-3.223,0-6.445,0-9.668
	C76.962,24.621,76.337,24.621,76.337,25.023L76.337,25.023z"/>
<path d="M80.981,33.689c0.703-0.852,1.407-1.703,2.111-2.555c0.1-0.12,0.141-0.326,0-0.441c-0.5-0.408-1-0.815-1.5-1.223
	c-0.374-0.305-0.748-0.609-1.121-0.914c-0.534-0.436-0.191-0.049-0.297,0.053c1.158-1.121,2.314-2.243,3.473-3.365
	c0.197-0.191,0.049-0.533-0.221-0.533c-2.704,0-5.408,0-8.111,0c-0.403,0-0.403,0.625,0,0.625c2.703,0,5.407,0,8.111,0
	c-0.074-0.178-0.148-0.355-0.222-0.533c-1.185,1.148-2.37,2.297-3.555,3.445c-0.112,0.109-0.13,0.335,0,0.441
	c0.966,0.787,1.932,1.574,2.897,2.361c0.063,0.053,0.248-0.533-0.117-0.092c-0.243,0.295-0.486,0.59-0.73,0.884
	c-0.387,0.468-0.773,0.937-1.161,1.405C80.284,33.556,80.724,34,80.981,33.689L80.981,33.689z"/>
<g>
	<polygon fill-rule="evenodd" clip-rule="evenodd" points="80.649,22.58 80.649,22.246 80.538,22.023 80.427,21.803 80.204,21.691 
		80.093,21.469 79.872,21.357 79.649,21.357 79.315,21.246 79.093,21.357 78.872,21.357 78.649,21.469 78.538,21.691 78.315,21.803 
		78.204,22.023 78.093,22.246 78.093,22.58 78.093,22.803 78.204,23.023 78.315,23.246 78.538,23.469 78.649,23.58 78.872,23.691 
		79.093,23.803 79.315,23.803 79.649,23.803 79.872,23.691 80.093,23.58 80.204,23.469 80.427,23.246 80.538,23.023 80.649,22.803 
		80.649,22.58 	"/>
</g>
<path d="M79.918,34.961c0.22-0.109,0.438-0.22,0.658-0.33c0.034-0.017,0.304-0.143,0.169-0.088c0.146-0.06,0.293-0.119,0.44-0.178
	c0.197-0.079,0.448-0.109,0.603-0.261c0.252-0.247,0.207-0.509-0.029-0.745c-0.121-0.121-0.322-0.121-0.442,0
	c-0.037,0.037-0.074,0.074-0.111,0.111c0.126-0.017,0.253-0.033,0.379-0.049c-0.253-0.127-0.432-0.154-0.712-0.154
	c0.073,0.03,0.146,0.061,0.221,0.092c-0.064-0.064-0.129-0.129-0.193-0.193c-0.035-0.035-0.049-0.26-0.049-0.087
	c0-0.112-0.033-0.193-0.082-0.291c-0.047-0.093-0.029-0.177-0.029-0.041c0-0.056,0-0.111,0-0.167c0-0.17-0.143-0.312-0.312-0.312
	c-0.074,0-0.148,0-0.223,0c-0.171,0-0.312,0.143-0.312,0.312c0,0.115-0.084,0.26-0.107,0.402c-0.035,0.205-0.068,0.41-0.103,0.615
	c-0.057,0.338-0.148,0.675-0.223,1.011c-0.087,0.393,0.516,0.56,0.603,0.166c0.076-0.347,0.17-0.692,0.229-1.042
	c0.033-0.205,0.067-0.41,0.102-0.615c0.032-0.19,0.125-0.338,0.125-0.537c-0.104,0.104-0.209,0.209-0.312,0.312
	c0.074,0,0.148,0,0.223,0c-0.104-0.104-0.209-0.209-0.312-0.312c0,0.203,0.022,0.342,0.114,0.523
	c0.038,0.08,0.038,0.072-0.003-0.024c0,0.078,0.006,0.142,0.042,0.214c0.037,0.074,0.074,0.148,0.111,0.223
	c0.073,0.146,0.327,0.377,0.493,0.377c0.092,0,0.184,0,0.275,0c-0.157,0,0.031,0.023,0.121,0.068
	c0.127,0.063,0.274,0.056,0.379-0.049c0.037-0.037,0.074-0.074,0.111-0.111c-0.147,0-0.295,0-0.442,0
	c0.037,0.037,0.074,0.074,0.111,0.111c-0.03-0.073-0.062-0.146-0.091-0.221c0,0.037,0,0.074,0,0.111
	c0.029-0.074,0.061-0.147,0.091-0.221c-0.155,0.152,0.058,0.019-0.04,0.051c-0.089,0.029-0.178,0.06-0.268,0.09
	c-0.184,0.061-0.361,0.145-0.541,0.217c-0.336,0.135-0.654,0.32-0.977,0.482C79.242,34.602,79.559,35.141,79.918,34.961z"/>
<rect id="_x3C_Slice_x3E__101_" fill="none" width="54.667" height="35.666"/>
<rect id="_x3C_Slice_x3E__100_" x="54.667" fill="none" width="56" height="35.666"/>
</svg>
