<?xml version="1.0" encoding="utf-8"?>
<!-- Generator: Adobe Illustrator 15.0.2, SVG Export Plug-In  -->
<!DOCTYPE svg PUBLIC "-//W3C//DTD SVG 1.1//EN" "http://www.w3.org/Graphics/SVG/1.1/DTD/svg11.dtd" [
	<!ENTITY ns_flows "http://ns.adobe.com/Flows/1.0/">
]>
<svg version="1.1"
	 xmlns="http://www.w3.org/2000/svg" xmlns:xlink="http://www.w3.org/1999/xlink" xmlns:a="http://ns.adobe.com/AdobeSVGViewerExtensions/3.0/"
	 x="0px" y="0px" width="35px" height="50px" viewBox="0 0.666 35 50" overflow="visible" enable-background="new 0 0.666 35 50"
	 xml:space="preserve">
<defs>
</defs>
<polygon fill-rule="evenodd" clip-rule="evenodd" points="8.319,26.025 8.319,25.693 8.208,25.471 8.097,25.248 7.875,25.137 
	7.764,24.914 7.542,24.805 7.319,24.693 6.986,24.693 6.764,24.693 6.542,24.805 6.319,24.914 6.208,25.137 5.986,25.248 
	5.875,25.471 5.764,25.693 5.764,26.025 5.764,26.248 5.875,26.471 5.986,26.693 6.208,26.805 6.319,27.025 6.542,27.137 
	6.764,27.248 6.986,27.248 7.319,27.248 7.542,27.137 7.764,27.025 7.875,26.805 8.097,26.693 8.208,26.471 8.319,26.248 
	8.319,26.025 "/>
<path d="M8.632,26.025c0-0.461-0.127-0.922-0.564-1.141c0.073,0.085,0.08,0.08,0.021-0.018c-0.03-0.061-0.055-0.125-0.104-0.174
	c-0.075-0.075-0.192-0.113-0.285-0.158c-0.247-0.122-0.402-0.154-0.679-0.154c-0.433,0-0.865,0.162-1.065,0.563
	c0.085-0.073,0.08-0.08-0.016-0.022c-0.061,0.031-0.126,0.057-0.175,0.105c-0.075,0.075-0.113,0.192-0.159,0.285
	c-0.123,0.246-0.154,0.402-0.154,0.678c0,0.434,0.163,0.865,0.564,1.066c-0.073-0.085-0.08-0.08-0.021,0.016
	c0.03,0.061,0.056,0.125,0.104,0.174c0.075,0.076,0.192,0.113,0.285,0.16c0.217,0.109,0.36,0.154,0.602,0.154
	c0.462,0,0.921-0.127,1.142-0.563c-0.085,0.073-0.08,0.08,0.016,0.022c0.061-0.031,0.126-0.057,0.175-0.105
	c0.075-0.075,0.113-0.192,0.159-0.285C8.586,26.411,8.632,26.268,8.632,26.025c0-0.402-0.625-0.402-0.625,0c0,0.062,0,0.125,0,0.188
	c0-0.185-0.026,0.015-0.068,0.1c-0.049,0.098-0.174,0.199-0.034,0.129c-0.083,0.041-0.184,0.076-0.25,0.143
	s-0.102,0.167-0.143,0.249c0.071-0.141-0.031-0.015-0.127,0.034C7.298,26.91,7.1,26.936,7.285,26.936c-0.1,0-0.199,0-0.299,0
	c-0.062,0-0.125,0-0.188,0c0.185,0-0.014-0.025-0.099-0.068c-0.097-0.049-0.198-0.175-0.127-0.034
	c-0.042-0.082-0.077-0.183-0.143-0.249s-0.168-0.102-0.25-0.143c0.14,0.07,0.015-0.031-0.034-0.129
	c-0.042-0.085-0.068-0.284-0.068-0.1c0-0.074,0-0.148,0-0.223c0-0.087,0-0.175,0-0.262c0,0.185,0.026-0.015,0.068-0.1
	c0.049-0.098,0.174-0.199,0.034-0.129c0.083-0.041,0.184-0.076,0.25-0.143c0.067-0.066,0.102-0.168,0.143-0.251
	c-0.07,0.14,0.03,0.017,0.127-0.032c0.085-0.042,0.284-0.068,0.099-0.068c0.074,0,0.148,0,0.222,0c0.088,0,0.176,0,0.264,0
	c-0.185,0,0.014,0.025,0.099,0.068c0.097,0.049,0.197,0.172,0.127,0.032c0.042,0.083,0.076,0.185,0.143,0.251
	c0.066,0.066,0.168,0.102,0.25,0.143c-0.14-0.07-0.015,0.031,0.034,0.129c0.042,0.085,0.068,0.284,0.068,0.1
	c0,0.099,0,0.197,0,0.297C8.007,26.428,8.632,26.428,8.632,26.025z"/>
<rect id="_x3C_Slice_x3E__100_" fill="none" width="35" height="50.666"/>
</svg>
