<?xml version="1.0" encoding="utf-8"?>
<!-- Generator: Adobe Illustrator 15.0.2, SVG Export Plug-In  -->
<!DOCTYPE svg PUBLIC "-//W3C//DTD SVG 1.1//EN" "http://www.w3.org/Graphics/SVG/1.1/DTD/svg11.dtd" [
	<!ENTITY ns_flows "http://ns.adobe.com/Flows/1.0/">
]>
<svg version="1.1"
	 xmlns="http://www.w3.org/2000/svg" xmlns:xlink="http://www.w3.org/1999/xlink" xmlns:a="http://ns.adobe.com/AdobeSVGViewerExtensions/3.0/"
	 x="0px" y="0px" width="56px" height="55px" viewBox="54.333 0 56 55" overflow="visible" enable-background="new 54.333 0 56 55"
	 xml:space="preserve">
<defs>
</defs>
<path d="M73.337,22.583c0,3.148,0,6.296,0,9.444c0,0.403,0.625,0.403,0.625,0c0-3.148,0-6.296,0-9.444
	C73.962,22.18,73.337,22.18,73.337,22.583L73.337,22.583z"/>
<path d="M85.093,30.271c-3.519,0-7.037,0-10.555,0c-0.403,0-0.403,0.625,0,0.625c3.518,0,7.036,0,10.555,0
	C85.495,30.896,85.495,30.271,85.093,30.271L85.093,30.271z"/>
<path d="M85.093,27.048c-3.519,0-7.037,0-10.555,0c-0.403,0-0.403,0.625,0,0.625c3.518,0,7.036,0,10.555,0
	C85.495,27.673,85.495,27.048,85.093,27.048L85.093,27.048z"/>
<path d="M85.093,23.715c-3.519,0-7.037,0-10.555,0c-0.403,0-0.403,0.625,0,0.625c3.518,0,7.036,0,10.555,0
	C85.495,24.34,85.495,23.715,85.093,23.715L85.093,23.715z"/>
<rect id="_x3C_Slice_x3E__103_" y="54.667" fill="none" width="54.667" height="54.667"/>
<rect id="_x3C_Slice_x3E__102_" x="54.667" y="54.667" fill="none" width="56" height="54.667"/>
<rect id="_x3C_Slice_x3E__101_" fill="none" width="54.667" height="54.667"/>
<rect id="_x3C_Slice_x3E__100_" x="54.667" fill="none" width="56" height="54.667"/>
</svg>
