<?xml version="1.0" encoding="utf-8"?>
<!-- Generator: Adobe Illustrator 15.0.2, SVG Export Plug-In  -->
<!DOCTYPE svg PUBLIC "-//W3C//DTD SVG 1.1//EN" "http://www.w3.org/Graphics/SVG/1.1/DTD/svg11.dtd" [
	<!ENTITY ns_flows "http://ns.adobe.com/Flows/1.0/">
]>
<svg version="1.1"
	 xmlns="http://www.w3.org/2000/svg" xmlns:xlink="http://www.w3.org/1999/xlink" xmlns:a="http://ns.adobe.com/AdobeSVGViewerExtensions/3.0/"
	 x="0px" y="0px" width="32px" height="58px" viewBox="51.666 0 32 58" overflow="visible" enable-background="new 51.666 0 32 58"
	 xml:space="preserve">
<defs>
</defs>
<polygon fill-rule="evenodd" clip-rule="evenodd" points="77.314,30.248 77.203,30.137 77.092,29.914 76.98,29.805 76.758,29.805 
	76.537,29.805 76.426,29.914 76.314,30.137 76.203,30.248 76.314,30.471 76.426,30.693 76.537,30.805 76.758,30.805 76.98,30.805 
	77.092,30.693 77.203,30.471 77.314,30.248 "/>
<path d="M77.535,30.027c-0.024-0.024-0.049-0.049-0.072-0.072c-0.066-0.066,0.035,0.076-0.025-0.047
	c-0.04-0.079-0.072-0.163-0.137-0.227c-0.173-0.17-0.311-0.189-0.543-0.189s-0.37,0.021-0.542,0.189
	c-0.064,0.063-0.097,0.147-0.136,0.227c-0.02,0.038-0.07,0.091,0.002,0.02c-0.033,0.033-0.066,0.066-0.101,0.1
	c-0.104,0.104-0.112,0.252-0.049,0.379c0.074,0.148,0.148,0.297,0.223,0.445c0.12,0.239,0.368,0.266,0.603,0.266
	s0.482-0.025,0.604-0.266c0.074-0.148,0.148-0.297,0.223-0.445c0.18-0.359-0.359-0.676-0.54-0.316
	c-0.042,0.086-0.085,0.172-0.128,0.258c-0.03,0.06-0.061,0.119-0.09,0.178c0.053-0.104-0.035,0.025-0.067,0.059
	c0.073-0.031,0.147-0.062,0.222-0.092c-0.148,0-0.296,0-0.443,0c0.073,0.03,0.146,0.061,0.221,0.092
	c-0.033-0.033-0.12-0.163-0.067-0.059c-0.03-0.059-0.06-0.118-0.089-0.178c-0.043-0.086-0.086-0.172-0.129-0.258
	c-0.017,0.127-0.033,0.253-0.049,0.379c0.077-0.077,0.146-0.146,0.195-0.244c0.023-0.049,0.047-0.096,0.071-0.143
	c-0.052,0.104,0.034-0.023,0.067-0.057c-0.074,0.031-0.147,0.062-0.221,0.092c0.147,0,0.295,0,0.443,0
	c-0.074-0.03-0.148-0.061-0.222-0.092c0.034,0.033,0.067,0.065,0.101,0.098c-0.086-0.083,0.018,0.061,0.038,0.102
	c0.05,0.098,0.118,0.167,0.195,0.244C77.379,30.754,77.82,30.312,77.535,30.027z"/>
<path d="M72.584,33.184c1.48-2.481,2.962-4.963,4.443-7.443c-0.18,0-0.359,0-0.54,0c1.444,2.48,2.89,4.962,4.334,7.443
	c0.091-0.157,0.181-0.314,0.271-0.471c-2.926,0-5.852,0-8.777,0c-0.403,0-0.403,0.625,0,0.625c2.926,0,5.852,0,8.777,0
	c0.236,0,0.389-0.266,0.27-0.471c-1.445-2.48-2.89-4.962-4.334-7.443c-0.119-0.203-0.42-0.2-0.54,0
	c-1.481,2.481-2.962,4.963-4.443,7.443C71.837,33.215,72.377,33.529,72.584,33.184L72.584,33.184z"/>
<rect id="_x3C_Slice_x3E__103_" y="57.334" fill="none" width="52" height="52"/>
<rect id="_x3C_Slice_x3E__102_" x="52" y="57.334" fill="none" width="31.666" height="52"/>
<rect id="_x3C_Slice_x3E__101_" fill="none" width="52" height="57.334"/>
<rect id="_x3C_Slice_x3E__100_" x="52" fill="none" width="31.666" height="57.334"/>
</svg>
