<?xml version="1.0" encoding="utf-8"?>
<!-- Generator: Adobe Illustrator 15.0.2, SVG Export Plug-In  -->
<!DOCTYPE svg PUBLIC "-//W3C//DTD SVG 1.1//EN" "http://www.w3.org/Graphics/SVG/1.1/DTD/svg11.dtd" [
	<!ENTITY ns_flows "http://ns.adobe.com/Flows/1.0/">
]>
<svg version="1.1"
	 xmlns="http://www.w3.org/2000/svg" xmlns:xlink="http://www.w3.org/1999/xlink" xmlns:a="http://ns.adobe.com/AdobeSVGViewerExtensions/3.0/"
	 x="0px" y="0px" width="60px" height="53px" viewBox="0 0.333 60 53" overflow="visible" enable-background="new 0 0.333 60 53"
	 xml:space="preserve">
<defs>
</defs>
<path d="M22.339,21.25c0,3.592,0,7.185,0,10.777c0,0.403,0.625,0.403,0.625,0c0-3.592,0-7.185,0-10.777
	C22.964,20.847,22.339,20.847,22.339,21.25L22.339,21.25z"/>
<path d="M26.494,31.186c1.05,0.789,1.985,1.167,3.205,0.556c0.883-0.442,2.179-2.706,1.285-3.602
	c-0.58-0.582-0.944-1.294-1.623-1.802c-0.77-0.576-1.929-0.893-2.384-1.801c-0.97-1.936,2.047-3.5,3.183-1.795
	c0.223,0.333,0.764,0.021,0.54-0.315c-2.216-3.327-6.673,1.749-3.316,3.427c1.755,0.878,3.854,2.419,2.777,4.573
	c-0.743,1.485-2.294,1.013-3.351,0.221C26.486,30.404,26.176,30.947,26.494,31.186L26.494,31.186z"/>
<path d="M33.587,25.869c-0.331-0.147-0.662-0.295-0.993-0.442c-0.257-0.114-0.664-0.341-0.832-0.509
	c-0.121-0.121-0.321-0.12-0.442,0c-0.383,0.382-0.088,0.798,0.223,1.108c-0.031-0.074-0.062-0.147-0.092-0.221
	c0,0.222,0,0.444,0,0.666c0.03-0.073,0.061-0.147,0.092-0.221c-0.225,0.225-0.425,0.44-0.425,0.776c0,0.171,0.142,0.312,0.312,0.312
	c0.242,0,0.377-0.025,0.554-0.202c0.076-0.077,0.182-0.114-0.016-0.035c0.044-0.018,0.089-0.036,0.133-0.054
	c0.124-0.049,0.247-0.099,0.371-0.147c0.377-0.151,0.745-0.328,1.116-0.493c0.368-0.164,0.05-0.702-0.315-0.54
	c-0.331,0.147-0.662,0.294-0.993,0.441c0.146-0.064-0.11,0.043-0.141,0.055c-0.102,0.041-0.204,0.082-0.306,0.122
	c-0.17,0.068-0.273,0.191-0.401,0.319c0.073-0.03,0.147-0.061,0.221-0.092c-0.074,0-0.148,0-0.222,0
	c0.104,0.104,0.208,0.208,0.312,0.312c0-0.177-0.087,0.136,0.03-0.098c0.035-0.07,0.104-0.129,0.184-0.208
	c0.154-0.154,0.12-0.354,0.12-0.554c0-0.153,0.038-0.383-0.043-0.521c-0.099-0.168-0.225-0.351-0.382-0.507
	c0.03,0.074,0.061,0.147,0.091,0.221c0-0.037,0-0.074,0-0.111c-0.031,0.073-0.061,0.147-0.091,0.221
	c0.037-0.037,0.074-0.074,0.111-0.111c-0.147,0-0.295,0-0.442,0c0.254,0.253,0.635,0.414,0.943,0.598
	c0.309,0.186,0.679,0.304,1.009,0.451C33.636,26.571,33.955,26.033,33.587,25.869z"/>
<path d="M31.763,25.826c-2.593,0-5.186,0-7.778,0c-0.403,0-0.403,0.625,0,0.625c2.592,0,5.185,0,7.778,0
	C32.166,26.451,32.166,25.826,31.763,25.826L31.763,25.826z"/>
<rect id="_x3C_Slice_x3E__100_" fill="none" width="60" height="53.333"/>
</svg>
