<?xml version="1.0" encoding="utf-8"?>
<!-- Generator: Adobe Illustrator 15.0.2, SVG Export Plug-In  -->
<!DOCTYPE svg PUBLIC "-//W3C//DTD SVG 1.1//EN" "http://www.w3.org/Graphics/SVG/1.1/DTD/svg11.dtd" [
	<!ENTITY ns_flows "http://ns.adobe.com/Flows/1.0/">
]>
<svg version="1.1"
	 xmlns="http://www.w3.org/2000/svg" xmlns:xlink="http://www.w3.org/1999/xlink" xmlns:a="http://ns.adobe.com/AdobeSVGViewerExtensions/3.0/"
	 x="0px" y="0px" width="35px" height="58px" viewBox="0 0 35 58" overflow="visible" enable-background="new 0 0 35 58"
	 xml:space="preserve">
<defs>
</defs>
<polygon fill-rule="evenodd" clip-rule="evenodd" points="7.542,29.248 7.542,29.137 7.43,28.914 7.208,28.805 6.986,28.805 
	6.875,28.805 6.652,28.914 6.542,29.137 6.542,29.248 6.542,29.471 6.652,29.693 6.875,29.805 6.986,29.805 7.208,29.805 
	7.43,29.693 7.542,29.471 7.542,29.248 "/>
<path d="M7.854,29.248c0-0.179-0.082-0.514-0.266-0.604c-0.074-0.037-0.148-0.073-0.222-0.109c-0.119-0.059-0.251-0.043-0.38-0.043
	c-0.5,0-0.757,0.379-0.757,0.844c0,0.189,0.07,0.529,0.266,0.627c0.201,0.101,0.354,0.154,0.579,0.154
	c0.189,0,0.529-0.07,0.627-0.266c0.037-0.074,0.074-0.148,0.111-0.223C7.87,29.51,7.854,29.376,7.854,29.248
	c0-0.402-0.625-0.402-0.625,0c0,0.07,0,0.141,0,0.211c0-0.135,0.061-0.182,0.007-0.076c-0.02,0.039-0.039,0.079-0.059,0.118
	c-0.052,0.104,0.165-0.112,0.06-0.06C7.199,29.461,7.16,29.48,7.121,29.5c-0.106,0.053-0.059-0.008,0.075-0.008
	c-0.041,0-0.082,0-0.123,0c-0.061,0-0.121,0-0.181,0c0.129,0,0.175,0.061,0.069,0.008c-0.039-0.02-0.078-0.039-0.117-0.059
	c-0.104-0.053,0.112,0.164,0.06,0.06c-0.02-0.039-0.039-0.079-0.058-0.118c-0.053-0.105,0.007-0.059,0.007,0.076
	c0-0.041,0-0.082,0-0.123c0-0.061,0-0.121,0-0.182c0,0.129-0.06,0.175-0.007,0.07c0.02-0.039,0.039-0.079,0.058-0.118
	c0.052-0.104-0.165,0.112-0.06,0.061c0.039-0.02,0.078-0.038,0.117-0.058c0.162-0.08-0.197,0.008,0.024,0.008c0.07,0,0.14,0,0.21,0
	c-0.134,0-0.181-0.061-0.075-0.008c0.039,0.02,0.078,0.038,0.117,0.058c0.104,0.052-0.112-0.165-0.06-0.061
	c0.02,0.039,0.039,0.079,0.059,0.118c0.081,0.16-0.007-0.198-0.007,0.023C7.229,29.65,7.854,29.65,7.854,29.248z"/>
<path d="M8.542,29.248h-3 M7.764,27.914l-1.444,2.779 M7.764,30.693l-1.444-2.779"/>
<path d="M8.542,28.936c-1,0-2,0-3,0c-0.403,0-0.403,0.625,0,0.625c1,0,2,0,3,0C8.944,29.561,8.944,28.936,8.542,28.936L8.542,28.936
	z"/>
<path d="M7.494,27.756c-0.481,0.927-0.963,1.854-1.444,2.779c-0.186,0.357,0.354,0.674,0.539,0.316
	c0.481-0.927,0.963-1.854,1.444-2.779C8.219,27.715,7.68,27.398,7.494,27.756L7.494,27.756z"/>
<path d="M8.033,30.535c-0.481-0.926-0.963-1.853-1.444-2.779c-0.186-0.357-0.725-0.041-0.539,0.316
	c0.481,0.926,0.963,1.853,1.444,2.779C7.68,31.209,8.219,30.893,8.033,30.535L8.033,30.535z"/>
<rect id="_x3C_Slice_x3E__101_" y="57.334" fill="none" width="35" height="52"/>
<rect id="_x3C_Slice_x3E__100_" fill="none" width="35" height="57.334"/>
</svg>
