<?xml version="1.0" encoding="utf-8"?>
<!-- Generator: Adobe Illustrator 15.0.2, SVG Export Plug-In  -->
<!DOCTYPE svg PUBLIC "-//W3C//DTD SVG 1.1//EN" "http://www.w3.org/Graphics/SVG/1.1/DTD/svg11.dtd" [
	<!ENTITY ns_flows "http://ns.adobe.com/Flows/1.0/">
]>
<svg version="1.1"
	 xmlns="http://www.w3.org/2000/svg" xmlns:xlink="http://www.w3.org/1999/xlink" xmlns:a="http://ns.adobe.com/AdobeSVGViewerExtensions/3.0/"
	 x="0px" y="0px" width="52px" height="51px" viewBox="0 0.333 52 51" overflow="visible" enable-background="new 0 0.333 52 51"
	 xml:space="preserve">
<defs>
</defs>
<path d="M24.319,30.716c-1.185,0-2.371,0-3.556,0c-0.403,0-0.403,0.625,0,0.625c1.185,0,2.371,0,3.556,0
	C24.722,31.341,24.722,30.716,24.319,30.716L24.319,30.716z"/>
<path d="M31.319,30.716c-1.185,0-2.371,0-3.556,0c-0.403,0-0.403,0.625,0,0.625c1.185,0,2.371,0,3.556,0
	C31.722,31.341,31.722,30.716,31.319,30.716L31.319,30.716z"/>
<path d="M24.319,26.383c-1.185,0-2.371,0-3.556,0c-0.403,0-0.403,0.625,0,0.625c1.185,0,2.371,0,3.556,0
	C24.722,27.008,24.722,26.383,24.319,26.383L24.319,26.383z"/>
<path d="M31.319,26.383c-1.185,0-2.371,0-3.556,0c-0.403,0-0.403,0.625,0,0.625c1.185,0,2.371,0,3.556,0
	C31.722,27.008,31.722,26.383,31.319,26.383L31.319,26.383z"/>
<rect id="_x3C_Slice_x3E__101_" y="50.667" fill="none" width="52" height="57.333"/>
<rect id="_x3C_Slice_x3E__100_" fill="none" width="52" height="50.667"/>
</svg>
