<?xml version="1.0" encoding="utf-8"?>
<!-- Generator: Adobe Illustrator 15.0.2, SVG Export Plug-In  -->
<!DOCTYPE svg PUBLIC "-//W3C//DTD SVG 1.1//EN" "http://www.w3.org/Graphics/SVG/1.1/DTD/svg11.dtd" [
	<!ENTITY ns_flows "http://ns.adobe.com/Flows/1.0/">
]>
<svg version="1.1"
	 xmlns="http://www.w3.org/2000/svg" xmlns:xlink="http://www.w3.org/1999/xlink" xmlns:a="http://ns.adobe.com/AdobeSVGViewerExtensions/3.0/"
	 x="0px" y="0px" width="57px" height="53px" viewBox="47.667 0.333 57 53"
	 overflow="visible" enable-background="new 47.667 0.333 57 53" xml:space="preserve">
<defs>
</defs>
<path d="M71.004,21.25c0,3.592,0,7.185,0,10.777c0,0.403,0.625,0.403,0.625,0c0-3.592,0-7.185,0-10.777
	C71.629,20.847,71.004,20.847,71.004,21.25L71.004,21.25z"/>
<path d="M75.159,31.186c1.053,0.788,1.982,1.167,3.204,0.556c0.884-0.442,2.181-2.708,1.286-3.602
	c-0.582-0.582-0.945-1.293-1.623-1.802c-0.77-0.578-1.928-0.892-2.384-1.801c-0.97-1.936,2.044-3.5,3.182-1.795
	c0.223,0.333,0.765,0.021,0.54-0.315c-2.221-3.327-6.67,1.754-3.316,3.427c1.756,0.876,3.855,2.42,2.776,4.573
	c-0.744,1.485-2.292,1.013-3.35,0.221C75.151,30.404,74.84,30.947,75.159,31.186L75.159,31.186z"/>
<path d="M80.872,25.159c-2.74,0-5.48,0-8.221,0c-0.403,0-0.403,0.625,0,0.625c2.74,0,5.48,0,8.221,0
	C81.274,25.784,81.274,25.159,80.872,25.159L80.872,25.159z"/>
<path d="M80.872,26.493c-2.74,0-5.48,0-8.221,0c-0.403,0-0.403,0.625,0,0.625c2.74,0,5.48,0,8.221,0
	C81.274,27.118,81.274,26.493,80.872,26.493L80.872,26.493z"/>
<path d="M80.474,27.409c0.593-0.333,1.185-0.667,1.777-1c0.203-0.114,0.203-0.425,0-0.54c-0.593-0.333-1.185-0.667-1.777-1
	c-0.352-0.198-0.667,0.342-0.315,0.54c0.592,0.333,1.186,0.667,1.777,1c0-0.18,0-0.36,0-0.54c-0.592,0.333-1.186,0.667-1.777,1
	C79.807,27.066,80.123,27.606,80.474,27.409L80.474,27.409z"/>
<rect id="_x3C_Slice_x3E__101_" fill="none" width="48" height="53.333"/>
<rect id="_x3C_Slice_x3E__100_" x="48" fill="none" width="57.333" height="53.333"/>
</svg>
