<?xml version="1.0" encoding="utf-8"?>
<!-- Generator: Adobe Illustrator 15.0.2, SVG Export Plug-In  -->
<!DOCTYPE svg PUBLIC "-//W3C//DTD SVG 1.1//EN" "http://www.w3.org/Graphics/SVG/1.1/DTD/svg11.dtd" [
	<!ENTITY ns_flows "http://ns.adobe.com/Flows/1.0/">
]>
<svg version="1.1"
	 xmlns="http://www.w3.org/2000/svg" xmlns:xlink="http://www.w3.org/1999/xlink" xmlns:a="http://ns.adobe.com/AdobeSVGViewerExtensions/3.0/"
	 x="0px" y="0px" width="56px" height="51px" viewBox="54.333 0.333 56 51"
	 overflow="visible" enable-background="new 54.333 0.333 56 51" xml:space="preserve">
<defs>
</defs>
<path d="M76.114,21.807c0,3.222,0,6.444,0,9.666c0,0.403,0.625,0.403,0.625,0c0-3.222,0-6.444,0-9.666
	C76.739,21.403,76.114,21.403,76.114,21.807L76.114,21.807z"/>
<path d="M82.87,29.919c-0.572-0.69-1.145-1.381-1.717-2.071c-0.371-0.449-0.744-0.897-1.115-1.347
	c-0.107-0.129-0.215-0.259-0.322-0.388c-0.186-0.224-0.18,0.489-0.01,0.29c1.24-1.458,2.479-2.917,3.719-4.375
	c0.17-0.201,0.068-0.533-0.221-0.533c-2.741,0-5.482,0-8.223,0c-0.403,0-0.403,0.625,0,0.625c2.74,0,5.481,0,8.223,0
	c-0.074-0.178-0.148-0.356-0.222-0.534c-1.259,1.481-2.519,2.963-3.777,4.444c-0.118,0.139-0.115,0.302,0,0.442
	c1.074,1.296,2.148,2.593,3.223,3.889C82.686,30.671,83.125,30.227,82.87,29.919L82.87,29.919z"/>
<polygon fill-rule="evenodd" clip-rule="evenodd" points="83.761,31.473 83.427,30.362 83.315,29.695 83.315,29.362 83.204,29.251 
	83.204,29.251 83.093,29.251 83.093,29.251 82.981,29.362 82.981,29.473 82.981,29.695 82.872,29.917 82.761,30.028 82.649,30.14 
	82.538,30.251 82.315,30.362 82.204,30.362 81.981,30.362 81.761,30.362 81.649,30.362 81.649,30.473 81.649,30.584 81.761,30.584 
	82.093,30.695 82.761,30.917 83.761,31.473 "/>
<path d="M84.062,31.39c-0.113-0.379-0.277-0.77-0.342-1.16c-0.021-0.122-0.041-0.244-0.062-0.366
	c-0.011-0.067-0.022-0.134-0.034-0.201c-0.021-0.126,0.004,0.137,0.004-0.053c0-0.262-0.033-0.575-0.342-0.66
	c-0.236-0.065-0.539,0.083-0.606,0.33c-0.026,0.094-0.011,0.208-0.011,0.305c0,0.228,0.088-0.14,0.004,0.032
	c0.008-0.015-0.094,0.151-0.051,0.109c-0.162,0.163-0.256,0.262-0.441,0.355c0.156-0.079-0.113-0.031-0.199-0.031
	c-0.111,0-0.222,0-0.332,0c-0.171,0-0.312,0.142-0.312,0.312c0,0.074,0,0.148,0,0.222c0,0.171,0.142,0.312,0.312,0.312
	c0.131,0,0.275,0.072,0.409,0.116c0.122,0.041,0.245,0.082,0.367,0.122c0.04,0.014,0.312,0.127,0.185,0.057
	c0.33,0.184,0.661,0.367,0.992,0.551c0.353,0.196,0.668-0.344,0.315-0.54c-0.343-0.191-0.701-0.463-1.075-0.587
	c-0.365-0.122-0.805-0.345-1.193-0.345c0.104,0.104,0.208,0.208,0.312,0.312c0-0.074,0-0.148,0-0.222
	c-0.104,0.104-0.209,0.208-0.312,0.312c0.389,0,0.836,0.069,1.139-0.232c0.347-0.346,0.506-0.578,0.506-1.081
	c-0.031,0.073-0.062,0.147-0.092,0.221c0.037-0.037,0.074-0.074,0.111-0.111c-0.074,0.03-0.147,0.061-0.221,0.092
	c0.037,0,0.074,0,0.111,0c-0.074-0.031-0.148-0.062-0.222-0.092c0.037,0.037,0.074,0.074,0.111,0.111
	c-0.03-0.074-0.062-0.147-0.091-0.221c0,0.768,0.236,1.465,0.456,2.193C83.575,31.941,84.178,31.777,84.062,31.39z"/>
<rect id="_x3C_Slice_x3E__103_" y="50.667" fill="none" width="54.667" height="57.333"/>
<rect id="_x3C_Slice_x3E__102_" x="54.667" y="50.667" fill="none" width="56" height="57.333"/>
<rect id="_x3C_Slice_x3E__101_" fill="none" width="54.667" height="50.667"/>
<rect id="_x3C_Slice_x3E__100_" x="54.667" fill="none" width="56" height="50.667"/>
</svg>
