<?xml version="1.0" encoding="utf-8"?>
<!-- Generator: Adobe Illustrator 15.0.2, SVG Export Plug-In  -->
<!DOCTYPE svg PUBLIC "-//W3C//DTD SVG 1.1//EN" "http://www.w3.org/Graphics/SVG/1.1/DTD/svg11.dtd" [
	<!ENTITY ns_flows "http://ns.adobe.com/Flows/1.0/">
]>
<svg version="1.1"
	 xmlns="http://www.w3.org/2000/svg" xmlns:xlink="http://www.w3.org/1999/xlink" xmlns:a="http://ns.adobe.com/AdobeSVGViewerExtensions/3.0/"
	 x="0px" y="0px" width="48px" height="57px" viewBox="53 0.667 48 57" overflow="visible" enable-background="new 53 0.667 48 57"
	 xml:space="preserve">
<defs>
</defs>
<path d="M79.349,28.222c0.43,1.074,1.115,3.604-0.977,3.604c-1.858,0-4.177-2.475-5.446-3.741c-0.833-0.833-3.055-0.872-3.657,0.341
	c-0.66,1.328-0.571,2.325,0.223,3.648c0.207,0.346,0.747,0.031,0.539-0.315c-0.709-1.184-1.061-3.641,1.063-3.641
	c1.811,0,3.6,2.173,4.779,3.353c0.802,0.803,3.075,1.669,3.935,0.381c0.928-1.389,0.761-2.255,0.143-3.797
	C79.804,27.687,79.199,27.848,79.349,28.222L79.349,28.222z"/>
<path d="M80.539,24.452c0.688,0,1.375,0,2.062,0c0.581,0,0.069-0.197,0.069-0.219c0,0.229,0,0.458,0,0.688c0,1.684,0,3.368,0,5.052
	s0,3.369,0,5.052c0,0.83-0.104,0.469,0.208,0.469c-0.78,0-1.56,0-2.339,0c-0.403,0-0.403,0.625,0,0.625c0.814,0,1.63,0,2.444,0
	c0.17,0,0.312-0.143,0.312-0.312c0-3.889,0-7.778,0-11.667c0-0.17-0.142-0.312-0.312-0.312c-0.814,0-1.63,0-2.444,0
	C80.136,23.827,80.136,24.452,80.539,24.452L80.539,24.452z"/>
<rect id="_x3C_Slice_x3E__103_" y="57.333" fill="none" width="53.333" height="53.333"/>
<rect id="_x3C_Slice_x3E__102_" x="53.333" y="57.333" fill="none" width="48" height="53.333"/>
<rect id="_x3C_Slice_x3E__101_" fill="none" width="53.333" height="57.333"/>
<rect id="_x3C_Slice_x3E__100_" x="53.333" fill="none" width="48" height="57.333"/>
</svg>
