<?xml version="1.0" encoding="utf-8"?>
<!-- Generator: Adobe Illustrator 15.0.2, SVG Export Plug-In  -->
<!DOCTYPE svg PUBLIC "-//W3C//DTD SVG 1.1//EN" "http://www.w3.org/Graphics/SVG/1.1/DTD/svg11.dtd" [
	<!ENTITY ns_flows "http://ns.adobe.com/Flows/1.0/">
]>
<svg version="1.1"
	 xmlns="http://www.w3.org/2000/svg" xmlns:xlink="http://www.w3.org/1999/xlink" xmlns:a="http://ns.adobe.com/AdobeSVGViewerExtensions/3.0/"
	 x="0px" y="0px" width="57px" height="50px" viewBox="47.667 0.666 57 50"
	 overflow="visible" enable-background="new 47.667 0.666 57 50" xml:space="preserve">
<defs>
</defs>
<polygon fill-rule="evenodd" clip-rule="evenodd" points="75.428,26.025 75.428,25.693 75.317,25.471 75.206,25.248 75.094,25.137 
	74.872,24.914 74.651,24.805 74.428,24.693 74.206,24.693 73.983,24.693 73.651,24.805 73.428,24.914 73.317,25.137 73.094,25.248 
	72.983,25.471 72.983,25.693 72.872,26.025 72.983,26.248 72.983,26.471 73.094,26.693 73.317,26.805 73.428,27.025 73.651,27.137 
	73.983,27.248 74.206,27.248 74.428,27.248 74.651,27.137 74.872,27.025 75.094,26.805 75.206,26.693 75.317,26.471 75.428,26.248 
	75.428,26.025 "/>
<path d="M75.741,26.025c0-0.857-0.684-1.645-1.57-1.645c-0.438,0-0.905,0.16-1.106,0.563c0.085-0.073,0.08-0.08-0.017-0.022
	c-0.061,0.031-0.125,0.057-0.175,0.105c-0.075,0.075-0.113,0.192-0.16,0.285c-0.107,0.216-0.063,0.394-0.143,0.63
	c-0.042,0.126,0.033,0.244,0.087,0.353c0.047,0.105,0.052,0.102,0.014-0.012c0,0.062,0,0.125,0,0.188
	c0,0.229,0.188,0.453,0.377,0.549c0.097,0.058,0.102,0.051,0.017-0.022c0.031,0.062,0.062,0.124,0.094,0.187
	c0.056,0.109,0.198,0.154,0.3,0.205c0.163,0.082,0.377,0.172,0.56,0.172c0.432,0,0.831-0.072,1.153-0.393
	C75.495,26.848,75.741,26.496,75.741,26.025c0-0.402-0.625-0.402-0.625,0c0,0.062,0,0.125,0,0.188c0-0.185-0.026,0.015-0.069,0.1
	c-0.074,0.149-0.135,0.232-0.252,0.35c-0.112,0.111-0.187,0.147-0.337,0.223c-0.051,0.025-0.102,0.051-0.152,0.076
	c0.113-0.023,0.117-0.032,0.012-0.025c-0.074,0-0.148,0-0.223,0c-0.066,0-0.259-0.055-0.32-0.086
	c-0.052-0.025-0.103-0.051-0.154-0.076c0.073,0.085,0.08,0.08,0.022-0.016c-0.042-0.082-0.079-0.179-0.168-0.223
	c-0.097-0.049-0.198-0.174-0.128-0.034c-0.025-0.052-0.051-0.103-0.076-0.153c0.023,0.113,0.031,0.117,0.025,0.012
	c0-0.097,0.002-0.18-0.043-0.27c-0.019-0.037-0.037-0.074-0.056-0.111c-0.057-0.133-0.062-0.099-0.017,0.105
	c0.047-0.137,0.115-0.279,0.115-0.426c0-0.25-0.059,0.001,0.013-0.141c0.058-0.098,0.051-0.103-0.022-0.018
	c0.052-0.025,0.103-0.051,0.154-0.076c0.074-0.037,0.126-0.089,0.164-0.164c0.025-0.051,0.051-0.102,0.076-0.153
	c-0.086,0.073-0.08,0.081,0.017,0.022c0.108-0.053,0.298-0.123,0.397-0.123c0.049,0,0.098,0,0.146,0c0.25,0-0.001-0.059,0.142,0.014
	c0.17,0.084,0.287,0.135,0.413,0.26c0.116,0.117,0.178,0.2,0.252,0.35c0.043,0.085,0.069,0.284,0.069,0.1c0,0.099,0,0.197,0,0.297
	C75.116,26.428,75.741,26.428,75.741,26.025z"/>
<polygon fill-rule="evenodd" clip-rule="evenodd" points="77.872,30.137 77.762,29.805 77.762,29.582 77.651,29.359 77.428,29.248 
	77.317,29.025 77.094,28.914 76.872,28.914 76.54,28.805 76.317,28.914 76.094,28.914 75.872,29.025 75.651,29.248 75.54,29.359 
	75.428,29.582 75.317,29.805 75.317,30.137 75.317,30.359 75.428,30.582 75.54,30.805 75.651,31.025 75.872,31.137 76.094,31.248 
	76.317,31.359 76.54,31.359 76.872,31.359 77.094,31.248 77.317,31.137 77.428,31.025 77.651,30.805 77.762,30.582 77.762,30.359 
	77.872,30.137 "/>
<path d="M78.172,30.054c-0.111-0.339-0.064-0.813-0.476-1.021c-0.097-0.058-0.103-0.051-0.017,0.022
	c-0.031-0.063-0.062-0.126-0.094-0.188c-0.055-0.109-0.199-0.154-0.301-0.205c-0.216-0.109-0.369-0.062-0.578-0.131
	c-0.115-0.037-0.211-0.053-0.326,0.004c-0.037,0.018-0.074,0.036-0.111,0.055c-0.217,0.105,0.155,0.012-0.064,0.012
	c-0.205,0-0.431,0.076-0.578,0.227c-0.293,0.295-0.623,0.65-0.623,1.094c0,0.184-0.041,0.428,0.042,0.596
	c0.093,0.185,0.185,0.37,0.278,0.555c0.156,0.31,0.762,0.6,1.104,0.6c0.447,0,0.858-0.063,1.191-0.396
	c0.164-0.164,0.291-0.293,0.395-0.501c0.052-0.104,0.061-0.19,0.061-0.304c0.007-0.105-0.002-0.102-0.025,0.012
	c0.03-0.062,0.061-0.125,0.092-0.188c0.177-0.361-0.362-0.678-0.54-0.316c-0.065,0.133-0.151,0.264-0.151,0.416
	c0,0.25,0.058-0.001-0.014,0.141c-0.043,0.088-0.068,0.109-0.15,0.191c-0.117,0.115-0.201,0.178-0.35,0.252
	c-0.086,0.043-0.285,0.068-0.1,0.068c-0.1,0-0.198,0-0.297,0c-0.088,0-0.268-0.059-0.1,0.025c-0.074-0.037-0.148-0.074-0.223-0.111
	s-0.148-0.074-0.223-0.111c-0.051-0.025-0.102-0.051-0.152-0.076c0.073,0.085,0.08,0.08,0.022-0.016
	c-0.075-0.148-0.149-0.297-0.223-0.445c-0.071-0.142-0.013,0.109-0.013-0.141c0-0.084,0-0.167,0-0.25
	c0-0.232-0.095,0.144,0.013-0.07c0.037-0.074,0.074-0.148,0.111-0.223c0.069-0.141,0.202-0.246,0.315-0.359
	c0.041-0.041,0.259-0.043,0.06-0.043c0.087,0,0.187,0.012,0.271-0.012c0.09-0.023,0.18-0.082,0.264-0.123
	c-0.201-0.002-0.24,0.013-0.121,0.043c0.054,0.018,0.107,0.035,0.16,0.053c0.069,0.022,0.13,0.039,0.204,0.039
	c0.25,0-0.001-0.059,0.142,0.014c0.097,0.058,0.102,0.051,0.017-0.022c0.025,0.052,0.052,0.103,0.077,0.153
	c0.037,0.075,0.088,0.127,0.164,0.164c0.051,0.025,0.102,0.051,0.152,0.076c-0.072-0.085-0.08-0.08-0.021,0.018
	c0.071,0.142,0.014-0.109,0.014,0.141c0,0.154,0.072,0.306,0.12,0.45C77.696,30.601,78.299,30.438,78.172,30.054z"/>
<polygon fill-rule="evenodd" clip-rule="evenodd" points="77.872,21.805 77.762,21.582 77.762,21.359 77.651,21.137 77.428,20.914 
	77.317,20.805 77.094,20.693 76.872,20.582 76.54,20.582 76.317,20.582 76.094,20.693 75.872,20.805 75.651,20.914 75.54,21.137 
	75.428,21.359 75.317,21.582 75.317,21.805 75.317,22.137 75.428,22.359 75.54,22.582 75.651,22.693 75.872,22.914 76.094,23.025 
	76.317,23.025 76.54,23.137 76.872,23.025 77.094,23.025 77.317,22.914 77.428,22.693 77.651,22.582 77.762,22.359 77.762,22.137 
	77.872,21.805 "/>
<path d="M78.141,21.646c-0.042-0.085-0.066-0.284-0.066-0.1c0-0.119,0.012-0.235-0.043-0.346c-0.105-0.211-0.217-0.342-0.383-0.508
	c-0.32-0.32-0.707-0.424-1.145-0.424c-0.307,0-0.991,0.222-1.141,0.521c-0.1,0.199-0.2,0.398-0.3,0.599
	c-0.095,0.19-0.06,0.423-0.06,0.63c0,0.412,0.292,0.762,0.568,1.037c0.141,0.141,0.351,0.281,0.556,0.281c0.052,0,0.103,0,0.153,0
	c-0.178,0-0.02,0.01,0.064,0.051c0.1,0.051,0.189,0.078,0.301,0.041c0.227-0.076,0.394-0.029,0.604-0.135
	c0.093-0.047,0.21-0.084,0.286-0.16c0.028-0.028,0.051-0.061,0.066-0.098c0.049-0.098,0.15-0.158,0.016-0.092
	c0.476-0.236,0.422-0.658,0.553-1.058c0.127-0.384-0.477-0.547-0.603-0.166c-0.042,0.128-0.12,0.277-0.12,0.415
	c0,0.088-0.059,0.267,0.025,0.1c-0.025,0.051-0.052,0.102-0.077,0.153c0.085-0.073,0.08-0.08-0.017-0.022
	c-0.083,0.042-0.179,0.08-0.224,0.168c-0.049,0.098-0.174,0.196-0.034,0.127c-0.051,0.025-0.102,0.051-0.152,0.076
	c0.113-0.023,0.117-0.032,0.012-0.025c-0.074,0-0.148-0.004-0.219,0.02c-0.096,0.031-0.189,0.062-0.283,0.095
	c0.203,0.046,0.238,0.04,0.104-0.017c-0.037-0.018-0.074-0.037-0.111-0.055c-0.089-0.045-0.173-0.043-0.269-0.043
	c-0.106-0.007-0.103,0.002,0.012,0.025c-0.052-0.025-0.103-0.051-0.154-0.076c-0.039-0.02-0.235-0.199-0.271-0.272
	c-0.037-0.074-0.074-0.148-0.111-0.223c-0.025-0.052-0.051-0.103-0.076-0.153c0.023,0.116,0.032,0.118,0.025,0.006
	c0-0.071,0-0.143,0-0.215c0-0.088,0.058-0.267-0.025-0.1c0.074-0.148,0.148-0.297,0.223-0.445c0.025-0.051,0.051-0.102,0.076-0.153
	c-0.086,0.073-0.08,0.081,0.016,0.022c0.074-0.036,0.148-0.073,0.222-0.109c0.074-0.037,0.148-0.074,0.223-0.111
	c0.142-0.072-0.108-0.014,0.142-0.014c0.083,0,0.166,0,0.25,0c0.111,0.008,0.109-0.001-0.006-0.025
	c0.051,0.025,0.102,0.051,0.152,0.076c0.131,0.066,0.229,0.111,0.329,0.213c0.046,0.047,0.153,0.142,0.168,0.171
	c0.025,0.052,0.052,0.103,0.077,0.153c-0.024-0.113-0.033-0.117-0.025-0.012c0,0.191,0.068,0.322,0.151,0.492
	C77.779,22.324,78.318,22.008,78.141,21.646z"/>
<polygon fill-rule="evenodd" clip-rule="evenodd" points="80.54,26.025 80.428,25.693 80.428,25.471 80.317,25.248 80.094,25.137 
	79.983,24.914 79.762,24.805 79.428,24.693 79.206,24.693 78.983,24.693 78.762,24.805 78.54,24.914 78.317,25.137 78.206,25.248 
	78.094,25.471 77.983,25.693 77.983,26.025 77.983,26.248 78.094,26.471 78.206,26.693 78.317,26.805 78.54,27.025 78.762,27.137 
	78.983,27.248 79.206,27.248 79.428,27.248 79.762,27.137 79.983,27.025 80.094,26.805 80.317,26.693 80.428,26.471 80.428,26.248 
	80.54,26.025 "/>
<path d="M80.84,25.942c-0.113-0.338-0.066-0.814-0.478-1.021c-0.097-0.058-0.103-0.051-0.017,0.022
	c-0.031-0.063-0.062-0.126-0.094-0.188c-0.055-0.109-0.197-0.154-0.299-0.204c-0.163-0.081-0.377-0.171-0.561-0.171
	c-0.429,0-0.834,0.072-1.153,0.391c-0.32,0.32-0.569,0.67-0.569,1.137c0,0.831,0.656,1.652,1.535,1.652
	c0.385,0,0.915-0.117,1.103-0.488c0.058-0.096,0.051-0.101-0.022-0.016c0.063-0.031,0.126-0.062,0.188-0.094
	c0.11-0.055,0.155-0.198,0.206-0.3c0.052-0.104,0.061-0.19,0.061-0.304c0.006-0.105-0.002-0.102-0.025,0.012
	c0.031-0.062,0.062-0.125,0.094-0.188c0.18-0.359-0.359-0.676-0.54-0.316c-0.066,0.133-0.153,0.263-0.153,0.416
	c0,0.25,0.058-0.001-0.014,0.141c-0.059,0.098-0.051,0.103,0.021,0.018c-0.051,0.025-0.102,0.051-0.152,0.076
	c-0.076,0.037-0.127,0.089-0.164,0.164c-0.025,0.051-0.052,0.102-0.077,0.151c0.085-0.073,0.081-0.08-0.016-0.022
	c-0.108,0.055-0.298,0.125-0.397,0.125c-0.049,0-0.098,0-0.146,0c-0.25,0,0,0.059-0.141-0.014c-0.17-0.084-0.288-0.136-0.414-0.26
	c-0.117-0.117-0.178-0.2-0.252-0.35c-0.043-0.085-0.068-0.284-0.068-0.1c0-0.074,0-0.148,0-0.223c0-0.087,0-0.175,0-0.262
	c0,0.185,0.025-0.015,0.068-0.1c0.074-0.149,0.135-0.232,0.252-0.35c0.126-0.126,0.244-0.175,0.414-0.26
	c0.141-0.072-0.109-0.014,0.141-0.014c0.074,0,0.148,0,0.223,0c0.024,0,0.26,0.093,0.321,0.123c0.097,0.059,0.101,0.051,0.016-0.022
	c0.025,0.052,0.052,0.103,0.077,0.153c0.037,0.075,0.088,0.127,0.164,0.164c0.051,0.025,0.102,0.051,0.152,0.076
	c-0.072-0.085-0.08-0.08-0.021,0.018c0.071,0.142,0.014-0.109,0.014,0.141c0,0.154,0.074,0.306,0.122,0.45
	C80.366,26.488,80.969,26.326,80.84,25.942z"/>
<rect id="_x3C_Slice_x3E__101_" fill="none" width="48" height="50.666"/>
<rect id="_x3C_Slice_x3E__100_" x="48" fill="none" width="57.333" height="50.666"/>
</svg>
