<?xml version="1.0" encoding="utf-8"?>
<!-- Generator: Adobe Illustrator 15.0.2, SVG Export Plug-In  -->
<!DOCTYPE svg PUBLIC "-//W3C//DTD SVG 1.1//EN" "http://www.w3.org/Graphics/SVG/1.1/DTD/svg11.dtd" [
	<!ENTITY ns_flows "http://ns.adobe.com/Flows/1.0/">
]>
<svg version="1.1"
	 xmlns="http://www.w3.org/2000/svg" xmlns:xlink="http://www.w3.org/1999/xlink" xmlns:a="http://ns.adobe.com/AdobeSVGViewerExtensions/3.0/"
	 x="0px" y="0px" width="56px" height="35px" viewBox="54.333 0 56 35" overflow="visible" enable-background="new 54.333 0 56 35"
	 xml:space="preserve">
<defs>
</defs>
<path d="M77.046,12.41c0.847,0.634,2.532,1.462,3.49,0.507c1.08-1.078,2.084-2.662,1.049-4.212c-0.938-1.403-4.18-2.373-4.18-4.12
	c0-1.874,2.426-2.938,3.528-1.286c0.223,0.333,0.765,0.021,0.54-0.315c-1.993-2.985-6.518,0.691-4.046,3.156
	c1.462,1.458,4.47,2.169,3.809,4.807c-0.511,2.041-2.509,1.947-3.875,0.924C77.038,11.629,76.728,12.172,77.046,12.41L77.046,12.41z
	"/>
<path d="M79.628,13.808c0-4.333,0-8.667,0-13c0-0.403-0.625-0.403-0.625,0c0,4.333,0,8.667,0,13
	C79.003,14.21,79.628,14.21,79.628,13.808L79.628,13.808z"/>
<rect id="_x3C_Slice_x3E__103_" y="34.667" fill="none" width="54.667" height="50.667"/>
<rect id="_x3C_Slice_x3E__102_" x="54.667" y="34.667" fill="none" width="56" height="50.667"/>
<rect id="_x3C_Slice_x3E__101_" fill="none" width="54.667" height="34.667"/>
<rect id="_x3C_Slice_x3E__100_" x="54.667" fill="none" width="56" height="34.667"/>
</svg>
