<?xml version="1.0" encoding="utf-8"?>
<!-- Generator: Adobe Illustrator 15.0.2, SVG Export Plug-In  -->
<!DOCTYPE svg PUBLIC "-//W3C//DTD SVG 1.1//EN" "http://www.w3.org/Graphics/SVG/1.1/DTD/svg11.dtd" [
	<!ENTITY ns_flows "http://ns.adobe.com/Flows/1.0/">
]>
<svg version="1.1"
	 xmlns="http://www.w3.org/2000/svg" xmlns:xlink="http://www.w3.org/1999/xlink" xmlns:a="http://ns.adobe.com/AdobeSVGViewerExtensions/3.0/"
	 x="0px" y="0px" width="52px" height="58px" viewBox="0 0 52 58" overflow="visible" enable-background="new 0 0 52 58"
	 xml:space="preserve">
<defs>
</defs>
<polygon fill-rule="evenodd" clip-rule="evenodd" points="24.541,29.248 24.541,29.137 24.43,28.914 24.319,28.805 24.097,28.805 
	23.875,28.805 23.763,28.914 23.652,29.137 23.541,29.248 23.652,29.471 23.763,29.693 23.875,29.805 24.097,29.805 24.319,29.805 
	24.43,29.693 24.541,29.471 24.541,29.248 "/>
<path d="M24.854,29.248c0-0.191-0.07-0.324-0.154-0.492c-0.117-0.233-0.36-0.264-0.59-0.264c-0.217,0-0.364,0.001-0.528,0.162
	c-0.065,0.064-0.103,0.133-0.144,0.213c-0.018,0.037-0.1,0.143-0.018,0.061c-0.033,0.033-0.066,0.066-0.099,0.1
	c-0.104,0.104-0.112,0.252-0.049,0.379c0.074,0.148,0.147,0.297,0.222,0.445c0.12,0.24,0.368,0.266,0.604,0.266
	s0.482-0.025,0.603-0.266c0.037-0.074,0.074-0.148,0.111-0.223C24.87,29.51,24.854,29.376,24.854,29.248
	c0-0.402-0.625-0.402-0.625,0c0,0.045,0,0.09,0,0.135c0,0.203,0.093-0.17,0.007,0c-0.024,0.049-0.047,0.096-0.071,0.143
	c0.053-0.104-0.034,0.025-0.067,0.059c0.074-0.031,0.147-0.062,0.221-0.092c-0.148,0-0.296,0-0.444,0
	c0.074,0.03,0.147,0.061,0.221,0.092c-0.033-0.033-0.12-0.163-0.067-0.059c-0.03-0.059-0.06-0.118-0.089-0.178
	c-0.042-0.086-0.085-0.172-0.128-0.258c-0.016,0.127-0.032,0.253-0.049,0.379c0.077-0.077,0.146-0.146,0.195-0.244
	c0.023-0.049,0.047-0.096,0.071-0.143c-0.053,0.104,0.034-0.023,0.067-0.057c-0.074,0.031-0.147,0.062-0.221,0.092
	c0.148,0,0.296,0,0.444,0c-0.074-0.03-0.147-0.061-0.221-0.092c0.024,0.023,0.048,0.047,0.072,0.071
	c0.065,0.064-0.036-0.077,0.025,0.046c0.023,0.047,0.047,0.095,0.071,0.143c-0.083-0.166-0.038-0.149-0.038-0.037
	C24.229,29.65,24.854,29.65,24.854,29.248z"/>
<path d="M25.652,29.248h-3.111 M24.874,27.914l-1.555,2.779 M24.874,30.693l-1.555-2.779"/>
<path d="M25.652,28.936c-1.037,0-2.074,0-3.111,0c-0.403,0-0.403,0.625,0,0.625c1.037,0,2.074,0,3.111,0
	C26.055,29.561,26.055,28.936,25.652,28.936L25.652,28.936z"/>
<path d="M24.604,27.756c-0.519,0.927-1.037,1.854-1.556,2.779c-0.197,0.353,0.343,0.668,0.54,0.316
	c0.519-0.927,1.037-1.854,1.555-2.779C25.341,27.72,24.801,27.404,24.604,27.756L24.604,27.756z"/>
<path d="M25.144,30.535c-0.518-0.926-1.036-1.853-1.555-2.779c-0.197-0.352-0.737-0.036-0.54,0.316
	c0.519,0.926,1.037,1.853,1.556,2.779C24.801,31.203,25.341,30.888,25.144,30.535L25.144,30.535z"/>
<polygon fill-rule="evenodd" clip-rule="evenodd" points="28.541,29.248 28.43,29.137 28.319,28.914 28.208,28.805 27.985,28.805 
	27.763,28.805 27.652,28.914 27.541,29.137 27.541,29.248 27.541,29.471 27.652,29.693 27.763,29.805 27.985,29.805 28.208,29.805 
	28.319,29.693 28.43,29.471 28.541,29.248 "/>
<path d="M28.762,29.027c-0.023-0.024-0.048-0.049-0.072-0.072c-0.066-0.066,0.036,0.076-0.025-0.047
	c-0.047-0.096-0.087-0.178-0.164-0.254c-0.173-0.169-0.333-0.162-0.56-0.162c-0.226,0-0.452,0.049-0.564,0.273
	c-0.098,0.197-0.148,0.35-0.148,0.57c0,0.193,0.058,0.434,0.202,0.578c0.096,0.096,0.184,0.203,0.333,0.203c0.078,0,0.156,0,0.234,0
	c0.231,0,0.474-0.031,0.591-0.266c0.074-0.148,0.147-0.297,0.222-0.445c0.18-0.359-0.359-0.676-0.539-0.316
	c-0.043,0.086-0.086,0.172-0.129,0.258c-0.029,0.06-0.06,0.119-0.089,0.178c0.052-0.104-0.034,0.025-0.067,0.059
	c0.074-0.031,0.147-0.062,0.221-0.092c-0.148,0-0.296,0-0.444,0c0.074,0.03,0.147,0.061,0.221,0.092
	c-0.033-0.033-0.066-0.066-0.1-0.1c0.082,0.082,0-0.023-0.019-0.061c-0.062-0.123-0.013-0.136-0.013,0.035c0-0.057,0-0.111,0-0.167
	c0-0.033,0-0.066,0-0.1c0-0.134-0.091,0.2-0.008,0.032c0.024-0.049,0.048-0.096,0.071-0.143c-0.052,0.104,0.034-0.023,0.067-0.057
	c-0.074,0.031-0.147,0.062-0.221,0.092c0.148,0,0.296,0,0.444,0c-0.074-0.03-0.147-0.061-0.221-0.092
	c0.033,0.033,0.066,0.065,0.1,0.098c-0.085-0.083,0.019,0.061,0.039,0.102c0.049,0.098,0.118,0.167,0.195,0.244
	C28.605,29.754,29.047,29.312,28.762,29.027z"/>
<path d="M29.541,29.248H26.43 M28.763,27.914l-1.556,2.779 M28.763,30.693l-1.556-2.779"/>
<path d="M29.541,28.936c-1.037,0-2.074,0-3.111,0c-0.403,0-0.403,0.625,0,0.625c1.037,0,2.074,0,3.111,0
	C29.944,29.561,29.944,28.936,29.541,28.936L29.541,28.936z"/>
<path d="M28.493,27.756c-0.519,0.927-1.037,1.854-1.556,2.779c-0.197,0.353,0.343,0.668,0.54,0.316
	c0.519-0.927,1.037-1.854,1.556-2.779C29.23,27.72,28.69,27.404,28.493,27.756L28.493,27.756z"/>
<path d="M29.033,30.535c-0.519-0.926-1.037-1.853-1.556-2.779c-0.197-0.352-0.737-0.036-0.54,0.316
	c0.519,0.926,1.037,1.853,1.556,2.779C28.69,31.203,29.23,30.888,29.033,30.535L29.033,30.535z"/>
<rect id="_x3C_Slice_x3E__101_" y="57.334" fill="none" width="52" height="52"/>
<rect id="_x3C_Slice_x3E__100_" fill="none" width="52" height="57.334"/>
</svg>
