<?xml version="1.0" encoding="utf-8"?>
<!-- Generator: Adobe Illustrator 15.0.2, SVG Export Plug-In  -->
<!DOCTYPE svg PUBLIC "-//W3C//DTD SVG 1.1//EN" "http://www.w3.org/Graphics/SVG/1.1/DTD/svg11.dtd" [
	<!ENTITY ns_flows "http://ns.adobe.com/Flows/1.0/">
]>
<svg version="1.1"
	 xmlns="http://www.w3.org/2000/svg" xmlns:xlink="http://www.w3.org/1999/xlink" xmlns:a="http://ns.adobe.com/AdobeSVGViewerExtensions/3.0/"
	 x="0px" y="0px" width="53px" height="57px" viewBox="0 0.667 53 57" overflow="visible" enable-background="new 0 0.667 53 57"
	 xml:space="preserve">
<defs>
</defs>
<polygon fill-rule="evenodd" clip-rule="evenodd" points="20.984,31.917 20.984,31.695 20.873,31.583 20.762,31.472 20.54,31.362 
	20.318,31.472 20.207,31.583 20.095,31.695 19.984,31.917 20.095,32.139 20.207,32.25 20.318,32.362 20.54,32.362 20.762,32.362 
	20.873,32.25 20.984,32.139 20.984,31.917 "/>
<path d="M21.297,31.917c0-0.074,0-0.148,0-0.223c0-0.148-0.107-0.237-0.203-0.332c-0.135-0.135-0.349-0.313-0.554-0.313
	c-0.365,0-0.768,0.46-0.857,0.785c-0.055,0.199,0.128,0.463,0.263,0.598c0.067,0.066,0.132,0.151,0.214,0.199
	c0.106,0.062,0.249,0.043,0.368,0.043c0.238,0,0.379-0.016,0.555-0.191c0.077-0.077,0.173-0.151,0.203-0.261
	C21.312,32.127,21.297,32.014,21.297,31.917c0-0.403-0.625-0.403-0.625,0c0,0.074,0,0.148,0,0.222
	c0.03-0.073,0.061-0.147,0.092-0.221c-0.074,0.074-0.148,0.148-0.223,0.222c0.074-0.031,0.147-0.061,0.221-0.091
	c-0.148,0-0.296,0-0.444,0c0.074,0.03,0.147,0.061,0.221,0.091c-0.062-0.061-0.123-0.122-0.184-0.183
	c-0.066-0.065,0.036,0.076-0.025-0.046c-0.025-0.051-0.051-0.102-0.076-0.152c0,0.105,0,0.21,0,0.315
	c0.031-0.062,0.062-0.125,0.094-0.188c0.043-0.086-0.079,0.076,0.008-0.01c0.024-0.024,0.048-0.048,0.072-0.072
	c0.024-0.024,0.048-0.048,0.072-0.072c0.086-0.087-0.076,0.035,0.01-0.008c0.062-0.031,0.125-0.062,0.188-0.094
	c-0.105,0-0.21,0-0.315,0c0.037,0.019,0.074,0.037,0.111,0.056c0.038,0.019,0.141,0.1,0.06,0.018c0.07,0.07,0.141,0.141,0.211,0.211
	c-0.031-0.074-0.062-0.147-0.092-0.221c0,0.074,0,0.148,0,0.223C20.672,32.32,21.297,32.32,21.297,31.917z"/>
<path d="M22.095,31.917h-3.111 M21.317,30.583l-1.555,2.667 M21.317,33.25l-1.555-2.667"/>
<path d="M22.095,31.605c-1.037,0-2.074,0-3.111,0c-0.403,0-0.403,0.625,0,0.625c1.037,0,2.074,0,3.111,0
	C22.498,32.23,22.498,31.605,22.095,31.605L22.095,31.605z"/>
<path d="M21.048,30.426c-0.519,0.889-1.037,1.777-1.556,2.666c-0.203,0.349,0.337,0.664,0.54,0.315
	c0.519-0.889,1.037-1.777,1.555-2.666C21.791,30.393,21.25,30.078,21.048,30.426L21.048,30.426z"/>
<path d="M21.587,33.092c-0.518-0.889-1.036-1.777-1.555-2.666c-0.203-0.348-0.743-0.034-0.54,0.315
	c0.519,0.889,1.037,1.777,1.556,2.666C21.25,33.756,21.791,33.441,21.587,33.092L21.587,33.092z"/>
<g>
	<polygon fill-rule="evenodd" clip-rule="evenodd" points="21.762,28.028 21.762,27.806 21.651,27.583 21.54,27.362 21.429,27.139 
		21.207,27.028 20.984,26.917 20.762,26.806 20.54,26.806 20.318,26.806 19.984,26.917 19.762,27.028 19.651,27.139 19.429,27.362 
		19.318,27.583 19.318,27.806 19.207,28.028 19.318,28.362 19.318,28.583 19.429,28.806 19.651,28.917 19.762,29.139 19.984,29.25 
		20.318,29.25 20.54,29.362 20.762,29.25 20.984,29.25 21.207,29.139 21.429,28.917 21.54,28.806 21.651,28.583 21.762,28.362 
		21.762,28.028 	"/>
</g>
<path d="M22.651,36.119c0.815,0,1.629,0,2.444,0c0.17,0,0.312-0.143,0.312-0.312c0-3.889,0-7.778,0-11.667
	c0-0.17-0.142-0.312-0.312-0.312c-0.815,0-1.629,0-2.444,0c-0.403,0-0.403,0.625,0,0.625c0.688,0,1.375,0,2.062,0
	c0.581,0,0.069-0.197,0.069-0.219c0,0.229,0,0.458,0,0.688c0,1.684,0,3.368,0,5.052s0,3.369,0,5.052c0,0.83-0.104,0.469,0.208,0.469
	c-0.78,0-1.56,0-2.339,0C22.248,35.494,22.248,36.119,22.651,36.119L22.651,36.119z"/>
<rect id="_x3C_Slice_x3E__101_" y="57.333" fill="none" width="53.333" height="53.333"/>
<rect id="_x3C_Slice_x3E__100_" fill="none" width="53.333" height="57.333"/>
</svg>
