<?xml version="1.0" encoding="utf-8"?>
<!-- Generator: Adobe Illustrator 15.0.2, SVG Export Plug-In  -->
<!DOCTYPE svg PUBLIC "-//W3C//DTD SVG 1.1//EN" "http://www.w3.org/Graphics/SVG/1.1/DTD/svg11.dtd" [
	<!ENTITY ns_flows "http://ns.adobe.com/Flows/1.0/">
]>
<svg version="1.1"
	 xmlns="http://www.w3.org/2000/svg" xmlns:xlink="http://www.w3.org/1999/xlink" xmlns:a="http://ns.adobe.com/AdobeSVGViewerExtensions/3.0/"
	 x="0px" y="0px" width="35px" height="52px" viewBox="0 0.666 35 52" overflow="visible" enable-background="new 0 0.666 35 52"
	 xml:space="preserve">
<defs>
</defs>
<path d="M7.287,30.942c-0.704-2.111-1.407-4.223-2.111-6.334c-0.1,0.132-0.201,0.264-0.301,0.396c1.444,0,2.889,0,4.333,0
	c-0.101-0.132-0.201-0.264-0.301-0.396c-0.741,2.111-1.481,4.223-2.222,6.334c-0.134,0.382,0.47,0.544,0.603,0.166
	c0.741-2.111,1.481-4.223,2.222-6.334c0.068-0.194-0.109-0.396-0.301-0.396c-1.444,0-2.889,0-4.333,0
	c-0.195,0-0.366,0.201-0.301,0.396c0.704,2.111,1.407,4.223,2.111,6.334C6.812,31.488,7.415,31.326,7.287,30.942L7.287,30.942z"/>
<polygon fill-rule="evenodd" clip-rule="evenodd" points="8.319,22.246 8.319,21.914 8.208,21.691 8.097,21.469 7.875,21.357 
	7.764,21.137 7.542,21.025 7.319,21.025 6.986,20.914 6.764,21.025 6.542,21.025 6.319,21.137 6.208,21.357 5.986,21.469 
	5.875,21.691 5.764,21.914 5.764,22.246 5.764,22.469 5.875,22.691 5.986,22.914 6.208,23.137 6.319,23.246 6.542,23.357 
	6.764,23.469 6.986,23.469 7.319,23.469 7.542,23.357 7.764,23.246 7.875,23.137 8.097,22.914 8.208,22.691 8.319,22.469 
	8.319,22.246 "/>
<path d="M8.632,22.246c0-0.461-0.127-0.922-0.564-1.141c0.073,0.085,0.08,0.08,0.021-0.016c-0.03-0.061-0.056-0.125-0.104-0.174
	c-0.075-0.076-0.192-0.113-0.285-0.16c-0.211-0.105-0.379-0.059-0.605-0.135c-0.111-0.037-0.2-0.01-0.3,0.041
	c-0.051,0.025-0.102,0.051-0.153,0.076c0.16-0.08,0.022-0.025-0.064-0.025c-0.185,0-0.459,0.131-0.544,0.301
	c-0.025,0.051-0.051,0.102-0.077,0.151c0.068-0.134,0.004-0.032-0.093,0.017c-0.108,0.055-0.151,0.137-0.202,0.24
	c-0.101,0.204-0.209,0.377-0.209,0.609c0,0.441,0.063,0.853,0.392,1.182c0.307,0.308,0.658,0.568,1.108,0.568
	c0.441,0,0.82-0.105,1.145-0.424C8.409,23.051,8.632,22.693,8.632,22.246c0-0.402-0.625-0.402-0.625,0c0,0.062,0,0.125,0,0.188
	c0-0.185-0.026,0.015-0.068,0.1c-0.086,0.172-0.143,0.24-0.284,0.383c-0.09,0.09-0.188,0.131-0.305,0.189
	c-0.051,0.025-0.102,0.051-0.153,0.076c0.116-0.024,0.118-0.033,0.006-0.025c-0.084,0-0.167,0-0.251,0
	c-0.087,0-0.224-0.055-0.064,0.025c-0.074-0.037-0.148-0.074-0.222-0.111c-0.161-0.081-0.25-0.169-0.379-0.299
	c-0.096-0.096-0.162-0.281-0.234-0.426c0.083,0.167,0.025-0.012,0.025-0.1c0-0.1,0-0.198,0-0.297c0,0.178,0.009,0.02,0.051-0.065
	c0.037-0.074,0.074-0.148,0.111-0.223c-0.069,0.14,0.03,0.015,0.127-0.034c0.088-0.044,0.126-0.141,0.167-0.223
	c0.059-0.096,0.051-0.101-0.021-0.016c0.051-0.025,0.102-0.051,0.153-0.076c-0.167,0.084,0.011,0.025,0.099,0.025
	c0.098,0,0.184-0.056,0.269-0.098c0.174-0.088-0.26-0.068,0.037,0.031c0.154,0.051,0.275,0.066,0.438,0.066
	c-0.114-0.039-0.118-0.034-0.012,0.014c0.096,0.058,0.102,0.051,0.016-0.022c0.042,0.082,0.077,0.183,0.143,0.249
	s0.168,0.102,0.25,0.143c-0.14-0.07-0.015,0.031,0.034,0.129c0.042,0.085,0.068,0.284,0.068,0.1c0,0.099,0,0.197,0,0.297
	C8.007,22.648,8.632,22.648,8.632,22.246z"/>
<rect id="_x3C_Slice_x3E__101_" y="52" fill="none" width="35" height="35.666"/>
<rect id="_x3C_Slice_x3E__100_" fill="none" width="35" height="52"/>
</svg>
