<?xml version="1.0" encoding="utf-8"?>
<!-- Generator: Adobe Illustrator 15.0.2, SVG Export Plug-In  -->
<!DOCTYPE svg PUBLIC "-//W3C//DTD SVG 1.1//EN" "http://www.w3.org/Graphics/SVG/1.1/DTD/svg11.dtd" [
	<!ENTITY ns_flows "http://ns.adobe.com/Flows/1.0/">
]>
<svg version="1.1"
	 xmlns="http://www.w3.org/2000/svg" xmlns:xlink="http://www.w3.org/1999/xlink" xmlns:a="http://ns.adobe.com/AdobeSVGViewerExtensions/3.0/"
	 x="0px" y="0px" width="52px" height="50px" viewBox="55.666 0.666 52 50"
	 overflow="visible" enable-background="new 55.666 0.666 52 50" xml:space="preserve">
<defs>
</defs>
<polygon fill-rule="evenodd" clip-rule="evenodd" points="79.98,23.914 79.98,23.582 79.871,23.359 79.76,23.137 79.537,23.025 
	79.426,22.805 79.203,22.693 78.98,22.582 78.76,22.582 78.426,22.582 78.203,22.693 77.982,22.805 77.871,23.025 77.648,23.137 
	77.537,23.359 77.426,23.582 77.426,23.914 77.426,24.137 77.537,24.359 77.648,24.582 77.871,24.805 77.982,24.914 78.203,25.025 
	78.426,25.137 78.76,25.137 78.98,25.137 79.203,25.025 79.426,24.914 79.537,24.805 79.76,24.582 79.871,24.359 79.98,24.137 
	79.98,23.914 "/>
<path d="M80.293,23.914c0-0.395-0.096-0.907-0.487-1.104c-0.097-0.058-0.103-0.051-0.017,0.022
	c-0.031-0.062-0.062-0.124-0.094-0.187c-0.056-0.109-0.199-0.154-0.301-0.205c-0.213-0.107-0.361-0.172-0.601-0.172
	c-0.407,0-0.933,0.082-1.138,0.488c-0.059,0.096-0.051,0.101,0.021,0.016c-0.062,0.031-0.125,0.062-0.188,0.094
	c-0.109,0.055-0.155,0.198-0.206,0.3c-0.112,0.226-0.171,0.376-0.171,0.63c0,0.826,0.653,1.652,1.528,1.652
	C79.475,25.449,80.293,24.793,80.293,23.914c0-0.402-0.625-0.402-0.625,0c0,0.062,0,0.125,0,0.188c0-0.185-0.025,0.015-0.067,0.1
	c-0.085,0.173-0.144,0.241-0.285,0.383c-0.09,0.09-0.188,0.131-0.306,0.189c-0.051,0.025-0.102,0.051-0.152,0.076
	c0.113-0.023,0.117-0.032,0.012-0.025c-0.076,0-0.151,0-0.228,0c-0.087,0-0.262-0.059-0.093,0.025
	c-0.074-0.037-0.148-0.074-0.223-0.111c-0.16-0.081-0.25-0.17-0.379-0.299c-0.083-0.083-0.134-0.224-0.196-0.35
	c-0.071-0.142-0.013,0.109-0.013-0.141c0-0.084,0-0.167,0-0.25c0-0.232-0.095,0.144,0.013-0.07c0.037-0.074,0.074-0.148,0.111-0.223
	c0.058-0.098,0.051-0.103-0.022-0.018c0.052-0.025,0.103-0.051,0.154-0.076c0.074-0.037,0.126-0.089,0.164-0.164
	c0.049-0.097,0.15-0.159,0.016-0.092c0.074-0.037,0.147-0.074,0.221-0.111c0.052-0.025,0.103-0.051,0.154-0.076
	c-0.117,0.024-0.118,0.033-0.006,0.025c0.084,0,0.167,0,0.251,0c0.087,0,0.223,0.055,0.063-0.025
	c0.074,0.037,0.148,0.074,0.223,0.111c0.051,0.025,0.102,0.051,0.152,0.076c-0.072-0.085-0.08-0.08-0.021,0.016
	c0.041,0.082,0.08,0.179,0.168,0.223c0.062,0.031,0.125,0.062,0.188,0.094c-0.14-0.069-0.014,0.031,0.034,0.129
	c0.043,0.085,0.067,0.285,0.067,0.1c0,0.099,0,0.197,0,0.297C79.668,24.316,80.293,24.316,80.293,23.914z"/>
<polygon fill-rule="evenodd" clip-rule="evenodd" points="79.203,28.025 79.203,27.805 79.092,27.582 78.871,27.471 78.76,27.471 
	78.537,27.471 78.314,27.582 78.203,27.805 78.203,28.025 78.203,28.248 78.314,28.359 78.537,28.471 78.76,28.471 78.871,28.471 
	79.092,28.359 79.203,28.248 79.203,28.025 "/>
<path d="M79.516,28.025c0-0.097,0.014-0.209-0.012-0.304c-0.027-0.099-0.092-0.196-0.139-0.288
	c-0.094-0.189-0.418-0.275-0.605-0.275c-0.098,0-0.211-0.016-0.307,0.012c-0.099,0.027-0.196,0.092-0.287,0.138
	c-0.201,0.101-0.275,0.433-0.275,0.631c0,0.238-0.018,0.421,0.163,0.603c0.163,0.164,0.393,0.242,0.618,0.242
	c0.221,0,0.371-0.05,0.568-0.149C79.484,28.51,79.516,28.269,79.516,28.025c0-0.402-0.625-0.402-0.625,0c0,0.074,0,0.148,0,0.223
	c0.029-0.074,0.061-0.147,0.091-0.221c-0.033,0.033-0.066,0.066-0.1,0.1c0.082-0.082-0.022,0-0.059,0.018
	c-0.122,0.062-0.134,0.014,0.03,0.014c-0.035,0-0.071,0-0.106,0c-0.056,0-0.11,0-0.167,0c-0.115,0,0.211,0.092,0.044,0.008
	c-0.048-0.023-0.095-0.048-0.143-0.072c0.104,0.053-0.025-0.034-0.058-0.066c0.03,0.073,0.061,0.146,0.092,0.221
	c0-0.074,0-0.148,0-0.223c0-0.029,0-0.059,0-0.087c0-0.13,0.049-0.159-0.039,0.015c0.018-0.034,0.035-0.068,0.052-0.102
	c0.067-0.137,0.085-0.07-0.047-0.004c0.048-0.024,0.095-0.049,0.143-0.072c0.167-0.084-0.159,0.008-0.044,0.008
	c0.078,0,0.156,0,0.234,0c0.145,0-0.175-0.08-0.066-0.025c0.05,0.025,0.101,0.051,0.15,0.076c0.105,0.053-0.111-0.164-0.06-0.06
	c0.025,0.052,0.052,0.103,0.077,0.153c0.042,0.085-0.025-0.229-0.025-0.036c0,0.044,0,0.089,0,0.134
	C78.891,28.428,79.516,28.428,79.516,28.025z"/>
<path d="M80.203,28.025h-3 M79.426,26.693l-1.443,2.666 M79.426,29.359l-1.443-2.666"/>
<path d="M80.203,27.713c-1,0-2,0-3,0c-0.403,0-0.403,0.625,0,0.625c1,0,2,0,3,0C80.605,28.338,80.605,27.713,80.203,27.713
	L80.203,27.713z"/>
<path d="M79.155,26.535c-0.481,0.889-0.962,1.777-1.443,2.666c-0.192,0.355,0.349,0.67,0.54,0.316
	c0.48-0.889,0.962-1.777,1.443-2.666C79.887,26.496,79.348,26.182,79.155,26.535L79.155,26.535z"/>
<path d="M79.695,29.201c-0.481-0.889-0.963-1.777-1.443-2.666c-0.191-0.354-0.732-0.039-0.54,0.316
	c0.481,0.889,0.962,1.777,1.443,2.666C79.348,29.871,79.887,29.557,79.695,29.201L79.695,29.201z"/>
<rect id="_x3C_Slice_x3E__101_" fill="none" width="56" height="50.666"/>
<rect id="_x3C_Slice_x3E__100_" x="56" fill="none" width="52" height="50.666"/>
</svg>
