<?xml version="1.0" encoding="utf-8"?>
<!-- Generator: Adobe Illustrator 15.0.2, SVG Export Plug-In  -->
<!DOCTYPE svg PUBLIC "-//W3C//DTD SVG 1.1//EN" "http://www.w3.org/Graphics/SVG/1.1/DTD/svg11.dtd" [
	<!ENTITY ns_flows "http://ns.adobe.com/Flows/1.0/">
]>
<svg version="1.1"
	 xmlns="http://www.w3.org/2000/svg" xmlns:xlink="http://www.w3.org/1999/xlink" xmlns:a="http://ns.adobe.com/AdobeSVGViewerExtensions/3.0/"
	 x="0px" y="0px" width="35px" height="35px" viewBox="0 0.666 35 35" overflow="visible" enable-background="new 0 0.666 35 35"
	 xml:space="preserve">
<defs>
</defs>
<path d="M7.287,33.163c-0.704-2.074-1.407-4.148-2.111-6.223c-0.1,0.132-0.201,0.264-0.301,0.396c1.444,0,2.889,0,4.333,0
	c-0.101-0.132-0.201-0.264-0.301-0.396c-0.741,2.074-1.481,4.148-2.222,6.223c-0.136,0.38,0.468,0.543,0.603,0.166
	c0.741-2.074,1.481-4.148,2.222-6.223c0.069-0.194-0.11-0.396-0.301-0.396c-1.444,0-2.889,0-4.333,0
	c-0.194,0-0.367,0.201-0.301,0.396c0.704,2.074,1.407,4.148,2.111,6.223C6.813,33.709,7.417,33.546,7.287,33.163L7.287,33.163z"/>
<path d="M8.652,28.156c-1.074,0-2.148,0-3.222,0c-0.403,0-0.403,0.625,0,0.625c1.074,0,2.148,0,3.222,0
	C9.056,28.781,9.056,28.156,8.652,28.156L8.652,28.156z"/>
<path d="M6.716,22.533c-0.703,1.223-1.407,2.444-2.11,3.666c-0.118,0.205,0.031,0.471,0.27,0.471c1.444,0,2.889,0,4.333,0
	c0.234,0,0.394-0.267,0.27-0.471c-0.74-1.222-1.481-2.443-2.222-3.666c-0.209-0.344-0.749-0.029-0.54,0.316
	c0.741,1.222,1.481,2.443,2.223,3.666c0.09-0.157,0.18-0.314,0.27-0.471c-1.444,0-2.889,0-4.333,0c0.09,0.156,0.18,0.313,0.27,0.471
	c0.704-1.223,1.407-2.444,2.111-3.666C7.457,22.499,6.917,22.185,6.716,22.533z"/>
<rect id="_x3C_Slice_x3E__100_" fill="none" width="35" height="35.666"/>
</svg>
