<?xml version="1.0" encoding="utf-8"?>
<!-- Generator: Adobe Illustrator 15.0.2, SVG Export Plug-In  -->
<!DOCTYPE svg PUBLIC "-//W3C//DTD SVG 1.1//EN" "http://www.w3.org/Graphics/SVG/1.1/DTD/svg11.dtd" [
	<!ENTITY ns_flows "http://ns.adobe.com/Flows/1.0/">
]>
<svg version="1.1"
	 xmlns="http://www.w3.org/2000/svg" xmlns:xlink="http://www.w3.org/1999/xlink" xmlns:a="http://ns.adobe.com/AdobeSVGViewerExtensions/3.0/"
	 x="0px" y="0px" width="52px" height="55px" viewBox="0 0.333 52 55" overflow="visible" enable-background="new 0 0.333 52 55"
	 xml:space="preserve">
<defs>
</defs>
<polygon fill-rule="evenodd" clip-rule="evenodd" points="23.652,27.694 23.985,27.472 24.208,27.249 24.319,27.026 24.43,26.806 
	24.541,26.694 24.43,26.583 24.319,26.472 24.208,26.472 23.875,26.472 23.763,26.36 23.652,26.36 23.541,26.249 23.541,26.138 
	23.541,25.915 23.541,25.806 23.541,25.694 23.652,25.583 23.875,25.472 24.097,25.36 24.319,25.36 24.43,25.472 24.652,25.583 
	24.763,25.694 24.763,25.806 24.874,26.026 24.874,26.138 24.985,26.36 24.985,26.472 24.874,26.694 24.874,26.915 24.763,27.138 
	24.541,27.249 24.319,27.472 24.097,27.694 23.763,27.915 23.652,27.694 "/>
<path d="M23.81,27.964c0.22-0.146,0.409-0.283,0.596-0.471c0.164-0.164,0.196-0.417,0.356-0.578c0.121-0.12,0.121-0.321,0-0.441
	c-0.19-0.191-0.303-0.314-0.589-0.314c-0.088,0-0.176,0-0.264,0c0.171,0,0.206,0.111,0.075-0.02
	c-0.059-0.059-0.139-0.092-0.221-0.092c-0.104-0.008-0.077,0.014,0.081,0.062c-0.081-0.094-0.078-0.066,0.01,0.083
	c0-0.11,0-0.222,0-0.333c0-0.164,0.046-0.084-0.062,0.025c0.073-0.073,0.03-0.039,0.13-0.088c0.049-0.025,0.098-0.049,0.146-0.074
	c0.084-0.042,0.242-0.051,0.064-0.051c0.211,0,0.12,0.062-0.004-0.062c0.056,0.057,0.107,0.112,0.18,0.148
	c-0.006-0.003,0.163,0.084,0.153,0.074c0.157,0.158-0.009-0.199-0.009-0.027c0,0.072,0.029,0.129,0.06,0.192
	c0.034,0.067,0.051,0.232,0.051,0.084c0,0.153,0.069,0.267,0.137,0.401c-0.038-0.076,0.038-0.211-0.038-0.059
	c-0.043,0.086-0.099,0.172-0.099,0.27c0,0.062,0,0.124,0,0.186c0-0.178-0.009-0.02-0.051,0.065c0.066-0.134,0.005-0.032-0.093,0.017
	c-0.071,0.035-0.121,0.089-0.176,0.145c-0.229,0.229-0.374,0.365-0.637,0.539c0.143,0.037,0.285,0.074,0.428,0.111
	c-0.037-0.073-0.074-0.146-0.111-0.221c-0.182-0.359-0.721-0.043-0.54,0.316c0.037,0.073,0.074,0.146,0.111,0.221
	c0.074,0.146,0.292,0.201,0.428,0.111c0.311-0.205,0.556-0.428,0.818-0.691c0.108-0.107,0.256-0.122,0.35-0.309
	c0.042-0.086,0.098-0.172,0.098-0.27c0-0.088,0.058-0.265-0.025-0.098c0.086-0.172,0.181-0.341,0.125-0.54
	c-0.025-0.09-0.084-0.181-0.125-0.263c0.082,0.164,0.002-0.108-0.018-0.146c-0.036-0.071-0.068-0.268-0.068-0.118
	c0-0.104-0.014-0.199-0.091-0.276c-0.105-0.105-0.271-0.159-0.362-0.252c-0.291-0.291-0.616-0.164-0.94-0.002
	c-0.386,0.193-0.453,0.392-0.453,0.807c0,0.179-0.017,0.335,0.12,0.473c0.065,0.066,0.126,0.137,0.22,0.162
	c0.304,0.084-0.098-0.151,0.056,0.002c0.153,0.154,0.347,0.121,0.548,0.121c0.22,0-0.135-0.152,0.007-0.01
	c0.047,0.047,0.094,0.094,0.141,0.141c0-0.146,0-0.295,0-0.441c-0.151,0.15-0.232,0.316-0.327,0.506
	c-0.104,0.21-0.283,0.301-0.499,0.445C23.161,27.647,23.474,28.188,23.81,27.964z"/>
<polygon fill-rule="evenodd" clip-rule="evenodd" points="27.319,27.694 27.652,27.472 27.874,27.249 27.985,27.026 28.097,26.806 
	28.097,26.694 28.097,26.583 27.985,26.472 27.763,26.472 27.541,26.472 27.43,26.36 27.319,26.36 27.208,26.249 27.208,26.138 
	27.097,25.915 27.208,25.806 27.208,25.694 27.319,25.583 27.541,25.472 27.763,25.36 27.985,25.36 28.097,25.472 28.208,25.583 
	28.319,25.694 28.43,25.806 28.541,26.026 28.541,26.138 28.541,26.36 28.541,26.472 28.541,26.694 28.43,26.915 28.319,27.138 
	28.208,27.249 27.985,27.472 27.763,27.694 27.43,27.915 27.319,27.694 "/>
<path d="M27.477,27.964c0.277-0.185,0.569-0.361,0.723-0.668c0.125-0.25,0.374-0.678,0.118-0.934
	c-0.111-0.111-0.197-0.203-0.367-0.203c-0.074,0-0.148,0-0.222,0c-0.305,0,0.065,0.123-0.049,0.01
	c-0.049-0.05-0.098-0.091-0.167-0.109c-0.304-0.084,0.099,0.151-0.056-0.002c0.05,0.157,0.071,0.184,0.063,0.08
	c0-0.057-0.014-0.109-0.042-0.158c-0.037-0.074-0.074-0.148-0.111-0.223c-0.016,0.127-0.032,0.253-0.049,0.379
	c0.054-0.053,0.121-0.105,0.16-0.172c0.028-0.049,0.042-0.102,0.042-0.158c0.008-0.104-0.013-0.077-0.063,0.08
	c0.062-0.062,0.124-0.086,0.207-0.127c0.087-0.044,0.322-0.086,0.134-0.086c0.305,0-0.065-0.123,0.049-0.01
	c0.047,0.047,0.093,0.094,0.14,0.141c0.047,0.047,0.094,0.094,0.141,0.141c0.07,0.07,0.102,0.268,0.102,0.138
	c0,0.142,0,0.283,0,0.425c0,0.249,0.058,0-0.013,0.141c-0.05,0.099-0.1,0.198-0.149,0.298c-0.145,0.29-0.553,0.54-0.794,0.7
	c0.143,0.037,0.285,0.074,0.427,0.111c-0.037-0.073-0.073-0.146-0.11-0.221c-0.181-0.359-0.72-0.043-0.54,0.316
	c0.037,0.073,0.074,0.146,0.111,0.221c0.073,0.146,0.292,0.201,0.427,0.111c0.336-0.223,0.833-0.551,1.019-0.924
	c0.187-0.375,0.417-0.971,0.205-1.393c-0.169-0.335-0.532-0.82-0.937-0.82c-0.253,0-0.457,0.137-0.678,0.248
	c-0.095,0.047-0.204,0.148-0.258,0.24c-0.039,0.068-0.042,0.139-0.042,0.214c0-0.15,0.107-0.181-0.019-0.056
	c-0.105,0.104-0.112,0.252-0.049,0.379c0.031,0.062,0.062,0.125,0.093,0.188c-0.075-0.15-0.025,0.033-0.014,0.071
	c0.03,0.11,0.156,0.24,0.255,0.298c0.067,0.039,0.138,0.043,0.213,0.043c-0.151,0-0.18-0.106-0.054,0.02
	c0.118,0.118,0.292,0.092,0.443,0.092c0.062,0,0.125,0,0.188,0c-0.052-0.021-0.105-0.042-0.158-0.062
	c0.082,0.094,0.079,0.066-0.009-0.083c0,0.063-0.038,0.17,0.025,0.044c-0.031,0.062-0.062,0.124-0.094,0.186
	c-0.145,0.286-0.281,0.373-0.555,0.557C26.828,27.647,27.141,28.188,27.477,27.964z"/>
<rect id="_x3C_Slice_x3E__101_" y="54.667" fill="none" width="52" height="50.666"/>
<rect id="_x3C_Slice_x3E__100_" fill="none" width="52" height="54.667"/>
</svg>
