<?xml version="1.0" encoding="utf-8"?>
<!-- Generator: Adobe Illustrator 15.0.2, SVG Export Plug-In  -->
<!DOCTYPE svg PUBLIC "-//W3C//DTD SVG 1.1//EN" "http://www.w3.org/Graphics/SVG/1.1/DTD/svg11.dtd" [
	<!ENTITY ns_flows "http://ns.adobe.com/Flows/1.0/">
]>
<svg version="1.1"
	 xmlns="http://www.w3.org/2000/svg" xmlns:xlink="http://www.w3.org/1999/xlink" xmlns:a="http://ns.adobe.com/AdobeSVGViewerExtensions/3.0/"
	 x="0px" y="0px" width="52px" height="35px" viewBox="55.666 0 52 35" overflow="visible" enable-background="new 55.666 0 52 35"
	 xml:space="preserve">
<defs>
</defs>
<path d="M79.896,11.729c-3.528,0.882-3.453-3.831-0.582-3.831c0.797,0,1.384,0.81,0.509,1.251c-1.117,0.563-2.751-0.594-2.751-1.786
	c0-1.156,1.36-2.372,2.549-1.976c1.052,0.351,0.652,1.33-0.307,1.33c-2.872,0-2.945-4.716,0.582-3.83
	c0.392,0.098,0.557-0.505,0.166-0.603c-1.271-0.32-2.786-0.006-3.407,1.254c-0.601,1.219,0.25,2.525,1.105,3.378
	c1.46,1.456,4.593-0.888,2.488-1.935C78.277,4,75.02,6.737,76.87,8.584c1.041,1.038,2.004,1.733,3.49,0.993
	c1.092-0.544,0.439-1.504-0.159-2.102c-0.367-0.366-1.422-0.201-1.859-0.081c-1.059,0.291-1.59,1.489-1.828,2.44
	c-0.502,2,1.973,2.89,3.549,2.496C80.454,12.233,80.288,11.63,79.896,11.729L79.896,11.729z"/>
<rect id="_x3C_Slice_x3E__103_" y="34.667" fill="none" width="56" height="50.667"/>
<rect id="_x3C_Slice_x3E__102_" x="56" y="34.667" fill="none" width="52" height="50.667"/>
<rect id="_x3C_Slice_x3E__101_" fill="none" width="56" height="34.667"/>
<rect id="_x3C_Slice_x3E__100_" x="56" fill="none" width="52" height="34.667"/>
</svg>
