<?xml version="1.0" encoding="utf-8"?>
<!-- Generator: Adobe Illustrator 15.0.2, SVG Export Plug-In  -->
<!DOCTYPE svg PUBLIC "-//W3C//DTD SVG 1.1//EN" "http://www.w3.org/Graphics/SVG/1.1/DTD/svg11.dtd" [
	<!ENTITY ns_flows "http://ns.adobe.com/Flows/1.0/">
]>
<svg version="1.1"
	 xmlns="http://www.w3.org/2000/svg" xmlns:xlink="http://www.w3.org/1999/xlink" xmlns:a="http://ns.adobe.com/AdobeSVGViewerExtensions/3.0/"
	 x="0px" y="0px" width="57px" height="35px" viewBox="47.667 0 57 35" overflow="visible" enable-background="new 47.667 0 57 35"
	 xml:space="preserve">
<defs>
</defs>
<path d="M70.227,7.362c0,2.165,3.702,2.938,5.088,1.555c0.793-0.793,2.458-2.542,3.529-2.809c1.281-0.318,3.715-0.747,3.715,1.254
	c0,1.701-2.529,1.731-3.64,1.175c-1.29-0.647-2.567-1.804-3.604-2.84C73.835,4.22,70.227,5.16,70.227,7.362
	c0,0.403,0.625,0.403,0.625,0c0-1.592,2.202-2.003,3.418-1.396c1.316,0.657,2.6,1.727,3.658,2.784
	c1.399,1.397,5.256,0.986,5.256-1.388c0-2.415-3.76-2.992-5.256-1.498c-1.006,1.004-2.178,2.046-3.436,2.673
	c-1.117,0.557-3.641,0.527-3.641-1.175C70.852,6.959,70.227,6.959,70.227,7.362L70.227,7.362z"/>
<rect id="_x3C_Slice_x3E__103_" y="34.667" fill="none" width="48" height="50.667"/>
<rect id="_x3C_Slice_x3E__102_" x="48" y="34.667" fill="none" width="57.333" height="50.667"/>
<rect id="_x3C_Slice_x3E__101_" fill="none" width="48" height="34.667"/>
<rect id="_x3C_Slice_x3E__100_" x="48" fill="none" width="57.333" height="34.667"/>
</svg>
