<?xml version="1.0" encoding="utf-8"?>
<!-- Generator: Adobe Illustrator 15.0.2, SVG Export Plug-In  -->
<!DOCTYPE svg PUBLIC "-//W3C//DTD SVG 1.1//EN" "http://www.w3.org/Graphics/SVG/1.1/DTD/svg11.dtd" [
	<!ENTITY ns_flows "http://ns.adobe.com/Flows/1.0/">
]>
<svg version="1.1"
	 xmlns="http://www.w3.org/2000/svg" xmlns:xlink="http://www.w3.org/1999/xlink" xmlns:a="http://ns.adobe.com/AdobeSVGViewerExtensions/3.0/"
	 x="0px" y="0px" width="48px" height="55px" viewBox="53 0.333 48 55" overflow="visible" enable-background="new 53 0.333 48 55"
	 xml:space="preserve">
<defs>
</defs>
<polygon fill-rule="evenodd" clip-rule="evenodd" points="75.539,23.583 75.762,23.36 75.983,23.138 76.206,22.915 76.317,22.694 
	76.317,22.583 76.317,22.472 76.206,22.36 75.983,22.36 75.65,22.36 75.539,22.249 75.428,22.249 75.428,22.138 75.317,22.026 
	75.317,21.806 75.317,21.694 75.317,21.583 75.539,21.36 75.762,21.249 75.983,21.249 76.095,21.249 76.317,21.36 76.428,21.472 
	76.539,21.583 76.65,21.694 76.65,21.915 76.762,22.026 76.762,22.249 76.762,22.36 76.762,22.583 76.65,22.806 76.539,22.915 
	76.428,23.138 76.206,23.36 75.983,23.583 75.65,23.806 75.539,23.583 "/>
<path d="M75.76,23.804c0.368-0.367,0.87-0.714,0.87-1.276c0-0.356-0.309-0.479-0.612-0.479c-0.05,0-0.101,0-0.152,0
	c-0.231,0-0.154-0.068-0.023,0.062c-0.131-0.131-0.229-0.174-0.415-0.174c0.104,0.104,0.208,0.209,0.312,0.312
	c0-0.123,0.001-0.238-0.092-0.332c-0.173-0.176-0.019,0.23-0.019-0.076c0-0.197,0.074-0.203-0.068-0.061
	c0.091-0.092,0.149-0.157,0.247-0.205c0.106-0.048,0.102-0.053-0.012-0.014c0.062,0,0.125,0,0.187,0
	c0.078,0.006,0.074-0.002-0.012-0.025c-0.006-0.003,0.163,0.084,0.153,0.074c0.064,0.064,0.129,0.129,0.193,0.193
	c0.174,0.175,0.02-0.23,0.02,0.076c0,0.119,0.037,0.201,0.12,0.285c0.085,0.1,0.082,0.064-0.009-0.104c0,0.062,0,0.125,0,0.188
	c0,0.1,0,0.199,0,0.299c0-0.172-0.023,0.04-0.103,0.117c-0.155,0.153-0.204,0.316-0.361,0.475c-0.175,0.176-0.276,0.252-0.493,0.396
	c0.143,0.037,0.285,0.074,0.427,0.111c-0.037-0.074-0.074-0.148-0.111-0.223c-0.18-0.359-0.719-0.043-0.539,0.316
	c0.037,0.074,0.074,0.148,0.111,0.223c0.072,0.146,0.292,0.201,0.427,0.111c0.44-0.294,0.893-0.674,1.129-1.146
	c0.137-0.273,0.137-0.491,0.137-0.791c0-0.146-0.012-0.252-0.12-0.361c-0.161-0.16,0.009,0.256,0.009,0.028
	c0-0.093,0.006-0.185-0.043-0.269c-0.249-0.426-0.875-0.777-1.351-0.539c-0.25,0.125-0.564,0.331-0.564,0.642
	c0,0.13,0,0.259,0,0.388c0,0.083,0.033,0.162,0.092,0.221c0.178,0.18,0.019-0.129,0.019,0.002c0,0.17,0.142,0.312,0.312,0.312
	c0.129,0-0.177-0.159,0.002,0.02c0.095,0.096,0.214,0.092,0.338,0.092c0.109,0,0.218,0,0.327,0c0.131,0.01,0.104-0.012-0.081-0.062
	c0.158,0.158-0.009-0.199-0.009-0.027c-0.007,0.078,0.002,0.074,0.025-0.012c-0.025,0.051-0.051,0.102-0.077,0.151
	c-0.02,0.039-0.136,0.139-0.191,0.194c-0.148,0.148-0.296,0.297-0.444,0.445C75.033,23.647,75.475,24.089,75.76,23.804z"/>
<polygon fill-rule="evenodd" clip-rule="evenodd" points="75.539,27.694 75.762,27.472 75.983,27.249 76.206,27.026 76.317,26.806 
	76.317,26.694 76.317,26.583 76.206,26.472 75.983,26.472 75.65,26.472 75.539,26.36 75.428,26.36 75.428,26.249 75.317,26.138 
	75.317,25.915 75.317,25.806 75.317,25.694 75.539,25.583 75.762,25.472 75.983,25.36 76.095,25.36 76.317,25.472 76.428,25.583 
	76.539,25.694 76.65,25.806 76.65,26.026 76.762,26.138 76.762,26.36 76.762,26.472 76.762,26.694 76.65,26.915 76.539,27.138 
	76.428,27.249 76.206,27.472 75.983,27.694 75.65,27.915 75.539,27.694 "/>
<path d="M75.76,27.915c0.368-0.367,0.87-0.714,0.87-1.276c0-0.356-0.309-0.479-0.612-0.479c-0.05,0-0.101,0-0.152,0
	c-0.231,0-0.154-0.068-0.023,0.062c-0.131-0.131-0.229-0.174-0.415-0.174c0.104,0.104,0.208,0.209,0.312,0.312
	c0-0.186-0.044-0.284-0.173-0.414c0.139,0.14,0.063,0.186,0.063-0.031c0-0.074,0-0.146,0-0.221c-0.052,0.09-0.104,0.18-0.155,0.27
	c0.148-0.074,0.296-0.148,0.444-0.223c0.072-0.035,0.269-0.068,0.12-0.068c-0.158,0,0.034-0.004,0.086,0.049
	c0.055,0.055,0.109,0.109,0.164,0.164c0.132,0.133,0.049,0.156,0.049-0.045c0,0.085-0.012,0.185,0.011,0.269
	c0.015,0.054,0.042,0.099,0.081,0.138c0.13,0.131,0.02,0.097,0.02-0.074c0,0.162,0,0.324,0,0.486c0-0.184-0.025,0.012-0.068,0.098
	c-0.026,0.053-0.056,0.152-0.092,0.189c-0.281,0.28-0.487,0.494-0.796,0.699c0.143,0.037,0.285,0.074,0.427,0.111
	c-0.037-0.073-0.074-0.146-0.111-0.221c-0.181-0.359-0.721-0.043-0.539,0.316c0.037,0.073,0.074,0.146,0.111,0.221
	c0.073,0.146,0.292,0.201,0.427,0.111c0.683-0.452,1.509-1.206,1.255-2.13c-0.015-0.054-0.042-0.099-0.081-0.138
	c-0.13-0.131-0.02-0.097-0.02,0.074c0-0.112,0.017-0.241-0.043-0.344c-0.077-0.133-0.307-0.377-0.445-0.445
	c-0.522-0.262-0.833-0.02-1.315,0.223c-0.097,0.049-0.155,0.165-0.155,0.27c0,0.137,0,0.272,0,0.408
	c0,0.098,0.021,0.186,0.092,0.256c0.178,0.18,0.019-0.129,0.019,0.002c0,0.17,0.142,0.312,0.312,0.312
	c0.129,0-0.177-0.159,0.002,0.02c0.095,0.096,0.214,0.092,0.338,0.092c0.109,0,0.218,0,0.327,0c0.131,0.01,0.104-0.012-0.081-0.062
	c0.158,0.158-0.009-0.199-0.009-0.027c-0.007,0.078,0.002,0.074,0.025-0.012c-0.025,0.051-0.051,0.102-0.077,0.151
	c-0.02,0.039-0.136,0.139-0.191,0.194c-0.148,0.148-0.296,0.297-0.444,0.445C75.033,27.759,75.475,28.2,75.76,27.915z"/>
<polygon fill-rule="evenodd" clip-rule="evenodd" points="75.539,31.804 75.762,31.583 75.983,31.36 76.206,31.138 76.317,31.026 
	76.317,30.804 76.317,30.694 76.206,30.583 75.983,30.583 75.65,30.583 75.539,30.583 75.428,30.472 75.428,30.36 75.317,30.249 
	75.317,30.026 75.317,29.915 75.317,29.806 75.539,29.694 75.762,29.583 75.983,29.472 76.095,29.583 76.317,29.583 76.428,29.694 
	76.539,29.806 76.65,30.026 76.65,30.138 76.762,30.249 76.762,30.472 76.762,30.694 76.762,30.804 76.65,31.026 76.539,31.249 
	76.428,31.36 76.206,31.583 75.983,31.804 75.65,32.026 75.539,31.804 "/>
<path d="M75.76,32.024c0.343-0.34,1.294-1.035,0.75-1.58c-0.156-0.156-0.277-0.174-0.492-0.174c-0.083,0-0.167,0-0.25,0
	c-0.19,0-0.158-0.06-0.036,0.062c-0.154-0.154,0.081,0.248-0.002-0.056c-0.026-0.093-0.097-0.155-0.162-0.22
	c0.139,0.14,0.063,0.186,0.063-0.031c0-0.074,0-0.146,0-0.221c-0.052,0.09-0.104,0.18-0.155,0.27
	c0.222-0.111,0.444-0.223,0.666-0.334c-0.126-0.016-0.252-0.032-0.378-0.049c0.111,0.111,0.197,0.203,0.367,0.203
	c0.212,0,0.12,0.062-0.004-0.062c0.055,0.055,0.109,0.109,0.164,0.164c-0.01-0.01,0.077,0.158,0.074,0.152
	c-0.083-0.164-0.004,0.11,0.018,0.146c0.021,0.033,0.048,0.064,0.077,0.092c0.085,0.1,0.082,0.064-0.009-0.104
	c0,0.074,0,0.148,0,0.223c0,0.062,0,0.125,0,0.188c-0.006,0.078,0.002,0.073,0.025-0.014c-0.025,0.051-0.051,0.102-0.077,0.153
	c-0.059,0.117-0.1,0.214-0.191,0.306c-0.257,0.256-0.429,0.426-0.714,0.617c0.143,0.037,0.285,0.074,0.427,0.111
	c-0.037-0.074-0.074-0.148-0.111-0.223c-0.18-0.359-0.719-0.043-0.539,0.316c0.037,0.074,0.074,0.148,0.111,0.223
	c0.072,0.146,0.292,0.201,0.427,0.111c0.586-0.392,1.266-0.949,1.266-1.713c0-0.152,0.037-0.355-0.043-0.492
	c-0.021-0.033-0.048-0.064-0.077-0.092c-0.082-0.094-0.079-0.066,0.009,0.083c0-0.126-0.043-0.214-0.099-0.323
	c-0.081-0.16-0.201-0.271-0.326-0.396c-0.07-0.071-0.159-0.092-0.255-0.092c-0.308,0,0.096,0.154-0.079-0.02
	c-0.104-0.104-0.252-0.113-0.378-0.049c-0.222,0.111-0.444,0.223-0.666,0.334c-0.097,0.049-0.155,0.165-0.155,0.27
	c0,0.137,0,0.272,0,0.408c0,0.068,0.007,0.133,0.043,0.193c0.021,0.033,0.048,0.064,0.077,0.092c0.081,0.094,0.078,0.066-0.01-0.083
	c0,0.44,0.414,0.479,0.751,0.479c0.051,0,0.102,0,0.152,0c0.305,0-0.064-0.123,0.049-0.01c-0.122-0.121-0.062-0.158-0.062,0.029
	c0,0.195,0.171-0.189-0.02,0.002c-0.223,0.222-0.444,0.444-0.667,0.666C75.031,31.866,75.474,32.309,75.76,32.024z"/>
<rect id="_x3C_Slice_x3E__103_" y="54.667" fill="none" width="53.333" height="50.666"/>
<rect id="_x3C_Slice_x3E__102_" x="53.333" y="54.667" fill="none" width="48" height="50.666"/>
<rect id="_x3C_Slice_x3E__101_" fill="none" width="53.333" height="54.667"/>
<rect id="_x3C_Slice_x3E__100_" x="53.333" fill="none" width="48" height="54.667"/>
</svg>
