<?xml version="1.0" encoding="utf-8"?>
<!-- Generator: Adobe Illustrator 15.0.2, SVG Export Plug-In  -->
<!DOCTYPE svg PUBLIC "-//W3C//DTD SVG 1.1//EN" "http://www.w3.org/Graphics/SVG/1.1/DTD/svg11.dtd" [
	<!ENTITY ns_flows "http://ns.adobe.com/Flows/1.0/">
]>
<svg version="1.1"
	 xmlns="http://www.w3.org/2000/svg" xmlns:xlink="http://www.w3.org/1999/xlink" xmlns:a="http://ns.adobe.com/AdobeSVGViewerExtensions/3.0/"
	 x="0px" y="0px" width="48px" height="35px" viewBox="53 0.666 48 35" overflow="visible" enable-background="new 53 0.666 48 35"
	 xml:space="preserve">
<defs>
</defs>
<path d="M70.338,23.135c0,3.223,0,6.445,0,9.668c0,0.402,0.625,0.402,0.625,0c0-3.223,0-6.445,0-9.668
	C70.963,22.732,70.338,22.732,70.338,23.135L70.338,23.135z"/>
<path d="M77.094,31.248c-0.572-0.69-1.144-1.381-1.716-2.071c-0.372-0.448-0.744-0.897-1.116-1.347
	c-0.107-0.129-0.214-0.258-0.321-0.388c-0.186-0.224-0.18,0.489-0.01,0.289c1.239-1.458,2.479-2.917,3.718-4.376
	c0.171-0.2,0.068-0.533-0.221-0.533c-2.703,0-5.407,0-8.11,0c-0.403,0-0.403,0.625,0,0.625c2.703,0,5.407,0,8.11,0
	c-0.074-0.178-0.147-0.355-0.221-0.533c-1.259,1.481-2.519,2.963-3.777,4.445c-0.119,0.139-0.116,0.303,0,0.441
	c1.074,1.297,2.148,2.593,3.223,3.889C76.909,32,77.349,31.556,77.094,31.248L77.094,31.248z"/>
<path d="M78.285,32.72c-0.085-0.428-0.141-0.87-0.279-1.284c-0.117-0.351-0.154-0.422-0.154-0.72c0-0.288-0.282-0.448-0.534-0.448
	c-0.17,0-0.312,0.143-0.312,0.312c0,0.037,0,0.074,0,0.111c0.03-0.074,0.061-0.147,0.092-0.221
	c-0.169,0.168-0.203,0.283-0.203,0.518c0-0.186-0.005-0.026-0.057,0.077c-0.049,0.099-0.054,0.185-0.054,0.292
	c0.052-0.09,0.104-0.18,0.155-0.27c-0.207,0.104-0.344,0.219-0.507,0.383c0.073-0.031,0.147-0.062,0.221-0.092
	c-0.367,0-0.724-0.074-0.998,0.203c-0.121,0.121-0.121,0.32,0,0.441c0.262,0.265,0.784,0.338,1.146,0.483
	c0.168,0.067-0.028-0.021,0.088,0.043c0.121,0.067,0.243,0.136,0.364,0.202c0.191,0.107,0.383,0.214,0.575,0.32
	c0.353,0.196,0.667-0.344,0.315-0.539c-0.614-0.342-1.423-0.932-2.158-0.932c0.074,0.03,0.147,0.061,0.221,0.092
	c-0.037-0.037-0.073-0.074-0.11-0.111c0,0.146,0,0.295,0,0.441c0.037-0.037,0.074-0.074,0.11-0.111
	c-0.073,0.031-0.147,0.062-0.221,0.092c0.223,0,0.444,0,0.667,0c0.22,0,0.426-0.288,0.602-0.377c0.097-0.049,0.155-0.165,0.155-0.27
	c0-0.169-0.086,0.133-0.003-0.031c0.024-0.049,0.048-0.097,0.072-0.145c0.06-0.119,0.043-0.25,0.043-0.379
	c-0.03,0.074-0.061,0.147-0.092,0.221c0.142-0.142,0.203-0.237,0.203-0.443c-0.104,0.104-0.208,0.209-0.312,0.312
	c0.037,0,0.073,0,0.11,0c-0.074-0.03-0.147-0.061-0.221-0.092c0.037,0.037,0.074,0.074,0.111,0.111
	c-0.031-0.073-0.062-0.146-0.092-0.221c0,0.4,0.107,0.703,0.234,1.083c0.117,0.351,0.149,0.749,0.222,1.111
	C77.761,33.281,78.363,33.113,78.285,32.72z"/>
<path d="M76.65,22.447c0.688,0,1.375,0,2.062,0c0.581,0,0.069-0.197,0.069-0.219c0,0.229,0,0.458,0,0.688c0,1.684,0,3.368,0,5.053
	s0,3.369,0,5.053c0,0.83-0.104,0.469,0.208,0.469c-0.78,0-1.56,0-2.339,0c-0.403,0-0.403,0.625,0,0.625c0.814,0,1.63,0,2.444,0
	c0.17,0,0.312-0.143,0.312-0.312c0-3.889,0-7.779,0-11.668c0-0.17-0.142-0.312-0.312-0.312c-0.814,0-1.63,0-2.444,0
	C76.247,21.822,76.247,22.447,76.65,22.447L76.65,22.447z"/>
<path d="M82.074,25.914c0-0.234-0.02-0.371-0.191-0.543c-0.064-0.064-0.147-0.098-0.227-0.137c-0.039-0.02-0.09-0.07-0.019,0.002
	c-0.033-0.033-0.066-0.066-0.099-0.1c-0.104-0.105-0.252-0.112-0.378-0.049c-0.148,0.074-0.296,0.148-0.444,0.223
	c-0.241,0.121-0.266,0.368-0.266,0.604c0,0.234,0.026,0.481,0.266,0.602c0.148,0.074,0.296,0.148,0.444,0.223
	c0.126,0.063,0.275,0.057,0.378-0.049c0.024-0.023,0.048-0.048,0.072-0.072c0.065-0.065-0.077,0.036,0.046-0.025
	c0.08-0.039,0.162-0.072,0.227-0.137C82.054,26.284,82.074,26.146,82.074,25.914c0-0.402-0.625-0.402-0.625,0
	c0,0.074,0,0.146,0,0.221c0.03-0.074,0.061-0.147,0.092-0.221c-0.033,0.033-0.066,0.066-0.1,0.1c0.085-0.085-0.061,0.019-0.1,0.039
	c-0.099,0.049-0.167,0.117-0.244,0.195c0.126-0.017,0.252-0.033,0.378-0.049c-0.085-0.043-0.171-0.086-0.257-0.129
	c-0.059-0.029-0.118-0.06-0.178-0.09c0.105,0.053-0.025-0.034-0.058-0.066c0.031,0.073,0.062,0.146,0.092,0.221
	c0-0.148,0-0.295,0-0.443c-0.03,0.074-0.061,0.147-0.092,0.221c0.033-0.032,0.163-0.119,0.058-0.066
	c0.06-0.03,0.119-0.061,0.178-0.09c0.086-0.043,0.172-0.086,0.257-0.129c-0.126-0.016-0.252-0.032-0.378-0.049
	c0.077,0.078,0.146,0.146,0.244,0.195c0.047,0.023,0.095,0.048,0.143,0.072c-0.105-0.053,0.025,0.034,0.058,0.066
	c-0.031-0.073-0.062-0.146-0.092-0.221c0,0.074,0,0.148,0,0.223C81.449,26.316,82.074,26.316,82.074,25.914z"/>
<path d="M82.762,25.602c-1,0-2,0-3,0c-0.403,0-0.403,0.625,0,0.625c1,0,2,0,3,0C83.165,26.227,83.165,25.602,82.762,25.602
	L82.762,25.602z"/>
<path d="M81.825,24.422c-0.519,0.889-1.037,1.777-1.556,2.666c-0.204,0.35,0.336,0.664,0.539,0.316
	c0.519-0.889,1.037-1.777,1.556-2.666C82.568,24.389,82.028,24.074,81.825,24.422L81.825,24.422z"/>
<path d="M82.364,27.088c-0.519-0.889-1.037-1.777-1.556-2.666c-0.203-0.348-0.743-0.033-0.539,0.316
	c0.519,0.889,1.037,1.777,1.556,2.666C82.028,27.752,82.568,27.438,82.364,27.088L82.364,27.088z"/>
<path d="M82.074,29.914c0-0.15,0.026-0.326-0.092-0.443c-0.091-0.091-0.171-0.158-0.286-0.217c-0.21-0.104-0.545-0.162-0.769-0.051
	c-0.284,0.143-0.479,0.279-0.479,0.623c0,0.104,0,0.206,0,0.309c0,0.129,0.098,0.268,0.154,0.381
	c0.048,0.096,0.165,0.154,0.27,0.154c0.029,0,0.058,0,0.087,0c0.131,0,0.16,0.049-0.014-0.038c0.071,0.036,0.143,0.071,0.213,0.106
	c0.126,0.063,0.275,0.057,0.378-0.049c0.037-0.037,0.074-0.074,0.11-0.111c-0.073,0.031-0.147,0.062-0.221,0.092
	c0.074,0,0.148,0,0.223,0c0.104,0,0.222-0.059,0.27-0.154c0.037-0.074,0.074-0.148,0.111-0.223
	C82.09,30.175,82.074,30.041,82.074,29.914c0-0.402-0.625-0.402-0.625,0c0,0.029,0,0.059,0,0.087c0,0.13-0.049,0.159,0.038-0.015
	c-0.036,0.071-0.071,0.143-0.106,0.213c0.09-0.051,0.18-0.103,0.27-0.154c-0.074,0-0.148,0-0.223,0
	c-0.148,0-0.236,0.107-0.331,0.203c0.126-0.017,0.252-0.033,0.378-0.049c-0.074-0.037-0.148-0.074-0.223-0.111
	c-0.118-0.059-0.251-0.043-0.379-0.043c0.09,0.052,0.18,0.104,0.27,0.154c-0.025-0.051-0.051-0.102-0.076-0.152
	c-0.085-0.17,0.007,0.203,0.007,0.001c0-0.118,0-0.237,0-0.356c-0.03,0.074-0.061,0.147-0.092,0.221
	c0.033-0.033,0.066-0.066,0.1-0.1c-0.082,0.082,0.022,0,0.059-0.018c0.124-0.062,0.136-0.014-0.034-0.014c0.055,0,0.11,0,0.166,0
	c0.033,0,0.066,0,0.099,0c0.132,0-0.2-0.092-0.032-0.008c0.047,0.023,0.095,0.048,0.143,0.072c-0.105-0.053,0.025,0.034,0.058,0.066
	c-0.031-0.073-0.062-0.146-0.092-0.221c0,0.074,0,0.148,0,0.223C81.449,30.316,82.074,30.316,82.074,29.914z"/>
<path d="M82.762,29.602c-1,0-2,0-3,0c-0.403,0-0.403,0.625,0,0.625c1,0,2,0,3,0C83.165,30.227,83.165,29.602,82.762,29.602
	L82.762,29.602z"/>
<path d="M81.825,28.422c-0.519,0.889-1.037,1.777-1.556,2.666c-0.204,0.35,0.336,0.664,0.539,0.316
	c0.519-0.889,1.037-1.777,1.556-2.666C82.568,28.389,82.028,28.074,81.825,28.422L81.825,28.422z"/>
<path d="M82.364,31.088c-0.519-0.889-1.037-1.777-1.556-2.666c-0.203-0.348-0.743-0.033-0.539,0.316
	c0.519,0.889,1.037,1.777,1.556,2.666C82.028,31.752,82.568,31.438,82.364,31.088L82.364,31.088z"/>
<rect id="_x3C_Slice_x3E__101_" fill="none" width="53.333" height="35.666"/>
<rect id="_x3C_Slice_x3E__100_" x="53.333" fill="none" width="48" height="35.666"/>
</svg>
