<?xml version="1.0" encoding="utf-8"?>
<!-- Generator: Adobe Illustrator 15.0.2, SVG Export Plug-In  -->
<!DOCTYPE svg PUBLIC "-//W3C//DTD SVG 1.1//EN" "http://www.w3.org/Graphics/SVG/1.1/DTD/svg11.dtd" [
	<!ENTITY ns_flows "http://ns.adobe.com/Flows/1.0/">
]>
<svg version="1.1"
	 xmlns="http://www.w3.org/2000/svg" xmlns:xlink="http://www.w3.org/1999/xlink" xmlns:a="http://ns.adobe.com/AdobeSVGViewerExtensions/3.0/"
	 x="0px" y="0px" width="56px" height="53px" viewBox="54.333 0.333 56 53"
	 overflow="visible" enable-background="new 54.333 0.333 56 53" xml:space="preserve">
<defs>
</defs>
<path d="M24.649,29.916v-8.11 M82.872,25.916h-8.223 M82.872,27.361h-8.223 M82.315,27.694l1.777-1l-1.777-1.111"/>
<path d="M82.872,25.604c-2.741,0-5.482,0-8.223,0c-0.403,0-0.403,0.625,0,0.625c2.74,0,5.481,0,8.223,0
	C83.274,26.229,83.274,25.604,82.872,25.604L82.872,25.604z"/>
<path d="M82.872,27.049c-2.741,0-5.482,0-8.223,0c-0.403,0-0.403,0.625,0,0.625c2.74,0,5.481,0,8.223,0
	C83.274,27.674,83.274,27.049,82.872,27.049L82.872,27.049z"/>
<path d="M82.473,27.964c0.593-0.333,1.185-0.667,1.777-1c0.21-0.118,0.194-0.418,0-0.54c-0.593-0.371-1.185-0.741-1.777-1.111
	c-0.343-0.214-0.656,0.327-0.315,0.54c0.592,0.371,1.186,0.741,1.777,1.111c0-0.18,0-0.359,0-0.54c-0.592,0.333-1.186,0.667-1.777,1
	C81.806,27.622,82.121,28.162,82.473,27.964L82.473,27.964z"/>
<polygon fill-rule="evenodd" clip-rule="evenodd" points="78.538,31.472 78.981,30.583 79.315,30.027 79.538,29.694 79.538,29.583 
	79.538,29.472 79.427,29.472 79.315,29.472 79.204,29.583 79.093,29.806 78.872,29.806 78.761,29.916 78.538,29.916 78.427,29.916 
	78.315,29.806 78.093,29.806 77.981,29.583 77.872,29.472 77.761,29.472 77.649,29.472 77.649,29.583 77.649,29.694 77.872,30.027 
	78.204,30.583 78.538,31.472 "/>
<path d="M78.808,31.63c0.18-0.36,0.346-0.728,0.553-1.072c0.215-0.357,0.49-0.659,0.49-1.086c0-0.17-0.143-0.312-0.312-0.312
	c-0.389,0-0.545,0.147-0.716,0.488c0.091-0.051,0.181-0.103,0.271-0.154c-0.246,0-0.373,0.023-0.554,0.202
	c0.073-0.03,0.147-0.061,0.222-0.092c-0.111,0-0.223,0-0.334,0c0.073,0.031,0.146,0.062,0.221,0.092
	c-0.181-0.18-0.309-0.202-0.555-0.202c0.09,0.051,0.18,0.103,0.27,0.154c-0.171-0.341-0.324-0.488-0.713-0.488
	c-0.171,0-0.312,0.143-0.312,0.312c0,0.409,0.246,0.682,0.45,1.023c0.047,0.079,0.094,0.158,0.142,0.236
	c-0.076-0.126,0.043,0.122,0.061,0.165c0.082,0.22,0.164,0.439,0.247,0.658c0.14,0.374,0.745,0.212,0.603-0.166
	c-0.128-0.34-0.223-0.725-0.41-1.038c-0.099-0.165-0.19-0.336-0.297-0.495c-0.068-0.102-0.136-0.203-0.203-0.305
	c0.075,0.113,0.033,0.151,0.033,0.032c0-0.037,0-0.074,0-0.111c-0.104,0.104-0.209,0.208-0.312,0.312c0.074,0,0.148,0,0.223,0
	c-0.074-0.03-0.148-0.061-0.222-0.091c0.085,0.086,0.108,0.142,0.172,0.27c0.048,0.097,0.165,0.155,0.271,0.155
	c0.074,0,0.148,0,0.223,0c-0.074-0.031-0.148-0.062-0.222-0.092c0.284,0.283,0.714,0.284,0.999,0
	c-0.074,0.03-0.147,0.061-0.221,0.092c0.073,0,0.146,0,0.221,0c0.104,0,0.221-0.059,0.27-0.155c0.064-0.128,0.088-0.184,0.174-0.27
	c-0.074,0.031-0.147,0.061-0.221,0.091c0.074,0,0.148,0,0.223,0c-0.104-0.104-0.209-0.208-0.312-0.312c0,0.064,0,0.129,0,0.193
	c0-0.14,0.048-0.137-0.028-0.023c-0.039,0.059-0.078,0.117-0.117,0.176c-0.104,0.156-0.196,0.321-0.294,0.482
	c-0.195,0.325-0.35,0.676-0.519,1.015C78.089,31.674,78.628,31.99,78.808,31.63z"/>
<path d="M78.851,29.916c0-2.703,0-5.407,0-8.11c0-0.403-0.625-0.403-0.625,0c0,2.703,0,5.407,0,8.11
	C78.226,30.319,78.851,30.319,78.851,29.916L78.851,29.916z"/>
<rect id="_x3C_Slice_x3E__101_" fill="none" width="54.667" height="53.333"/>
<rect id="_x3C_Slice_x3E__100_" x="54.667" fill="none" width="56" height="53.333"/>
</svg>
