<?xml version="1.0" encoding="utf-8"?>
<!-- Generator: Adobe Illustrator 15.0.2, SVG Export Plug-In  -->
<!DOCTYPE svg PUBLIC "-//W3C//DTD SVG 1.1//EN" "http://www.w3.org/Graphics/SVG/1.1/DTD/svg11.dtd" [
	<!ENTITY ns_flows "http://ns.adobe.com/Flows/1.0/">
]>
<svg version="1.1"
	 xmlns="http://www.w3.org/2000/svg" xmlns:xlink="http://www.w3.org/1999/xlink" xmlns:a="http://ns.adobe.com/AdobeSVGViewerExtensions/3.0/"
	 x="0px" y="0px" width="52px" height="53px" viewBox="0 0.333 52 53" overflow="visible" enable-background="new 0 0.333 52 53"
	 xml:space="preserve">
<defs>
</defs>
<path d="M23.828,31.186c1.256,0.837,2.033,1.028,3.427,0.333c1.359-0.677,1.412-2.866,0.667-3.983
	c-1.028-1.543-3.183-1.793-3.802-3.647c-0.285-0.853,0.98-1.994,1.754-1.994c0.69,0,1.179,0.308,1.668,0.797
	c0.285,0.285,0.728-0.157,0.442-0.442c-2.423-2.423-6.062,0.819-3.554,3.331c1.203,1.204,4.01,1.875,3.253,4.141
	c-0.632,1.892-2.093,1.889-3.541,0.924C23.807,30.422,23.494,30.964,23.828,31.186L23.828,31.186z"/>
<path d="M30.921,25.758c-0.371-0.165-0.739-0.342-1.116-0.492c-0.124-0.05-0.247-0.099-0.371-0.148
	c-0.044-0.018-0.089-0.035-0.133-0.053c0.197,0.079,0.092,0.041,0.016-0.035c-0.177-0.177-0.312-0.203-0.554-0.203
	c-0.17,0-0.312,0.143-0.312,0.312c0,0.29,0.22,0.573,0.425,0.776c-0.031-0.074-0.062-0.147-0.092-0.221c0,0.222,0,0.444,0,0.667
	c0.03-0.074,0.061-0.147,0.092-0.221c-0.312,0.311-0.604,0.726-0.223,1.108c0.12,0.121,0.321,0.12,0.441,0
	c0.185-0.184,0.565-0.35,0.826-0.507c0.306-0.183,0.674-0.299,1-0.444c0.368-0.164,0.05-0.702-0.315-0.54
	c-0.333,0.148-0.667,0.296-1,0.444c-0.303,0.134-0.719,0.371-0.952,0.604c0.147,0,0.294,0,0.441,0
	c-0.037-0.037-0.074-0.074-0.11-0.111c0.03,0.074,0.061,0.147,0.091,0.221c0-0.037,0-0.074,0-0.11
	c-0.031,0.073-0.061,0.147-0.091,0.221c0.146-0.146,0.215-0.327,0.333-0.444c0.135-0.134,0.092-0.381,0.092-0.555
	c0-0.177,0.045-0.418-0.092-0.554c-0.118-0.118-0.188-0.298-0.333-0.444c0.03,0.074,0.061,0.147,0.091,0.221
	c0-0.037,0-0.074,0-0.111c-0.104,0.104-0.208,0.208-0.312,0.312c0.074,0,0.148,0,0.222,0c-0.074-0.03-0.147-0.061-0.221-0.091
	c0.127,0.127,0.231,0.251,0.401,0.319c0.102,0.041,0.204,0.082,0.306,0.122c0.031,0.013,0.287,0.12,0.141,0.055
	c0.331,0.147,0.662,0.294,0.993,0.441C30.971,26.459,31.289,25.921,30.921,25.758z"/>
<path d="M29.097,25.715c-2.593,0-5.186,0-7.778,0c-0.403,0-0.403,0.625,0,0.625c2.592,0,5.185,0,7.778,0
	C29.5,26.34,29.5,25.715,29.097,25.715L29.097,25.715z"/>
<rect id="_x3C_Slice_x3E__100_" fill="none" width="52" height="53.333"/>
</svg>
