<?xml version="1.0" encoding="utf-8"?>
<!-- Generator: Adobe Illustrator 15.0.2, SVG Export Plug-In  -->
<!DOCTYPE svg PUBLIC "-//W3C//DTD SVG 1.1//EN" "http://www.w3.org/Graphics/SVG/1.1/DTD/svg11.dtd" [
	<!ENTITY ns_flows "http://ns.adobe.com/Flows/1.0/">
]>
<svg version="1.1"
	 xmlns="http://www.w3.org/2000/svg" xmlns:xlink="http://www.w3.org/1999/xlink" xmlns:a="http://ns.adobe.com/AdobeSVGViewerExtensions/3.0/"
	 x="0px" y="0px" width="53px" height="55px" viewBox="0 0.333 53 55" overflow="visible" enable-background="new 0 0.333 53 55"
	 xml:space="preserve">
<defs>
</defs>
<polygon fill-rule="evenodd" clip-rule="evenodd" points="21.54,25.583 21.762,25.36 21.984,25.249 22.207,25.026 22.317,24.806 
	22.317,24.583 22.317,24.472 22.207,24.472 21.984,24.472 21.651,24.36 21.54,24.36 21.429,24.249 21.429,24.138 21.317,24.138 
	21.317,23.915 21.317,23.806 21.317,23.694 21.54,23.472 21.762,23.36 21.984,23.36 22.095,23.36 22.317,23.36 22.429,23.472 
	22.54,23.583 22.651,23.806 22.651,23.915 22.762,24.138 22.762,24.249 22.762,24.472 22.762,24.694 22.651,24.806 22.54,25.026 
	22.429,25.249 22.207,25.36 21.984,25.583 21.651,25.806 21.54,25.583 "/>
<path d="M21.761,25.804c0.206-0.205,0.426-0.314,0.644-0.533c0.222-0.223,0.226-0.508,0.226-0.799c0-0.17-0.142-0.312-0.312-0.312
	c-0.192,0-0.266,0.006-0.417-0.045c-0.078-0.025-0.165-0.066-0.25-0.066c-0.104-0.008-0.077,0.014,0.082,0.062
	c-0.158-0.158,0.009,0.199,0.009,0.027c0-0.17-0.142-0.312-0.312-0.312c-0.037,0-0.074,0-0.111,0
	c0.104,0.104,0.208,0.209,0.312,0.312c0-0.074,0-0.148,0-0.223c0-0.037,0-0.072,0-0.109c0-0.176-0.177,0.195-0.013,0.031
	c0.082-0.082,0.105-0.107,0.192-0.15c0.106-0.048,0.102-0.053-0.012-0.014c0.062,0,0.125,0,0.188,0c0.074,0,0.148,0,0.222,0
	c0.146,0-0.17-0.152,0.03,0.049c0.071,0.07,0.102,0.271,0.102,0.139c0,0.126,0.043,0.215,0.098,0.324
	c0.084,0.168,0.013-0.084,0.013,0.1c0,0.1,0,0.199,0,0.299c0,0.195,0.171-0.189-0.02,0.002c-0.075,0.074-0.113,0.191-0.159,0.283
	c-0.049,0.098-0.174,0.199-0.034,0.129c-0.098,0.049-0.196,0.088-0.274,0.166c-0.167,0.166-0.25,0.227-0.469,0.373
	c0.143,0.037,0.285,0.074,0.428,0.111c-0.037-0.074-0.074-0.148-0.111-0.223c-0.18-0.36-0.718-0.043-0.539,0.316
	c0.037,0.074,0.073,0.148,0.11,0.223c0.073,0.146,0.293,0.201,0.428,0.111c0.438-0.291,0.821-0.533,1.057-1.002
	c0.121-0.24,0.209-0.338,0.209-0.637c0-0.118,0.021-0.266-0.011-0.382c-0.017-0.06-0.06-0.131-0.087-0.187
	c-0.104-0.209-0.013,0.098-0.013-0.062c0-0.254-0.232-0.473-0.396-0.637c-0.178-0.178-0.462-0.121-0.694-0.121
	c-0.289,0-0.5,0.149-0.698,0.348c-0.214,0.213-0.17,0.46-0.17,0.742c0,0.17,0.142,0.312,0.312,0.312c0.037,0,0.074,0,0.111,0
	c-0.104-0.104-0.208-0.209-0.312-0.312c0,0.596,0.742,0.646,1.201,0.646c-0.104-0.104-0.208-0.209-0.312-0.312
	c0,0.1,0,0.199,0,0.299c0-0.177-0.008-0.021-0.051,0.063c0.017-0.032-0.12,0.124-0.112,0.116c-0.134,0.134-0.36,0.249-0.522,0.412
	C21.034,25.647,21.476,26.089,21.761,25.804z"/>
<polygon fill-rule="evenodd" clip-rule="evenodd" points="19.207,29.694 19.54,29.583 19.762,29.36 19.873,29.138 19.984,28.915 
	20.095,28.806 19.984,28.583 19.873,28.583 19.762,28.583 19.429,28.472 19.318,28.472 19.207,28.36 19.095,28.36 19.095,28.249 
	19.095,28.026 19.095,27.915 19.095,27.806 19.207,27.583 19.429,27.472 19.651,27.472 19.873,27.472 19.984,27.583 20.095,27.583 
	20.318,27.806 20.318,27.915 20.429,28.026 20.429,28.249 20.54,28.36 20.429,28.583 20.429,28.806 20.429,28.915 20.318,29.138 
	20.095,29.36 19.873,29.583 19.651,29.806 19.318,29.915 19.207,29.694 "/>
<path d="M19.29,29.995c0.291-0.096,0.453-0.173,0.67-0.391c0.164-0.164,0.194-0.418,0.356-0.578
	c0.104-0.104,0.111-0.252,0.049-0.379c-0.037-0.074-0.074-0.148-0.111-0.223c-0.048-0.096-0.165-0.154-0.27-0.154
	c-0.178,0-0.297-0.041-0.473-0.1c-0.299-0.101,0.122,0.175-0.084-0.031c-0.094-0.094-0.21-0.092-0.333-0.092
	c0.104,0.104,0.208,0.209,0.312,0.312c0-0.111,0-0.223,0-0.334c0-0.055,0-0.111,0-0.166c0,0.15,0.017-0.017,0.051-0.085
	c-0.067,0.134-0.004,0.032,0.093-0.017c-0.16,0.08-0.022,0.025,0.064,0.025c0.049,0,0.097,0,0.146,0c0.195,0-0.189-0.171,0.002,0.02
	c0.058,0.059,0.138,0.092,0.221,0.092c0.175,0-0.195-0.178-0.032-0.014c0.158,0.158,0.053,0.144,0.053-0.021
	c0,0.075,0.003,0.145,0.042,0.213c0.032,0.055,0.087,0.102,0.131,0.145c-0.125-0.125-0.062-0.214-0.062-0.004
	c0,0.17,0.091,0.256,0.203,0.367c-0.017-0.126-0.033-0.252-0.049-0.379c-0.085,0.17-0.154,0.3-0.154,0.492
	c0,0.062-0.043,0.234,0.025,0.098c-0.065,0.132-0.084,0.164-0.189,0.27c-0.108,0.107-0.216,0.216-0.324,0.324
	c-0.072,0.072-0.287,0.193-0.086,0.127c-0.103,0.033-0.205,0.067-0.308,0.102c0.118,0.047,0.235,0.096,0.353,0.143
	c-0.037-0.073-0.074-0.146-0.111-0.221c-0.182-0.359-0.721-0.043-0.54,0.316c0.037,0.073,0.074,0.146,0.111,0.221
	c0.061,0.119,0.227,0.185,0.353,0.143c0.42-0.138,0.629-0.349,0.938-0.658c0.164-0.163,0.327-0.327,0.391-0.56
	c0.026-0.094,0.011-0.207,0.011-0.304c0.007-0.105-0.001-0.102-0.025,0.012c0.031-0.062,0.062-0.125,0.094-0.188
	c0.063-0.127,0.056-0.275-0.049-0.379c-0.13-0.131-0.02-0.097-0.02,0.074c0-0.086,0.012-0.186-0.011-0.271
	c-0.026-0.094-0.097-0.155-0.163-0.22c0.05,0.158,0.07,0.186,0.063,0.082c0-0.057-0.014-0.109-0.042-0.158
	c-0.075-0.127-0.264-0.326-0.41-0.365c-0.304-0.084,0.099,0.151-0.055-0.002c-0.07-0.07-0.146-0.121-0.25-0.121
	c-0.281,0-0.78-0.046-0.937,0.266c-0.161,0.322-0.154,0.582-0.154,0.936c0,0.17,0.142,0.312,0.312,0.312
	c0.129,0-0.177-0.159,0.001,0.02c0.089,0.09,0.185,0.059,0.273,0.089c0.217,0.072,0.386,0.114,0.614,0.114
	c-0.09-0.052-0.18-0.104-0.27-0.154c0.037,0.074,0.073,0.148,0.11,0.223c0.017-0.127,0.033-0.253,0.049-0.379
	c-0.152,0.15-0.231,0.316-0.326,0.506c-0.048,0.098-0.114,0.156-0.206,0.248c0.117-0.117,0.059-0.039-0.052-0.002
	c-0.056,0.02-0.111,0.037-0.167,0.057C18.743,29.521,18.906,30.124,19.29,29.995z"/>
<polygon fill-rule="evenodd" clip-rule="evenodd" points="23.762,29.694 24.095,29.583 24.317,29.36 24.429,29.138 24.54,28.915 
	24.54,28.806 24.54,28.583 24.429,28.583 24.207,28.583 23.984,28.472 23.873,28.472 23.762,28.36 23.651,28.36 23.651,28.249 
	23.54,28.026 23.651,27.915 23.651,27.806 23.762,27.583 23.984,27.472 24.207,27.472 24.429,27.472 24.54,27.583 24.651,27.583 
	24.762,27.806 24.873,27.915 24.984,28.026 24.984,28.249 24.984,28.36 24.984,28.583 24.984,28.806 24.873,28.915 24.762,29.138 
	24.651,29.36 24.429,29.583 24.207,29.806 23.873,29.915 23.762,29.694 "/>
<path d="M23.845,29.995c0.299-0.1,0.606-0.205,0.759-0.512c0.16-0.32,0.248-0.541,0.248-0.9c0-0.17-0.142-0.312-0.312-0.312
	c-0.1,0-0.199,0-0.299,0c0.196,0-0.09-0.077-0.174-0.1c-0.3-0.083,0.115,0.168-0.084-0.031c-0.093-0.094-0.211-0.092-0.333-0.092
	c0.104,0.104,0.208,0.209,0.312,0.312c0-0.193-0.069-0.322-0.154-0.492c-0.016,0.127-0.032,0.253-0.049,0.379
	c0.12-0.119,0.203-0.207,0.203-0.387c0,0.15,0.017-0.017,0.051-0.085c-0.085,0.073-0.08,0.08,0.017,0.022
	c0.105-0.048,0.102-0.053-0.012-0.014c0.062,0,0.125,0,0.188,0c0.218,0,0.169,0.076,0.03-0.062c0.131,0.13,0.229,0.174,0.415,0.174
	c-0.09-0.052-0.18-0.104-0.27-0.154c0.056,0.11,0.1,0.226,0.189,0.314c0.037,0.036,0.074,0.072,0.11,0.109
	c0.161,0.16-0.009-0.256-0.009-0.027c0,0.111,0,0.223,0,0.334c0,0.049,0,0.098,0,0.146c0,0.213-0.062,0.117,0.062-0.005
	c-0.177,0.175-0.232,0.454-0.383,0.604c-0.096,0.096-0.192,0.192-0.288,0.289c-0.162,0.162,0.162-0.036-0.026,0.025
	c-0.083,0.027-0.165,0.055-0.247,0.082c0.118,0.047,0.235,0.096,0.353,0.143c-0.037-0.073-0.073-0.146-0.11-0.221
	c-0.181-0.359-0.72-0.043-0.54,0.316c0.037,0.073,0.074,0.146,0.111,0.221c0.06,0.119,0.227,0.185,0.353,0.143
	c0.317-0.104,0.48-0.197,0.717-0.436c0.228-0.228,0.317-0.543,0.532-0.754c0.172-0.168,0.092-0.59,0.092-0.812
	c0-0.367-0.226-0.488-0.376-0.789c-0.049-0.096-0.166-0.154-0.27-0.154c-0.128,0,0.177,0.159-0.001-0.02
	c-0.07-0.071-0.159-0.092-0.255-0.092c-0.154,0-0.344-0.029-0.493,0.012c-0.152,0.041-0.354,0.145-0.426,0.289
	c-0.042,0.082-0.101,0.173-0.125,0.263c-0.083,0.3,0.169-0.118-0.03,0.083c-0.104,0.104-0.112,0.252-0.049,0.379
	c0.018,0.037,0.037,0.074,0.055,0.111c0.104,0.208,0.013-0.098,0.013,0.064c0,0.17,0.142,0.312,0.312,0.312
	c0.104,0.008,0.077-0.014-0.081-0.062c0.044,0.045,0.09,0.1,0.145,0.131c0.049,0.029,0.101,0.043,0.158,0.043
	c0.161,0-0.143-0.092,0.064,0.014c0.205,0.102,0.378,0.098,0.603,0.098c-0.104-0.104-0.208-0.209-0.312-0.312
	c0,0.092,0,0.186,0,0.277c0-0.15-0.017,0.017-0.051,0.085c-0.024,0.048-0.049,0.097-0.073,0.146
	c-0.049,0.098-0.114,0.156-0.206,0.248c0.117-0.117,0.06-0.039-0.052-0.002c-0.056,0.02-0.111,0.037-0.167,0.057
	C23.299,29.521,23.462,30.124,23.845,29.995z"/>
<rect id="_x3C_Slice_x3E__101_" y="54.667" fill="none" width="53.333" height="50.666"/>
<rect id="_x3C_Slice_x3E__100_" fill="none" width="53.333" height="54.667"/>
</svg>
