<?xml version="1.0" encoding="utf-8"?>
<!-- Generator: Adobe Illustrator 15.0.2, SVG Export Plug-In  -->
<!DOCTYPE svg PUBLIC "-//W3C//DTD SVG 1.1//EN" "http://www.w3.org/Graphics/SVG/1.1/DTD/svg11.dtd" [
	<!ENTITY ns_flows "http://ns.adobe.com/Flows/1.0/">
]>
<svg version="1.1"
	 xmlns="http://www.w3.org/2000/svg" xmlns:xlink="http://www.w3.org/1999/xlink" xmlns:a="http://ns.adobe.com/AdobeSVGViewerExtensions/3.0/"
	 x="0px" y="0px" width="52px" height="51px" viewBox="55.666 0.333 52 51"
	 overflow="visible" enable-background="new 55.666 0.333 52 51" xml:space="preserve">
<defs>
</defs>
<path d="M75.713,22.743c0.773,0.417,2.17,1.598,3.047,1.598c0.842,0,2.198-1.186,2.935-1.598c-0.153-0.118-0.306-0.235-0.459-0.353
	c-0.926,2.778-1.852,5.556-2.777,8.334c0.2,0,0.401,0,0.603,0c-0.963-2.778-1.926-5.556-2.889-8.334
	c-0.131-0.378-0.734-0.216-0.603,0.166c0.963,2.778,1.926,5.556,2.889,8.334c0.103,0.294,0.503,0.3,0.603,0
	c0.926-2.778,1.852-5.556,2.777-8.334c0.09-0.27-0.23-0.48-0.459-0.353c-0.914,0.512-1.828,1.024-2.742,1.536
	c0.209-0.117,0.334,0.048-0.02-0.143c-0.334-0.179-0.667-0.358-1-0.538c-0.529-0.285-1.059-0.57-1.589-0.855
	C75.674,22.012,75.357,22.552,75.713,22.743L75.713,22.743z"/>
<rect id="_x3C_Slice_x3E__103_" y="50.667" fill="none" width="56" height="57.333"/>
<rect id="_x3C_Slice_x3E__102_" x="56" y="50.667" fill="none" width="52" height="57.333"/>
<rect id="_x3C_Slice_x3E__101_" fill="none" width="56" height="50.667"/>
<rect id="_x3C_Slice_x3E__100_" x="56" fill="none" width="52" height="50.667"/>
</svg>
