<?xml version="1.0" encoding="utf-8"?>
<!-- Generator: Adobe Illustrator 15.0.2, SVG Export Plug-In  -->
<!DOCTYPE svg PUBLIC "-//W3C//DTD SVG 1.1//EN" "http://www.w3.org/Graphics/SVG/1.1/DTD/svg11.dtd" [
	<!ENTITY ns_flows "http://ns.adobe.com/Flows/1.0/">
]>
<svg version="1.1"
	 xmlns="http://www.w3.org/2000/svg" xmlns:xlink="http://www.w3.org/1999/xlink" xmlns:a="http://ns.adobe.com/AdobeSVGViewerExtensions/3.0/"
	 x="0px" y="0px" width="60px" height="57px" viewBox="0 0.667 60 57" overflow="visible" enable-background="new 0 0.667 60 57"
	 xml:space="preserve">
<defs>
</defs>
<polygon fill-rule="evenodd" clip-rule="evenodd" points="26.985,29.917 26.985,29.806 26.874,29.583 26.763,29.472 26.541,29.472 
	26.318,29.472 26.207,29.583 26.096,29.806 25.985,29.917 26.096,30.139 26.207,30.362 26.318,30.472 26.541,30.472 26.763,30.472 
	26.874,30.362 26.985,30.139 26.985,29.917 "/>
<path d="M27.297,29.917c0-0.191-0.07-0.324-0.154-0.491c-0.118-0.235-0.359-0.267-0.591-0.267c-0.217,0-0.364,0.001-0.527,0.164
	c-0.065,0.065-0.103,0.132-0.144,0.213c-0.019,0.037-0.1,0.141-0.019,0.059c-0.033,0.034-0.066,0.067-0.1,0.1
	c-0.104,0.104-0.112,0.252-0.049,0.378c0.074,0.148,0.148,0.296,0.223,0.444c0.119,0.24,0.368,0.266,0.603,0.266
	s0.483-0.025,0.603-0.266c0.037-0.074,0.074-0.148,0.111-0.222C27.313,30.179,27.297,30.045,27.297,29.917
	c0-0.403-0.625-0.403-0.625,0c0,0.045,0,0.09,0,0.135c0,0.202,0.092-0.17,0.007,0c-0.023,0.047-0.047,0.095-0.071,0.142
	c0.053-0.105-0.034,0.025-0.066,0.057c0.073-0.03,0.147-0.061,0.221-0.092c-0.148,0-0.296,0-0.444,0
	c0.074,0.031,0.147,0.062,0.221,0.092c-0.032-0.033-0.119-0.162-0.067-0.057c-0.03-0.059-0.059-0.119-0.089-0.178
	c-0.042-0.085-0.085-0.171-0.128-0.257c-0.017,0.126-0.033,0.253-0.049,0.379c0.077-0.077,0.146-0.146,0.195-0.245
	c0.023-0.047,0.047-0.095,0.071-0.142c-0.052,0.105,0.035-0.025,0.067-0.058c-0.073,0.031-0.147,0.061-0.221,0.091
	c0.148,0,0.296,0,0.444,0c-0.074-0.03-0.147-0.061-0.221-0.091c0.023,0.024,0.048,0.048,0.071,0.072
	c0.066,0.066-0.036-0.077,0.025,0.046c0.024,0.047,0.048,0.095,0.071,0.142c-0.082-0.165-0.038-0.149-0.038-0.037
	C26.672,30.32,27.297,30.32,27.297,29.917z"/>
<path d="M28.096,29.605c-1.037,0-2.074,0-3.111,0c-0.403,0-0.403,0.625,0,0.625c1.037,0,2.074,0,3.111,0
	C28.499,30.23,28.499,29.605,28.096,29.605L28.096,29.605z"/>
<path d="M27.049,28.426c-0.519,0.926-1.037,1.852-1.556,2.777c-0.197,0.353,0.343,0.667,0.539,0.315
	c0.519-0.926,1.037-1.852,1.556-2.777C27.785,28.389,27.245,28.075,27.049,28.426L27.049,28.426z"/>
<path d="M27.588,31.204c-0.519-0.926-1.037-1.852-1.556-2.777c-0.196-0.352-0.736-0.037-0.539,0.315
	c0.519,0.926,1.037,1.852,1.556,2.777C27.245,31.871,27.785,31.556,27.588,31.204L27.588,31.204z"/>
<path d="M28.651,36.119c0.814,0,1.63,0,2.444,0c0.17,0,0.312-0.143,0.312-0.312c0-3.889,0-7.778,0-11.667
	c0-0.17-0.142-0.312-0.312-0.312c-0.814,0-1.63,0-2.444,0c-0.403,0-0.403,0.625,0,0.625c0.688,0,1.375,0,2.062,0
	c0.581,0,0.069-0.197,0.069-0.219c0,0.229,0,0.458,0,0.688c0,1.684,0,3.368,0,5.052s0,3.369,0,5.052c0,0.83-0.104,0.469,0.208,0.469
	c-0.78,0-1.56,0-2.339,0C28.248,35.494,28.248,36.119,28.651,36.119L28.651,36.119z"/>
<rect id="_x3C_Slice_x3E__101_" y="57.333" fill="none" width="60" height="53.333"/>
<rect id="_x3C_Slice_x3E__100_" fill="none" width="60" height="57.333"/>
</svg>
