<?xml version="1.0" encoding="utf-8"?>
<!-- Generator: Adobe Illustrator 15.0.2, SVG Export Plug-In  -->
<!DOCTYPE svg PUBLIC "-//W3C//DTD SVG 1.1//EN" "http://www.w3.org/Graphics/SVG/1.1/DTD/svg11.dtd" [
	<!ENTITY ns_flows "http://ns.adobe.com/Flows/1.0/">
]>
<svg version="1.1"
	 xmlns="http://www.w3.org/2000/svg" xmlns:xlink="http://www.w3.org/1999/xlink" xmlns:a="http://ns.adobe.com/AdobeSVGViewerExtensions/3.0/"
	 x="0px" y="0px" width="55px" height="58px" viewBox="56.666 0 55 58" overflow="visible" enable-background="new 56.666 0 55 58"
	 xml:space="preserve">
<defs>
</defs>
<polygon fill-rule="evenodd" clip-rule="evenodd" points="75.648,29.248 78.539,31.137 78.539,27.471 75.648,29.248 "/>
<path d="M75.49,29.518c0.963,0.63,1.928,1.26,2.891,1.889c0.201,0.132,0.471-0.041,0.471-0.27c0-1.223,0-2.443,0-3.666
	c0-0.232-0.268-0.395-0.471-0.27c-0.963,0.592-1.928,1.185-2.891,1.777c-0.343,0.211-0.029,0.751,0.315,0.539
	c0.964-0.592,1.927-1.185,2.891-1.777c-0.157-0.09-0.313-0.18-0.47-0.27c0,1.223,0,2.443,0,3.666c0.156-0.09,0.312-0.18,0.47-0.27
	c-0.964-0.63-1.927-1.26-2.891-1.889C75.467,28.757,75.154,29.299,75.49,29.518z"/>
<polygon fill-rule="evenodd" clip-rule="evenodd" points="89.76,29.248 86.871,27.471 86.871,31.137 89.76,29.248 "/>
<path d="M89.917,28.979c-0.963-0.593-1.926-1.186-2.889-1.777c-0.203-0.125-0.47,0.037-0.47,0.27c0,1.223,0,2.443,0,3.666
	c0,0.229,0.268,0.401,0.47,0.27c0.963-0.629,1.926-1.259,2.889-1.889c0.336-0.219,0.022-0.761-0.315-0.539
	c-0.963,0.629-1.926,1.259-2.889,1.889c0.156,0.09,0.313,0.18,0.471,0.27c0-1.223,0-2.443,0-3.666
	c-0.157,0.09-0.314,0.18-0.471,0.27c0.963,0.593,1.926,1.186,2.889,1.777C89.945,29.729,90.26,29.189,89.917,28.979z"/>
<path d="M86.871,29.248h-8.332 M141.76,29.582h-10.111 M136.76,27.471l-2.223,3.666h4.334L136.76,27.471 M195.76,29.248h-10.111
	 M191.426,30.693l-1.443-2.779 M191.426,27.914l-1.443,2.779"/>
<path d="M86.871,28.936c-2.777,0-5.555,0-8.332,0c-0.403,0-0.403,0.625,0,0.625c2.777,0,5.555,0,8.332,0
	C87.273,29.561,87.273,28.936,86.871,28.936L86.871,28.936z"/>
<rect id="_x3C_Slice_x3E__103_" y="57.334" fill="none" width="57.333" height="52"/>
<rect id="_x3C_Slice_x3E__102_" x="57.333" y="57.334" fill="none" width="54.667" height="52"/>
<rect id="_x3C_Slice_x3E__101_" fill="none" width="57.333" height="57.334"/>
<rect id="_x3C_Slice_x3E__100_" x="57.333" fill="none" width="54.667" height="57.334"/>
</svg>
