<?xml version="1.0" encoding="utf-8"?>
<!-- Generator: Adobe Illustrator 15.0.2, SVG Export Plug-In  -->
<!DOCTYPE svg PUBLIC "-//W3C//DTD SVG 1.1//EN" "http://www.w3.org/Graphics/SVG/1.1/DTD/svg11.dtd" [
	<!ENTITY ns_flows "http://ns.adobe.com/Flows/1.0/">
]>
<svg version="1.1"
	 xmlns="http://www.w3.org/2000/svg" xmlns:xlink="http://www.w3.org/1999/xlink" xmlns:a="http://ns.adobe.com/AdobeSVGViewerExtensions/3.0/"
	 x="0px" y="0px" width="57px" height="55px" viewBox="47.667 0.333 57 55"
	 overflow="visible" enable-background="new 47.667 0.333 57 55" xml:space="preserve">
<defs>
</defs>
<polygon fill-rule="evenodd" clip-rule="evenodd" points="76.206,23.583 76.428,23.36 76.651,23.138 76.872,22.915 76.983,22.694 
	76.983,22.583 76.983,22.472 76.872,22.36 76.651,22.36 76.317,22.36 76.206,22.249 76.094,22.249 76.094,22.138 75.983,22.026 
	75.983,21.806 75.983,21.694 75.983,21.583 76.206,21.36 76.428,21.249 76.651,21.249 76.762,21.249 76.983,21.36 77.094,21.472 
	77.206,21.583 77.317,21.694 77.317,21.915 77.428,22.026 77.428,22.249 77.428,22.36 77.428,22.583 77.317,22.806 77.206,22.915 
	77.094,23.138 76.872,23.36 76.651,23.583 76.317,23.806 76.206,23.583 "/>
<path d="M76.426,23.804c0.367-0.367,0.869-0.713,0.869-1.276c0-0.356-0.309-0.479-0.61-0.479c-0.051,0-0.102,0-0.152,0
	c-0.231,0-0.155-0.068-0.024,0.062c-0.131-0.131-0.229-0.174-0.414-0.174c0.104,0.104,0.208,0.209,0.312,0.312
	c0-0.122,0.002-0.238-0.092-0.332c-0.175-0.175-0.02,0.23-0.02-0.076c0-0.197,0.073-0.202-0.068-0.061
	c0.092-0.092,0.15-0.157,0.247-0.205c0.106-0.048,0.103-0.053-0.012-0.014c0.063,0,0.126,0,0.188,0
	c0.078,0.006,0.074-0.002-0.012-0.025c-0.006-0.003,0.161,0.084,0.151,0.074c0.064,0.064,0.129,0.129,0.193,0.193
	c0.175,0.175,0.021-0.23,0.021,0.076c0,0.119,0.037,0.201,0.12,0.285c0.085,0.1,0.081,0.064-0.009-0.104c0,0.062,0,0.125,0,0.188
	c0,0.1,0,0.199,0,0.299c0-0.172-0.023,0.04-0.103,0.117c-0.155,0.153-0.204,0.316-0.363,0.475c-0.175,0.176-0.273,0.251-0.491,0.396
	c0.143,0.037,0.285,0.074,0.428,0.111c-0.037-0.074-0.074-0.148-0.111-0.223c-0.181-0.359-0.72-0.043-0.54,0.316
	c0.037,0.074,0.074,0.148,0.111,0.223c0.073,0.146,0.292,0.201,0.428,0.111c0.44-0.293,0.894-0.674,1.13-1.146
	c0.137-0.273,0.137-0.491,0.137-0.791c0-0.146-0.012-0.252-0.121-0.361c-0.16-0.16,0.01,0.256,0.01,0.028
	c0-0.093,0.006-0.185-0.043-0.269c-0.25-0.426-0.875-0.777-1.352-0.539c-0.25,0.125-0.564,0.331-0.564,0.642c0,0.13,0,0.259,0,0.388
	c0,0.082,0.033,0.162,0.091,0.221c0.179,0.18,0.021-0.127,0.021,0.002c0,0.17,0.142,0.312,0.312,0.312
	c0.129,0-0.178-0.159,0.001,0.02c0.095,0.096,0.215,0.092,0.339,0.092c0.109,0,0.218,0,0.326,0c0.131,0.01,0.104-0.012-0.081-0.062
	c0.157,0.158-0.009-0.199-0.009-0.027c-0.007,0.078,0.002,0.074,0.025-0.012c-0.025,0.051-0.052,0.102-0.077,0.151
	c-0.02,0.038-0.134,0.139-0.189,0.194c-0.147,0.148-0.297,0.297-0.445,0.445C75.699,23.647,76.141,24.089,76.426,23.804z"/>
<polygon fill-rule="evenodd" clip-rule="evenodd" points="73.762,27.694 74.094,27.472 74.317,27.249 74.428,27.026 74.54,26.806 
	74.54,26.694 74.54,26.583 74.428,26.472 74.206,26.472 73.983,26.472 73.872,26.36 73.762,26.36 73.651,26.249 73.651,26.138 
	73.54,25.915 73.651,25.806 73.651,25.694 73.762,25.583 73.983,25.472 74.206,25.36 74.428,25.36 74.54,25.472 74.651,25.583 
	74.762,25.694 74.872,25.806 74.983,26.026 74.983,26.138 74.983,26.36 74.983,26.472 74.983,26.694 74.872,26.915 74.872,27.138 
	74.651,27.249 74.428,27.472 74.206,27.694 73.872,27.915 73.762,27.694 "/>
<path d="M73.919,27.964c0.276-0.186,0.569-0.361,0.723-0.668c0.124-0.25,0.374-0.678,0.118-0.934
	c-0.111-0.111-0.197-0.203-0.367-0.203c-0.074,0-0.148,0-0.223,0c-0.305,0,0.064,0.123-0.049,0.01
	c-0.05-0.05-0.099-0.091-0.168-0.109c-0.303-0.084,0.102,0.152-0.053-0.002c0.049,0.157,0.07,0.184,0.062,0.08
	c0-0.057-0.016-0.109-0.043-0.158c-0.037-0.074-0.074-0.148-0.111-0.223c-0.017,0.127-0.033,0.253-0.049,0.379
	c0.096-0.095,0.203-0.182,0.203-0.33c0-0.172-0.167,0.186-0.01,0.027c0.035-0.035,0.135-0.065,0.187-0.092
	c0.062-0.031,0.126-0.062,0.188-0.094c-0.114,0.023-0.118,0.032-0.012,0.025c0.131,0.01,0.104-0.012-0.081-0.062
	c0.092,0.092,0.185,0.184,0.276,0.275c0.088,0.089,0.126,0.15,0.184,0.264c-0.064-0.127-0.025,0.174-0.025,0.267
	c0,0.056,0,0.111,0,0.167c-0.008,0.106,0.001,0.102,0.025-0.012c-0.025,0.051-0.052,0.102-0.077,0.151
	c-0.069,0.138-0.06,0.265-0.06,0.415c0.051-0.09,0.103-0.18,0.154-0.27c-0.405,0.204-0.65,0.545-1,0.777
	c0.143,0.037,0.285,0.074,0.428,0.111c-0.037-0.073-0.073-0.146-0.109-0.221c-0.18-0.361-0.719-0.044-0.54,0.316
	c0.036,0.073,0.073,0.146,0.109,0.221c0.073,0.146,0.292,0.201,0.428,0.111c0.356-0.236,0.648-0.6,1-0.777
	c0.097-0.049,0.155-0.164,0.155-0.27c0-0.088,0.059-0.266-0.025-0.1c0.041-0.082,0.101-0.171,0.125-0.261
	c0.044-0.159,0.012-0.362,0.012-0.528c0-0.393-0.154-0.617-0.424-0.887c-0.289-0.289-0.539-0.414-0.936-0.217
	c-0.144,0.072-0.31,0.131-0.424,0.246c-0.066,0.064-0.137,0.126-0.163,0.22c-0.083,0.3,0.169-0.114-0.031,0.083
	c-0.104,0.104-0.112,0.252-0.049,0.379c0.032,0.062,0.063,0.125,0.095,0.188c-0.076-0.15-0.025,0.033-0.015,0.071
	c0.03,0.11,0.155,0.24,0.255,0.298c0.067,0.039,0.137,0.043,0.213,0.043c-0.152,0-0.182-0.106-0.056,0.02
	c0.118,0.119,0.292,0.092,0.444,0.092c0.062,0,0.125,0,0.188,0c-0.053-0.021-0.105-0.042-0.157-0.062
	c0.081,0.094,0.079,0.066-0.009-0.083c0,0.063-0.039,0.17,0.025,0.044c-0.031,0.062-0.062,0.124-0.095,0.186
	c-0.144,0.285-0.28,0.373-0.554,0.557C73.271,27.647,73.583,28.189,73.919,27.964z"/>
<polygon fill-rule="evenodd" clip-rule="evenodd" points="76.206,31.804 76.428,31.583 76.651,31.36 76.872,31.138 76.983,31.026 
	76.983,30.804 76.983,30.694 76.872,30.583 76.651,30.583 76.317,30.583 76.206,30.583 76.094,30.472 76.094,30.36 75.983,30.249 
	75.983,30.026 75.983,29.915 75.983,29.806 76.206,29.694 76.428,29.583 76.651,29.472 76.762,29.583 76.983,29.583 77.094,29.694 
	77.206,29.806 77.317,30.026 77.317,30.138 77.428,30.249 77.428,30.472 77.428,30.694 77.428,30.804 77.317,31.026 77.206,31.249 
	77.094,31.36 76.872,31.583 76.651,31.804 76.317,32.026 76.206,31.804 "/>
<path d="M76.426,32.024c0.342-0.339,1.293-1.035,0.748-1.58c-0.155-0.155-0.275-0.174-0.489-0.174c-0.084,0-0.167,0-0.251,0
	c-0.191,0-0.159-0.06-0.037,0.062c-0.154-0.154,0.082,0.248-0.002-0.056c-0.025-0.094-0.098-0.155-0.162-0.22
	c0.139,0.139,0.062,0.187,0.062-0.031c0-0.074,0-0.146,0-0.221c-0.053,0.09-0.104,0.18-0.155,0.27
	c0.223-0.111,0.445-0.223,0.668-0.334c-0.126-0.016-0.253-0.032-0.379-0.049c0.112,0.111,0.198,0.203,0.367,0.203
	c0.21,0,0.118,0.062-0.006-0.062c0.055,0.055,0.11,0.109,0.165,0.164c-0.01-0.01,0.076,0.158,0.074,0.152
	c-0.084-0.164-0.004,0.11,0.017,0.146c0.022,0.033,0.048,0.064,0.078,0.092c0.085,0.1,0.081,0.064-0.009-0.104
	c0,0.074,0,0.148,0,0.223c0,0.062,0,0.125,0,0.188c-0.007,0.078,0.002,0.073,0.025-0.014c-0.025,0.051-0.052,0.102-0.077,0.153
	c-0.059,0.117-0.101,0.214-0.191,0.306c-0.257,0.256-0.428,0.426-0.714,0.617c0.143,0.037,0.285,0.074,0.428,0.111
	c-0.037-0.074-0.074-0.148-0.111-0.223c-0.181-0.359-0.72-0.043-0.54,0.316c0.037,0.074,0.074,0.148,0.111,0.223
	c0.073,0.146,0.292,0.201,0.428,0.111c0.587-0.391,1.267-0.951,1.267-1.713c0-0.152,0.037-0.355-0.043-0.492
	c-0.022-0.033-0.049-0.064-0.078-0.092c-0.082-0.094-0.078-0.066,0.01,0.083c0-0.126-0.043-0.214-0.099-0.323
	c-0.081-0.161-0.201-0.271-0.327-0.396c-0.07-0.07-0.159-0.092-0.256-0.092c-0.307,0,0.098,0.154-0.076-0.02
	c-0.104-0.104-0.252-0.112-0.379-0.049c-0.223,0.111-0.445,0.223-0.668,0.334c-0.097,0.048-0.154,0.165-0.154,0.27
	c0,0.137,0,0.272,0,0.408c0,0.068,0.007,0.133,0.042,0.193c0.022,0.033,0.048,0.064,0.078,0.092
	c0.081,0.094,0.079,0.066-0.009-0.083c0,0.44,0.414,0.479,0.751,0.479c0.051,0,0.102,0,0.152,0c0.304,0-0.067-0.124,0.048-0.01
	c-0.122-0.121-0.062-0.158-0.062,0.029c0,0.195,0.17-0.189-0.021,0.002c-0.222,0.222-0.442,0.445-0.666,0.666
	C75.698,31.866,76.139,32.309,76.426,32.024z"/>
<polygon fill-rule="evenodd" clip-rule="evenodd" points="78.54,27.694 78.872,27.472 79.094,27.249 79.206,27.026 79.317,26.806 
	79.317,26.694 79.317,26.583 79.206,26.472 78.983,26.472 78.762,26.472 78.651,26.36 78.54,26.36 78.428,26.249 78.428,26.138 
	78.428,25.915 78.428,25.806 78.428,25.694 78.54,25.583 78.762,25.472 78.983,25.36 79.206,25.36 79.317,25.472 79.428,25.583 
	79.54,25.694 79.651,25.806 79.762,26.026 79.762,26.138 79.872,26.36 79.762,26.472 79.762,26.694 79.651,26.915 79.651,27.138 
	79.428,27.249 79.206,27.472 78.983,27.694 78.651,27.915 78.54,27.694 "/>
<path d="M78.697,27.964c0.362-0.243,0.933-0.654,0.933-1.158c0-0.254-0.047-0.555-0.342-0.635c-0.105-0.029-0.23-0.012-0.34-0.012
	c-0.21,0-0.119-0.062,0.006,0.062c-0.044-0.045-0.091-0.1-0.146-0.131c-0.067-0.04-0.138-0.043-0.214-0.043
	c0.125,0,0.146,0.021,0.146,0.146c0-0.11,0-0.222,0-0.333c0-0.164,0.045-0.082-0.062,0.025c0.073-0.073,0.03-0.039,0.13-0.088
	c0.049-0.025,0.097-0.049,0.146-0.074c0.086-0.043,0.24-0.051,0.063-0.051c0.211,0,0.121,0.062-0.004-0.062
	c0.037,0.037,0.074,0.074,0.111,0.111c0.074,0.074,0.148,0.148,0.223,0.223c0.073,0.074,0.039,0.03,0.089,0.129
	c0.104,0.207,0.014-0.097,0.014,0.064c0,0.131,0.096,0.268,0.151,0.381c0.017-0.127,0.032-0.253,0.049-0.379
	c-0.167,0.17-0.2,0.284-0.2,0.52c0-0.195-0.078,0.09-0.101,0.173c-0.026,0.095-0.011,0.208-0.011,0.306
	c0.051-0.09,0.103-0.18,0.154-0.27c-0.406,0.203-0.65,0.545-1,0.777c0.143,0.037,0.285,0.074,0.428,0.111
	c-0.037-0.073-0.074-0.146-0.111-0.221c-0.182-0.359-0.721-0.043-0.54,0.316c0.037,0.073,0.074,0.146,0.111,0.221
	c0.073,0.146,0.292,0.201,0.428,0.111c0.356-0.236,0.647-0.601,1-0.777c0.097-0.048,0.155-0.165,0.155-0.27c0-0.062,0-0.125,0-0.188
	c0,0.184,0.025-0.012,0.068-0.098c0.045-0.09,0.043-0.174,0.043-0.27c0-0.197-0.172,0.19,0.018-0.002
	c0.104-0.105,0.111-0.25,0.049-0.379c-0.031-0.062-0.062-0.125-0.092-0.188c0.074,0.152,0.023-0.035,0.014-0.071
	c-0.031-0.113-0.108-0.275-0.191-0.358c-0.155-0.155-0.319-0.383-0.509-0.494c-0.255-0.15-0.566,0.015-0.794,0.129
	c-0.298,0.148-0.453,0.293-0.453,0.641c0,0.301-0.021,0.497,0.202,0.721c0.059,0.059,0.139,0.092,0.222,0.092
	c0.172,0-0.186-0.166-0.027-0.01c0.129,0.131,0.266,0.121,0.436,0.121c0.049,0,0.098,0,0.146,0c0.229,0-0.188-0.17-0.027-0.01
	c-0.109-0.107-0.062-0.189-0.062-0.024c0-0.149-0.033,0.047-0.069,0.118c-0.144,0.285-0.28,0.373-0.554,0.557
	C78.048,27.647,78.361,28.189,78.697,27.964z"/>
<rect id="_x3C_Slice_x3E__103_" y="54.667" fill="none" width="48" height="50.666"/>
<rect id="_x3C_Slice_x3E__102_" x="48" y="54.667" fill="none" width="57.333" height="50.666"/>
<rect id="_x3C_Slice_x3E__101_" fill="none" width="48" height="54.667"/>
<rect id="_x3C_Slice_x3E__100_" x="48" fill="none" width="57.333" height="54.667"/>
</svg>
