<?xml version="1.0" encoding="utf-8"?>
<!-- Generator: Adobe Illustrator 15.0.2, SVG Export Plug-In  -->
<!DOCTYPE svg PUBLIC "-//W3C//DTD SVG 1.1//EN" "http://www.w3.org/Graphics/SVG/1.1/DTD/svg11.dtd" [
	<!ENTITY ns_flows "http://ns.adobe.com/Flows/1.0/">
]>
<svg version="1.1"
	 xmlns="http://www.w3.org/2000/svg" xmlns:xlink="http://www.w3.org/1999/xlink" xmlns:a="http://ns.adobe.com/AdobeSVGViewerExtensions/3.0/"
	 x="0px" y="0px" width="52px" height="52px" viewBox="55.666 0.666 52 52"
	 overflow="visible" enable-background="new 55.666 0.666 52 52" xml:space="preserve">
<defs>
</defs>
<path d="M79.061,31.163c-0.74-2.073-1.482-4.147-2.223-6.221c-0.101,0.132-0.201,0.264-0.301,0.396c1.444,0,2.889,0,4.334,0
	c-0.102-0.132-0.201-0.264-0.302-0.396c-0.704,2.073-1.407,4.147-2.111,6.221c-0.13,0.383,0.474,0.546,0.603,0.166
	c0.703-2.073,1.408-4.147,2.111-6.221c0.066-0.194-0.107-0.396-0.301-0.396c-1.445,0-2.89,0-4.334,0
	c-0.192,0-0.371,0.201-0.302,0.396c0.741,2.073,1.481,4.147,2.223,6.221C78.592,31.706,79.197,31.543,79.061,31.163L79.061,31.163z"
	/>
<path d="M80.314,26.156c-1.074,0-2.148,0-3.223,0c-0.403,0-0.403,0.625,0,0.625c1.074,0,2.148,0,3.223,0
	C80.717,26.781,80.717,26.156,80.314,26.156L80.314,26.156z"/>
<path d="M78.489,20.533c-0.741,1.223-1.481,2.444-2.223,3.666c-0.124,0.204,0.036,0.471,0.271,0.471c1.444,0,2.889,0,4.334,0
	c0.237,0,0.387-0.266,0.27-0.471c-0.704-1.222-1.408-2.443-2.111-3.666c-0.201-0.349-0.741-0.034-0.54,0.316
	c0.704,1.222,1.407,2.443,2.111,3.666c0.091-0.157,0.181-0.314,0.271-0.471c-1.445,0-2.89,0-4.334,0
	c0.09,0.156,0.18,0.313,0.27,0.471c0.74-1.223,1.481-2.444,2.223-3.666C79.238,20.504,78.698,20.189,78.489,20.533L78.489,20.533z"
	/>
<rect id="_x3C_Slice_x3E__103_" y="52" fill="none" width="56" height="35.666"/>
<rect id="_x3C_Slice_x3E__102_" x="56" y="52" fill="none" width="52" height="35.666"/>
<rect id="_x3C_Slice_x3E__101_" fill="none" width="56" height="52"/>
<rect id="_x3C_Slice_x3E__100_" x="56" fill="none" width="52" height="52"/>
</svg>
