<?xml version="1.0" encoding="utf-8"?>
<!-- Generator: Adobe Illustrator 15.0.2, SVG Export Plug-In  -->
<!DOCTYPE svg PUBLIC "-//W3C//DTD SVG 1.1//EN" "http://www.w3.org/Graphics/SVG/1.1/DTD/svg11.dtd" [
	<!ENTITY ns_flows "http://ns.adobe.com/Flows/1.0/">
]>
<svg version="1.1"
	 xmlns="http://www.w3.org/2000/svg" xmlns:xlink="http://www.w3.org/1999/xlink" xmlns:a="http://ns.adobe.com/AdobeSVGViewerExtensions/3.0/"
	 x="0px" y="0px" width="32px" height="55px" viewBox="51.666 0.333 32 55"
	 overflow="visible" enable-background="new 51.666 0.333 32 55" xml:space="preserve">
<defs>
</defs>
<polygon fill-rule="evenodd" clip-rule="evenodd" points="76.203,23.583 76.426,23.36 76.648,23.138 76.869,22.915 76.98,22.694 
	76.98,22.583 76.98,22.472 76.869,22.36 76.648,22.36 76.314,22.36 76.203,22.249 76.092,22.249 76.092,22.138 75.98,22.026 
	75.98,21.806 75.98,21.694 75.98,21.583 76.203,21.36 76.314,21.249 76.648,21.249 76.758,21.249 76.98,21.36 77.092,21.472 
	77.203,21.583 77.314,21.694 77.314,21.915 77.426,22.026 77.426,22.249 77.426,22.36 77.426,22.583 77.314,22.806 77.203,22.915 
	77.092,23.138 76.869,23.36 76.537,23.583 76.314,23.806 76.203,23.583 "/>
<path d="M76.424,23.804c0.367-0.367,0.869-0.713,0.869-1.276c0-0.356-0.309-0.479-0.61-0.479c-0.051,0-0.102,0-0.152,0
	c-0.231,0-0.155-0.068-0.024,0.062c-0.131-0.131-0.229-0.174-0.414-0.174c0.104,0.104,0.208,0.209,0.312,0.312
	c0-0.122,0.002-0.238-0.092-0.332c-0.175-0.175-0.02,0.23-0.02-0.076c0-0.197,0.073-0.202-0.068-0.061
	c0.076-0.076,0.152-0.152,0.229-0.229c0.099-0.084,0.064-0.081-0.104,0.01c0.089,0,0.177,0,0.265,0c0.029,0,0.06,0,0.09,0
	c-0.15,0,0.016,0.018,0.084,0.051c0.049,0.025,0.123,0.12,0.166,0.162c0.037,0.037,0.074,0.074,0.111,0.111
	c-0.125-0.124-0.062-0.215-0.062-0.006c0,0.119,0.037,0.201,0.12,0.285c0.085,0.1,0.081,0.064-0.009-0.104c0,0.062,0,0.125,0,0.188
	c0,0.1,0,0.199,0,0.299c0-0.172-0.023,0.04-0.103,0.117c-0.144,0.141-0.198,0.357-0.324,0.441c-0.222,0.148-0.405,0.29-0.594,0.479
	c0.163,0.021,0.327,0.042,0.491,0.062c-0.037-0.074-0.074-0.148-0.111-0.223c-0.181-0.359-0.72-0.043-0.54,0.316
	c0.037,0.074,0.074,0.148,0.111,0.223c0.091,0.182,0.355,0.198,0.491,0.062c0.371-0.371,0.842-0.648,1.104-1.174
	c0.127-0.255,0.099-0.513,0.099-0.791c0-0.154-0.072-0.236-0.174-0.338c0.124,0.124,0.062,0.215,0.062,0.006
	c0-0.098-0.021-0.186-0.092-0.256c-0.188-0.188-0.346-0.357-0.586-0.477c-0.195-0.099-0.689-0.135-0.856,0.031
	c-0.206,0.206-0.425,0.354-0.425,0.666c0,0.111,0,0.221,0,0.332c0,0.082,0.033,0.162,0.091,0.221
	c0.179,0.18,0.021-0.127,0.021,0.002c0,0.17,0.142,0.312,0.312,0.312c0.129,0-0.178-0.159,0.001,0.02
	c0.095,0.096,0.215,0.092,0.339,0.092c0.109,0,0.218,0,0.326,0c0.131,0.01,0.104-0.012-0.081-0.062
	c0.157,0.158-0.009-0.199-0.009-0.027c-0.007,0.078,0.002,0.074,0.025-0.012c-0.025,0.051-0.052,0.102-0.077,0.151
	c-0.02,0.038-0.134,0.139-0.189,0.194c-0.147,0.148-0.297,0.297-0.445,0.445C75.696,23.647,76.139,24.089,76.424,23.804z"/>
<g>
	<polygon fill-rule="evenodd" clip-rule="evenodd" points="77.98,26.694 77.98,26.36 77.869,26.138 77.758,25.915 77.537,25.806 
		77.426,25.583 77.203,25.472 76.98,25.36 76.758,25.36 76.426,25.36 76.203,25.472 75.98,25.583 75.869,25.806 75.648,25.915 
		75.537,26.138 75.426,26.36 75.426,26.694 75.426,26.915 75.537,27.138 75.648,27.36 75.869,27.472 75.98,27.694 76.203,27.806 
		76.426,27.915 76.758,27.915 76.98,27.915 77.203,27.806 77.426,27.694 77.537,27.472 77.758,27.36 77.869,27.138 77.98,26.915 
		77.98,26.694 	"/>
</g>
<polygon fill-rule="evenodd" clip-rule="evenodd" points="76.203,31.804 76.426,31.583 76.648,31.36 76.869,31.138 76.98,31.026 
	76.98,30.804 76.98,30.694 76.869,30.583 76.648,30.583 76.314,30.583 76.203,30.583 76.092,30.472 76.092,30.36 75.98,30.249 
	75.98,30.026 75.98,29.915 75.98,29.806 76.203,29.694 76.314,29.583 76.648,29.472 76.758,29.583 76.98,29.583 77.092,29.694 
	77.203,29.806 77.314,30.026 77.314,30.138 77.426,30.249 77.426,30.472 77.426,30.694 77.426,30.804 77.314,31.026 77.203,31.249 
	77.092,31.36 76.869,31.583 76.537,31.804 76.314,32.026 76.203,31.804 "/>
<path d="M76.424,32.024c0.342-0.339,1.293-1.035,0.748-1.58c-0.155-0.155-0.275-0.174-0.489-0.174c-0.084,0-0.167,0-0.251,0
	c-0.191,0-0.159-0.06-0.037,0.062c-0.154-0.154,0.082,0.248-0.002-0.056c-0.025-0.094-0.098-0.155-0.162-0.22
	c0.139,0.139,0.062,0.187,0.062-0.031c0-0.074,0-0.146,0-0.221c-0.053,0.09-0.104,0.18-0.155,0.27
	c0.111-0.055,0.226-0.1,0.315-0.189c0.155-0.155-0.154,0.031,0.031-0.03c0.082-0.027,0.164-0.056,0.246-0.083
	c-0.101-0.026-0.202-0.053-0.304-0.08c0.11,0.113,0.196,0.203,0.365,0.203c0.211,0,0.121,0.062-0.004-0.062
	c0.055,0.055,0.11,0.109,0.165,0.164c-0.01-0.01,0.076,0.158,0.074,0.152c-0.084-0.164-0.004,0.11,0.017,0.146
	c0.022,0.033,0.048,0.064,0.078,0.092c0.085,0.1,0.081,0.064-0.009-0.104c0,0.074,0,0.148,0,0.223c0,0.062,0,0.125,0,0.188
	c-0.007,0.078,0.002,0.073,0.025-0.014c-0.025,0.051-0.052,0.102-0.077,0.153c-0.065,0.131-0.112,0.228-0.214,0.329
	c-0.225,0.225-0.501,0.389-0.755,0.643c0.163,0.021,0.327,0.042,0.491,0.062c-0.037-0.074-0.074-0.148-0.111-0.223
	c-0.181-0.359-0.72-0.043-0.54,0.316c0.037,0.074,0.074,0.148,0.111,0.223c0.091,0.182,0.355,0.198,0.491,0.062
	c0.479-0.479,1.203-0.83,1.203-1.664c0-0.152,0.037-0.355-0.043-0.492c-0.022-0.033-0.049-0.064-0.078-0.092
	c-0.082-0.094-0.078-0.066,0.01,0.083c0-0.126-0.043-0.214-0.099-0.323c-0.081-0.161-0.201-0.271-0.327-0.396
	c-0.07-0.071-0.159-0.092-0.256-0.092c-0.309,0,0.095,0.154-0.076-0.02c-0.075-0.076-0.201-0.115-0.305-0.08
	c-0.287,0.096-0.482,0.234-0.742,0.365c-0.097,0.048-0.154,0.165-0.154,0.27c0,0.137,0,0.272,0,0.408
	c0,0.068,0.007,0.133,0.042,0.193c0.022,0.033,0.048,0.064,0.078,0.092c0.081,0.094,0.079,0.066-0.009-0.083
	c0,0.44,0.414,0.479,0.751,0.479c0.051,0,0.102,0,0.152,0c0.304,0-0.067-0.124,0.048-0.01c-0.122-0.121-0.062-0.158-0.062,0.029
	c0,0.195,0.17-0.189-0.021,0.002c-0.222,0.222-0.442,0.445-0.666,0.666C75.695,31.866,76.137,32.309,76.424,32.024z"/>
<rect id="_x3C_Slice_x3E__103_" y="54.667" fill="none" width="52" height="50.666"/>
<rect id="_x3C_Slice_x3E__102_" x="52" y="54.667" fill="none" width="31.666" height="50.666"/>
<rect id="_x3C_Slice_x3E__101_" fill="none" width="52" height="54.667"/>
<rect id="_x3C_Slice_x3E__100_" x="52" fill="none" width="31.666" height="54.667"/>
</svg>
