<?xml version="1.0" encoding="utf-8"?>
<!-- Generator: Adobe Illustrator 15.0.2, SVG Export Plug-In  -->
<!DOCTYPE svg PUBLIC "-//W3C//DTD SVG 1.1//EN" "http://www.w3.org/Graphics/SVG/1.1/DTD/svg11.dtd" [
	<!ENTITY ns_flows "http://ns.adobe.com/Flows/1.0/">
]>
<svg version="1.1"
	 xmlns="http://www.w3.org/2000/svg" xmlns:xlink="http://www.w3.org/1999/xlink" xmlns:a="http://ns.adobe.com/AdobeSVGViewerExtensions/3.0/"
	 x="0px" y="0px" width="35px" height="55px" viewBox="0 0.333 35 55" overflow="visible" enable-background="new 0 0.333 35 55"
	 xml:space="preserve">
<defs>
</defs>
<polygon fill-rule="evenodd" clip-rule="evenodd" points="6.542,27.694 6.764,27.472 6.986,27.249 7.208,27.026 7.319,26.806 
	7.319,26.694 7.319,26.583 7.208,26.472 6.986,26.472 6.652,26.472 6.542,26.36 6.43,26.36 6.43,26.249 6.319,26.138 6.319,25.915 
	6.319,25.806 6.319,25.694 6.542,25.583 6.764,25.472 6.986,25.36 7.097,25.36 7.319,25.472 7.43,25.583 7.542,25.694 7.652,25.806 
	7.652,26.026 7.764,26.138 7.764,26.36 7.764,26.472 7.764,26.694 7.652,26.915 7.542,27.138 7.43,27.249 7.208,27.472 
	6.986,27.694 6.652,27.915 6.542,27.694 "/>
<path d="M6.763,27.915c0.367-0.368,0.869-0.713,0.869-1.276c0-0.356-0.309-0.479-0.611-0.479c-0.051,0-0.102,0-0.152,0
	c-0.231,0-0.153-0.068-0.023,0.062c-0.13-0.131-0.229-0.174-0.415-0.174c0.104,0.104,0.208,0.209,0.312,0.312
	c0-0.186-0.043-0.284-0.173-0.414c0.139,0.139,0.062,0.186,0.062-0.031c0-0.074,0-0.146,0-0.221c-0.052,0.09-0.104,0.18-0.155,0.27
	c0.148-0.074,0.296-0.148,0.444-0.223c0.072-0.035,0.27-0.068,0.12-0.068c-0.158,0,0.033-0.004,0.085,0.049
	c0.055,0.055,0.11,0.109,0.165,0.164c0.132,0.133,0.048,0.156,0.048-0.045c0,0.085-0.012,0.185,0.011,0.269
	c0.015,0.054,0.042,0.099,0.081,0.138c0.13,0.131,0.02,0.097,0.02-0.074c0,0.162,0,0.324,0,0.486c0-0.184-0.025,0.012-0.068,0.098
	c-0.026,0.053-0.056,0.153-0.091,0.189c-0.281,0.28-0.488,0.494-0.797,0.699c0.143,0.037,0.285,0.074,0.427,0.111
	c-0.037-0.073-0.073-0.146-0.11-0.221c-0.181-0.359-0.72-0.043-0.54,0.316c0.037,0.073,0.074,0.146,0.111,0.221
	c0.073,0.146,0.292,0.201,0.427,0.111c0.683-0.451,1.509-1.206,1.255-2.13c-0.015-0.054-0.042-0.099-0.081-0.138
	c-0.13-0.131-0.02-0.097-0.02,0.074c0-0.112,0.017-0.241-0.043-0.344c-0.078-0.133-0.306-0.376-0.445-0.445
	c-0.522-0.262-0.833-0.02-1.315,0.223c-0.097,0.048-0.155,0.165-0.155,0.27c0,0.137,0,0.272,0,0.408
	c0,0.098,0.021,0.186,0.092,0.256c0.178,0.18,0.019-0.128,0.019,0.002c0,0.17,0.142,0.312,0.312,0.312
	c0.129,0-0.177-0.159,0.001,0.02c0.095,0.096,0.215,0.092,0.338,0.092c0.109,0,0.218,0,0.327,0c0.131,0.01,0.104-0.012-0.081-0.062
	c0.158,0.158-0.009-0.199-0.009-0.027C7,26.772,7.009,26.769,7.032,26.683c-0.025,0.051-0.051,0.102-0.077,0.151
	c-0.02,0.039-0.135,0.139-0.191,0.194c-0.148,0.148-0.296,0.297-0.444,0.445C6.036,27.759,6.478,28.2,6.763,27.915z"/>
<rect id="_x3C_Slice_x3E__101_" y="54.667" fill="none" width="35" height="50.666"/>
<rect id="_x3C_Slice_x3E__100_" fill="none" width="35" height="54.667"/>
</svg>
