<?xml version="1.0" encoding="utf-8"?>
<!-- Generator: Adobe Illustrator 15.0.2, SVG Export Plug-In  -->
<!DOCTYPE svg PUBLIC "-//W3C//DTD SVG 1.1//EN" "http://www.w3.org/Graphics/SVG/1.1/DTD/svg11.dtd" [
	<!ENTITY ns_flows "http://ns.adobe.com/Flows/1.0/">
]>
<svg version="1.1"
	 xmlns="http://www.w3.org/2000/svg" xmlns:xlink="http://www.w3.org/1999/xlink" xmlns:a="http://ns.adobe.com/AdobeSVGViewerExtensions/3.0/"
	 x="0px" y="0px" width="53px" height="55px" viewBox="0 0 53 55" overflow="visible" enable-background="new 0 0 53 55"
	 xml:space="preserve">
<defs>
</defs>
<path d="M26.873,30.271c-3.519,0-7.037,0-10.555,0c-0.403,0-0.403,0.625,0,0.625c3.518,0,7.037,0,10.555,0
	C27.276,30.896,27.276,30.271,26.873,30.271L26.873,30.271z"/>
<path d="M26.873,27.048c-3.519,0-7.037,0-10.555,0c-0.403,0-0.403,0.625,0,0.625c3.518,0,7.037,0,10.555,0
	C27.276,27.673,27.276,27.048,26.873,27.048L26.873,27.048z"/>
<path d="M26.873,23.715c-3.519,0-7.037,0-10.555,0c-0.403,0-0.403,0.625,0,0.625c3.518,0,7.037,0,10.555,0
	C27.276,24.34,27.276,23.715,26.873,23.715L26.873,23.715z"/>
<path d="M27.45,22.583c0,3.148,0,6.296,0,9.444c0,0.403,0.625,0.403,0.625,0c0-3.148,0-6.296,0-9.444
	C28.075,22.18,27.45,22.18,27.45,22.583L27.45,22.583z"/>
<rect id="_x3C_Slice_x3E__101_" y="54.667" fill="none" width="53.333" height="54.667"/>
<rect id="_x3C_Slice_x3E__100_" fill="none" width="53.333" height="54.667"/>
</svg>
