<?xml version="1.0" encoding="utf-8"?>
<!-- Generator: Adobe Illustrator 15.0.2, SVG Export Plug-In  -->
<!DOCTYPE svg PUBLIC "-//W3C//DTD SVG 1.1//EN" "http://www.w3.org/Graphics/SVG/1.1/DTD/svg11.dtd" [
	<!ENTITY ns_flows "http://ns.adobe.com/Flows/1.0/">
]>
<svg version="1.1"
	 xmlns="http://www.w3.org/2000/svg" xmlns:xlink="http://www.w3.org/1999/xlink" xmlns:a="http://ns.adobe.com/AdobeSVGViewerExtensions/3.0/"
	 x="0px" y="0px" width="52px" height="55px" viewBox="0 0 52 55" overflow="visible" enable-background="new 0 0 52 55"
	 xml:space="preserve">
<defs>
</defs>
<path d="M23.985,30.271c-1.074,0-2.148,0-3.222,0c-0.403,0-0.403,0.625,0,0.625c1.074,0,2.148,0,3.222,0
	C24.389,30.896,24.389,30.271,23.985,30.271L23.985,30.271z"/>
<path d="M31.319,30.271c-1.074,0-2.148,0-3.222,0c-0.403,0-0.403,0.625,0,0.625c1.074,0,2.148,0,3.222,0
	C31.722,30.896,31.722,30.271,31.319,30.271L31.319,30.271z"/>
<path d="M31.319,27.048c-3.519,0-7.037,0-10.556,0c-0.403,0-0.403,0.625,0,0.625c3.519,0,7.037,0,10.556,0
	C31.722,27.673,31.722,27.048,31.319,27.048L31.319,27.048z"/>
<path d="M23.985,23.715c-1.074,0-2.148,0-3.222,0c-0.403,0-0.403,0.625,0,0.625c1.074,0,2.148,0,3.222,0
	C24.389,24.34,24.389,23.715,23.985,23.715L23.985,23.715z"/>
<path d="M31.319,23.715c-1.074,0-2.148,0-3.222,0c-0.403,0-0.403,0.625,0,0.625c1.074,0,2.148,0,3.222,0
	C31.722,24.34,31.722,23.715,31.319,23.715L31.319,23.715z"/>
<rect id="_x3C_Slice_x3E__101_" y="54.667" fill="none" width="52" height="54.667"/>
<rect id="_x3C_Slice_x3E__100_" fill="none" width="52" height="54.667"/>
</svg>
