<?xml version="1.0" encoding="utf-8"?>
<!-- Generator: Adobe Illustrator 15.0.2, SVG Export Plug-In  -->
<!DOCTYPE svg PUBLIC "-//W3C//DTD SVG 1.1//EN" "http://www.w3.org/Graphics/SVG/1.1/DTD/svg11.dtd" [
	<!ENTITY ns_flows "http://ns.adobe.com/Flows/1.0/">
]>
<svg version="1.1"
	 xmlns="http://www.w3.org/2000/svg" xmlns:xlink="http://www.w3.org/1999/xlink" xmlns:a="http://ns.adobe.com/AdobeSVGViewerExtensions/3.0/"
	 x="0px" y="0px" width="60px" height="55px" viewBox="0 0 60 55" overflow="visible" enable-background="new 0 0 60 55"
	 xml:space="preserve">
<defs>
</defs>
<path d="M32.874,30.271c-3.518,0-7.037,0-10.555,0c-0.403,0-0.403,0.625,0,0.625c3.519,0,7.037,0,10.555,0
	C33.276,30.896,33.276,30.271,32.874,30.271L32.874,30.271z"/>
<path d="M32.874,27.048c-3.518,0-7.037,0-10.555,0c-0.403,0-0.403,0.625,0,0.625c3.519,0,7.037,0,10.555,0
	C33.276,27.673,33.276,27.048,32.874,27.048L32.874,27.048z"/>
<path d="M25.541,23.715c-1.074,0-2.148,0-3.222,0c-0.403,0-0.403,0.625,0,0.625c1.074,0,2.148,0,3.222,0
	C25.943,24.34,25.943,23.715,25.541,23.715L25.541,23.715z"/>
<path d="M32.874,23.715c-1.074,0-2.148,0-3.222,0c-0.403,0-0.403,0.625,0,0.625c1.074,0,2.148,0,3.222,0
	C33.276,24.34,33.276,23.715,32.874,23.715L32.874,23.715z"/>
<path d="M33.45,22.583c0,3.148,0,6.296,0,9.444c0,0.403,0.625,0.403,0.625,0c0-3.148,0-6.296,0-9.444
	C34.075,22.18,33.45,22.18,33.45,22.583L33.45,22.583z"/>
<rect id="_x3C_Slice_x3E__101_" y="54.667" fill="none" width="60" height="54.667"/>
<rect id="_x3C_Slice_x3E__100_" fill="none" width="60" height="54.667"/>
</svg>
