<?xml version="1.0" encoding="utf-8"?>
<!-- Generator: Adobe Illustrator 15.0.2, SVG Export Plug-In  -->
<!DOCTYPE svg PUBLIC "-//W3C//DTD SVG 1.1//EN" "http://www.w3.org/Graphics/SVG/1.1/DTD/svg11.dtd" [
	<!ENTITY ns_flows "http://ns.adobe.com/Flows/1.0/">
]>
<svg version="1.1"
	 xmlns="http://www.w3.org/2000/svg" xmlns:xlink="http://www.w3.org/1999/xlink" xmlns:a="http://ns.adobe.com/AdobeSVGViewerExtensions/3.0/"
	 x="0px" y="0px" width="48px" height="58px" viewBox="53 0 48 58" overflow="visible" enable-background="new 53 0 48 58"
	 xml:space="preserve">
<defs>
</defs>
<polygon fill-rule="evenodd" clip-rule="evenodd" points="76.539,33.248 76.539,33.025 76.428,32.805 76.206,32.693 75.983,32.693 
	75.873,32.693 75.65,32.805 75.539,33.025 75.539,33.248 75.539,33.471 75.65,33.582 75.873,33.693 75.983,33.693 76.206,33.693 
	76.428,33.582 76.539,33.471 76.539,33.248 "/>
<path d="M76.852,33.248c0-0.233-0.044-0.385-0.149-0.592c-0.102-0.201-0.433-0.275-0.631-0.275c-0.221,0-0.372,0.051-0.569,0.149
	c-0.201,0.101-0.275,0.433-0.275,0.63c0,0.238-0.018,0.422,0.164,0.604c0.154,0.154,0.379,0.242,0.593,0.242
	c0.097,0,0.211,0.016,0.306-0.012c0.099-0.026,0.196-0.092,0.287-0.138C76.821,33.733,76.852,33.491,76.852,33.248
	c0-0.402-0.625-0.402-0.625,0c0,0.074,0,0.148,0,0.223c0.03-0.074,0.061-0.147,0.092-0.221c-0.033,0.033-0.066,0.066-0.1,0.1
	c0.082-0.082-0.022,0-0.059,0.018c-0.124,0.062-0.136,0.014,0.034,0.014c-0.055,0-0.11,0-0.166,0c-0.033,0-0.066,0-0.099,0
	c-0.132,0,0.2,0.092,0.032,0.008c-0.047-0.023-0.095-0.048-0.143-0.072c0.105,0.053-0.025-0.034-0.058-0.066
	c0.031,0.073,0.062,0.146,0.092,0.221c0-0.074,0-0.148,0-0.223c0-0.029,0-0.059,0-0.088c0-0.131,0.049-0.159-0.038,0.014
	c0.017-0.033,0.034-0.067,0.051-0.102c0.068-0.135,0.084-0.068-0.047-0.002c0.048-0.024,0.096-0.049,0.143-0.072
	c0.168-0.084-0.164,0.008-0.032,0.008c0.078,0,0.156,0,0.234,0c0.13,0-0.188-0.08-0.079-0.025c0.051,0.025,0.102,0.051,0.152,0.076
	c0.104,0.053-0.112-0.164-0.06-0.06c0.025,0.05,0.051,0.101,0.077,0.151c0.042,0.084-0.025-0.229-0.025-0.035
	c0,0.045,0,0.09,0,0.135C76.227,33.65,76.852,33.65,76.852,33.248z"/>
<path d="M77.539,33.248h-3 M76.762,31.914l-1.444,2.668 M76.762,34.582l-1.444-2.668"/>
<path d="M77.539,32.936c-1,0-2,0-3,0c-0.403,0-0.403,0.625,0,0.625c1,0,2,0,3,0C77.942,33.561,77.942,32.936,77.539,32.936
	L77.539,32.936z"/>
<path d="M76.492,31.756c-0.481,0.89-0.963,1.779-1.444,2.668c-0.192,0.355,0.348,0.67,0.539,0.316
	c0.481-0.89,0.963-1.779,1.444-2.668C77.224,31.717,76.684,31.402,76.492,31.756L76.492,31.756z"/>
<path d="M77.031,34.424c-0.481-0.889-0.963-1.778-1.444-2.668c-0.191-0.354-0.731-0.039-0.539,0.316
	c0.481,0.889,0.963,1.778,1.444,2.668C76.684,35.094,77.224,34.779,77.031,34.424L77.031,34.424z"/>
<polygon fill-rule="evenodd" clip-rule="evenodd" points="76.539,29.248 76.539,29.137 76.428,28.914 76.206,28.805 75.983,28.805 
	75.873,28.805 75.65,28.914 75.539,29.137 75.539,29.248 75.539,29.471 75.65,29.693 75.873,29.805 75.983,29.805 76.206,29.805 
	76.428,29.693 76.539,29.471 76.539,29.248 "/>
<path d="M76.852,29.248c0-0.179-0.082-0.513-0.266-0.604c-0.074-0.037-0.148-0.073-0.222-0.109c-0.119-0.059-0.251-0.043-0.38-0.043
	c-0.5,0-0.757,0.38-0.757,0.844c0,0.189,0.07,0.529,0.266,0.627c0.201,0.101,0.354,0.154,0.579,0.154
	c0.189,0,0.528-0.07,0.626-0.266c0.037-0.074,0.074-0.148,0.111-0.223C76.868,29.51,76.852,29.376,76.852,29.248
	c0-0.402-0.625-0.402-0.625,0c0,0.07,0,0.141,0,0.211c0-0.135,0.061-0.182,0.007-0.076c-0.02,0.039-0.039,0.079-0.059,0.118
	c-0.052,0.104,0.165-0.112,0.06-0.06c-0.039,0.02-0.078,0.039-0.117,0.059c-0.105,0.053-0.059-0.008,0.075-0.008
	c-0.041,0-0.082,0-0.122,0c-0.061,0-0.121,0-0.181,0c0.129,0,0.175,0.061,0.069,0.008c-0.039-0.02-0.078-0.039-0.117-0.059
	c-0.104-0.053,0.112,0.164,0.06,0.06c-0.02-0.039-0.039-0.079-0.059-0.118c-0.053-0.105,0.007-0.059,0.007,0.076
	c0-0.041,0-0.082,0-0.123c0-0.061,0-0.121,0-0.182c0,0.129-0.06,0.175-0.007,0.07c0.02-0.039,0.039-0.079,0.059-0.118
	c0.052-0.104-0.165,0.112-0.06,0.061c0.039-0.02,0.078-0.038,0.117-0.058c0.162-0.08-0.197,0.008,0.023,0.008c0.07,0,0.14,0,0.21,0
	c-0.134,0-0.181-0.061-0.075-0.008c0.039,0.02,0.078,0.038,0.117,0.058c0.104,0.052-0.112-0.165-0.06-0.061
	c0.02,0.039,0.039,0.079,0.059,0.118c0.081,0.16-0.007-0.198-0.007,0.023C76.227,29.65,76.852,29.65,76.852,29.248z"/>
<path d="M77.539,29.248h-3 M76.762,27.914l-1.444,2.779 M76.762,30.693l-1.444-2.779"/>
<path d="M77.539,28.936c-1,0-2,0-3,0c-0.403,0-0.403,0.625,0,0.625c1,0,2,0,3,0C77.942,29.561,77.942,28.936,77.539,28.936
	L77.539,28.936z"/>
<path d="M76.492,27.756c-0.481,0.927-0.963,1.854-1.444,2.779c-0.186,0.357,0.354,0.674,0.539,0.316
	c0.481-0.927,0.963-1.854,1.444-2.779C77.217,27.715,76.678,27.398,76.492,27.756L76.492,27.756z"/>
<path d="M77.031,30.535c-0.481-0.926-0.963-1.853-1.444-2.779c-0.186-0.357-0.725-0.041-0.539,0.316
	c0.481,0.926,0.963,1.853,1.444,2.779C76.678,31.209,77.217,30.893,77.031,30.535L77.031,30.535z"/>
<polygon fill-rule="evenodd" clip-rule="evenodd" points="76.539,25.359 76.539,25.137 76.428,25.025 76.206,24.914 75.983,24.914 
	75.873,24.914 75.65,25.025 75.539,25.137 75.539,25.359 75.539,25.582 75.65,25.805 75.873,25.914 75.983,25.914 76.206,25.914 
	76.428,25.805 76.539,25.582 76.539,25.359 "/>
<path d="M76.852,25.359c0-0.235-0.025-0.482-0.266-0.604c-0.074-0.037-0.148-0.074-0.222-0.111c-0.118-0.06-0.252-0.043-0.38-0.043
	c-0.191,0-0.424,0.073-0.565,0.215c-0.098,0.098-0.191,0.182-0.191,0.332c0,0.1,0,0.199,0,0.299c0,0.188,0.07,0.531,0.266,0.627
	c0.2,0.099,0.354,0.152,0.579,0.152c0.188,0,0.529-0.068,0.626-0.264c0.037-0.074,0.074-0.148,0.111-0.223
	C76.868,25.621,76.852,25.487,76.852,25.359c0-0.402-0.625-0.402-0.625,0c0,0.029,0,0.059,0,0.088c0,0.131-0.049,0.16,0.038-0.014
	c-0.017,0.034-0.034,0.068-0.051,0.102c-0.068,0.137-0.084,0.068,0.047,0.004c-0.034,0.018-0.068,0.033-0.102,0.051
	c-0.124,0.061-0.136,0.012,0.034,0.012c-0.088,0-0.177,0-0.265,0c-0.143,0,0.176,0.079,0.068,0.025
	c-0.051-0.025-0.102-0.05-0.153-0.075c-0.104-0.052,0.112,0.165,0.06,0.061c-0.025-0.052-0.051-0.103-0.077-0.153
	c-0.055-0.109,0.025,0.209,0.025,0.079c0-0.056,0-0.11,0-0.167c0-0.078,0-0.156,0-0.234c-0.03,0.074-0.061,0.147-0.092,0.221
	c0.033-0.033,0.066-0.066,0.1-0.1c-0.082,0.082,0.022,0,0.06-0.018c0.122-0.062,0.136-0.014-0.029-0.014c0.035,0,0.07,0,0.105,0
	c0.055,0,0.11,0,0.166,0c0.116,0-0.21-0.092-0.044-0.008c0.048,0.023,0.095,0.048,0.143,0.072c-0.105-0.053,0.025,0.034,0.058,0.066
	c-0.031-0.073-0.062-0.146-0.092-0.221c0,0.074,0,0.148,0,0.223C76.227,25.762,76.852,25.762,76.852,25.359z"/>
<path d="M77.539,25.359h-3 M76.762,24.025l-1.444,2.668 M76.762,26.693l-1.444-2.668"/>
<path d="M77.539,25.047c-1,0-2,0-3,0c-0.403,0-0.403,0.625,0,0.625c1,0,2,0,3,0C77.942,25.672,77.942,25.047,77.539,25.047
	L77.539,25.047z"/>
<path d="M76.492,23.867c-0.481,0.89-0.963,1.779-1.444,2.668c-0.192,0.355,0.348,0.67,0.539,0.316
	c0.481-0.89,0.963-1.779,1.444-2.668C77.224,23.828,76.684,23.514,76.492,23.867L76.492,23.867z"/>
<path d="M77.031,26.535c-0.481-0.889-0.963-1.778-1.444-2.668c-0.191-0.354-0.731-0.039-0.539,0.316
	c0.481,0.889,0.963,1.778,1.444,2.668C76.684,27.205,77.224,26.891,77.031,26.535L77.031,26.535z"/>
<rect id="_x3C_Slice_x3E__103_" y="57.334" fill="none" width="53.333" height="52"/>
<rect id="_x3C_Slice_x3E__102_" x="53.333" y="57.334" fill="none" width="48" height="52"/>
<rect id="_x3C_Slice_x3E__101_" fill="none" width="53.333" height="57.334"/>
<rect id="_x3C_Slice_x3E__100_" x="53.333" fill="none" width="48" height="57.334"/>
</svg>
