<?xml version="1.0" encoding="utf-8"?>
<!-- Generator: Adobe Illustrator 15.0.2, SVG Export Plug-In  -->
<!DOCTYPE svg PUBLIC "-//W3C//DTD SVG 1.1//EN" "http://www.w3.org/Graphics/SVG/1.1/DTD/svg11.dtd" [
	<!ENTITY ns_flows "http://ns.adobe.com/Flows/1.0/">
]>
<svg version="1.1"
	 xmlns="http://www.w3.org/2000/svg" xmlns:xlink="http://www.w3.org/1999/xlink" xmlns:a="http://ns.adobe.com/AdobeSVGViewerExtensions/3.0/"
	 x="0px" y="0px" width="35px" height="51px" viewBox="0 0.333 35 51" overflow="visible" enable-background="new 0 0.333 35 51"
	 xml:space="preserve">
<defs>
</defs>
<path d="M12.319,27.938c-3.519,0-7.037,0-10.556,0c-0.403,0-0.403,0.625,0,0.625c3.519,0,7.037,0,10.556,0
	C12.723,28.563,12.723,27.938,12.319,27.938L12.319,27.938z"/>
<path d="M12.319,24.716c-3.519,0-7.037,0-10.556,0c-0.403,0-0.403,0.625,0,0.625c3.519,0,7.037,0,10.556,0
	C12.723,25.341,12.723,24.716,12.319,24.716L12.319,24.716z"/>
<rect id="_x3C_Slice_x3E__101_" y="50.667" fill="none" width="35" height="57.333"/>
<rect id="_x3C_Slice_x3E__100_" fill="none" width="35" height="50.667"/>
</svg>
