<?xml version="1.0" encoding="utf-8"?>
<!-- Generator: Adobe Illustrator 15.0.2, SVG Export Plug-In  -->
<!DOCTYPE svg PUBLIC "-//W3C//DTD SVG 1.1//EN" "http://www.w3.org/Graphics/SVG/1.1/DTD/svg11.dtd" [
	<!ENTITY ns_flows "http://ns.adobe.com/Flows/1.0/">
]>
<svg version="1.1"
	 xmlns="http://www.w3.org/2000/svg" xmlns:xlink="http://www.w3.org/1999/xlink" xmlns:a="http://ns.adobe.com/AdobeSVGViewerExtensions/3.0/"
	 x="0px" y="0px" width="57px" height="55px" viewBox="47.667 0 57 55" overflow="visible" enable-background="new 47.667 0 57 55"
	 xml:space="preserve">
<defs>
</defs>
<path d="M81.983,30.271c-3.519,0-7.037,0-10.555,0c-0.403,0-0.403,0.625,0,0.625c3.518,0,7.036,0,10.555,0
	C82.385,30.896,82.385,30.271,81.983,30.271L81.983,30.271z"/>
<path d="M81.983,27.048c-3.519,0-7.037,0-10.555,0c-0.403,0-0.403,0.625,0,0.625c3.518,0,7.036,0,10.555,0
	C82.385,27.673,82.385,27.048,81.983,27.048L81.983,27.048z"/>
<path d="M81.983,23.715c-3.519,0-7.037,0-10.555,0c-0.403,0-0.403,0.625,0,0.625c3.518,0,7.036,0,10.555,0
	C82.385,24.34,82.385,23.715,81.983,23.715L81.983,23.715z"/>
<rect id="_x3C_Slice_x3E__103_" y="54.667" fill="none" width="48" height="54.667"/>
<rect id="_x3C_Slice_x3E__102_" x="48" y="54.667" fill="none" width="57.333" height="54.667"/>
<rect id="_x3C_Slice_x3E__101_" fill="none" width="48" height="54.667"/>
<rect id="_x3C_Slice_x3E__100_" x="48" fill="none" width="57.333" height="54.667"/>
</svg>
