<?xml version="1.0" encoding="utf-8"?>
<!-- Generator: Adobe Illustrator 15.0.2, SVG Export Plug-In  -->
<!DOCTYPE svg PUBLIC "-//W3C//DTD SVG 1.1//EN" "http://www.w3.org/Graphics/SVG/1.1/DTD/svg11.dtd" [
	<!ENTITY ns_flows "http://ns.adobe.com/Flows/1.0/">
]>
<svg version="1.1"
	 xmlns="http://www.w3.org/2000/svg" xmlns:xlink="http://www.w3.org/1999/xlink" xmlns:a="http://ns.adobe.com/AdobeSVGViewerExtensions/3.0/"
	 x="0px" y="0px" width="57px" height="58px" viewBox="47.667 0 57 58" overflow="visible" enable-background="new 47.667 0 57 58"
	 xml:space="preserve">
<defs>
</defs>
<polygon fill-rule="evenodd" clip-rule="evenodd" points="77.206,25.359 77.206,25.137 77.094,25.025 76.872,24.914 76.762,24.914 
	76.54,24.914 76.317,25.025 76.206,25.137 76.206,25.359 76.206,25.582 76.317,25.805 76.54,25.914 76.762,25.914 76.872,25.914 
	77.094,25.805 77.206,25.582 77.206,25.359 "/>
<path d="M77.518,25.359c0-0.235-0.025-0.483-0.267-0.604c-0.2-0.1-0.353-0.154-0.577-0.154c-0.203,0-0.439,0.064-0.59,0.215
	c-0.098,0.098-0.191,0.182-0.191,0.332c0,0.1,0,0.199,0,0.299c0,0.188,0.07,0.531,0.266,0.627c0.074,0.037,0.148,0.073,0.223,0.109
	c0.119,0.059,0.252,0.043,0.381,0.043c0.178,0,0.51-0.081,0.602-0.264c0.037-0.074,0.074-0.148,0.111-0.223
	C77.534,25.621,77.518,25.487,77.518,25.359c0-0.402-0.625-0.402-0.625,0c0,0.029,0,0.059,0,0.088c0,0.131-0.05,0.16,0.037-0.014
	c-0.017,0.034-0.033,0.068-0.051,0.102c-0.068,0.137-0.084,0.068,0.047,0.004c-0.033,0.018-0.068,0.033-0.102,0.051
	c-0.122,0.06-0.137,0.012,0.029,0.012c-0.09,0-0.181,0-0.271,0c-0.129,0,0.189,0.079,0.08,0.025
	c-0.052-0.025-0.103-0.05-0.154-0.075c-0.104-0.052,0.113,0.165,0.061,0.061c-0.025-0.052-0.051-0.103-0.076-0.153
	c-0.055-0.109,0.025,0.209,0.025,0.079c0-0.056,0-0.11,0-0.167c0-0.078,0-0.156,0-0.234c-0.031,0.074-0.062,0.147-0.092,0.221
	c0.033-0.033,0.066-0.066,0.1-0.1c-0.082,0.082,0.022,0,0.06-0.018c0.124-0.062,0.136-0.014-0.034-0.014c0.056,0,0.111,0,0.166,0
	c0.033,0,0.066,0,0.1,0c0.131,0-0.201-0.092-0.033-0.008c0.048,0.023,0.096,0.048,0.143,0.072c-0.105-0.053,0.025,0.034,0.058,0.066
	c-0.03-0.073-0.062-0.146-0.091-0.221c0,0.074,0,0.148,0,0.223C76.893,25.762,77.518,25.762,77.518,25.359z"/>
<path d="M78.206,25.359h-3 M77.428,24.025l-1.445,2.668 M77.428,26.693l-1.445-2.668"/>
<path d="M78.206,25.047c-1,0-2,0-3,0c-0.403,0-0.403,0.625,0,0.625c1,0,2,0,3,0C78.608,25.672,78.608,25.047,78.206,25.047
	L78.206,25.047z"/>
<path d="M77.158,23.867c-0.481,0.89-0.964,1.779-1.445,2.668c-0.192,0.355,0.348,0.67,0.54,0.316
	c0.481-0.89,0.963-1.779,1.445-2.668C77.889,23.828,77.35,23.514,77.158,23.867L77.158,23.867z"/>
<path d="M77.698,26.535c-0.482-0.889-0.964-1.778-1.445-2.668c-0.192-0.354-0.732-0.039-0.54,0.316
	c0.481,0.889,0.964,1.778,1.445,2.668C77.35,27.205,77.889,26.891,77.698,26.535L77.698,26.535z"/>
<polygon fill-rule="evenodd" clip-rule="evenodd" points="74.983,29.248 74.872,29.137 74.762,28.914 74.651,28.805 74.428,28.805 
	74.206,28.805 74.094,28.914 73.983,29.137 73.983,29.248 73.983,29.471 74.094,29.693 74.206,29.805 74.428,29.805 74.651,29.805 
	74.762,29.693 74.872,29.471 74.983,29.248 "/>
<path d="M75.204,29.027c-0.024-0.024-0.049-0.049-0.072-0.072c-0.066-0.066,0.035,0.076-0.025-0.047
	c-0.047-0.096-0.086-0.178-0.162-0.254c-0.173-0.169-0.334-0.162-0.561-0.162c-0.226,0-0.452,0.049-0.564,0.273
	c-0.098,0.197-0.148,0.35-0.148,0.57c0,0.193,0.058,0.434,0.202,0.578c0.096,0.096,0.185,0.203,0.333,0.203c0.078,0,0.156,0,0.234,0
	c0.23,0,0.477-0.031,0.592-0.266c0.072-0.149,0.146-0.297,0.221-0.445c0.18-0.359-0.359-0.676-0.54-0.316
	c-0.042,0.086-0.086,0.172-0.128,0.258c-0.029,0.06-0.059,0.119-0.088,0.178c0.051-0.104-0.034,0.025-0.067,0.059
	c0.073-0.031,0.147-0.062,0.222-0.092c-0.148,0-0.297,0-0.445,0c0.073,0.03,0.146,0.061,0.221,0.092
	c-0.033-0.033-0.066-0.066-0.1-0.1c0.082,0.082,0-0.023-0.019-0.061c-0.062-0.123-0.013-0.136-0.013,0.035c0-0.057,0-0.111,0-0.167
	c0-0.033,0-0.066,0-0.1c0-0.134-0.092,0.2-0.008,0.032c0.023-0.049,0.047-0.096,0.071-0.143c-0.053,0.104,0.034-0.023,0.067-0.057
	c-0.074,0.031-0.147,0.062-0.221,0.092c0.148,0,0.297,0,0.445,0c-0.074-0.03-0.148-0.061-0.222-0.092
	c0.034,0.033,0.067,0.065,0.101,0.098c-0.086-0.083,0.017,0.06,0.037,0.102c0.049,0.098,0.117,0.167,0.194,0.244
	C75.047,29.754,75.489,29.312,75.204,29.027z"/>
<path d="M75.983,29.248h-3.111 M75.206,27.914l-1.555,2.779 M75.206,30.693l-1.555-2.779"/>
<path d="M75.983,28.936c-1.037,0-2.074,0-3.111,0c-0.403,0-0.403,0.625,0,0.625c1.037,0,2.074,0,3.111,0
	C76.385,29.561,76.385,28.936,75.983,28.936L75.983,28.936z"/>
<path d="M74.935,27.756c-0.519,0.927-1.036,1.854-1.555,2.779c-0.196,0.353,0.343,0.668,0.54,0.316
	c0.518-0.927,1.036-1.854,1.555-2.779C75.672,27.72,75.131,27.404,74.935,27.756L74.935,27.756z"/>
<path d="M75.475,30.535c-0.519-0.926-1.037-1.853-1.555-2.779c-0.197-0.352-0.736-0.036-0.54,0.316
	c0.519,0.926,1.036,1.853,1.555,2.779C75.131,31.203,75.672,30.888,75.475,30.535L75.475,30.535z"/>
<polygon fill-rule="evenodd" clip-rule="evenodd" points="77.206,33.248 77.206,33.025 77.094,32.805 76.872,32.693 76.762,32.693 
	76.54,32.693 76.317,32.805 76.206,33.025 76.206,33.248 76.206,33.471 76.317,33.582 76.54,33.693 76.762,33.693 76.872,33.693 
	77.094,33.582 77.206,33.471 77.206,33.248 "/>
<path d="M77.518,33.248c0-0.233-0.045-0.385-0.15-0.592c-0.095-0.189-0.418-0.275-0.605-0.275c-0.098,0-0.211-0.016-0.307,0.012
	c-0.099,0.027-0.196,0.092-0.287,0.138c-0.202,0.101-0.275,0.433-0.275,0.63c0,0.238-0.019,0.422,0.163,0.604
	c0.163,0.164,0.393,0.242,0.618,0.242c0.22,0,0.371-0.051,0.567-0.149C77.487,33.734,77.518,33.49,77.518,33.248
	c0-0.402-0.625-0.402-0.625,0c0,0.074,0,0.148,0,0.223c0.029-0.074,0.061-0.147,0.091-0.221c-0.033,0.033-0.066,0.066-0.1,0.1
	c0.082-0.082-0.022,0-0.06,0.018c-0.122,0.062-0.136,0.014,0.029,0.014c-0.035,0-0.07,0-0.104,0c-0.056,0-0.11,0-0.167,0
	c-0.115,0,0.211,0.092,0.044,0.008c-0.048-0.023-0.095-0.048-0.143-0.072c0.104,0.053-0.025-0.034-0.058-0.066
	c0.03,0.073,0.061,0.146,0.092,0.221c0-0.074,0-0.148,0-0.223c0-0.029,0-0.059,0-0.088c0-0.131,0.049-0.159-0.039,0.014
	c0.018-0.033,0.035-0.067,0.052-0.102c0.067-0.135,0.084-0.068-0.047-0.002c0.048-0.024,0.095-0.049,0.143-0.072
	c0.167-0.084-0.159,0.008-0.044,0.008c0.078,0,0.156,0,0.234,0c0.142,0-0.178-0.08-0.068-0.025c0.051,0.025,0.102,0.051,0.152,0.076
	c0.105,0.053-0.112-0.164-0.06-0.06c0.025,0.05,0.052,0.101,0.077,0.151c0.041,0.084-0.025-0.229-0.025-0.035
	c0,0.045,0,0.09,0,0.135C76.893,33.65,77.518,33.65,77.518,33.248z"/>
<path d="M78.206,33.248h-3 M77.428,31.914l-1.445,2.668 M77.428,34.582l-1.445-2.668"/>
<path d="M78.206,32.936c-1,0-2,0-3,0c-0.403,0-0.403,0.625,0,0.625c1,0,2,0,3,0C78.608,33.561,78.608,32.936,78.206,32.936
	L78.206,32.936z"/>
<path d="M77.158,31.756c-0.481,0.89-0.964,1.779-1.445,2.668c-0.192,0.355,0.348,0.67,0.54,0.316
	c0.481-0.89,0.963-1.779,1.445-2.668C77.889,31.717,77.35,31.402,77.158,31.756L77.158,31.756z"/>
<path d="M77.698,34.424c-0.482-0.889-0.964-1.778-1.445-2.668c-0.192-0.354-0.732-0.039-0.54,0.316
	c0.481,0.889,0.964,1.778,1.445,2.668C77.35,35.094,77.889,34.779,77.698,34.424L77.698,34.424z"/>
<polygon fill-rule="evenodd" clip-rule="evenodd" points="79.428,29.248 79.428,29.137 79.317,28.914 79.206,28.805 78.983,28.805 
	78.762,28.805 78.651,28.914 78.54,29.137 78.428,29.248 78.54,29.471 78.651,29.693 78.762,29.805 78.983,29.805 79.206,29.805 
	79.317,29.693 79.428,29.471 79.428,29.248 "/>
<path d="M79.741,29.248c0-0.191-0.07-0.324-0.154-0.492c-0.117-0.233-0.362-0.264-0.592-0.264c-0.217,0-0.362,0.002-0.525,0.162
	c-0.066,0.064-0.104,0.133-0.145,0.213c-0.018,0.037-0.1,0.143-0.018,0.061c-0.033,0.033-0.066,0.066-0.101,0.1
	c-0.104,0.104-0.112,0.252-0.049,0.379c0.074,0.148,0.148,0.297,0.223,0.445c0.12,0.239,0.367,0.266,0.603,0.266
	c0.234,0,0.482-0.025,0.604-0.266c0.037-0.074,0.074-0.148,0.111-0.223C79.756,29.51,79.741,29.376,79.741,29.248
	c0-0.402-0.625-0.402-0.625,0c0,0.045,0,0.09,0,0.135c0,0.203,0.092-0.17,0.007,0c-0.023,0.049-0.048,0.096-0.071,0.143
	c0.053-0.104-0.035,0.025-0.067,0.059c0.073-0.031,0.147-0.062,0.222-0.092c-0.148,0-0.296,0-0.443,0
	c0.073,0.03,0.146,0.061,0.221,0.092c-0.033-0.033-0.12-0.163-0.067-0.059c-0.03-0.059-0.06-0.118-0.089-0.178
	c-0.043-0.086-0.086-0.172-0.129-0.258c-0.017,0.127-0.033,0.253-0.049,0.379c0.077-0.077,0.146-0.146,0.195-0.244
	c0.023-0.049,0.047-0.096,0.071-0.143c-0.053,0.104,0.034-0.023,0.067-0.057c-0.074,0.031-0.147,0.062-0.221,0.092
	c0.147,0,0.295,0,0.443,0c-0.074-0.03-0.148-0.061-0.222-0.092c0.024,0.023,0.048,0.047,0.072,0.071
	c0.065,0.064-0.036-0.077,0.026,0.046c0.023,0.047,0.047,0.095,0.07,0.143c-0.082-0.166-0.037-0.149-0.037-0.037
	C79.116,29.65,79.741,29.65,79.741,29.248z"/>
<path d="M80.54,29.248h-3.111 M79.762,27.914l-1.557,2.779 M79.762,30.693l-1.557-2.779"/>
<path d="M80.54,28.936c-1.037,0-2.074,0-3.111,0c-0.403,0-0.403,0.625,0,0.625c1.037,0,2.074,0,3.111,0
	C80.942,29.561,80.942,28.936,80.54,28.936L80.54,28.936z"/>
<path d="M79.492,27.756c-0.519,0.927-1.038,1.854-1.557,2.779c-0.196,0.353,0.343,0.668,0.54,0.316
	c0.519-0.927,1.037-1.854,1.557-2.779C80.229,27.72,79.689,27.404,79.492,27.756L79.492,27.756z"/>
<path d="M80.032,30.535c-0.52-0.926-1.038-1.853-1.557-2.779c-0.197-0.352-0.736-0.036-0.54,0.316
	c0.519,0.926,1.038,1.853,1.557,2.779C79.689,31.203,80.229,30.888,80.032,30.535L80.032,30.535z"/>
<rect id="_x3C_Slice_x3E__103_" y="57.334" fill="none" width="48" height="52"/>
<rect id="_x3C_Slice_x3E__102_" x="48" y="57.334" fill="none" width="57.333" height="52"/>
<rect id="_x3C_Slice_x3E__101_" fill="none" width="48" height="57.334"/>
<rect id="_x3C_Slice_x3E__100_" x="48" fill="none" width="57.333" height="57.334"/>
</svg>
