<?xml version="1.0" encoding="utf-8"?>
<!-- Generator: Adobe Illustrator 15.0.2, SVG Export Plug-In  -->
<!DOCTYPE svg PUBLIC "-//W3C//DTD SVG 1.1//EN" "http://www.w3.org/Graphics/SVG/1.1/DTD/svg11.dtd" [
	<!ENTITY ns_flows "http://ns.adobe.com/Flows/1.0/">
]>
<svg version="1.1"
	 xmlns="http://www.w3.org/2000/svg" xmlns:xlink="http://www.w3.org/1999/xlink" xmlns:a="http://ns.adobe.com/AdobeSVGViewerExtensions/3.0/"
	 x="0px" y="0px" width="60px" height="50px" viewBox="0 0.666 60 50" overflow="visible" enable-background="new 0 0.666 60 50"
	 xml:space="preserve">
<defs>
</defs>
<polygon fill-rule="evenodd" clip-rule="evenodd" points="29.318,28.025 29.318,27.805 29.207,27.582 29.096,27.359 28.874,27.137 
	28.763,27.025 28.541,26.914 28.318,26.805 27.985,26.805 27.763,26.805 27.541,26.914 27.318,27.025 27.207,27.137 26.985,27.359 
	26.874,27.582 26.763,27.805 26.763,28.025 26.763,28.248 26.874,28.471 26.985,28.693 27.207,28.914 27.318,29.025 27.541,29.137 
	27.763,29.248 27.985,29.248 28.318,29.248 28.541,29.137 28.763,29.025 28.874,28.914 29.096,28.693 29.207,28.471 29.318,28.248 
	29.318,28.025 "/>
<path d="M29.631,28.025c0-0.848-0.796-1.533-1.611-1.533c-0.8,0-1.569,0.719-1.569,1.533c0,0.787,0.748,1.535,1.535,1.535
	C28.813,29.561,29.631,28.898,29.631,28.025c0-0.402-0.625-0.402-0.625,0c0,0.062,0,0.125,0,0.188c0-0.185-0.026,0.015-0.068,0.1
	c-0.083,0.166-0.127,0.224-0.262,0.357c-0.095,0.094-0.17,0.136-0.293,0.197c-0.062,0.031-0.125,0.062-0.188,0.094
	c0.177-0.089-0.084-0.025-0.176-0.025c-0.049,0-0.097,0-0.146,0c-0.106-0.007-0.103,0.002,0.012,0.025
	c-0.051-0.025-0.102-0.051-0.153-0.076c-0.117-0.059-0.214-0.102-0.305-0.191c-0.13-0.131-0.19-0.192-0.267-0.346
	c-0.037-0.074-0.074-0.148-0.111-0.223c0.083,0.168,0.025-0.012,0.025-0.1c0-0.062,0-0.124,0-0.186c0,0.185,0.025-0.015,0.068-0.1
	c0.082-0.166,0.127-0.225,0.261-0.359c0.094-0.095,0.171-0.136,0.293-0.197c0.062-0.031,0.125-0.061,0.188-0.092
	c-0.169,0.083,0.013,0.025,0.099,0.025c0.072,0,0.144,0,0.216,0c0.112,0.008,0.11-0.001-0.006-0.025
	c0.051,0.025,0.102,0.05,0.153,0.075c0.118,0.058,0.214,0.101,0.304,0.19c0.13,0.131,0.191,0.194,0.268,0.348
	c0.037,0.074,0.074,0.148,0.111,0.223c-0.083-0.167-0.025,0.01-0.025,0.098C29.006,28.428,29.631,28.428,29.631,28.025z"/>
<polygon fill-rule="evenodd" clip-rule="evenodd" points="29.318,23.914 29.318,23.693 29.207,23.471 29.096,23.248 28.874,23.025 
	28.763,22.914 28.541,22.805 28.318,22.693 27.985,22.693 27.763,22.693 27.541,22.805 27.318,22.914 27.207,23.025 26.985,23.248 
	26.874,23.471 26.763,23.693 26.763,23.914 26.763,24.137 26.874,24.359 26.985,24.582 27.207,24.805 27.318,24.914 27.541,25.025 
	27.763,25.137 27.985,25.137 28.318,25.137 28.541,25.025 28.763,24.914 28.874,24.805 29.096,24.582 29.207,24.359 29.318,24.137 
	29.318,23.914 "/>
<path d="M29.631,23.914c0-0.848-0.796-1.533-1.611-1.533c-0.8,0-1.569,0.719-1.569,1.533c0,0.787,0.748,1.535,1.535,1.535
	C28.813,25.449,29.631,24.788,29.631,23.914c0-0.402-0.625-0.402-0.625,0c0,0.062,0,0.125,0,0.188c0-0.185-0.026,0.015-0.068,0.1
	c-0.083,0.166-0.128,0.225-0.262,0.359c-0.094,0.094-0.171,0.134-0.293,0.195c-0.062,0.031-0.125,0.062-0.188,0.094
	c0.177-0.089-0.084-0.025-0.176-0.025c-0.049,0-0.097,0-0.146,0c-0.106-0.007-0.103,0.002,0.012,0.025
	c-0.051-0.025-0.102-0.051-0.153-0.076c-0.117-0.059-0.214-0.101-0.305-0.189c-0.131-0.129-0.19-0.195-0.267-0.348
	c-0.037-0.074-0.074-0.148-0.111-0.223c0.083,0.168,0.025-0.012,0.025-0.1c0-0.062,0-0.124,0-0.186c0,0.185,0.025-0.015,0.068-0.1
	c0.082-0.166,0.127-0.225,0.261-0.359c0.095-0.095,0.17-0.135,0.293-0.195c0.062-0.031,0.125-0.062,0.188-0.094
	c-0.167,0.084,0.011,0.025,0.099,0.025c0.072,0,0.144,0,0.216,0c0.112,0.008,0.11-0.001-0.006-0.025
	c0.051,0.025,0.102,0.051,0.153,0.076c0.118,0.06,0.214,0.099,0.304,0.189c0.13,0.131,0.191,0.194,0.268,0.348
	c0.037,0.074,0.074,0.148,0.111,0.223c-0.083-0.167-0.025,0.01-0.025,0.098C29.006,24.316,29.631,24.316,29.631,23.914z"/>
<rect id="_x3C_Slice_x3E__100_" fill="none" width="60" height="50.666"/>
</svg>
