<?xml version="1.0" encoding="utf-8"?>
<!-- Generator: Adobe Illustrator 15.0.2, SVG Export Plug-In  -->
<!DOCTYPE svg PUBLIC "-//W3C//DTD SVG 1.1//EN" "http://www.w3.org/Graphics/SVG/1.1/DTD/svg11.dtd" [
	<!ENTITY ns_flows "http://ns.adobe.com/Flows/1.0/">
]>
<svg version="1.1"
	 xmlns="http://www.w3.org/2000/svg" xmlns:xlink="http://www.w3.org/1999/xlink" xmlns:a="http://ns.adobe.com/AdobeSVGViewerExtensions/3.0/"
	 x="0px" y="0px" width="56px" height="57px" viewBox="54.333 0.667 56 57"
	 overflow="visible" enable-background="new 54.333 0.667 56 57" xml:space="preserve">
<defs>
</defs>
<path d="M80.538,24.452c0.687,0,1.374,0,2.061,0c0.582,0,0.07-0.197,0.07-0.219c0,0.229,0,0.458,0,0.688c0,1.684,0,3.368,0,5.052
	s0,3.369,0,5.052c0,0.83-0.105,0.469,0.207,0.469c-0.779,0-1.559,0-2.338,0c-0.403,0-0.403,0.625,0,0.625c0.814,0,1.629,0,2.443,0
	c0.17,0,0.312-0.143,0.312-0.312c0-3.889,0-7.778,0-11.667c0-0.17-0.143-0.312-0.312-0.312c-0.814,0-1.629,0-2.443,0
	C80.135,23.827,80.135,24.452,80.538,24.452L80.538,24.452z"/>
<path d="M78.173,35.167c-0.703-2.074-1.408-4.148-2.111-6.223c-0.101,0.132-0.201,0.264-0.301,0.396c1.443,0,2.888,0,4.332,0
	c-0.102-0.132-0.201-0.264-0.302-0.396c-0.74,2.074-1.48,4.148-2.221,6.223c-0.136,0.38,0.468,0.542,0.603,0.166
	c0.74-2.074,1.48-4.148,2.221-6.223c0.069-0.193-0.109-0.396-0.301-0.396c-1.444,0-2.889,0-4.332,0
	c-0.195,0-0.367,0.201-0.302,0.396c0.704,2.074,1.407,4.148,2.111,6.223C77.699,35.713,78.303,35.55,78.173,35.167L78.173,35.167z"
	/>
<path d="M77.602,24.648c-0.704,1.223-1.407,2.445-2.111,3.667c-0.118,0.205,0.032,0.471,0.271,0.471c1.443,0,2.888,0,4.332,0
	c0.233,0,0.393-0.267,0.27-0.471c-0.74-1.222-1.48-2.444-2.221-3.667c-0.209-0.344-0.749-0.03-0.54,0.315
	c0.74,1.223,1.48,2.445,2.221,3.667c0.091-0.156,0.181-0.313,0.271-0.47c-1.444,0-2.889,0-4.332,0c0.09,0.156,0.18,0.313,0.27,0.47
	c0.703-1.222,1.407-2.444,2.111-3.667C78.343,24.614,77.803,24.299,77.602,24.648L77.602,24.648z"/>
<rect id="_x3C_Slice_x3E__103_" y="57.333" fill="none" width="54.667" height="53.333"/>
<rect id="_x3C_Slice_x3E__102_" x="54.667" y="57.333" fill="none" width="56" height="53.333"/>
<rect id="_x3C_Slice_x3E__101_" fill="none" width="54.667" height="57.333"/>
<rect id="_x3C_Slice_x3E__100_" x="54.667" fill="none" width="56" height="57.333"/>
</svg>
