<?xml version="1.0" encoding="utf-8"?>
<!-- Generator: Adobe Illustrator 15.0.2, SVG Export Plug-In  -->
<!DOCTYPE svg PUBLIC "-//W3C//DTD SVG 1.1//EN" "http://www.w3.org/Graphics/SVG/1.1/DTD/svg11.dtd" [
	<!ENTITY ns_flows "http://ns.adobe.com/Flows/1.0/">
]>
<svg version="1.1"
	 xmlns="http://www.w3.org/2000/svg" xmlns:xlink="http://www.w3.org/1999/xlink" xmlns:a="http://ns.adobe.com/AdobeSVGViewerExtensions/3.0/"
	 x="0px" y="0px" width="52px" height="55px" viewBox="55.666 0 52 55" overflow="visible" enable-background="new 55.666 0 52 55"
	 xml:space="preserve">
<defs>
</defs>
<path d="M83.98,30.271c-3.519,0-7.037,0-10.555,0c-0.403,0-0.403,0.625,0,0.625c3.518,0,7.036,0,10.555,0
	C84.383,30.896,84.383,30.271,83.98,30.271L83.98,30.271z"/>
<path d="M83.98,27.048c-3.519,0-7.037,0-10.555,0c-0.403,0-0.403,0.625,0,0.625c3.518,0,7.036,0,10.555,0
	C84.383,27.673,84.383,27.048,83.98,27.048L83.98,27.048z"/>
<path d="M83.98,23.715c-0.407,0-0.814,0-1.221,0c-0.109,0-0.215,0.06-0.271,0.155c-0.595,1.031-1.189,2.063-1.784,3.095
	c-0.344,0.597-1.629,3.305-2.002,3.305c-0.336,0-1.471-2.384-1.792-2.941c-0.665-1.153-1.329-2.306-1.993-3.459
	c-0.055-0.096-0.16-0.155-0.27-0.155c-0.408,0-0.815,0-1.223,0c-0.403,0-0.403,0.625,0,0.625c0.656,0,0.965-0.134,1.082,0.07
	c0.414,0.718,0.826,1.435,1.24,2.153c0.803,1.392,1.605,2.785,2.407,4.177c0.056,0.096,0.161,0.155,0.271,0.155
	c0.185,0,0.369,0,0.555,0c0.109,0,0.215-0.06,0.27-0.155c0.734-1.273,1.469-2.547,2.203-3.821c0.451-0.781,0.901-1.563,1.352-2.345
	c0.204-0.354,0.241-0.234,0.082-0.234c0.364,0,0.729,0,1.094,0C84.383,24.34,84.383,23.715,83.98,23.715L83.98,23.715z"/>
<polygon fill-rule="evenodd" clip-rule="evenodd" points="76.537,27.36 80.871,27.36 78.98,30.583 78.426,30.583 76.537,27.36 "/>
<path d="M76.537,27.673c1.444,0,2.889,0,4.334,0c-0.09-0.156-0.18-0.313-0.271-0.47c-0.329,0.562-0.659,1.123-0.988,1.684
	c-0.208,0.354-0.415,0.708-0.622,1.062c-0.068,0.115-0.136,0.23-0.203,0.346c-0.166,0.283,0.32-0.024-0.002-0.024
	c-0.407,0-0.203-0.038-0.109,0.12c-0.049-0.082-0.098-0.164-0.145-0.246c-0.218-0.371-0.436-0.741-0.652-1.111
	c-0.357-0.61-0.715-1.22-1.072-1.83c-0.203-0.348-0.744-0.033-0.54,0.315c0.386,0.658,0.772,1.316,1.157,1.974
	c0.285,0.486,0.549,1.403,1.197,1.403c0.781,0,0.908-0.631,1.277-1.261c0.414-0.706,0.828-1.411,1.242-2.116
	c0.119-0.205-0.033-0.471-0.27-0.471c-1.445,0-2.89,0-4.334,0C76.134,27.048,76.134,27.673,76.537,27.673z"/>
<rect id="_x3C_Slice_x3E__103_" y="54.667" fill="none" width="56" height="54.667"/>
<rect id="_x3C_Slice_x3E__102_" x="56" y="54.667" fill="none" width="52" height="54.667"/>
<rect id="_x3C_Slice_x3E__101_" fill="none" width="56" height="54.667"/>
<rect id="_x3C_Slice_x3E__100_" x="56" fill="none" width="52" height="54.667"/>
</svg>
