<?xml version="1.0" encoding="utf-8"?>
<!-- Generator: Adobe Illustrator 15.0.2, SVG Export Plug-In  -->
<!DOCTYPE svg PUBLIC "-//W3C//DTD SVG 1.1//EN" "http://www.w3.org/Graphics/SVG/1.1/DTD/svg11.dtd" [
	<!ENTITY ns_flows "http://ns.adobe.com/Flows/1.0/">
]>
<svg version="1.1"
	 xmlns="http://www.w3.org/2000/svg" xmlns:xlink="http://www.w3.org/1999/xlink" xmlns:a="http://ns.adobe.com/AdobeSVGViewerExtensions/3.0/"
	 x="0px" y="0px" width="49px" height="34px" viewBox="56.2 0.9 49 34" overflow="visible" enable-background="new 56.2 0.9 49 34"
	 xml:space="preserve">
<defs>
</defs>
<path d="M73.5,22.4c0,3.2,0,6.4,0,9.7c0,0.4,0.6,0.4,0.6,0c0-3.2,0-6.4,0-9.7C74.1,21.9,73.5,21.9,73.5,22.4L73.5,22.4z"/>
<path d="M80.3,30.5c-0.6-0.7-1.1-1.4-1.7-2.1c-0.4-0.4-0.7-0.9-1.1-1.3c-0.1-0.1-0.2-0.3-0.3-0.4c-0.2-0.2-0.2,0.5,0,0.3
	c1.2-1.5,2.5-2.9,3.7-4.4c0.2-0.2,0.1-0.5-0.2-0.5c-2.7,0-5.4,0-8.1,0c-0.4,0-0.4,0.6,0,0.6c2.7,0,5.4,0,8.1,0
	c-0.1-0.2-0.1-0.4-0.2-0.5c-1.3,1.5-2.5,3-3.8,4.4c-0.1,0.1-0.1,0.3,0,0.4c1.1,1.3,2.1,2.6,3.2,3.9C80.1,31.2,80.5,30.8,80.3,30.5
	L80.3,30.5z"/>
<polygon fill-rule="evenodd" clip-rule="evenodd" points="81.2,32 80.9,30.9 80.7,30.2 80.7,29.9 80.6,29.8 80.6,29.8 80.6,29.8 
	80.5,29.8 80.5,29.9 80.4,30 80.4,30.2 80.3,30.5 80.3,30.6 80,30.7 79.9,30.8 79.8,30.9 79.6,30.9 79.4,30.9 79.2,30.9 79.2,30.9 
	79,31 79.2,31.1 79.3,31.1 79.6,31.2 80.2,31.5 81.2,32 "/>
<path d="M81.5,31.9c-0.1-0.4-0.1-0.9-0.3-1.3c-0.1-0.4-0.2-0.4-0.2-0.7c0-0.3-0.3-0.4-0.5-0.4c-0.2,0-0.3,0.1-0.3,0.3
	c0,0,0,0.1,0,0.1c0-0.1,0.1-0.1,0.1-0.2c-0.2,0.2-0.2,0.3-0.2,0.5c0-0.2,0,0-0.1,0.1c0,0.1-0.1,0.2-0.1,0.3c0.1-0.1,0.1-0.2,0.2-0.3
	c-0.2,0.1-0.3,0.2-0.5,0.4c0.1,0,0.1-0.1,0.2-0.1c-0.4,0-0.7-0.1-1,0.2c-0.1,0.1-0.1,0.3,0,0.4c0.3,0.3,0.8,0.3,1.1,0.5
	c0.2,0.1,0,0,0.1,0c0.1,0.1,0.2,0.1,0.4,0.2c0.2,0.1,0.4,0.2,0.6,0.3c0.4,0.2,0.7-0.3,0.3-0.5c-0.6-0.3-1.4-0.9-2.2-0.9
	c0.1,0,0.1,0.1,0.2,0.1c0,0-0.1-0.1-0.1-0.1c0,0.1,0,0.3,0,0.4c0,0,0.1-0.1,0.1-0.1c-0.1,0-0.1,0.1-0.2,0.1c0.2,0,0.4,0,0.7,0
	c0.2,0,0.4-0.3,0.6-0.4c0.1,0,0.2-0.2,0.2-0.3c0-0.2-0.1,0.1,0,0c0,0,0-0.1,0.1-0.1c0.1-0.1,0-0.2,0-0.4c0,0.1-0.1,0.1-0.1,0.2
	c0.1-0.1,0.2-0.2,0.2-0.4c-0.1,0.1-0.2,0.2-0.3,0.3c0,0,0.1,0,0.1,0c-0.1,0-0.1-0.1-0.2-0.1c0,0,0.1,0.1,0.1,0.1
	c0-0.1-0.1-0.1-0.1-0.2c0,0.4,0.1,0.7,0.2,1.1c0.1,0.3,0.1,0.7,0.2,1.1C80.9,32.5,81.5,32.3,81.5,31.9z"/>
<path d="M79.8,21.7c0.7,0,1.4,0,2.1,0c0.6,0,0.1-0.2,0.1-0.2c0,0.2,0,0.5,0,0.7c0,1.7,0,3.4,0,5.1c0,1.7,0,3.4,0,5.1
	c0,0.8-0.1,0.5,0.2,0.5c-0.8,0-1.6,0-2.3,0c-0.4,0-0.4,0.6,0,0.6c0.8,0,1.6,0,2.4,0c0.2,0,0.3-0.1,0.3-0.3c0-3.9,0-7.8,0-11.7
	c0-0.2-0.1-0.3-0.3-0.3c-0.8,0-1.6,0-2.4,0C79.4,21,79.4,21.7,79.8,21.7L79.8,21.7z"/>
<polygon fill-rule="evenodd" clip-rule="evenodd" points="84.9,25.1 84.9,24.9 84.8,24.8 84.6,24.7 84.5,24.6 84.3,24.7 84,24.8 
	83.9,24.9 83.9,25.1 83.9,25.4 84,25.5 84.3,25.6 84.5,25.7 84.6,25.6 84.8,25.5 84.9,25.4 84.9,25.1 "/>
<path d="M85.2,25.1c0-0.2,0-0.4-0.2-0.5c-0.1-0.1-0.1-0.1-0.2-0.1c0,0-0.1-0.1,0,0c0,0-0.1-0.1-0.1-0.1c-0.1-0.1-0.3-0.1-0.4,0
	c-0.1,0.1-0.3,0.1-0.4,0.2c-0.2,0.1-0.3,0.4-0.3,0.6c0,0.2,0,0.5,0.3,0.6c0.1,0.1,0.3,0.1,0.4,0.2c0.1,0.1,0.3,0.1,0.4,0
	c0,0,0,0,0.1-0.1c0.1-0.1-0.1,0,0,0c0.1,0,0.2-0.1,0.2-0.1C85.2,25.5,85.2,25.4,85.2,25.1c0-0.4-0.6-0.4-0.6,0c0,0.1,0,0.1,0,0.2
	c0-0.1,0.1-0.1,0.1-0.2c0,0-0.1,0.1-0.1,0.1c0.1-0.1-0.1,0-0.1,0c-0.1,0-0.2,0.1-0.2,0.2c0.1,0,0.3,0,0.4,0c-0.1,0-0.2-0.1-0.3-0.1
	c-0.1,0-0.1-0.1-0.2-0.1c0.1,0.1,0,0-0.1-0.1c0,0.1,0.1,0.1,0.1,0.2c0-0.1,0-0.3,0-0.4c0,0.1-0.1,0.1-0.1,0.2c0,0,0.2-0.1,0.1-0.1
	c0.1,0,0.1-0.1,0.2-0.1c0.1,0,0.2-0.1,0.3-0.1c-0.1,0-0.3,0-0.4,0c0.1,0.1,0.1,0.1,0.2,0.2c0,0,0.1,0,0.1,0.1c-0.1-0.1,0,0,0.1,0.1
	c0-0.1-0.1-0.1-0.1-0.2c0,0.1,0,0.1,0,0.2C84.6,25.5,85.2,25.5,85.2,25.1z"/>
<path d="M85.9,24.8c-1,0-2,0-3,0c-0.4,0-0.4,0.6,0,0.6c1,0,2,0,3,0C86.3,25.4,86.3,24.8,85.9,24.8L85.9,24.8z"/>
<path d="M85,23.6c-0.5,0.9-1,1.8-1.6,2.7c-0.2,0.3,0.3,0.7,0.5,0.3c0.5-0.9,1-1.8,1.6-2.7C85.7,23.6,85.2,23.3,85,23.6L85,23.6z"/>
<path d="M85.5,26.3c-0.5-0.9-1-1.8-1.6-2.7c-0.2-0.3-0.7,0-0.5,0.3c0.5,0.9,1,1.8,1.6,2.7C85.2,27,85.7,26.7,85.5,26.3L85.5,26.3z"
	/>
<polygon fill-rule="evenodd" clip-rule="evenodd" points="84.9,29.1 84.9,28.9 84.8,28.8 84.6,28.7 84.5,28.7 84.3,28.7 84,28.8 
	83.9,28.9 83.9,29.1 83.9,29.4 84,29.6 84.3,29.6 84.5,29.7 84.6,29.6 84.8,29.6 84.9,29.4 84.9,29.1 "/>
<path d="M85.2,29.1c0-0.2,0-0.3-0.1-0.4c-0.1-0.1-0.2-0.2-0.3-0.2c-0.2-0.1-0.5-0.2-0.8-0.1c-0.3,0.1-0.5,0.3-0.5,0.6
	c0,0.1,0,0.2,0,0.3c0,0.1,0.1,0.3,0.2,0.4c0,0.1,0.2,0.2,0.3,0.2c0,0,0.1,0,0.1,0c0.1,0,0.2,0,0,0c0.1,0,0.1,0.1,0.2,0.1
	c0.1,0.1,0.3,0.1,0.4,0c0,0,0.1-0.1,0.1-0.1c-0.1,0-0.1,0.1-0.2,0.1c0.1,0,0.1,0,0.2,0c0.1,0,0.2-0.1,0.3-0.2c0-0.1,0.1-0.1,0.1-0.2
	C85.3,29.4,85.2,29.3,85.2,29.1c0-0.4-0.6-0.4-0.6,0c0,0,0,0.1,0,0.1c0,0.1,0,0.2,0,0c0,0.1-0.1,0.1-0.1,0.2
	c0.1-0.1,0.2-0.1,0.3-0.2c-0.1,0-0.1,0-0.2,0c-0.1,0-0.2,0.1-0.3,0.2c0.1,0,0.3,0,0.4,0c-0.1,0-0.1-0.1-0.2-0.1
	c-0.1-0.1-0.3,0-0.4,0c0.1,0.1,0.2,0.1,0.3,0.2c0-0.1-0.1-0.1-0.1-0.2c-0.1-0.2,0,0.2,0,0c0-0.1,0-0.2,0-0.4c0,0.1-0.1,0.1-0.1,0.2
	c0,0,0.1-0.1,0.1-0.1c-0.1,0.1,0,0,0.1,0c0.1-0.1,0.1,0,0,0c0.1,0,0.1,0,0.2,0c0,0,0.1,0,0.1,0c0.1,0-0.2-0.1,0,0c0,0,0.1,0,0.1,0.1
	c-0.1-0.1,0,0,0.1,0.1c0-0.1-0.1-0.1-0.1-0.2c0,0.1,0,0.1,0,0.2C84.6,29.5,85.2,29.5,85.2,29.1z"/>
<path d="M85.9,28.8c-1,0-2,0-3,0c-0.4,0-0.4,0.6,0,0.6c1,0,2,0,3,0C86.3,29.4,86.3,28.8,85.9,28.8L85.9,28.8z"/>
<path d="M85,27.6c-0.5,0.9-1,1.8-1.6,2.7c-0.2,0.3,0.3,0.7,0.5,0.3c0.5-0.9,1-1.8,1.6-2.7C85.7,27.6,85.2,27.3,85,27.6L85,27.6z"/>
<path d="M85.5,30.3c-0.5-0.9-1-1.8-1.6-2.7c-0.2-0.3-0.7,0-0.5,0.3c0.5,0.9,1,1.8,1.6,2.7C85.2,31,85.7,30.7,85.5,30.3L85.5,30.3z"
	/>
<rect id="_x3C_Slice_x3E__101_" fill="none" width="56.2" height="34.9"/>
<rect id="_x3C_Slice_x3E__100_" x="56.2" fill="none" width="49.2" height="34.9"/>
</svg>
