<?xml version="1.0" encoding="utf-8"?>
<!-- Generator: Adobe Illustrator 15.0.2, SVG Export Plug-In  -->
<!DOCTYPE svg PUBLIC "-//W3C//DTD SVG 1.1//EN" "http://www.w3.org/Graphics/SVG/1.1/DTD/svg11.dtd" [
	<!ENTITY ns_flows "http://ns.adobe.com/Flows/1.0/">
]>
<svg version="1.1"
	 xmlns="http://www.w3.org/2000/svg" xmlns:xlink="http://www.w3.org/1999/xlink" xmlns:a="http://ns.adobe.com/AdobeSVGViewerExtensions/3.0/"
	 x="0px" y="0px" width="35px" height="50px" viewBox="48 0.3 35 50" overflow="visible" enable-background="new 48 0.3 35 50"
	 xml:space="preserve">
<defs>
</defs>
<path d="M79.5,25.5c-2.7,0-5.5,0-8.2,0c-0.4,0-0.4,0.6,0,0.6c2.7,0,5.5,0,8.2,0C79.9,26.2,79.9,25.5,79.5,25.5L79.5,25.5z"/>
<path d="M79.5,27c-2.7,0-5.5,0-8.2,0c-0.4,0-0.4,0.6,0,0.6c2.7,0,5.5,0,8.2,0C79.9,27.6,79.9,27,79.5,27L79.5,27z"/>
<path d="M79.1,27.9c0.6-0.3,1.2-0.7,1.8-1c0.2-0.1,0.2-0.4,0-0.5c-0.6-0.4-1.2-0.7-1.8-1.1c-0.3-0.2-0.7,0.3-0.3,0.5
	c0.6,0.4,1.2,0.7,1.8,1.1c0-0.2,0-0.4,0-0.5c-0.6,0.3-1.2,0.7-1.8,1C78.5,27.6,78.8,28.1,79.1,27.9L79.1,27.9z"/>
<polygon fill-rule="evenodd" clip-rule="evenodd" points="75.2,21.7 74.9,22.6 74.5,23.2 74.3,23.4 74.3,23.6 74.3,23.6 74.4,23.7 
	74.5,23.6 74.6,23.5 74.8,23.4 75,23.4 75.1,23.3 75.2,23.3 75.4,23.3 75.5,23.4 75.8,23.4 75.9,23.6 76,23.7 76.1,23.7 76.2,23.7 
	76.2,23.6 76.1,23.5 76,23.2 75.6,22.6 75.2,21.7 "/>
<path d="M74.9,21.7c-0.1,0.2-0.2,0.4-0.2,0.7c0,0-0.1,0.3-0.1,0.2c-0.1,0.1-0.1,0.2-0.2,0.3c0,0-0.2,0.3-0.1,0.2
	c-0.1,0.1-0.2,0.2-0.3,0.3c-0.1,0.2,0,0.5,0.2,0.7c0.1,0.1,0.3,0.1,0.4,0c0.1-0.1,0.2-0.2,0.3-0.3c-0.1,0-0.1,0.1-0.2,0.1
	c0.2,0,0.4,0,0.6-0.2c-0.1,0-0.1,0.1-0.2,0.1c0.1,0,0.2,0,0.3,0c-0.1,0-0.1-0.1-0.2-0.1c0.2,0.2,0.3,0.2,0.6,0.2
	c-0.1-0.1-0.2-0.1-0.3-0.2c0.2,0.3,0.3,0.5,0.7,0.5c0.2,0,0.3-0.1,0.3-0.3c0-0.1,0-0.2-0.1-0.3c-0.1-0.1-0.1-0.2,0,0
	c0-0.1,0-0.1-0.1-0.2c-0.1-0.2-0.2-0.4-0.3-0.6c-0.2-0.3-0.4-0.7-0.6-1.1c-0.2-0.4-0.7,0-0.5,0.3c0.2,0.3,0.3,0.6,0.5,0.9
	c0.1,0.1,0.1,0.2,0.2,0.3c0,0,0.2,0.3,0.1,0.2c0.1,0.2,0.1,0.4,0.3,0.6c0-0.1-0.1-0.1-0.1-0.2c0,0,0,0.1,0,0.1
	c0.1-0.1,0.2-0.2,0.3-0.3c-0.1,0-0.1,0-0.2,0c0.1,0,0.1,0.1,0.2,0.1c-0.1-0.1-0.1-0.1-0.2-0.3c0-0.1-0.2-0.2-0.3-0.2
	c-0.1,0-0.1,0-0.2,0c0.1,0,0.1,0.1,0.2,0.1c-0.3-0.3-0.7-0.3-1,0c0.1,0,0.1-0.1,0.2-0.1c-0.4,0-0.5,0.2-0.8,0.4c0.1,0,0.3,0,0.4,0
	c0,0-0.1-0.1-0.1-0.1c0,0.1,0.1,0.1,0.1,0.2c0-0.1,0-0.1,0-0.2c0,0.1-0.1,0.1-0.1,0.2c0.5-0.5,0.7-1.1,1-1.8
	C75.6,21.4,75,21.3,74.9,21.7z"/>
<path d="M74.9,23.3c0,2.7,0,5.4,0,8.1c0,0.4,0.6,0.4,0.6,0c0-2.7,0-5.4,0-8.1C75.5,22.9,74.9,22.9,74.9,23.3L74.9,23.3z"/>
<rect id="_x3C_Slice_x3E__103_" y="50.2" fill="none" width="48.2" height="49.2"/>
<rect id="_x3C_Slice_x3E__102_" x="48.2" y="50.2" fill="none" width="34.8" height="49.2"/>
<rect id="_x3C_Slice_x3E__101_" fill="none" width="48.2" height="50.2"/>
<rect id="_x3C_Slice_x3E__100_" x="48.2" fill="none" width="34.8" height="50.2"/>
</svg>
