<?xml version="1.0" encoding="utf-8"?>
<!-- Generator: Adobe Illustrator 15.0.2, SVG Export Plug-In  -->
<!DOCTYPE svg PUBLIC "-//W3C//DTD SVG 1.1//EN" "http://www.w3.org/Graphics/SVG/1.1/DTD/svg11.dtd" [
	<!ENTITY ns_flows "http://ns.adobe.com/Flows/1.0/">
]>
<svg version="1.1"
	 xmlns="http://www.w3.org/2000/svg" xmlns:xlink="http://www.w3.org/1999/xlink" xmlns:a="http://ns.adobe.com/AdobeSVGViewerExtensions/3.0/"
	 x="0px" y="0px" width="56px" height="54px" viewBox="48.9 0.6 56 54" overflow="visible" enable-background="new 48.9 0.6 56 54"
	 xml:space="preserve">
<defs>
</defs>
<path d="M78.1,21.3c0.7,0,1.4,0,2.1,0c0.6,0,0.1-0.2,0.1-0.2c0,0.2,0,0.5,0,0.7c0,1.7,0,3.4,0,5.1c0,1.7,0,3.4,0,5.1
	c0,0.8-0.1,0.5,0.2,0.5c-0.8,0-1.6,0-2.3,0c-0.4,0-0.4,0.6,0,0.6c0.8,0,1.6,0,2.4,0c0.2,0,0.3-0.1,0.3-0.3c0-3.9,0-7.8,0-11.7
	c0-0.2-0.1-0.3-0.3-0.3c-0.8,0-1.6,0-2.4,0C77.7,20.7,77.7,21.3,78.1,21.3L78.1,21.3z"/>
<path d="M75.8,32c-0.7-2.1-1.4-4.1-2.1-6.2c-0.1,0.1-0.2,0.3-0.3,0.4c1.4,0,2.9,0,4.3,0c-0.1-0.1-0.2-0.3-0.3-0.4
	c-0.7,2.1-1.5,4.1-2.2,6.2c-0.1,0.4,0.5,0.5,0.6,0.2c0.7-2.1,1.5-4.1,2.2-6.2c0.1-0.2-0.1-0.4-0.3-0.4c-1.4,0-2.9,0-4.3,0
	c-0.2,0-0.4,0.2-0.3,0.4c0.7,2.1,1.4,4.1,2.1,6.2C75.3,32.6,75.9,32.4,75.8,32L75.8,32z"/>
<polygon fill-rule="evenodd" clip-rule="evenodd" points="76.8,23.4 76.8,23.1 76.7,22.9 76.6,22.6 76.4,22.5 76.2,22.3 76,22.2 
	75.8,22.1 75.5,22.1 75.2,22.1 75,22.2 74.8,22.3 74.6,22.5 74.5,22.6 74.4,22.9 74.2,23.1 74.2,23.4 74.2,23.6 74.4,23.9 
	74.5,24.1 74.6,24.2 74.8,24.4 75,24.5 75.2,24.6 75.5,24.6 75.8,24.6 76,24.5 76.2,24.4 76.4,24.2 76.6,24.1 76.7,23.9 76.8,23.6 
	76.8,23.4 "/>
<path d="M77.1,23.4c0-0.4-0.1-0.9-0.5-1.1c-0.1-0.1-0.1-0.1,0,0c0-0.1-0.1-0.1-0.1-0.2c-0.1-0.1-0.2-0.2-0.3-0.2
	c-0.2-0.1-0.4-0.2-0.6-0.2c-0.9,0-1.7,0.7-1.7,1.6c0,0.8,0.7,1.6,1.5,1.6c0.5,0,0.9-0.1,1.1-0.6c-0.1,0.1-0.1,0.1,0,0
	c0.1,0,0.1-0.1,0.2-0.1c0.1-0.1,0.1-0.2,0.2-0.3C77.1,23.8,77.1,23.7,77.1,23.4c0-0.4-0.6-0.4-0.6,0c0,0.1,0,0.1,0,0.2
	c0-0.2,0,0-0.1,0.1c0,0.1-0.2,0.2,0,0.1c-0.1,0-0.2,0.1-0.3,0.1c0,0-0.1,0.1-0.1,0.2c-0.1,0.1-0.1,0.1,0,0c0,0-0.1,0.1-0.2,0.1
	c-0.1,0-0.1,0.1-0.2,0.1c0.2-0.1-0.1,0-0.2,0c0,0-0.1,0-0.1,0c-0.1,0-0.1,0,0,0c-0.1,0-0.1-0.1-0.2-0.1C75,24.2,75,24.1,74.8,24
	c-0.1-0.1-0.1-0.2-0.2-0.3c0-0.1-0.1-0.3-0.1-0.1c0-0.1,0-0.1,0-0.2c0-0.1,0-0.2,0-0.3c0,0.2,0,0,0.1-0.1c0.1-0.1,0.1-0.2,0.3-0.3
	c0.1-0.1,0.2-0.1,0.3-0.2c0.1,0,0.1-0.1,0.2-0.1c-0.1,0-0.1,0,0,0c0.1,0,0.2,0,0.2,0c0.1,0,0.3,0.1,0.1,0c0.1,0,0.1,0.1,0.2,0.1
	c0,0,0.1,0.1,0.2,0.1c-0.1-0.1-0.1-0.1,0,0c0,0.1,0.1,0.2,0.2,0.2c0.1,0,0.1,0.1,0.2,0.1c-0.1-0.1,0,0,0,0.1c0,0.1,0.1,0.3,0.1,0.1
	c0,0.1,0,0.2,0,0.3C76.5,23.8,77.1,23.8,77.1,23.4z"/>
<rect id="_x3C_Slice_x3E__103_" y="54.2" fill="none" width="49.2" height="50.2"/>
<rect id="_x3C_Slice_x3E__102_" x="49.2" y="54.2" fill="none" width="56.2" height="50.2"/>
<rect id="_x3C_Slice_x3E__101_" fill="none" width="49.2" height="54.2"/>
<rect id="_x3C_Slice_x3E__100_" x="49.2" fill="none" width="56.2" height="54.2"/>
</svg>
