<?xml version="1.0" encoding="utf-8"?>
<!-- Generator: Adobe Illustrator 15.0.2, SVG Export Plug-In  -->
<!DOCTYPE svg PUBLIC "-//W3C//DTD SVG 1.1//EN" "http://www.w3.org/Graphics/SVG/1.1/DTD/svg11.dtd" [
	<!ENTITY ns_flows "http://ns.adobe.com/Flows/1.0/">
]>
<svg version="1.1"
	 xmlns="http://www.w3.org/2000/svg" xmlns:xlink="http://www.w3.org/1999/xlink" xmlns:a="http://ns.adobe.com/AdobeSVGViewerExtensions/3.0/"
	 x="0px" y="0px" width="49px" height="54px" viewBox="56.2 0.8 49 54" overflow="visible" enable-background="new 56.2 0.8 49 54"
	 xml:space="preserve">
<defs>
</defs>
<path d="M84.9,28.1c-3.8,1.6-7.6,1.6-11.4,0c-0.4-0.2-0.7,0.4-0.3,0.5c4,1.7,8,1.7,12,0C85.6,28.4,85.3,27.9,84.9,28.1L84.9,28.1z"
	/>
<polygon fill-rule="evenodd" clip-rule="evenodd" points="80.5,25.7 80.5,25.4 80.4,25.2 80.3,25 80,24.8 79.9,24.7 79.7,24.5 
	79.5,24.4 79.3,24.4 78.9,24.4 78.7,24.5 78.5,24.7 78.4,24.8 78.2,25 78,25.2 77.9,25.4 77.9,25.7 77.9,25.9 78,26.2 78.2,26.4 
	78.4,26.5 78.5,26.8 78.7,26.9 78.9,26.9 79.3,27 79.5,26.9 79.7,26.9 79.9,26.8 80,26.5 80.3,26.4 80.4,26.2 80.5,25.9 80.5,25.7 
	"/>
<path d="M80.8,25.7c0-0.9-0.8-1.5-1.7-1.5c-0.5,0-0.8,0.2-1.1,0.6c-0.3,0.3-0.4,0.7-0.4,1.2c0,0.2,0.1,0.4,0.2,0.6
	c0.1,0.1,0.1,0.2,0.2,0.2c0.1,0,0.1,0.1,0.2,0.1c-0.1-0.1,0,0,0,0.1c0.1,0.2,0.4,0.3,0.5,0.3c0.2,0,0.4,0.2,0.6,0.1
	c0.1,0,0.4-0.1,0.2-0.1c0.1,0,0.2,0,0.3,0c0.1,0,0.2-0.1,0.3-0.2c0,0,0.1-0.1,0.1-0.1c0-0.1,0.2-0.2,0-0.1
	C80.7,26.6,80.8,26.1,80.8,25.7c0-0.4-0.6-0.4-0.6,0c0,0.2,0,0.2-0.1,0.4c0,0.1,0,0.1-0.1,0.2c0.1-0.1,0,0-0.1,0
	c-0.1,0-0.1,0.1-0.1,0.1c0,0.1-0.1,0.1-0.1,0.2c0.1-0.1,0.1-0.1,0,0c-0.1,0.1,0.1,0-0.1,0c-0.1,0-0.2,0-0.2,0.1
	c-0.2,0.1-0.1,0,0,0.1c-0.1,0-0.2-0.1-0.3-0.1c-0.1,0-0.1,0-0.2,0c-0.1,0-0.1,0,0,0c-0.1,0-0.1-0.1-0.2-0.1c0.1,0.1,0,0,0-0.1
	c0-0.1-0.1-0.1-0.2-0.2c-0.1-0.1-0.1-0.1,0,0c0-0.1-0.1-0.1-0.1-0.2c0,0-0.1-0.2-0.1-0.2c0-0.1,0-0.2,0-0.3c0-0.1,0-0.1,0,0
	c0-0.1,0.1-0.1,0.1-0.2c0-0.1,0.1-0.1,0.1-0.2c0,0,0.2-0.2,0.3-0.3c0.1,0,0.1-0.1,0.2-0.1c0.1,0,0.1-0.1,0.2-0.1c-0.1,0-0.1,0,0,0
	c0.1,0,0.1,0,0.2,0c0.1,0,0.3,0.1,0.1,0c0.1,0.1,0.3,0.1,0.4,0.2c0.1,0.1,0.2,0.2,0.3,0.4c0,0.1,0.1,0.1,0.1,0.2c-0.1-0.2,0,0,0,0.1
	C80.2,26.1,80.8,26.1,80.8,25.7z"/>
<rect id="_x3C_Slice_x3E__103_" y="54.2" fill="none" width="56.2" height="54.2"/>
<rect id="_x3C_Slice_x3E__102_" x="56.2" y="54.2" fill="none" width="49.2" height="54.2"/>
<rect id="_x3C_Slice_x3E__101_" fill="none" width="56.2" height="54.2"/>
<rect id="_x3C_Slice_x3E__100_" x="56.2" fill="none" width="49.2" height="54.2"/>
</svg>
