<?xml version="1.0" encoding="utf-8"?>
<!-- Generator: Adobe Illustrator 15.0.2, SVG Export Plug-In  -->
<!DOCTYPE svg PUBLIC "-//W3C//DTD SVG 1.1//EN" "http://www.w3.org/Graphics/SVG/1.1/DTD/svg11.dtd" [
	<!ENTITY ns_flows "http://ns.adobe.com/Flows/1.0/">
]>
<svg version="1.1"
	 xmlns="http://www.w3.org/2000/svg" xmlns:xlink="http://www.w3.org/1999/xlink" xmlns:a="http://ns.adobe.com/AdobeSVGViewerExtensions/3.0/"
	 x="0px" y="0px" width="54px" height="50px" viewBox="31 0.1 54 50" overflow="visible" enable-background="new 31 0.1 54 50"
	 xml:space="preserve">
<defs>
</defs>
<path d="M59,33.3c-1.1,0-2.1,0-3.2,0c-0.4,0-0.4,0.6,0,0.6c1.1,0,2.1,0,3.2,0C59.4,34,59.4,33.3,59,33.3L59,33.3z"/>
<path d="M66.3,33.3c-1.1,0-2.1,0-3.2,0c-0.4,0-0.4,0.6,0,0.6c1.1,0,2.1,0,3.2,0C66.7,34,66.7,33.3,66.3,33.3L66.3,33.3z"/>
<path d="M66.3,30.1c-3.5,0-7,0-10.6,0c-0.4,0-0.4,0.6,0,0.6c3.5,0,7,0,10.6,0C66.7,30.7,66.7,30.1,66.3,30.1L66.3,30.1z"/>
<path d="M59,26.8c-1.1,0-2.1,0-3.2,0c-0.4,0-0.4,0.6,0,0.6c1.1,0,2.1,0,3.2,0C59.4,27.4,59.4,26.8,59,26.8L59,26.8z"/>
<path d="M66.3,26.8c-1.1,0-2.1,0-3.2,0c-0.4,0-0.4,0.6,0,0.6c1.1,0,2.1,0,3.2,0C66.7,27.4,66.7,26.8,66.3,26.8L66.3,26.8z"/>
<rect id="_x3C_Slice_x3E__103_" y="49.2" fill="none" width="31.3" height="63.3"/>
<rect id="_x3C_Slice_x3E__102_" x="31.3" y="49.2" fill="none" width="54.2" height="63.3"/>
<rect id="_x3C_Slice_x3E__101_" fill="none" width="31.3" height="49.2"/>
<rect id="_x3C_Slice_x3E__100_" x="31.3" fill="none" width="54.2" height="49.2"/>
</svg>
