<?xml version="1.0" encoding="utf-8"?>
<!-- Generator: Adobe Illustrator 15.0.2, SVG Export Plug-In  -->
<!DOCTYPE svg PUBLIC "-//W3C//DTD SVG 1.1//EN" "http://www.w3.org/Graphics/SVG/1.1/DTD/svg11.dtd" [
	<!ENTITY ns_flows "http://ns.adobe.com/Flows/1.0/">
]>
<svg version="1.1"
	 xmlns="http://www.w3.org/2000/svg" xmlns:xlink="http://www.w3.org/1999/xlink" xmlns:a="http://ns.adobe.com/AdobeSVGViewerExtensions/3.0/"
	 x="0px" y="0px" width="58px" height="34px" viewBox="53.7 0.9 58 34" overflow="visible" enable-background="new 53.7 0.9 58 34"
	 xml:space="preserve">
<defs>
</defs>
<path d="M78.1,22.4c0,3.2,0,6.4,0,9.7c0,0.4,0.6,0.4,0.6,0c0-3.2,0-6.4,0-9.7C78.7,21.9,78.1,21.9,78.1,22.4L78.1,22.4z"/>
<path d="M85,30.5c-0.6-0.6-1.1-1.3-1.7-1.9c-0.4-0.4-0.8-0.9-1.1-1.3c-0.1-0.1-0.3-0.3-0.4-0.4c-0.3-0.3-0.2,0.3-0.1,0.2
	c1.3-1.5,2.6-2.9,3.8-4.4c0.2-0.2,0.1-0.5-0.2-0.5c-2.7,0-5.5,0-8.2,0c-0.4,0-0.4,0.6,0,0.6c2.7,0,5.5,0,8.2,0
	c-0.1-0.2-0.1-0.4-0.2-0.5c-1.3,1.5-2.6,3-3.9,4.4c-0.1,0.1-0.1,0.3,0,0.4c1.1,1.3,2.2,2.6,3.3,3.9C84.8,31.2,85.2,30.8,85,30.5
	L85,30.5z"/>
<polygon fill-rule="evenodd" clip-rule="evenodd" points="85.8,32 85.5,30.9 85.4,30.2 85.3,29.9 85.3,29.8 85.2,29.8 85.2,29.8 
	85.1,29.8 85.1,29.9 85.1,30 85,30.2 85,30.5 84.9,30.6 84.8,30.7 84.5,30.8 84.4,30.9 84.2,30.9 84,30.9 83.9,30.9 83.8,30.9 
	83.8,31 83.8,31.1 83.9,31.1 84.2,31.2 84.8,31.5 85.8,32 "/>
<path d="M86.1,31.9c-0.1-0.4-0.1-0.7-0.2-1.1c0-0.2-0.1-0.4-0.1-0.6c0-0.2-0.1-0.3-0.1-0.5c0-0.2-0.1-0.3-0.3-0.3
	c-0.1,0-0.1,0-0.2,0c-0.2,0-0.3,0.1-0.3,0.3c0,0.1,0,0.1,0,0.2c0-0.2,0,0-0.1,0.1c-0.1,0.1-0.1,0.3-0.1,0.4c0-0.1,0.1-0.1,0.1-0.2
	c-0.2,0.2-0.4,0.2-0.6,0.4c0.1,0,0.1-0.1,0.2-0.1c-0.2,0-0.4,0-0.7,0c-0.2,0-0.3,0.1-0.3,0.3c0,0.1,0,0.1,0,0.2
	c0,0.2,0.1,0.3,0.3,0.3c0.1,0,0.3,0.1,0.4,0.1c0.1,0,0.2,0.1,0.3,0.1c0,0,0.3,0.1,0.2,0.1c0.3,0.2,0.7,0.4,1,0.6
	c0.4,0.2,0.7-0.3,0.3-0.5c-0.6-0.3-1.4-0.9-2.2-0.9c0.1,0.1,0.2,0.2,0.3,0.3c0-0.1,0-0.1,0-0.2c-0.1,0.1-0.2,0.2-0.3,0.3
	c0.5,0,0.9,0,1.2-0.3c0.2-0.2,0.3-0.3,0.3-0.6c0-0.2-0.1,0.1,0,0c0,0,0-0.1,0.1-0.1c0.1-0.1,0-0.3,0-0.4c-0.1,0.1-0.2,0.2-0.3,0.3
	c0.1,0,0.1,0,0.2,0c-0.1-0.1-0.2-0.2-0.3-0.3c0,0.2,0.1,0.3,0.1,0.5c0,0.2,0.1,0.4,0.1,0.6c0.1,0.4,0.1,0.8,0.2,1.1
	C85.5,32.5,86.1,32.3,86.1,31.9z"/>
<path d="M84.4,21.7c0.7,0,1.4,0,2.1,0c0.6,0,0.1-0.2,0.1-0.2c0,0.2,0,0.5,0,0.7c0,1.7,0,3.4,0,5.1c0,1.7,0,3.4,0,5.1
	c0,0.8-0.1,0.5,0.2,0.5c-0.8,0-1.6,0-2.3,0c-0.4,0-0.4,0.6,0,0.6c0.8,0,1.6,0,2.4,0c0.2,0,0.3-0.1,0.3-0.3c0-3.9,0-7.8,0-11.7
	c0-0.2-0.1-0.3-0.3-0.3c-0.8,0-1.6,0-2.4,0C84,21,84,21.7,84.4,21.7L84.4,21.7z"/>
<polygon fill-rule="evenodd" clip-rule="evenodd" points="90.3,25.1 90.3,24.9 90.2,24.7 90.1,24.5 90,24.2 89.8,24.1 89.5,24 
	89.3,23.9 89.1,23.9 88.9,23.9 88.6,24 88.4,24.1 88.2,24.2 88.1,24.5 88,24.7 87.9,24.9 87.9,25.1 87.9,25.4 88,25.6 88.1,25.8 
	88.2,26 88.4,26.1 88.6,26.2 88.9,26.4 89.1,26.4 89.3,26.4 89.5,26.2 89.8,26.1 90,26 90.1,25.8 90.2,25.6 90.3,25.4 90.3,25.1 "/>
<path d="M90.6,25.1c0-0.8-0.7-1.5-1.5-1.5c-0.8,0-1.5,0.7-1.5,1.5s0.7,1.5,1.5,1.5S90.6,26,90.6,25.1c0-0.4-0.6-0.4-0.6,0
	c0,0.1,0,0.1,0,0.2c0-0.2,0,0-0.1,0.1c-0.1,0.1-0.1,0.3-0.2,0.4c0.1-0.1,0,0-0.1,0c-0.1,0-0.1,0.1-0.2,0.1c-0.1,0-0.1,0.1-0.2,0.1
	c0.2-0.1,0,0-0.1,0c-0.1,0-0.1,0-0.2,0c0.2,0,0,0-0.1-0.1c-0.1-0.1-0.3-0.1-0.4-0.2c0.1,0.1,0,0,0-0.1c0-0.1-0.1-0.1-0.1-0.2
	c0-0.1-0.1-0.1-0.1-0.2c0.1,0.2,0,0,0-0.1c0-0.1,0-0.1,0-0.2c0,0.2,0,0,0.1-0.1c0.1-0.1,0.1-0.3,0.2-0.4c-0.1,0.1,0,0,0.1,0
	c0.1,0,0.1-0.1,0.2-0.1s0.1-0.1,0.2-0.1c-0.2,0.1,0,0,0.1,0c0.1,0,0.1,0,0.2,0c-0.2,0,0,0,0.1,0.1c0.1,0.1,0.3,0.1,0.4,0.2
	c-0.1-0.1,0,0,0,0.1c0,0.1,0.1,0.1,0.1,0.2c0,0.1,0.1,0.1,0.1,0.2c-0.1-0.2,0,0,0,0.1C90,25.5,90.6,25.5,90.6,25.1z"/>
<polygon fill-rule="evenodd" clip-rule="evenodd" points="90.3,29.2 90.3,29 90.2,28.8 90.1,28.6 90,28.4 89.8,28.2 89.5,28.1 
	89.3,28 89.1,28 88.9,28 88.6,28.1 88.4,28.2 88.2,28.4 88.1,28.6 88,28.8 87.9,29 87.9,29.2 87.9,29.5 88,29.7 88.1,29.9 
	88.2,30.1 88.4,30.2 88.6,30.4 88.9,30.5 89.1,30.5 89.3,30.5 89.5,30.4 89.8,30.2 90,30.1 90.1,29.9 90.2,29.7 90.3,29.5 
	90.3,29.2 "/>
<path d="M90.6,29.2c0-0.8-0.7-1.5-1.5-1.5s-1.5,0.7-1.5,1.5s0.7,1.5,1.5,1.5S90.6,30.1,90.6,29.2c0-0.4-0.6-0.4-0.6,0
	c0,0.1,0,0.1,0,0.2c0-0.2,0,0-0.1,0.1c-0.1,0.1-0.1,0.3-0.2,0.4c0.1-0.1,0,0-0.1,0c-0.1,0-0.1,0.1-0.2,0.1s-0.1,0.1-0.2,0.1
	c0.2-0.1,0,0-0.1,0c-0.1,0-0.1,0-0.2,0c0.2,0,0,0-0.1-0.1c-0.1-0.1-0.3-0.1-0.4-0.2c0.1,0.1,0,0,0-0.1c0-0.1-0.1-0.1-0.1-0.2
	s-0.1-0.1-0.1-0.2c0.1,0.2,0,0,0-0.1c0-0.1,0-0.1,0-0.2c0,0.2,0,0,0.1-0.1c0.1-0.1,0.1-0.3,0.2-0.4c-0.1,0.1,0,0,0.1,0
	c0.1,0,0.1-0.1,0.2-0.1s0.1-0.1,0.2-0.1c-0.2,0.1,0,0,0.1,0c0.1,0,0.1,0,0.2,0c-0.2,0,0,0,0.1,0.1c0.1,0.1,0.3,0.1,0.4,0.2
	c-0.1-0.1,0,0,0,0.1c0,0.1,0.1,0.1,0.1,0.2c0,0.1,0.1,0.1,0.1,0.2c-0.1-0.2,0,0,0,0.1C90,29.6,90.6,29.6,90.6,29.2z"/>
<rect id="_x3C_Slice_x3E__101_" fill="none" width="54.2" height="34.9"/>
<rect id="_x3C_Slice_x3E__100_" x="54.2" fill="none" width="58.3" height="34.9"/>
</svg>
