<?xml version="1.0" encoding="utf-8"?>
<!-- Generator: Adobe Illustrator 15.0.2, SVG Export Plug-In  -->
<!DOCTYPE svg PUBLIC "-//W3C//DTD SVG 1.1//EN" "http://www.w3.org/Graphics/SVG/1.1/DTD/svg11.dtd" [
	<!ENTITY ns_flows "http://ns.adobe.com/Flows/1.0/">
]>
<svg version="1.1"
	 xmlns="http://www.w3.org/2000/svg" xmlns:xlink="http://www.w3.org/1999/xlink" xmlns:a="http://ns.adobe.com/AdobeSVGViewerExtensions/3.0/"
	 x="0px" y="0px" width="58px" height="63px" viewBox="53.7 0.9 58 63" overflow="visible" enable-background="new 53.7 0.9 58 63"
	 xml:space="preserve">
<defs>
</defs>
<polygon fill-rule="evenodd" clip-rule="evenodd" points="83.2,34.1 83.4,33.9 83.6,33.8 83.9,33.5 84,33.3 84,33.1 84,33 83.9,33 
	83.6,33 83.3,32.9 83.2,32.9 83.1,32.8 83.1,32.6 83,32.6 83,32.4 83,32.3 83,32.2 83.2,32 83.4,31.9 83.6,31.9 83.8,31.9 84,31.9 
	84.1,32 84.2,32.1 84.3,32.3 84.3,32.4 84.4,32.6 84.4,32.8 84.4,33 84.4,33.2 84.3,33.3 84.2,33.5 84.1,33.8 83.9,33.9 83.6,34.1 
	83.3,34.3 83.2,34.1 "/>
<path d="M83.4,34.3c0.2-0.2,0.4-0.3,0.6-0.5c0.2-0.2,0.2-0.5,0.2-0.8c0-0.2-0.1-0.3-0.3-0.3c-0.2,0-0.3,0-0.4,0
	c-0.1,0-0.2-0.1-0.2-0.1c-0.1,0-0.1,0,0.1,0.1c-0.2-0.2,0,0.2,0,0c0-0.2-0.1-0.3-0.3-0.3c0,0-0.1,0-0.1,0c0.1,0.1,0.2,0.2,0.3,0.3
	c0-0.1,0-0.1,0-0.2c0,0,0-0.1,0-0.1c0-0.2-0.2,0.2,0,0c0.1-0.1,0.1-0.1,0.2-0.2c0.1,0,0.1-0.1,0,0c0.1,0,0.1,0,0.2,0
	c0.1,0,0.1,0,0.2,0c0.1,0-0.2-0.2,0,0c0.1,0.1,0.1,0.3,0.1,0.1c0,0.1,0,0.2,0.1,0.3c0.1,0.2,0-0.1,0,0.1c0,0.1,0,0.2,0,0.3
	c0,0.2,0.2-0.2,0,0c-0.1,0.1-0.1,0.2-0.2,0.3c0,0.1-0.2,0.2,0,0.1c-0.1,0-0.2,0.1-0.3,0.2c-0.2,0.2-0.2,0.2-0.5,0.4
	c0.1,0,0.3,0.1,0.4,0.1c0-0.1-0.1-0.1-0.1-0.2c-0.2-0.4-0.7,0-0.5,0.3c0,0.1,0.1,0.1,0.1,0.2c0.1,0.1,0.3,0.2,0.4,0.1
	c0.4-0.3,0.8-0.5,1.1-1c0.1-0.2,0.2-0.3,0.2-0.6c0-0.1,0-0.3,0-0.4c0-0.1-0.1-0.1-0.1-0.2c-0.1-0.2,0,0.1,0-0.1
	c0-0.3-0.2-0.5-0.4-0.6c-0.2-0.2-0.5-0.1-0.7-0.1c-0.3,0-0.5,0.1-0.7,0.3c-0.2,0.2-0.2,0.5-0.2,0.7c0,0.2,0.1,0.3,0.3,0.3
	c0,0,0.1,0,0.1,0c-0.1-0.1-0.2-0.2-0.3-0.3c0,0.6,0.7,0.6,1.2,0.6c-0.1-0.1-0.2-0.2-0.3-0.3c0,0.1,0,0.2,0,0.3c0-0.2,0,0-0.1,0.1
	c0,0-0.1,0.1-0.1,0.1c-0.1,0.1-0.4,0.2-0.5,0.4C82.7,34.2,83.1,34.6,83.4,34.3z"/>
<polygon fill-rule="evenodd" clip-rule="evenodd" points="83.2,38.2 83.4,38.1 83.6,37.9 83.9,37.6 84,37.4 84,37.3 84,37.1 
	83.9,37.1 83.6,37.1 83.3,37 83.2,37 83.1,36.9 83.1,36.9 83,36.8 83,36.5 83,36.4 83,36.3 83.2,36.1 83.4,36 83.6,36 83.8,36 
	84,36.1 84.1,36.1 84.2,36.3 84.3,36.4 84.3,36.5 84.4,36.8 84.4,36.9 84.4,37.1 84.4,37.3 84.3,37.4 84.2,37.6 84.1,37.9 
	83.9,38.1 83.6,38.3 83.3,38.4 83.2,38.2 "/>
<path d="M83.4,38.5c0.3-0.1,0.5-0.4,0.7-0.6c0.2-0.2,0.2-0.5,0.2-0.8c0-0.2-0.1-0.3-0.3-0.3c-0.3,0-0.3,0-0.6-0.1
	c-0.3-0.1,0.1,0.2-0.1,0c-0.1-0.1,0-0.1,0,0.1c0-0.1,0-0.1,0-0.2c0,0,0-0.1,0-0.1c0-0.2-0.2,0.2,0,0c0,0,0.1-0.1,0.1-0.1
	c0.1,0,0.2-0.1,0.1-0.1c0.1,0,0.1,0,0.2,0c0.2,0-0.1-0.1,0.1,0c0.1,0.1,0.2,0.1,0.4,0.1c-0.1-0.1-0.2-0.1-0.3-0.2
	c0.1,0.1,0.1,0.2,0.2,0.3c0.2,0.2,0-0.2,0,0c0,0.1,0,0.1,0.1,0.2c0,0.1,0.1,0.2,0.1,0.1c0,0.1,0,0.1,0,0.2c0,0,0,0.1,0,0.1
	c0,0.2-0.1,0.1,0.1,0c-0.2,0.2-0.2,0.5-0.4,0.6c-0.1,0.1-0.2,0.2-0.3,0.3c-0.2,0.2,0.2,0,0,0c-0.1,0-0.2,0.1-0.2,0.1
	c0.1,0,0.2,0.1,0.4,0.1c0-0.1-0.1-0.1-0.1-0.2c-0.2-0.4-0.7,0-0.5,0.3c0,0.1,0.1,0.1,0.1,0.2c0.1,0.1,0.2,0.2,0.4,0.1
	c0.3-0.1,0.5-0.2,0.7-0.4c0.2-0.2,0.3-0.5,0.5-0.8c0.1-0.1,0.1-0.7,0.1-0.9c0-0.1-0.1-0.1-0.1-0.2c-0.1-0.2,0,0.1,0-0.1
	c0-0.1-0.2-0.3-0.3-0.4c0-0.1-0.2-0.2-0.3-0.2c-0.2,0,0.1,0.1-0.1,0c-0.1,0-0.2-0.1-0.3-0.1c-0.2,0-0.3,0-0.5,0
	c-0.3,0.2-0.6,0.4-0.6,0.8c0,0.3,0.1,0.6,0.4,0.8c0.2,0.1,0.6,0.2,0.9,0.2c-0.1-0.1-0.2-0.2-0.3-0.3c0,0.1,0,0.2,0,0.3
	c0-0.1,0-0.1,0,0c-0.1,0.1,0,0-0.1,0.1c-0.2,0.2-0.3,0.3-0.5,0.4C82.7,38.1,83,38.7,83.4,38.5z"/>
<rect id="_x3C_Slice_x3E__103_" y="63.3" fill="none" width="54.2" height="50.2"/>
<rect id="_x3C_Slice_x3E__102_" x="54.2" y="63.3" fill="none" width="58.3" height="50.2"/>
<rect id="_x3C_Slice_x3E__101_" fill="none" width="54.2" height="63.3"/>
<rect id="_x3C_Slice_x3E__100_" x="54.2" fill="none" width="58.3" height="63.3"/>
</svg>
