<?xml version="1.0" encoding="utf-8"?>
<!-- Generator: Adobe Illustrator 15.0.2, SVG Export Plug-In  -->
<!DOCTYPE svg PUBLIC "-//W3C//DTD SVG 1.1//EN" "http://www.w3.org/Graphics/SVG/1.1/DTD/svg11.dtd" [
	<!ENTITY ns_flows "http://ns.adobe.com/Flows/1.0/">
]>
<svg version="1.1"
	 xmlns="http://www.w3.org/2000/svg" xmlns:xlink="http://www.w3.org/1999/xlink" xmlns:a="http://ns.adobe.com/AdobeSVGViewerExtensions/3.0/"
	 x="0px" y="0px" width="31px" height="63px" viewBox="0 0.9 31 63" overflow="visible" enable-background="new 0 0.9 31 63"
	 xml:space="preserve">
<defs>
</defs>
<polygon fill-rule="evenodd" clip-rule="evenodd" points="6.5,36.2 6.8,36 7,35.8 7.2,35.5 7.3,35.3 7.3,35.2 7.3,35.1 7.2,35 7,35 
	6.7,35 6.5,34.9 6.4,34.9 6.4,34.8 6.3,34.6 6.3,34.4 6.3,34.3 6.3,34.2 6.5,34.1 6.8,34 7,33.9 7.1,33.9 7.3,34 7.4,34.1 7.5,34.2 
	7.7,34.3 7.7,34.5 7.8,34.6 7.8,34.9 7.8,35 7.8,35.2 7.7,35.4 7.5,35.6 7.4,35.8 7.2,36 7,36.2 6.7,36.4 6.5,36.2 "/>
<path d="M6.8,36.4c0.4-0.4,0.9-0.7,0.9-1.3c0-0.4-0.3-0.5-0.6-0.5c-0.1,0-0.1,0-0.2,0c-0.2,0-0.2-0.1,0,0.1
	c-0.1-0.1-0.2-0.2-0.4-0.2c0.1,0.1,0.2,0.2,0.3,0.3c0-0.2,0-0.3-0.2-0.4c0.1,0.1,0.1,0.2,0.1,0c0-0.1,0-0.1,0-0.2
	c-0.1,0.1-0.1,0.2-0.2,0.3c0.1-0.1,0.3-0.1,0.4-0.2c0.1,0,0.3-0.1,0.1-0.1c-0.2,0,0,0,0.1,0c0.1,0.1,0.1,0.1,0.2,0.2
	c0.1,0.1,0,0.2,0,0c0,0.1,0,0.2,0,0.3c0,0.1,0,0.1,0.1,0.1c0.1,0.1,0,0.1,0-0.1c0,0.2,0,0.3,0,0.5c0-0.2,0,0-0.1,0.1
	c0,0.1-0.1,0.2-0.1,0.2C7,35.7,6.8,36,6.5,36.2c0.1,0,0.3,0.1,0.4,0.1c0-0.1-0.1-0.1-0.1-0.2c-0.2-0.4-0.7,0-0.5,0.3
	c0,0.1,0.1,0.1,0.1,0.2c0.1,0.1,0.3,0.2,0.4,0.1c0.7-0.5,1.5-1.2,1.3-2.1c0-0.1,0-0.1-0.1-0.1c-0.1-0.1,0-0.1,0,0.1
	c0-0.1,0-0.2,0-0.3c-0.1-0.1-0.3-0.4-0.4-0.4c-0.5-0.3-0.8,0-1.3,0.2C6.1,34,6,34.1,6,34.2c0,0.1,0,0.3,0,0.4c0,0.1,0,0.2,0.1,0.3
	c0.2,0.2,0-0.1,0,0c0,0.2,0.1,0.3,0.3,0.3c0.1,0-0.2-0.2,0,0c0.1,0.1,0.2,0.1,0.3,0.1c0.1,0,0.2,0,0.3,0c0.1,0,0.1,0-0.1-0.1
	c0.2,0.2,0-0.2,0,0c0,0.1,0,0.1,0,0C7,35.2,7,35.3,7,35.3c0,0-0.1,0.1-0.2,0.2c-0.1,0.1-0.3,0.3-0.4,0.4C6,36.3,6.5,36.7,6.8,36.4z"
	/>
<rect id="_x3C_Slice_x3E__101_" y="63.3" fill="none" width="31.3" height="50.2"/>
<rect id="_x3C_Slice_x3E__100_" fill="none" width="31.3" height="63.3"/>
</svg>
