<?xml version="1.0" encoding="utf-8"?>
<!-- Generator: Adobe Illustrator 15.0.2, SVG Export Plug-In  -->
<!DOCTYPE svg PUBLIC "-//W3C//DTD SVG 1.1//EN" "http://www.w3.org/Graphics/SVG/1.1/DTD/svg11.dtd" [
	<!ENTITY ns_flows "http://ns.adobe.com/Flows/1.0/">
]>
<svg version="1.1"
	 xmlns="http://www.w3.org/2000/svg" xmlns:xlink="http://www.w3.org/1999/xlink" xmlns:a="http://ns.adobe.com/AdobeSVGViewerExtensions/3.0/"
	 x="0px" y="0px" width="31px" height="50px" viewBox="0 0.6 31 50" overflow="visible" enable-background="new 0 0.6 31 50"
	 xml:space="preserve">
<defs>
</defs>
<polygon fill-rule="evenodd" clip-rule="evenodd" points="8.3,25.9 8.3,25.6 8.2,25.4 8.1,25.2 7.9,25 7.8,24.8 7.5,24.7 7.3,24.6 
	7,24.6 6.8,24.6 6.5,24.7 6.3,24.8 6.2,25 6,25.2 5.9,25.4 5.8,25.6 5.8,25.9 5.8,26.2 5.9,26.4 6,26.6 6.2,26.7 6.3,26.9 6.5,27 
	6.8,27.2 7,27.2 7.3,27.2 7.5,27 7.8,26.9 7.9,26.7 8.1,26.6 8.2,26.4 8.3,26.2 8.3,25.9 "/>
<path d="M8.6,25.9c0-0.5-0.1-0.9-0.6-1.1c0.1,0.1,0.1,0.1,0,0c0-0.1-0.1-0.1-0.1-0.2c-0.1-0.1-0.2-0.1-0.3-0.2
	c-0.2-0.1-0.4-0.2-0.7-0.2c-0.4,0-0.9,0.2-1.1,0.6c0.1-0.1,0.1-0.1,0,0c-0.1,0-0.1,0.1-0.2,0.1c-0.1,0.1-0.1,0.2-0.2,0.3
	c-0.1,0.2-0.2,0.4-0.2,0.7c0,0.4,0.2,0.9,0.6,1.1c-0.1-0.1-0.1-0.1,0,0C6,27,6,27.1,6.1,27.2c0.1,0.1,0.2,0.1,0.3,0.2
	c0.2,0.1,0.4,0.2,0.6,0.2c0.5,0,0.9-0.1,1.1-0.6C8,27,8,27,8.1,26.9c0.1,0,0.1-0.1,0.2-0.1c0.1-0.1,0.1-0.2,0.2-0.3
	C8.6,26.3,8.6,26.2,8.6,25.9c0-0.4-0.6-0.4-0.6,0c0,0.1,0,0.1,0,0.2c0-0.2,0,0-0.1,0.1c0,0.1-0.2,0.2,0,0.1c-0.1,0-0.2,0.1-0.3,0.1
	c-0.1,0.1-0.1,0.2-0.1,0.2c0.1-0.1,0,0-0.1,0c-0.1,0-0.3,0.1-0.1,0.1c-0.1,0-0.2,0-0.3,0c-0.1,0-0.1,0-0.2,0c0.2,0,0,0-0.1-0.1
	c-0.1,0-0.2-0.2-0.1,0c0-0.1-0.1-0.2-0.1-0.2c-0.1-0.1-0.2-0.1-0.3-0.1c0.1,0.1,0,0,0-0.1c0-0.1-0.1-0.3-0.1-0.1c0-0.1,0-0.1,0-0.2
	c0-0.1,0-0.2,0-0.3c0,0.2,0,0,0.1-0.1c0-0.1,0.2-0.2,0-0.1c0.1,0,0.2-0.1,0.3-0.1c0.1-0.1,0.1-0.2,0.1-0.3c-0.1,0.1,0,0,0.1,0
	c0.1,0,0.3-0.1,0.1-0.1c0.1,0,0.1,0,0.2,0c0.1,0,0.2,0,0.3,0c-0.2,0,0,0,0.1,0.1c0.1,0,0.2,0.2,0.1,0c0,0.1,0.1,0.2,0.1,0.3
	c0.1,0.1,0.2,0.1,0.3,0.1c-0.1-0.1,0,0,0,0.1C8,25.6,8,25.8,8,25.6c0,0.1,0,0.2,0,0.3C8,26.3,8.6,26.3,8.6,25.9z"/>
<rect id="_x3C_Slice_x3E__101_" y="50.2" fill="none" width="31.3" height="51.2"/>
<rect id="_x3C_Slice_x3E__100_" fill="none" width="31.3" height="50.2"/>
</svg>
