<?xml version="1.0" encoding="utf-8"?>
<!-- Generator: Adobe Illustrator 15.0.2, SVG Export Plug-In  -->
<!DOCTYPE svg PUBLIC "-//W3C//DTD SVG 1.1//EN" "http://www.w3.org/Graphics/SVG/1.1/DTD/svg11.dtd" [
	<!ENTITY ns_flows "http://ns.adobe.com/Flows/1.0/">
]>
<svg version="1.1"
	 xmlns="http://www.w3.org/2000/svg" xmlns:xlink="http://www.w3.org/1999/xlink" xmlns:a="http://ns.adobe.com/AdobeSVGViewerExtensions/3.0/"
	 x="0px" y="0px" width="56px" height="60px" viewBox="48.9 0.2 56 60" overflow="visible" enable-background="new 48.9 0.2 56 60"
	 xml:space="preserve">
<defs>
</defs>
<path d="M77.3,37.4c-0.7-2.1-1.5-4.1-2.2-6.2c-0.1,0.1-0.2,0.3-0.3,0.4c1.4,0,2.9,0,4.3,0c-0.1-0.1-0.2-0.3-0.3-0.4
	c-0.7,2.1-1.4,4.1-2.1,6.2c-0.1,0.4,0.5,0.5,0.6,0.2c0.7-2.1,1.4-4.1,2.1-6.2c0.1-0.2-0.1-0.4-0.3-0.4c-1.4,0-2.9,0-4.3,0
	c-0.2,0-0.4,0.2-0.3,0.4c0.7,2.1,1.5,4.1,2.2,6.2C76.9,38,77.5,37.8,77.3,37.4L77.3,37.4z"/>
<polygon fill-rule="evenodd" clip-rule="evenodd" points="77.5,28.7 77.5,28.5 77.4,28.4 77.1,28.3 77,28.2 76.8,28.3 76.6,28.4 
	76.5,28.5 76.5,28.7 76.5,28.9 76.6,29.1 76.8,29.2 77,29.3 77.1,29.2 77.4,29.1 77.5,28.9 77.5,28.7 "/>
<path d="M77.8,28.7c0-0.2,0-0.4-0.2-0.5c-0.1-0.1-0.1-0.1-0.2-0.1c0,0-0.1-0.1,0,0c0,0-0.1-0.1-0.1-0.1c-0.1-0.1-0.3-0.1-0.4,0
	c-0.1,0.1-0.3,0.1-0.4,0.2c-0.2,0.1-0.3,0.4-0.3,0.6s0,0.5,0.3,0.6c0.1,0.1,0.3,0.1,0.4,0.2c0.1,0.1,0.3,0.1,0.4,0c0,0,0,0,0.1-0.1
	c0.1-0.1-0.1,0,0,0c0.1,0,0.2-0.1,0.2-0.1C77.8,29.1,77.8,29,77.8,28.7c0-0.4-0.6-0.4-0.6,0c0,0.1,0,0.1,0,0.2
	c0-0.1,0.1-0.1,0.1-0.2c0,0-0.1,0.1-0.1,0.1c0.1-0.1-0.1,0-0.1,0c-0.1,0-0.2,0.1-0.2,0.2c0.1,0,0.3,0,0.4,0c-0.1,0-0.2-0.1-0.3-0.1
	c-0.1,0-0.1-0.1-0.2-0.1c0.1,0.1,0,0-0.1-0.1c0,0.1,0.1,0.1,0.1,0.2c0-0.1,0-0.3,0-0.4c0,0.1-0.1,0.1-0.1,0.2c0,0,0.2-0.1,0.1-0.1
	c0.1,0,0.1-0.1,0.2-0.1c0.1,0,0.2-0.1,0.3-0.1c-0.1,0-0.3,0-0.4,0c0.1,0.1,0.1,0.1,0.2,0.2c0,0,0.1,0,0.1,0.1c-0.1-0.1,0,0,0.1,0.1
	c0-0.1-0.1-0.1-0.1-0.2c0,0.1,0,0.1,0,0.2C77.2,29.1,77.8,29.1,77.8,28.7z"/>
<path d="M78.5,28.4c-1,0-2,0-3,0c-0.4,0-0.4,0.6,0,0.6c1,0,2,0,3,0C78.9,29,78.9,28.4,78.5,28.4L78.5,28.4z"/>
<path d="M77.4,27.2c-0.5,0.9-1,1.8-1.4,2.7c-0.2,0.4,0.3,0.7,0.5,0.3c0.5-0.9,1-1.8,1.4-2.7C78.2,27.2,77.6,26.9,77.4,27.2
	L77.4,27.2z"/>
<path d="M78,29.9c-0.5-0.9-1-1.8-1.4-2.7c-0.2-0.4-0.7,0-0.5,0.3c0.5,0.9,1,1.8,1.4,2.7C77.6,30.6,78.2,30.2,78,29.9L78,29.9z"/>
<rect id="_x3C_Slice_x3E__103_" y="59.3" fill="none" width="49.2" height="34.9"/>
<rect id="_x3C_Slice_x3E__102_" x="49.2" y="59.3" fill="none" width="56.2" height="34.9"/>
<rect id="_x3C_Slice_x3E__101_" fill="none" width="49.2" height="59.3"/>
<rect id="_x3C_Slice_x3E__100_" x="49.2" fill="none" width="56.2" height="59.3"/>
</svg>
