<?xml version="1.0" encoding="utf-8"?>
<!-- Generator: Adobe Illustrator 15.0.2, SVG Export Plug-In  -->
<!DOCTYPE svg PUBLIC "-//W3C//DTD SVG 1.1//EN" "http://www.w3.org/Graphics/SVG/1.1/DTD/svg11.dtd" [
	<!ENTITY ns_flows "http://ns.adobe.com/Flows/1.0/">
]>
<svg version="1.1"
	 xmlns="http://www.w3.org/2000/svg" xmlns:xlink="http://www.w3.org/1999/xlink" xmlns:a="http://ns.adobe.com/AdobeSVGViewerExtensions/3.0/"
	 x="0px" y="0px" width="48px" height="51px" viewBox="0 0.4 48 51" overflow="visible" enable-background="new 0 0.4 48 51"
	 xml:space="preserve">
<defs>
</defs>
<path d="M27.1,29.3c-3.4,0-6.7,0-10.1,0c-0.4,0-0.4,0.6,0,0.6c3.4,0,6.7,0,10.1,0C27.5,29.9,27.5,29.3,27.1,29.3L27.1,29.3z"/>
<path d="M23,30.9c-0.5-0.9-1-1.9-1.4-2.8c-0.2-0.4-0.7,0-0.5,0.3c0.5,0.9,1,1.9,1.4,2.8C22.7,31.6,23.2,31.2,23,30.9L23,30.9z"/>
<path d="M22.5,28.1C22,29,21.5,30,21,30.9c-0.2,0.4,0.4,0.7,0.5,0.3c0.5-0.9,1-1.9,1.4-2.8C23.2,28.1,22.7,27.8,22.5,28.1L22.5,28.1
	z"/>
<rect id="_x3C_Slice_x3E__101_" y="51.2" fill="none" width="48.2" height="59.3"/>
<rect id="_x3C_Slice_x3E__100_" fill="none" width="48.2" height="51.2"/>
</svg>
