<?xml version="1.0" encoding="utf-8"?>
<!-- Generator: Adobe Illustrator 15.0.2, SVG Export Plug-In  -->
<!DOCTYPE svg PUBLIC "-//W3C//DTD SVG 1.1//EN" "http://www.w3.org/Graphics/SVG/1.1/DTD/svg11.dtd" [
	<!ENTITY ns_flows "http://ns.adobe.com/Flows/1.0/">
]>
<svg version="1.1"
	 xmlns="http://www.w3.org/2000/svg" xmlns:xlink="http://www.w3.org/1999/xlink" xmlns:a="http://ns.adobe.com/AdobeSVGViewerExtensions/3.0/"
	 x="0px" y="0px" width="31px" height="51px" viewBox="0 0.4 31 51" overflow="visible" enable-background="new 0 0.4 31 51"
	 xml:space="preserve">
<defs>
</defs>
<polygon fill-rule="evenodd" clip-rule="evenodd" points="7.5,29.6 7.5,29.5 7.4,29.3 7.2,29.2 7,29.2 6.9,29.2 6.7,29.3 6.5,29.5 
	6.5,29.6 6.5,29.8 6.7,30 6.9,30.2 7,30.2 7.2,30.2 7.4,30 7.5,29.8 7.5,29.6 "/>
<path d="M7.9,29.6c0-0.2-0.1-0.5-0.3-0.6c-0.1,0-0.1-0.1-0.2-0.1c-0.1-0.1-0.3,0-0.4,0c-0.5,0-0.8,0.4-0.8,0.8
	c0,0.2,0.1,0.5,0.3,0.6c0.2,0.1,0.4,0.2,0.6,0.2c0.2,0,0.5-0.1,0.6-0.3c0-0.1,0.1-0.1,0.1-0.2C7.9,29.9,7.9,29.7,7.9,29.6
	c0-0.4-0.6-0.4-0.6,0c0,0.1,0,0.1,0,0.2c0-0.1,0.1-0.2,0-0.1c0,0,0,0.1-0.1,0.1c-0.1,0.1,0.2-0.1,0.1-0.1c0,0-0.1,0-0.1,0.1
	c-0.1,0.1-0.1,0,0.1,0c0,0-0.1,0-0.1,0c-0.1,0-0.1,0-0.2,0c0.1,0,0.2,0.1,0.1,0c0,0-0.1,0-0.1-0.1C6.7,29.7,7,30,6.9,29.9
	c0,0,0-0.1-0.1-0.1c-0.1-0.1,0-0.1,0,0.1c0,0,0-0.1,0-0.1c0-0.1,0-0.1,0-0.2c0,0.1-0.1,0.2,0,0.1c0,0,0-0.1,0.1-0.1
	c0.1-0.1-0.2,0.1-0.1,0.1c0,0,0.1,0,0.1-0.1c0.2-0.1-0.2,0,0,0c0.1,0,0.1,0,0.2,0c-0.1,0-0.2-0.1-0.1,0c0,0,0.1,0,0.1,0.1
	c0.1,0.1-0.1-0.2-0.1-0.1c0,0,0,0.1,0.1,0.1c0.1,0.2,0-0.2,0,0C7.2,30,7.9,30,7.9,29.6z"/>
<path d="M8.5,29.3c-1,0-2,0-3,0c-0.4,0-0.4,0.6,0,0.6c1,0,2,0,3,0C8.9,29.9,8.9,29.3,8.5,29.3L8.5,29.3z"/>
<path d="M7.5,28.1C7,29,6.5,30,6,30.9c-0.2,0.4,0.4,0.7,0.5,0.3c0.5-0.9,1-1.9,1.4-2.8C8.2,28.1,7.7,27.8,7.5,28.1L7.5,28.1z"/>
<path d="M8,30.9c-0.5-0.9-1-1.9-1.4-2.8c-0.2-0.4-0.7,0-0.5,0.3c0.5,0.9,1,1.9,1.4,2.8C7.7,31.6,8.2,31.2,8,30.9L8,30.9z"/>
<rect id="_x3C_Slice_x3E__101_" y="51.2" fill="none" width="31.3" height="59.3"/>
<rect id="_x3C_Slice_x3E__100_" fill="none" width="31.3" height="51.2"/>
</svg>
