<?xml version="1.0" encoding="utf-8"?>
<!-- Generator: Adobe Illustrator 15.0.2, SVG Export Plug-In  -->
<!DOCTYPE svg PUBLIC "-//W3C//DTD SVG 1.1//EN" "http://www.w3.org/Graphics/SVG/1.1/DTD/svg11.dtd" [
	<!ENTITY ns_flows "http://ns.adobe.com/Flows/1.0/">
]>
<svg version="1.1"
	 xmlns="http://www.w3.org/2000/svg" xmlns:xlink="http://www.w3.org/1999/xlink" xmlns:a="http://ns.adobe.com/AdobeSVGViewerExtensions/3.0/"
	 x="0px" y="0px" width="51px" height="54px" viewBox="60.5 0.6 51 54" overflow="visible" enable-background="new 60.5 0.6 51 54"
	 xml:space="preserve">
<defs>
</defs>
<path d="M80.7,21.3c0.7,0,1.4,0,2.1,0c0.6,0,0.1-0.2,0.1-0.2c0,0.2,0,0.5,0,0.7c0,1.7,0,3.4,0,5.1c0,1.7,0,3.4,0,5.1
	c0,0.8-0.1,0.5,0.2,0.5c-0.8,0-1.6,0-2.3,0c-0.4,0-0.4,0.6,0,0.6c0.8,0,1.6,0,2.4,0c0.2,0,0.3-0.1,0.3-0.3c0-3.9,0-7.8,0-11.7
	c0-0.2-0.1-0.3-0.3-0.3c-0.8,0-1.6,0-2.4,0C80.3,20.7,80.3,21.3,80.7,21.3L80.7,21.3z"/>
<path d="M78.3,32c-0.7-2.1-1.4-4.1-2.1-6.2c-0.1,0.1-0.2,0.3-0.3,0.4c1.4,0,2.9,0,4.3,0c-0.1-0.1-0.2-0.3-0.3-0.4
	c-0.7,2.1-1.5,4.1-2.2,6.2c-0.1,0.4,0.5,0.5,0.6,0.2c0.7-2.1,1.5-4.1,2.2-6.2c0.1-0.2-0.1-0.4-0.3-0.4c-1.4,0-2.9,0-4.3,0
	c-0.2,0-0.4,0.2-0.3,0.4c0.7,2.1,1.4,4.1,2.1,6.2C77.8,32.6,78.4,32.4,78.3,32L78.3,32z"/>
<path d="M77.7,21.5c-0.7,1.2-1.4,2.4-2.1,3.7c-0.1,0.2,0,0.5,0.3,0.5c1.4,0,2.9,0,4.3,0c0.2,0,0.4-0.3,0.3-0.5
	c-0.7-1.2-1.5-2.4-2.2-3.7c-0.2-0.3-0.7,0-0.5,0.3c0.7,1.2,1.5,2.4,2.2,3.7c0.1-0.2,0.2-0.3,0.3-0.5c-1.4,0-2.9,0-4.3,0
	c0.1,0.2,0.2,0.3,0.3,0.5c0.7-1.2,1.4-2.4,2.1-3.7C78.5,21.5,77.9,21.1,77.7,21.5L77.7,21.5z"/>
<rect id="_x3C_Slice_x3E__103_" y="54.2" fill="none" width="61.3" height="50.2"/>
<rect id="_x3C_Slice_x3E__102_" x="61.3" y="54.2" fill="none" width="50.2" height="50.2"/>
<rect id="_x3C_Slice_x3E__101_" fill="none" width="61.3" height="54.2"/>
<rect id="_x3C_Slice_x3E__100_" x="61.3" fill="none" width="50.2" height="54.2"/>
</svg>
