<?xml version="1.0" encoding="utf-8"?>
<!-- Generator: Adobe Illustrator 15.0.2, SVG Export Plug-In  -->
<!DOCTYPE svg PUBLIC "-//W3C//DTD SVG 1.1//EN" "http://www.w3.org/Graphics/SVG/1.1/DTD/svg11.dtd" [
	<!ENTITY ns_flows "http://ns.adobe.com/Flows/1.0/">
]>
<svg version="1.1"
	 xmlns="http://www.w3.org/2000/svg" xmlns:xlink="http://www.w3.org/1999/xlink" xmlns:a="http://ns.adobe.com/AdobeSVGViewerExtensions/3.0/"
	 x="0px" y="0px" width="48px" height="54px" viewBox="0 0.6 48 54" overflow="visible" enable-background="new 0 0.6 48 54"
	 xml:space="preserve">
<defs>
</defs>
<path d="M25.9,29.8c-3.5,0-7,0-10.6,0c-0.4,0-0.4,0.6,0,0.6c3.5,0,7,0,10.6,0C26.3,30.4,26.3,29.8,25.9,29.8L25.9,29.8z"/>
<path d="M25.9,26.4c-3.5,0-7,0-10.6,0c-0.4,0-0.4,0.6,0,0.6c3.5,0,7,0,10.6,0C26.3,27.1,26.3,26.4,25.9,26.4L25.9,26.4z"/>
<path d="M25.9,23.2c-3.5,0-7,0-10.6,0c-0.4,0-0.4,0.6,0,0.6c3.5,0,7,0,10.6,0C26.3,23.8,26.3,23.2,25.9,23.2L25.9,23.2z"/>
<path d="M26.3,21.3c0.7,0,1.4,0,2.1,0c0.6,0,0.1-0.2,0.1-0.2c0,0.2,0,0.5,0,0.7c0,1.7,0,3.4,0,5.1c0,1.7,0,3.4,0,5.1
	c0,0.8-0.1,0.5,0.2,0.5c-0.8,0-1.6,0-2.3,0c-0.4,0-0.4,0.6,0,0.6c0.8,0,1.6,0,2.4,0c0.2,0,0.3-0.1,0.3-0.3c0-3.9,0-7.8,0-11.7
	c0-0.2-0.1-0.3-0.3-0.3c-0.8,0-1.6,0-2.4,0C25.9,20.7,25.9,21.3,26.3,21.3L26.3,21.3z"/>
<rect id="_x3C_Slice_x3E__101_" y="54.2" fill="none" width="48.2" height="50.2"/>
<rect id="_x3C_Slice_x3E__100_" fill="none" width="48.2" height="54.2"/>
</svg>
