<?xml version="1.0" encoding="utf-8"?>
<!-- Generator: Adobe Illustrator 15.0.2, SVG Export Plug-In  -->
<!DOCTYPE svg PUBLIC "-//W3C//DTD SVG 1.1//EN" "http://www.w3.org/Graphics/SVG/1.1/DTD/svg11.dtd" [
	<!ENTITY ns_flows "http://ns.adobe.com/Flows/1.0/">
]>
<svg version="1.1"
	 xmlns="http://www.w3.org/2000/svg" xmlns:xlink="http://www.w3.org/1999/xlink" xmlns:a="http://ns.adobe.com/AdobeSVGViewerExtensions/3.0/"
	 x="0px" y="0px" width="31px" height="54px" viewBox="0 0.8 31 54" overflow="visible" enable-background="new 0 0.8 31 54"
	 xml:space="preserve">
<defs>
</defs>
<path d="M12.3,28.3c-3.5,0-7,0-10.6,0c-0.4,0-0.4,0.6,0,0.6c3.5,0,7,0,10.6,0C12.7,29,12.7,28.3,12.3,28.3L12.3,28.3z"/>
<path d="M12.3,25.1c-3.5,0-7,0-10.6,0c-0.4,0-0.4,0.6,0,0.6c3.5,0,7,0,10.6,0C12.7,25.7,12.7,25.1,12.3,25.1L12.3,25.1z"/>
<rect id="_x3C_Slice_x3E__101_" y="54.2" fill="none" width="31.3" height="54.2"/>
<rect id="_x3C_Slice_x3E__100_" fill="none" width="31.3" height="54.2"/>
</svg>
