<?xml version="1.0" encoding="utf-8"?>
<!-- Generator: Adobe Illustrator 15.0.2, SVG Export Plug-In  -->
<!DOCTYPE svg PUBLIC "-//W3C//DTD SVG 1.1//EN" "http://www.w3.org/Graphics/SVG/1.1/DTD/svg11.dtd" [
	<!ENTITY ns_flows "http://ns.adobe.com/Flows/1.0/">
]>
<svg version="1.1"
	 xmlns="http://www.w3.org/2000/svg" xmlns:xlink="http://www.w3.org/1999/xlink" xmlns:a="http://ns.adobe.com/AdobeSVGViewerExtensions/3.0/"
	 x="0px" y="0px" width="58px" height="51px" viewBox="53.7 0.4 58 51" overflow="visible" enable-background="new 53.7 0.4 58 51"
	 xml:space="preserve">
<defs>
</defs>
<polygon fill-rule="evenodd" clip-rule="evenodd" points="84.2,31.7 84.2,31.5 84.1,31.4 83.9,31.3 83.6,31.2 83.5,31.3 83.3,31.4 
	83.2,31.5 83.2,31.7 83.2,31.9 83.3,32 83.5,32.2 83.6,32.3 83.9,32.2 84.1,32 84.2,31.9 84.2,31.7 "/>
<path d="M84.5,31.7c0-0.2,0-0.5-0.3-0.6c-0.1-0.1-0.3-0.1-0.4-0.2c-0.1-0.1-0.3-0.1-0.4,0c0,0,0,0-0.1,0.1c-0.1,0.1,0.1,0,0,0
	c-0.1,0-0.2,0.1-0.2,0.1c-0.2,0.2-0.2,0.3-0.2,0.5c0,0.2,0,0.4,0.2,0.5c0.1,0.1,0.1,0.1,0.2,0.1c0,0,0.1,0.1,0,0
	c0,0,0.1,0.1,0.1,0.1c0.1,0.1,0.3,0.1,0.4,0c0.1-0.1,0.3-0.1,0.4-0.2C84.5,32.2,84.5,32,84.5,31.7c0-0.4-0.6-0.4-0.6,0
	c0,0.1,0,0.1,0,0.2c0-0.1,0.1-0.1,0.1-0.2c0,0-0.2,0.1-0.1,0.1c-0.1,0-0.1,0.1-0.2,0.1c-0.1,0-0.2,0.1-0.3,0.1c0.1,0,0.3,0,0.4,0
	c-0.1-0.1-0.1-0.1-0.2-0.2c0,0-0.1,0-0.1-0.1c0.1,0.1,0,0-0.1-0.1c0,0.1,0.1,0.1,0.1,0.2c0-0.1,0-0.3,0-0.4c0,0.1-0.1,0.1-0.1,0.2
	c0,0,0.1-0.1,0.1-0.1c-0.1,0.1,0.1,0,0.1,0c0.1,0,0.2-0.1,0.2-0.2c-0.1,0-0.3,0-0.4,0c0.1,0,0.2,0.1,0.3,0.1c0.1,0,0.1,0.1,0.2,0.1
	c-0.1-0.1,0,0,0.1,0.1c0-0.1-0.1-0.1-0.1-0.2c0,0.1,0,0.1,0,0.2C83.9,32.1,84.5,32.1,84.5,31.7z"/>
<path d="M85.2,31.4c-1,0-2,0-3,0c-0.4,0-0.4,0.6,0,0.6c1,0,2,0,3,0C85.6,32,85.6,31.4,85.2,31.4L85.2,31.4z"/>
<path d="M84.1,30.2c-0.5,0.9-1,1.8-1.4,2.7c-0.2,0.4,0.3,0.7,0.5,0.3c0.5-0.9,1-1.8,1.4-2.7C84.9,30.2,84.3,29.9,84.1,30.2
	L84.1,30.2z"/>
<path d="M84.7,32.9c-0.5-0.9-1-1.8-1.4-2.7c-0.2-0.4-0.7,0-0.5,0.3c0.5,0.9,1,1.8,1.4,2.7C84.3,33.6,84.9,33.2,84.7,32.9L84.7,32.9z
	"/>
<polygon fill-rule="evenodd" clip-rule="evenodd" points="84.2,27.6 84.2,27.4 84.1,27.3 83.9,27.2 83.6,27 83.5,27.2 83.3,27.3 
	83.2,27.4 83.2,27.6 83.2,27.8 83.3,27.9 83.5,28 83.6,28.2 83.9,28 84.1,27.9 84.2,27.8 84.2,27.6 "/>
<path d="M84.5,27.6c0-0.2,0-0.5-0.3-0.6c-0.1-0.1-0.3-0.1-0.4-0.2c-0.1-0.1-0.3-0.1-0.4,0c0,0,0,0-0.1,0.1c-0.1,0.1,0.1,0,0,0
	c-0.1,0-0.2,0.1-0.2,0.1c-0.2,0.2-0.2,0.3-0.2,0.5s0,0.4,0.2,0.5c0.1,0.1,0.1,0.1,0.2,0.1c0,0,0.1,0.1,0,0c0,0,0.1,0.1,0.1,0.1
	c0.1,0.1,0.3,0.1,0.4,0c0.1-0.1,0.3-0.1,0.4-0.2C84.5,28.1,84.5,27.8,84.5,27.6c0-0.4-0.6-0.4-0.6,0c0,0.1,0,0.1,0,0.2
	c0-0.1,0.1-0.1,0.1-0.2c0,0-0.2,0.1-0.1,0.1c-0.1,0-0.1,0.1-0.2,0.1c-0.1,0-0.2,0.1-0.3,0.1c0.1,0,0.3,0,0.4,0
	c-0.1-0.1-0.1-0.1-0.2-0.2c0,0-0.1,0-0.1-0.1c0.1,0.1,0,0-0.1-0.1c0,0.1,0.1,0.1,0.1,0.2c0-0.1,0-0.3,0-0.4c0,0.1-0.1,0.1-0.1,0.2
	c0,0,0.1-0.1,0.1-0.1c-0.1,0.1,0.1,0,0.1,0c0.1,0,0.2-0.1,0.2-0.2c-0.1,0-0.3,0-0.4,0c0.1,0,0.2,0.1,0.3,0.1c0.1,0,0.1,0.1,0.2,0.1
	c-0.1-0.1,0,0,0.1,0.1c0-0.1-0.1-0.1-0.1-0.2c0,0.1,0,0.1,0,0.2C83.9,28,84.5,28,84.5,27.6z"/>
<path d="M85.2,27.3c-1,0-2,0-3,0c-0.4,0-0.4,0.6,0,0.6c1,0,2,0,3,0C85.6,27.9,85.6,27.3,85.2,27.3L85.2,27.3z"/>
<path d="M84.1,26.1c-0.5,0.9-1,1.8-1.4,2.7c-0.2,0.4,0.3,0.7,0.5,0.3c0.5-0.9,1-1.8,1.4-2.7C84.9,26.1,84.3,25.8,84.1,26.1
	L84.1,26.1z"/>
<path d="M84.7,28.8c-0.5-0.9-1-1.8-1.4-2.7c-0.2-0.4-0.7,0-0.5,0.3c0.5,0.9,1,1.8,1.4,2.7C84.3,29.4,84.9,29.1,84.7,28.8L84.7,28.8z
	"/>
<rect id="_x3C_Slice_x3E__103_" y="51.2" fill="none" width="54.2" height="59.3"/>
<rect id="_x3C_Slice_x3E__102_" x="54.2" y="51.2" fill="none" width="58.3" height="59.3"/>
<rect id="_x3C_Slice_x3E__101_" fill="none" width="54.2" height="51.2"/>
<rect id="_x3C_Slice_x3E__100_" x="54.2" fill="none" width="58.3" height="51.2"/>
</svg>
