<?xml version="1.0" encoding="utf-8"?>
<!-- Generator: Adobe Illustrator 15.0.2, SVG Export Plug-In  -->
<!DOCTYPE svg PUBLIC "-//W3C//DTD SVG 1.1//EN" "http://www.w3.org/Graphics/SVG/1.1/DTD/svg11.dtd" [
	<!ENTITY ns_flows "http://ns.adobe.com/Flows/1.0/">
]>
<svg version="1.1"
	 xmlns="http://www.w3.org/2000/svg" xmlns:xlink="http://www.w3.org/1999/xlink" xmlns:a="http://ns.adobe.com/AdobeSVGViewerExtensions/3.0/"
	 x="0px" y="0px" width="56px" height="50px" viewBox="48.9 0.1 56 50" overflow="visible" enable-background="new 48.9 0.1 56 50"
	 xml:space="preserve">
<defs>
</defs>
<path d="M82.2,33.3c-3.5,0-7,0-10.6,0c-0.4,0-0.4,0.6,0,0.6c3.5,0,7,0,10.6,0C82.6,34,82.6,33.3,82.2,33.3L82.2,33.3z"/>
<path d="M82.2,30.1c-3.5,0-7,0-10.6,0c-0.4,0-0.4,0.6,0,0.6c3.5,0,7,0,10.6,0C82.6,30.7,82.6,30.1,82.2,30.1L82.2,30.1z"/>
<path d="M82.2,26.8c-3.5,0-7,0-10.6,0c-0.4,0-0.4,0.6,0,0.6c3.5,0,7,0,10.6,0C82.6,27.4,82.6,26.8,82.2,26.8L82.2,26.8z"/>
<rect id="_x3C_Slice_x3E__103_" y="49.2" fill="none" width="49.2" height="63.3"/>
<rect id="_x3C_Slice_x3E__102_" x="49.2" y="49.2" fill="none" width="56.2" height="63.3"/>
<rect id="_x3C_Slice_x3E__101_" fill="none" width="49.2" height="49.2"/>
<rect id="_x3C_Slice_x3E__100_" x="49.2" fill="none" width="56.2" height="49.2"/>
</svg>
