<?xml version="1.0" encoding="utf-8"?>
<!-- Generator: Adobe Illustrator 15.0.2, SVG Export Plug-In  -->
<!DOCTYPE svg PUBLIC "-//W3C//DTD SVG 1.1//EN" "http://www.w3.org/Graphics/SVG/1.1/DTD/svg11.dtd" [
	<!ENTITY ns_flows "http://ns.adobe.com/Flows/1.0/">
]>
<svg version="1.1"
	 xmlns="http://www.w3.org/2000/svg" xmlns:xlink="http://www.w3.org/1999/xlink" xmlns:a="http://ns.adobe.com/AdobeSVGViewerExtensions/3.0/"
	 x="0px" y="0px" width="31px" height="54px" viewBox="0 0.6 31 54" overflow="visible" enable-background="new 0 0.6 31 54"
	 xml:space="preserve">
<defs>
</defs>
<polygon fill-rule="evenodd" clip-rule="evenodd" points="5.3,27.8 5.5,27.5 5.8,27.3 6,27.2 6,27 6.1,26.9 6,26.8 6,26.6 5.8,26.6 
	5.5,26.6 5.3,26.5 5.2,26.4 5.2,26.2 5.2,26.1 5.2,26 5.3,25.9 5.5,25.8 5.8,25.8 5.9,25.8 6,25.8 6.2,25.9 6.2,26 6.3,26.1 
	6.4,26.2 6.4,26.4 6.4,26.5 6.4,26.9 6.3,27.1 6.3,27.2 6.1,27.4 6,27.5 5.8,27.8 5.4,27.9 5.3,27.8 "/>
<path d="M5.5,28c0.2-0.2,0.4-0.4,0.6-0.5c0.1,0,0.2-0.2,0.2-0.3c0-0.1,0-0.1,0-0.2c0,0.1-0.1,0.1-0.1,0.2c0,0,0.1-0.1,0.1-0.1
	c0.1-0.1,0.1-0.3,0-0.4c0,0-0.1-0.1-0.1-0.1c0,0.1,0.1,0.1,0.1,0.2c0,0,0-0.1,0-0.1c0-0.2-0.1-0.3-0.3-0.3c-0.1,0-0.3,0-0.4,0
	c0.2,0,0.1,0,0,0c-0.1,0-0.1,0-0.1-0.1c0,0.1,0.1,0.1,0.1,0.2c0-0.1,0-0.3,0-0.4c0,0.1-0.1,0.1-0.1,0.2c0.1-0.1,0.1-0.1,0.1-0.1
	c0,0,0.1,0,0.1-0.1c-0.2,0.1,0,0,0.1,0c0.1,0,0.1,0,0.2,0c-0.2,0,0,0,0.1,0.1C6,26,5.9,26,5.9,25.9c0,0.3,0.1,0.4,0.3,0.6
	c0-0.1-0.1-0.1-0.1-0.2c0,0.2,0,0.4,0,0.6c0,0.1,0,0.1,0,0c0,0.1-0.1,0.1-0.1,0.2C6,27,6,27.1,6,27.2c0-0.1,0.1-0.1,0.1-0.2
	c-0.1,0.1-0.2,0.2-0.4,0.4c-0.1,0.1-0.3,0.2-0.1,0.1c-0.1,0-0.2,0.1-0.3,0.1c0.1,0,0.2,0.1,0.3,0.1c0,0-0.1-0.1-0.1-0.1
	c-0.3-0.3-0.7,0.2-0.4,0.4c0,0,0.1,0.1,0.1,0.1c0.1,0.1,0.2,0.1,0.3,0.1C5.8,28.1,6,28,6.2,27.8c0.2-0.2,0.4-0.4,0.4-0.6
	c0,0.1,0,0,0,0c0-0.1,0.1-0.1,0.1-0.2c0-0.1,0-0.3,0-0.4c0-0.3-0.1-0.5-0.3-0.7c0,0.1,0.1,0.1,0.1,0.2c0,0,0-0.1,0-0.1
	c0-0.1-0.1-0.2-0.2-0.3c-0.3-0.1-0.5-0.2-0.8-0.2c-0.3,0-0.7,0.3-0.7,0.5c0,0.3-0.1,0.7,0.3,0.8C5.4,26.9,5.7,27,6,27
	c-0.1-0.1-0.2-0.2-0.3-0.3c0,0.2,0.1,0.3,0.2,0.4c0-0.1,0-0.3,0-0.4c-0.2,0.2-0.2,0.3-0.2,0.6c0.1-0.1,0.1-0.2,0.2-0.3
	c-0.3,0.1-0.5,0.4-0.7,0.6C4.8,27.8,5.3,28.3,5.5,28z"/>
<path d="M6.4,33c0.8,0,1.6,0,2.4,0c0.2,0,0.3-0.1,0.3-0.3c0-3.9,0-7.8,0-11.7c0-0.2-0.1-0.3-0.3-0.3c-0.8,0-1.6,0-2.4,0
	c-0.4,0-0.4,0.6,0,0.6c0.7,0,1.4,0,2.1,0c0.6,0,0.1-0.2,0.1-0.2c0,0.2,0,0.5,0,0.7c0,1.7,0,3.4,0,5.1c0,1.7,0,3.4,0,5.1
	c0,0.8-0.1,0.5,0.2,0.5c-0.8,0-1.6,0-2.3,0C6,32.3,6,33,6.4,33L6.4,33z"/>
<rect id="_x3C_Slice_x3E__101_" y="54.2" fill="none" width="31.3" height="50.2"/>
<rect id="_x3C_Slice_x3E__100_" fill="none" width="31.3" height="54.2"/>
</svg>
