<?xml version="1.0" encoding="utf-8"?>
<!-- Generator: Adobe Illustrator 15.0.2, SVG Export Plug-In  -->
<!DOCTYPE svg PUBLIC "-//W3C//DTD SVG 1.1//EN" "http://www.w3.org/Graphics/SVG/1.1/DTD/svg11.dtd" [
	<!ENTITY ns_flows "http://ns.adobe.com/Flows/1.0/">
]>
<svg version="1.1"
	 xmlns="http://www.w3.org/2000/svg" xmlns:xlink="http://www.w3.org/1999/xlink" xmlns:a="http://ns.adobe.com/AdobeSVGViewerExtensions/3.0/"
	 x="0px" y="0px" width="61px" height="63px" viewBox="55.7 0.9 61 63" overflow="visible" enable-background="new 55.7 0.9 61 63"
	 xml:space="preserve">
<defs>
</defs>
<path d="M86.4,33.5c0.7,1.1,1,3.5-1.1,3.5c-2.1,0-4-2.8-5.6-4c-1.3-1-2.6-0.1-3.5,0.8c-0.9,0.9,0,2.6,0.5,3.4c0.2,0.3,0.7,0,0.5-0.3
	c-0.7-1.2-1.1-3,0.5-3.5c1.9-0.6,4.1,2.1,5.3,3.3c1.2,1.2,3,1.3,4.2,0.1c1-1,0.4-2.6-0.2-3.6C86.8,32.8,86.2,33.1,86.4,33.5
	L86.4,33.5z"/>
<polygon fill-rule="evenodd" clip-rule="evenodd" points="77.8,36.2 78.1,36 78.4,35.8 78.5,35.5 78.6,35.3 78.6,35.2 78.6,35.1 
	78.5,35 78.3,35 78,35 77.9,34.9 77.8,34.9 77.7,34.8 77.7,34.6 77.7,34.4 77.7,34.3 77.7,34.2 77.8,34.1 78,34 78.3,33.9 
	78.5,33.9 78.6,34 78.7,34.1 78.8,34.2 78.9,34.3 79,34.5 79,34.6 79.1,34.9 79,35 79,35.2 78.9,35.4 78.9,35.5 78.7,35.8 78.5,36 
	78.3,36.2 77.9,36.4 77.8,36.2 "/>
<path d="M78,36.5c0.4-0.2,0.9-0.7,0.9-1.2c0-0.3,0-0.6-0.3-0.6c-0.1,0-0.2,0-0.3,0c-0.2,0-0.1-0.1,0,0.1c0,0-0.1-0.1-0.1-0.1
	c-0.1,0-0.1,0-0.2,0c0.1,0,0.1,0,0.1,0.1c0-0.1,0-0.2,0-0.3c0-0.2,0-0.1-0.1,0c0.1-0.1,0,0,0.1-0.1c0,0,0.1,0,0.1-0.1
	c0.1,0,0.2-0.1,0.1-0.1c0.2,0,0.1,0.1,0-0.1c0,0,0.1,0.1,0.1,0.1c0.1,0.1,0.1,0.1,0.2,0.2c0.1,0.1,0,0,0.1,0.1c0.1,0.2,0-0.1,0,0.1
	c0,0.1,0.1,0.3,0.2,0.4c0-0.1,0-0.3,0-0.4c-0.2,0.2-0.2,0.3-0.2,0.5c0-0.2,0,0-0.1,0.1c0,0,0,0.1,0,0.2c0,0.2,0.2-0.2,0,0
	c-0.3,0.3-0.5,0.5-0.9,0.8c0.1,0,0.3,0.1,0.4,0.1c0-0.1-0.1-0.1-0.1-0.2c-0.2-0.4-0.7,0-0.5,0.3c0,0.1,0.1,0.1,0.1,0.2
	c0.1,0.1,0.3,0.2,0.4,0.1c0.4-0.2,0.6-0.5,0.9-0.8c0.1-0.1,0.1-0.1,0.2-0.2c0,0,0-0.1,0-0.2c0-0.2-0.1,0.1,0-0.1
	c0-0.1,0.1-0.2,0.1-0.3c0-0.3-0.2,0.1,0-0.1c0.1-0.1,0.1-0.3,0-0.4c0-0.1-0.1-0.1-0.1-0.2c0.1,0.2,0,0,0-0.1c0-0.1-0.1-0.3-0.2-0.4
	c-0.2-0.2-0.3-0.4-0.5-0.5c-0.3-0.1-0.6,0-0.8,0.1c-0.3,0.1-0.5,0.3-0.5,0.6c0,0.3,0,0.5,0.2,0.7c0.1,0.1,0.1,0.1,0.2,0.1
	c0.2,0-0.2-0.2,0,0c0.1,0.1,0.3,0.1,0.4,0.1c0,0,0.1,0,0.1,0c0.2,0-0.2-0.2,0,0c-0.1-0.1-0.1-0.2-0.1,0c0-0.1,0,0-0.1,0.1
	c-0.1,0.3-0.3,0.4-0.6,0.6C77.3,36.2,77.6,36.7,78,36.5z"/>
<rect id="_x3C_Slice_x3E__103_" y="63.3" fill="none" width="56.2" height="50.2"/>
<rect id="_x3C_Slice_x3E__102_" x="56.2" y="63.3" fill="none" width="61.3" height="50.2"/>
<rect id="_x3C_Slice_x3E__101_" fill="none" width="56.2" height="63.3"/>
<rect id="_x3C_Slice_x3E__100_" x="56.2" fill="none" width="61.3" height="63.3"/>
</svg>
