<?xml version="1.0" encoding="utf-8"?>
<!-- Generator: Adobe Illustrator 15.0.2, SVG Export Plug-In  -->
<!DOCTYPE svg PUBLIC "-//W3C//DTD SVG 1.1//EN" "http://www.w3.org/Graphics/SVG/1.1/DTD/svg11.dtd" [
	<!ENTITY ns_flows "http://ns.adobe.com/Flows/1.0/">
]>
<svg version="1.1"
	 xmlns="http://www.w3.org/2000/svg" xmlns:xlink="http://www.w3.org/1999/xlink" xmlns:a="http://ns.adobe.com/AdobeSVGViewerExtensions/3.0/"
	 x="0px" y="0px" width="56px" height="50px" viewBox="48.9 0.3 56 50" overflow="visible" enable-background="new 48.9 0.3 56 50"
	 xml:space="preserve">
<defs>
</defs>
<path d="M71.3,21.2c0,3.6,0,7.2,0,10.8c0,0.4,0.6,0.4,0.6,0c0-3.6,0-7.2,0-10.8C71.9,20.8,71.3,20.8,71.3,21.2L71.3,21.2z"/>
<path d="M75.4,31.1c1.1,0.8,2,1.2,3.2,0.6c0.9-0.4,2.2-2.7,1.3-3.6c-0.6-0.6-0.9-1.3-1.6-1.8c-0.8-0.6-1.9-0.9-2.4-1.8
	c-1-1.9,2-3.5,3.2-1.8c0.2,0.3,0.8,0,0.5-0.3c-2.2-3.3-6.7,1.8-3.3,3.4c1.8,0.9,3.9,2.4,2.8,4.6c-0.7,1.5-2.3,1-3.3,0.2
	C75.4,30.3,75.1,30.9,75.4,31.1L75.4,31.1z"/>
<path d="M81.1,25.1c-2.7,0-5.5,0-8.2,0c-0.4,0-0.4,0.6,0,0.6c2.7,0,5.5,0,8.2,0C81.5,25.7,81.5,25.1,81.1,25.1L81.1,25.1z"/>
<path d="M81.1,26.4c-2.7,0-5.5,0-8.2,0c-0.4,0-0.4,0.6,0,0.6c2.7,0,5.5,0,8.2,0C81.5,27.1,81.5,26.4,81.1,26.4L81.1,26.4z"/>
<path d="M80.7,27.3c0.6-0.3,1.2-0.7,1.8-1c0.2-0.1,0.2-0.4,0-0.5c-0.6-0.3-1.2-0.7-1.8-1c-0.4-0.2-0.7,0.3-0.3,0.5
	c0.6,0.3,1.2,0.7,1.8,1c0-0.2,0-0.4,0-0.5c-0.6,0.3-1.2,0.7-1.8,1C80.1,27,80.4,27.5,80.7,27.3L80.7,27.3z"/>
<rect id="_x3C_Slice_x3E__103_" y="50.2" fill="none" width="49.2" height="49.2"/>
<rect id="_x3C_Slice_x3E__102_" x="49.2" y="50.2" fill="none" width="56.2" height="49.2"/>
<rect id="_x3C_Slice_x3E__101_" fill="none" width="49.2" height="50.2"/>
<rect id="_x3C_Slice_x3E__100_" x="49.2" fill="none" width="56.2" height="50.2"/>
</svg>
