<?xml version="1.0" encoding="utf-8"?>
<!-- Generator: Adobe Illustrator 15.0.2, SVG Export Plug-In  -->
<!DOCTYPE svg PUBLIC "-//W3C//DTD SVG 1.1//EN" "http://www.w3.org/Graphics/SVG/1.1/DTD/svg11.dtd" [
	<!ENTITY ns_flows "http://ns.adobe.com/Flows/1.0/">
]>
<svg version="1.1"
	 xmlns="http://www.w3.org/2000/svg" xmlns:xlink="http://www.w3.org/1999/xlink" xmlns:a="http://ns.adobe.com/AdobeSVGViewerExtensions/3.0/"
	 x="0px" y="0px" width="54px" height="60px" viewBox="31 0.2 54 60" overflow="visible" enable-background="new 31 0.2 54 60"
	 xml:space="preserve">
<defs>
</defs>
<path d="M61.3,37.4c-0.7-2.1-1.4-4.2-2.1-6.3c-0.1,0.1-0.2,0.3-0.3,0.4c1.4,0,2.9,0,4.3,0c-0.1-0.1-0.2-0.3-0.3-0.4
	c-0.7,2.1-1.5,4.2-2.2,6.3c-0.1,0.4,0.5,0.5,0.6,0.2c0.7-2.1,1.5-4.2,2.2-6.3c0.1-0.2-0.1-0.4-0.3-0.4c-1.4,0-2.9,0-4.3,0
	c-0.2,0-0.4,0.2-0.3,0.4c0.7,2.1,1.4,4.2,2.1,6.3C60.8,38,61.4,37.8,61.3,37.4L61.3,37.4z"/>
<path d="M62.6,32.3c-1.1,0-2.1,0-3.2,0c-0.4,0-0.4,0.6,0,0.6c1.1,0,2.1,0,3.2,0C63.1,32.9,63.1,32.3,62.6,32.3L62.6,32.3z"/>
<polygon fill-rule="evenodd" clip-rule="evenodd" points="62.3,28.7 62.3,28.4 62.2,28.2 62.1,27.9 61.9,27.8 61.8,27.6 61.5,27.5 
	61.3,27.5 61,27.4 60.8,27.5 60.5,27.5 60.3,27.6 60.2,27.8 60,27.9 59.9,28.2 59.8,28.4 59.8,28.7 59.8,28.9 59.9,29.2 60,29.4 
	60.2,29.6 60.3,29.7 60.5,29.8 60.8,29.9 61,29.9 61.3,29.9 61.5,29.8 61.8,29.7 61.9,29.6 62.1,29.4 62.2,29.2 62.3,28.9 
	62.3,28.7 "/>
<path d="M62.6,28.7c0-0.5-0.1-0.9-0.6-1.1c0.1,0.1,0.1,0.1,0,0c0-0.1-0.1-0.1-0.1-0.2c-0.1-0.1-0.2-0.1-0.3-0.2
	c-0.2-0.1-0.4-0.1-0.6-0.1c-0.1,0-0.2,0-0.3,0c-0.1,0-0.1,0.1-0.2,0.1c0.2-0.1,0,0-0.1,0c-0.2,0-0.5,0.1-0.5,0.3
	c0,0.1-0.1,0.1-0.1,0.2c0.1-0.1,0,0-0.1,0c-0.1,0.1-0.2,0.1-0.2,0.2c-0.1,0.2-0.2,0.4-0.2,0.6c0,0.4,0.1,0.9,0.4,1.2
	c0.3,0.3,0.7,0.6,1.1,0.6c0.4,0,0.8-0.1,1.1-0.4C62.4,29.5,62.6,29.2,62.6,28.7c0-0.4-0.6-0.4-0.6,0c0,0.1,0,0.1,0,0.2
	c0-0.2,0,0-0.1,0.1c-0.1,0.2-0.1,0.2-0.3,0.4c-0.1,0.1-0.2,0.1-0.3,0.2c-0.1,0-0.1,0.1-0.2,0.1c0.1,0,0.1,0,0,0c-0.1,0-0.2,0-0.3,0
	c-0.1,0-0.2-0.1-0.1,0c-0.1,0-0.1-0.1-0.2-0.1c-0.2-0.1-0.2-0.2-0.4-0.3c-0.1-0.1-0.2-0.3-0.2-0.4c0.1,0.2,0,0,0-0.1
	c0-0.1,0-0.2,0-0.3c0,0.2,0,0,0.1-0.1c0-0.1,0.1-0.1,0.1-0.2c-0.1,0.1,0,0,0.1,0c0.1,0,0.1-0.1,0.2-0.2c0.1-0.1,0.1-0.1,0,0
	c0.1,0,0.1-0.1,0.2-0.1c-0.2,0.1,0,0,0.1,0c0.1,0,0.2-0.1,0.3-0.1c0.2-0.1-0.3-0.1,0,0c0.2,0.1,0.3,0.1,0.4,0.1c-0.1,0-0.1,0,0,0
	c0.1,0.1,0.1,0.1,0,0c0,0.1,0.1,0.2,0.1,0.3c0.1,0.1,0.2,0.1,0.3,0.1c-0.1-0.1,0,0,0,0.1c0,0.1,0.1,0.3,0.1,0.1c0,0.1,0,0.2,0,0.3
	C62,29.1,62.6,29.1,62.6,28.7z"/>
<rect id="_x3C_Slice_x3E__103_" y="59.3" fill="none" width="31.3" height="34.9"/>
<rect id="_x3C_Slice_x3E__102_" x="31.3" y="59.3" fill="none" width="54.2" height="34.9"/>
<rect id="_x3C_Slice_x3E__101_" fill="none" width="31.3" height="59.3"/>
<rect id="_x3C_Slice_x3E__100_" x="31.3" fill="none" width="54.2" height="59.3"/>
</svg>
