<?xml version="1.0" encoding="utf-8"?>
<!-- Generator: Adobe Illustrator 15.0.2, SVG Export Plug-In  -->
<!DOCTYPE svg PUBLIC "-//W3C//DTD SVG 1.1//EN" "http://www.w3.org/Graphics/SVG/1.1/DTD/svg11.dtd" [
	<!ENTITY ns_flows "http://ns.adobe.com/Flows/1.0/">
]>
<svg version="1.1"
	 xmlns="http://www.w3.org/2000/svg" xmlns:xlink="http://www.w3.org/1999/xlink" xmlns:a="http://ns.adobe.com/AdobeSVGViewerExtensions/3.0/"
	 x="0px" y="0px" width="54px" height="54px" viewBox="31 0.6 54 54" overflow="visible" enable-background="new 31 0.6 54 54"
	 xml:space="preserve">
<defs>
</defs>
<polygon fill-rule="evenodd" clip-rule="evenodd" points="61,26.8 61,26.5 60.9,26.3 60.8,26.1 60.6,26 60.4,25.8 60.2,25.6 
	60,25.5 59.8,25.5 59.4,25.5 59.2,25.6 59,25.8 58.9,26 58.6,26.1 58.5,26.3 58.5,26.5 58.4,26.8 58.5,27.1 58.5,27.3 58.6,27.5 
	58.9,27.6 59,27.9 59.2,28 59.4,28.1 59.8,28.1 60,28.1 60.2,28 60.4,27.9 60.6,27.6 60.8,27.5 60.9,27.3 61,27.1 61,26.8 "/>
<path d="M61.3,26.8c0-0.9-0.8-1.5-1.7-1.5c-0.3,0-0.4,0.1-0.6,0.2c-0.1,0.1-0.2,0.1-0.3,0.2c0,0,0,0.1-0.1,0.1
	c-0.1,0.2,0.1,0-0.1,0.1c-0.2,0.1-0.4,0.3-0.4,0.5c0,0,0,0.1,0,0.1c0,0.2,0.1-0.2,0,0.1c-0.1,0.1-0.1,0.2-0.1,0.4
	c0.1,0.4,0.1,0.8,0.6,1.1c-0.1-0.1-0.1-0.1,0,0c0,0.1,0.1,0.1,0.1,0.2c0.1,0.1,0.2,0.1,0.3,0.2c0.2,0.1,0.4,0.2,0.7,0.2
	C60.6,28.4,61.3,27.6,61.3,26.8c0-0.4-0.6-0.4-0.6,0c0,0.1,0,0.1,0,0.2c0,0.1,0,0.1,0,0c0,0.1-0.1,0.1-0.1,0.2
	c-0.1,0.1-0.1,0.2-0.2,0.3c-0.1,0.1-0.2,0.2-0.4,0.3c-0.1,0-0.3,0.1-0.1,0.1c-0.1,0-0.1,0-0.2,0c-0.1,0-0.2,0-0.3,0
	c0.2,0,0,0-0.1-0.1c-0.1,0-0.2-0.2-0.1,0c0-0.1-0.1-0.2-0.1-0.3c-0.1-0.1-0.2-0.1-0.3-0.1c0.1,0.1,0.1,0.1,0,0c0-0.1-0.1-0.1,0,0
	c0-0.2,0-0.3-0.1-0.5c-0.1-0.2-0.1,0.3,0,0c0-0.1,0.1-0.2,0.1-0.3c0-0.1,0.1-0.3,0-0.1c0-0.1,0.1-0.1,0.1-0.2c-0.1,0.1-0.1,0.1,0,0
	c0.1,0,0.2-0.1,0.2-0.2c0-0.1,0.2-0.2,0-0.1c0.1,0,0.1-0.1,0.2-0.1c0.1,0,0.1-0.1,0.2-0.1c-0.1,0-0.1,0,0,0c0.1,0,0.1,0,0.2,0
	c0.1,0,0.3,0.1,0.1,0c0.1,0.1,0.3,0.1,0.4,0.2c0.1,0.1,0.2,0.2,0.3,0.4c0,0.1,0.1,0.1,0.1,0.2c-0.1-0.2,0,0,0,0.1
	C60.7,27.2,61.3,27.2,61.3,26.8z"/>
<path d="M61.2,33c0.8,0,1.6,0,2.4,0c0.2,0,0.3-0.1,0.3-0.3c0-3.9,0-7.8,0-11.7c0-0.2-0.1-0.3-0.3-0.3c-0.8,0-1.6,0-2.4,0
	c-0.4,0-0.4,0.6,0,0.6c0.7,0,1.4,0,2.1,0c0.6,0,0.1-0.2,0.1-0.2c0,0.2,0,0.5,0,0.7c0,1.7,0,3.4,0,5.1c0,1.7,0,3.4,0,5.1
	c0,0.8-0.1,0.5,0.2,0.5c-0.8,0-1.6,0-2.3,0C60.8,32.3,60.8,33,61.2,33L61.2,33z"/>
<rect id="_x3C_Slice_x3E__103_" y="54.2" fill="none" width="31.3" height="50.2"/>
<rect id="_x3C_Slice_x3E__102_" x="31.3" y="54.2" fill="none" width="54.2" height="50.2"/>
<rect id="_x3C_Slice_x3E__101_" fill="none" width="31.3" height="54.2"/>
<rect id="_x3C_Slice_x3E__100_" x="31.3" fill="none" width="54.2" height="54.2"/>
</svg>
