<?xml version="1.0" encoding="utf-8"?>
<!-- Generator: Adobe Illustrator 15.0.2, SVG Export Plug-In  -->
<!DOCTYPE svg PUBLIC "-//W3C//DTD SVG 1.1//EN" "http://www.w3.org/Graphics/SVG/1.1/DTD/svg11.dtd" [
	<!ENTITY ns_flows "http://ns.adobe.com/Flows/1.0/">
]>
<svg version="1.1"
	 xmlns="http://www.w3.org/2000/svg" xmlns:xlink="http://www.w3.org/1999/xlink" xmlns:a="http://ns.adobe.com/AdobeSVGViewerExtensions/3.0/"
	 x="0px" y="0px" width="49px" height="54px" viewBox="56.2 0.6 49 54" overflow="visible" enable-background="new 56.2 0.6 49 54"
	 xml:space="preserve">
<defs>
</defs>
<path d="M82.5,25.1c0.4,1.1,1.1,3.6-1,3.6c-1.9,0-4.2-2.5-5.4-3.7c-0.8-0.8-3.1-0.9-3.7,0.3c-0.7,1.3-0.6,2.3,0.2,3.6
	c0.2,0.3,0.7,0,0.5-0.3c-0.7-1.2-1.1-3.6,1.1-3.6c1.8,0,3.6,2.2,4.8,3.4c0.8,0.8,3.1,1.7,3.9,0.4c0.9-1.4,0.8-2.3,0.1-3.8
	C83,24.5,82.4,24.7,82.5,25.1L82.5,25.1z"/>
<path d="M83.7,21.3c0.7,0,1.4,0,2.1,0c0.6,0,0.1-0.2,0.1-0.2c0,0.2,0,0.5,0,0.7c0,1.7,0,3.4,0,5.1c0,1.7,0,3.4,0,5.1
	c0,0.8-0.1,0.5,0.2,0.5c-0.8,0-1.6,0-2.3,0c-0.4,0-0.4,0.6,0,0.6c0.8,0,1.6,0,2.4,0c0.2,0,0.3-0.1,0.3-0.3c0-3.9,0-7.8,0-11.7
	c0-0.2-0.1-0.3-0.3-0.3c-0.8,0-1.6,0-2.4,0C83.3,20.7,83.3,21.3,83.7,21.3L83.7,21.3z"/>
<rect id="_x3C_Slice_x3E__103_" y="54.2" fill="none" width="56.2" height="50.2"/>
<rect id="_x3C_Slice_x3E__102_" x="56.2" y="54.2" fill="none" width="49.2" height="50.2"/>
<rect id="_x3C_Slice_x3E__101_" fill="none" width="56.2" height="54.2"/>
<rect id="_x3C_Slice_x3E__100_" x="56.2" fill="none" width="49.2" height="54.2"/>
</svg>
