<?xml version="1.0" encoding="utf-8"?>
<!-- Generator: Adobe Illustrator 15.0.2, SVG Export Plug-In  -->
<!DOCTYPE svg PUBLIC "-//W3C//DTD SVG 1.1//EN" "http://www.w3.org/Graphics/SVG/1.1/DTD/svg11.dtd" [
	<!ENTITY ns_flows "http://ns.adobe.com/Flows/1.0/">
]>
<svg version="1.1"
	 xmlns="http://www.w3.org/2000/svg" xmlns:xlink="http://www.w3.org/1999/xlink" xmlns:a="http://ns.adobe.com/AdobeSVGViewerExtensions/3.0/"
	 x="0px" y="0px" width="54px" height="34px" viewBox="31 0.9 54 34" overflow="visible" enable-background="new 31 0.9 54 34"
	 xml:space="preserve">
<defs>
</defs>
<path d="M55.4,22.4c0,3.2,0,6.4,0,9.7c0,0.4,0.6,0.4,0.6,0c0-3.2,0-6.4,0-9.7C56.1,21.9,55.4,21.9,55.4,22.4L55.4,22.4z"/>
<path d="M62.3,30.5c-0.6-0.6-1.1-1.3-1.7-1.9c-0.4-0.4-0.8-0.9-1.1-1.3c-0.1-0.1-0.3-0.3-0.4-0.4C58.8,26.4,59,27,59,26.9
	c1.3-1.5,2.6-2.9,3.8-4.4c0.2-0.2,0.1-0.5-0.2-0.5c-2.7,0-5.5,0-8.2,0c-0.4,0-0.4,0.6,0,0.6c2.7,0,5.5,0,8.2,0
	c-0.1-0.2-0.1-0.4-0.2-0.5c-1.3,1.5-2.6,3-3.9,4.4c-0.1,0.1-0.1,0.3,0,0.4c1.1,1.3,2.2,2.6,3.3,3.9C62.1,31.2,62.6,30.8,62.3,30.5
	L62.3,30.5z"/>
<polygon fill-rule="evenodd" clip-rule="evenodd" points="63.1,32 62.9,30.9 62.8,30.2 62.6,29.9 62.6,29.8 62.5,29.8 62.5,29.8 
	62.4,29.8 62.4,29.9 62.4,30 62.3,30.2 62.3,30.5 62.2,30.6 62.1,30.7 61.9,30.8 61.8,30.9 61.5,30.9 61.3,30.9 61.2,30.9 
	61.1,30.9 61.1,31 61.1,31.1 61.2,31.1 61.5,31.2 62.1,31.5 63.1,32 "/>
<path d="M63.4,31.9c-0.1-0.4-0.1-0.7-0.2-1.1c0-0.2-0.1-0.4-0.1-0.6c0-0.2-0.1-0.3-0.1-0.5c0-0.2-0.1-0.3-0.3-0.3
	c-0.1,0-0.1,0-0.2,0c-0.2,0-0.3,0.1-0.3,0.3c0,0.1,0,0.1,0,0.2c0-0.2,0,0-0.1,0.1C62,30.2,62,30.3,62,30.5c0-0.1,0.1-0.1,0.1-0.2
	c-0.2,0.2-0.4,0.2-0.6,0.4c0.1,0,0.1-0.1,0.2-0.1c-0.2,0-0.4,0-0.7,0c-0.2,0-0.3,0.1-0.3,0.3c0,0.1,0,0.1,0,0.2
	c0,0.2,0.1,0.3,0.3,0.3c0.1,0,0.3,0.1,0.4,0.1c0.1,0,0.2,0.1,0.3,0.1c0,0,0.3,0.1,0.2,0.1c0.3,0.2,0.7,0.4,1,0.6
	c0.4,0.2,0.7-0.3,0.3-0.5c-0.6-0.3-1.4-0.9-2.2-0.9c0.1,0.1,0.2,0.2,0.3,0.3c0-0.1,0-0.1,0-0.2c-0.1,0.1-0.2,0.2-0.3,0.3
	c0.5,0,0.9,0,1.2-0.3c0.2-0.2,0.3-0.3,0.3-0.6c0-0.2-0.1,0.1,0,0c0,0,0-0.1,0.1-0.1c0.1-0.1,0-0.3,0-0.4c-0.1,0.1-0.2,0.2-0.3,0.3
	c0.1,0,0.1,0,0.2,0c-0.1-0.1-0.2-0.2-0.3-0.3c0,0.2,0.1,0.3,0.1,0.5c0,0.2,0.1,0.4,0.1,0.6c0.1,0.4,0.2,0.8,0.2,1.1
	C62.9,32.5,63.5,32.3,63.4,31.9z"/>
<path d="M61.8,21.7c0.7,0,1.4,0,2.1,0c0.6,0,0.1-0.2,0.1-0.2c0,0.2,0,0.5,0,0.7c0,1.7,0,3.4,0,5.1c0,1.7,0,3.4,0,5.1
	c0,0.8-0.1,0.5,0.2,0.5c-0.8,0-1.6,0-2.3,0c-0.4,0-0.4,0.6,0,0.6c0.8,0,1.6,0,2.4,0c0.2,0,0.3-0.1,0.3-0.3c0-3.9,0-7.8,0-11.7
	c0-0.2-0.1-0.3-0.3-0.3c-0.8,0-1.6,0-2.4,0C61.4,21,61.4,21.7,61.8,21.7L61.8,21.7z"/>
<polygon fill-rule="evenodd" clip-rule="evenodd" points="67.6,27.2 67.6,26.9 67.5,26.7 67.4,26.5 67.3,26.4 67.1,26.1 66.9,26 
	66.6,25.9 66.4,25.9 66.2,25.9 66,26 65.8,26.1 65.5,26.4 65.4,26.5 65.3,26.7 65.2,26.9 65.2,27.2 65.2,27.5 65.3,27.7 65.4,27.9 
	65.5,28 65.8,28.2 66,28.4 66.2,28.5 66.4,28.5 66.6,28.5 66.9,28.4 67.1,28.2 67.3,28 67.4,27.9 67.5,27.7 67.6,27.5 67.6,27.2 "/>
<path d="M68,27.2c0-0.8-0.6-1.6-1.5-1.6c-0.9,0-1.6,0.8-1.6,1.6c0,0.8,0.7,1.6,1.5,1.6C67.2,28.8,68,28.1,68,27.2
	c0-0.4-0.6-0.4-0.6,0c0,0.1,0,0.1,0,0.2c0-0.2,0,0-0.1,0.1c-0.1,0.1-0.1,0.2-0.2,0.3c-0.1,0.1-0.2,0.2-0.4,0.3
	c-0.1,0-0.1,0.1-0.2,0.1c0.2-0.1,0,0-0.1,0c-0.1,0-0.1,0-0.2,0c0.2,0,0,0-0.1-0.1C66,28,65.9,28,65.8,27.8c-0.1-0.1-0.1-0.2-0.2-0.3
	c0-0.1-0.1-0.3-0.1-0.1c0-0.1,0-0.1,0-0.2c0-0.1,0-0.2,0-0.3c0,0.2,0,0,0.1-0.1c0.1-0.1,0.1-0.2,0.2-0.3c0.1-0.1,0.2-0.2,0.4-0.3
	c0.1,0,0.1-0.1,0.2-0.1c-0.2,0.1,0,0,0.1,0c0.1,0,0.1,0,0.2,0c-0.2,0,0,0,0.1,0.1c0.2,0.1,0.2,0.1,0.4,0.3c0.1,0.1,0.1,0.2,0.2,0.3
	c0,0.1,0.1,0.3,0.1,0.1c0,0.1,0,0.2,0,0.3C67.3,27.6,68,27.6,68,27.2z"/>
<rect id="_x3C_Slice_x3E__101_" fill="none" width="31.3" height="34.9"/>
<rect id="_x3C_Slice_x3E__100_" x="31.3" fill="none" width="54.2" height="34.9"/>
</svg>
