<?xml version="1.0" encoding="utf-8"?>
<!-- Generator: Adobe Illustrator 15.0.2, SVG Export Plug-In  -->
<!DOCTYPE svg PUBLIC "-//W3C//DTD SVG 1.1//EN" "http://www.w3.org/Graphics/SVG/1.1/DTD/svg11.dtd" [
	<!ENTITY ns_flows "http://ns.adobe.com/Flows/1.0/">
]>
<svg version="1.1"
	 xmlns="http://www.w3.org/2000/svg" xmlns:xlink="http://www.w3.org/1999/xlink" xmlns:a="http://ns.adobe.com/AdobeSVGViewerExtensions/3.0/"
	 x="0px" y="0px" width="35px" height="51px" viewBox="48 0.4 35 51" overflow="visible" enable-background="new 48 0.4 35 51"
	 xml:space="preserve">
<defs>
</defs>
<polygon fill-rule="evenodd" clip-rule="evenodd" points="76.6,30.6 76.5,30.5 76.4,30.3 76.3,30.2 76.1,30.2 75.9,30.2 75.8,30.3 
	75.6,30.5 75.5,30.6 75.6,30.8 75.8,31 75.9,31.2 76.1,31.2 76.3,31.2 76.4,31 76.5,30.8 76.6,30.6 "/>
<path d="M76.9,30.4C76.8,30.4,76.8,30.3,76.9,30.4c-0.1-0.1,0,0-0.1-0.1c0-0.1-0.1-0.2-0.1-0.2c-0.2-0.2-0.3-0.2-0.5-0.2
	c-0.2,0-0.4,0-0.5,0.2c-0.1,0.1-0.1,0.1-0.1,0.2c0,0-0.1,0.1,0,0c0,0-0.1,0.1-0.1,0.1c-0.1,0.1-0.1,0.3,0,0.4
	c0.1,0.1,0.1,0.3,0.2,0.4c0.1,0.2,0.4,0.3,0.6,0.3s0.5,0,0.6-0.3c0.1-0.1,0.1-0.3,0.2-0.4c0.2-0.4-0.4-0.7-0.5-0.3
	c0,0.1-0.1,0.2-0.1,0.3c0,0.1-0.1,0.1-0.1,0.2c0.1-0.1,0,0-0.1,0.1c0.1,0,0.1-0.1,0.2-0.1c-0.1,0-0.3,0-0.4,0c0.1,0,0.1,0.1,0.2,0.1
	c0,0-0.1-0.2-0.1-0.1c0-0.1-0.1-0.1-0.1-0.2c0-0.1-0.1-0.2-0.1-0.3c0,0.1,0,0.3,0,0.4c0.1-0.1,0.1-0.1,0.2-0.2c0,0,0-0.1,0.1-0.1
	c-0.1,0.1,0,0,0.1-0.1c-0.1,0-0.1,0.1-0.2,0.1c0.1,0,0.3,0,0.4,0c-0.1,0-0.1-0.1-0.2-0.1c0,0,0.1,0.1,0.1,0.1c-0.1-0.1,0,0.1,0,0.1
	c0,0.1,0.1,0.2,0.2,0.2C76.7,31.1,77.2,30.7,76.9,30.4z"/>
<path d="M71.9,33.5c1.5-2.5,3-5,4.4-7.4c-0.2,0-0.4,0-0.5,0c1.4,2.5,2.9,5,4.3,7.4c0.1-0.2,0.2-0.3,0.3-0.5c-2.9,0-5.9,0-8.8,0
	c-0.4,0-0.4,0.6,0,0.6c2.9,0,5.9,0,8.8,0c0.2,0,0.4-0.3,0.3-0.5c-1.4-2.5-2.9-5-4.3-7.4c-0.1-0.2-0.4-0.2-0.5,0
	c-1.5,2.5-3,5-4.4,7.4C71.2,33.6,71.7,33.9,71.9,33.5L71.9,33.5z"/>
<rect id="_x3C_Slice_x3E__103_" y="51.2" fill="none" width="48.2" height="59.3"/>
<rect id="_x3C_Slice_x3E__102_" x="48.2" y="51.2" fill="none" width="34.8" height="59.3"/>
<rect id="_x3C_Slice_x3E__101_" fill="none" width="48.2" height="51.2"/>
<rect id="_x3C_Slice_x3E__100_" x="48.2" fill="none" width="34.8" height="51.2"/>
</svg>
