<?xml version="1.0" encoding="utf-8"?>
<!-- Generator: Adobe Illustrator 15.0.2, SVG Export Plug-In  -->
<!DOCTYPE svg PUBLIC "-//W3C//DTD SVG 1.1//EN" "http://www.w3.org/Graphics/SVG/1.1/DTD/svg11.dtd" [
	<!ENTITY ns_flows "http://ns.adobe.com/Flows/1.0/">
]>
<svg version="1.1"
	 xmlns="http://www.w3.org/2000/svg" xmlns:xlink="http://www.w3.org/1999/xlink" xmlns:a="http://ns.adobe.com/AdobeSVGViewerExtensions/3.0/"
	 x="0px" y="0px" width="56px" height="34px" viewBox="48.9 0.9 56 34" overflow="visible" enable-background="new 48.9 0.9 56 34"
	 xml:space="preserve">
<defs>
</defs>
<path d="M73.7,24.2c0,3.2,0,6.4,0,9.7c0,0.4,0.6,0.4,0.6,0c0-3.2,0-6.4,0-9.7C74.3,23.8,73.7,23.8,73.7,24.2L73.7,24.2z"/>
<path d="M80.5,32.4c-0.6-0.7-1.1-1.4-1.7-2.1c-0.4-0.4-0.7-0.9-1.1-1.3c-0.1-0.1-0.2-0.3-0.3-0.4c-0.2-0.2-0.2,0.5,0,0.3
	c1.2-1.5,2.5-2.9,3.7-4.4c0.2-0.2,0.1-0.5-0.2-0.5c-2.7,0-5.5,0-8.2,0c-0.4,0-0.4,0.6,0,0.6c2.7,0,5.5,0,8.2,0
	c-0.1-0.2-0.1-0.4-0.2-0.5c-1.3,1.5-2.5,3-3.8,4.4c-0.1,0.1-0.1,0.3,0,0.4c1.1,1.3,2.1,2.6,3.2,3.9C80.3,33.1,80.7,32.7,80.5,32.4
	L80.5,32.4z"/>
<polygon fill-rule="evenodd" clip-rule="evenodd" points="81.4,33.9 81,32.8 80.9,32.1 80.9,31.8 80.8,31.7 80.8,31.7 80.7,31.6 
	80.7,31.7 80.6,31.7 80.6,31.9 80.6,32.1 80.5,32.2 80.4,32.5 80.2,32.6 80.1,32.7 79.9,32.8 79.8,32.8 79.6,32.8 79.4,32.8 
	79.2,32.8 79.2,32.9 79.2,33 79.4,33 79.7,33.1 80.4,33.4 81.4,33.9 "/>
<path d="M81.7,33.8c-0.1-0.4-0.3-0.8-0.4-1.2c-0.1-0.3-0.1-0.5-0.1-0.7c0-0.2-0.1-0.4-0.3-0.5c-0.2-0.2-0.5-0.1-0.5,0.2
	c0,0,0,0.1,0,0.1c0.1-0.1,0.2-0.2,0.3-0.3c0,0-0.1,0-0.1,0c-0.2,0-0.3,0.1-0.3,0.3c0,0.1,0,0.1,0,0.2c0,0.2-0.1,0.2,0.1,0
	c-0.1,0.1-0.2,0.3-0.3,0.4c0,0-0.1,0.1-0.1,0.1c0,0-0.1,0.1-0.2,0.1c0.1-0.1,0,0,0,0c-0.2,0-0.3,0-0.5,0c-0.2,0-0.3,0.1-0.3,0.3
	c0,0.1,0,0.1,0,0.2c0,0.2,0.1,0.3,0.3,0.3c0.3,0,0.7,0.2,1,0.3c-0.1,0,0,0,0.1,0c0.1,0.1,0.2,0.1,0.3,0.2c0.2,0.1,0.4,0.2,0.5,0.3
	c0.4,0.2,0.7-0.3,0.3-0.5c-0.3-0.2-0.7-0.5-1.1-0.6c-0.4-0.1-0.8-0.3-1.2-0.3c0.1,0.1,0.2,0.2,0.3,0.3c0-0.1,0-0.1,0-0.2
	c-0.1,0.1-0.2,0.2-0.3,0.3c0.5,0,0.9,0,1.2-0.3c0.1-0.1,0.2-0.3,0.3-0.4c0.2-0.2,0.1-0.5,0.1-0.7c-0.1,0.1-0.2,0.2-0.3,0.3
	c0,0,0.1,0,0.1,0c0.2,0,0.3-0.1,0.3-0.3c0,0,0-0.1,0-0.1c-0.2,0.1-0.4,0.1-0.5,0.2c0.1,0.1,0.1,0.1,0.2,0.2c0-0.2-0.1-0.2-0.1-0.1
	c0,0.1,0,0.1,0,0.2c0,0.2,0.1,0.5,0.1,0.7c0.1,0.4,0.2,0.8,0.3,1.2C81.2,34.4,81.8,34.2,81.7,33.8z"/>
<polygon fill-rule="evenodd" clip-rule="evenodd" points="77.9,21.8 77.9,21.5 77.9,21.2 77.7,21 77.6,20.9 77.4,20.7 77.2,20.6 
	76.9,20.6 76.7,20.5 76.5,20.6 76.2,20.6 76,20.7 75.8,20.9 75.7,21 75.6,21.2 75.5,21.5 75.5,21.8 75.5,22 75.6,22.2 75.7,22.5 
	75.8,22.7 76,22.8 76.2,22.9 76.5,23 76.7,23 76.9,23 77.2,22.9 77.4,22.8 77.6,22.7 77.7,22.5 77.9,22.2 77.9,22 77.9,21.8 "/>
<path d="M78.2,21.8c0-0.2,0-0.4,0-0.6c0-0.2-0.3-0.4-0.4-0.5c-0.1-0.1-0.3-0.3-0.4-0.4c-0.1-0.1-0.3,0-0.4,0c-0.1,0-0.1,0,0,0
	c-0.1,0-0.1-0.1-0.2-0.1c-0.1-0.1-0.2,0-0.4,0c-0.1,0-0.1,0.1-0.2,0.1c0.2-0.1,0,0-0.1,0c-0.2,0-0.4,0.1-0.6,0.3
	c-0.3,0.3-0.6,0.7-0.6,1.1c0,0.5,0.2,0.8,0.4,1.2c0.1,0.3,0.9,0.5,1.2,0.5c0.4,0,0.8-0.1,1.1-0.4c0.1-0.1,0.1-0.2,0.1-0.2
	c0.1-0.1,0.2-0.2,0.2-0.3C78.3,22.2,78.2,22,78.2,21.8c0-0.4-0.6-0.4-0.6,0c0,0.1,0,0.2,0,0.3c0,0.2-0.1,0.1,0.1,0
	c-0.1,0.1-0.1,0.1-0.2,0.2c0,0-0.1,0.1-0.1,0.1c0,0.1-0.2,0.2,0,0.1c-0.1,0.1-0.2,0.1-0.3,0.2c0.1-0.1-0.1,0-0.2,0.1
	c0,0-0.2,0-0.3,0c-0.2,0,0.2,0.1-0.1,0c0,0-0.1,0-0.1-0.1c-0.1-0.1-0.2-0.1-0.4-0.2c0.1,0.1,0-0.1-0.1-0.2c-0.1-0.1-0.1-0.2-0.2-0.4
	c0.1,0.2,0-0.1,0-0.2c0-0.1,0.1-0.3,0-0.1c0-0.1,0.1-0.1,0.1-0.2c0.1-0.2,0.2-0.4,0.4-0.5c0.1,0,0.2,0,0.1,0c0.1,0,0.1,0,0.2,0
	c0.1,0,0.3-0.1,0.4-0.2c-0.1,0-0.2,0-0.3,0c0.2,0.1,0.3,0.2,0.5,0.2c0.3,0,0-0.1,0.1,0c0.1,0.1,0.2,0.2,0.2,0.2
	c0.1,0.1,0.2,0.2,0.3,0.3c-0.1-0.1-0.1-0.2-0.1,0c0,0.1,0,0.2,0,0.3C77.6,22.2,78.2,22.2,78.2,21.8z"/>
<rect id="_x3C_Slice_x3E__101_" fill="none" width="49.2" height="34.9"/>
<rect id="_x3C_Slice_x3E__100_" x="49.2" fill="none" width="56.2" height="34.9"/>
</svg>
