<?xml version="1.0" encoding="utf-8"?>
<!-- Generator: Adobe Illustrator 15.0.2, SVG Export Plug-In  -->
<!DOCTYPE svg PUBLIC "-//W3C//DTD SVG 1.1//EN" "http://www.w3.org/Graphics/SVG/1.1/DTD/svg11.dtd" [
	<!ENTITY ns_flows "http://ns.adobe.com/Flows/1.0/">
]>
<svg version="1.1"
	 xmlns="http://www.w3.org/2000/svg" xmlns:xlink="http://www.w3.org/1999/xlink" xmlns:a="http://ns.adobe.com/AdobeSVGViewerExtensions/3.0/"
	 x="0px" y="0px" width="35px" height="35px" viewBox="48 0 35 35" overflow="visible" enable-background="new 48 0 35 35"
	 xml:space="preserve">
<defs>
</defs>
<path d="M70.9,12.5C69.3,9.3,69,5.1,70.9,2c0.2-0.3-0.3-0.7-0.5-0.3c-2,3.3-1.7,7.7,0,11.1C70.6,13.2,71.1,12.8,70.9,12.5L70.9,12.5
	z"/>
<path d="M81.7,12.8c1.8-3.5,1.8-7.6,0-11.1c-0.2-0.4-0.7,0-0.5,0.3c1.7,3.3,1.7,7.1,0,10.5C81,12.8,81.5,13.2,81.7,12.8L81.7,12.8z"
	/>
<path d="M73.9,11.8c1.1,0.8,2,1.2,3.2,0.6c1-0.5,2-2.4,1.3-3.5c-0.4-0.6-1-1.4-1.6-1.8c-0.8-0.6-1.9-0.9-2.4-1.8
	c-1.2-1.8,1.9-3.7,3.1-1.9c0.2,0.3,0.8,0,0.5-0.3c-2.2-3.3-6.8,1.7-3.1,3.5c1.7,0.9,3.6,2.4,2.6,4.5c-0.7,1.5-2.3,1-3.4,0.2
	C73.9,11,73.6,11.6,73.9,11.8L73.9,11.8z"/>
<polygon fill-rule="evenodd" clip-rule="evenodd" points="80.9,6.8 79.9,6.3 79.4,6 79.1,5.9 79,5.8 78.9,5.9 78.9,5.9 78.9,6 
	79,6.1 79.1,6.3 79.2,6.4 79.2,6.5 79.2,6.8 79.2,6.9 79.2,7.1 79.1,7.2 79,7.3 78.9,7.5 78.9,7.5 78.9,7.6 79,7.6 79.1,7.6 
	79.4,7.4 79.9,7.2 80.9,6.8 "/>
<path d="M81,6.5c-0.3-0.1-0.7-0.3-1-0.4c-0.2-0.1-0.3-0.2-0.4-0.3c-0.1,0-0.2-0.1-0.2-0.1c-0.1,0-0.1,0-0.2-0.1c0.2,0.1,0.1,0,0,0
	c-0.1-0.1-0.3-0.1-0.4,0c-0.4,0.4-0.1,0.8,0.2,1.1c0-0.1-0.1-0.1-0.1-0.2c0,0.2,0,0.4,0,0.7c0-0.1,0.1-0.1,0.1-0.2
	c-0.2,0.2-0.4,0.4-0.4,0.8c0,0.2,0.1,0.3,0.3,0.3c0.4,0,0.7-0.3,1.1-0.4C80.3,7.3,80.7,7.2,81,7c0.4-0.2,0-0.7-0.3-0.5
	c-0.3,0.1-0.7,0.3-1,0.5c-0.2,0.1-0.3,0.2-0.5,0.3c-0.1,0.1-0.2,0.1-0.3,0.2c0.1-0.1,0.2,0,0,0c0,0-0.1,0-0.1,0
	c0.1,0.1,0.2,0.2,0.3,0.3c0-0.2-0.1,0.1,0-0.1c0-0.1,0.1-0.1,0.2-0.2c0.2-0.2,0.1-0.4,0.1-0.6c0-0.2,0-0.4,0-0.5
	c-0.1-0.2-0.2-0.4-0.4-0.5c0,0.1,0.1,0.1,0.1,0.2c0,0,0-0.1,0-0.1c0,0.1-0.1,0.1-0.1,0.2c0,0,0.1-0.1,0.1-0.1c-0.1,0-0.3,0-0.4,0
	c0.2,0.2,0.3,0.2,0.5,0.3c0.1,0,0.1,0,0,0c0,0,0.1,0.1,0.1,0.1c0.1,0.1,0.2,0.2,0.3,0.2c0.3,0.2,0.7,0.3,1,0.5
	C81.1,7.2,81.4,6.6,81,6.5z"/>
<path d="M79.2,6.4c-2.6,0-5.2,0-7.8,0c-0.4,0-0.4,0.6,0,0.6c2.6,0,5.2,0,7.8,0C79.6,7.1,79.6,6.4,79.2,6.4L79.2,6.4z"/>
<rect id="_x3C_Slice_x3E__103_" y="34.2" fill="none" width="48.2" height="54.2"/>
<rect id="_x3C_Slice_x3E__102_" x="48.2" y="34.2" fill="none" width="34.8" height="54.2"/>
<rect id="_x3C_Slice_x3E__101_" fill="none" width="48.2" height="34.2"/>
<rect id="_x3C_Slice_x3E__100_" x="48.2" fill="none" width="34.8" height="34.2"/>
</svg>
