<?xml version="1.0" encoding="utf-8"?>
<!-- Generator: Adobe Illustrator 15.0.2, SVG Export Plug-In  -->
<!DOCTYPE svg PUBLIC "-//W3C//DTD SVG 1.1//EN" "http://www.w3.org/Graphics/SVG/1.1/DTD/svg11.dtd" [
	<!ENTITY ns_flows "http://ns.adobe.com/Flows/1.0/">
]>
<svg version="1.1"
	 xmlns="http://www.w3.org/2000/svg" xmlns:xlink="http://www.w3.org/1999/xlink" xmlns:a="http://ns.adobe.com/AdobeSVGViewerExtensions/3.0/"
	 x="0px" y="0px" width="35px" height="34px" viewBox="48 0.9 35 34" overflow="visible" enable-background="new 48 0.9 35 34"
	 xml:space="preserve">
<defs>
</defs>
<path d="M73,24.4c0,3.2,0,6.4,0,9.7c0,0.4,0.6,0.4,0.6,0c0-3.2,0-6.4,0-9.7C73.6,23.9,73,23.9,73,24.4L73,24.4z"/>
<path d="M77.6,33c0.7-0.9,1.4-1.7,2.1-2.6c0.1-0.1,0.1-0.3,0-0.4c-0.5-0.4-1-0.8-1.5-1.2c-0.4-0.3-0.7-0.6-1.1-0.9
	c-0.5-0.4-0.2,0-0.3,0.1c1.2-1.1,2.3-2.2,3.5-3.4c0.2-0.2,0-0.5-0.2-0.5c-2.7,0-5.4,0-8.1,0c-0.4,0-0.4,0.6,0,0.6c2.7,0,5.4,0,8.1,0
	c-0.1-0.2-0.1-0.4-0.2-0.5c-1.2,1.1-2.4,2.3-3.6,3.4c-0.1,0.1-0.1,0.3,0,0.4c1,0.8,1.9,1.6,2.9,2.4c0.1,0.1,0.2-0.5-0.1-0.1
	c-0.2,0.3-0.5,0.6-0.7,0.9c-0.4,0.5-0.8,0.9-1.2,1.4C76.9,32.9,77.4,33.3,77.6,33L77.6,33z"/>
<path d="M75.7,20.2c-0.6,1.1-1.3,2.3-1.9,3.4c-0.1,0.2,0,0.5,0.3,0.5c1.3,0,2.6,0,3.9,0c0.2,0,0.4-0.3,0.3-0.5
	c-0.7-1.1-1.3-2.3-2-3.4c-0.2-0.3-0.7,0-0.5,0.3c0.7,1.1,1.3,2.3,2,3.4c0.1-0.2,0.2-0.3,0.3-0.5c-1.3,0-2.6,0-3.9,0
	c0.1,0.2,0.2,0.3,0.3,0.5c0.6-1.1,1.3-2.3,1.9-3.4C76.4,20.2,75.9,19.8,75.7,20.2L75.7,20.2z"/>
<polygon fill-rule="evenodd" clip-rule="evenodd" points="76.4,34 77.3,33.6 77.9,33.4 78.2,33.2 78.3,33.1 78.3,33 78.3,33 
	78.2,32.9 78.1,33 77.9,32.9 77.8,32.9 77.5,32.9 77.4,32.8 77.3,32.7 77.2,32.5 77.2,32.4 77.1,32.1 77.1,32 77.1,31.9 77,31.9 
	76.9,31.9 76.9,32 76.8,32.4 76.6,33 76.4,34 "/>
<path d="M76.6,34.3c0.2-0.1,0.4-0.2,0.7-0.3c0,0,0.3-0.1,0.2-0.1c0.1-0.1,0.3-0.1,0.4-0.2c0.2-0.1,0.4-0.1,0.6-0.3
	c0.2-0.2,0.2-0.5,0-0.7c-0.1-0.1-0.3-0.1-0.4,0c0,0-0.1,0.1-0.1,0.1c0.1,0,0.3,0,0.4,0c-0.3-0.1-0.4-0.2-0.7-0.2
	c0.1,0,0.1,0.1,0.2,0.1c-0.1-0.1-0.1-0.1-0.2-0.2c0,0,0-0.3,0-0.1c0-0.1,0-0.2-0.1-0.3c0-0.1,0-0.2,0,0c0-0.1,0-0.1,0-0.2
	c0-0.2-0.1-0.3-0.3-0.3c-0.1,0-0.1,0-0.2,0c-0.2,0-0.3,0.1-0.3,0.3c0,0.1-0.1,0.3-0.1,0.4c0,0.2-0.1,0.4-0.1,0.6
	c-0.1,0.3-0.1,0.7-0.2,1c-0.1,0.4,0.5,0.6,0.6,0.2c0.1-0.3,0.2-0.7,0.2-1c0-0.2,0.1-0.4,0.1-0.6c0-0.2,0.1-0.3,0.1-0.5
	c-0.1,0.1-0.2,0.2-0.3,0.3c0.1,0,0.1,0,0.2,0c-0.1-0.1-0.2-0.2-0.3-0.3c0,0.2,0,0.3,0.1,0.5c0,0.1,0,0.1,0,0c0,0.1,0,0.1,0,0.2
	c0,0.1,0.1,0.1,0.1,0.2c0.1,0.1,0.3,0.4,0.5,0.4c0.1,0,0.2,0,0.3,0c-0.2,0,0,0,0.1,0.1c0.1,0.1,0.3,0.1,0.4,0c0,0,0.1-0.1,0.1-0.1
	c-0.1,0-0.3,0-0.4,0c0,0,0.1,0.1,0.1,0.1c0-0.1-0.1-0.1-0.1-0.2c0,0,0,0.1,0,0.1c0-0.1,0.1-0.1,0.1-0.2c-0.2,0.2,0.1,0,0,0.1
	C78,33,77.9,33,77.8,33c-0.2,0.1-0.4,0.1-0.5,0.2c-0.3,0.1-0.7,0.3-1,0.5C75.9,33.9,76.2,34.5,76.6,34.3z"/>
<rect id="_x3C_Slice_x3E__101_" fill="none" width="48.2" height="34.9"/>
<rect id="_x3C_Slice_x3E__100_" x="48.2" fill="none" width="34.8" height="34.9"/>
</svg>
