<?xml version="1.0" encoding="utf-8"?>
<!-- Generator: Adobe Illustrator 15.0.2, SVG Export Plug-In  -->
<!DOCTYPE svg PUBLIC "-//W3C//DTD SVG 1.1//EN" "http://www.w3.org/Graphics/SVG/1.1/DTD/svg11.dtd" [
	<!ENTITY ns_flows "http://ns.adobe.com/Flows/1.0/">
]>
<svg version="1.1"
	 xmlns="http://www.w3.org/2000/svg" xmlns:xlink="http://www.w3.org/1999/xlink" xmlns:a="http://ns.adobe.com/AdobeSVGViewerExtensions/3.0/"
	 x="0px" y="0px" width="54px" height="51px" viewBox="31 0.4 54 51" overflow="visible" enable-background="new 31 0.4 54 51"
	 xml:space="preserve">
<defs>
</defs>
<polygon fill-rule="evenodd" clip-rule="evenodd" points="59.5,29.6 59.5,29.5 59.4,29.3 59.3,29.2 59.1,29.2 58.9,29.2 58.8,29.3 
	58.6,29.5 58.5,29.6 58.6,29.8 58.8,30 58.9,30.2 59.1,30.2 59.3,30.2 59.4,30 59.5,29.8 59.5,29.6 "/>
<path d="M59.9,29.6c0-0.2-0.1-0.3-0.2-0.5c-0.1-0.2-0.4-0.3-0.6-0.3c-0.2,0-0.4,0-0.5,0.2c-0.1,0.1-0.1,0.1-0.1,0.2
	c0,0-0.1,0.1,0,0.1c0,0-0.1,0.1-0.1,0.1c-0.1,0.1-0.1,0.3,0,0.4c0.1,0.1,0.1,0.3,0.2,0.4c0.1,0.2,0.4,0.3,0.6,0.3s0.5,0,0.6-0.3
	c0-0.1,0.1-0.1,0.1-0.2C59.9,29.9,59.9,29.7,59.9,29.6c0-0.4-0.6-0.4-0.6,0c0,0,0,0.1,0,0.1c0,0.2,0.1-0.2,0,0c0,0,0,0.1-0.1,0.1
	c0.1-0.1,0,0-0.1,0.1c0.1,0,0.1-0.1,0.2-0.1c-0.1,0-0.3,0-0.4,0c0.1,0,0.1,0.1,0.2,0.1c0,0-0.1-0.2-0.1-0.1c0-0.1-0.1-0.1-0.1-0.2
	c0-0.1-0.1-0.2-0.1-0.3c0,0.1,0,0.3,0,0.4c0.1-0.1,0.1-0.1,0.2-0.2c0,0,0-0.1,0.1-0.1c-0.1,0.1,0,0,0.1-0.1c-0.1,0-0.1,0.1-0.2,0.1
	c0.1,0,0.3,0,0.4,0c-0.1,0-0.1-0.1-0.2-0.1c0,0,0,0,0.1,0.1c0.1,0.1,0-0.1,0,0c0,0,0,0.1,0.1,0.1c-0.1-0.2,0-0.1,0,0
	C59.2,30,59.9,30,59.9,29.6z"/>
<path d="M60.6,29.3c-1,0-2.1,0-3.1,0c-0.4,0-0.4,0.6,0,0.6c1,0,2.1,0,3.1,0C61.1,29.9,61.1,29.3,60.6,29.3L60.6,29.3z"/>
<path d="M59.6,28.1c-0.5,0.9-1,1.9-1.6,2.8c-0.2,0.4,0.3,0.7,0.5,0.3c0.5-0.9,1-1.9,1.6-2.8C60.3,28.1,59.8,27.8,59.6,28.1
	L59.6,28.1z"/>
<path d="M60.1,30.9c-0.5-0.9-1-1.9-1.6-2.8c-0.2-0.4-0.7,0-0.5,0.3c0.5,0.9,1,1.9,1.6,2.8C59.8,31.6,60.3,31.2,60.1,30.9L60.1,30.9z
	"/>
<polygon fill-rule="evenodd" clip-rule="evenodd" points="63.5,29.6 63.4,29.5 63.3,29.3 63.2,29.2 63,29.2 62.8,29.2 62.6,29.3 
	62.5,29.5 62.5,29.6 62.5,29.8 62.6,30 62.8,30.2 63,30.2 63.2,30.2 63.3,30 63.4,29.8 63.5,29.6 "/>
<path d="M63.8,29.4C63.7,29.4,63.7,29.3,63.8,29.4c-0.1-0.1,0,0-0.1-0.1c0-0.1-0.1-0.2-0.2-0.3c-0.2-0.2-0.3-0.2-0.6-0.2
	c-0.2,0-0.5,0-0.6,0.3c-0.1,0.2-0.1,0.3-0.1,0.6c0,0.2,0.1,0.4,0.2,0.6c0.1,0.1,0.2,0.2,0.3,0.2c0.1,0,0.2,0,0.2,0
	c0.2,0,0.5,0,0.6-0.3c0.1-0.1,0.1-0.3,0.2-0.4c0.2-0.4-0.4-0.7-0.5-0.3c0,0.1-0.1,0.2-0.1,0.3c0,0.1-0.1,0.1-0.1,0.2
	c0.1-0.1,0,0-0.1,0.1c0.1,0,0.1-0.1,0.2-0.1c-0.1,0-0.3,0-0.4,0c0.1,0,0.1,0.1,0.2,0.1c0,0-0.1-0.1-0.1-0.1c0.1,0.1,0,0,0-0.1
	c-0.1-0.1,0-0.1,0,0c0-0.1,0-0.1,0-0.2c0,0,0-0.1,0-0.1c0-0.1-0.1,0.2,0,0c0,0,0-0.1,0.1-0.1c-0.1,0.1,0,0,0.1-0.1
	c-0.1,0-0.1,0.1-0.2,0.1c0.1,0,0.3,0,0.4,0c-0.1,0-0.1-0.1-0.2-0.1c0,0,0.1,0.1,0.1,0.1c-0.1-0.1,0,0.1,0,0.1c0,0.1,0.1,0.2,0.2,0.2
	C63.6,30.1,64,29.7,63.8,29.4z"/>
<path d="M64.5,29.3c-1,0-2.1,0-3.1,0c-0.4,0-0.4,0.6,0,0.6c1,0,2.1,0,3.1,0C64.9,29.9,64.9,29.3,64.5,29.3L64.5,29.3z"/>
<path d="M63.5,28.1c-0.5,0.9-1,1.9-1.6,2.8c-0.2,0.4,0.3,0.7,0.5,0.3c0.5-0.9,1-1.9,1.6-2.8C64.2,28.1,63.7,27.8,63.5,28.1
	L63.5,28.1z"/>
<path d="M64,30.9c-0.5-0.9-1-1.9-1.6-2.8c-0.2-0.4-0.7,0-0.5,0.3c0.5,0.9,1,1.9,1.6,2.8C63.7,31.6,64.2,31.2,64,30.9L64,30.9z"/>
<rect id="_x3C_Slice_x3E__103_" y="51.2" fill="none" width="31.3" height="59.3"/>
<rect id="_x3C_Slice_x3E__102_" x="31.3" y="51.2" fill="none" width="54.2" height="59.3"/>
<rect id="_x3C_Slice_x3E__101_" fill="none" width="31.3" height="51.2"/>
<rect id="_x3C_Slice_x3E__100_" x="31.3" fill="none" width="54.2" height="51.2"/>
</svg>
