<?xml version="1.0" encoding="utf-8"?>
<!-- Generator: Adobe Illustrator 15.0.2, SVG Export Plug-In  -->
<!DOCTYPE svg PUBLIC "-//W3C//DTD SVG 1.1//EN" "http://www.w3.org/Graphics/SVG/1.1/DTD/svg11.dtd" [
	<!ENTITY ns_flows "http://ns.adobe.com/Flows/1.0/">
]>
<svg version="1.1"
	 xmlns="http://www.w3.org/2000/svg" xmlns:xlink="http://www.w3.org/1999/xlink" xmlns:a="http://ns.adobe.com/AdobeSVGViewerExtensions/3.0/"
	 x="0px" y="0px" width="35px" height="60px" viewBox="48 0.2 35 60" overflow="visible" enable-background="new 48 0.2 35 60"
	 xml:space="preserve">
<defs>
</defs>
<path d="M76.4,37.6c-0.7-2.1-1.5-4.1-2.2-6.2c-0.1,0.1-0.2,0.3-0.3,0.4c1.4,0,2.9,0,4.3,0c-0.1-0.1-0.2-0.3-0.3-0.4
	c-0.7,2.1-1.4,4.1-2.1,6.2c-0.1,0.4,0.5,0.5,0.6,0.2c0.7-2.1,1.4-4.1,2.1-6.2c0.1-0.2-0.1-0.4-0.3-0.4c-1.4,0-2.9,0-4.3,0
	c-0.2,0-0.4,0.2-0.3,0.4c0.7,2.1,1.5,4.1,2.2,6.2C75.9,38.2,76.5,38,76.4,37.6L76.4,37.6z"/>
<polygon fill-rule="evenodd" clip-rule="evenodd" points="76.1,27.2 73.9,30.8 78.2,30.8 76.1,27.2 "/>
<path d="M75.8,27c-0.7,1.2-1.5,2.4-2.2,3.7c-0.1,0.2,0,0.5,0.3,0.5c1.4,0,2.9,0,4.3,0c0.2,0,0.4-0.3,0.3-0.5
	c-0.7-1.2-1.4-2.4-2.1-3.7c-0.2-0.3-0.7,0-0.5,0.3c0.7,1.2,1.4,2.4,2.1,3.7c0.1-0.2,0.2-0.3,0.3-0.5c-1.4,0-2.9,0-4.3,0
	c0.1,0.2,0.2,0.3,0.3,0.5c0.7-1.2,1.5-2.4,2.2-3.7C76.6,27,76,26.7,75.8,27z"/>
<rect id="_x3C_Slice_x3E__103_" y="59.3" fill="none" width="48.2" height="34.9"/>
<rect id="_x3C_Slice_x3E__102_" x="48.2" y="59.3" fill="none" width="34.8" height="34.9"/>
<rect id="_x3C_Slice_x3E__101_" fill="none" width="48.2" height="59.3"/>
<rect id="_x3C_Slice_x3E__100_" x="48.2" fill="none" width="34.8" height="59.3"/>
</svg>
