<?xml version="1.0" encoding="utf-8"?>
<!-- Generator: Adobe Illustrator 15.0.2, SVG Export Plug-In  -->
<!DOCTYPE svg PUBLIC "-//W3C//DTD SVG 1.1//EN" "http://www.w3.org/Graphics/SVG/1.1/DTD/svg11.dtd" [
	<!ENTITY ns_flows "http://ns.adobe.com/Flows/1.0/">
]>
<svg version="1.1"
	 xmlns="http://www.w3.org/2000/svg" xmlns:xlink="http://www.w3.org/1999/xlink" xmlns:a="http://ns.adobe.com/AdobeSVGViewerExtensions/3.0/"
	 x="0px" y="0px" width="35px" height="63px" viewBox="48 0.9 35 63" overflow="visible" enable-background="new 48 0.9 35 63"
	 xml:space="preserve">
<defs>
</defs>
<polygon fill-rule="evenodd" clip-rule="evenodd" points="75.5,32.1 75.8,31.9 76,31.6 76.2,31.4 76.3,31.2 76.3,31.1 76.3,31 
	76.2,30.9 76,30.9 75.6,30.9 75.5,30.8 75.4,30.8 75.4,30.6 75.3,30.5 75.3,30.3 75.3,30.2 75.3,30.1 75.5,29.9 75.6,29.8 76,29.8 
	76.1,29.8 76.3,29.9 76.4,30 76.5,30.1 76.6,30.2 76.6,30.4 76.8,30.5 76.8,30.8 76.8,30.9 76.8,31.1 76.6,31.3 76.5,31.4 
	76.4,31.6 76.2,31.9 75.9,32.1 75.6,32.3 75.5,32.1 "/>
<path d="M75.8,32.3c0.4-0.4,0.9-0.7,0.9-1.3c0-0.4-0.3-0.5-0.6-0.5c-0.1,0-0.1,0-0.2,0c-0.2,0-0.2-0.1,0,0.1
	c-0.1-0.1-0.2-0.2-0.4-0.2c0.1,0.1,0.2,0.2,0.3,0.3c0-0.1,0-0.2-0.1-0.3c-0.2-0.2,0,0.2,0-0.1c0-0.2,0.1-0.2-0.1-0.1
	c0.1-0.1,0.2-0.2,0.2-0.2c0.1-0.1,0.1-0.1-0.1,0c0.1,0,0.2,0,0.3,0c0,0,0.1,0,0.1,0c-0.2,0,0,0,0.1,0.1c0,0,0.1,0.1,0.2,0.2
	c0,0,0.1,0.1,0.1,0.1c-0.1-0.1-0.1-0.2-0.1,0c0,0.1,0,0.2,0.1,0.3c0.1,0.1,0.1,0.1,0-0.1c0,0.1,0,0.1,0,0.2c0,0.1,0,0.2,0,0.3
	c0-0.2,0,0-0.1,0.1c-0.1,0.1-0.2,0.4-0.3,0.4c-0.2,0.1-0.4,0.3-0.6,0.5c0.2,0,0.3,0,0.5,0.1c0-0.1-0.1-0.1-0.1-0.2
	c-0.2-0.4-0.7,0-0.5,0.3c0,0.1,0.1,0.1,0.1,0.2c0.1,0.2,0.4,0.2,0.5,0.1c0.4-0.4,0.8-0.6,1.1-1.2c0.1-0.3,0.1-0.5,0.1-0.8
	c0-0.2-0.1-0.2-0.2-0.3c0.1,0.1,0.1,0.2,0.1,0c0-0.1,0-0.2-0.1-0.3c-0.2-0.2-0.3-0.4-0.6-0.5c-0.2-0.1-0.7-0.1-0.9,0
	c-0.2,0.2-0.4,0.4-0.4,0.7c0,0.1,0,0.2,0,0.3c0,0.1,0,0.2,0.1,0.2c0.2,0.2,0-0.1,0,0c0,0.2,0.1,0.3,0.3,0.3c0.1,0-0.2-0.2,0,0
	c0.1,0.1,0.2,0.1,0.3,0.1c0.1,0,0.2,0,0.3,0c0.1,0,0.1,0-0.1-0.1c0.2,0.2,0-0.2,0,0c0,0.1,0,0.1,0,0c0,0.1-0.1,0.1-0.1,0.2
	c0,0-0.1,0.1-0.2,0.2c-0.1,0.1-0.3,0.3-0.4,0.4C75,32.2,75.5,32.6,75.8,32.3z"/>
<polygon fill-rule="evenodd" clip-rule="evenodd" points="77.3,35.2 77.3,34.9 77.2,34.6 77.1,34.4 76.9,34.3 76.8,34.1 76.5,34 
	76.3,33.9 76.1,33.9 75.8,33.9 75.5,34 75.3,34.1 75.2,34.3 75,34.4 74.9,34.6 74.8,34.9 74.8,35.2 74.8,35.4 74.9,35.6 75,35.9 
	75.2,36 75.3,36.2 75.5,36.3 75.8,36.4 76.1,36.4 76.3,36.4 76.5,36.3 76.8,36.2 76.9,36 77.1,35.9 77.2,35.6 77.3,35.4 77.3,35.2 
	"/>
<path d="M77.6,35.2c0-0.5-0.1-0.9-0.6-1.1c0.1,0.1,0.1,0.1,0,0c0-0.1-0.1-0.1-0.1-0.2c-0.1-0.1-0.2-0.1-0.3-0.2
	c-0.2-0.1-0.4-0.2-0.6-0.2c-0.5,0-0.9,0.1-1.1,0.6c0.1-0.1,0.1-0.1,0,0c-0.1,0-0.1,0.1-0.2,0.1c-0.1,0.1-0.1,0.2-0.2,0.3
	c-0.1,0.2-0.2,0.4-0.2,0.7c0,0.4,0.2,0.9,0.6,1.1c-0.2-0.1,0,0.1,0.1,0.2c0.1,0.1,0.2,0.1,0.3,0.2c0.2,0.1,0.4,0.2,0.7,0.2
	c0.4,0,0.9-0.2,1.1-0.6c-0.1,0.1-0.1,0.1,0,0c0.1,0,0.1-0.1,0.2-0.1c0.1-0.1,0.1-0.2,0.2-0.3C77.6,35.6,77.6,35.4,77.6,35.2
	c0-0.4-0.6-0.4-0.6,0c0,0.1,0,0.1,0,0.2c0-0.2,0,0-0.1,0.1c0,0.1-0.2,0.2,0,0.1c-0.1,0-0.2,0.1-0.2,0.1c-0.1,0.1-0.1,0.2-0.1,0.3
	c0.1-0.1,0,0-0.1,0c-0.1,0-0.3,0.1-0.1,0.1c-0.1,0-0.1,0-0.2,0c-0.1,0-0.2,0-0.3,0c0.2,0,0,0-0.1-0.1c-0.1,0-0.2-0.2-0.1,0
	c0-0.1-0.1-0.2-0.1-0.3s-0.2-0.1-0.2-0.1c0.1,0.1,0,0,0-0.1c0-0.1-0.1-0.3-0.1-0.1c0-0.1,0-0.1,0-0.2c0-0.1,0-0.2,0-0.3
	c0,0.2,0,0,0.1-0.1c0-0.1,0.2-0.2,0-0.1c0.1,0,0.2-0.1,0.2-0.1s0.1-0.2,0.1-0.3c-0.1,0.1,0,0,0.1,0c0.1,0,0.3-0.1,0.1-0.1
	c0.1,0,0.2,0,0.3,0c0.1,0,0.1,0,0.2,0c-0.2,0,0,0,0.1,0.1c0.1,0,0.2,0.2,0.1,0c0,0.1,0.1,0.2,0.1,0.3c0.1,0.1,0.2,0.1,0.2,0.1
	c-0.1-0.1,0,0,0,0.1c0,0.1,0.1,0.3,0.1,0.1c0,0.1,0,0.2,0,0.3C77,35.6,77.6,35.6,77.6,35.2z"/>
<polygon fill-rule="evenodd" clip-rule="evenodd" points="75.5,40.3 75.8,40.1 76,39.9 76.2,39.6 76.3,39.5 76.3,39.3 76.3,39.2 
	76.2,39.1 76,39.1 75.6,39.1 75.5,39.1 75.4,39 75.4,38.9 75.3,38.8 75.3,38.5 75.3,38.4 75.3,38.3 75.5,38.2 75.6,38.1 76,38 
	76.1,38.1 76.3,38.1 76.4,38.2 76.5,38.3 76.6,38.5 76.6,38.6 76.8,38.8 76.8,39 76.8,39.2 76.8,39.3 76.6,39.5 76.5,39.8 
	76.4,39.9 76.2,40.1 75.9,40.3 75.6,40.5 75.5,40.3 "/>
<path d="M75.8,40.5c0.3-0.3,1.3-1,0.7-1.6c-0.2-0.2-0.3-0.2-0.5-0.2c-0.1,0-0.2,0-0.3,0c-0.2,0-0.2-0.1,0,0.1
	c-0.2-0.2,0.1,0.2,0-0.1c0-0.1-0.1-0.2-0.2-0.2c0.1,0.1,0.1,0.2,0.1,0c0-0.1,0-0.1,0-0.2c-0.1,0.1-0.1,0.2-0.2,0.3
	c0.1-0.1,0.2-0.1,0.3-0.2c0.2-0.2-0.2,0,0,0c0.1,0,0.2-0.1,0.2-0.1c-0.1,0-0.2-0.1-0.3-0.1c0.1,0.1,0.2,0.2,0.4,0.2
	c0.2,0,0.1,0.1,0-0.1c0.1,0.1,0.1,0.1,0.2,0.2c0,0,0.1,0.2,0.1,0.2c-0.1-0.2,0,0.1,0,0.1c0,0,0,0.1,0.1,0.1c0.1,0.1,0.1,0.1,0-0.1
	c0,0.1,0,0.1,0,0.2c0,0.1,0,0.1,0,0.2c0,0.1,0,0.1,0,0c0,0.1-0.1,0.1-0.1,0.2c-0.1,0.1-0.1,0.2-0.2,0.3c-0.2,0.2-0.5,0.4-0.8,0.6
	c0.2,0,0.3,0,0.5,0.1c0-0.1-0.1-0.1-0.1-0.2c-0.2-0.4-0.7,0-0.5,0.3c0,0.1,0.1,0.1,0.1,0.2c0.1,0.2,0.4,0.2,0.5,0.1
	c0.5-0.5,1.2-0.8,1.2-1.7c0-0.2,0-0.4,0-0.5c0,0,0-0.1-0.1-0.1c-0.1-0.1-0.1-0.1,0,0.1c0-0.1,0-0.2-0.1-0.3
	c-0.1-0.2-0.2-0.3-0.3-0.4c-0.1-0.1-0.2-0.1-0.3-0.1c-0.3,0,0.1,0.2-0.1,0c-0.1-0.1-0.2-0.1-0.3-0.1c-0.3,0.1-0.5,0.2-0.7,0.4
	c-0.1,0-0.2,0.2-0.2,0.3c0,0.1,0,0.3,0,0.4c0,0.1,0,0.1,0,0.2c0,0,0,0.1,0.1,0.1c0.1,0.1,0.1,0.1,0-0.1c0,0.4,0.4,0.5,0.8,0.5
	c0.1,0,0.1,0,0.2,0c0.3,0-0.1-0.1,0,0c-0.1-0.1-0.1-0.2-0.1,0c0,0.2,0.2-0.2,0,0c-0.2,0.2-0.4,0.4-0.7,0.7
	C75,40.4,75.5,40.8,75.8,40.5z"/>
<rect id="_x3C_Slice_x3E__103_" y="63.3" fill="none" width="48.2" height="50.2"/>
<rect id="_x3C_Slice_x3E__102_" x="48.2" y="63.3" fill="none" width="34.8" height="50.2"/>
<rect id="_x3C_Slice_x3E__101_" fill="none" width="48.2" height="63.3"/>
<rect id="_x3C_Slice_x3E__100_" x="48.2" fill="none" width="34.8" height="63.3"/>
</svg>
