<?xml version="1.0" encoding="utf-8"?>
<!-- Generator: Adobe Illustrator 15.0.2, SVG Export Plug-In  -->
<!DOCTYPE svg PUBLIC "-//W3C//DTD SVG 1.1//EN" "http://www.w3.org/Graphics/SVG/1.1/DTD/svg11.dtd" [
	<!ENTITY ns_flows "http://ns.adobe.com/Flows/1.0/">
]>
<svg version="1.1"
	 xmlns="http://www.w3.org/2000/svg" xmlns:xlink="http://www.w3.org/1999/xlink" xmlns:a="http://ns.adobe.com/AdobeSVGViewerExtensions/3.0/"
	 x="0px" y="0px" width="58px" height="60px" viewBox="53.7 0.2 58 60" overflow="visible" enable-background="new 53.7 0.2 58 60"
	 xml:space="preserve">
<defs>
</defs>
<path d="M83.9,39.3c-0.7-2.1-1.4-4.1-2.1-6.2c-0.1,0.1-0.2,0.3-0.3,0.4c1.4,0,2.9,0,4.3,0c-0.1-0.1-0.2-0.3-0.3-0.4
	c-0.7,2.1-1.5,4.1-2.2,6.2c-0.1,0.4,0.5,0.5,0.6,0.2c0.7-2.1,1.5-4.1,2.2-6.2c0.1-0.2-0.1-0.4-0.3-0.4c-1.4,0-2.9,0-4.3,0
	c-0.2,0-0.4,0.2-0.3,0.4c0.7,2.1,1.4,4.1,2.1,6.2C83.5,39.8,84.1,39.7,83.9,39.3L83.9,39.3z"/>
<polygon fill-rule="evenodd" clip-rule="evenodd" points="84.9,30.5 84.9,30.2 84.9,29.9 84.8,29.8 84.5,29.6 84.4,29.5 84.2,29.4 
	84,29.3 83.6,29.3 83.4,29.3 83.2,29.4 83,29.5 82.9,29.6 82.6,29.8 82.5,29.9 82.5,30.2 82.5,30.5 82.5,30.7 82.5,30.9 82.6,31.2 
	82.9,31.3 83,31.5 83.2,31.6 83.4,31.6 83.6,31.7 84,31.6 84.2,31.6 84.4,31.5 84.5,31.3 84.8,31.2 84.9,30.9 84.9,30.7 84.9,30.5 
	"/>
<path d="M85.2,30.5c0-0.2,0-0.4,0-0.6c0-0.2-0.3-0.4-0.4-0.5c-0.3-0.3-0.7-0.4-1.1-0.4c-0.4,0-0.8,0.2-1,0.4
	c-0.1,0.1-0.4,0.3-0.4,0.5c0,0.2,0,0.4,0,0.6s0,0.4,0,0.6c0,0.1,0.1,0.2,0.2,0.3c0,0,0.1,0,0.1,0.1c0.1,0,0.2,0.1,0.1,0
	c0.1,0.2,0.2,0.4,0.5,0.4c0.1,0,0.4,0.1,0.2,0c0.1,0.1,0.2,0.1,0.3,0.1c0.2,0,0.4-0.1,0.6-0.1c0.2,0,0.5-0.2,0.5-0.4
	c0.1-0.1,0.1-0.1,0,0c0.1,0,0.1-0.1,0.2-0.1c0.1-0.1,0.2-0.2,0.2-0.3C85.2,30.9,85.2,30.7,85.2,30.5c0-0.4-0.6-0.4-0.6,0
	c0,0.1,0,0.3,0,0.4c0-0.1,0-0.1,0,0c-0.1,0.1-0.1,0.1,0,0c-0.1,0-0.2,0.1-0.3,0.1c-0.1,0.1-0.1,0.2-0.1,0.3c0.1-0.1,0.1-0.1,0,0
	c-0.1,0-0.1,0.1,0,0c-0.2,0-0.3,0-0.5,0.1c-0.1,0,0.3,0.1,0,0c-0.1,0-0.1-0.1-0.2-0.1c-0.2,0,0,0.1-0.1,0c-0.1-0.1-0.1-0.1,0,0
	c0-0.1-0.1-0.1-0.1-0.2c0-0.1-0.1-0.1-0.2-0.2c-0.1,0-0.1-0.1-0.2-0.1c0.1,0.1,0.1,0.1,0,0c-0.1-0.1,0,0.1,0-0.1c0-0.1,0-0.1,0-0.2
	c0-0.1,0-0.2,0-0.4c0-0.2,0.1-0.2-0.1,0c0.1-0.1,0.1-0.1,0.2-0.2c0.1-0.1,0.2-0.2,0.4-0.3c0.1,0,0.1-0.1,0.2-0.1c-0.2,0.1,0,0,0.1,0
	c0.1,0,0.2,0,0.2,0c0.1,0,0.1,0,0,0c0.1,0,0.1,0.1,0.2,0.1c0.1,0.1,0.2,0.1,0.3,0.2c0.1,0.1,0.1,0.1,0.2,0.2c0.2,0.2,0-0.2,0,0
	c0,0.1,0,0.3,0,0.4C84.6,30.9,85.2,30.9,85.2,30.5z"/>
<polygon fill-rule="evenodd" clip-rule="evenodd" points="84.9,26.7 84.9,26.4 84.9,26.2 84.8,26.1 84.5,25.8 84.4,25.7 84.2,25.6 
	84,25.5 83.6,25.5 83.4,25.5 83.2,25.6 83,25.7 82.9,25.8 82.6,26.1 82.5,26.2 82.5,26.4 82.5,26.7 82.5,26.9 82.5,27.2 82.6,27.4 
	82.9,27.5 83,27.7 83.2,27.8 83.4,27.8 83.6,27.9 84,27.8 84.2,27.8 84.4,27.7 84.5,27.5 84.8,27.4 84.9,27.2 84.9,26.9 84.9,26.7 
	"/>
<path d="M85.2,26.7c0-0.2,0-0.4,0-0.6c0-0.2-0.3-0.4-0.4-0.5c-0.3-0.3-0.7-0.4-1.1-0.4c-0.4,0-0.8,0.2-1,0.4
	c-0.1,0.1-0.4,0.3-0.4,0.5c0,0.2,0,0.4,0,0.6s0,0.4,0,0.6c0,0.1,0.1,0.2,0.2,0.3c0,0,0.1,0.1,0.1,0.1c0.1,0,0.2,0.2,0.1,0
	c0.1,0.2,0.2,0.4,0.5,0.4c0.1,0,0.4,0.1,0.2,0c0.1,0.1,0.2,0.1,0.3,0.1c0.2,0,0.4-0.1,0.6-0.1c0.2,0,0.5-0.2,0.5-0.4
	c0.1-0.1,0.1-0.1,0,0c0.1,0,0.1-0.1,0.2-0.1c0.1-0.1,0.2-0.2,0.2-0.3C85.2,27.2,85.2,26.9,85.2,26.7c0-0.4-0.6-0.4-0.6,0
	c0,0.1,0,0.3,0,0.4c0-0.1,0-0.1,0,0c-0.1,0.1-0.1,0.1,0,0c-0.1,0-0.2,0.1-0.3,0.1c-0.1,0.1-0.1,0.2-0.1,0.2c0.1-0.1,0.1-0.1,0,0
	c-0.1,0-0.1,0.1,0,0c-0.2,0-0.3,0-0.5,0.1c-0.1,0,0.3,0.1,0,0c-0.1,0-0.1-0.1-0.2-0.1c-0.2,0,0,0.1-0.1,0c-0.1-0.1-0.1-0.1,0,0
	c0-0.1-0.1-0.1-0.1-0.2c0-0.1-0.1-0.1-0.2-0.2c-0.1,0-0.1-0.1-0.2-0.1c0.1,0.1,0.1,0.1,0,0c-0.1-0.1,0,0.1,0-0.1c0-0.1,0-0.1,0-0.2
	c0-0.1,0-0.2,0-0.4c0-0.2,0.1-0.2-0.1,0c0.1-0.1,0.1-0.1,0.2-0.2c0.1-0.1,0.2-0.2,0.4-0.3c0.1,0,0.1-0.1,0.2-0.1c-0.2,0.1,0,0,0.1,0
	c0.1,0,0.2,0,0.2,0c0.1,0,0.1,0,0,0c0.1,0,0.1,0.1,0.2,0.1c0.1,0.1,0.2,0.1,0.3,0.2c0.1,0.1,0.1,0.1,0.2,0.2c0.2,0.2,0-0.2,0,0
	c0,0.1,0,0.3,0,0.4C84.6,27.1,85.2,27.1,85.2,26.7z"/>
<rect id="_x3C_Slice_x3E__103_" y="59.3" fill="none" width="54.2" height="34.9"/>
<rect id="_x3C_Slice_x3E__102_" x="54.2" y="59.3" fill="none" width="58.3" height="34.9"/>
<rect id="_x3C_Slice_x3E__101_" fill="none" width="54.2" height="59.3"/>
<rect id="_x3C_Slice_x3E__100_" x="54.2" fill="none" width="58.3" height="59.3"/>
</svg>
