<?xml version="1.0" encoding="utf-8"?>
<!-- Generator: Adobe Illustrator 15.0.2, SVG Export Plug-In  -->
<!DOCTYPE svg PUBLIC "-//W3C//DTD SVG 1.1//EN" "http://www.w3.org/Graphics/SVG/1.1/DTD/svg11.dtd" [
	<!ENTITY ns_flows "http://ns.adobe.com/Flows/1.0/">
]>
<svg version="1.1"
	 xmlns="http://www.w3.org/2000/svg" xmlns:xlink="http://www.w3.org/1999/xlink" xmlns:a="http://ns.adobe.com/AdobeSVGViewerExtensions/3.0/"
	 x="0px" y="0px" width="49px" height="63px" viewBox="56.2 0.9 49 63" overflow="visible" enable-background="new 56.2 0.9 49 63"
	 xml:space="preserve">
<defs>
</defs>
<polygon fill-rule="evenodd" clip-rule="evenodd" points="78.7,32.1 78.9,31.9 79.2,31.6 79.4,31.4 79.5,31.2 79.5,31.1 79.5,31 
	79.4,30.9 79.2,30.9 78.8,30.9 78.7,30.8 78.6,30.8 78.6,30.6 78.5,30.5 78.5,30.3 78.5,30.2 78.5,30.1 78.7,29.9 78.9,29.8 
	79.2,29.8 79.3,29.8 79.5,29.9 79.6,30 79.7,30.1 79.8,30.2 79.8,30.4 79.9,30.5 79.9,30.8 79.9,30.9 79.9,31.1 79.8,31.3 
	79.7,31.4 79.6,31.6 79.4,31.9 79.2,32.1 78.8,32.3 78.7,32.1 "/>
<path d="M78.9,32.3c0.4-0.4,0.9-0.7,0.9-1.3c0-0.4-0.3-0.5-0.6-0.5c-0.1,0-0.1,0-0.2,0c-0.2,0-0.2-0.1,0,0.1
	c-0.1-0.1-0.2-0.2-0.4-0.2c0.1,0.1,0.2,0.2,0.3,0.3c0-0.1,0-0.2-0.1-0.3c-0.2-0.2,0,0.2,0-0.1c0-0.2,0.1-0.2-0.1-0.1
	c0.1-0.1,0.1-0.2,0.2-0.2c0.1,0,0.1-0.1,0,0c0.1,0,0.1,0,0.2,0c0.1,0,0.1,0,0,0c0,0,0.2,0.1,0.2,0.1c0.1,0.1,0.1,0.1,0.2,0.2
	c0.2,0.2,0-0.2,0,0.1c0,0.1,0,0.2,0.1,0.3c0.1,0.1,0.1,0.1,0-0.1c0,0.1,0,0.1,0,0.2c0,0.1,0,0.2,0,0.3c0-0.2,0,0-0.1,0.1
	c-0.2,0.2-0.2,0.3-0.4,0.5c-0.2,0.2-0.3,0.3-0.5,0.4c0.1,0,0.3,0.1,0.4,0.1c0-0.1-0.1-0.1-0.1-0.2c-0.2-0.4-0.7,0-0.5,0.3
	c0,0.1,0.1,0.1,0.1,0.2c0.1,0.1,0.3,0.2,0.4,0.1c0.4-0.3,0.9-0.7,1.1-1.1c0.1-0.3,0.1-0.5,0.1-0.8c0-0.1,0-0.3-0.1-0.4
	c-0.2-0.2,0,0.3,0,0c0-0.1,0-0.2,0-0.3c-0.2-0.4-0.9-0.8-1.4-0.5c-0.3,0.1-0.6,0.3-0.6,0.6c0,0.1,0,0.3,0,0.4c0,0.1,0,0.2,0.1,0.2
	c0.2,0.2,0-0.1,0,0c0,0.2,0.1,0.3,0.3,0.3c0.1,0-0.2-0.2,0,0c0.1,0.1,0.2,0.1,0.3,0.1c0.1,0,0.2,0,0.3,0c0.1,0,0.1,0-0.1-0.1
	c0.2,0.2,0-0.2,0,0c0,0.1,0,0.1,0,0c0,0.1-0.1,0.1-0.1,0.2c0,0-0.1,0.1-0.2,0.2c-0.1,0.1-0.3,0.3-0.4,0.4
	C78.2,32.2,78.6,32.6,78.9,32.3z"/>
<polygon fill-rule="evenodd" clip-rule="evenodd" points="78.7,36.2 78.9,36 79.2,35.8 79.4,35.5 79.5,35.3 79.5,35.2 79.5,35.1 
	79.4,35 79.2,35 78.8,35 78.7,34.9 78.6,34.9 78.6,34.8 78.5,34.6 78.5,34.4 78.5,34.3 78.5,34.2 78.7,34.1 78.9,34 79.2,33.9 
	79.3,33.9 79.5,34 79.6,34.1 79.7,34.2 79.8,34.3 79.8,34.5 79.9,34.6 79.9,34.9 79.9,35 79.9,35.2 79.8,35.4 79.7,35.6 79.6,35.8 
	79.4,36 79.2,36.2 78.8,36.4 78.7,36.2 "/>
<path d="M78.9,36.4c0.4-0.4,0.9-0.7,0.9-1.3c0-0.4-0.3-0.5-0.6-0.5c-0.1,0-0.1,0-0.2,0c-0.2,0-0.2-0.1,0,0.1
	c-0.1-0.1-0.2-0.2-0.4-0.2c0.1,0.1,0.2,0.2,0.3,0.3c0-0.2,0-0.3-0.2-0.4c0.1,0.1,0.1,0.2,0.1,0c0-0.1,0-0.1,0-0.2
	c-0.1,0.1-0.1,0.2-0.2,0.3c0.1-0.1,0.3-0.1,0.4-0.2c0.1,0,0.3-0.1,0.1-0.1c-0.2,0,0,0,0.1,0c0.1,0.1,0.1,0.1,0.2,0.2
	c0.1,0.1,0,0.2,0,0c0,0.1,0,0.2,0,0.3c0,0.1,0,0.1,0.1,0.1c0.1,0.1,0,0.1,0-0.1c0,0.2,0,0.3,0,0.5c0-0.2,0,0-0.1,0.1
	c0,0.1-0.1,0.2-0.1,0.2c-0.3,0.3-0.5,0.5-0.8,0.7c0.1,0,0.3,0.1,0.4,0.1c0-0.1-0.1-0.1-0.1-0.2c-0.2-0.4-0.7,0-0.5,0.3
	c0,0.1,0.1,0.1,0.1,0.2c0.1,0.1,0.3,0.2,0.4,0.1c0.7-0.5,1.5-1.2,1.3-2.1c0-0.1,0-0.1-0.1-0.1c-0.1-0.1,0-0.1,0,0.1
	c0-0.1,0-0.2,0-0.3c-0.1-0.1-0.3-0.4-0.4-0.4c-0.5-0.3-0.8,0-1.3,0.2c-0.1,0-0.2,0.2-0.2,0.3c0,0.1,0,0.3,0,0.4c0,0.1,0,0.2,0.1,0.3
	c0.2,0.2,0-0.1,0,0c0,0.2,0.1,0.3,0.3,0.3c0.1,0-0.2-0.2,0,0c0.1,0.1,0.2,0.1,0.3,0.1c0.1,0,0.2,0,0.3,0c0.1,0,0.1,0-0.1-0.1
	c0.2,0.2,0-0.2,0,0c0,0.1,0,0.1,0,0c0,0.1-0.1,0.1-0.1,0.2c0,0-0.1,0.1-0.2,0.2c-0.1,0.1-0.3,0.3-0.4,0.4
	C78.2,36.3,78.6,36.7,78.9,36.4z"/>
<polygon fill-rule="evenodd" clip-rule="evenodd" points="78.7,40.3 78.9,40.1 79.2,39.9 79.4,39.6 79.5,39.5 79.5,39.3 79.5,39.2 
	79.4,39.1 79.2,39.1 78.8,39.1 78.7,39.1 78.6,39 78.6,38.9 78.5,38.8 78.5,38.5 78.5,38.4 78.5,38.3 78.7,38.2 78.9,38.1 79.2,38 
	79.3,38.1 79.5,38.1 79.6,38.2 79.7,38.3 79.8,38.5 79.8,38.6 79.9,38.8 79.9,39 79.9,39.2 79.9,39.3 79.8,39.5 79.7,39.8 
	79.6,39.9 79.4,40.1 79.2,40.3 78.8,40.5 78.7,40.3 "/>
<path d="M78.9,40.5c0.3-0.3,1.3-1,0.8-1.6c-0.2-0.2-0.3-0.2-0.5-0.2c-0.1,0-0.2,0-0.3,0c-0.2,0-0.2-0.1,0,0.1
	c-0.2-0.2,0.1,0.2,0-0.1c0-0.1-0.1-0.2-0.2-0.2c0.1,0.1,0.1,0.2,0.1,0c0-0.1,0-0.1,0-0.2c-0.1,0.1-0.1,0.2-0.2,0.3
	c0.2-0.1,0.4-0.2,0.7-0.3c-0.1,0-0.3,0-0.4,0c0.1,0.1,0.2,0.2,0.4,0.2c0.2,0,0.1,0.1,0-0.1c0.1,0.1,0.1,0.1,0.2,0.2
	c0,0,0.1,0.2,0.1,0.2c-0.1-0.2,0,0.1,0,0.1c0,0,0,0.1,0.1,0.1c0.1,0.1,0.1,0.1,0-0.1c0,0.1,0,0.1,0,0.2c0,0.1,0,0.1,0,0.2
	c0,0.1,0,0.1,0,0c0,0.1-0.1,0.1-0.1,0.2c-0.1,0.1-0.1,0.2-0.2,0.3c-0.3,0.3-0.4,0.4-0.7,0.6c0.1,0,0.3,0.1,0.4,0.1
	c0-0.1-0.1-0.1-0.1-0.2c-0.2-0.4-0.7,0-0.5,0.3c0,0.1,0.1,0.1,0.1,0.2c0.1,0.1,0.3,0.2,0.4,0.1c0.6-0.4,1.3-1,1.3-1.7
	c0-0.2,0-0.4,0-0.5c0,0,0-0.1-0.1-0.1c-0.1-0.1-0.1-0.1,0,0.1c0-0.1,0-0.2-0.1-0.3c-0.1-0.2-0.2-0.3-0.3-0.4
	c-0.1-0.1-0.2-0.1-0.3-0.1c-0.3,0,0.1,0.2-0.1,0c-0.1-0.1-0.3-0.1-0.4,0c-0.2,0.1-0.4,0.2-0.7,0.3c-0.1,0-0.2,0.2-0.2,0.3
	c0,0.1,0,0.3,0,0.4c0,0.1,0,0.1,0,0.2c0,0,0,0.1,0.1,0.1c0.1,0.1,0.1,0.1,0-0.1c0,0.4,0.4,0.5,0.8,0.5c0.1,0,0.1,0,0.2,0
	c0.3,0-0.1-0.1,0,0c-0.1-0.1-0.1-0.2-0.1,0c0,0.2,0.2-0.2,0,0c-0.2,0.2-0.4,0.4-0.7,0.7C78.2,40.4,78.6,40.8,78.9,40.5z"/>
<rect id="_x3C_Slice_x3E__103_" y="63.3" fill="none" width="56.2" height="50.2"/>
<rect id="_x3C_Slice_x3E__102_" x="56.2" y="63.3" fill="none" width="49.2" height="50.2"/>
<rect id="_x3C_Slice_x3E__101_" fill="none" width="56.2" height="63.3"/>
<rect id="_x3C_Slice_x3E__100_" x="56.2" fill="none" width="49.2" height="63.3"/>
</svg>
