<?xml version="1.0" encoding="utf-8"?>
<!-- Generator: Adobe Illustrator 15.0.2, SVG Export Plug-In  -->
<!DOCTYPE svg PUBLIC "-//W3C//DTD SVG 1.1//EN" "http://www.w3.org/Graphics/SVG/1.1/DTD/svg11.dtd" [
	<!ENTITY ns_flows "http://ns.adobe.com/Flows/1.0/">
]>
<svg version="1.1"
	 xmlns="http://www.w3.org/2000/svg" xmlns:xlink="http://www.w3.org/1999/xlink" xmlns:a="http://ns.adobe.com/AdobeSVGViewerExtensions/3.0/"
	 x="0px" y="0px" width="58px" height="50px" viewBox="53.7 0.6 58 50" overflow="visible" enable-background="new 53.7 0.6 58 50"
	 xml:space="preserve">
<defs>
</defs>
<polygon fill-rule="evenodd" clip-rule="evenodd" points="85,27.9 85,27.7 84.9,27.5 84.8,27.3 84.5,27 84.4,26.9 84.2,26.8 
	84,26.7 83.6,26.7 83.4,26.7 83.2,26.8 83,26.9 82.9,27 82.6,27.3 82.5,27.5 82.4,27.7 82.4,27.9 82.4,28.2 82.5,28.4 82.6,28.6 
	82.9,28.8 83,28.9 83.2,29 83.4,29.2 83.6,29.2 84,29.2 84.2,29 84.4,28.9 84.5,28.8 84.8,28.6 84.9,28.4 85,28.2 85,27.9 "/>
<path d="M85.3,27.9c0-0.8-0.8-1.5-1.6-1.5c-0.8,0-1.6,0.7-1.6,1.5c0,0.8,0.7,1.5,1.5,1.5C84.5,29.5,85.3,28.8,85.3,27.9
	c0-0.4-0.6-0.4-0.6,0c0,0.1,0,0.1,0,0.2c0-0.2,0,0-0.1,0.1c-0.1,0.2-0.1,0.2-0.3,0.4c-0.1,0.1-0.2,0.1-0.3,0.2
	c-0.1,0-0.1,0.1-0.2,0.1c0.2-0.1-0.1,0-0.2,0c0,0-0.1,0-0.1,0c-0.1,0-0.1,0,0,0c-0.1,0-0.1-0.1-0.2-0.1c-0.1-0.1-0.2-0.1-0.3-0.2
	c-0.1-0.1-0.2-0.2-0.3-0.3c0-0.1-0.1-0.1-0.1-0.2c0.1,0.2,0,0,0-0.1c0-0.1,0-0.1,0-0.2c0,0.2,0,0,0.1-0.1c0.1-0.2,0.1-0.2,0.3-0.4
	c0.1-0.1,0.2-0.1,0.3-0.2c0.1,0,0.1-0.1,0.2-0.1c-0.2,0.1,0,0,0.1,0c0.1,0,0.1,0,0.2,0c0.1,0,0.1,0,0,0c0.1,0,0.1,0.1,0.2,0.1
	c0.1,0.1,0.2,0.1,0.3,0.2c0.1,0.1,0.2,0.2,0.3,0.3c0,0.1,0.1,0.1,0.1,0.2c-0.1-0.2,0,0,0,0.1C84.7,28.3,85.3,28.3,85.3,27.9z"/>
<polygon fill-rule="evenodd" clip-rule="evenodd" points="85,23.8 85,23.6 84.9,23.4 84.8,23.2 84.5,22.9 84.4,22.8 84.2,22.7 
	84,22.6 83.6,22.6 83.4,22.6 83.2,22.7 83,22.8 82.9,22.9 82.6,23.2 82.5,23.4 82.4,23.6 82.4,23.8 82.4,24 82.5,24.3 82.6,24.5 
	82.9,24.7 83,24.8 83.2,24.9 83.4,25 83.6,25 84,25 84.2,24.9 84.4,24.8 84.5,24.7 84.8,24.5 84.9,24.3 85,24 85,23.8 "/>
<path d="M85.3,23.8c0-0.8-0.8-1.5-1.6-1.5c-0.8,0-1.6,0.7-1.6,1.5c0,0.8,0.7,1.5,1.5,1.5C84.5,25.4,85.3,24.7,85.3,23.8
	c0-0.4-0.6-0.4-0.6,0c0,0.1,0,0.1,0,0.2c0-0.2,0,0-0.1,0.1c-0.1,0.2-0.1,0.2-0.3,0.4c-0.1,0.1-0.2,0.1-0.3,0.2
	c-0.1,0-0.1,0.1-0.2,0.1c0.2-0.1-0.1,0-0.2,0c0,0-0.1,0-0.1,0c-0.1,0-0.1,0,0,0c-0.1,0-0.1-0.1-0.2-0.1c-0.1-0.1-0.2-0.1-0.3-0.2
	c-0.1-0.1-0.2-0.2-0.3-0.3c0-0.1-0.1-0.1-0.1-0.2c0.1,0.2,0,0,0-0.1c0-0.1,0-0.1,0-0.2c0,0.2,0,0,0.1-0.1c0.1-0.2,0.1-0.2,0.3-0.4
	c0.1-0.1,0.2-0.1,0.3-0.2c0.1,0,0.1-0.1,0.2-0.1c-0.2,0.1,0,0,0.1,0c0.1,0,0.1,0,0.2,0c0.1,0,0.1,0,0,0c0.1,0,0.1,0.1,0.2,0.1
	c0.1,0.1,0.2,0.1,0.3,0.2c0.1,0.1,0.2,0.2,0.3,0.3c0,0.1,0.1,0.1,0.1,0.2c-0.1-0.2,0,0,0,0.1C84.7,24.2,85.3,24.2,85.3,23.8z"/>
<rect id="_x3C_Slice_x3E__103_" y="50.2" fill="none" width="54.2" height="51.2"/>
<rect id="_x3C_Slice_x3E__102_" x="54.2" y="50.2" fill="none" width="58.3" height="51.2"/>
<rect id="_x3C_Slice_x3E__101_" fill="none" width="54.2" height="50.2"/>
<rect id="_x3C_Slice_x3E__100_" x="54.2" fill="none" width="58.3" height="50.2"/>
</svg>
