<?xml version="1.0" encoding="utf-8"?>
<!-- Generator: Adobe Illustrator 15.0.2, SVG Export Plug-In  -->
<!DOCTYPE svg PUBLIC "-//W3C//DTD SVG 1.1//EN" "http://www.w3.org/Graphics/SVG/1.1/DTD/svg11.dtd" [
	<!ENTITY ns_flows "http://ns.adobe.com/Flows/1.0/">
]>
<svg version="1.1"
	 xmlns="http://www.w3.org/2000/svg" xmlns:xlink="http://www.w3.org/1999/xlink" xmlns:a="http://ns.adobe.com/AdobeSVGViewerExtensions/3.0/"
	 x="0px" y="0px" width="49px" height="51px" viewBox="56.2 0.4 49 51" overflow="visible" enable-background="new 56.2 0.4 49 51"
	 xml:space="preserve">
<defs>
</defs>
<polygon fill-rule="evenodd" clip-rule="evenodd" points="79.7,33.6 79.7,33.4 79.6,33.2 79.4,33 79.2,33 79,33 78.8,33.2 
	78.7,33.4 78.7,33.6 78.7,33.8 78.8,33.9 79,34 79.2,34 79.4,34 79.6,33.9 79.7,33.8 79.7,33.6 "/>
<path d="M80,33.6c0-0.1,0-0.2,0-0.3c0-0.1-0.1-0.2-0.1-0.3c-0.1-0.2-0.4-0.3-0.6-0.3c-0.2,0-0.4,0.1-0.6,0.1
	c-0.2,0.1-0.3,0.4-0.3,0.6c0,0.2,0,0.4,0.2,0.6c0.2,0.2,0.4,0.2,0.6,0.2c0.1,0,0.2,0,0.3,0c0.1,0,0.2-0.1,0.3-0.1
	C80,34.1,80,33.8,80,33.6c0-0.4-0.6-0.4-0.6,0c0,0.1,0,0.1,0,0.2c0-0.1,0.1-0.1,0.1-0.2c0,0-0.1,0.1-0.1,0.1c0.1-0.1,0,0-0.1,0
	c-0.1,0.1-0.1,0,0,0c-0.1,0-0.1,0-0.2,0c0,0-0.1,0-0.1,0c-0.1,0,0.2,0.1,0,0c0,0-0.1,0-0.1-0.1c0.1,0.1,0,0-0.1-0.1
	c0,0.1,0.1,0.1,0.1,0.2c0-0.1,0-0.1,0-0.2c0,0,0-0.1,0-0.1c0-0.1,0-0.2,0,0c0,0,0-0.1,0.1-0.1c0.1-0.1,0.1-0.1,0,0
	c0,0,0.1,0,0.1-0.1c0.2-0.1-0.2,0,0,0c0.1,0,0.2,0,0.2,0c0.1,0-0.2-0.1-0.1,0c0.1,0,0.1,0.1,0.2,0.1c0.1,0.1-0.1-0.2-0.1-0.1
	c0,0.1,0.1,0.1,0.1,0.2c0,0.1,0-0.2,0,0c0,0,0,0.1,0,0.1C79.4,34,80,34,80,33.6z"/>
<path d="M80.7,33.3c-1,0-2,0-3,0c-0.4,0-0.4,0.6,0,0.6c1,0,2,0,3,0C81.1,33.9,81.1,33.3,80.7,33.3L80.7,33.3z"/>
<path d="M79.7,32.1c-0.5,0.9-1,1.8-1.4,2.7c-0.2,0.4,0.3,0.7,0.5,0.3c0.5-0.9,1-1.8,1.4-2.7C80.4,32.1,79.9,31.8,79.7,32.1
	L79.7,32.1z"/>
<path d="M80.2,34.8c-0.5-0.9-1-1.8-1.4-2.7c-0.2-0.4-0.7,0-0.5,0.3c0.5,0.9,1,1.8,1.4,2.7C79.9,35.4,80.4,35.1,80.2,34.8L80.2,34.8z
	"/>
<polygon fill-rule="evenodd" clip-rule="evenodd" points="79.7,29.6 79.7,29.5 79.6,29.3 79.4,29.2 79.2,29.2 79,29.2 78.8,29.3 
	78.7,29.5 78.7,29.6 78.7,29.8 78.8,30 79,30.2 79.2,30.2 79.4,30.2 79.6,30 79.7,29.8 79.7,29.6 "/>
<path d="M80,29.6c0-0.2-0.1-0.5-0.3-0.6c-0.1,0-0.1-0.1-0.2-0.1c-0.1-0.1-0.3,0-0.4,0c-0.5,0-0.8,0.4-0.8,0.8c0,0.2,0.1,0.5,0.3,0.6
	c0.2,0.1,0.4,0.2,0.6,0.2c0.2,0,0.5-0.1,0.6-0.3c0-0.1,0.1-0.1,0.1-0.2C80,29.9,80,29.7,80,29.6c0-0.4-0.6-0.4-0.6,0
	c0,0.1,0,0.1,0,0.2c0-0.1,0.1-0.2,0-0.1c0,0,0,0.1-0.1,0.1c-0.1,0.1,0.2-0.1,0.1-0.1c0,0-0.1,0-0.1,0.1c-0.1,0.1-0.1,0,0.1,0
	c0,0-0.1,0-0.1,0c-0.1,0-0.1,0-0.2,0c0.1,0,0.2,0.1,0.1,0c0,0-0.1,0-0.1-0.1c-0.1-0.1,0.1,0.2,0.1,0.1c0,0,0-0.1-0.1-0.1
	c-0.1-0.1,0-0.1,0,0.1c0,0,0-0.1,0-0.1c0-0.1,0-0.1,0-0.2c0,0.1-0.1,0.2,0,0.1c0,0,0-0.1,0.1-0.1c0.1-0.1-0.2,0.1-0.1,0.1
	c0,0,0.1,0,0.1-0.1c0.2-0.1-0.2,0,0,0c0.1,0,0.1,0,0.2,0c-0.1,0-0.2-0.1-0.1,0c0,0,0.1,0,0.1,0.1c0.1,0.1-0.1-0.2-0.1-0.1
	c0,0,0,0.1,0.1,0.1c0.1,0.2,0-0.2,0,0C79.4,30,80,30,80,29.6z"/>
<path d="M80.7,29.3c-1,0-2,0-3,0c-0.4,0-0.4,0.6,0,0.6c1,0,2,0,3,0C81.1,29.9,81.1,29.3,80.7,29.3L80.7,29.3z"/>
<path d="M79.7,28.1c-0.5,0.9-1,1.9-1.4,2.8c-0.2,0.4,0.4,0.7,0.5,0.3c0.5-0.9,1-1.9,1.4-2.8C80.4,28.1,79.9,27.8,79.7,28.1
	L79.7,28.1z"/>
<path d="M80.2,30.9c-0.5-0.9-1-1.9-1.4-2.8c-0.2-0.4-0.7,0-0.5,0.3c0.5,0.9,1,1.9,1.4,2.8C79.9,31.6,80.4,31.2,80.2,30.9L80.2,30.9z
	"/>
<polygon fill-rule="evenodd" clip-rule="evenodd" points="79.7,25.7 79.7,25.5 79.6,25.4 79.4,25.3 79.2,25.3 79,25.3 78.8,25.4 
	78.7,25.5 78.7,25.7 78.7,25.9 78.8,26.2 79,26.3 79.2,26.3 79.4,26.3 79.6,26.2 79.7,25.9 79.7,25.7 "/>
<path d="M80,25.7c0-0.2,0-0.5-0.3-0.6c-0.1,0-0.1-0.1-0.2-0.1c-0.1-0.1-0.3,0-0.4,0c-0.2,0-0.4,0.1-0.6,0.2
	c-0.1,0.1-0.2,0.2-0.2,0.3c0,0.1,0,0.2,0,0.3c0,0.2,0.1,0.5,0.3,0.6c0.2,0.1,0.4,0.2,0.6,0.2c0.2,0,0.5-0.1,0.6-0.3
	c0-0.1,0.1-0.1,0.1-0.2C80,26,80,25.8,80,25.7c0-0.4-0.6-0.4-0.6,0c0,0,0,0.1,0,0.1c0,0.1,0,0.2,0,0c0,0,0,0.1-0.1,0.1
	c-0.1,0.1-0.1,0.1,0,0c0,0-0.1,0-0.1,0.1c-0.1,0.1-0.1,0,0,0c-0.1,0-0.2,0-0.3,0c-0.1,0,0.2,0.1,0.1,0c-0.1,0-0.1-0.1-0.2-0.1
	c-0.1-0.1,0.1,0.2,0.1,0.1c0-0.1-0.1-0.1-0.1-0.2c-0.1-0.1,0,0.2,0,0.1c0-0.1,0-0.1,0-0.2c0-0.1,0-0.2,0-0.2c0,0.1-0.1,0.1-0.1,0.2
	c0,0,0.1-0.1,0.1-0.1c-0.1,0.1,0,0,0.1,0c0.1-0.1,0.1,0,0,0c0,0,0.1,0,0.1,0c0.1,0,0.1,0,0.2,0c0.1,0-0.2-0.1,0,0c0,0,0.1,0,0.1,0.1
	c-0.1-0.1,0,0,0.1,0.1c0-0.1-0.1-0.1-0.1-0.2c0,0.1,0,0.1,0,0.2C79.4,26.1,80,26.1,80,25.7z"/>
<path d="M80.7,25.4c-1,0-2,0-3,0c-0.4,0-0.4,0.6,0,0.6c1,0,2,0,3,0C81.1,26,81.1,25.4,80.7,25.4L80.7,25.4z"/>
<path d="M79.7,24.2c-0.5,0.9-1,1.8-1.4,2.7c-0.2,0.4,0.3,0.7,0.5,0.3c0.5-0.9,1-1.8,1.4-2.7C80.4,24.2,79.9,23.9,79.7,24.2
	L79.7,24.2z"/>
<path d="M80.2,26.9c-0.5-0.9-1-1.8-1.4-2.7c-0.2-0.4-0.7,0-0.5,0.3c0.5,0.9,1,1.8,1.4,2.7C79.9,27.6,80.4,27.2,80.2,26.9L80.2,26.9z
	"/>
<rect id="_x3C_Slice_x3E__103_" y="51.2" fill="none" width="56.2" height="59.3"/>
<rect id="_x3C_Slice_x3E__102_" x="56.2" y="51.2" fill="none" width="49.2" height="59.3"/>
<rect id="_x3C_Slice_x3E__101_" fill="none" width="56.2" height="51.2"/>
<rect id="_x3C_Slice_x3E__100_" x="56.2" fill="none" width="49.2" height="51.2"/>
</svg>
