<?xml version="1.0" encoding="utf-8"?>
<!-- Generator: Adobe Illustrator 15.0.2, SVG Export Plug-In  -->
<!DOCTYPE svg PUBLIC "-//W3C//DTD SVG 1.1//EN" "http://www.w3.org/Graphics/SVG/1.1/DTD/svg11.dtd" [
	<!ENTITY ns_flows "http://ns.adobe.com/Flows/1.0/">
]>
<svg version="1.1"
	 xmlns="http://www.w3.org/2000/svg" xmlns:xlink="http://www.w3.org/1999/xlink" xmlns:a="http://ns.adobe.com/AdobeSVGViewerExtensions/3.0/"
	 x="0px" y="0px" width="57px" height="54px" viewBox="57.4 0.8 57 54" overflow="visible" enable-background="new 57.4 0.8 57 54"
	 xml:space="preserve">
<defs>
</defs>
<path d="M84.7,30.3c-0.6-0.7-1.1-1.4-1.7-2.1c-0.4-0.4-0.7-0.9-1.1-1.3c-0.1-0.1-0.2-0.3-0.3-0.4c-0.2-0.2-0.2,0.5,0,0.3
	c1.2-1.5,2.5-2.9,3.7-4.4c0.3-0.3-0.2-0.8-0.4-0.4c-1.3,1.5-2.5,3-3.8,4.4c-0.1,0.1-0.1,0.3,0,0.4c1.1,1.3,2.1,2.6,3.2,3.9
	C84.6,31.1,85,30.6,84.7,30.3L84.7,30.3z"/>
<polygon fill-rule="evenodd" clip-rule="evenodd" points="85.6,31.9 85.3,30.8 85.2,30.1 85.2,29.8 85.1,29.7 85.1,29.7 85.1,29.7 
	85,29.7 85,29.8 84.9,29.9 84.9,30.1 84.7,30.3 84.7,30.4 84.5,30.5 84.4,30.7 84.3,30.8 84.1,30.8 83.9,30.8 83.6,30.8 83.6,30.8 
	83.5,30.9 83.5,31 83.7,31 84.1,31.1 84.6,31.3 85.6,31.9 "/>
<path d="M85.9,31.8c-0.1-0.4-0.3-0.8-0.4-1.3c-0.1-0.3-0.1-0.4-0.1-0.7c0-0.3-0.3-0.4-0.5-0.4c-0.2,0-0.3,0.1-0.3,0.3
	c0,0,0,0.1,0,0.1c0-0.1,0.1-0.1,0.1-0.2c-0.2,0.2-0.2,0.3-0.2,0.5c0-0.2,0,0-0.1,0.1c0,0.1-0.1,0.2-0.1,0.3c0.1-0.1,0.1-0.2,0.2-0.3
	c-0.2,0.1-0.3,0.2-0.5,0.4c0.1,0,0.1-0.1,0.2-0.1c-0.4,0-1.1-0.1-1.1,0.5c0,0.2,0.1,0.3,0.3,0.3c0.7,0,1.3,0.5,2,0.8
	c0.4,0.2,0.7-0.3,0.3-0.5c-0.7-0.4-1.5-0.9-2.3-0.9c0.1,0.1,0.2,0.2,0.3,0.3c0,0,0-0.1,0-0.1c0,0.1-0.1,0.1-0.1,0.2
	c0,0,0.1-0.1,0.1-0.1c-0.1,0-0.1,0.1-0.2,0.1c0.2,0,0.4,0,0.7,0c0.2,0,0.4-0.3,0.6-0.4c0.1,0,0.2-0.2,0.2-0.3c0-0.2-0.1,0.1,0,0
	c0,0,0-0.1,0.1-0.1c0.1-0.1,0-0.3,0-0.4c0,0.1-0.1,0.1-0.1,0.2c0.1-0.1,0.2-0.2,0.2-0.4c-0.1,0.1-0.2,0.2-0.3,0.3c0,0,0.1,0,0.1,0
	c-0.1,0-0.1-0.1-0.2-0.1c0,0,0.1,0.1,0.1,0.1c0-0.1-0.1-0.1-0.1-0.2c0,0.8,0.2,1.5,0.5,2.2C85.4,32.3,86,32.2,85.9,31.8z"/>
<rect id="_x3C_Slice_x3E__103_" y="54.2" fill="none" width="58.3" height="54.2"/>
<rect id="_x3C_Slice_x3E__102_" x="58.3" y="54.2" fill="none" width="56.2" height="54.2"/>
<rect id="_x3C_Slice_x3E__101_" fill="none" width="58.3" height="54.2"/>
<rect id="_x3C_Slice_x3E__100_" x="58.3" fill="none" width="56.2" height="54.2"/>
</svg>
