<?xml version="1.0" encoding="utf-8"?>
<!-- Generator: Adobe Illustrator 15.0.2, SVG Export Plug-In  -->
<!DOCTYPE svg PUBLIC "-//W3C//DTD SVG 1.1//EN" "http://www.w3.org/Graphics/SVG/1.1/DTD/svg11.dtd" [
	<!ENTITY ns_flows "http://ns.adobe.com/Flows/1.0/">
]>
<svg version="1.1"
	 xmlns="http://www.w3.org/2000/svg" xmlns:xlink="http://www.w3.org/1999/xlink" xmlns:a="http://ns.adobe.com/AdobeSVGViewerExtensions/3.0/"
	 x="0px" y="0px" width="61px" height="34px" viewBox="55.7 0.9 61 34" overflow="visible" enable-background="new 55.7 0.9 61 34"
	 xml:space="preserve">
<defs>
</defs>
<path d="M78.5,24.5c0,3.2,0,6.4,0,9.7c0,0.4,0.6,0.4,0.6,0c0-3.2,0-6.4,0-9.7C79.1,24.1,78.5,24.1,78.5,24.5L78.5,24.5z"/>
<path d="M85.3,32.6c-0.6-0.7-1.1-1.4-1.7-2.1c-0.4-0.4-0.7-0.9-1.1-1.3c-0.1-0.1-0.2-0.3-0.3-0.4c-0.2-0.2-0.2,0.5,0,0.3
	c1.2-1.5,2.5-2.9,3.7-4.4c0.2-0.2,0.1-0.5-0.2-0.5c-2.7,0-5.5,0-8.2,0c-0.4,0-0.4,0.6,0,0.6c2.7,0,5.5,0,8.2,0
	c-0.1-0.2-0.1-0.4-0.2-0.5c-1.3,1.5-2.5,3-3.8,4.4c-0.1,0.1-0.1,0.3,0,0.4c1.1,1.3,2.1,2.6,3.2,3.9C85.1,33.3,85.5,32.9,85.3,32.6
	L85.3,32.6z"/>
<polygon fill-rule="evenodd" clip-rule="evenodd" points="86.1,34.1 85.8,33 85.7,32.4 85.7,32 85.6,31.9 85.6,31.9 85.5,31.8 
	85.5,31.9 85.4,31.9 85.4,32.1 85.4,32.4 85.3,32.5 85.1,32.7 85,32.8 84.9,32.9 84.7,33 84.6,33 84.4,33 84.1,33 84,33 84,33.1 
	84,33.2 84.1,33.2 84.5,33.4 85.1,33.6 86.1,34.1 "/>
<path d="M86.4,34c-0.1-0.4-0.3-0.8-0.4-1.2C86,32.5,86,32.3,86,32.1c0-0.2-0.2-0.4-0.3-0.5c-0.2-0.2-0.5-0.1-0.5,0.2
	c0,0,0,0.1,0,0.1c0.1-0.1,0.2-0.2,0.3-0.3c0,0-0.1,0-0.1,0c-0.2,0-0.3,0.1-0.3,0.3c0,0.1,0,0.1,0,0.2c0,0.2-0.1,0.2,0.1,0
	c-0.1,0.1-0.2,0.3-0.3,0.4c-0.1,0.1-0.1,0.1-0.1,0.1c-0.2,0.1,0,0-0.1,0c-0.2,0-0.3,0-0.5,0c-0.2,0-0.3,0.1-0.3,0.3
	c0,0.1,0,0.1,0,0.2c0,0.2,0.1,0.3,0.3,0.3c0.3,0,0.7,0.2,1,0.3c-0.1,0,0,0,0.1,0c0.1,0.1,0.2,0.1,0.3,0.2c0.2,0.1,0.4,0.2,0.5,0.3
	c0.4,0.2,0.7-0.3,0.3-0.5c-0.3-0.2-0.7-0.5-1.1-0.6c-0.4-0.1-0.8-0.3-1.2-0.3c0.1,0.1,0.2,0.2,0.3,0.3c0-0.1,0-0.1,0-0.2
	c-0.1,0.1-0.2,0.2-0.3,0.3c0.4,0,0.9,0.1,1.2-0.3c0.1-0.1,0.2-0.3,0.4-0.5c0.2-0.2,0.1-0.5,0.1-0.7c-0.1,0.1-0.2,0.2-0.3,0.3
	c0,0,0.1,0,0.1,0c0.2,0,0.3-0.1,0.3-0.3c0,0,0-0.1,0-0.1c-0.2,0.1-0.4,0.1-0.5,0.2c0.1,0.1,0.1,0.1,0.2,0.2c0-0.2-0.1-0.2-0.1-0.1
	c0,0.1,0,0.1,0,0.2c0,0.2,0.1,0.5,0.1,0.7c0.1,0.4,0.2,0.8,0.3,1.2C86,34.6,86.6,34.4,86.4,34z"/>
<path d="M81.2,20.1c-0.6,1.1-1.3,2.3-1.9,3.4c-0.1,0.2,0,0.5,0.3,0.5c1.3,0,2.6,0,3.9,0c0.2,0,0.4-0.3,0.3-0.5
	c-0.7-1.1-1.3-2.3-2-3.4c-0.2-0.3-0.7,0-0.5,0.3c0.7,1.1,1.3,2.3,2,3.4c0.1-0.2,0.2-0.3,0.3-0.5c-1.3,0-2.6,0-3.9,0
	c0.1,0.2,0.2,0.3,0.3,0.5c0.6-1.1,1.3-2.3,1.9-3.4C81.9,20,81.4,19.7,81.2,20.1L81.2,20.1z"/>
<rect id="_x3C_Slice_x3E__101_" fill="none" width="56.2" height="34.9"/>
<rect id="_x3C_Slice_x3E__100_" x="56.2" fill="none" width="61.3" height="34.9"/>
</svg>
