<?xml version="1.0" encoding="utf-8"?>
<!-- Generator: Adobe Illustrator 15.0.2, SVG Export Plug-In  -->
<!DOCTYPE svg PUBLIC "-//W3C//DTD SVG 1.1//EN" "http://www.w3.org/Graphics/SVG/1.1/DTD/svg11.dtd" [
	<!ENTITY ns_flows "http://ns.adobe.com/Flows/1.0/">
]>
<svg version="1.1"
	 xmlns="http://www.w3.org/2000/svg" xmlns:xlink="http://www.w3.org/1999/xlink" xmlns:a="http://ns.adobe.com/AdobeSVGViewerExtensions/3.0/"
	 x="0px" y="0px" width="51px" height="34px" viewBox="60.5 0.9 51 34" overflow="visible" enable-background="new 60.5 0.9 51 34"
	 xml:space="preserve">
<defs>
</defs>
<path d="M76.5,24.2c0,3.2,0,6.4,0,9.7c0,0.4,0.6,0.4,0.6,0c0-3.2,0-6.4,0-9.7C77.1,23.8,76.5,23.8,76.5,24.2L76.5,24.2z"/>
<path d="M81.1,32.9c0.7-0.9,1.4-1.7,2.1-2.6c0.1-0.1,0.1-0.3,0-0.4c-0.5-0.4-1-0.8-1.5-1.2c-0.4-0.3-0.7-0.6-1.1-0.9
	c-0.5-0.4-0.2,0-0.3,0.1c1.2-1.1,2.3-2.2,3.5-3.4c0.2-0.2,0-0.5-0.2-0.5c-2.7,0-5.4,0-8.1,0c-0.4,0-0.4,0.6,0,0.6c2.7,0,5.4,0,8.1,0
	c-0.1-0.2-0.1-0.4-0.2-0.5c-1.2,1.1-2.4,2.3-3.6,3.4c-0.1,0.1-0.1,0.3,0,0.4c1,0.8,1.9,1.6,2.9,2.4c0.1,0.1,0.2-0.5-0.1-0.1
	c-0.2,0.3-0.5,0.6-0.7,0.9c-0.4,0.5-0.8,0.9-1.2,1.4C80.4,32.8,80.9,33.2,81.1,32.9L81.1,32.9z"/>
<polygon fill-rule="evenodd" clip-rule="evenodd" points="80.8,21.8 80.8,21.5 80.7,21.2 80.6,21 80.3,20.9 80.2,20.7 80,20.6 
	79.8,20.6 79.5,20.5 79.2,20.6 79,20.6 78.8,20.7 78.7,20.9 78.5,21 78.3,21.2 78.2,21.5 78.2,21.8 78.2,22 78.3,22.2 78.5,22.5 
	78.7,22.7 78.8,22.8 79,22.9 79.2,23 79.5,23 79.8,23 80,22.9 80.2,22.8 80.3,22.7 80.6,22.5 80.7,22.2 80.8,22 80.8,21.8 "/>
<path d="M81.1,21.8c0-0.5-0.1-0.9-0.6-1.1c0.1,0.1,0.1,0.1,0,0c0-0.1-0.1-0.1-0.1-0.2c-0.1-0.1-0.2-0.1-0.3-0.2
	c-0.2-0.1-0.4-0.1-0.6-0.1c-0.1,0-0.2,0-0.3,0c-0.1,0-0.1,0.1-0.2,0.1c0.2-0.1,0,0-0.1,0c-0.2,0-0.5,0.1-0.5,0.3
	c0,0.1-0.1,0.1-0.1,0.2c0.1-0.1,0,0-0.1,0c-0.1,0.1-0.2,0.1-0.2,0.2c-0.1,0.2-0.2,0.4-0.2,0.6c0,0.4,0.1,0.9,0.4,1.2
	c0.3,0.3,0.7,0.6,1.1,0.6c0.4,0,0.8-0.1,1.1-0.4C80.9,22.6,81.1,22.2,81.1,21.8c0-0.4-0.6-0.4-0.6,0c0,0.1,0,0.1,0,0.2
	c0-0.2,0,0-0.1,0.1c-0.1,0.2-0.1,0.2-0.3,0.4c-0.1,0.1-0.2,0.1-0.3,0.2c-0.1,0-0.1,0.1-0.2,0.1c0.1,0,0.1,0,0,0c-0.1,0-0.2,0-0.3,0
	c-0.1,0-0.2-0.1-0.1,0c-0.1,0-0.1-0.1-0.2-0.1c-0.2-0.1-0.3-0.2-0.4-0.3c-0.1-0.1-0.2-0.3-0.2-0.4c0.1,0.2,0,0,0-0.1
	c0-0.1,0-0.2,0-0.3c0,0.2,0,0,0.1-0.1c0-0.1,0.1-0.1,0.1-0.2c-0.1,0.1,0,0,0.1,0c0.1,0,0.1-0.1,0.2-0.2c0.1-0.1,0.1-0.1,0,0
	c0.1,0,0.1,0,0.2-0.1c-0.2,0.1,0,0,0.1,0c0.1,0,0.2-0.1,0.3-0.1c0.2-0.1-0.3-0.1,0,0c0.2,0.1,0.3,0.1,0.4,0.1c-0.1,0-0.1,0,0,0
	c0.1,0.1,0.1,0.1,0,0c0,0.1,0.1,0.2,0.1,0.3c0.1,0.1,0.2,0.1,0.3,0.1c-0.1-0.1,0,0,0,0.1c0,0.1,0.1,0.3,0.1,0.1c0,0.1,0,0.2,0,0.3
	C80.5,22.2,81.1,22.2,81.1,21.8z"/>
<polygon fill-rule="evenodd" clip-rule="evenodd" points="79.9,33.9 80.8,33.5 81.3,33.2 81.7,33.1 81.8,33 81.8,32.9 81.8,32.9 
	81.7,32.8 81.6,32.9 81.3,32.8 81.2,32.8 81,32.8 80.9,32.7 80.8,32.6 80.7,32.4 80.7,32.2 80.6,32 80.6,31.9 80.6,31.8 80.5,31.8 
	80.3,31.8 80.3,31.9 80.2,32.2 80.1,32.9 79.9,33.9 "/>
<path d="M80.1,34.2c0.2-0.1,0.4-0.2,0.7-0.3c0,0,0.3-0.1,0.2-0.1c0.1-0.1,0.3-0.1,0.4-0.2c0.2-0.1,0.4-0.1,0.6-0.3
	c0.2-0.2,0.2-0.5,0-0.7c-0.1-0.1-0.3-0.1-0.4,0c0,0-0.1,0.1-0.1,0.1c0.1,0,0.3,0,0.4,0c-0.3-0.1-0.4-0.2-0.7-0.2
	c0.1,0,0.1,0.1,0.2,0.1c-0.1-0.1-0.1-0.1-0.2-0.2c0,0,0-0.3,0-0.1c0-0.1,0-0.2-0.1-0.3c0-0.1,0-0.2,0,0c0-0.1,0-0.1,0-0.2
	c0-0.2-0.1-0.3-0.3-0.3c-0.1,0-0.1,0-0.2,0c-0.2,0-0.3,0.1-0.3,0.3c0,0.1-0.1,0.3-0.1,0.4c0,0.2-0.1,0.4-0.1,0.6
	c-0.1,0.3-0.1,0.7-0.2,1c-0.1,0.4,0.5,0.6,0.6,0.2c0.1-0.3,0.2-0.7,0.2-1c0-0.2,0.1-0.4,0.1-0.6c0-0.2,0.1-0.3,0.1-0.5
	c-0.1,0.1-0.2,0.2-0.3,0.3c0.1,0,0.1,0,0.2,0c-0.1-0.1-0.2-0.2-0.3-0.3c0,0.2,0,0.3,0.1,0.5c0,0.1,0,0.1,0,0c0,0.1,0,0.1,0,0.2
	c0,0.1,0.1,0.1,0.1,0.2c0.1,0.1,0.3,0.4,0.5,0.4c0.1,0,0.2,0,0.3,0c-0.2,0,0,0,0.1,0.1c0.1,0.1,0.3,0.1,0.4,0c0,0,0.1-0.1,0.1-0.1
	c-0.1,0-0.3,0-0.4,0c0,0,0.1,0.1,0.1,0.1c0-0.1-0.1-0.1-0.1-0.2c0,0,0,0.1,0,0.1c0-0.1,0.1-0.1,0.1-0.2c-0.2,0.2,0.1,0,0,0.1
	c-0.1,0-0.2,0.1-0.3,0.1c-0.2,0.1-0.4,0.1-0.5,0.2c-0.3,0.1-0.7,0.3-1,0.5C79.4,33.8,79.7,34.4,80.1,34.2z"/>
<rect id="_x3C_Slice_x3E__101_" fill="none" width="61.3" height="34.9"/>
<rect id="_x3C_Slice_x3E__100_" x="61.3" fill="none" width="50.2" height="34.9"/>
</svg>
