<?xml version="1.0" encoding="utf-8"?>
<!-- Generator: Adobe Illustrator 15.0.2, SVG Export Plug-In  -->
<!DOCTYPE svg PUBLIC "-//W3C//DTD SVG 1.1//EN" "http://www.w3.org/Graphics/SVG/1.1/DTD/svg11.dtd" [
	<!ENTITY ns_flows "http://ns.adobe.com/Flows/1.0/">
]>
<svg version="1.1"
	 xmlns="http://www.w3.org/2000/svg" xmlns:xlink="http://www.w3.org/1999/xlink" xmlns:a="http://ns.adobe.com/AdobeSVGViewerExtensions/3.0/"
	 x="0px" y="0px" width="51px" height="50px" viewBox="60.5 0.3 51 50" overflow="visible" enable-background="new 60.5 0.3 51 50"
	 xml:space="preserve">
<defs>
</defs>
<path d="M83,25.5c-2.7,0-5.5,0-8.2,0c-0.4,0-0.4,0.6,0,0.6c2.7,0,5.5,0,8.2,0C83.4,26.2,83.4,25.5,83,25.5L83,25.5z"/>
<path d="M83,27c-2.7,0-5.5,0-8.2,0c-0.4,0-0.4,0.6,0,0.6c2.7,0,5.5,0,8.2,0C83.4,27.6,83.4,27,83,27L83,27z"/>
<path d="M82.6,27.9c0.6-0.3,1.2-0.7,1.8-1c0.2-0.1,0.2-0.4,0-0.5c-0.6-0.4-1.2-0.7-1.8-1.1c-0.3-0.2-0.7,0.3-0.3,0.5
	c0.6,0.4,1.2,0.7,1.8,1.1c0-0.2,0-0.4,0-0.5c-0.6,0.3-1.2,0.7-1.8,1C82,27.6,82.3,28.1,82.6,27.9L82.6,27.9z"/>
<polygon fill-rule="evenodd" clip-rule="evenodd" points="78.7,31.4 79.1,30.5 79.5,30 79.7,29.6 79.7,29.5 79.7,29.4 79.6,29.4 
	79.5,29.4 79.3,29.5 79.2,29.7 79,29.7 78.9,29.9 78.7,29.9 78.6,29.9 78.5,29.7 78.2,29.7 78.1,29.5 78,29.4 77.9,29.4 77.8,29.4 
	77.8,29.5 77.8,29.6 78,30 78.3,30.5 78.7,31.4 "/>
<path d="M79,31.6c0.2-0.4,0.3-0.7,0.6-1.1c0.2-0.4,0.5-0.7,0.5-1.1c0-0.2-0.1-0.3-0.3-0.3c-0.4,0-0.5,0.1-0.7,0.5
	c0.1-0.1,0.2-0.1,0.3-0.2c-0.2,0-0.4,0-0.6,0.2c0.1,0,0.1-0.1,0.2-0.1c-0.1,0-0.2,0-0.3,0c0.1,0,0.1,0.1,0.2,0.1
	c-0.2-0.2-0.3-0.2-0.6-0.2c0.1,0.1,0.2,0.1,0.3,0.2c-0.2-0.3-0.3-0.5-0.7-0.5c-0.2,0-0.3,0.1-0.3,0.3c0,0.4,0.2,0.7,0.5,1
	c0,0.1,0.1,0.2,0.1,0.2c-0.1-0.1,0,0.1,0.1,0.2c0.1,0.2,0.2,0.4,0.2,0.7c0.1,0.4,0.7,0.2,0.6-0.2c-0.1-0.3-0.2-0.7-0.4-1
	c-0.1-0.2-0.2-0.3-0.3-0.5c-0.1-0.1-0.1-0.2-0.2-0.3c0.1,0.1,0,0.2,0,0c0,0,0-0.1,0-0.1c-0.1,0.1-0.2,0.2-0.3,0.3c0.1,0,0.1,0,0.2,0
	c-0.1,0-0.1-0.1-0.2-0.1c0.1,0.1,0.1,0.1,0.2,0.3c0,0.1,0.2,0.2,0.3,0.2c0.1,0,0.1,0,0.2,0c-0.1,0-0.1-0.1-0.2-0.1
	c0.3,0.3,0.7,0.3,1,0c-0.1,0-0.1,0.1-0.2,0.1c0.1,0,0.1,0,0.2,0c0.1,0,0.2-0.1,0.3-0.2c0.1-0.1,0.1-0.2,0.2-0.3
	c-0.1,0-0.1,0.1-0.2,0.1c0.1,0,0.1,0,0.2,0c-0.1-0.1-0.2-0.2-0.3-0.3c0,0.1,0,0.1,0,0.2c0-0.1,0-0.1,0,0c0,0.1-0.1,0.1-0.1,0.2
	c-0.1,0.2-0.2,0.3-0.3,0.5c-0.2,0.3-0.3,0.7-0.5,1C78.2,31.6,78.8,31.9,79,31.6z"/>
<path d="M79,29.9c0-2.7,0-5.4,0-8.1c0-0.4-0.6-0.4-0.6,0c0,2.7,0,5.4,0,8.1C78.4,30.3,79,30.3,79,29.9L79,29.9z"/>
<rect id="_x3C_Slice_x3E__103_" y="50.2" fill="none" width="61.3" height="49.2"/>
<rect id="_x3C_Slice_x3E__102_" x="61.3" y="50.2" fill="none" width="50.2" height="49.2"/>
<rect id="_x3C_Slice_x3E__101_" fill="none" width="61.3" height="50.2"/>
<rect id="_x3C_Slice_x3E__100_" x="61.3" fill="none" width="50.2" height="50.2"/>
</svg>
