<?xml version="1.0" encoding="utf-8"?>
<!-- Generator: Adobe Illustrator 15.0.2, SVG Export Plug-In  -->
<!DOCTYPE svg PUBLIC "-//W3C//DTD SVG 1.1//EN" "http://www.w3.org/Graphics/SVG/1.1/DTD/svg11.dtd" [
	<!ENTITY ns_flows "http://ns.adobe.com/Flows/1.0/">
]>
<svg version="1.1"
	 xmlns="http://www.w3.org/2000/svg" xmlns:xlink="http://www.w3.org/1999/xlink" xmlns:a="http://ns.adobe.com/AdobeSVGViewerExtensions/3.0/"
	 x="0px" y="0px" width="58px" height="54px" viewBox="53.7 0.8 58 54" overflow="visible" enable-background="new 53.7 0.8 58 54"
	 xml:space="preserve">
<defs>
</defs>
<path d="M89,31.1c-3.5,0-7,0-10.6,0c-0.4,0-0.4,0.6,0,0.6c3.5,0,7,0,10.6,0C89.4,31.7,89.4,31.1,89,31.1L89,31.1z"/>
<path d="M82,26.8c-1.2,0-2.4,0-3.6,0c-0.4,0-0.4,0.6,0,0.6c1.2,0,2.4,0,3.6,0C82.4,27.4,82.4,26.8,82,26.8L82,26.8z"/>
<path d="M89,26.8c-1.2,0-2.4,0-3.6,0c-0.4,0-0.4,0.6,0,0.6c1.2,0,2.4,0,3.6,0C89.4,27.4,89.4,26.8,89,26.8L89,26.8z"/>
<rect id="_x3C_Slice_x3E__103_" y="54.2" fill="none" width="54.2" height="54.2"/>
<rect id="_x3C_Slice_x3E__102_" x="54.2" y="54.2" fill="none" width="58.3" height="54.2"/>
<rect id="_x3C_Slice_x3E__101_" fill="none" width="54.2" height="54.2"/>
<rect id="_x3C_Slice_x3E__100_" x="54.2" fill="none" width="58.3" height="54.2"/>
</svg>
