<?xml version="1.0" encoding="utf-8"?>
<!-- Generator: Adobe Illustrator 15.0.2, SVG Export Plug-In  -->
<!DOCTYPE svg PUBLIC "-//W3C//DTD SVG 1.1//EN" "http://www.w3.org/Graphics/SVG/1.1/DTD/svg11.dtd" [
	<!ENTITY ns_flows "http://ns.adobe.com/Flows/1.0/">
]>
<svg version="1.1"
	 xmlns="http://www.w3.org/2000/svg" xmlns:xlink="http://www.w3.org/1999/xlink" xmlns:a="http://ns.adobe.com/AdobeSVGViewerExtensions/3.0/"
	 x="0px" y="0px" width="61px" height="35px" viewBox="55.7 0 61 35" overflow="visible" enable-background="new 55.7 0 61 35"
	 xml:space="preserve">
<defs>
</defs>
<path d="M79.4,12c0.8,0.6,2.4,1.6,3.4,0.6c1.2-1.2,1.9-2.1,1.3-4c-0.6-1.7-4.3-2.5-4.3-4.2c0-1.9,2.3-3.3,3.5-1.5
	c0.2,0.3,0.8,0,0.5-0.3c-2-3-6.5,0.6-3.9,3.2c1.3,1.3,5.3,2.8,3.4,5.3c-1.1,1.4-2.3,1.2-3.6,0.2C79.4,11.2,79.1,11.8,79.4,12
	L79.4,12z"/>
<rect id="_x3C_Slice_x3E__103_" y="34.2" fill="none" width="56.2" height="54.2"/>
<rect id="_x3C_Slice_x3E__102_" x="56.2" y="34.2" fill="none" width="61.3" height="54.2"/>
<rect id="_x3C_Slice_x3E__101_" fill="none" width="56.2" height="34.2"/>
<rect id="_x3C_Slice_x3E__100_" x="56.2" fill="none" width="61.3" height="34.2"/>
</svg>
