<?xml version="1.0" encoding="utf-8"?>
<!-- Generator: Adobe Illustrator 15.0.2, SVG Export Plug-In  -->
<!DOCTYPE svg PUBLIC "-//W3C//DTD SVG 1.1//EN" "http://www.w3.org/Graphics/SVG/1.1/DTD/svg11.dtd" [
	<!ENTITY ns_flows "http://ns.adobe.com/Flows/1.0/">
]>
<svg version="1.1"
	 xmlns="http://www.w3.org/2000/svg" xmlns:xlink="http://www.w3.org/1999/xlink" xmlns:a="http://ns.adobe.com/AdobeSVGViewerExtensions/3.0/"
	 x="0px" y="0px" width="49px" height="50px" viewBox="56.2 0.1 49 50" overflow="visible" enable-background="new 56.2 0.1 49 50"
	 xml:space="preserve">
<defs>
</defs>
<path d="M84.5,33.3c-3.5,0-7,0-10.6,0c-0.4,0-0.4,0.6,0,0.6c3.5,0,7,0,10.6,0C84.9,34,84.9,33.3,84.5,33.3L84.5,33.3z"/>
<path d="M84.5,30.1c-3.5,0-7,0-10.6,0c-0.4,0-0.4,0.6,0,0.6c3.5,0,7,0,10.6,0C84.9,30.7,84.9,30.1,84.5,30.1L84.5,30.1z"/>
<path d="M77.2,26.8c-1.1,0-2.1,0-3.2,0c-0.4,0-0.4,0.6,0,0.6c1.1,0,2.1,0,3.2,0C77.6,27.4,77.6,26.8,77.2,26.8L77.2,26.8z"/>
<path d="M84.5,26.8c-1.1,0-2.1,0-3.2,0c-0.4,0-0.4,0.6,0,0.6c1.1,0,2.1,0,3.2,0C84.9,27.4,84.9,26.8,84.5,26.8L84.5,26.8z"/>
<rect id="_x3C_Slice_x3E__103_" y="49.2" fill="none" width="56.2" height="63.3"/>
<rect id="_x3C_Slice_x3E__102_" x="56.2" y="49.2" fill="none" width="49.2" height="63.3"/>
<rect id="_x3C_Slice_x3E__101_" fill="none" width="56.2" height="49.2"/>
<rect id="_x3C_Slice_x3E__100_" x="56.2" fill="none" width="49.2" height="49.2"/>
</svg>
