<?xml version="1.0" encoding="utf-8"?>
<!-- Generator: Adobe Illustrator 15.0.2, SVG Export Plug-In  -->
<!DOCTYPE svg PUBLIC "-//W3C//DTD SVG 1.1//EN" "http://www.w3.org/Graphics/SVG/1.1/DTD/svg11.dtd" [
	<!ENTITY ns_flows "http://ns.adobe.com/Flows/1.0/">
]>
<svg version="1.1"
	 xmlns="http://www.w3.org/2000/svg" xmlns:xlink="http://www.w3.org/1999/xlink" xmlns:a="http://ns.adobe.com/AdobeSVGViewerExtensions/3.0/"
	 x="0px" y="0px" width="51px" height="50px" viewBox="60.5 0.6 51 50" overflow="visible" enable-background="new 60.5 0.6 51 50"
	 xml:space="preserve">
<defs>
</defs>
<path d="M84.2,24.2c0.6,1,1.1,3.5-1,3.5c-2.2,0-3.9-2.6-5.5-3.8c-1-0.8-3-0.8-3.7,0.5c-0.6,1.2-0.3,2.3,0.4,3.5
	c0.2,0.3,0.7,0,0.5-0.3c-0.7-1.2-1.1-3,0.5-3.5c1.9-0.6,4.1,2.1,5.3,3.3c1.2,1.2,3,1.3,4.2,0.1c1-1,0.4-2.6-0.2-3.6
	C84.5,23.5,84,23.9,84.2,24.2L84.2,24.2z"/>
<g>
	<polygon fill-rule="evenodd" clip-rule="evenodd" points="77.3,25.8 77.3,25.6 77.2,25.4 77.1,25.2 77,24.9 76.8,24.8 76.6,24.7 
		76.3,24.6 76.1,24.6 75.9,24.6 75.7,24.7 75.5,24.8 75.2,24.9 75.1,25.2 75,25.4 74.9,25.6 74.9,25.8 74.9,26.2 75,26.4 75.1,26.6 
		75.2,26.7 75.5,26.9 75.7,27 75.9,27.2 76.1,27.2 76.3,27.2 76.6,27 76.8,26.9 77,26.7 77.1,26.6 77.2,26.4 77.3,26.2 77.3,25.8 	
		"/>
</g>
<g>
	<polygon fill-rule="evenodd" clip-rule="evenodd" points="84.1,25.8 84.1,25.6 84,25.4 83.9,25.2 83.8,24.9 83.6,24.8 83.3,24.7 
		83.1,24.6 82.9,24.6 82.7,24.6 82.5,24.7 82.2,24.8 82,24.9 81.9,25.2 81.8,25.4 81.7,25.6 81.7,25.8 81.7,26.2 81.8,26.4 
		81.9,26.6 82,26.7 82.2,26.9 82.5,27 82.7,27.2 82.9,27.2 83.1,27.2 83.3,27 83.6,26.9 83.8,26.7 83.9,26.6 84,26.4 84.1,26.2 
		84.1,25.8 	"/>
</g>
<rect id="_x3C_Slice_x3E__103_" y="50.2" fill="none" width="61.3" height="51.2"/>
<rect id="_x3C_Slice_x3E__102_" x="61.3" y="50.2" fill="none" width="50.2" height="51.2"/>
<rect id="_x3C_Slice_x3E__101_" fill="none" width="61.3" height="50.2"/>
<rect id="_x3C_Slice_x3E__100_" x="61.3" fill="none" width="50.2" height="50.2"/>
</svg>
