<?xml version="1.0" encoding="utf-8"?>
<!-- Generator: Adobe Illustrator 15.0.2, SVG Export Plug-In  -->
<!DOCTYPE svg PUBLIC "-//W3C//DTD SVG 1.1//EN" "http://www.w3.org/Graphics/SVG/1.1/DTD/svg11.dtd" [
	<!ENTITY ns_flows "http://ns.adobe.com/Flows/1.0/">
]>
<svg version="1.1"
	 xmlns="http://www.w3.org/2000/svg" xmlns:xlink="http://www.w3.org/1999/xlink" xmlns:a="http://ns.adobe.com/AdobeSVGViewerExtensions/3.0/"
	 x="0px" y="0px" width="56px" height="51px" viewBox="48.9 0.4 56 51" overflow="visible" enable-background="new 48.9 0.4 56 51"
	 xml:space="preserve">
<defs>
</defs>
<polygon fill-rule="evenodd" clip-rule="evenodd" points="77.5,25.7 77.5,25.5 77.4,25.4 77.1,25.3 77,25.3 76.8,25.3 76.6,25.4 
	76.5,25.5 76.5,25.7 76.5,25.9 76.6,26.2 76.8,26.3 77,26.3 77.1,26.3 77.4,26.2 77.5,25.9 77.5,25.7 "/>
<path d="M77.8,25.7c0-0.2,0-0.5-0.3-0.6C77.3,25,77.2,25,76.9,25c-0.2,0-0.4,0.1-0.6,0.2c-0.1,0.1-0.2,0.2-0.2,0.3
	c0,0.1,0,0.2,0,0.3c0,0.2,0.1,0.5,0.3,0.6c0.1,0,0.1,0.1,0.2,0.1c0.1,0.1,0.3,0,0.4,0c0.2,0,0.5-0.1,0.6-0.3c0-0.1,0.1-0.1,0.1-0.2
	C77.8,26,77.8,25.8,77.8,25.7c0-0.4-0.6-0.4-0.6,0c0,0,0,0.1,0,0.1c0,0.1,0,0.2,0,0c0,0,0,0.1-0.1,0.1c-0.1,0.1-0.1,0.1,0,0
	c0,0-0.1,0-0.1,0.1c-0.1,0.1-0.1,0,0,0c-0.1,0-0.2,0-0.3,0c-0.1,0,0.2,0.1,0.1,0c-0.1,0-0.1-0.1-0.2-0.1c-0.1-0.1,0.1,0.2,0.1,0.1
	c0-0.1-0.1-0.1-0.1-0.2c-0.1-0.1,0,0.2,0,0.1c0-0.1,0-0.1,0-0.2c0-0.1,0-0.2,0-0.2c0,0.1-0.1,0.1-0.1,0.2c0,0,0.1-0.1,0.1-0.1
	c-0.1,0.1,0,0,0.1,0c0.1-0.1,0.1,0,0,0c0.1,0,0.1,0,0.2,0c0,0,0.1,0,0.1,0c0.1,0-0.2-0.1,0,0c0,0,0.1,0,0.1,0.1
	c-0.1-0.1,0,0,0.1,0.1c0-0.1-0.1-0.1-0.1-0.2c0,0.1,0,0.1,0,0.2C77.2,26.1,77.8,26.1,77.8,25.7z"/>
<path d="M78.5,25.4c-1,0-2,0-3,0c-0.4,0-0.4,0.6,0,0.6c1,0,2,0,3,0C78.9,26,78.9,25.4,78.5,25.4L78.5,25.4z"/>
<path d="M77.4,24.2c-0.5,0.9-1,1.8-1.4,2.7c-0.2,0.4,0.3,0.7,0.5,0.3c0.5-0.9,1-1.8,1.4-2.7C78.2,24.2,77.6,23.9,77.4,24.2
	L77.4,24.2z"/>
<path d="M78,26.9c-0.5-0.9-1-1.8-1.4-2.7c-0.2-0.4-0.7,0-0.5,0.3c0.5,0.9,1,1.8,1.4,2.7C77.6,27.6,78.2,27.2,78,26.9L78,26.9z"/>
<polygon fill-rule="evenodd" clip-rule="evenodd" points="75.2,29.6 75.1,29.5 75,29.3 74.9,29.2 74.7,29.2 74.5,29.2 74.4,29.3 
	74.2,29.5 74.2,29.6 74.2,29.8 74.4,30 74.5,30.2 74.7,30.2 74.9,30.2 75,30 75.1,29.8 75.2,29.6 "/>
<path d="M75.5,29.4C75.4,29.4,75.4,29.3,75.5,29.4c-0.1-0.1,0,0-0.1-0.1c0-0.1-0.1-0.2-0.2-0.3c-0.2-0.2-0.3-0.2-0.6-0.2
	s-0.5,0-0.6,0.3c-0.1,0.2-0.1,0.3-0.1,0.6c0,0.2,0.1,0.4,0.2,0.6c0.1,0.1,0.2,0.2,0.3,0.2c0.1,0,0.2,0,0.2,0c0.2,0,0.5,0,0.6-0.3
	c0.1-0.1,0.1-0.3,0.2-0.4c0.2-0.4-0.4-0.7-0.5-0.3c0,0.1-0.1,0.2-0.1,0.3c0,0.1-0.1,0.1-0.1,0.2c0.1-0.1,0,0-0.1,0.1
	c0.1,0,0.1-0.1,0.2-0.1c-0.1,0-0.3,0-0.4,0c0.1,0,0.1,0.1,0.2,0.1c0,0-0.1-0.1-0.1-0.1c0.1,0.1,0,0,0-0.1c-0.1-0.1,0-0.1,0,0
	c0-0.1,0-0.1,0-0.2c0,0,0-0.1,0-0.1c0-0.1-0.1,0.2,0,0c0,0,0-0.1,0.1-0.1c-0.1,0.1,0,0,0.1-0.1c-0.1,0-0.1,0.1-0.2,0.1
	c0.1,0,0.3,0,0.4,0c-0.1,0-0.1-0.1-0.2-0.1c0,0,0.1,0.1,0.1,0.1c-0.1-0.1,0,0.1,0,0.1c0,0.1,0.1,0.2,0.2,0.2
	C75.3,30.1,75.8,29.7,75.5,29.4z"/>
<path d="M76.2,29.3c-1,0-2.1,0-3.1,0c-0.4,0-0.4,0.6,0,0.6c1,0,2.1,0,3.1,0C76.6,29.9,76.6,29.3,76.2,29.3L76.2,29.3z"/>
<path d="M75.2,28.1c-0.5,0.9-1,1.9-1.6,2.8c-0.2,0.4,0.3,0.7,0.5,0.3c0.5-0.9,1-1.9,1.6-2.8C75.9,28.1,75.4,27.8,75.2,28.1
	L75.2,28.1z"/>
<path d="M75.7,30.9c-0.5-0.9-1-1.9-1.6-2.8c-0.2-0.4-0.7,0-0.5,0.3c0.5,0.9,1,1.9,1.6,2.8C75.4,31.6,75.9,31.2,75.7,30.9L75.7,30.9z
	"/>
<polygon fill-rule="evenodd" clip-rule="evenodd" points="77.5,33.6 77.5,33.4 77.4,33.2 77.1,33 77,33 76.8,33 76.6,33.2 
	76.5,33.4 76.5,33.6 76.5,33.8 76.6,33.9 76.8,34 77,34 77.1,34 77.4,33.9 77.5,33.8 77.5,33.6 "/>
<path d="M77.8,33.6c0-0.1,0-0.2,0-0.3c0-0.1-0.1-0.2-0.1-0.3c-0.1-0.2-0.4-0.3-0.6-0.3c-0.1,0-0.2,0-0.3,0c-0.1,0-0.2,0.1-0.3,0.1
	c-0.2,0.1-0.3,0.4-0.3,0.6c0,0.2,0,0.4,0.2,0.6c0.2,0.2,0.4,0.2,0.6,0.2c0.2,0,0.4-0.1,0.6-0.1C77.8,34.1,77.8,33.8,77.8,33.6
	c0-0.4-0.6-0.4-0.6,0c0,0.1,0,0.1,0,0.2c0-0.1,0.1-0.1,0.1-0.2c0,0-0.1,0.1-0.1,0.1c0.1-0.1,0,0-0.1,0c-0.1,0.1-0.1,0,0,0
	c0,0-0.1,0-0.1,0c-0.1,0-0.1,0-0.2,0c-0.1,0,0.2,0.1,0,0c0,0-0.1,0-0.1-0.1c0.1,0.1,0,0-0.1-0.1c0,0.1,0.1,0.1,0.1,0.2
	c0-0.1,0-0.1,0-0.2c0,0,0-0.1,0-0.1c0-0.1,0-0.2,0,0c0,0,0-0.1,0.1-0.1c0.1-0.1,0.1-0.1,0,0c0,0,0.1,0,0.1-0.1c0.2-0.1-0.2,0,0,0
	c0.1,0,0.2,0,0.2,0c0.1,0-0.2-0.1-0.1,0c0.1,0,0.1,0.1,0.2,0.1c0.1,0.1-0.1-0.2-0.1-0.1c0,0.1,0.1,0.1,0.1,0.2c0,0.1,0-0.2,0,0
	c0,0,0,0.1,0,0.1C77.2,34,77.8,34,77.8,33.6z"/>
<path d="M78.5,33.3c-1,0-2,0-3,0c-0.4,0-0.4,0.6,0,0.6c1,0,2,0,3,0C78.9,33.9,78.9,33.3,78.5,33.3L78.5,33.3z"/>
<path d="M77.4,32.1c-0.5,0.9-1,1.8-1.4,2.7c-0.2,0.4,0.3,0.7,0.5,0.3c0.5-0.9,1-1.8,1.4-2.7C78.2,32.1,77.6,31.8,77.4,32.1
	L77.4,32.1z"/>
<path d="M78,34.8c-0.5-0.9-1-1.8-1.4-2.7c-0.2-0.4-0.7,0-0.5,0.3c0.5,0.9,1,1.8,1.4,2.7C77.6,35.4,78.2,35.1,78,34.8L78,34.8z"/>
<polygon fill-rule="evenodd" clip-rule="evenodd" points="79.7,29.6 79.7,29.5 79.6,29.3 79.5,29.2 79.2,29.2 79,29.2 78.9,29.3 
	78.8,29.5 78.7,29.6 78.8,29.8 78.9,30 79,30.2 79.2,30.2 79.5,30.2 79.6,30 79.7,29.8 79.7,29.6 "/>
<path d="M80,29.6c0-0.2-0.1-0.3-0.2-0.5c-0.1-0.2-0.4-0.3-0.6-0.3c-0.2,0-0.4,0-0.5,0.2c-0.1,0.1-0.1,0.1-0.1,0.2c0,0-0.1,0.1,0,0.1
	c0,0-0.1,0.1-0.1,0.1c-0.1,0.1-0.1,0.3,0,0.4c0.1,0.1,0.1,0.3,0.2,0.4c0.1,0.2,0.4,0.3,0.6,0.3c0.2,0,0.5,0,0.6-0.3
	c0-0.1,0.1-0.1,0.1-0.2C80,29.9,80,29.7,80,29.6c0-0.4-0.6-0.4-0.6,0c0,0,0,0.1,0,0.1c0,0.2,0.1-0.2,0,0c0,0,0,0.1-0.1,0.1
	c0.1-0.1,0,0-0.1,0.1c0.1,0,0.1-0.1,0.2-0.1c-0.1,0-0.3,0-0.4,0c0.1,0,0.1,0.1,0.2,0.1c0,0-0.1-0.2-0.1-0.1c0-0.1-0.1-0.1-0.1-0.2
	c0-0.1-0.1-0.2-0.1-0.3c0,0.1,0,0.3,0,0.4c0.1-0.1,0.1-0.1,0.2-0.2c0,0,0-0.1,0.1-0.1c-0.1,0.1,0,0,0.1-0.1c-0.1,0-0.1,0.1-0.2,0.1
	c0.1,0,0.3,0,0.4,0c-0.1,0-0.1-0.1-0.2-0.1c0,0,0,0,0.1,0.1c0.1,0.1,0-0.1,0,0c0,0,0,0.1,0.1,0.1c-0.1-0.2,0-0.1,0,0
	C79.4,30,80,30,80,29.6z"/>
<path d="M80.8,29.3c-1,0-2.1,0-3.1,0c-0.4,0-0.4,0.6,0,0.6c1,0,2.1,0,3.1,0C81.2,29.9,81.2,29.3,80.8,29.3L80.8,29.3z"/>
<path d="M79.8,28.1c-0.5,0.9-1,1.9-1.6,2.8c-0.2,0.4,0.3,0.7,0.5,0.3c0.5-0.9,1-1.9,1.6-2.8C80.5,28.1,80,27.8,79.8,28.1L79.8,28.1z
	"/>
<path d="M80.3,30.9c-0.5-0.9-1-1.9-1.6-2.8c-0.2-0.4-0.7,0-0.5,0.3c0.5,0.9,1,1.9,1.6,2.8C80,31.6,80.5,31.2,80.3,30.9L80.3,30.9z"
	/>
<rect id="_x3C_Slice_x3E__103_" y="51.2" fill="none" width="49.2" height="59.3"/>
<rect id="_x3C_Slice_x3E__102_" x="49.2" y="51.2" fill="none" width="56.2" height="59.3"/>
<rect id="_x3C_Slice_x3E__101_" fill="none" width="49.2" height="51.2"/>
<rect id="_x3C_Slice_x3E__100_" x="49.2" fill="none" width="56.2" height="51.2"/>
</svg>
