<?xml version="1.0" encoding="utf-8"?>
<!-- Generator: Adobe Illustrator 15.0.2, SVG Export Plug-In  -->
<!DOCTYPE svg PUBLIC "-//W3C//DTD SVG 1.1//EN" "http://www.w3.org/Graphics/SVG/1.1/DTD/svg11.dtd" [
	<!ENTITY ns_flows "http://ns.adobe.com/Flows/1.0/">
]>
<svg version="1.1"
	 xmlns="http://www.w3.org/2000/svg" xmlns:xlink="http://www.w3.org/1999/xlink" xmlns:a="http://ns.adobe.com/AdobeSVGViewerExtensions/3.0/"
	 x="0px" y="0px" width="61px" height="60px" viewBox="55.7 0.2 61 60" overflow="visible" enable-background="new 55.7 0.2 61 60"
	 xml:space="preserve">
<defs>
</defs>
<path d="M82.1,37.4c-0.7-2.1-1.5-4.1-2.2-6.2c-0.1,0.1-0.2,0.3-0.3,0.4c1.4,0,2.9,0,4.3,0c-0.1-0.1-0.2-0.3-0.3-0.4
	c-0.7,2.1-1.4,4.1-2.1,6.2c-0.1,0.4,0.5,0.5,0.6,0.2c0.7-2.1,1.4-4.1,2.1-6.2c0.1-0.2-0.1-0.4-0.3-0.4c-1.4,0-2.9,0-4.3,0
	c-0.2,0-0.4,0.2-0.3,0.4c0.7,2.1,1.5,4.1,2.2,6.2C81.6,38,82.3,37.8,82.1,37.4L82.1,37.4z"/>
<path d="M83.4,32.4c-1.1,0-2.1,0-3.2,0c-0.4,0-0.4,0.6,0,0.6c1.1,0,2.1,0,3.2,0C83.8,33,83.8,32.4,83.4,32.4L83.4,32.4z"/>
<polygon fill-rule="evenodd" clip-rule="evenodd" points="82.3,28.7 82.3,28.5 82.1,28.4 81.9,28.3 81.8,28.2 81.6,28.3 81.4,28.4 
	81.3,28.5 81.3,28.7 81.3,28.9 81.4,29.1 81.6,29.2 81.8,29.3 81.9,29.2 82.1,29.1 82.3,28.9 82.3,28.7 "/>
<path d="M82.6,28.7c0-0.2,0-0.4-0.2-0.5c-0.1-0.1-0.1-0.1-0.2-0.1c0,0-0.1-0.1,0,0c0,0-0.1-0.1-0.1-0.1c-0.1-0.1-0.3-0.1-0.4,0
	c-0.1,0.1-0.3,0.1-0.4,0.2c-0.2,0.1-0.3,0.4-0.3,0.6s0,0.5,0.3,0.6c0.1,0.1,0.3,0.1,0.4,0.2c0.1,0.1,0.3,0.1,0.4,0c0,0,0,0,0.1-0.1
	c0.1-0.1-0.1,0,0,0c0.1,0,0.2-0.1,0.2-0.1C82.6,29.1,82.6,29,82.6,28.7c0-0.4-0.6-0.4-0.6,0c0,0.1,0,0.1,0,0.2
	c0-0.1,0.1-0.1,0.1-0.2c0,0-0.1,0.1-0.1,0.1c0.1-0.1-0.1,0-0.1,0c-0.1,0-0.2,0.1-0.2,0.2c0.1,0,0.3,0,0.4,0c-0.1,0-0.2-0.1-0.3-0.1
	c-0.1,0-0.1-0.1-0.2-0.1c0.1,0.1,0,0-0.1-0.1c0,0.1,0.1,0.1,0.1,0.2c0-0.1,0-0.3,0-0.4c0,0.1-0.1,0.1-0.1,0.2c0,0,0.2-0.1,0.1-0.1
	c0.1,0,0.1-0.1,0.2-0.1c0.1,0,0.2-0.1,0.3-0.1c-0.1,0-0.3,0-0.4,0c0.1,0.1,0.1,0.1,0.2,0.2c0,0,0.1,0,0.1,0.1c-0.1-0.1,0,0,0.1,0.1
	c0-0.1-0.1-0.1-0.1-0.2c0,0.1,0,0.1,0,0.2C81.9,29.1,82.6,29.1,82.6,28.7z"/>
<path d="M83.3,28.4c-1,0-2,0-3,0c-0.4,0-0.4,0.6,0,0.6c1,0,2,0,3,0C83.7,29,83.7,28.4,83.3,28.4L83.3,28.4z"/>
<path d="M82.2,27.2c-0.5,0.9-1,1.8-1.4,2.7c-0.2,0.4,0.3,0.7,0.5,0.3c0.5-0.9,1-1.8,1.4-2.7C82.9,27.2,82.4,26.9,82.2,27.2
	L82.2,27.2z"/>
<path d="M82.8,29.9c-0.5-0.9-1-1.8-1.4-2.7c-0.2-0.4-0.7,0-0.5,0.3c0.5,0.9,1,1.8,1.4,2.7C82.4,30.6,82.9,30.2,82.8,29.9L82.8,29.9z
	"/>
<rect id="_x3C_Slice_x3E__103_" y="59.3" fill="none" width="56.2" height="34.9"/>
<rect id="_x3C_Slice_x3E__102_" x="56.2" y="59.3" fill="none" width="61.3" height="34.9"/>
<rect id="_x3C_Slice_x3E__101_" fill="none" width="56.2" height="59.3"/>
<rect id="_x3C_Slice_x3E__100_" x="56.2" fill="none" width="61.3" height="59.3"/>
</svg>
