<?xml version="1.0" encoding="utf-8"?>
<!-- Generator: Adobe Illustrator 15.0.2, SVG Export Plug-In  -->
<!DOCTYPE svg PUBLIC "-//W3C//DTD SVG 1.1//EN" "http://www.w3.org/Graphics/SVG/1.1/DTD/svg11.dtd" [
	<!ENTITY ns_flows "http://ns.adobe.com/Flows/1.0/">
]>
<svg version="1.1"
	 xmlns="http://www.w3.org/2000/svg" xmlns:xlink="http://www.w3.org/1999/xlink" xmlns:a="http://ns.adobe.com/AdobeSVGViewerExtensions/3.0/"
	 x="0px" y="0px" width="56px" height="54px" viewBox="48.9 0.8 56 54" overflow="visible" enable-background="new 48.9 0.8 56 54"
	 xml:space="preserve">
<defs>
</defs>
<path d="M73.2,32.6C75,29,75,25,73.2,21.5c-0.2-0.4-0.7,0-0.5,0.3c1.7,3.3,1.7,7.1,0,10.5C72.5,32.6,73,33,73.2,32.6L73.2,32.6z"/>
<path d="M81.3,32.3c-1.6-3.1-1.9-7.4,0-10.5c0.2-0.3-0.3-0.7-0.5-0.3c-2,3.3-1.7,7.7,0,11.1C80.9,33,81.5,32.6,81.3,32.3L81.3,32.3z
	"/>
<polygon fill-rule="evenodd" clip-rule="evenodd" points="78.2,27.1 78.2,26.8 78.1,26.5 78,26.3 77.8,26.2 77.7,26 77.5,25.9 
	77.2,25.8 77,25.8 76.7,25.8 76.5,25.9 76.2,26 76.1,26.2 75.9,26.3 75.8,26.5 75.7,26.8 75.7,27.1 75.7,27.3 75.8,27.5 75.9,27.8 
	76.1,27.9 76.2,28.1 76.5,28.2 76.7,28.3 77,28.3 77.2,28.3 77.5,28.2 77.7,28.1 77.8,27.9 78,27.8 78.1,27.5 78.2,27.3 78.2,27.1 
	"/>
<path d="M78.6,27.1c0-0.5-0.1-0.9-0.6-1.1c0.1,0.1,0.1,0.1,0,0c0-0.1-0.1-0.1-0.1-0.2c-0.1-0.1-0.2-0.1-0.3-0.2
	c-0.2-0.1-0.4-0.2-0.6-0.2c-0.5,0-0.9,0.1-1.1,0.6c0.1-0.1,0.1-0.1,0,0c-0.1,0-0.1,0.1-0.2,0.1c-0.1,0.1-0.1,0.2-0.2,0.3
	c-0.1,0.2-0.2,0.4-0.2,0.7c0,0.4,0.2,0.9,0.6,1.1c-0.1-0.1-0.1-0.1,0,0c0,0.1,0.1,0.1,0.1,0.2c0.1,0.1,0.2,0.1,0.3,0.2
	c0.2,0.1,0.4,0.2,0.7,0.2c0.4,0,0.9-0.2,1.1-0.6c-0.1,0.1-0.1,0.1,0,0c0.1,0,0.1-0.1,0.2-0.1c0.1-0.1,0.1-0.2,0.2-0.3
	C78.5,27.5,78.6,27.3,78.6,27.1c0-0.4-0.6-0.4-0.6,0c0,0.1,0,0.1,0,0.2c0-0.2,0,0-0.1,0.1c0,0.1-0.2,0.2,0,0.1
	c-0.1,0-0.2,0.1-0.3,0.1c-0.1,0.1-0.1,0.2-0.1,0.3c0.1-0.1,0,0-0.1,0C77.2,28,77,28,77.2,28c-0.1,0-0.1,0-0.2,0c-0.1,0-0.2,0-0.3,0
	c0.2,0,0,0-0.1-0.1c-0.1,0-0.2-0.2-0.1,0c0-0.1-0.1-0.2-0.1-0.3s-0.2-0.1-0.2-0.1c0.1,0.1,0,0,0-0.1c0-0.1-0.1-0.3-0.1-0.1
	c0-0.1,0-0.1,0-0.2c0-0.1,0-0.2,0-0.3c0,0.2,0,0,0.1-0.1c0-0.1,0.2-0.2,0-0.1c0.1,0,0.2-0.1,0.2-0.1c0.1-0.1,0.1-0.2,0.1-0.3
	c-0.1,0.1,0,0,0.1,0c0.1,0,0.3-0.1,0.1-0.1c0.1,0,0.2,0,0.3,0c0.1,0,0.1,0,0.2,0c-0.2,0,0,0,0.1,0.1c0.1,0,0.2,0.2,0.1,0
	c0,0.1,0.1,0.2,0.1,0.3c0.1,0.1,0.2,0.1,0.3,0.1c-0.1-0.1,0,0,0,0.1c0,0.1,0.1,0.3,0.1,0.1c0,0.1,0,0.2,0,0.3
	C77.9,27.5,78.6,27.5,78.6,27.1z"/>
<rect id="_x3C_Slice_x3E__103_" y="54.2" fill="none" width="49.2" height="54.2"/>
<rect id="_x3C_Slice_x3E__102_" x="49.2" y="54.2" fill="none" width="56.2" height="54.2"/>
<rect id="_x3C_Slice_x3E__101_" fill="none" width="49.2" height="54.2"/>
<rect id="_x3C_Slice_x3E__100_" x="49.2" fill="none" width="56.2" height="54.2"/>
</svg>
