<?xml version="1.0" encoding="utf-8"?>
<!-- Generator: Adobe Illustrator 15.0.2, SVG Export Plug-In  -->
<!DOCTYPE svg PUBLIC "-//W3C//DTD SVG 1.1//EN" "http://www.w3.org/Graphics/SVG/1.1/DTD/svg11.dtd" [
	<!ENTITY ns_flows "http://ns.adobe.com/Flows/1.0/">
]>
<svg version="1.1"
	 xmlns="http://www.w3.org/2000/svg" xmlns:xlink="http://www.w3.org/1999/xlink" xmlns:a="http://ns.adobe.com/AdobeSVGViewerExtensions/3.0/"
	 x="0px" y="0px" width="57px" height="54px" viewBox="57.4 0.6 57 54" overflow="visible" enable-background="new 57.4 0.6 57 54"
	 xml:space="preserve">
<defs>
</defs>
<polygon fill-rule="evenodd" clip-rule="evenodd" points="82.4,28.8 82.4,28.5 82.3,28.4 82.2,28.3 82,28.2 81.7,28.3 81.6,28.4 
	81.5,28.5 81.4,28.8 81.5,29 81.6,29.1 81.7,29.2 82,29.2 82.2,29.2 82.3,29.1 82.4,29 82.4,28.8 "/>
<path d="M82.7,28.8c0-0.1,0-0.1,0-0.2c0-0.1-0.1-0.2-0.2-0.3c-0.1-0.1-0.3-0.3-0.6-0.3c-0.4,0-0.8,0.5-0.9,0.8
	c-0.1,0.2,0.1,0.5,0.3,0.6c0.1,0.1,0.1,0.2,0.2,0.2c0.1,0.1,0.2,0,0.4,0c0.2,0,0.4,0,0.6-0.2c0.1-0.1,0.2-0.2,0.2-0.3
	C82.7,29,82.7,28.9,82.7,28.8c0-0.4-0.6-0.4-0.6,0c0,0.1,0,0.1,0,0.2c0-0.1,0.1-0.1,0.1-0.2C82.1,28.8,82,28.9,82,29
	c0.1,0,0.1-0.1,0.2-0.1c-0.1,0-0.3,0-0.4,0c0.1,0,0.1,0.1,0.2,0.1c-0.1-0.1-0.1-0.1-0.2-0.2c-0.1-0.1,0,0.1,0,0
	c0-0.1-0.1-0.1-0.1-0.2c0,0.1,0,0.2,0,0.3c0-0.1,0.1-0.1,0.1-0.2c0-0.1-0.1,0.1,0,0c0,0,0,0,0.1-0.1c0,0,0,0,0.1-0.1
	c0.1-0.1-0.1,0,0,0c0.1,0,0.1-0.1,0.2-0.1c-0.1,0-0.2,0-0.3,0c0,0,0.1,0,0.1,0.1c0,0,0.1,0.1,0.1,0c0.1,0.1,0.1,0.1,0.2,0.2
	c0-0.1-0.1-0.1-0.1-0.2c0,0.1,0,0.1,0,0.2C82.1,29.2,82.7,29.2,82.7,28.8z"/>
<path d="M83.5,28.4c-1,0-2.1,0-3.1,0c-0.4,0-0.4,0.6,0,0.6c1,0,2.1,0,3.1,0C83.9,29.1,83.9,28.4,83.5,28.4L83.5,28.4z"/>
<path d="M82.5,27.3c-0.5,0.9-1,1.8-1.6,2.7c-0.2,0.3,0.3,0.7,0.5,0.3c0.5-0.9,1-1.8,1.6-2.7C83.2,27.2,82.7,26.9,82.5,27.3
	L82.5,27.3z"/>
<path d="M83,29.9c-0.5-0.9-1-1.8-1.6-2.7c-0.2-0.3-0.7,0-0.5,0.3c0.5,0.9,1,1.8,1.6,2.7C82.7,30.6,83.2,30.3,83,29.9L83,29.9z"/>
<polygon fill-rule="evenodd" clip-rule="evenodd" points="83.2,24.9 83.2,24.6 83.1,24.4 83,24.2 82.9,24 82.6,23.9 82.4,23.8 
	82.2,23.6 82,23.6 81.7,23.6 81.4,23.8 81.2,23.9 81.1,24 80.9,24.2 80.7,24.4 80.7,24.6 80.6,24.9 80.7,25.2 80.7,25.4 80.9,25.6 
	81.1,25.8 81.2,26 81.4,26.1 81.7,26.1 82,26.2 82.2,26.1 82.4,26.1 82.6,26 82.9,25.8 83,25.6 83.1,25.4 83.2,25.2 83.2,24.9 "/>
<path d="M83.5,24.9c0-0.3-0.2-1-0.5-1.2c-0.4-0.2-0.7-0.4-1.2-0.4c-0.4,0-0.8,0.2-1.1,0.5c-0.1,0.1-0.3,0.4-0.3,0.6c0,0,0,0.1,0,0.1
	c0,0.2,0.1-0.2,0,0.1c-0.1,0.1-0.1,0.2-0.1,0.4c0.1,0.2,0,0.4,0.1,0.6c0,0.1,0.1,0.2,0.2,0.3c0,0,0.1,0.1,0.1,0.1
	c0.1,0,0.2,0.2,0.1,0c0.1,0.2,0.2,0.4,0.5,0.4c0.1,0,0.3,0,0.4,0c-0.2,0,0.1,0.1,0.2,0.1c0.1,0,0.2,0,0.4-0.1c0.1,0,0.1-0.1,0,0
	c0.1,0,0.1,0,0.2,0c0.2,0,0.4-0.2,0.6-0.3C83.3,25.7,83.5,25.4,83.5,24.9c0-0.4-0.6-0.4-0.6,0c0,0.1,0,0.1,0,0.2c0,0.1,0,0.1,0,0
	c0,0.1-0.1,0.1-0.1,0.2c-0.1,0.1-0.1,0.2-0.2,0.3c0,0-0.1,0.2-0.2,0.2c-0.1,0-0.1,0.1-0.2,0.1c0.1,0,0.1,0,0,0
	c-0.2,0-0.3,0.1-0.5,0.2c0.1,0,0.2,0,0.3,0c-0.1,0-0.2-0.1-0.3-0.1c-0.1,0-0.5-0.1-0.3,0c-0.1,0-0.2-0.2-0.1,0
	c0-0.1-0.1-0.1-0.1-0.2c0-0.1-0.1-0.1-0.1-0.1c-0.1,0-0.2-0.2-0.1,0c0-0.1-0.1-0.2-0.1-0.1c0-0.1,0-0.1,0-0.2c0-0.1-0.1-0.3-0.1-0.4
	c0.1,0.2-0.1,0.2,0.1,0c0-0.1,0.1-0.1,0.1-0.2c0-0.1,0-0.1,0-0.2c0,0.2,0,0,0.1-0.1c0.1-0.1,0.3-0.3,0.5-0.4
	c0.2-0.1,0.2-0.1,0.4-0.1c0,0,0.1,0,0.1,0c0.2,0-0.2-0.1,0.1,0c0.1,0.1,0.2,0.1,0.3,0.2c0.1,0,0.1,0.1,0.2,0.1c-0.1-0.1,0,0,0,0.1
	s0.1,0.2,0.1,0.3c0,0.1,0.1,0.2,0.1,0.1c0,0.1,0,0.1,0,0.2C82.9,25.3,83.5,25.3,83.5,24.9z"/>
<path d="M84.1,33c0.8,0,1.6,0,2.4,0c0.2,0,0.3-0.1,0.3-0.3c0-3.9,0-7.8,0-11.7c0-0.2-0.1-0.3-0.3-0.3c-0.8,0-1.6,0-2.4,0
	c-0.4,0-0.4,0.6,0,0.6c0.7,0,1.4,0,2.1,0c0.6,0,0.1-0.2,0.1-0.2c0,0.2,0,0.5,0,0.7c0,1.7,0,3.4,0,5.1c0,1.7,0,3.4,0,5.1
	c0,0.8-0.1,0.5,0.2,0.5c-0.8,0-1.6,0-2.3,0C83.7,32.3,83.7,33,84.1,33L84.1,33z"/>
<rect id="_x3C_Slice_x3E__103_" y="54.2" fill="none" width="58.3" height="50.2"/>
<rect id="_x3C_Slice_x3E__102_" x="58.3" y="54.2" fill="none" width="56.2" height="50.2"/>
<rect id="_x3C_Slice_x3E__101_" fill="none" width="58.3" height="54.2"/>
<rect id="_x3C_Slice_x3E__100_" x="58.3" fill="none" width="56.2" height="54.2"/>
</svg>
