<?xml version="1.0" encoding="utf-8"?>
<!-- Generator: Adobe Illustrator 15.0.2, SVG Export Plug-In  -->
<!DOCTYPE svg PUBLIC "-//W3C//DTD SVG 1.1//EN" "http://www.w3.org/Graphics/SVG/1.1/DTD/svg11.dtd" [
	<!ENTITY ns_flows "http://ns.adobe.com/Flows/1.0/">
]>
<svg version="1.1"
	 xmlns="http://www.w3.org/2000/svg" xmlns:xlink="http://www.w3.org/1999/xlink" xmlns:a="http://ns.adobe.com/AdobeSVGViewerExtensions/3.0/"
	 x="0px" y="0px" width="48px" height="34px" viewBox="0 0.9 48 34" overflow="visible" enable-background="new 0 0.9 48 34"
	 xml:space="preserve">
<defs>
</defs>
<path d="M18.8,24.5c0,3.2,0,6.4,0,9.7c0,0.4,0.6,0.4,0.6,0c0-3.2,0-6.4,0-9.7C19.4,24.1,18.8,24.1,18.8,24.5L18.8,24.5z"/>
<path d="M25.5,32.6c-0.6-0.7-1.1-1.4-1.7-2.1c-0.4-0.4-0.7-0.9-1.1-1.3c-0.1-0.1-0.2-0.3-0.3-0.4c-0.2-0.2-0.2,0.5,0,0.3
	c1.2-1.5,2.5-2.9,3.7-4.4c0.2-0.2,0.1-0.5-0.2-0.5c-2.7,0-5.5,0-8.2,0c-0.4,0-0.4,0.6,0,0.6c2.7,0,5.5,0,8.2,0
	c-0.1-0.2-0.1-0.4-0.2-0.5c-1.3,1.5-2.5,3-3.8,4.4c-0.1,0.1-0.1,0.3,0,0.4c1.1,1.3,2.1,2.6,3.2,3.9C25.3,33.3,25.8,32.9,25.5,32.6
	L25.5,32.6z"/>
<polygon fill-rule="evenodd" clip-rule="evenodd" points="26.4,34.1 26.1,33 26,32.4 26,32 25.9,31.9 25.9,31.9 25.8,31.8 
	25.8,31.9 25.6,31.9 25.6,32.1 25.6,32.4 25.5,32.5 25.4,32.7 25.3,32.8 25.2,32.9 25,33 24.9,33 24.6,33 24.4,33 24.3,33 
	24.3,33.1 24.3,33.2 24.4,33.2 24.8,33.4 25.4,33.6 26.4,34.1 "/>
<path d="M26.7,34c-0.1-0.4-0.3-0.8-0.4-1.2c-0.1-0.3-0.1-0.5-0.1-0.7c0-0.2-0.2-0.4-0.3-0.5c-0.2-0.2-0.5-0.1-0.5,0.2
	c0,0,0,0.1,0,0.1c0.1-0.1,0.2-0.2,0.3-0.3c0,0-0.1,0-0.1,0c-0.2,0-0.3,0.1-0.3,0.3c0,0.1,0,0.1,0,0.2c0,0.2-0.1,0.2,0.1,0
	c-0.1,0.1-0.2,0.3-0.3,0.4C25,32.6,25,32.6,25,32.7c-0.2,0.1,0,0-0.1,0c-0.2,0-0.3,0-0.5,0c-0.2,0-0.3,0.1-0.3,0.3
	c0,0.1,0,0.1,0,0.2c0,0.2,0.1,0.3,0.3,0.3c0.3,0,0.7,0.2,1,0.3c-0.1,0,0,0,0.1,0c0.1,0.1,0.2,0.1,0.3,0.2c0.2,0.1,0.4,0.2,0.5,0.3
	c0.4,0.2,0.7-0.3,0.3-0.5c-0.3-0.2-0.7-0.5-1.1-0.6c-0.4-0.1-0.8-0.3-1.2-0.3c0.1,0.1,0.2,0.2,0.3,0.3c0-0.1,0-0.1,0-0.2
	c-0.1,0.1-0.2,0.2-0.3,0.3c0.4,0,0.9,0.1,1.2-0.3c0.1-0.1,0.2-0.3,0.4-0.5c0.2-0.2,0.1-0.5,0.1-0.7c-0.1,0.1-0.2,0.2-0.3,0.3
	c0,0,0.1,0,0.1,0c0.2,0,0.3-0.1,0.3-0.3c0,0,0-0.1,0-0.1c-0.2,0.1-0.4,0.1-0.5,0.2c0.1,0.1,0.1,0.1,0.2,0.2c0-0.2-0.1-0.2-0.1-0.1
	c0,0.1,0,0.1,0,0.2c0,0.2,0.1,0.5,0.1,0.7c0.1,0.4,0.2,0.8,0.3,1.2C26.2,34.6,26.8,34.4,26.7,34z"/>
<path d="M21.1,23.6c0.2,0.2,0.5,0.4,0.8,0.4c0.4,0,0.5-0.1,0.8-0.4c0.3-0.3,0.4-0.5,0.4-0.8c0-0.4-0.2-0.5-0.4-0.8
	c-0.1-0.2-0.6-0.4-0.8-0.6c-0.4-0.2-0.3-0.2-0.3-0.6c0-0.1,0-0.1,0.1-0.1c0.1,0,0.1-0.1,0.2-0.1c-0.1,0.1-0.2,0.1,0,0
	c0.1,0,0.1-0.1,0.2-0.1c-0.1,0.1-0.3,0,0,0.1c0.1,0.1,0.2,0.2,0.4,0.3c0.4,0.2,0.7-0.4,0.3-0.5c-0.3-0.1-0.5-0.4-0.8-0.4
	c-0.1,0-0.2,0-0.2,0.1c-0.1,0.1,0.2,0,0,0c-0.1,0-0.2,0-0.2,0.1c-0.1,0.1,0.2,0,0,0c-0.6,0-0.7,1.2-0.3,1.5c0.2,0.2,0.5,0.4,0.8,0.5
	c0.2,0.2,0.2,0.1,0.3,0.3c0,0.1,0.1,0.1,0.2,0.2c0.2,0.2,0-0.2,0,0.1c0,0.3-0.1,0.4-0.4,0.7c0.1-0.1,0.1,0-0.1,0
	c-0.2,0-0.2-0.1-0.1,0c-0.1-0.1-0.3-0.2-0.4-0.3C21.3,22.8,20.8,23.3,21.1,23.6L21.1,23.6z"/>
<polygon fill-rule="evenodd" clip-rule="evenodd" points="23.6,21.8 23.1,21.6 23,21.5 23,21.5 23,21.5 23,21.6 23.1,21.7 
	23.1,21.8 23.1,21.9 23,22 23,22 23,22.1 23,22.1 23.1,22 23.6,21.8 "/>
<path d="M23.7,21.5c-0.1,0-0.2-0.1-0.4-0.1c-0.1,0-0.1,0-0.2-0.1c-0.1,0,0.2,0.1,0.1,0c0,0,0,0-0.1-0.1c-0.2-0.2-0.5-0.1-0.5,0.2
	c0,0.2,0.1,0.3,0.2,0.4c0-0.1-0.1-0.1-0.1-0.2c0,0.1,0,0.1,0,0.2c0-0.1,0.1-0.1,0.1-0.2c-0.1,0.1-0.2,0.2-0.2,0.4
	c0,0.3,0.3,0.4,0.5,0.2c0.1-0.1,0.2-0.1,0,0c0.1,0,0.1,0,0.2-0.1c0.1,0,0.2-0.1,0.4-0.1c0.4-0.1,0.2-0.8-0.2-0.6
	c-0.3,0.1-0.6,0.2-0.8,0.4c0.2,0.1,0.4,0.1,0.5,0.2c0,0,0-0.1,0-0.1c0,0.1-0.1,0.1-0.1,0.2c0.1-0.1,0.2-0.2,0.2-0.4
	s-0.1-0.3-0.2-0.4c0,0.1,0.1,0.1,0.1,0.2c0,0,0-0.1,0-0.1c-0.2,0.1-0.4,0.1-0.5,0.2c0.2,0.2,0.5,0.3,0.8,0.4
	C23.9,22.2,24.1,21.6,23.7,21.5z"/>
<path d="M23.1,21.5c-0.9,0-1.8,0-2.7,0c-0.4,0-0.4,0.6,0,0.6c0.9,0,1.8,0,2.7,0C23.5,22.1,23.5,21.5,23.1,21.5L23.1,21.5z"/>
<rect id="_x3C_Slice_x3E__100_" fill="none" width="48.2" height="34.9"/>
</svg>
