<?xml version="1.0" encoding="utf-8"?>
<!-- Generator: Adobe Illustrator 15.0.2, SVG Export Plug-In  -->
<!DOCTYPE svg PUBLIC "-//W3C//DTD SVG 1.1//EN" "http://www.w3.org/Graphics/SVG/1.1/DTD/svg11.dtd" [
	<!ENTITY ns_flows "http://ns.adobe.com/Flows/1.0/">
]>
<svg version="1.1"
	 xmlns="http://www.w3.org/2000/svg" xmlns:xlink="http://www.w3.org/1999/xlink" xmlns:a="http://ns.adobe.com/AdobeSVGViewerExtensions/3.0/"
	 x="0px" y="0px" width="61px" height="50px" viewBox="55.7 0.3 61 50" overflow="visible" enable-background="new 55.7 0.3 61 50"
	 xml:space="preserve">
<defs>
</defs>
<polygon fill-rule="evenodd" clip-rule="evenodd" points="86.4,26.6 85.5,26.2 84.9,25.9 84.6,25.6 84.5,25.6 84.4,25.6 84.4,25.7 
	84.4,25.9 84.5,26 84.6,26.1 84.7,26.3 84.8,26.4 84.8,26.6 84.8,26.7 84.7,26.9 84.6,27.1 84.5,27.2 84.4,27.3 84.4,27.4 
	84.4,27.5 84.5,27.5 84.6,27.5 84.9,27.3 85.5,27 86.4,26.6 "/>
<path d="M86.5,26.4c-0.4-0.2-0.7-0.3-1.1-0.6c-0.4-0.2-0.7-0.5-1.1-0.5c-0.2,0-0.3,0.1-0.3,0.3c0,0.2,0,0.4,0.2,0.5
	c0.1,0.1,0.2,0.3,0.4,0.5c0-0.1-0.1-0.1-0.1-0.2c0,0.1,0,0.2,0,0.3c0-0.1,0.1-0.1,0.1-0.2c-0.1,0.1-0.2,0.3-0.3,0.4
	c-0.2,0.2-0.2,0.3-0.2,0.6c0,0.2,0.1,0.3,0.3,0.3c0.4,0,0.7-0.2,1-0.5c0.1,0,0.2-0.1,0.2-0.1c-0.1,0.1,0.1,0,0.2-0.1
	c0.2-0.1,0.4-0.2,0.7-0.2c0.4-0.1,0.2-0.7-0.2-0.6c-0.3,0.1-0.7,0.2-1,0.4c-0.2,0.1-0.3,0.2-0.5,0.3c-0.1,0.1-0.2,0.1-0.3,0.2
	c0.1-0.1,0.2,0,0,0c0,0-0.1,0-0.1,0c0.1,0.1,0.2,0.2,0.3,0.3c0-0.1,0-0.1,0-0.2c0,0.1-0.1,0.1-0.1,0.2c0.3-0.3,0.5-0.6,0.5-0.9
	c0-0.4-0.2-0.7-0.5-1c0,0.1,0.1,0.1,0.1,0.2c0-0.1,0-0.1,0-0.2c-0.1,0.1-0.2,0.2-0.3,0.3c0.1,0,0.1,0,0.2,0c-0.1,0-0.1,0,0,0
	c0.1,0,0.1,0.1,0.2,0.1c0.2,0.1,0.3,0.2,0.5,0.3c0.3,0.2,0.7,0.3,1,0.5C86.6,27.1,86.9,26.5,86.5,26.4z"/>
<path d="M84.8,26.3c-2.6,0-5.1,0-7.7,0c-0.4,0-0.4,0.6,0,0.6c2.6,0,5.1,0,7.7,0C85.2,26.9,85.2,26.3,84.8,26.3L84.8,26.3z"/>
<polygon fill-rule="evenodd" clip-rule="evenodd" points="81,31.4 81.5,30.5 81.8,30 81.9,29.6 82,29.5 81.9,29.4 81.9,29.4 
	81.8,29.4 81.7,29.5 81.5,29.7 81.4,29.7 81.3,29.9 81,29.9 80.8,29.9 80.7,29.7 80.6,29.7 80.4,29.5 80.3,29.4 80.3,29.4 
	80.1,29.4 80.1,29.5 80.1,29.6 80.4,30 80.6,30.5 81,31.4 "/>
<path d="M81.3,31.6c0.2-0.3,0.3-0.6,0.5-0.9c0.1-0.2,0.2-0.3,0.3-0.5c0-0.1,0.1-0.1,0.1-0.2c0-0.1,0-0.1,0.1-0.2c-0.1,0.2,0,0.1,0,0
	c0.1-0.1,0.1-0.3,0-0.4c-0.4-0.4-0.7-0.1-1,0.2c0.1,0,0.1-0.1,0.2-0.1c-0.2,0-0.3,0.1-0.4,0.2c0.1,0,0.1-0.1,0.2-0.1
	c-0.1,0-0.3,0-0.4,0c0.1,0,0.1,0.1,0.2,0.1c-0.1-0.1-0.2-0.2-0.4-0.2c0.1,0,0.1,0.1,0.2,0.1c-0.2-0.2-0.4-0.4-0.7-0.4
	c-0.2,0-0.3,0.1-0.3,0.3c0,0.2,0,0.3,0.1,0.5c0.2,0.2,0.2,0.2,0.3,0.6c0.2,0.4,0.4,0.7,0.5,1.1c0.2,0.4,0.7,0,0.5-0.3
	c-0.1-0.2-0.2-0.4-0.3-0.5c0-0.1-0.1-0.2-0.1-0.3c0,0-0.1-0.1,0,0c0,0,0-0.1-0.1-0.1c-0.1-0.2-0.1-0.4-0.2-0.5
	c-0.1-0.1-0.1-0.2-0.2-0.3c0.1,0.1,0,0.2,0,0c0,0,0-0.1,0-0.1c-0.1,0.1-0.2,0.2-0.3,0.3c0,0,0.1,0,0.1,0c-0.1,0-0.1-0.1-0.2-0.1
	c0.2,0.2,0.4,0.4,0.7,0.4c-0.1,0-0.1-0.1-0.2-0.1c0.3,0.3,0.8,0.3,1.1,0c-0.1,0-0.1,0.1-0.2,0.1c0.3,0,0.5-0.2,0.7-0.4
	c-0.1,0-0.1,0.1-0.2,0.1c0,0,0.1,0,0.1,0c-0.1,0-0.1-0.1-0.2-0.1c0,0,0.1,0.1,0.1,0.1c0-0.1,0-0.3,0-0.4c-0.2,0.2-0.2,0.3-0.3,0.5
	c0,0.1,0,0.1,0,0c0,0,0,0.1-0.1,0.1c-0.1,0.1-0.1,0.2-0.2,0.4c-0.2,0.3-0.3,0.6-0.5,1C80.6,31.6,81.1,31.9,81.3,31.6z"/>
<path d="M81.3,29.9c0-2.7,0-5.4,0-8.1c0-0.4-0.6-0.4-0.6,0c0,2.7,0,5.4,0,8.1C80.7,30.3,81.3,30.3,81.3,29.9L81.3,29.9z"/>
<rect id="_x3C_Slice_x3E__103_" y="50.2" fill="none" width="56.2" height="49.2"/>
<rect id="_x3C_Slice_x3E__102_" x="56.2" y="50.2" fill="none" width="61.3" height="49.2"/>
<rect id="_x3C_Slice_x3E__101_" fill="none" width="56.2" height="50.2"/>
<rect id="_x3C_Slice_x3E__100_" x="56.2" fill="none" width="61.3" height="50.2"/>
</svg>
