<?xml version="1.0" encoding="utf-8"?>
<!-- Generator: Adobe Illustrator 15.0.2, SVG Export Plug-In  -->
<!DOCTYPE svg PUBLIC "-//W3C//DTD SVG 1.1//EN" "http://www.w3.org/Graphics/SVG/1.1/DTD/svg11.dtd" [
	<!ENTITY ns_flows "http://ns.adobe.com/Flows/1.0/">
]>
<svg version="1.1"
	 xmlns="http://www.w3.org/2000/svg" xmlns:xlink="http://www.w3.org/1999/xlink" xmlns:a="http://ns.adobe.com/AdobeSVGViewerExtensions/3.0/"
	 x="0px" y="0px" width="58px" height="54px" viewBox="53.7 0.6 58 54" overflow="visible" enable-background="new 53.7 0.6 58 54"
	 xml:space="preserve">
<defs>
</defs>
<polygon fill-rule="evenodd" clip-rule="evenodd" points="82.6,26.8 82.6,26.6 82.5,26.4 82.4,26.3 82.2,26.3 82,26.3 81.9,26.4 
	81.8,26.6 81.6,26.8 81.8,27 81.9,27.2 82,27.3 82.2,27.3 82.4,27.3 82.5,27.2 82.6,27 82.6,26.8 "/>
<path d="M83,26.8c0-0.2-0.1-0.3-0.2-0.5C82.7,26,82.4,26,82.2,26c-0.2,0-0.4,0-0.5,0.2c-0.1,0.1-0.1,0.1-0.1,0.2c0,0-0.1,0.1,0,0.1
	c0,0-0.1,0.1-0.1,0.1c-0.1,0.1-0.1,0.3,0,0.4c0.1,0.1,0.1,0.3,0.2,0.4c0.1,0.2,0.4,0.3,0.6,0.3s0.5,0,0.6-0.3c0-0.1,0.1-0.1,0.1-0.2
	C83,27,83,26.9,83,26.8c0-0.4-0.6-0.4-0.6,0c0,0,0,0.1,0,0.1c0,0.2,0.1-0.2,0,0c0,0,0,0.1-0.1,0.1c0.1-0.1,0,0-0.1,0.1
	c0.1,0,0.1-0.1,0.2-0.1c-0.1,0-0.3,0-0.4,0c0.1,0,0.1,0.1,0.2,0.1c0,0-0.1-0.2-0.1-0.1c0-0.1-0.1-0.1-0.1-0.2c0-0.1-0.1-0.2-0.1-0.3
	c0,0.1,0,0.3,0,0.4c0.1-0.1,0.1-0.1,0.2-0.2c0,0,0-0.1,0.1-0.1c-0.1,0.1,0,0,0.1-0.1c-0.1,0-0.1,0.1-0.2,0.1c0.1,0,0.3,0,0.4,0
	c-0.1,0-0.1-0.1-0.2-0.1c0,0,0,0,0.1,0.1c0.1,0.1,0-0.1,0,0c0,0,0,0.1,0.1,0.1c-0.1-0.2,0-0.1,0,0C82.3,27.2,83,27.2,83,26.8z"/>
<path d="M83.8,26.4c-1,0-2.1,0-3.1,0c-0.4,0-0.4,0.6,0,0.6c1,0,2.1,0,3.1,0C84.2,27.1,84.2,26.4,83.8,26.4L83.8,26.4z"/>
<path d="M82.7,25.3c-0.5,0.9-1,1.9-1.6,2.8c-0.2,0.4,0.3,0.7,0.5,0.3c0.5-0.9,1-1.9,1.6-2.8C83.4,25.2,82.9,24.9,82.7,25.3
	L82.7,25.3z"/>
<path d="M83.2,28c-0.5-0.9-1-1.9-1.6-2.8c-0.2-0.4-0.7,0-0.5,0.3c0.5,0.9,1,1.9,1.6,2.8C82.9,28.7,83.4,28.4,83.2,28L83.2,28z"/>
<path d="M84.3,33c0.8,0,1.6,0,2.4,0c0.2,0,0.3-0.1,0.3-0.3c0-3.9,0-7.8,0-11.7c0-0.2-0.1-0.3-0.3-0.3c-0.8,0-1.6,0-2.4,0
	c-0.4,0-0.4,0.6,0,0.6c0.7,0,1.4,0,2.1,0c0.6,0,0.1-0.2,0.1-0.2c0,0.2,0,0.5,0,0.7c0,1.7,0,3.4,0,5.1c0,1.7,0,3.4,0,5.1
	c0,0.8-0.1,0.5,0.2,0.5c-0.8,0-1.6,0-2.3,0C83.9,32.3,83.9,33,84.3,33L84.3,33z"/>
<rect id="_x3C_Slice_x3E__103_" y="54.2" fill="none" width="54.2" height="50.2"/>
<rect id="_x3C_Slice_x3E__102_" x="54.2" y="54.2" fill="none" width="58.3" height="50.2"/>
<rect id="_x3C_Slice_x3E__101_" fill="none" width="54.2" height="54.2"/>
<rect id="_x3C_Slice_x3E__100_" x="54.2" fill="none" width="58.3" height="54.2"/>
</svg>
