<?xml version="1.0" encoding="utf-8"?>
<!-- Generator: Adobe Illustrator 15.0.2, SVG Export Plug-In  -->
<!DOCTYPE svg PUBLIC "-//W3C//DTD SVG 1.1//EN" "http://www.w3.org/Graphics/SVG/1.1/DTD/svg11.dtd" [
	<!ENTITY ns_flows "http://ns.adobe.com/Flows/1.0/">
]>
<svg version="1.1"
	 xmlns="http://www.w3.org/2000/svg" xmlns:xlink="http://www.w3.org/1999/xlink" xmlns:a="http://ns.adobe.com/AdobeSVGViewerExtensions/3.0/"
	 x="0px" y="0px" width="57px" height="35px" viewBox="57.4 0 57 35" overflow="visible" enable-background="new 57.4 0 57 35"
	 xml:space="preserve">
<defs>
</defs>
<path d="M89.2,8.4c0-7.3-11.4-7.3-11.4,0c0,3.1,2.6,5.8,5.8,5.8C86.6,14.2,89.2,11.5,89.2,8.4c0-0.4-0.6-0.4-0.6,0
	c0,1.4-0.6,2.7-1.6,3.7c-1,1-2,1.1-3.3,1.4c-2.6,0.6-5.3-2.5-5.3-4.8c0-2.7,2-5.3,4.9-5.3c2.8,0,5.3,2,5.3,5
	C88.5,8.8,89.2,8.8,89.2,8.4L89.2,8.4z"/>
<polygon fill-rule="evenodd" clip-rule="evenodd" points="82.6,3.1 83.1,3.1 83.5,3.1 83.9,3.1 84.3,3.1 84.1,3.1 83.9,3 83.6,2.9 
	83.6,2.8 83.5,2.6 83.5,2.4 83.5,1.9 83.4,2.4 83.4,2.6 83.3,2.8 83.3,2.9 83.1,3 82.9,3.1 82.6,3.1 "/>
<path d="M82.6,3.4c0.6,0,1.1,0,1.7,0c0.4,0,0.4-0.6,0-0.6c-0.1,0-0.1,0-0.2,0c0.1,0,0.2,0.1,0.1,0c0,0-0.1,0-0.1-0.1
	c-0.1,0-0.2-0.1-0.3-0.1c0.1,0.1,0.1,0.2,0.2,0.3c0-0.2-0.1-0.3-0.2-0.4c0,0.1,0.1,0.1,0.1,0.2c0-0.3,0-0.5,0-0.8
	c0-0.3-0.5-0.4-0.6-0.1c-0.1,0.3-0.1,0.6-0.1,0.9c0-0.1,0.1-0.1,0.1-0.2C83,2.6,83,2.7,83,2.9c0.1-0.1,0.1-0.2,0.2-0.3
	c-0.1,0-0.2,0.1-0.3,0.1c0,0-0.1,0-0.1,0.1c-0.1,0-0.1,0,0.1,0c-0.1,0-0.1,0-0.2,0C82.2,2.8,82.2,3.4,82.6,3.4
	c0.3,0,0.5-0.1,0.8-0.3c0.1,0,0.2-0.2,0.2-0.3c0,0,0-0.1,0-0.1c0,0.1-0.1,0.1-0.1,0.2c0.1-0.1,0.2-0.1,0.2-0.2c0,0,0-0.4,0-0.2
	c0-0.2,0.1-0.4,0.1-0.5c-0.2,0-0.4-0.1-0.6-0.1c0,0.2,0,0.4,0,0.5c0,0.2,0,0.4,0.2,0.6c0-0.1-0.1-0.1-0.1-0.2c0,0,0,0.1,0,0.1
	c0,0.1,0.1,0.2,0.2,0.3c0.3,0.1,0.5,0.3,0.8,0.3c0.4,0,0.4-0.6,0-0.6c-0.6,0-1.1,0-1.7,0C82.2,2.8,82.2,3.4,82.6,3.4z"/>
<path d="M83.2,0.6c0,0.8,0,1.6,0,2.4c0,0.4,0.6,0.4,0.6,0c0-0.8,0-1.6,0-2.4C83.8,0.2,83.2,0.2,83.2,0.6L83.2,0.6z"/>
<rect id="_x3C_Slice_x3E__103_" y="34.2" fill="none" width="58.3" height="54.2"/>
<rect id="_x3C_Slice_x3E__102_" x="58.3" y="34.2" fill="none" width="56.2" height="54.2"/>
<rect id="_x3C_Slice_x3E__101_" fill="none" width="58.3" height="34.2"/>
<rect id="_x3C_Slice_x3E__100_" x="58.3" fill="none" width="56.2" height="34.2"/>
</svg>
