<?xml version="1.0" encoding="utf-8"?>
<!-- Generator: Adobe Illustrator 15.0.2, SVG Export Plug-In  -->
<!DOCTYPE svg PUBLIC "-//W3C//DTD SVG 1.1//EN" "http://www.w3.org/Graphics/SVG/1.1/DTD/svg11.dtd" [
	<!ENTITY ns_flows "http://ns.adobe.com/Flows/1.0/">
]>
<svg version="1.1"
	 xmlns="http://www.w3.org/2000/svg" xmlns:xlink="http://www.w3.org/1999/xlink" xmlns:a="http://ns.adobe.com/AdobeSVGViewerExtensions/3.0/"
	 x="0px" y="0px" width="31px" height="50px" viewBox="0 0.3 31 50" overflow="visible" enable-background="new 0 0.3 31 50"
	 xml:space="preserve">
<defs>
</defs>
<path d="M4.1,31.1c2.2,2.2,5.8-0.3,4.4-3.2c-0.9-1.7-3.4-2.1-4-3.8c-0.6-1.9,2.3-2.9,3.3-1.4c0.2,0.3,0.8,0,0.5-0.3
	c-1.9-2.8-6.3,0.6-3.8,3.1c1.3,1.3,4,1.8,3.4,4.3c-0.4,1.7-2.3,2.1-3.5,0.9C4.3,30.3,3.8,30.8,4.1,31.1L4.1,31.1z"/>
<polygon fill-rule="evenodd" clip-rule="evenodd" points="11.1,26.1 10.1,25.6 9.5,25.3 9.3,25.2 9.2,25.1 9.1,25.2 9,25.2 
	9.1,25.3 9.2,25.4 9.3,25.6 9.4,25.7 9.4,25.9 9.4,26.1 9.4,26.2 9.4,26.4 9.3,26.5 9.2,26.6 9.1,26.9 9,26.9 9.1,27 9.2,27 9.3,27 
	9.5,26.7 10.1,26.5 11.1,26.1 "/>
<path d="M11.3,25.8c-0.3-0.1-0.7-0.3-1-0.4C10,25.3,9.6,25,9.4,24.9c-0.1-0.1-0.3-0.1-0.4,0c0,0-0.1,0.1-0.1,0.1
	c0.1,0,0.1-0.1,0.2-0.1c0,0-0.1,0-0.1,0c-0.3,0-0.4,0.3-0.2,0.5C8.9,25.6,9,25.8,9.2,26c0-0.1-0.1-0.1-0.1-0.2c0,0.2,0,0.4,0,0.7
	c0-0.1,0.1-0.1,0.1-0.2c-0.2,0.2-0.3,0.3-0.4,0.5c0.1-0.1,0.2-0.1,0.3-0.2c0,0-0.1,0-0.1,0c-0.3,0-0.4,0.3-0.2,0.5
	c0.2,0.2,0.5,0.3,0.7,0.2c0.1-0.1,0.2-0.2,0.3-0.3c-0.1,0.1-0.1,0.1,0,0c0.1,0,0.2-0.1,0.3-0.1c0.4-0.2,0.8-0.4,1.2-0.5
	c0.4-0.2,0-0.7-0.3-0.5c-0.3,0.1-0.7,0.3-1,0.4c0.1-0.1-0.1,0-0.1,0c-0.1,0-0.2,0.1-0.3,0.1c-0.2,0.1-0.3,0.2-0.4,0.3
	c0.1,0,0.1-0.1,0.2-0.1c-0.1,0-0.1,0-0.2,0c0.1,0,0.1,0.1,0.2,0.1c0,0-0.1-0.1-0.1-0.1C9.1,26.8,9.1,27,9,27.2c0,0,0.1,0,0.1,0
	c0.1,0,0.2-0.1,0.3-0.2c0.1-0.2,0.1-0.2,0.3-0.4c0.2-0.2,0.1-0.5,0.1-0.7c0-0.4-0.2-0.7-0.5-1c-0.1,0.2-0.1,0.4-0.2,0.5
	c0.2,0,0.3-0.1,0.4-0.2c-0.1,0-0.3,0-0.4,0c0.5,0.5,1.3,0.8,2,1C11.3,26.5,11.6,26,11.3,25.8z"/>
<path d="M9.4,25.8c-2.6,0-5.2,0-7.8,0c-0.4,0-0.4,0.6,0,0.6c2.6,0,5.2,0,7.8,0C9.8,26.4,9.8,25.8,9.4,25.8L9.4,25.8z"/>
<path d="M12.1,21.2c0,3.6,0,7.2,0,10.8c0,0.4,0.6,0.4,0.6,0c0-3.6,0-7.2,0-10.8C12.7,20.8,12.1,20.8,12.1,21.2L12.1,21.2z"/>
<rect id="_x3C_Slice_x3E__101_" y="50.2" fill="none" width="31.3" height="49.2"/>
<rect id="_x3C_Slice_x3E__100_" fill="none" width="31.3" height="50.2"/>
</svg>
