<?xml version="1.0" encoding="utf-8"?>
<!-- Generator: Adobe Illustrator 15.0.2, SVG Export Plug-In  -->
<!DOCTYPE svg PUBLIC "-//W3C//DTD SVG 1.1//EN" "http://www.w3.org/Graphics/SVG/1.1/DTD/svg11.dtd" [
	<!ENTITY ns_flows "http://ns.adobe.com/Flows/1.0/">
]>
<svg version="1.1"
	 xmlns="http://www.w3.org/2000/svg" xmlns:xlink="http://www.w3.org/1999/xlink" xmlns:a="http://ns.adobe.com/AdobeSVGViewerExtensions/3.0/"
	 x="0px" y="0px" width="48px" height="60px" viewBox="0 0.2 48 60" overflow="visible" enable-background="new 0 0.2 48 60"
	 xml:space="preserve">
<defs>
</defs>
<path d="M22.4,37.6c-0.7-2.1-1.5-4.1-2.2-6.2c-0.1,0.1-0.2,0.3-0.3,0.4c1.4,0,2.9,0,4.3,0c-0.1-0.1-0.2-0.3-0.3-0.4
	c-0.7,2.1-1.4,4.1-2.1,6.2c-0.1,0.4,0.5,0.5,0.6,0.2c0.7-2.1,1.4-4.1,2.1-6.2c0.1-0.2-0.1-0.4-0.3-0.4c-1.4,0-2.9,0-4.3,0
	c-0.2,0-0.4,0.2-0.3,0.4c0.7,2.1,1.5,4.1,2.2,6.2C21.9,38.2,22.5,38,22.4,37.6L22.4,37.6z"/>
<path d="M23.6,32.6c-1.1,0-2.1,0-3.2,0c-0.4,0-0.4,0.6,0,0.6c1.1,0,2.1,0,3.2,0C24,33.3,24,32.6,23.6,32.6L23.6,32.6z"/>
<path d="M21.8,27c-0.7,1.2-1.5,2.4-2.2,3.7c-0.1,0.2,0,0.5,0.3,0.5c1.4,0,2.9,0,4.3,0c0.2,0,0.4-0.3,0.3-0.5
	c-0.7-1.2-1.4-2.4-2.1-3.7c-0.2-0.3-0.7,0-0.5,0.3c0.7,1.2,1.4,2.4,2.1,3.7c0.1-0.2,0.2-0.3,0.3-0.5c-1.4,0-2.9,0-4.3,0
	c0.1,0.2,0.2,0.3,0.3,0.5c0.7-1.2,1.5-2.4,2.2-3.7C22.6,27,22,26.7,21.8,27L21.8,27z"/>
<rect id="_x3C_Slice_x3E__101_" y="59.3" fill="none" width="48.2" height="34.9"/>
<rect id="_x3C_Slice_x3E__100_" fill="none" width="48.2" height="59.3"/>
</svg>
