<?xml version="1.0" encoding="utf-8"?>
<!-- Generator: Adobe Illustrator 15.0.2, SVG Export Plug-In  -->
<!DOCTYPE svg PUBLIC "-//W3C//DTD SVG 1.1//EN" "http://www.w3.org/Graphics/SVG/1.1/DTD/svg11.dtd" [
	<!ENTITY ns_flows "http://ns.adobe.com/Flows/1.0/">
]>
<svg version="1.1"
	 xmlns="http://www.w3.org/2000/svg" xmlns:xlink="http://www.w3.org/1999/xlink" xmlns:a="http://ns.adobe.com/AdobeSVGViewerExtensions/3.0/"
	 x="0px" y="0px" width="35px" height="54px" viewBox="48 0.6 35 54" overflow="visible" enable-background="new 48 0.6 35 54"
	 xml:space="preserve">
<defs>
</defs>
<path d="M71.4,22c0,3.2,0,6.4,0,9.7c0,0.4,0.6,0.4,0.6,0c0-3.2,0-6.4,0-9.7C72.1,21.6,71.4,21.6,71.4,22L71.4,22z"/>
<path d="M78.2,30.1c-0.6-0.7-1.1-1.4-1.7-2.1c-0.4-0.4-0.7-0.9-1.1-1.3c-0.1-0.1-0.2-0.3-0.3-0.4c-0.2-0.2-0.2,0.5,0,0.3
	c1.2-1.5,2.5-2.9,3.7-4.4c0.2-0.2,0.1-0.5-0.2-0.5c-2.7,0-5.5,0-8.2,0c-0.4,0-0.4,0.6,0,0.6c2.7,0,5.5,0,8.2,0
	c-0.1-0.2-0.1-0.4-0.2-0.5c-1.3,1.5-2.5,3-3.8,4.4c-0.1,0.1-0.1,0.3,0,0.4c1.1,1.3,2.1,2.6,3.2,3.9C78,30.8,78.5,30.4,78.2,30.1
	L78.2,30.1z"/>
<polygon fill-rule="evenodd" clip-rule="evenodd" points="79.1,31.6 78.9,30.5 78.6,29.9 78.6,29.5 78.5,29.4 78.5,29.4 78.5,29.4 
	78.4,29.4 78.4,29.5 78.3,29.6 78.3,29.9 78.2,30.1 78.2,30.2 78,30.3 77.9,30.4 77.8,30.5 77.5,30.5 77.3,30.5 77.1,30.5 
	77.1,30.5 77,30.6 77,30.8 77.2,30.8 77.5,30.9 78.1,31.1 79.1,31.6 "/>
<path d="M79.4,31.6c-0.1-0.4-0.1-0.9-0.3-1.3C79,29.9,79,29.9,79,29.6c0-0.3-0.3-0.4-0.5-0.4c-0.2,0-0.3,0.1-0.3,0.3
	c0,0,0,0.1,0,0.1c0-0.1,0.1-0.1,0.1-0.2C78,29.5,78,29.6,78,29.8c0-0.2,0,0-0.1,0.1c0,0.1-0.1,0.2-0.1,0.3c0.1-0.1,0.1-0.2,0.2-0.3
	c-0.2,0.1-0.3,0.2-0.5,0.4c0.1,0,0.1-0.1,0.2-0.1c-0.4,0-1.1-0.1-1.1,0.5c0,0.2,0.1,0.3,0.3,0.3c0.7,0,1.3,0.5,2,0.8
	c0.4,0.2,0.7-0.3,0.3-0.5c-0.7-0.4-1.5-0.9-2.3-0.9c0.1,0.1,0.2,0.2,0.3,0.3c0,0,0-0.1,0-0.1c0,0.1-0.1,0.1-0.1,0.2
	c0,0,0.1-0.1,0.1-0.1c-0.1,0-0.1,0.1-0.2,0.1c0.2,0,0.4,0,0.7,0c0.2,0,0.4-0.3,0.6-0.4c0.1,0,0.2-0.2,0.2-0.3c0-0.2-0.1,0.1,0,0
	c0,0,0-0.1,0.1-0.1c0.1-0.1,0-0.3,0-0.4c0,0.1-0.1,0.1-0.1,0.2c0.1-0.1,0.2-0.2,0.2-0.4c-0.1,0.1-0.2,0.2-0.3,0.3c0,0,0.1,0,0.1,0
	c-0.1,0-0.1-0.1-0.2-0.1c0,0,0.1,0.1,0.1,0.1c0-0.1-0.1-0.1-0.1-0.2c0,0.4,0.1,0.7,0.2,1.1c0.1,0.3,0.1,0.7,0.2,1.1
	C78.9,32.1,79.5,32,79.4,31.6z"/>
<path d="M79.3,21.3c0.7,0,1.4,0,2.1,0c0.6,0,0.1-0.2,0.1-0.2c0,0.2,0,0.5,0,0.7c0,1.7,0,3.4,0,5.1c0,1.7,0,3.4,0,5.1
	c0,0.8-0.1,0.5,0.2,0.5c-0.8,0-1.6,0-2.3,0c-0.4,0-0.4,0.6,0,0.6c0.8,0,1.6,0,2.4,0c0.2,0,0.3-0.1,0.3-0.3c0-3.9,0-7.8,0-11.7
	c0-0.2-0.1-0.3-0.3-0.3c-0.8,0-1.6,0-2.4,0C78.9,20.7,78.9,21.3,79.3,21.3L79.3,21.3z"/>
<rect id="_x3C_Slice_x3E__103_" y="54.2" fill="none" width="48.2" height="50.2"/>
<rect id="_x3C_Slice_x3E__102_" x="48.2" y="54.2" fill="none" width="34.8" height="50.2"/>
<rect id="_x3C_Slice_x3E__101_" fill="none" width="48.2" height="54.2"/>
<rect id="_x3C_Slice_x3E__100_" x="48.2" fill="none" width="34.8" height="54.2"/>
</svg>
