<?xml version="1.0" encoding="utf-8"?>
<!-- Generator: Adobe Illustrator 15.0.2, SVG Export Plug-In  -->
<!DOCTYPE svg PUBLIC "-//W3C//DTD SVG 1.1//EN" "http://www.w3.org/Graphics/SVG/1.1/DTD/svg11.dtd" [
	<!ENTITY ns_flows "http://ns.adobe.com/Flows/1.0/">
]>
<svg version="1.1"
	 xmlns="http://www.w3.org/2000/svg" xmlns:xlink="http://www.w3.org/1999/xlink" xmlns:a="http://ns.adobe.com/AdobeSVGViewerExtensions/3.0/"
	 x="0px" y="0px" width="61px" height="50px" viewBox="55.7 0.6 61 50" overflow="visible" enable-background="new 55.7 0.6 61 50"
	 xml:space="preserve">
<defs>
</defs>
<path d="M86.4,24.2c0.6,1,1.1,3.5-1,3.5c-2.2,0-3.9-2.6-5.5-3.8c-1-0.8-3-0.8-3.7,0.5c-0.6,1.2-0.3,2.3,0.4,3.5
	c0.2,0.3,0.7,0,0.5-0.3c-0.7-1.2-1.1-3,0.5-3.5c1.9-0.6,4.1,2.1,5.3,3.3c1.2,1.2,3,1.3,4.2,0.1c1-1,0.4-2.6-0.2-3.6
	C86.8,23.5,86.2,23.9,86.4,24.2L86.4,24.2z"/>
<g>
	<polygon fill-rule="evenodd" clip-rule="evenodd" points="79.6,25.8 79.6,25.6 79.5,25.4 79.4,25.2 79.3,24.9 79,24.8 78.8,24.7 
		78.6,24.6 78.4,24.6 78.1,24.6 77.9,24.7 77.7,24.8 77.5,24.9 77.4,25.2 77.3,25.4 77.1,25.6 77.1,25.8 77.1,26.2 77.3,26.4 
		77.4,26.6 77.5,26.7 77.7,26.9 77.9,27 78.1,27.2 78.4,27.2 78.6,27.2 78.8,27 79,26.9 79.3,26.7 79.4,26.6 79.5,26.4 79.6,26.2 
		79.6,25.8 	"/>
</g>
<rect id="_x3C_Slice_x3E__103_" y="50.2" fill="none" width="56.2" height="51.2"/>
<rect id="_x3C_Slice_x3E__102_" x="56.2" y="50.2" fill="none" width="61.3" height="51.2"/>
<rect id="_x3C_Slice_x3E__101_" fill="none" width="56.2" height="50.2"/>
<rect id="_x3C_Slice_x3E__100_" x="56.2" fill="none" width="61.3" height="50.2"/>
</svg>
