<?xml version="1.0" encoding="utf-8"?>
<!-- Generator: Adobe Illustrator 15.0.2, SVG Export Plug-In  -->
<!DOCTYPE svg PUBLIC "-//W3C//DTD SVG 1.1//EN" "http://www.w3.org/Graphics/SVG/1.1/DTD/svg11.dtd" [
	<!ENTITY ns_flows "http://ns.adobe.com/Flows/1.0/">
]>
<svg version="1.1"
	 xmlns="http://www.w3.org/2000/svg" xmlns:xlink="http://www.w3.org/1999/xlink" xmlns:a="http://ns.adobe.com/AdobeSVGViewerExtensions/3.0/"
	 x="0px" y="0px" width="48px" height="50px" viewBox="0 0.3 48 50" overflow="visible" enable-background="new 0 0.3 48 50"
	 xml:space="preserve">
<defs>
</defs>
<polygon fill-rule="evenodd" clip-rule="evenodd" points="26.6,26.6 25.8,26.2 25.2,25.9 24.9,25.6 24.8,25.6 24.6,25.6 24.6,25.7 
	24.6,25.9 24.8,26 24.9,26.1 25,26.3 25.1,26.4 25.1,26.6 25.1,26.7 25,26.9 24.9,27.1 24.8,27.2 24.6,27.3 24.6,27.4 24.6,27.5 
	24.8,27.5 24.9,27.5 25.2,27.3 25.8,27 26.6,26.6 "/>
<path d="M26.8,26.4c-0.4-0.2-0.7-0.3-1.1-0.6c-0.4-0.2-0.7-0.5-1.1-0.5c-0.2,0-0.3,0.1-0.3,0.3c0,0.2,0,0.4,0.2,0.5
	c0.1,0.1,0.2,0.3,0.4,0.5c0-0.1-0.1-0.1-0.1-0.2c0,0.1,0,0.2,0,0.3c0-0.1,0.1-0.1,0.1-0.2c-0.1,0.1-0.2,0.3-0.3,0.4
	c-0.2,0.2-0.2,0.3-0.2,0.6c0,0.2,0.1,0.3,0.3,0.3c0.4,0,0.7-0.2,1-0.5c0.1,0,0.2-0.1,0.2-0.1c-0.1,0.1,0.1,0,0.2-0.1
	c0.2-0.1,0.4-0.2,0.7-0.2c0.4-0.1,0.2-0.7-0.2-0.6c-0.3,0.1-0.7,0.2-1,0.4c-0.2,0.1-0.3,0.2-0.5,0.3c-0.1,0.1-0.2,0.1-0.3,0.2
	c0.1-0.1,0.2,0,0,0c0,0-0.1,0-0.1,0c0.1,0.1,0.2,0.2,0.3,0.3c0-0.1,0-0.1,0-0.2c0,0.1-0.1,0.1-0.1,0.2c0.3-0.3,0.5-0.5,0.5-0.9
	c0-0.4-0.2-0.7-0.5-1c0,0.1,0.1,0.1,0.1,0.2c0-0.1,0-0.1,0-0.2c-0.1,0.1-0.2,0.2-0.3,0.3c0.1,0,0.1,0,0.2,0c-0.1,0-0.1,0,0,0
	c0.1,0,0.1,0.1,0.2,0.1c0.2,0.1,0.3,0.2,0.5,0.3c0.3,0.2,0.7,0.3,1,0.5C26.8,27.1,27.2,26.5,26.8,26.4z"/>
<path d="M25.1,26.3c-2.6,0-5.1,0-7.7,0c-0.4,0-0.4,0.6,0,0.6c2.6,0,5.1,0,7.7,0C25.5,26.9,25.5,26.3,25.1,26.3L25.1,26.3z"/>
<polygon fill-rule="evenodd" clip-rule="evenodd" points="21.3,21.7 20.9,22.6 20.6,23.2 20.4,23.4 20.4,23.6 20.4,23.6 20.5,23.7 
	20.5,23.6 20.6,23.5 20.9,23.4 21,23.4 21.1,23.3 21.3,23.3 21.5,23.3 21.6,23.4 21.8,23.4 22,23.6 22.1,23.7 22.2,23.7 22.2,23.7 
	22.3,23.6 22.2,23.5 22.1,23.2 21.8,22.6 21.3,21.7 "/>
<path d="M21,21.6c-0.2,0.4-0.4,0.8-0.6,1.2c0,0.1-0.1,0.2-0.1,0.3c0.1-0.2,0-0.1,0,0c-0.1,0.1-0.1,0.1-0.2,0.2
	c-0.1,0.2,0,0.5,0.2,0.7c0.2,0.2,0.5,0.1,0.5-0.2c0,0,0-0.1,0-0.1c0,0.1-0.1,0.1-0.1,0.2c0,0,0.1-0.1,0.1-0.1
	c0.1-0.1,0.3-0.1,0.1-0.1c0.2,0,0.3-0.1,0.4-0.2c-0.1,0-0.1,0.1-0.2,0.1c0.1,0,0.3,0,0.4,0c-0.1,0-0.1-0.1-0.2-0.1
	c0.1,0.1,0.2,0.2,0.4,0.2c-0.1,0-0.1-0.1-0.2-0.1c0.3,0.3,0.6,0.6,1,0.2c0.1-0.1,0.1-0.3,0-0.4c-0.2-0.2,0,0.1-0.1-0.1
	c0-0.1-0.1-0.2-0.1-0.3c-0.1-0.2-0.2-0.3-0.3-0.5c-0.2-0.3-0.3-0.6-0.5-0.9c-0.2-0.4-0.7,0-0.5,0.3c0.2,0.3,0.3,0.6,0.5,0.9
	c0.1,0.1,0.1,0.2,0.2,0.3c0,0,0.2,0.3,0.1,0.2c0.1,0.2,0.1,0.4,0.3,0.6c0-0.1,0-0.3,0-0.4c0,0-0.1,0.1-0.1,0.1
	c0.1,0,0.1-0.1,0.2-0.1c0,0-0.1,0-0.1,0c0.1,0,0.1,0.1,0.2,0.1c-0.2-0.2-0.4-0.4-0.7-0.4c0.1,0,0.1,0.1,0.2,0.1
	c-0.3-0.3-0.8-0.3-1.1,0c0.1,0,0.1-0.1,0.2-0.1c-0.4,0-0.8,0.3-0.8,0.6c0.2-0.1,0.4-0.1,0.5-0.2c0,0-0.1-0.1-0.1-0.1
	c0,0.1,0.1,0.1,0.1,0.2c0-0.1,0-0.1,0-0.2c0,0.1-0.1,0.1-0.1,0.2c0.3-0.3,0.4-0.5,0.5-0.9c-0.1,0.1,0,0,0,0c0.1-0.1,0.1-0.2,0.2-0.3
	c0.1-0.2,0.2-0.3,0.2-0.5C21.8,21.5,21.2,21.2,21,21.6z"/>
<path d="M21,23.3c0,2.7,0,5.4,0,8.1c0,0.4,0.6,0.4,0.6,0c0-2.7,0-5.4,0-8.1C21.6,22.9,21,22.9,21,23.3L21,23.3z"/>
<rect id="_x3C_Slice_x3E__101_" y="50.2" fill="none" width="48.2" height="49.2"/>
<rect id="_x3C_Slice_x3E__100_" fill="none" width="48.2" height="50.2"/>
</svg>
