<?xml version="1.0" encoding="utf-8"?>
<!-- Generator: Adobe Illustrator 15.0.2, SVG Export Plug-In  -->
<!DOCTYPE svg PUBLIC "-//W3C//DTD SVG 1.1//EN" "http://www.w3.org/Graphics/SVG/1.1/DTD/svg11.dtd" [
	<!ENTITY ns_flows "http://ns.adobe.com/Flows/1.0/">
]>
<svg version="1.1"
	 xmlns="http://www.w3.org/2000/svg" xmlns:xlink="http://www.w3.org/1999/xlink" xmlns:a="http://ns.adobe.com/AdobeSVGViewerExtensions/3.0/"
	 x="0px" y="0px" width="54px" height="50px" viewBox="31 0.6 54 50" overflow="visible" enable-background="new 31 0.6 54 50"
	 xml:space="preserve">
<defs>
</defs>
<polygon fill-rule="evenodd" clip-rule="evenodd" points="60.4,25.9 60.4,25.6 60.4,25.4 60.2,25.2 60.1,25 59.9,24.8 59.6,24.7 
	59.4,24.6 59.2,24.6 59,24.6 58.8,24.7 58.5,24.8 58.3,25 58.2,25.2 58.1,25.4 58,25.6 58,25.9 58,26.2 58.1,26.4 58.2,26.6 
	58.3,26.7 58.5,26.9 58.8,27 59,27.2 59.2,27.2 59.4,27.2 59.6,27 59.9,26.9 60.1,26.7 60.2,26.6 60.4,26.4 60.4,26.2 60.4,25.9 "/>
<path d="M60.7,25.9c0-0.2,0-0.4,0-0.6c0-0.2-0.3-0.4-0.4-0.5c-0.3-0.3-0.7-0.6-1.1-0.6c-0.9,0-1.6,0.8-1.6,1.6
	c0,0.8,0.7,1.6,1.5,1.6c0.4,0,0.8-0.2,1.1-0.5c0.1-0.1,0.3-0.3,0.4-0.4C60.8,26.4,60.7,26.1,60.7,25.9c0-0.4-0.6-0.4-0.6,0
	c0,0.1,0,0.3,0,0.4c0-0.2,0.1-0.2-0.1,0c-0.1,0.1-0.1,0.1-0.2,0.2c-0.1,0.1-0.2,0.2-0.3,0.3c-0.1,0-0.1,0.1-0.2,0.1
	c-0.1,0.1,0.1,0-0.1,0c0,0-0.1,0-0.1,0c-0.1,0-0.1,0,0,0c-0.1,0-0.1-0.1-0.2-0.1c-0.2-0.1-0.3-0.1-0.4-0.3c-0.1-0.1-0.1-0.2-0.2-0.3
	c0-0.1-0.1-0.3-0.1-0.1c0-0.1,0-0.1,0-0.2c0-0.1,0-0.2,0-0.3c0,0.2,0,0,0.1-0.1c0.1-0.1,0.1-0.2,0.2-0.3c0.1-0.1,0.2-0.2,0.4-0.3
	c0.1,0,0.3-0.1,0.1-0.1c0.1,0,0.1,0,0.2,0c0.1,0,0.2,0.1,0.1,0c0.1,0,0.1,0.1,0.2,0.1c0.2,0.1,0.2,0.2,0.4,0.3c0,0,0.1,0.1,0.1,0.1
	c0,0,0.1,0.1,0.1,0.1c0.1,0.1,0.1,0.1,0-0.1c0,0.2,0,0.3,0,0.5C60.1,26.3,60.7,26.3,60.7,25.9z"/>
<polygon fill-rule="evenodd" clip-rule="evenodd" points="64.1,25.9 64.1,25.6 64,25.4 63.9,25.2 63.8,25 63.5,24.8 63.3,24.7 
	63.1,24.6 62.9,24.6 62.6,24.6 62.4,24.7 62.2,24.8 62,25 61.9,25.2 61.6,25.4 61.6,25.6 61.6,25.9 61.6,26.2 61.6,26.4 61.9,26.6 
	62,26.7 62.2,26.9 62.4,27 62.6,27.2 62.9,27.2 63.1,27.2 63.3,27 63.5,26.9 63.8,26.7 63.9,26.6 64,26.4 64.1,26.2 64.1,25.9 "/>
<path d="M64.4,25.9c0-0.8-0.7-1.6-1.5-1.6c-0.4,0-0.8,0.2-1.1,0.5c-0.1,0.1-0.3,0.3-0.4,0.4c-0.1,0.2,0,0.5,0,0.7c0,0.2,0,0.3,0,0.5
	c0,0.2,0.3,0.4,0.4,0.5c0.3,0.3,0.7,0.6,1.1,0.6C63.6,27.5,64.4,26.7,64.4,25.9c0-0.4-0.6-0.4-0.6,0c0,0.1,0,0.1,0,0.2
	c0-0.2,0,0-0.1,0.1c-0.1,0.1-0.1,0.2-0.2,0.3c-0.1,0.1-0.2,0.2-0.4,0.3c-0.1,0-0.3,0.1-0.1,0.1c-0.1,0-0.1,0-0.2,0
	c-0.1,0-0.2-0.1-0.1,0c-0.1,0-0.1-0.1-0.2-0.1c-0.2-0.1-0.2-0.2-0.4-0.3c0,0-0.1-0.1-0.1-0.1c0,0-0.1-0.1-0.1-0.1
	c-0.1-0.1-0.1-0.1,0,0.1c0-0.1,0-0.3,0-0.4c0-0.2,0-0.3,0-0.5c0,0.2-0.1,0.2,0.1,0c0.1-0.1,0.1-0.1,0.2-0.2c0.1-0.1,0.2-0.2,0.3-0.3
	c0.1,0,0.1-0.1,0.2-0.1c0.1-0.1-0.1,0,0.1,0c0,0,0.1,0,0.1,0c0.1,0,0.1,0,0,0c0.1,0,0.1,0.1,0.2,0.1c0.2,0.1,0.3,0.1,0.4,0.3
	c0.1,0.1,0.1,0.2,0.2,0.3c0,0.1,0.1,0.3,0.1,0.1c0,0.1,0,0.2,0,0.3C63.8,26.3,64.4,26.3,64.4,25.9z"/>
<rect id="_x3C_Slice_x3E__103_" y="50.2" fill="none" width="31.3" height="51.2"/>
<rect id="_x3C_Slice_x3E__102_" x="31.3" y="50.2" fill="none" width="54.2" height="51.2"/>
<rect id="_x3C_Slice_x3E__101_" fill="none" width="31.3" height="50.2"/>
<rect id="_x3C_Slice_x3E__100_" x="31.3" fill="none" width="54.2" height="50.2"/>
</svg>
