<?xml version="1.0" encoding="utf-8"?>
<!-- Generator: Adobe Illustrator 15.0.2, SVG Export Plug-In  -->
<!DOCTYPE svg PUBLIC "-//W3C//DTD SVG 1.1//EN" "http://www.w3.org/Graphics/SVG/1.1/DTD/svg11.dtd" [
	<!ENTITY ns_flows "http://ns.adobe.com/Flows/1.0/">
]>
<svg version="1.1"
	 xmlns="http://www.w3.org/2000/svg" xmlns:xlink="http://www.w3.org/1999/xlink" xmlns:a="http://ns.adobe.com/AdobeSVGViewerExtensions/3.0/"
	 x="0px" y="0px" width="31px" height="34px" viewBox="0 0.9 31 34" overflow="visible" enable-background="new 0 0.9 31 34"
	 xml:space="preserve">
<defs>
</defs>
<path d="M7.3,32.4c-0.7-2.1-1.4-4.1-2.1-6.2c-0.1,0.1-0.2,0.3-0.3,0.4c1.4,0,2.9,0,4.3,0c-0.1-0.1-0.2-0.3-0.3-0.4
	c-0.7,2.1-1.5,4.1-2.2,6.2c-0.1,0.4,0.5,0.5,0.6,0.2c0.7-2.1,1.5-4.1,2.2-6.2c0.1-0.2-0.1-0.4-0.3-0.4c-1.4,0-2.9,0-4.3,0
	c-0.2,0-0.4,0.2-0.3,0.4c0.7,2.1,1.4,4.1,2.1,6.2C6.8,32.9,7.4,32.8,7.3,32.4L7.3,32.4z"/>
<path d="M8.7,27.4c-1.1,0-2.1,0-3.2,0C5,27.4,5,28,5.4,28c1.1,0,2.1,0,3.2,0C9.1,28,9.1,27.4,8.7,27.4L8.7,27.4z"/>
<path d="M6.7,21.7C6,23,5.3,24.2,4.6,25.4c-0.1,0.2,0,0.5,0.3,0.5c1.4,0,2.9,0,4.3,0c0.2,0,0.4-0.3,0.3-0.5C8.7,24.2,8,23,7.3,21.7
	c-0.2-0.3-0.7,0-0.5,0.3c0.7,1.2,1.5,2.4,2.2,3.7c0.1-0.2,0.2-0.3,0.3-0.5c-1.4,0-2.9,0-4.3,0c0.1,0.2,0.2,0.3,0.3,0.5
	c0.7-1.2,1.4-2.4,2.1-3.7C7.5,21.7,6.9,21.4,6.7,21.7z"/>
<rect id="_x3C_Slice_x3E__100_" fill="none" width="31.3" height="34.9"/>
</svg>
