<?xml version="1.0" encoding="utf-8"?>
<!-- Generator: Adobe Illustrator 15.0.2, SVG Export Plug-In  -->
<!DOCTYPE svg PUBLIC "-//W3C//DTD SVG 1.1//EN" "http://www.w3.org/Graphics/SVG/1.1/DTD/svg11.dtd" [
	<!ENTITY ns_flows "http://ns.adobe.com/Flows/1.0/">
]>
<svg version="1.1"
	 xmlns="http://www.w3.org/2000/svg" xmlns:xlink="http://www.w3.org/1999/xlink" xmlns:a="http://ns.adobe.com/AdobeSVGViewerExtensions/3.0/"
	 x="0px" y="0px" width="48px" height="50px" viewBox="0 0.6 48 50" overflow="visible" enable-background="new 0 0.6 48 50"
	 xml:space="preserve">
<defs>
</defs>
<polygon fill-rule="evenodd" clip-rule="evenodd" points="23.3,23.8 23.3,23.5 23.2,23.3 23.1,23 22.9,22.9 22.8,22.7 22.5,22.6 
	22.3,22.5 22.1,22.5 21.8,22.5 21.5,22.6 21.3,22.7 21.2,22.9 21,23 20.9,23.3 20.8,23.5 20.8,23.8 20.8,24 20.9,24.3 21,24.5 
	21.2,24.7 21.3,24.8 21.5,24.9 21.8,25 22.1,25 22.3,25 22.5,24.9 22.8,24.8 22.9,24.7 23.1,24.5 23.2,24.3 23.3,24 23.3,23.8 "/>
<path d="M23.6,23.8c0-0.4-0.1-0.9-0.5-1.1c-0.1-0.1-0.1-0.1,0,0c0-0.1-0.1-0.1-0.1-0.2c-0.1-0.1-0.2-0.2-0.3-0.2
	c-0.2-0.1-0.4-0.2-0.6-0.2c-0.4,0-0.9,0.1-1.1,0.5c-0.1,0.1-0.1,0.1,0,0c-0.1,0-0.1,0.1-0.2,0.1c-0.1,0.1-0.2,0.2-0.2,0.3
	c-0.1,0.2-0.2,0.4-0.2,0.6c0,0.8,0.7,1.7,1.5,1.7C22.8,25.4,23.6,24.7,23.6,23.8c0-0.4-0.6-0.4-0.6,0c0,0.1,0,0.1,0,0.2
	c0-0.2,0,0-0.1,0.1c-0.1,0.2-0.1,0.2-0.3,0.4c-0.1,0.1-0.2,0.1-0.3,0.2c-0.1,0-0.1,0.1-0.2,0.1c0.1,0,0.1,0,0,0c-0.1,0-0.2,0-0.2,0
	c-0.1,0-0.3-0.1-0.1,0c-0.1,0-0.1-0.1-0.2-0.1c-0.2-0.1-0.2-0.2-0.4-0.3c-0.1-0.1-0.1-0.2-0.2-0.3c-0.1-0.1,0,0.1,0-0.1
	c0-0.1,0-0.2,0-0.2c0-0.2-0.1,0.1,0-0.1c0-0.1,0.1-0.1,0.1-0.2c0.1-0.1,0.1-0.1,0,0c0.1,0,0.1-0.1,0.2-0.1c0.1,0,0.1-0.1,0.2-0.2
	c0-0.1,0.2-0.2,0-0.1c0.1,0,0.1-0.1,0.2-0.1c0.1,0,0.1-0.1,0.2-0.1c-0.1,0-0.1,0,0,0c0.1,0,0.2,0,0.3,0c0.1,0,0.2,0.1,0.1,0
	c0.1,0,0.1,0.1,0.2,0.1c0.1,0,0.1,0.1,0.2,0.1c-0.1-0.1-0.1-0.1,0,0c0,0.1,0.1,0.2,0.2,0.2c0.1,0,0.1,0.1,0.2,0.1
	c-0.1-0.1,0,0,0,0.1c0,0.1,0.1,0.3,0.1,0.1c0,0.1,0,0.2,0,0.3C23,24.2,23.6,24.2,23.6,23.8z"/>
<polygon fill-rule="evenodd" clip-rule="evenodd" points="22.5,27.9 22.5,27.7 22.4,27.5 22.2,27.4 22.1,27.4 21.9,27.4 21.6,27.5 
	21.5,27.7 21.5,27.9 21.5,28.2 21.6,28.3 21.9,28.4 22.1,28.4 22.2,28.4 22.4,28.3 22.5,28.2 22.5,27.9 "/>
<path d="M22.8,27.9c0-0.1,0-0.2,0-0.3c0-0.1-0.1-0.2-0.1-0.3c-0.1-0.2-0.4-0.3-0.6-0.3c-0.1,0-0.2,0-0.3,0c-0.1,0-0.2,0.1-0.3,0.1
	c-0.2,0.1-0.3,0.4-0.3,0.6c0,0.2,0,0.4,0.2,0.6c0.2,0.2,0.4,0.2,0.6,0.2c0.2,0,0.4-0.1,0.6-0.1C22.8,28.4,22.8,28.2,22.8,27.9
	c0-0.4-0.6-0.4-0.6,0c0,0.1,0,0.1,0,0.2c0-0.1,0.1-0.1,0.1-0.2c0,0-0.1,0.1-0.1,0.1c0.1-0.1,0,0-0.1,0c-0.1,0.1-0.1,0,0,0
	c0,0-0.1,0-0.1,0c-0.1,0-0.1,0-0.2,0c-0.1,0,0.2,0.1,0,0c0,0-0.1,0-0.1-0.1c0.1,0.1,0,0-0.1-0.1c0,0.1,0.1,0.1,0.1,0.2
	c0-0.1,0-0.1,0-0.2c0,0,0-0.1,0-0.1c0-0.1,0-0.2,0,0c0,0,0-0.1,0.1-0.1c0.1-0.1,0.1-0.1,0,0c0,0,0.1,0,0.1-0.1c0.2-0.1-0.2,0,0,0
	c0.1,0,0.2,0,0.2,0c0.1,0-0.2-0.1-0.1,0c0,0,0.1,0.1,0.2,0.1c0.1,0.1-0.1-0.2-0.1-0.1c0,0.1,0.1,0.1,0.1,0.2c0,0.1,0-0.2,0,0
	c0,0,0,0.1,0,0.1C22.2,28.3,22.8,28.3,22.8,27.9z"/>
<path d="M23.5,27.6c-1,0-2,0-3,0c-0.4,0-0.4,0.6,0,0.6c1,0,2,0,3,0C23.9,28.2,23.9,27.6,23.5,27.6L23.5,27.6z"/>
<path d="M22.5,26.4c-0.5,0.9-1,1.8-1.4,2.7c-0.2,0.4,0.3,0.7,0.5,0.3c0.5-0.9,1-1.8,1.4-2.7C23.2,26.4,22.7,26.1,22.5,26.4
	L22.5,26.4z"/>
<path d="M23,29.1c-0.5-0.9-1-1.8-1.4-2.7c-0.2-0.4-0.7,0-0.5,0.3c0.5,0.9,1,1.8,1.4,2.7C22.7,29.8,23.2,29.5,23,29.1L23,29.1z"/>
<rect id="_x3C_Slice_x3E__101_" y="50.2" fill="none" width="48.2" height="51.2"/>
<rect id="_x3C_Slice_x3E__100_" fill="none" width="48.2" height="50.2"/>
</svg>
