<?xml version="1.0" encoding="utf-8"?>
<!-- Generator: Adobe Illustrator 15.0.2, SVG Export Plug-In  -->
<!DOCTYPE svg PUBLIC "-//W3C//DTD SVG 1.1//EN" "http://www.w3.org/Graphics/SVG/1.1/DTD/svg11.dtd" [
	<!ENTITY ns_flows "http://ns.adobe.com/Flows/1.0/">
]>
<svg version="1.1"
	 xmlns="http://www.w3.org/2000/svg" xmlns:xlink="http://www.w3.org/1999/xlink" xmlns:a="http://ns.adobe.com/AdobeSVGViewerExtensions/3.0/"
	 x="0px" y="0px" width="57px" height="50px" viewBox="57.4 0.3 57 50" overflow="visible" enable-background="new 57.4 0.3 57 50"
	 xml:space="preserve">
<defs>
</defs>
<path d="M80.5,31.1c2.2,2.2,5.8-0.3,4.4-3.2c-0.9-1.7-3.4-2.1-4-3.8c-0.6-1.9,2.3-2.9,3.3-1.4c0.2,0.3,0.8,0,0.5-0.3
	c-1.9-2.8-6.3,0.6-3.8,3.1c1.3,1.3,4,1.8,3.4,4.3c-0.4,1.7-2.3,2.1-3.5,0.9C80.7,30.3,80.2,30.8,80.5,31.1L80.5,31.1z"/>
<path d="M86.3,25.1c-2.7,0-5.5,0-8.2,0c-0.4,0-0.4,0.6,0,0.6c2.7,0,5.5,0,8.2,0C86.7,25.7,86.7,25.1,86.3,25.1L86.3,25.1z"/>
<path d="M86.3,26.4c-2.7,0-5.5,0-8.2,0c-0.4,0-0.4,0.6,0,0.6c2.7,0,5.5,0,8.2,0C86.7,27.1,86.7,26.4,86.3,26.4L86.3,26.4z"/>
<path d="M85.9,27.3c0.6-0.3,1.2-0.7,1.8-1c0.2-0.1,0.2-0.4,0-0.5c-0.6-0.3-1.2-0.7-1.8-1c-0.4-0.2-0.7,0.3-0.3,0.5
	c0.6,0.3,1.2,0.7,1.8,1c0-0.2,0-0.4,0-0.5c-0.6,0.3-1.2,0.7-1.8,1C85.2,27,85.5,27.5,85.9,27.3L85.9,27.3z"/>
<path d="M88.5,21.2c0,3.6,0,7.2,0,10.8c0,0.4,0.6,0.4,0.6,0c0-3.6,0-7.2,0-10.8C89.2,20.8,88.5,20.8,88.5,21.2L88.5,21.2z"/>
<rect id="_x3C_Slice_x3E__103_" y="50.2" fill="none" width="58.3" height="49.2"/>
<rect id="_x3C_Slice_x3E__102_" x="58.3" y="50.2" fill="none" width="56.2" height="49.2"/>
<rect id="_x3C_Slice_x3E__101_" fill="none" width="58.3" height="50.2"/>
<rect id="_x3C_Slice_x3E__100_" x="58.3" fill="none" width="56.2" height="50.2"/>
</svg>
