<?xml version="1.0" encoding="utf-8"?>
<!-- Generator: Adobe Illustrator 15.0.2, SVG Export Plug-In  -->
<!DOCTYPE svg PUBLIC "-//W3C//DTD SVG 1.1//EN" "http://www.w3.org/Graphics/SVG/1.1/DTD/svg11.dtd" [
	<!ENTITY ns_flows "http://ns.adobe.com/Flows/1.0/">
]>
<svg version="1.1"
	 xmlns="http://www.w3.org/2000/svg" xmlns:xlink="http://www.w3.org/1999/xlink" xmlns:a="http://ns.adobe.com/AdobeSVGViewerExtensions/3.0/"
	 x="0px" y="0px" width="49px" height="50px" viewBox="56.2 0.6 49 50" overflow="visible" enable-background="new 56.2 0.6 49 50"
	 xml:space="preserve">
<defs>
</defs>
<polygon fill-rule="evenodd" clip-rule="evenodd" points="80.5,30 80.5,29.7 80.4,29.5 80.3,29.3 80,29.2 79.9,28.9 79.7,28.8 
	79.5,28.8 79.2,28.7 78.9,28.8 78.7,28.8 78.5,28.9 78.4,29.2 78.2,29.3 78,29.5 77.9,29.7 77.9,30 77.9,30.3 78,30.5 78.2,30.7 
	78.4,30.9 78.5,31 78.7,31.2 78.9,31.3 79.2,31.3 79.5,31.3 79.7,31.2 79.9,31 80,30.9 80.3,30.7 80.4,30.5 80.5,30.3 80.5,30 "/>
<path d="M80.8,30c0-0.5-0.1-0.9-0.6-1.1c0.1,0.1,0.1,0.1,0,0c0-0.1-0.1-0.1-0.1-0.2c-0.1-0.1-0.2-0.1-0.3-0.2
	c-0.2-0.1-0.4-0.1-0.6-0.1c-0.1,0-0.2,0-0.3,0c-0.1,0-0.1,0-0.2,0.1c0.2-0.1,0,0-0.1,0c-0.2,0-0.5,0.1-0.5,0.3
	c0,0.1-0.1,0.1-0.1,0.2c0.1-0.1,0,0-0.1,0c-0.1,0.1-0.2,0.1-0.2,0.2c-0.1,0.2-0.2,0.4-0.2,0.6c0,0.4,0.1,0.9,0.4,1.2
	c0.3,0.3,0.7,0.6,1.1,0.6c0.4,0,0.8-0.1,1.1-0.4C80.6,30.8,80.8,30.5,80.8,30c0-0.4-0.6-0.4-0.6,0c0,0.1,0,0.1,0,0.2
	c0-0.2,0,0-0.1,0.1c-0.1,0.2-0.1,0.2-0.3,0.4c-0.1,0.1-0.2,0.1-0.3,0.2c-0.1,0-0.1,0.1-0.2,0.1c0.1,0,0.1,0,0,0c-0.1,0-0.2,0-0.3,0
	c-0.1,0-0.2-0.1-0.1,0c-0.1,0-0.1-0.1-0.2-0.1c-0.2-0.1-0.2-0.2-0.4-0.3c-0.1-0.1-0.2-0.3-0.2-0.4c0.1,0.2,0,0,0-0.1
	c0-0.1,0-0.2,0-0.3c0,0.2,0,0,0.1-0.1c0-0.1,0.1-0.1,0.1-0.2c-0.1,0.1,0,0,0.1,0c0.1,0,0.1-0.1,0.2-0.2c0.1-0.1,0.1-0.1,0,0
	c0.1,0,0.1-0.1,0.2-0.1c-0.2,0.1,0,0,0.1,0c0.1,0,0.2-0.1,0.3-0.1c0.2-0.1-0.3-0.1,0,0c0.2,0.1,0.3,0.1,0.4,0.1c-0.1,0-0.1,0,0,0
	c0.1,0.1,0.1,0.1,0,0c0,0.1,0.1,0.2,0.1,0.2c0.1,0.1,0.2,0.1,0.2,0.1c-0.1-0.1,0,0,0,0.1c0,0.1,0.1,0.3,0.1,0.1c0,0.1,0,0.2,0,0.3
	C80.2,30.4,80.8,30.4,80.8,30z"/>
<polygon fill-rule="evenodd" clip-rule="evenodd" points="80.5,25.9 80.5,25.6 80.4,25.4 80.3,25.2 80,25 79.9,24.8 79.7,24.7 
	79.5,24.6 79.2,24.6 78.9,24.6 78.7,24.7 78.5,24.8 78.4,25 78.2,25.2 78,25.4 77.9,25.6 77.9,25.9 77.9,26.2 78,26.4 78.2,26.6 
	78.4,26.7 78.5,26.9 78.7,27 78.9,27.2 79.2,27.2 79.5,27.2 79.7,27 79.9,26.9 80,26.7 80.3,26.6 80.4,26.4 80.5,26.2 80.5,25.9 "/>
<path d="M80.8,25.9c0-0.5-0.1-0.9-0.6-1.1c0.1,0.1,0.1,0.1,0,0c0-0.1-0.1-0.1-0.1-0.2c-0.1-0.1-0.2-0.1-0.3-0.2
	c-0.2-0.1-0.4-0.2-0.7-0.2c-0.4,0-0.9,0.2-1.1,0.6c0.1-0.1,0.1-0.1,0,0c-0.1,0-0.1,0.1-0.2,0.1c-0.1,0.1-0.1,0.2-0.2,0.3
	c-0.1,0.2-0.2,0.4-0.2,0.7c0,0.4,0.2,0.9,0.6,1.1c-0.1-0.1-0.1-0.1,0,0c0,0.1,0.1,0.1,0.1,0.2c0.1,0.1,0.2,0.1,0.3,0.2
	c0.2,0.1,0.4,0.2,0.6,0.2c0.5,0,0.9-0.1,1.1-0.6c-0.1,0.1-0.1,0.1,0,0c0.1,0,0.1-0.1,0.2-0.1c0.1-0.1,0.1-0.2,0.2-0.3
	C80.8,26.3,80.8,26.2,80.8,25.9c0-0.4-0.6-0.4-0.6,0c0,0.1,0,0.1,0,0.2c0-0.2,0,0-0.1,0.1c0,0.1-0.2,0.2,0,0.1
	c-0.1,0-0.2,0.1-0.2,0.1c-0.1,0.1-0.1,0.2-0.1,0.2c0.1-0.1,0,0-0.1,0c-0.1,0-0.3,0.1-0.1,0.1c-0.1,0-0.2,0-0.3,0c-0.1,0-0.1,0-0.2,0
	c0.2,0,0,0-0.1-0.1c-0.1,0-0.2-0.2-0.1,0c0-0.1-0.1-0.2-0.1-0.2c-0.1-0.1-0.2-0.1-0.3-0.1c0.1,0.1,0,0,0-0.1c0-0.1-0.1-0.3-0.1-0.1
	c0-0.1,0-0.1,0-0.2c0-0.1,0-0.2,0-0.3c0,0.2,0,0,0.1-0.1c0-0.1,0.2-0.2,0-0.1c0.1,0,0.2-0.1,0.3-0.1c0.1-0.1,0.1-0.2,0.1-0.3
	c-0.1,0.1,0,0,0.1,0c0.1,0,0.3-0.1,0.1-0.1c0.1,0,0.1,0,0.2,0c0.1,0,0.2,0,0.3,0c-0.2,0,0,0,0.1,0.1c0.1,0,0.2,0.2,0.1,0
	c0,0.1,0.1,0.2,0.1,0.3c0.1,0.1,0.2,0.1,0.2,0.1c-0.1-0.1,0,0,0,0.1c0,0.1,0.1,0.3,0.1,0.1c0,0.1,0,0.2,0,0.3
	C80.2,26.3,80.8,26.3,80.8,25.9z"/>
<polygon fill-rule="evenodd" clip-rule="evenodd" points="80.5,21.7 80.5,21.5 80.4,21.3 80.3,21 80,20.8 79.9,20.7 79.7,20.6 
	79.5,20.5 79.2,20.5 78.9,20.5 78.7,20.6 78.5,20.7 78.4,20.8 78.2,21 78,21.3 77.9,21.5 77.9,21.7 77.9,22 78,22.3 78.2,22.5 
	78.4,22.6 78.5,22.8 78.7,22.9 78.9,22.9 79.2,23 79.5,22.9 79.7,22.9 79.9,22.8 80,22.6 80.3,22.5 80.4,22.3 80.5,22 80.5,21.7 "/>
<path d="M80.8,21.7c0-0.5-0.2-0.8-0.5-1.1c-0.3-0.3-0.7-0.4-1.1-0.4c-0.5,0-0.8,0.3-1.1,0.6c-0.3,0.3-0.4,0.7-0.4,1.2
	c0,0.2,0.1,0.4,0.2,0.6c0.1,0.1,0.1,0.2,0.2,0.2c0.1,0,0.1,0.1,0.2,0.1c-0.1-0.1,0,0,0,0.1c0.1,0.2,0.4,0.3,0.5,0.3
	c0.1,0,0.1,0,0.2,0c-0.2,0,0,0,0.1,0.1c0.1,0,0.2,0.1,0.3,0c0.2-0.1,0.4,0,0.6-0.1c0.1,0,0.2-0.1,0.3-0.2c0,0,0.1-0.1,0.1-0.1
	c0-0.1,0.2-0.2,0-0.1C80.7,22.6,80.8,22.2,80.8,21.7c0-0.4-0.6-0.4-0.6,0c0,0.1,0,0.1,0,0.2c0,0.1,0,0.1,0,0c0,0.1-0.1,0.1-0.1,0.2
	c0,0.1-0.1,0.1-0.1,0.2c0.1-0.1,0,0-0.1,0c-0.1,0-0.1,0.1-0.1,0.1c0,0.1-0.1,0.1-0.1,0.2c0.1-0.1,0.1-0.1,0,0c-0.1,0.1,0.1,0-0.1,0
	c-0.1,0-0.1,0-0.2,0c-0.1,0-0.1,0-0.2,0.1c0.2,0,0.2,0,0.1,0c0,0-0.1,0-0.1-0.1c-0.1,0-0.2,0-0.3,0c-0.1,0-0.1,0,0,0
	c-0.1,0-0.1-0.1-0.2-0.1c0.1,0.1,0,0,0-0.1c0-0.1-0.1-0.1-0.2-0.2c-0.1-0.1-0.1-0.1,0,0c0-0.1-0.1-0.1-0.1-0.2
	c0-0.1-0.1-0.1-0.1-0.2c0.1,0.2,0,0,0-0.1c0-0.1,0-0.2,0-0.2c0-0.1,0-0.1,0,0c0-0.1,0.1-0.1,0.1-0.2c0-0.1,0.1-0.1,0.1-0.2
	c0,0,0.2-0.2,0.3-0.3c0.1,0,0.1-0.1,0.2-0.1c0.1,0,0.1-0.1,0.2-0.1c-0.1,0-0.1,0,0,0c0.4,0,0.5-0.1,0.8,0.2c0.1,0.1,0.2,0.2,0.3,0.4
	c0,0.1,0.1,0.1,0.1,0.2c-0.1-0.2,0,0,0,0.1C80.2,22.1,80.8,22.1,80.8,21.7z"/>
<rect id="_x3C_Slice_x3E__103_" y="50.2" fill="none" width="56.2" height="51.2"/>
<rect id="_x3C_Slice_x3E__102_" x="56.2" y="50.2" fill="none" width="49.2" height="51.2"/>
<rect id="_x3C_Slice_x3E__101_" fill="none" width="56.2" height="50.2"/>
<rect id="_x3C_Slice_x3E__100_" x="56.2" fill="none" width="49.2" height="50.2"/>
</svg>
