<?xml version="1.0" encoding="utf-8"?>
<!-- Generator: Adobe Illustrator 15.0.2, SVG Export Plug-In  -->
<!DOCTYPE svg PUBLIC "-//W3C//DTD SVG 1.1//EN" "http://www.w3.org/Graphics/SVG/1.1/DTD/svg11.dtd" [
	<!ENTITY ns_flows "http://ns.adobe.com/Flows/1.0/">
]>
<svg version="1.1"
	 xmlns="http://www.w3.org/2000/svg" xmlns:xlink="http://www.w3.org/1999/xlink" xmlns:a="http://ns.adobe.com/AdobeSVGViewerExtensions/3.0/"
	 x="0px" y="0px" width="49px" height="35px" viewBox="56.2 0 49 35" overflow="visible" enable-background="new 56.2 0 49 35"
	 xml:space="preserve">
<defs>
</defs>
<path d="M84.4,3.2c-0.4-0.8-1-1.3-1.9-0.9c-0.7,0.4-0.7,1.6-1.4,1.6c-0.4,0-0.9-1.2-1.3-1.6c-0.7-0.7-1.5,0.1-1.8,0.7
	c-1.2,2.5-1.3-1.4-3.2-0.9C73.7,2.4,74,3.9,74,4.8c0,2.4,0,4.9,0,7.3c0,0.4,0.6,0.4,0.6,0c0-2.1,0-4.2,0-6.3c0-0.6-0.4-3,0.7-3
	c1.1,0,1.2,3,3,1.2c0.4-0.4,0.6-1.7,1.2-1.2C80,3.3,80.1,4,80.8,4.5c1.5,0.9,2-3.3,3.1-1C84.1,3.8,84.6,3.5,84.4,3.2L84.4,3.2z"/>
<rect id="_x3C_Slice_x3E__103_" y="34.2" fill="none" width="56.2" height="54.2"/>
<rect id="_x3C_Slice_x3E__102_" x="56.2" y="34.2" fill="none" width="49.2" height="54.2"/>
<rect id="_x3C_Slice_x3E__101_" fill="none" width="56.2" height="34.2"/>
<rect id="_x3C_Slice_x3E__100_" x="56.2" fill="none" width="49.2" height="34.2"/>
</svg>
