<?xml version="1.0" encoding="utf-8"?>
<!-- Generator: Adobe Illustrator 15.0.2, SVG Export Plug-In  -->
<!DOCTYPE svg PUBLIC "-//W3C//DTD SVG 1.1//EN" "http://www.w3.org/Graphics/SVG/1.1/DTD/svg11.dtd" [
	<!ENTITY ns_flows "http://ns.adobe.com/Flows/1.0/">
]>
<svg version="1.1"
	 xmlns="http://www.w3.org/2000/svg" xmlns:xlink="http://www.w3.org/1999/xlink" xmlns:a="http://ns.adobe.com/AdobeSVGViewerExtensions/3.0/"
	 x="0px" y="0px" width="35px" height="54px" viewBox="48 0.8 35 54" overflow="visible" enable-background="new 48 0.8 35 54"
	 xml:space="preserve">
<defs>
</defs>
<path d="M74,32.7c1.9-1.3,1.4-3.3,1.4-5.4c0-2.3,0.7-4.5-1.4-5.9c-0.3-0.2-0.6,0.3-0.3,0.5c1.6,1.1,1.1,3.1,1.1,4.9
	c0,1.9,0.6,4.2-1.1,5.3C73.4,32.4,73.7,32.9,74,32.7L74,32.7z"/>
<path d="M78.4,32.2c-1.6-1.1-1.1-3.1-1.1-4.9c0-1.9-0.6-4.2,1.1-5.3c0.3-0.2,0-0.8-0.3-0.5c-1.9,1.3-1.4,3.3-1.4,5.4
	c0,2.3-0.7,4.5,1.4,5.9C78.4,32.9,78.7,32.4,78.4,32.2L78.4,32.2z"/>
<rect id="_x3C_Slice_x3E__103_" y="54.2" fill="none" width="48.2" height="54.2"/>
<rect id="_x3C_Slice_x3E__102_" x="48.2" y="54.2" fill="none" width="34.8" height="54.2"/>
<rect id="_x3C_Slice_x3E__101_" fill="none" width="48.2" height="54.2"/>
<rect id="_x3C_Slice_x3E__100_" x="48.2" fill="none" width="34.8" height="54.2"/>
</svg>
