<?xml version="1.0" encoding="utf-8"?>
<!-- Generator: Adobe Illustrator 15.0.2, SVG Export Plug-In  -->
<!DOCTYPE svg PUBLIC "-//W3C//DTD SVG 1.1//EN" "http://www.w3.org/Graphics/SVG/1.1/DTD/svg11.dtd" [
	<!ENTITY ns_flows "http://ns.adobe.com/Flows/1.0/">
]>
<svg version="1.1"
	 xmlns="http://www.w3.org/2000/svg" xmlns:xlink="http://www.w3.org/1999/xlink" xmlns:a="http://ns.adobe.com/AdobeSVGViewerExtensions/3.0/"
	 x="0px" y="0px" width="56px" height="63px" viewBox="48.9 0.9 56 63" overflow="visible" enable-background="new 48.9 0.9 56 63"
	 xml:space="preserve">
<defs>
</defs>
<polygon fill-rule="evenodd" clip-rule="evenodd" points="76.5,32.1 76.7,31.9 76.9,31.6 77.1,31.4 77.2,31.2 77.2,31.1 77.2,31 
	77.1,30.9 76.9,30.9 76.6,30.9 76.5,30.8 76.4,30.8 76.4,30.6 76.2,30.5 76.2,30.3 76.2,30.2 76.2,30.1 76.5,29.9 76.7,29.8 
	76.9,29.8 77,29.8 77.2,29.9 77.4,30 77.5,30.1 77.6,30.2 77.6,30.4 77.7,30.5 77.7,30.8 77.7,30.9 77.7,31.1 77.6,31.3 77.5,31.4 
	77.4,31.6 77.1,31.9 76.9,32.1 76.6,32.3 76.5,32.1 "/>
<path d="M76.7,32.3c0.4-0.4,0.9-0.7,0.9-1.3c0-0.4-0.3-0.5-0.6-0.5c-0.1,0-0.1,0-0.2,0c-0.2,0-0.2-0.1,0,0.1
	c-0.1-0.1-0.2-0.2-0.4-0.2c0.1,0.1,0.2,0.2,0.3,0.3c0-0.1,0-0.2-0.1-0.3c-0.2-0.2,0,0.2,0-0.1c0-0.2,0.1-0.2-0.1-0.1
	c0.1-0.1,0.2-0.2,0.2-0.2c0.1,0,0.1-0.1,0,0c0.1,0,0.1,0,0.2,0c0.1,0,0.1,0,0,0c0,0,0.2,0.1,0.2,0.1c0.1,0.1,0.1,0.1,0.2,0.2
	c0.2,0.2,0-0.2,0,0.1c0,0.1,0,0.2,0.1,0.3c0.1,0.1,0.1,0.1,0-0.1c0,0.1,0,0.1,0,0.2c0,0.1,0,0.2,0,0.3c0-0.2,0,0-0.1,0.1
	c-0.2,0.2-0.2,0.3-0.4,0.5c-0.2,0.2-0.3,0.3-0.5,0.4c0.1,0,0.3,0.1,0.4,0.1c0-0.1-0.1-0.1-0.1-0.2c-0.2-0.4-0.7,0-0.5,0.3
	c0,0.1,0.1,0.1,0.1,0.2c0.1,0.1,0.3,0.2,0.4,0.1c0.4-0.3,0.9-0.7,1.1-1.1c0.1-0.3,0.1-0.5,0.1-0.8c0-0.1,0-0.3-0.1-0.4
	c-0.2-0.2,0,0.3,0,0c0-0.1,0-0.2,0-0.3c-0.2-0.4-0.9-0.8-1.4-0.5c-0.2,0.1-0.6,0.3-0.6,0.6c0,0.1,0,0.3,0,0.4c0,0.1,0,0.2,0.1,0.2
	c0.2,0.2,0-0.1,0,0c0,0.2,0.1,0.3,0.3,0.3c0.1,0-0.2-0.2,0,0c0.1,0.1,0.2,0.1,0.3,0.1c0.1,0,0.2,0,0.3,0c0.1,0,0.1,0-0.1-0.1
	c0.2,0.2,0-0.2,0,0c0,0.1,0,0.1,0,0c0,0.1-0.1,0.1-0.1,0.2c0,0-0.1,0.1-0.2,0.2c-0.1,0.1-0.3,0.3-0.4,0.4
	C76,32.2,76.4,32.6,76.7,32.3z"/>
<polygon fill-rule="evenodd" clip-rule="evenodd" points="74,36.2 74.4,36 74.6,35.8 74.7,35.5 74.8,35.3 74.8,35.2 74.8,35.1 
	74.7,35 74.5,35 74.2,35 74.1,34.9 74,34.9 73.9,34.8 73.9,34.6 73.8,34.4 73.9,34.3 73.9,34.2 74,34.1 74.2,34 74.5,33.9 
	74.7,33.9 74.8,34 74.9,34.1 75,34.2 75.1,34.3 75.2,34.5 75.2,34.6 75.2,34.9 75.2,35 75.2,35.2 75.1,35.4 75.1,35.6 74.9,35.8 
	74.7,36 74.5,36.2 74.1,36.4 74,36.2 "/>
<path d="M74.2,36.5c0.3-0.2,0.6-0.4,0.7-0.7c0.1-0.2,0.4-0.7,0.1-0.9c-0.1-0.1-0.2-0.2-0.4-0.2c-0.1,0-0.1,0-0.2,0
	c-0.3,0,0.1,0.1,0,0c0,0-0.1-0.1-0.2-0.1c-0.3-0.1,0.1,0.2-0.1,0c0,0.2,0.1,0.2,0.1,0.1c0-0.1,0-0.1,0-0.2c0-0.1-0.1-0.1-0.1-0.2
	c0,0.1,0,0.3,0,0.4c0.1-0.1,0.2-0.2,0.2-0.3c0-0.2-0.2,0.2,0,0c0,0,0.1-0.1,0.2-0.1c0.1,0,0.1-0.1,0.2-0.1c-0.1,0-0.1,0,0,0
	c0.1,0,0.1,0-0.1-0.1c0.1,0.1,0.2,0.2,0.3,0.3c0.1,0.1,0.1,0.2,0.2,0.3c-0.1-0.1,0,0.2,0,0.3c0,0.1,0,0.1,0,0.2c0,0.1,0,0.1,0,0
	c0,0.1-0.1,0.1-0.1,0.2c-0.1,0.1-0.1,0.3-0.1,0.4c0.1-0.1,0.1-0.2,0.2-0.3c-0.4,0.2-0.7,0.5-1,0.8c0.1,0,0.3,0.1,0.4,0.1
	c0-0.1-0.1-0.1-0.1-0.2c-0.2-0.4-0.7,0-0.5,0.3c0,0.1,0.1,0.1,0.1,0.2c0.1,0.1,0.3,0.2,0.4,0.1c0.4-0.2,0.6-0.6,1-0.8
	c0.1,0,0.2-0.2,0.2-0.3c0-0.1,0.1-0.3,0-0.1c0-0.1,0.1-0.2,0.1-0.3c0-0.2,0-0.4,0-0.5c0-0.4-0.2-0.6-0.4-0.9
	c-0.3-0.3-0.5-0.4-0.9-0.2c-0.1,0.1-0.3,0.1-0.4,0.2c-0.1,0.1-0.1,0.1-0.2,0.2c-0.1,0.3,0.2-0.1,0,0.1c-0.1,0.1-0.1,0.3,0,0.4
	c0,0.1,0.1,0.1,0.1,0.2c-0.1-0.2,0,0,0,0.1c0,0.1,0.2,0.2,0.3,0.3c0.1,0,0.1,0,0.2,0c-0.2,0-0.2-0.1-0.1,0c0.1,0.1,0.3,0.1,0.4,0.1
	c0.1,0,0.1,0,0.2,0c-0.1,0-0.1,0-0.2-0.1c0.1,0.1,0.1,0.1,0-0.1c0,0.1,0,0.2,0,0c0,0.1-0.1,0.1-0.1,0.2c-0.1,0.3-0.3,0.4-0.6,0.6
	C73.5,36.2,73.8,36.7,74.2,36.5z"/>
<polygon fill-rule="evenodd" clip-rule="evenodd" points="76.5,40.3 76.7,40.1 76.9,39.9 77.1,39.6 77.2,39.5 77.2,39.3 77.2,39.2 
	77.1,39.1 76.9,39.1 76.6,39.1 76.5,39.1 76.4,39 76.4,38.9 76.2,38.8 76.2,38.5 76.2,38.4 76.2,38.3 76.5,38.2 76.7,38.1 76.9,38 
	77,38.1 77.2,38.1 77.4,38.2 77.5,38.3 77.6,38.5 77.6,38.6 77.7,38.8 77.7,39 77.7,39.2 77.7,39.3 77.6,39.5 77.5,39.8 77.4,39.9 
	77.1,40.1 76.9,40.3 76.6,40.5 76.5,40.3 "/>
<path d="M76.7,40.5c0.3-0.3,1.3-1,0.7-1.6c-0.2-0.2-0.3-0.2-0.5-0.2c-0.1,0-0.2,0-0.3,0c-0.2,0-0.2-0.1,0,0.1
	c-0.2-0.2,0.1,0.2,0-0.1c0-0.1-0.1-0.2-0.2-0.2c0.1,0.1,0.1,0.2,0.1,0c0-0.1,0-0.1,0-0.2c-0.1,0.1-0.1,0.2-0.2,0.3
	c0.2-0.1,0.4-0.2,0.7-0.3c-0.1,0-0.3,0-0.4,0c0.1,0.1,0.2,0.2,0.4,0.2c0.2,0,0.1,0.1,0-0.1c0.1,0.1,0.1,0.1,0.2,0.2
	c0,0,0.1,0.2,0.1,0.2c-0.1-0.2,0,0.1,0,0.1c0,0,0,0.1,0.1,0.1c0.1,0.1,0.1,0.1,0-0.1c0,0.1,0,0.1,0,0.2c0,0.1,0,0.1,0,0.2
	c0,0.1,0,0.1,0,0c0,0.1-0.1,0.1-0.1,0.2c-0.1,0.1-0.1,0.2-0.2,0.3c-0.3,0.3-0.4,0.4-0.7,0.6c0.1,0,0.3,0.1,0.4,0.1
	c0-0.1-0.1-0.1-0.1-0.2c-0.2-0.4-0.7,0-0.5,0.3c0,0.1,0.1,0.1,0.1,0.2c0.1,0.1,0.3,0.2,0.4,0.1c0.6-0.4,1.3-1,1.3-1.7
	c0-0.2,0-0.4,0-0.5c0,0,0-0.1-0.1-0.1c-0.1-0.1-0.1-0.1,0,0.1c0-0.1,0-0.2-0.1-0.3c-0.1-0.2-0.2-0.3-0.3-0.4
	c-0.1-0.1-0.2-0.1-0.3-0.1c-0.3,0,0.1,0.2-0.1,0c-0.1-0.1-0.3-0.1-0.4,0c-0.2,0.1-0.4,0.2-0.7,0.3c-0.1,0-0.2,0.2-0.2,0.3
	c0,0.1,0,0.3,0,0.4c0,0.1,0,0.1,0,0.2c0,0,0,0.1,0.1,0.1c0.1,0.1,0.1,0.1,0-0.1c0,0.4,0.4,0.5,0.8,0.5c0.1,0,0.1,0,0.2,0
	c0.3,0-0.1-0.1,0,0c-0.1-0.1-0.1-0.2-0.1,0c0,0.2,0.2-0.2,0,0c-0.2,0.2-0.4,0.4-0.7,0.7C76,40.4,76.4,40.8,76.7,40.5z"/>
<polygon fill-rule="evenodd" clip-rule="evenodd" points="78.8,36.2 79.1,36 79.4,35.8 79.5,35.5 79.6,35.3 79.6,35.2 79.6,35.1 
	79.5,35 79.2,35 79,35 78.9,34.9 78.8,34.9 78.7,34.8 78.7,34.6 78.7,34.4 78.7,34.3 78.7,34.2 78.8,34.1 79,34 79.2,33.9 
	79.5,33.9 79.6,34 79.7,34.1 79.8,34.2 79.9,34.3 80,34.5 80,34.6 80.1,34.9 80,35 80,35.2 79.9,35.4 79.9,35.6 79.7,35.8 79.5,36 
	79.2,36.2 78.9,36.4 78.8,36.2 "/>
<path d="M79,36.5c0.4-0.2,0.9-0.7,0.9-1.2c0-0.3,0-0.6-0.3-0.6c-0.1,0-0.2,0-0.3,0c-0.2,0-0.1-0.1,0,0.1c0,0-0.1-0.1-0.1-0.1
	c-0.1,0-0.1,0-0.2,0c0.1,0,0.1,0,0.1,0.1c0-0.1,0-0.2,0-0.3c0-0.2,0-0.1-0.1,0c0.1-0.1,0,0,0.1-0.1c0,0,0.1,0,0.1-0.1
	c0.1,0,0.2-0.1,0.1-0.1c0.2,0,0.1,0.1,0-0.1c0,0,0.1,0.1,0.1,0.1c0.1,0.1,0.1,0.1,0.2,0.2c0.1,0.1,0,0,0.1,0.1c0.1,0.2,0-0.1,0,0.1
	c0,0.1,0.1,0.3,0.2,0.4c0-0.1,0-0.3,0-0.4c-0.2,0.2-0.2,0.3-0.2,0.5c0-0.2-0.1,0.1-0.1,0.2c0,0.1,0,0.2,0,0.3
	c0.1-0.1,0.1-0.2,0.2-0.3c-0.4,0.2-0.7,0.5-1,0.8c0.1,0,0.3,0.1,0.4,0.1c0-0.1-0.1-0.1-0.1-0.2c-0.2-0.4-0.7,0-0.5,0.3
	c0,0.1,0.1,0.1,0.1,0.2c0.1,0.1,0.3,0.2,0.4,0.1c0.4-0.2,0.6-0.6,1-0.8c0.1,0,0.2-0.2,0.2-0.3c0-0.1,0-0.1,0-0.2c0,0.2,0,0,0.1-0.1
	c0-0.1,0-0.2,0-0.3c0-0.2-0.2,0.2,0,0c0.1-0.1,0.1-0.2,0-0.4c0-0.1-0.1-0.1-0.1-0.2c0.1,0.2,0,0,0-0.1c0-0.1-0.1-0.3-0.2-0.4
	c-0.2-0.2-0.3-0.4-0.5-0.5c-0.3-0.2-0.6,0-0.8,0.1c-0.3,0.1-0.5,0.3-0.5,0.6c0,0.3,0,0.5,0.2,0.7c0.1,0.1,0.1,0.1,0.2,0.1
	c0.2,0-0.2-0.2,0,0c0.1,0.1,0.3,0.1,0.4,0.1c0,0,0.1,0,0.1,0c0.2,0-0.2-0.2,0,0c-0.1-0.1-0.1-0.2-0.1,0c0-0.1,0,0-0.1,0.1
	c-0.1,0.3-0.3,0.4-0.6,0.6C78.3,36.2,78.6,36.7,79,36.5z"/>
<rect id="_x3C_Slice_x3E__103_" y="63.3" fill="none" width="49.2" height="50.2"/>
<rect id="_x3C_Slice_x3E__102_" x="49.2" y="63.3" fill="none" width="56.2" height="50.2"/>
<rect id="_x3C_Slice_x3E__101_" fill="none" width="49.2" height="63.3"/>
<rect id="_x3C_Slice_x3E__100_" x="49.2" fill="none" width="56.2" height="63.3"/>
</svg>
