<?xml version="1.0" encoding="utf-8"?>
<!-- Generator: Adobe Illustrator 15.0.2, SVG Export Plug-In  -->
<!DOCTYPE svg PUBLIC "-//W3C//DTD SVG 1.1//EN" "http://www.w3.org/Graphics/SVG/1.1/DTD/svg11.dtd" [
	<!ENTITY ns_flows "http://ns.adobe.com/Flows/1.0/">
]>
<svg version="1.1"
	 xmlns="http://www.w3.org/2000/svg" xmlns:xlink="http://www.w3.org/1999/xlink" xmlns:a="http://ns.adobe.com/AdobeSVGViewerExtensions/3.0/"
	 x="0px" y="0px" width="31px" height="60px" viewBox="0 0.2 31 60" overflow="visible" enable-background="new 0 0.2 31 60"
	 xml:space="preserve">
<defs>
</defs>
<path d="M7.3,37.4c-0.7-2.1-1.4-4.2-2.1-6.3c-0.1,0.1-0.2,0.3-0.3,0.4c1.4,0,2.9,0,4.3,0c-0.1-0.1-0.2-0.3-0.3-0.4
	c-0.7,2.1-1.5,4.2-2.2,6.3c-0.1,0.4,0.5,0.5,0.6,0.2c0.7-2.1,1.5-4.2,2.2-6.3c0.1-0.2-0.1-0.4-0.3-0.4c-1.4,0-2.9,0-4.3,0
	c-0.2,0-0.4,0.2-0.3,0.4c0.7,2.1,1.4,4.2,2.1,6.3C6.8,38,7.4,37.8,7.3,37.4L7.3,37.4z"/>
<polygon fill-rule="evenodd" clip-rule="evenodd" points="8.3,28.7 8.3,28.4 8.2,28.2 8.1,27.9 7.9,27.8 7.8,27.6 7.5,27.5 
	7.3,27.5 7,27.4 6.8,27.5 6.5,27.5 6.3,27.6 6.2,27.8 6,27.9 5.9,28.2 5.8,28.4 5.8,28.7 5.8,28.9 5.9,29.2 6,29.4 6.2,29.6 
	6.3,29.7 6.5,29.8 6.8,29.9 7,29.9 7.3,29.9 7.5,29.8 7.8,29.7 7.9,29.6 8.1,29.4 8.2,29.2 8.3,28.9 8.3,28.7 "/>
<path d="M8.6,28.7c0-0.5-0.1-0.9-0.6-1.1c0.1,0.1,0.1,0.1,0,0c0-0.1-0.1-0.1-0.1-0.2c-0.1-0.1-0.2-0.1-0.3-0.2
	c-0.2-0.1-0.4-0.1-0.6-0.1c-0.1,0-0.2,0-0.3,0c-0.1,0-0.1,0.1-0.2,0.1c0.2-0.1,0,0-0.1,0c-0.2,0-0.5,0.1-0.5,0.3
	C6,27.5,6,27.6,6,27.6c0.1-0.1,0,0-0.1,0c-0.1,0.1-0.2,0.1-0.2,0.2c-0.1,0.2-0.2,0.4-0.2,0.6c0,0.4,0.1,0.9,0.4,1.2
	c0.3,0.3,0.7,0.6,1.1,0.6c0.4,0,0.8-0.1,1.1-0.4C8.4,29.5,8.6,29.2,8.6,28.7c0-0.4-0.6-0.4-0.6,0c0,0.1,0,0.1,0,0.2
	c0-0.2,0,0-0.1,0.1c-0.1,0.2-0.1,0.2-0.3,0.4c-0.1,0.1-0.2,0.1-0.3,0.2c-0.1,0-0.1,0.1-0.2,0.1c0.1,0,0.1,0,0,0c-0.1,0-0.2,0-0.3,0
	c-0.1,0-0.2-0.1-0.1,0c-0.1,0-0.1-0.1-0.2-0.1c-0.2-0.1-0.2-0.2-0.4-0.3C6.2,29.1,6.1,29,6,28.8c0.1,0.2,0,0,0-0.1
	c0-0.1,0-0.2,0-0.3c0,0.2,0,0,0.1-0.1c0-0.1,0.1-0.1,0.1-0.2c-0.1,0.1,0,0,0.1,0c0.1,0,0.1-0.1,0.2-0.2c0.1-0.1,0.1-0.1,0,0
	c0.1,0,0.1-0.1,0.2-0.1c-0.2,0.1,0,0,0.1,0c0.1,0,0.2-0.1,0.3-0.1c0.2-0.1-0.3-0.1,0,0c0.2,0.1,0.3,0.1,0.4,0.1c-0.1,0-0.1,0,0,0
	c0.1,0.1,0.1,0.1,0,0c0,0.1,0.1,0.2,0.1,0.3c0.1,0.1,0.2,0.1,0.3,0.1c-0.1-0.1,0,0,0,0.1C8,28.4,8,28.6,8,28.4c0,0.1,0,0.2,0,0.3
	C8,29.1,8.6,29.1,8.6,28.7z"/>
<rect id="_x3C_Slice_x3E__101_" y="59.3" fill="none" width="31.3" height="34.9"/>
<rect id="_x3C_Slice_x3E__100_" fill="none" width="31.3" height="59.3"/>
</svg>
