<?xml version="1.0" encoding="utf-8"?>
<!-- Generator: Adobe Illustrator 15.0.2, SVG Export Plug-In  -->
<!DOCTYPE svg PUBLIC "-//W3C//DTD SVG 1.1//EN" "http://www.w3.org/Graphics/SVG/1.1/DTD/svg11.dtd" [
	<!ENTITY ns_flows "http://ns.adobe.com/Flows/1.0/">
]>
<svg version="1.1"
	 xmlns="http://www.w3.org/2000/svg" xmlns:xlink="http://www.w3.org/1999/xlink" xmlns:a="http://ns.adobe.com/AdobeSVGViewerExtensions/3.0/"
	 x="0px" y="0px" width="48px" height="63px" viewBox="0 0.9 48 63" overflow="visible" enable-background="new 0 0.9 48 63"
	 xml:space="preserve">
<defs>
</defs>
<polygon fill-rule="evenodd" clip-rule="evenodd" points="23.3,33.1 23.3,32.9 23.2,32.6 23.1,32.4 22.9,32.2 22.8,32.1 22.5,32 
	22.3,31.9 22.1,31.9 21.8,31.9 21.5,32 21.3,32.1 21.2,32.2 21,32.4 20.9,32.6 20.8,32.9 20.8,33.1 20.8,33.3 20.9,33.5 21,33.8 
	21.2,34 21.3,34.1 21.5,34.2 21.8,34.3 22.1,34.3 22.3,34.3 22.5,34.2 22.8,34.1 22.9,34 23.1,33.8 23.2,33.5 23.3,33.3 23.3,33.1 
	"/>
<path d="M23.6,33.1c0-0.8-0.7-1.5-1.5-1.5c-0.8,0-1.6,0.7-1.6,1.5c0,0.8,0.8,1.5,1.6,1.5C22.9,34.6,23.6,33.9,23.6,33.1
	c0-0.4-0.6-0.4-0.6,0c0,0.1,0,0.1,0,0.2c0-0.2,0,0-0.1,0.1c-0.1,0.2-0.1,0.2-0.3,0.4c-0.1,0.1-0.2,0.1-0.3,0.2
	c-0.1,0-0.1,0.1-0.2,0.1c0.2-0.1,0,0-0.1,0c-0.1,0-0.1,0-0.2,0c-0.1,0-0.1,0,0,0c-0.1,0-0.1-0.1-0.2-0.1c-0.1-0.1-0.2-0.1-0.3-0.2
	c-0.1-0.1-0.2-0.2-0.3-0.3c0-0.1-0.1-0.1-0.1-0.2c0.1,0.2,0,0,0-0.1c0-0.1,0-0.1,0-0.2c0,0.2,0,0,0.1-0.1c0.1-0.2,0.1-0.2,0.3-0.4
	c0.1-0.1,0.2-0.1,0.3-0.2c0.1,0,0.1-0.1,0.2-0.1c-0.2,0.1,0.1,0,0.2,0c0,0,0.1,0,0.1,0c0.1,0,0.1,0,0,0c0.1,0,0.1,0.1,0.2,0.1
	c0.1,0.1,0.2,0.1,0.3,0.2c0.1,0.1,0.2,0.2,0.3,0.3c0,0.1,0.1,0.1,0.1,0.2c-0.1-0.2,0,0,0,0.1C23,33.5,23.6,33.5,23.6,33.1z"/>
<polygon fill-rule="evenodd" clip-rule="evenodd" points="21.5,38.2 21.8,38.1 22,37.9 22.2,37.6 22.3,37.4 22.3,37.3 22.3,37.1 
	22.2,37.1 22,37.1 21.6,37 21.5,37 21.4,36.9 21.4,36.9 21.3,36.8 21.3,36.5 21.3,36.4 21.3,36.3 21.5,36.1 21.6,36 22,36 22.1,36 
	22.3,36.1 22.4,36.1 22.5,36.3 22.6,36.4 22.6,36.5 22.8,36.8 22.8,36.9 22.8,37.1 22.8,37.3 22.6,37.4 22.5,37.6 22.4,37.9 
	22.2,38.1 21.9,38.3 21.6,38.4 21.5,38.2 "/>
<path d="M21.7,38.5c0.3-0.1,0.5-0.4,0.7-0.6c0.2-0.2,0.2-0.5,0.2-0.8c0-0.2-0.1-0.3-0.3-0.3c-0.3,0-0.3,0-0.6-0.1
	c-0.3-0.1,0.1,0.2-0.1-0.1c-0.2-0.2,0,0.3,0,0c0-0.1,0-0.1,0-0.2c0-0.2,0-0.1-0.1,0c0.1-0.1,0.1-0.1,0.2-0.2c0.2-0.2-0.2,0,0.1,0
	c0.1,0,0.1,0,0.2,0c0.2,0-0.1-0.1,0.1,0c0.1,0.1,0.2,0.1,0.4,0.1c-0.1-0.1-0.2-0.1-0.3-0.2c0.1,0.1,0.1,0.2,0.2,0.3
	c0.2,0.2,0-0.2,0,0c0,0.1,0,0.1,0.1,0.2c0,0.1,0.1,0.2,0.1,0.1c0,0.1,0,0.1,0,0.2c0,0,0,0.1,0,0.1c0,0.2-0.1,0.1,0.1,0
	c-0.2,0.2-0.2,0.5-0.4,0.6c-0.2,0.2-0.4,0.3-0.6,0.4c0.1,0,0.3,0.1,0.4,0.1c0-0.1-0.1-0.1-0.1-0.2c-0.2-0.4-0.7,0-0.5,0.3
	c0,0.1,0.1,0.1,0.1,0.2c0.1,0.2,0.3,0.2,0.4,0.1c0.2-0.1,0.5-0.3,0.7-0.5c0.2-0.2,0.3-0.5,0.5-0.7c0.1-0.1,0.1-0.7,0.1-0.9
	c0-0.1-0.1-0.1-0.1-0.2c-0.1-0.2,0,0.1,0-0.1c0-0.1-0.2-0.3-0.3-0.4c0-0.1-0.2-0.2-0.3-0.2c-0.2,0,0.1,0.1-0.1,0
	c-0.1,0-0.2-0.1-0.3-0.1c-0.1,0-0.3,0-0.4,0c-0.3,0-0.6,0.5-0.6,0.8c0,0.3,0,0.6,0.4,0.8c0.2,0.1,0.6,0.2,0.9,0.2
	c-0.1-0.1-0.2-0.2-0.3-0.3c0,0.1,0,0.2,0,0.3c0-0.1,0-0.1,0,0c-0.1,0.1,0,0-0.1,0.1c-0.2,0.2-0.3,0.3-0.5,0.4
	C21,38.1,21.3,38.7,21.7,38.5z"/>
<rect id="_x3C_Slice_x3E__101_" y="63.3" fill="none" width="48.2" height="50.2"/>
<rect id="_x3C_Slice_x3E__100_" fill="none" width="48.2" height="63.3"/>
</svg>
