<?xml version="1.0" encoding="utf-8"?>
<!-- Generator: Adobe Illustrator 15.0.2, SVG Export Plug-In  -->
<!DOCTYPE svg PUBLIC "-//W3C//DTD SVG 1.1//EN" "http://www.w3.org/Graphics/SVG/1.1/DTD/svg11.dtd" [
	<!ENTITY ns_flows "http://ns.adobe.com/Flows/1.0/">
]>
<svg version="1.1"
	 xmlns="http://www.w3.org/2000/svg" xmlns:xlink="http://www.w3.org/1999/xlink" xmlns:a="http://ns.adobe.com/AdobeSVGViewerExtensions/3.0/"
	 x="0px" y="0px" width="51px" height="63px" viewBox="60.5 0.9 51 63" overflow="visible" enable-background="new 60.5 0.9 51 63"
	 xml:space="preserve">
<defs>
</defs>
<path d="M84.2,33.5c0.7,1.1,1,3.5-1.1,3.5c-2.1,0-4-2.8-5.6-4c-1.3-1-2.6-0.1-3.5,0.8c-0.9,0.9,0,2.6,0.5,3.4c0.2,0.3,0.7,0,0.5-0.3
	c-0.7-1.2-1.1-3,0.5-3.5c1.9-0.6,4.1,2.1,5.3,3.3c1.2,1.2,3,1.3,4.2,0.1c1-1,0.4-2.6-0.2-3.6C84.5,32.8,84,33.1,84.2,33.5L84.2,33.5
	z"/>
<polygon fill-rule="evenodd" clip-rule="evenodd" points="75.6,36.2 75.9,36 76.1,35.8 76.2,35.5 76.3,35.3 76.3,35.2 76.3,35.1 
	76.2,35 76,35 75.8,35 75.7,34.9 75.6,34.9 75.5,34.8 75.5,34.6 75.5,34.4 75.5,34.3 75.5,34.2 75.6,34.1 75.8,34 76,33.9 
	76.2,33.9 76.3,34 76.5,34.1 76.6,34.2 76.7,34.3 76.8,34.5 76.8,34.6 76.9,34.9 76.8,35 76.8,35.2 76.7,35.4 76.7,35.5 76.5,35.8 
	76.2,36 76,36.2 75.7,36.4 75.6,36.2 "/>
<path d="M75.7,36.5c0.4-0.2,0.9-0.7,0.9-1.2c0-0.3,0-0.6-0.3-0.6c-0.1,0-0.2,0-0.3,0c-0.2,0-0.1-0.1,0,0.1c0,0-0.1-0.1-0.1-0.1
	c-0.1,0-0.1,0-0.2,0c0.1,0,0.1,0,0.1,0.1c0-0.1,0-0.2,0-0.3c0-0.2,0-0.1-0.1,0c0.1-0.1,0,0,0.1-0.1c0,0,0.1,0,0.1-0.1
	c0.1,0,0.2-0.1,0.1-0.1c0.2,0,0.1,0.1,0-0.1c0,0,0.1,0.1,0.1,0.1c0.1,0.1,0.1,0.1,0.2,0.2c0.1,0.1,0,0,0.1,0.1c0.1,0.2,0-0.1,0,0.1
	c0,0.1,0.1,0.3,0.2,0.4c0-0.1,0-0.3,0-0.4c-0.2,0.2-0.2,0.3-0.2,0.5c0-0.2,0,0-0.1,0.1c0,0,0,0.1,0,0.2c0,0.2,0.2-0.2,0,0
	c-0.3,0.3-0.5,0.5-0.9,0.8c0.1,0,0.3,0.1,0.4,0.1c0-0.1-0.1-0.1-0.1-0.2c-0.2-0.4-0.7,0-0.5,0.3c0,0.1,0.1,0.1,0.1,0.2
	c0.1,0.1,0.3,0.2,0.4,0.1c0.3-0.2,0.6-0.5,0.9-0.8c0.1-0.1,0.1-0.1,0.2-0.2c0,0,0-0.1,0-0.2c0-0.2-0.1,0.1,0-0.1
	c0-0.1,0.1-0.2,0.1-0.3c0-0.3-0.2,0.1,0-0.1c0.1-0.1,0.1-0.3,0-0.4c0-0.1-0.1-0.1-0.1-0.2c0.1,0.2,0,0,0-0.1c0-0.1-0.1-0.3-0.2-0.4
	c-0.2-0.2-0.3-0.4-0.5-0.5c-0.3-0.1-0.6,0-0.8,0.1c-0.3,0.1-0.5,0.3-0.5,0.6c0,0.3,0,0.5,0.2,0.7c0.1,0.1,0.1,0.1,0.2,0.1
	c0.2,0-0.2-0.2,0,0c0.1,0.1,0.3,0.1,0.4,0.1c0,0,0.1,0,0.1,0c0.2,0-0.2-0.2,0,0c-0.1-0.1-0.1-0.2-0.1,0c0-0.1,0,0-0.1,0.1
	c-0.1,0.3-0.3,0.4-0.6,0.6C75.1,36.2,75.4,36.7,75.7,36.5z"/>
<polygon fill-rule="evenodd" clip-rule="evenodd" points="82.3,36.2 82.6,36 82.9,35.8 83,35.5 83.1,35.3 83.1,35.2 83.1,35.1 
	83,35 82.8,35 82.6,35 82.5,34.9 82.3,34.9 82.2,34.8 82.2,34.6 82.1,34.4 82.2,34.3 82.2,34.2 82.3,34.1 82.6,34 82.8,33.9 
	83,33.9 83.1,34 83.2,34.1 83.3,34.2 83.5,34.3 83.6,34.5 83.6,34.6 83.6,34.9 83.6,35 83.6,35.2 83.5,35.4 83.3,35.5 83.2,35.8 
	83,36 82.8,36.2 82.5,36.4 82.3,36.2 "/>
<path d="M82.6,36.4c0.2-0.2,0.5-0.3,0.7-0.6c0.1-0.3,0.4-0.7,0.1-0.9c-0.1-0.1-0.2-0.2-0.4-0.2c-0.1,0-0.1,0-0.2,0
	c-0.3,0,0.1,0.1,0,0c0,0-0.1-0.1-0.2-0.1c-0.3-0.1,0.1,0.2-0.1,0c0,0.2,0.1,0.2,0.1,0.1c0-0.1,0-0.1,0-0.2c0-0.1-0.1-0.1-0.1-0.2
	c0,0.1,0,0.3,0,0.4c0.1-0.1,0.1-0.1,0.2-0.2c0,0,0-0.1,0-0.2c0-0.1,0-0.1-0.1,0.1c0.1-0.1,0.1-0.1,0.2-0.1c0.1,0,0.3-0.1,0.1-0.1
	c0.3,0-0.1-0.1,0,0c0,0,0.1,0.1,0.1,0.1c0,0,0.1,0.1,0.1,0.1c0.1,0.1,0.1,0.3,0.1,0.1c0,0.1,0,0.3,0,0.4c0,0.2,0.1,0,0,0.1
	c0,0.1-0.1,0.1-0.2,0.2c-0.2,0.3-0.5,0.6-0.8,0.8c0.1,0,0.3,0.1,0.4,0.1c0-0.1-0.1-0.1-0.1-0.2c-0.2-0.4-0.7,0-0.5,0.3
	c0,0.1,0.1,0.1,0.1,0.2c0.1,0.1,0.3,0.2,0.4,0.1c0.2-0.1,0.4-0.3,0.6-0.5c0.1-0.1,0.3-0.4,0.4-0.5c0.3-0.3,0.4-1,0.2-1.3
	c-0.2-0.3-0.5-0.8-0.9-0.8c-0.3,0-0.5,0.1-0.7,0.2C82.1,33.9,82,34,82,34c0,0.1,0,0.1,0,0.2c0-0.2,0.1-0.2,0-0.1
	c-0.1,0.1-0.1,0.3,0,0.4c0,0.1,0.1,0.1,0.1,0.2c-0.1-0.2,0,0,0,0.1c0,0.1,0.2,0.3,0.3,0.3c0.2,0.1,0.1,0,0-0.1c0,0,0.1,0.1,0.1,0.1
	c0.1,0.1,0.3,0,0.4,0c0.2,0,0.1,0.1,0-0.1c0.2,0.2,0-0.2,0,0c0,0.2,0.1-0.1,0,0.1c0,0.1-0.1,0.1-0.1,0.2c-0.1,0.2,0.1-0.1,0,0.1
	c-0.1,0-0.1,0.1-0.2,0.1c-0.1,0.1-0.2,0.2-0.3,0.3C81.8,36.3,82.3,36.7,82.6,36.4z"/>
<rect id="_x3C_Slice_x3E__103_" y="63.3" fill="none" width="61.3" height="50.2"/>
<rect id="_x3C_Slice_x3E__102_" x="61.3" y="63.3" fill="none" width="50.2" height="50.2"/>
<rect id="_x3C_Slice_x3E__101_" fill="none" width="61.3" height="63.3"/>
<rect id="_x3C_Slice_x3E__100_" x="61.3" fill="none" width="50.2" height="63.3"/>
</svg>
