<?xml version="1.0" encoding="utf-8"?>
<!-- Generator: Adobe Illustrator 15.0.2, SVG Export Plug-In  -->
<!DOCTYPE svg PUBLIC "-//W3C//DTD SVG 1.1//EN" "http://www.w3.org/Graphics/SVG/1.1/DTD/svg11.dtd" [
	<!ENTITY ns_flows "http://ns.adobe.com/Flows/1.0/">
]>
<svg version="1.1"
	 xmlns="http://www.w3.org/2000/svg" xmlns:xlink="http://www.w3.org/1999/xlink" xmlns:a="http://ns.adobe.com/AdobeSVGViewerExtensions/3.0/"
	 x="0px" y="0px" width="58px" height="50px" viewBox="53.7 0.3 58 50" overflow="visible" enable-background="new 53.7 0.3 58 50"
	 xml:space="preserve">
<defs>
</defs>
<path d="M78,21.2c0,3.6,0,7.2,0,10.8c0,0.4,0.6,0.4,0.6,0c0-3.6,0-7.2,0-10.8C78.6,20.8,78,20.8,78,21.2L78,21.2z"/>
<path d="M82.1,31.1c1.1,0.8,2,1.2,3.2,0.6c0.9-0.4,2.2-2.7,1.3-3.6c-0.6-0.6-0.9-1.3-1.6-1.8c-0.8-0.6-1.9-0.9-2.4-1.8
	c-1-1.9,2-3.5,3.2-1.8c0.2,0.3,0.8,0,0.5-0.3c-2.2-3.3-6.7,1.7-3.3,3.4c1.8,0.9,3.9,2.4,2.8,4.6c-0.7,1.5-2.3,1-3.4,0.2
	C82.1,30.3,81.8,30.9,82.1,31.1L82.1,31.1z"/>
<polygon fill-rule="evenodd" clip-rule="evenodd" points="89.1,26.1 88.1,25.6 87.5,25.3 87.3,25.2 87.2,25.1 87.1,25.2 87.1,25.2 
	87.1,25.3 87.2,25.4 87.3,25.6 87.4,25.7 87.4,25.9 87.4,26.1 87.4,26.2 87.4,26.4 87.3,26.5 87.2,26.6 87.1,26.9 87.1,26.9 
	87.1,27 87.2,27 87.3,27 87.5,26.7 88.1,26.5 89.1,26.1 "/>
<path d="M89.2,25.8c-0.3-0.1-0.7-0.3-1-0.4c-0.3-0.1-0.7-0.3-0.8-0.5c-0.1-0.1-0.3-0.1-0.4,0c-0.4,0.4-0.1,0.8,0.2,1.1
	c0-0.1-0.1-0.1-0.1-0.2c0,0.2,0,0.4,0,0.7c0-0.1,0.1-0.1,0.1-0.2c-0.2,0.2-0.4,0.4-0.4,0.8c0,0.2,0.1,0.3,0.3,0.3
	c0.2,0,0.4,0,0.6-0.2c0.1-0.1,0.2-0.1,0,0c0,0,0.1,0,0.1-0.1c0.1,0,0.2-0.1,0.4-0.1c0.4-0.2,0.7-0.3,1.1-0.5c0.4-0.2,0-0.7-0.3-0.5
	c-0.3,0.1-0.7,0.3-1,0.4c0.1-0.1-0.1,0-0.1,0.1c-0.1,0-0.2,0.1-0.3,0.1c-0.2,0.1-0.3,0.2-0.4,0.3c0.1,0,0.1-0.1,0.2-0.1
	c-0.1,0-0.1,0-0.2,0c0.1,0.1,0.2,0.2,0.3,0.3c0-0.2-0.1,0.1,0-0.1c0-0.1,0.1-0.1,0.2-0.2c0.2-0.2,0.1-0.4,0.1-0.6c0-0.2,0-0.4,0-0.5
	c-0.1-0.2-0.2-0.4-0.4-0.5c0,0.1,0.1,0.1,0.1,0.2c0,0,0-0.1,0-0.1c0,0.1-0.1,0.1-0.1,0.2c0,0,0.1-0.1,0.1-0.1c-0.1,0-0.3,0-0.4,0
	c0.3,0.3,0.6,0.4,0.9,0.6c0.3,0.2,0.7,0.3,1,0.5C89.3,26.5,89.6,26,89.2,25.8z"/>
<path d="M87.4,25.8c-2.6,0-5.2,0-7.8,0c-0.4,0-0.4,0.6,0,0.6c2.6,0,5.2,0,7.8,0C87.8,26.4,87.8,25.8,87.4,25.8L87.4,25.8z"/>
<rect id="_x3C_Slice_x3E__103_" y="50.2" fill="none" width="54.2" height="49.2"/>
<rect id="_x3C_Slice_x3E__102_" x="54.2" y="50.2" fill="none" width="58.3" height="49.2"/>
<rect id="_x3C_Slice_x3E__101_" fill="none" width="54.2" height="50.2"/>
<rect id="_x3C_Slice_x3E__100_" x="54.2" fill="none" width="58.3" height="50.2"/>
</svg>
