<?xml version="1.0" encoding="utf-8"?>
<!-- Generator: Adobe Illustrator 15.0.2, SVG Export Plug-In  -->
<!DOCTYPE svg PUBLIC "-//W3C//DTD SVG 1.1//EN" "http://www.w3.org/Graphics/SVG/1.1/DTD/svg11.dtd" [
	<!ENTITY ns_flows "http://ns.adobe.com/Flows/1.0/">
]>
<svg version="1.1"
	 xmlns="http://www.w3.org/2000/svg" xmlns:xlink="http://www.w3.org/1999/xlink" xmlns:a="http://ns.adobe.com/AdobeSVGViewerExtensions/3.0/"
	 x="0px" y="0px" width="48px" height="35px" viewBox="0 0 48 35" overflow="visible" enable-background="new 0 0 48 35"
	 xml:space="preserve">
<defs>
</defs>
<path d="M23.2,11.7c-3.5,0.9-3.5-3.8-0.6-3.8c0.8,0,1.4,0.8,0.5,1.3c-1.1,0.6-2.8-0.6-2.8-1.8c0-1.2,1.4-2.4,2.5-2
	c1.1,0.4,0.7,1.3-0.3,1.3c-2.9,0-2.9-4.7,0.6-3.8c0.4,0.1,0.6-0.5,0.2-0.6c-1.3-0.3-2.8,0-3.4,1.3c-0.6,1.2,0.2,2.5,1.1,3.4
	c1.5,1.5,4.6-0.9,2.5-1.9c-2-1-5.2,1.8-3.4,3.6c1,1,2,1.7,3.5,1C24.8,9,24.1,8,23.5,7.4c-0.4-0.4-1.4-0.2-1.9-0.1
	c-1.1,0.3-1.6,1.5-1.8,2.4c-0.5,2,2,2.9,3.5,2.5C23.8,12.2,23.6,11.6,23.2,11.7L23.2,11.7z"/>
<rect id="_x3C_Slice_x3E__101_" y="34.2" fill="none" width="48.2" height="54.2"/>
<rect id="_x3C_Slice_x3E__100_" fill="none" width="48.2" height="34.2"/>
</svg>
