<?xml version="1.0" encoding="utf-8"?>
<!-- Generator: Adobe Illustrator 15.0.2, SVG Export Plug-In  -->
<!DOCTYPE svg PUBLIC "-//W3C//DTD SVG 1.1//EN" "http://www.w3.org/Graphics/SVG/1.1/DTD/svg11.dtd" [
	<!ENTITY ns_flows "http://ns.adobe.com/Flows/1.0/">
]>
<svg version="1.1"
	 xmlns="http://www.w3.org/2000/svg" xmlns:xlink="http://www.w3.org/1999/xlink" xmlns:a="http://ns.adobe.com/AdobeSVGViewerExtensions/3.0/"
	 x="0px" y="0px" width="48px" height="54px" viewBox="0 0.8 48 54" overflow="visible" enable-background="new 0 0.8 48 54"
	 xml:space="preserve">
<defs>
</defs>
<path d="M19,23.1c0.8,0.4,2.2,1.6,3,1.6c0.8,0,2.2-1.2,2.9-1.6c-0.2-0.1-0.3-0.2-0.5-0.4c-0.9,2.8-1.9,5.6-2.8,8.3
	c0.2,0,0.4,0,0.6,0c-1-2.8-1.9-5.6-2.9-8.3c-0.1-0.4-0.7-0.2-0.6,0.2c1,2.8,1.9,5.6,2.9,8.3c0.1,0.3,0.5,0.3,0.6,0
	c0.9-2.8,1.9-5.6,2.8-8.3c0.1-0.3-0.2-0.5-0.5-0.4c-0.9,0.5-1.8,1-2.7,1.5c0.2-0.1,0.3,0,0-0.1c-0.3-0.2-0.7-0.4-1-0.5
	c-0.5-0.3-1.1-0.6-1.6-0.9C19,22.4,18.7,23,19,23.1L19,23.1z"/>
<rect id="_x3C_Slice_x3E__101_" y="54.2" fill="none" width="48.2" height="54.2"/>
<rect id="_x3C_Slice_x3E__100_" fill="none" width="48.2" height="54.2"/>
</svg>
