<?xml version="1.0" encoding="utf-8"?>
<!-- Generator: Adobe Illustrator 15.0.2, SVG Export Plug-In  -->
<!DOCTYPE svg PUBLIC "-//W3C//DTD SVG 1.1//EN" "http://www.w3.org/Graphics/SVG/1.1/DTD/svg11.dtd" [
	<!ENTITY ns_flows "http://ns.adobe.com/Flows/1.0/">
]>
<svg version="1.1"
	 xmlns="http://www.w3.org/2000/svg" xmlns:xlink="http://www.w3.org/1999/xlink" xmlns:a="http://ns.adobe.com/AdobeSVGViewerExtensions/3.0/"
	 x="0px" y="0px" width="35px" height="50px" viewBox="48 0.1 35 50" overflow="visible" enable-background="new 48 0.1 35 50"
	 xml:space="preserve">
<defs>
</defs>
<path d="M81.3,33.3c-3.5,0-7,0-10.6,0c-0.4,0-0.4,0.6,0,0.6c3.5,0,7,0,10.6,0C81.7,34,81.7,33.3,81.3,33.3L81.3,33.3z"/>
<path d="M81.3,30.1c-3.5,0-7,0-10.6,0c-0.4,0-0.4,0.6,0,0.6c3.5,0,7,0,10.6,0C81.7,30.7,81.7,30.1,81.3,30.1L81.3,30.1z"/>
<path d="M81.3,26.8c-0.4,0-0.8,0-1.2,0c-0.1,0-0.2,0.1-0.3,0.2C79.2,28,78.6,29,78,30c-0.3,0.6-1.6,3.3-2,3.3
	c-0.3,0-1.5-2.4-1.8-2.9c-0.7-1.2-1.3-2.3-2-3.5c-0.1-0.1-0.2-0.2-0.3-0.2c-0.4,0-0.8,0-1.2,0c-0.4,0-0.4,0.6,0,0.6
	c0.7,0,1-0.1,1.1,0.1c0.4,0.7,0.8,1.4,1.2,2.2c0.8,1.4,1.6,2.8,2.4,4.2c0.1,0.1,0.2,0.2,0.3,0.2c0.2,0,0.4,0,0.6,0
	c0.1,0,0.2-0.1,0.3-0.2c0.7-1.3,1.5-2.5,2.2-3.8c0.5-0.8,0.9-1.6,1.4-2.3c0.2-0.4,0.2-0.2,0.1-0.2c0.4,0,0.7,0,1.1,0
	C81.7,27.4,81.7,26.8,81.3,26.8L81.3,26.8z"/>
<polygon fill-rule="evenodd" clip-rule="evenodd" points="73.9,30.4 78.2,30.4 76.3,33.6 75.8,33.6 73.9,30.4 "/>
<path d="M73.9,30.7c1.4,0,2.9,0,4.3,0c-0.1-0.2-0.2-0.3-0.3-0.5c-0.3,0.6-0.7,1.1-1,1.7c-0.2,0.4-0.4,0.7-0.6,1.1
	c-0.1,0.1-0.1,0.2-0.2,0.3c-0.2,0.3,0.3,0,0,0c-0.4,0-0.2,0-0.1,0.1c0-0.1-0.1-0.2-0.1-0.2c-0.2-0.4-0.4-0.7-0.7-1.1
	c-0.4-0.6-0.7-1.2-1.1-1.8c-0.2-0.3-0.7,0-0.5,0.3c0.4,0.7,0.8,1.3,1.2,2C75,33,75.3,34,76,34c0.8,0,0.9-0.6,1.3-1.3
	c0.4-0.7,0.8-1.4,1.2-2.1c0.1-0.2,0-0.5-0.3-0.5c-1.4,0-2.9,0-4.3,0C73.5,30.1,73.5,30.7,73.9,30.7z"/>
<path d="M81.3,26.8c-3.5,0-7,0-10.6,0c-0.4,0-0.4,0.6,0,0.6c3.5,0,7,0,10.6,0C81.7,27.4,81.7,26.8,81.3,26.8L81.3,26.8z"/>
<rect id="_x3C_Slice_x3E__103_" y="49.2" fill="none" width="48.2" height="63.3"/>
<rect id="_x3C_Slice_x3E__102_" x="48.2" y="49.2" fill="none" width="34.8" height="63.3"/>
<rect id="_x3C_Slice_x3E__101_" fill="none" width="48.2" height="49.2"/>
<rect id="_x3C_Slice_x3E__100_" x="48.2" fill="none" width="34.8" height="49.2"/>
</svg>
