<?xml version="1.0" encoding="utf-8"?>
<!-- Generator: Adobe Illustrator 15.0.2, SVG Export Plug-In  -->
<!DOCTYPE svg PUBLIC "-//W3C//DTD SVG 1.1//EN" "http://www.w3.org/Graphics/SVG/1.1/DTD/svg11.dtd" [
	<!ENTITY ns_flows "http://ns.adobe.com/Flows/1.0/">
]>
<svg version="1.1"
	 xmlns="http://www.w3.org/2000/svg" xmlns:xlink="http://www.w3.org/1999/xlink" xmlns:a="http://ns.adobe.com/AdobeSVGViewerExtensions/3.0/"
	 x="0px" y="0px" width="54px" height="50px" viewBox="31 0.3 54 50" overflow="visible" enable-background="new 31 0.3 54 50"
	 xml:space="preserve">
<defs>
</defs>
<path d="M58.8,31.1c1.3,0.8,2,1,3.4,0.3c1.4-0.7,1.4-2.9,0.7-4c-1-1.5-3.2-1.8-3.8-3.6c-0.3-0.9,1-2,1.8-2c0.7,0,1.2,0.3,1.7,0.8
	c0.3,0.3,0.7-0.2,0.4-0.4c-2.4-2.4-6.1,0.8-3.6,3.3c1.2,1.2,4,1.9,3.3,4.1c-0.6,1.9-2.1,1.9-3.5,0.9C58.8,30.4,58.5,30.9,58.8,31.1
	L58.8,31.1z"/>
<polygon fill-rule="evenodd" clip-rule="evenodd" points="65.8,26 64.8,25.5 64.2,25.3 64,25.1 63.9,25.1 63.8,25.1 63.8,25.2 
	63.8,25.2 63.9,25.3 64,25.5 64.1,25.6 64.1,25.9 64.1,26 64.1,26.2 64.1,26.3 64,26.4 63.9,26.6 63.8,26.7 63.8,26.9 63.8,26.9 
	63.9,27 64,26.9 64.2,26.7 64.8,26.4 65.8,26 "/>
<path d="M65.9,25.7c-0.4-0.2-0.7-0.3-1.1-0.5c-0.1,0-0.2-0.1-0.4-0.1c0,0-0.1,0-0.1-0.1c0.2,0.1,0.1,0,0,0c-0.2-0.2-0.3-0.2-0.6-0.2
	c-0.2,0-0.3,0.1-0.3,0.3c0,0.3,0.2,0.6,0.4,0.8c0-0.1-0.1-0.1-0.1-0.2c0,0.2,0,0.4,0,0.7c0-0.1,0.1-0.1,0.1-0.2
	c-0.3,0.3-0.6,0.7-0.2,1.1c0.1,0.1,0.3,0.1,0.4,0c0.2-0.2,0.6-0.3,0.8-0.5c0.3-0.2,0.7-0.3,1-0.4c0.4-0.2,0-0.7-0.3-0.5
	c-0.3,0.1-0.7,0.3-1,0.4c-0.3,0.1-0.7,0.4-1,0.6c0.1,0,0.3,0,0.4,0c0,0-0.1-0.1-0.1-0.1c0,0.1,0.1,0.1,0.1,0.2c0,0,0-0.1,0-0.1
	c0,0.1-0.1,0.1-0.1,0.2c0.1-0.1,0.2-0.3,0.3-0.4c0.1-0.1,0.1-0.4,0.1-0.6c0-0.2,0-0.4-0.1-0.6c-0.1-0.1-0.2-0.3-0.3-0.4
	c0,0.1,0.1,0.1,0.1,0.2c0,0,0-0.1,0-0.1c-0.1,0.1-0.2,0.2-0.3,0.3c0.1,0,0.1,0,0.2,0c-0.1,0-0.1-0.1-0.2-0.1
	c0.1,0.1,0.2,0.3,0.4,0.3c0.1,0,0.2,0.1,0.3,0.1c0,0,0.3,0.1,0.1,0.1c0.3,0.1,0.7,0.3,1,0.4C66,26.4,66.3,25.9,65.9,25.7z"/>
<path d="M64.1,25.7c-2.6,0-5.2,0-7.8,0c-0.4,0-0.4,0.6,0,0.6c2.6,0,5.2,0,7.8,0C64.5,26.3,64.5,25.7,64.1,25.7L64.1,25.7z"/>
<rect id="_x3C_Slice_x3E__103_" y="50.2" fill="none" width="31.3" height="49.2"/>
<rect id="_x3C_Slice_x3E__102_" x="31.3" y="50.2" fill="none" width="54.2" height="49.2"/>
<rect id="_x3C_Slice_x3E__101_" fill="none" width="31.3" height="50.2"/>
<rect id="_x3C_Slice_x3E__100_" x="31.3" fill="none" width="54.2" height="50.2"/>
</svg>
