<?xml version="1.0" encoding="utf-8"?>
<!-- Generator: Adobe Illustrator 15.0.2, SVG Export Plug-In  -->
<!DOCTYPE svg PUBLIC "-//W3C//DTD SVG 1.1//EN" "http://www.w3.org/Graphics/SVG/1.1/DTD/svg11.dtd" [
	<!ENTITY ns_flows "http://ns.adobe.com/Flows/1.0/">
]>
<svg version="1.1"
	 xmlns="http://www.w3.org/2000/svg" xmlns:xlink="http://www.w3.org/1999/xlink" xmlns:a="http://ns.adobe.com/AdobeSVGViewerExtensions/3.0/"
	 x="0px" y="0px" width="56px" height="50px" viewBox="48.9 0.6 56 50" overflow="visible" enable-background="new 48.9 0.6 56 50"
	 xml:space="preserve">
<defs>
</defs>
<polygon fill-rule="evenodd" clip-rule="evenodd" points="75.7,25.9 75.7,25.6 75.6,25.4 75.5,25.2 75.4,25 75.1,24.8 74.9,24.7 
	74.7,24.6 74.5,24.6 74.2,24.6 73.9,24.7 73.7,24.8 73.6,25 73.4,25.2 73.2,25.4 73.2,25.6 73.1,25.9 73.2,26.2 73.2,26.4 
	73.4,26.6 73.6,26.7 73.7,26.9 73.9,27 74.2,27.2 74.5,27.2 74.7,27.2 74.9,27 75.1,26.9 75.4,26.7 75.5,26.6 75.6,26.4 75.7,26.2 
	75.7,25.9 "/>
<path d="M76,25.9c0-0.9-0.7-1.6-1.6-1.6c-0.4,0-0.9,0.2-1.1,0.6c0.1-0.1,0.1-0.1,0,0c-0.1,0-0.1,0.1-0.2,0.1
	C73.1,25,73,25.1,73,25.2c-0.1,0.2-0.1,0.4-0.1,0.6c0,0.1,0,0.2,0.1,0.4c0,0.1,0.1,0.1,0,0c0,0.1,0,0.1,0,0.2c0,0.2,0.2,0.5,0.4,0.5
	c0.1,0.1,0.1,0.1,0,0c0,0.1,0.1,0.1,0.1,0.2c0.1,0.1,0.2,0.2,0.3,0.2c0.2,0.1,0.4,0.2,0.6,0.2c0.4,0,0.8-0.1,1.2-0.4
	C75.8,26.8,76,26.4,76,25.9c0-0.4-0.6-0.4-0.6,0c0,0.1,0,0.1,0,0.2c0-0.2,0,0-0.1,0.1c-0.1,0.1-0.1,0.2-0.3,0.3
	c-0.1,0.1-0.2,0.1-0.3,0.2c-0.1,0-0.1,0.1-0.2,0.1c0.1,0,0.1,0,0,0c-0.1,0-0.1,0-0.2,0c-0.1,0-0.3-0.1-0.3-0.1
	c-0.1,0-0.1-0.1-0.2-0.1c0.1,0.1,0.1,0.1,0,0c0-0.1-0.1-0.2-0.2-0.2c-0.1,0-0.2-0.2-0.1,0c0-0.1-0.1-0.1-0.1-0.2c0,0.1,0,0.1,0,0
	c0-0.1,0-0.2,0-0.3c0,0,0-0.1-0.1-0.1c-0.1-0.1-0.1-0.1,0,0.1c0-0.1,0.1-0.3,0.1-0.4c0-0.2-0.1,0,0-0.1c0.1-0.1,0.1-0.1,0,0
	c0.1,0,0.1,0,0.2-0.1c0.1,0,0.1-0.1,0.2-0.2c0-0.1,0.1-0.1,0.1-0.2c-0.1,0.1-0.1,0.1,0,0c0.1-0.1,0.3-0.1,0.4-0.1c0,0,0.1,0,0.1,0
	c0.2,0,0-0.1,0.1,0c0.2,0.1,0.3,0.1,0.4,0.3c0.1,0.1,0.2,0.2,0.3,0.3c0,0.1,0.1,0.3,0.1,0.1c0,0.1,0,0.2,0,0.3
	C75.4,26.3,76,26.3,76,25.9z"/>
<polygon fill-rule="evenodd" clip-rule="evenodd" points="78.1,30 78,29.7 78,29.5 77.9,29.3 77.7,29.2 77.6,28.9 77.4,28.8 
	77.1,28.8 76.8,28.7 76.6,28.8 76.4,28.8 76.1,28.9 75.9,29.2 75.8,29.3 75.7,29.5 75.6,29.7 75.6,30 75.6,30.3 75.7,30.5 
	75.8,30.7 75.9,30.9 76.1,31 76.4,31.2 76.6,31.3 76.8,31.3 77.1,31.3 77.4,31.2 77.6,31 77.7,30.9 77.9,30.7 78,30.5 78,30.3 
	78.1,30 "/>
<path d="M78.4,30c-0.1-0.3-0.1-0.8-0.5-1c-0.1-0.1-0.1-0.1,0,0c0-0.1-0.1-0.1-0.1-0.2c-0.1-0.1-0.2-0.2-0.3-0.2
	c-0.2-0.1-0.4-0.1-0.6-0.1c-0.1,0-0.2-0.1-0.3,0c0,0-0.1,0-0.1,0.1c-0.2,0.1,0.2,0-0.1,0c-0.2,0-0.4,0.1-0.6,0.2
	c-0.3,0.3-0.6,0.7-0.6,1.1c0,0.2,0,0.4,0,0.6c0.1,0.2,0.2,0.4,0.3,0.6c0.2,0.3,0.8,0.6,1.1,0.6c0.4,0,0.9-0.1,1.2-0.4
	c0.2-0.2,0.3-0.3,0.4-0.5c0.1-0.1,0.1-0.2,0.1-0.3c0-0.1,0-0.1,0,0c0-0.1,0.1-0.1,0.1-0.2c0.2-0.4-0.4-0.7-0.5-0.3
	c-0.1,0.1-0.2,0.3-0.2,0.4c0,0.2,0.1,0,0,0.1c0,0.1-0.1,0.1-0.2,0.2c-0.1,0.1-0.2,0.2-0.3,0.3c-0.1,0-0.3,0.1-0.1,0.1
	c-0.1,0-0.2,0-0.3,0c-0.1,0-0.3-0.1-0.1,0c-0.1,0-0.1-0.1-0.2-0.1s-0.1-0.1-0.2-0.1c-0.1,0-0.1-0.1-0.2-0.1c0.1,0.1,0.1,0.1,0,0
	c-0.1-0.1-0.1-0.3-0.2-0.4c-0.1-0.1,0,0.1,0-0.1c0-0.1,0-0.2,0-0.2c0-0.2-0.1,0.1,0-0.1c0-0.1,0.1-0.1,0.1-0.2
	c0.1-0.1,0.2-0.2,0.3-0.4c0,0,0.3,0,0.1,0c0.1,0,0.2,0,0.3,0c0.1,0,0.2-0.1,0.3-0.1c-0.2,0-0.2,0-0.1,0c0.1,0,0.1,0,0.2,0.1
	c0.1,0,0.1,0,0.2,0c0.2,0,0-0.1,0.1,0c0.1,0.1,0.1,0.1,0,0c0,0.1,0.1,0.1,0.1,0.2c0,0.1,0.1,0.1,0.2,0.2c0.1,0,0.1,0.1,0.2,0.1
	c-0.1-0.1-0.1-0.1,0,0c0.1,0.1,0-0.1,0,0.1c0,0.2,0.1,0.3,0.1,0.5C78,30.5,78.6,30.3,78.4,30z"/>
<polygon fill-rule="evenodd" clip-rule="evenodd" points="78.1,21.7 78,21.5 78,21.3 77.9,21 77.7,20.8 77.6,20.7 77.4,20.6 
	77.1,20.5 76.8,20.5 76.6,20.5 76.4,20.6 76.1,20.7 75.9,20.8 75.8,21 75.7,21.3 75.6,21.5 75.6,21.7 75.6,22 75.7,22.3 75.8,22.5 
	75.9,22.6 76.1,22.8 76.4,22.9 76.6,22.9 76.8,23 77.1,22.9 77.4,22.9 77.6,22.8 77.7,22.6 77.9,22.5 78,22.3 78,22 78.1,21.7 "/>
<path d="M78.4,21.6C78.4,21.5,78.3,21.3,78.4,21.6c-0.1-0.2-0.1-0.3-0.1-0.4c-0.1-0.2-0.2-0.3-0.4-0.5c-0.3-0.3-0.7-0.4-1.1-0.4
	c-0.3,0-1,0.2-1.1,0.5c-0.1,0.2-0.2,0.4-0.3,0.6c-0.1,0.2-0.1,0.4-0.1,0.6c0,0.4,0.3,0.8,0.6,1c0.1,0.1,0.4,0.3,0.6,0.3
	c0.1,0,0.1,0,0.2,0c-0.2,0,0,0,0.1,0.1c0.1,0,0.2,0.1,0.3,0c0.2-0.1,0.4,0,0.6-0.1c0.1,0,0.2-0.1,0.3-0.2c0,0,0.1-0.1,0.1-0.1
	c0-0.1,0.2-0.2,0-0.1c0.5-0.2,0.4-0.7,0.6-1.1c0.1-0.4-0.5-0.5-0.6-0.2c0,0.1-0.1,0.3-0.1,0.4c0,0.1-0.1,0.3,0,0.1
	c0,0.1-0.1,0.1-0.1,0.2c0.1-0.1,0.1-0.1,0,0c-0.1,0-0.2,0.1-0.2,0.2c0,0.1-0.2,0.2,0,0.1c-0.1,0-0.1,0.1-0.2,0.1c0.1,0,0.1,0,0,0
	c-0.1,0-0.1,0-0.2,0c-0.1,0-0.2,0.1-0.3,0.1c0.2,0,0.2,0,0.1,0c0,0-0.1,0-0.1-0.1c-0.1,0-0.2,0-0.3,0c-0.1,0-0.1,0,0,0
	c-0.1,0-0.1-0.1-0.2-0.1c0,0-0.2-0.2-0.3-0.3c0-0.1-0.1-0.1-0.1-0.2c0-0.1-0.1-0.1-0.1-0.2c0,0.1,0,0.1,0,0c0-0.1,0-0.1,0-0.2
	c0-0.1,0.1-0.3,0-0.1c0.1-0.1,0.1-0.3,0.2-0.4c0-0.1,0.1-0.1,0.1-0.2c-0.1,0.1-0.1,0.1,0,0c0.1,0,0.1-0.1,0.2-0.1
	c0.1,0,0.1-0.1,0.2-0.1c0.1-0.1-0.1,0,0.1,0c0.1,0,0.2,0,0.2,0c0.1,0,0.1,0,0,0c0.1,0,0.1,0.1,0.2,0.1c0.1,0.1,0.2,0.1,0.3,0.2
	c0,0,0.2,0.1,0.2,0.2c0,0.1,0.1,0.1,0.1,0.2c0-0.1,0-0.1,0,0c0,0.2,0.1,0.3,0.2,0.5C78,22.2,78.6,21.9,78.4,21.6z"/>
<polygon fill-rule="evenodd" clip-rule="evenodd" points="80.8,25.9 80.7,25.6 80.7,25.4 80.6,25.2 80.4,25 80.2,24.8 80,24.7 
	79.7,24.6 79.5,24.6 79.2,24.6 79,24.7 78.8,24.8 78.6,25 78.5,25.2 78.4,25.4 78.2,25.6 78.2,25.9 78.2,26.2 78.4,26.4 78.5,26.6 
	78.6,26.7 78.8,26.9 79,27 79.2,27.2 79.5,27.2 79.7,27.2 80,27 80.2,26.9 80.4,26.7 80.6,26.6 80.7,26.4 80.7,26.2 80.8,25.9 "/>
<path d="M81.1,25.8c-0.1-0.3-0.1-0.8-0.5-1c-0.1-0.1-0.1,0,0,0c0-0.1-0.1-0.1-0.1-0.2c-0.1-0.1-0.2-0.2-0.3-0.2
	c-0.2-0.1-0.4-0.2-0.6-0.2c-0.4,0-0.8,0.1-1.2,0.4c-0.3,0.3-0.6,0.7-0.6,1.1c0,0.8,0.7,1.7,1.5,1.7c0.4,0,0.9-0.1,1.1-0.5
	c0.1-0.1,0.1-0.1,0,0c0.1,0,0.1-0.1,0.2-0.1c0.1-0.1,0.2-0.2,0.2-0.3c0.1-0.1,0.1-0.2,0.1-0.3c0-0.1,0-0.1,0,0
	c0-0.1,0.1-0.1,0.1-0.2c0.2-0.4-0.4-0.7-0.5-0.3c-0.1,0.1-0.2,0.3-0.2,0.4c0,0.2,0.1,0,0,0.1c-0.1,0.1-0.1,0.1,0,0
	c-0.1,0-0.1,0.1-0.2,0.1c-0.1,0-0.1,0.1-0.2,0.2c0,0.1-0.1,0.1-0.1,0.2c0.1-0.1,0.1-0.1,0,0c-0.1,0.1-0.3,0.1-0.4,0.1
	c0,0-0.1,0-0.1,0c-0.2,0,0,0.1-0.1,0c-0.2-0.1-0.3-0.1-0.4-0.3c-0.1-0.1-0.2-0.2-0.3-0.3c0-0.1-0.1-0.3-0.1-0.1c0-0.1,0-0.1,0-0.2
	c0-0.1,0-0.2,0-0.3c0,0.2,0,0,0.1-0.1c0.1-0.2,0.1-0.2,0.3-0.3c0.1-0.1,0.2-0.2,0.4-0.3c0.1-0.1-0.1,0,0.1,0c0.1,0,0.1,0,0.2,0
	c0,0,0.3,0.1,0.3,0.1c0.1,0.1,0.1,0,0,0c0,0.1,0.1,0.1,0.1,0.2c0,0.1,0.1,0.1,0.2,0.2c0.1,0,0.1,0.1,0.2,0.1c-0.1-0.1-0.1-0.1,0,0
	c0.1,0.1,0-0.1,0,0.1c0,0.2,0.1,0.3,0.1,0.5C80.6,26.4,81.2,26.2,81.1,25.8z"/>
<rect id="_x3C_Slice_x3E__103_" y="50.2" fill="none" width="49.2" height="51.2"/>
<rect id="_x3C_Slice_x3E__102_" x="49.2" y="50.2" fill="none" width="56.2" height="51.2"/>
<rect id="_x3C_Slice_x3E__101_" fill="none" width="49.2" height="50.2"/>
<rect id="_x3C_Slice_x3E__100_" x="49.2" fill="none" width="56.2" height="50.2"/>
</svg>
