<?xml version="1.0" encoding="utf-8"?>
<!-- Generator: Adobe Illustrator 15.0.2, SVG Export Plug-In  -->
<!DOCTYPE svg PUBLIC "-//W3C//DTD SVG 1.1//EN" "http://www.w3.org/Graphics/SVG/1.1/DTD/svg11.dtd" [
	<!ENTITY ns_flows "http://ns.adobe.com/Flows/1.0/">
]>
<svg version="1.1"
	 xmlns="http://www.w3.org/2000/svg" xmlns:xlink="http://www.w3.org/1999/xlink" xmlns:a="http://ns.adobe.com/AdobeSVGViewerExtensions/3.0/"
	 x="0px" y="0px" width="61px" height="54px" viewBox="55.7 0.8 61 54" overflow="visible" enable-background="new 55.7 0.8 61 54"
	 xml:space="preserve">
<defs>
</defs>
<path d="M79.3,32.3c-1.6-3.1-1.8-7.4,0-10.5c0.2-0.3-0.3-0.7-0.5-0.3c-2,3.3-1.7,7.8,0,11.1C78.9,33,79.5,32.6,79.3,32.3L79.3,32.3z
	"/>
<path d="M84.8,32.6c1.7-3.5,1.7-7.6,0-11.1c-0.2-0.4-0.7,0-0.5,0.3c1.6,3.3,1.6,7.2,0,10.5C84,32.6,84.6,33,84.8,32.6L84.8,32.6z"/>
<polygon fill-rule="evenodd" clip-rule="evenodd" points="83,27.1 83,26.8 82.9,26.5 82.8,26.3 82.6,26.2 82.5,26 82.3,25.9 
	82,25.8 81.8,25.8 81.5,25.8 81.3,25.9 81,26 80.9,26.2 80.7,26.3 80.6,26.5 80.5,26.8 80.5,27.1 80.5,27.3 80.6,27.5 80.7,27.8 
	80.9,27.9 81,28.1 81.3,28.2 81.5,28.3 81.8,28.3 82,28.3 82.3,28.2 82.5,28.1 82.6,27.9 82.8,27.8 82.9,27.5 83,27.3 83,27.1 "/>
<path d="M83.3,27.1c0-0.5-0.1-0.9-0.6-1.1c0.1,0.1,0.1,0.1,0,0c0-0.1-0.1-0.1-0.1-0.2c-0.1-0.1-0.2-0.1-0.3-0.2
	c-0.2-0.1-0.4-0.2-0.6-0.2c-0.5,0-0.9,0.1-1.1,0.6c0.1-0.1,0.1-0.1,0,0c-0.1,0-0.1,0.1-0.2,0.1c-0.1,0.1-0.1,0.2-0.2,0.3
	c-0.1,0.2-0.2,0.4-0.2,0.7c0,0.4,0.2,0.9,0.6,1.1c-0.1-0.1-0.1-0.1,0,0c0,0.1,0.1,0.1,0.1,0.2c0.1,0.1,0.2,0.1,0.3,0.2
	c0.2,0.1,0.4,0.2,0.7,0.2c0.4,0,0.9-0.2,1.1-0.6c-0.1,0.1-0.1,0.1,0,0c0.1,0,0.1-0.1,0.2-0.1c0.1-0.1,0.1-0.2,0.2-0.3
	C83.3,27.5,83.3,27.3,83.3,27.1c0-0.4-0.6-0.4-0.6,0c0,0.1,0,0.1,0,0.2c0-0.2,0,0-0.1,0.1c0,0.1-0.2,0.2,0,0.1
	c-0.1,0-0.2,0.1-0.3,0.1c-0.1,0.1-0.1,0.2-0.1,0.3c0.1-0.1,0,0-0.1,0C82,28,81.8,28,82,28c-0.1,0-0.1,0-0.2,0c-0.1,0-0.2,0-0.3,0
	c0.2,0,0,0-0.1-0.1c-0.1,0-0.2-0.2-0.1,0c0-0.1-0.1-0.2-0.1-0.3c-0.1-0.1-0.2-0.1-0.3-0.1c0.1,0.1,0,0,0-0.1c0-0.1-0.1-0.3-0.1-0.1
	c0-0.1,0-0.1,0-0.2c0-0.1,0-0.2,0-0.3c0,0.2,0,0,0.1-0.1c0-0.1,0.2-0.2,0-0.1c0.1,0,0.2-0.1,0.3-0.1c0.1-0.1,0.1-0.2,0.1-0.3
	c-0.1,0.1,0,0,0.1,0c0.1,0,0.3-0.1,0.1-0.1c0.1,0,0.2,0,0.3,0c0.1,0,0.1,0,0.2,0c-0.2,0,0,0,0.1,0.1c0.1,0,0.2,0.2,0.1,0
	c0,0.1,0.1,0.2,0.1,0.3c0.1,0.1,0.2,0.1,0.3,0.1c-0.1-0.1,0,0,0,0.1c0,0.1,0.1,0.3,0.1,0.1c0,0.1,0,0.2,0,0.3
	C82.7,27.5,83.3,27.5,83.3,27.1z"/>
<rect id="_x3C_Slice_x3E__103_" y="54.2" fill="none" width="56.2" height="54.2"/>
<rect id="_x3C_Slice_x3E__102_" x="56.2" y="54.2" fill="none" width="61.3" height="54.2"/>
<rect id="_x3C_Slice_x3E__101_" fill="none" width="56.2" height="54.2"/>
<rect id="_x3C_Slice_x3E__100_" x="56.2" fill="none" width="61.3" height="54.2"/>
</svg>
