<?xml version="1.0" encoding="utf-8"?>
<!-- Generator: Adobe Illustrator 15.0.2, SVG Export Plug-In  -->
<!DOCTYPE svg PUBLIC "-//W3C//DTD SVG 1.1//EN" "http://www.w3.org/Graphics/SVG/1.1/DTD/svg11.dtd" [
	<!ENTITY ns_flows "http://ns.adobe.com/Flows/1.0/">
]>
<svg version="1.1"
	 xmlns="http://www.w3.org/2000/svg" xmlns:xlink="http://www.w3.org/1999/xlink" xmlns:a="http://ns.adobe.com/AdobeSVGViewerExtensions/3.0/"
	 x="0px" y="0px" width="49px" height="60px" viewBox="56.2 0.2 49 60" overflow="visible" enable-background="new 56.2 0.2 49 60"
	 xml:space="preserve">
<defs>
</defs>
<path d="M79.5,39.3c-0.7-2.1-1.4-4.1-2.1-6.2c-0.1,0.1-0.2,0.3-0.3,0.4c1.4,0,2.9,0,4.3,0c-0.1-0.1-0.2-0.3-0.3-0.4
	c-0.7,2.1-1.5,4.1-2.2,6.2c-0.1,0.4,0.5,0.5,0.6,0.2c0.7-2.1,1.5-4.1,2.2-6.2c0.1-0.2-0.1-0.4-0.3-0.4c-1.4,0-2.9,0-4.3,0
	c-0.2,0-0.4,0.2-0.3,0.4c0.7,2.1,1.4,4.1,2.1,6.2C79,39.8,79.6,39.7,79.5,39.3L79.5,39.3z"/>
<path d="M80.8,34.3c-1.1,0-2.1,0-3.2,0c-0.4,0-0.4,0.6,0,0.6c1.1,0,2.1,0,3.2,0C81.2,34.9,81.2,34.3,80.8,34.3L80.8,34.3z"/>
<polygon fill-rule="evenodd" clip-rule="evenodd" points="80.4,26.7 80.4,26.4 80.4,26.2 80.3,26.1 80,25.8 79.9,25.7 79.7,25.6 
	79.5,25.5 79.2,25.5 78.9,25.5 78.7,25.6 78.5,25.7 78.4,25.8 78.2,26.1 78,26.2 78,26.4 78,26.7 78,26.9 78,27.2 78.2,27.4 
	78.4,27.5 78.5,27.7 78.7,27.8 78.9,27.8 79.2,27.9 79.5,27.8 79.7,27.8 79.9,27.7 80,27.5 80.3,27.4 80.4,27.2 80.4,26.9 
	80.4,26.7 "/>
<path d="M80.7,26.7c0-0.2,0-0.4,0-0.6c0-0.2-0.3-0.4-0.4-0.5c-0.3-0.3-0.7-0.4-1.1-0.4c-0.4,0-0.8,0.2-1,0.4
	c-0.1,0.1-0.4,0.3-0.4,0.5c0,0.2,0,0.4,0,0.6s0,0.4,0,0.6c0,0.1,0.1,0.2,0.2,0.3c0,0,0.1,0.1,0.1,0.1c0.1,0,0.2,0.2,0.1,0
	c0.1,0.2,0.2,0.4,0.5,0.4c0.1,0,0.4,0.1,0.2,0c0.1,0.1,0.2,0.1,0.3,0.1c0.2,0,0.4-0.1,0.6-0.1c0.2,0,0.5-0.2,0.5-0.4
	c0.1-0.1,0.1-0.1,0,0c0.1,0,0.1-0.1,0.2-0.1c0.1-0.1,0.2-0.2,0.2-0.3C80.7,27.2,80.7,26.9,80.7,26.7c0-0.4-0.6-0.4-0.6,0
	c0,0.1,0,0.3,0,0.4c0-0.1,0-0.1,0,0c-0.1,0.1-0.1,0.1,0,0c-0.1,0-0.2,0.1-0.2,0.1c-0.1,0.1-0.1,0.2-0.1,0.2c0.1-0.1,0.1-0.1,0,0
	c-0.1,0-0.1,0.1,0,0c-0.2,0-0.3,0-0.5,0.1c-0.1,0,0.3,0.1,0,0c-0.1,0-0.1-0.1-0.2-0.1c-0.2,0,0,0.1-0.1,0c-0.1-0.1-0.1-0.1,0,0
	c0-0.1-0.1-0.1-0.1-0.2c0-0.1-0.1-0.1-0.2-0.2c-0.1,0-0.1-0.1-0.2-0.1c0.1,0.1,0.1,0.1,0,0c-0.1-0.1,0,0.1,0-0.1c0-0.1,0-0.1,0-0.2
	c0-0.1,0-0.2,0-0.4c0-0.2,0.1-0.2-0.1,0c0.1-0.1,0.1-0.1,0.2-0.2c0.1-0.1,0.2-0.2,0.4-0.3c0.1,0,0.1-0.1,0.2-0.1c-0.2,0.1,0,0,0.1,0
	c0.1,0,0.2,0,0.2,0c0.1,0,0.1,0,0,0c0.1,0,0.1,0.1,0.2,0.1c0.1,0.1,0.2,0.1,0.3,0.2c0.1,0.1,0.1,0.1,0.2,0.2c0.2,0.2,0-0.2,0,0
	c0,0.1,0,0.3,0,0.4C80.1,27.1,80.7,27.1,80.7,26.7z"/>
<polygon fill-rule="evenodd" clip-rule="evenodd" points="79.6,30.7 79.6,30.5 79.5,30.3 79.3,30.3 79.2,30.2 78.9,30.3 78.8,30.3 
	78.7,30.5 78.6,30.7 78.7,30.8 78.8,31.1 78.9,31.2 79.2,31.2 79.3,31.2 79.5,31.1 79.6,30.8 79.6,30.7 "/>
<path d="M79.9,30.7c0-0.1,0-0.2,0-0.3c0-0.1-0.1-0.2-0.1-0.3c0-0.1-0.2-0.2-0.3-0.2c-0.1,0-0.1,0-0.2,0c0.1,0,0.1,0.1,0.2,0.1
	c0,0-0.1-0.1-0.1-0.1c-0.1-0.1-0.3-0.1-0.4,0c-0.1,0-0.1,0.1-0.2,0.1c-0.2,0.1,0.2,0,0,0c-0.1,0-0.2,0.1-0.3,0.2
	c-0.1,0.1-0.1,0.3-0.2,0.4c-0.1,0.1-0.1,0.3,0,0.4c0,0,0,0,0.1,0.1c0.1,0.1,0-0.1,0,0c0,0.1,0.1,0.2,0.1,0.2
	c0.2,0.2,0.3,0.2,0.6,0.2C79.6,31.5,79.9,31.1,79.9,30.7c0-0.4-0.6-0.4-0.6,0c0,0,0,0.1,0,0.1c0-0.2,0-0.2,0,0c0,0,0,0.1-0.1,0.1
	c0.1-0.1,0.1-0.1,0,0c0,0-0.1,0-0.1,0.1c0.2-0.1,0.1,0,0,0c-0.1,0-0.1,0-0.2,0c0.1,0,0.1,0.1,0.2,0.1c0,0-0.1-0.1-0.1-0.1
	c0.1,0.1,0-0.1,0-0.1c0-0.1-0.1-0.2-0.2-0.2c0,0.1,0,0.3,0,0.4c0.1-0.1,0.1-0.3,0.2-0.4c-0.1,0.1-0.2,0.1-0.3,0.2
	c0.2,0,0.3-0.1,0.5-0.2c-0.1,0-0.3,0-0.4,0c0.1,0.1,0.1,0.2,0.2,0.2c0.1,0,0.2,0,0.3,0c-0.1-0.1-0.2-0.1-0.3-0.2
	c0,0.1,0.1,0.1,0.1,0.2c-0.1-0.1,0-0.2,0-0.1c0,0,0,0.1,0,0.1C79.3,31.1,79.9,31.1,79.9,30.7z"/>
<path d="M80.6,30.4c-1,0-2,0-3,0c-0.4,0-0.4,0.6,0,0.6c1,0,2,0,3,0C81,31,81,30.4,80.6,30.4L80.6,30.4z"/>
<path d="M79.6,29.2c-0.5,0.9-1,1.7-1.4,2.6c-0.2,0.4,0.3,0.7,0.5,0.3c0.5-0.9,1-1.7,1.4-2.6C80.3,29.2,79.8,28.9,79.6,29.2
	L79.6,29.2z"/>
<path d="M80.1,31.8c-0.5-0.9-1-1.7-1.4-2.6c-0.2-0.3-0.7,0-0.5,0.3c0.5,0.9,1,1.7,1.4,2.6C79.8,32.4,80.3,32.1,80.1,31.8L80.1,31.8z
	"/>
<rect id="_x3C_Slice_x3E__103_" y="59.3" fill="none" width="56.2" height="34.9"/>
<rect id="_x3C_Slice_x3E__102_" x="56.2" y="59.3" fill="none" width="49.2" height="34.9"/>
<rect id="_x3C_Slice_x3E__101_" fill="none" width="56.2" height="59.3"/>
<rect id="_x3C_Slice_x3E__100_" x="56.2" fill="none" width="49.2" height="59.3"/>
</svg>
