<?xml version="1.0" encoding="utf-8"?>
<!-- Generator: Adobe Illustrator 15.0.2, SVG Export Plug-In  -->
<!DOCTYPE svg PUBLIC "-//W3C//DTD SVG 1.1//EN" "http://www.w3.org/Graphics/SVG/1.1/DTD/svg11.dtd" [
	<!ENTITY ns_flows "http://ns.adobe.com/Flows/1.0/">
]>
<svg version="1.1"
	 xmlns="http://www.w3.org/2000/svg" xmlns:xlink="http://www.w3.org/1999/xlink" xmlns:a="http://ns.adobe.com/AdobeSVGViewerExtensions/3.0/"
	 x="0px" y="0px" width="58px" height="35px" viewBox="53.7 0 58 35" overflow="visible" enable-background="new 53.7 0 58 35"
	 xml:space="preserve">
<defs>
</defs>
<path d="M89.4,7.3c0-3.1-2.5-5.8-5.6-5.8c-3.2,0-5.8,2.6-5.8,5.8C78,14.6,89.4,14.6,89.4,7.3c0-0.4-0.6-0.4-0.6,0
	c0,6.5-10.2,6.5-10.2,0c0-6.6,10.2-6.6,10.2,0C88.8,7.7,89.4,7.7,89.4,7.3L89.4,7.3z"/>
<polygon fill-rule="evenodd" clip-rule="evenodd" points="78.4,6.4 78.3,6.9 78.3,7.3 78.3,7.6 78.4,8.1 78.3,7.9 78.2,7.6 
	78.2,7.4 78.1,7.4 77.9,7.3 77.6,7.3 77.2,7.3 77.6,7.2 77.9,7.2 78.1,7.1 78.2,7.1 78.2,6.9 78.3,6.6 78.4,6.4 "/>
<path d="M78.1,6.3C78,7,78,7.5,78.1,8.2c0.2-0.1,0.4-0.2,0.6-0.2c0-0.1-0.1-0.2-0.1-0.3c0,0,0-0.1-0.1-0.1c0-0.1,0-0.1,0,0.1
	c0-0.1,0-0.1,0-0.2c0-0.2-0.1-0.3-0.3-0.3c-0.1,0-0.1,0,0,0c0,0-0.1,0-0.1-0.1C78,7,77.9,7,77.8,7c-0.2,0-0.4,0-0.6,0
	c0,0.2,0.1,0.4,0.1,0.6c0.1,0,0.2,0,0.3-0.1c0.1,0,0.1,0,0.2,0c0.1,0-0.1,0,0,0c0.1,0,0.2,0,0.3-0.1c0,0,0.1,0,0.1-0.1
	c0.1-0.1-0.2,0,0,0c0.2,0,0.3-0.1,0.3-0.3c0-0.1,0-0.1,0-0.2c0-0.1-0.1,0.2,0,0c0.1-0.1,0.1-0.2,0.2-0.3C78.9,6.2,78.3,5.9,78.1,6.3
	c-0.1,0.2-0.2,0.4-0.2,0.8C78,7,78.1,6.9,78.2,6.8c-0.1,0-0.2,0-0.3,0.1c0,0-0.1,0-0.1,0.1c-0.1,0,0.2,0,0,0c-0.2,0-0.4,0.1-0.6,0.1
	c-0.3,0.1-0.3,0.6,0.1,0.6c0.2,0,0.3,0,0.5,0c0.1,0,0.2,0,0,0c0,0,0.1,0,0.1,0.1c0.1,0.1,0.2,0.1,0.3,0.1c-0.1-0.1-0.2-0.2-0.3-0.3
	c0,0.3,0.1,0.5,0.3,0.8c0.2,0.3,0.7,0.1,0.6-0.2c-0.1-0.6-0.1-0.9,0-1.5C78.8,6.1,78.2,5.9,78.1,6.3z"/>
<path d="M76,7.6c0.8,0,1.6,0,2.3,0c0.4,0,0.4-0.6,0-0.6c-0.8,0-1.6,0-2.3,0C75.6,7,75.6,7.6,76,7.6L76,7.6z"/>
<polygon fill-rule="evenodd" clip-rule="evenodd" points="89,6.4 89.1,6.9 89.1,7.3 89.1,7.6 89,8.1 89.1,7.9 89.2,7.6 89.3,7.4 
	89.4,7.4 89.6,7.3 90,7.3 90.8,7.3 90,7.2 89.6,7.2 89.4,7.1 89.3,7.1 89.2,6.9 89.1,6.6 89,6.4 "/>
<path d="M88.7,6.5c0,0.1,0.1,0.3,0.1,0.4c0-0.1,0,0,0,0.1c0,0.1,0,0.2,0,0.3c0,0,0,0.1,0,0.1c0,0,0,0.3,0,0.2c0,0.1-0.1,0.3-0.1,0.4
	c-0.1,0.3,0.4,0.6,0.6,0.2c0.1-0.2,0.2-0.4,0.3-0.7c-0.1,0.1-0.2,0.1-0.3,0.2c0.1,0,0.3,0,0.4-0.1c0.2-0.1-0.1,0,0,0
	c0.1,0,0.2,0,0.3,0c0.3,0,0.5,0,0.8,0c0.3,0,0.4-0.6,0.1-0.6c-0.3,0-0.6-0.1-0.9-0.1c-0.1,0-0.1,0-0.2,0c0,0-0.1,0-0.1,0
	c-0.1,0,0.2,0.1,0,0c-0.1-0.1-0.3-0.1-0.4-0.1c0.1,0.1,0.2,0.1,0.3,0.2c-0.1-0.2-0.2-0.4-0.3-0.7C89.1,5.9,88.5,6.2,88.7,6.5
	C88.8,6.8,88.9,7,89,7.2c0,0.1,0.2,0.2,0.3,0.2c0.2,0-0.1-0.1,0,0c0.1,0,0.1,0.1,0.2,0.1c0.1,0.1,0.3,0,0.5,0c-0.1,0,0,0,0,0
	c0.1,0,0.2,0,0.2,0c0.1,0,0.3,0,0.4,0.1c0-0.2,0.1-0.4,0.1-0.6c-0.3,0-0.5,0-0.8,0c-0.1,0-0.3,0-0.4,0c-0.1,0-0.1,0.1-0.2,0.1
	c-0.2,0.1,0.1,0-0.1,0c-0.1,0-0.2,0.1-0.3,0.2c-0.1,0.2-0.2,0.4-0.3,0.7c0.2,0.1,0.4,0.2,0.6,0.2c0.2-0.6,0.2-1.2,0-1.8
	C89.2,5.9,88.6,6.1,88.7,6.5z"/>
<path d="M91.4,7c-0.8,0-1.6,0-2.3,0c-0.4,0-0.4,0.6,0,0.6c0.8,0,1.6,0,2.3,0C91.8,7.6,91.8,7,91.4,7L91.4,7z"/>
<rect id="_x3C_Slice_x3E__103_" y="34.2" fill="none" width="54.2" height="54.2"/>
<rect id="_x3C_Slice_x3E__102_" x="54.2" y="34.2" fill="none" width="58.3" height="54.2"/>
<rect id="_x3C_Slice_x3E__101_" fill="none" width="54.2" height="34.2"/>
<rect id="_x3C_Slice_x3E__100_" x="54.2" fill="none" width="58.3" height="34.2"/>
</svg>
