<?xml version="1.0" encoding="utf-8"?>
<!-- Generator: Adobe Illustrator 15.0.2, SVG Export Plug-In  -->
<!DOCTYPE svg PUBLIC "-//W3C//DTD SVG 1.1//EN" "http://www.w3.org/Graphics/SVG/1.1/DTD/svg11.dtd" [
	<!ENTITY ns_flows "http://ns.adobe.com/Flows/1.0/">
]>
<svg version="1.1"
	 xmlns="http://www.w3.org/2000/svg" xmlns:xlink="http://www.w3.org/1999/xlink" xmlns:a="http://ns.adobe.com/AdobeSVGViewerExtensions/3.0/"
	 x="0px" y="0px" width="58px" height="50px" viewBox="53.7 0.1 58 50" overflow="visible" enable-background="new 53.7 0.1 58 50"
	 xml:space="preserve">
<defs>
</defs>
<path d="M88.5,33.3c-3.5,0-7,0-10.6,0c-0.4,0-0.4,0.6,0,0.6c3.5,0,7,0,10.6,0C88.9,34,88.9,33.3,88.5,33.3L88.5,33.3z"/>
<path d="M88.5,30.1c-3.5,0-7,0-10.6,0c-0.4,0-0.4,0.6,0,0.6c3.5,0,7,0,10.6,0C88.9,30.7,88.9,30.1,88.5,30.1L88.5,30.1z"/>
<path d="M81.2,26.8c-1.1,0-2.1,0-3.2,0c-0.4,0-0.4,0.6,0,0.6c1.1,0,2.1,0,3.2,0C81.6,27.4,81.6,26.8,81.2,26.8L81.2,26.8z"/>
<path d="M88.5,26.8c-1.1,0-2.1,0-3.2,0c-0.4,0-0.4,0.6,0,0.6c1.1,0,2.1,0,3.2,0C88.9,27.4,88.9,26.8,88.5,26.8L88.5,26.8z"/>
<path d="M89.1,25.6c0,3.1,0,6.3,0,9.4c0,0.4,0.6,0.4,0.6,0c0-3.1,0-6.3,0-9.4C89.7,25.2,89.1,25.2,89.1,25.6L89.1,25.6z"/>
<rect id="_x3C_Slice_x3E__103_" y="49.2" fill="none" width="54.2" height="63.3"/>
<rect id="_x3C_Slice_x3E__102_" x="54.2" y="49.2" fill="none" width="58.3" height="63.3"/>
<rect id="_x3C_Slice_x3E__101_" fill="none" width="54.2" height="49.2"/>
<rect id="_x3C_Slice_x3E__100_" x="54.2" fill="none" width="58.3" height="49.2"/>
</svg>
