<?xml version="1.0" encoding="utf-8"?>
<!-- Generator: Adobe Illustrator 15.0.2, SVG Export Plug-In  -->
<!DOCTYPE svg PUBLIC "-//W3C//DTD SVG 1.1//EN" "http://www.w3.org/Graphics/SVG/1.1/DTD/svg11.dtd" [
	<!ENTITY ns_flows "http://ns.adobe.com/Flows/1.0/">
]>
<svg version="1.1"
	 xmlns="http://www.w3.org/2000/svg" xmlns:xlink="http://www.w3.org/1999/xlink" xmlns:a="http://ns.adobe.com/AdobeSVGViewerExtensions/3.0/"
	 x="0px" y="0px" width="61px" height="51px" viewBox="55.7 0.4 61 51" overflow="visible" enable-background="new 55.7 0.4 61 51"
	 xml:space="preserve">
<defs>
</defs>
<polygon fill-rule="evenodd" clip-rule="evenodd" points="74.7,29.6 77.6,31.5 77.6,27.8 74.7,29.6 "/>
<path d="M74.5,29.9c1,0.6,1.9,1.3,2.9,1.9c0.2,0.1,0.5,0,0.5-0.3c0-1.2,0-2.4,0-3.7c0-0.2-0.3-0.4-0.5-0.3c-1,0.6-1.9,1.2-2.9,1.8
	c-0.3,0.2,0,0.8,0.3,0.5c1-0.6,1.9-1.2,2.9-1.8c-0.2-0.1-0.3-0.2-0.5-0.3c0,1.2,0,2.4,0,3.7c0.2-0.1,0.3-0.2,0.5-0.3
	c-1-0.6-1.9-1.3-2.9-1.9C74.5,29.1,74.2,29.7,74.5,29.9z"/>
<polygon fill-rule="evenodd" clip-rule="evenodd" points="88.8,29.6 85.9,27.8 85.9,31.5 88.8,29.6 "/>
<path d="M89,29.3c-1-0.6-1.9-1.2-2.9-1.8c-0.2-0.1-0.5,0-0.5,0.3c0,1.2,0,2.4,0,3.7c0,0.2,0.3,0.4,0.5,0.3c1-0.6,1.9-1.3,2.9-1.9
	c0.3-0.2,0-0.8-0.3-0.5c-1,0.6-1.9,1.3-2.9,1.9c0.2,0.1,0.3,0.2,0.5,0.3c0-1.2,0-2.4,0-3.7c-0.2,0.1-0.3,0.2-0.5,0.3
	c1,0.6,1.9,1.2,2.9,1.8C89,30.1,89.3,29.5,89,29.3z"/>
<path d="M85.9,29.3c-2.8,0-5.6,0-8.3,0c-0.4,0-0.4,0.6,0,0.6c2.8,0,5.6,0,8.3,0C86.3,29.9,86.3,29.3,85.9,29.3L85.9,29.3z"/>
<rect id="_x3C_Slice_x3E__103_" y="51.2" fill="none" width="56.2" height="59.3"/>
<rect id="_x3C_Slice_x3E__102_" x="56.2" y="51.2" fill="none" width="61.3" height="59.3"/>
<rect id="_x3C_Slice_x3E__101_" fill="none" width="56.2" height="51.2"/>
<rect id="_x3C_Slice_x3E__100_" x="56.2" fill="none" width="61.3" height="51.2"/>
</svg>
