<?xml version="1.0" encoding="utf-8"?>
<!-- Generator: Adobe Illustrator 15.0.2, SVG Export Plug-In  -->
<!DOCTYPE svg PUBLIC "-//W3C//DTD SVG 1.1//EN" "http://www.w3.org/Graphics/SVG/1.1/DTD/svg11.dtd" [
	<!ENTITY ns_flows "http://ns.adobe.com/Flows/1.0/">
]>
<svg version="1.1"
	 xmlns="http://www.w3.org/2000/svg" xmlns:xlink="http://www.w3.org/1999/xlink" xmlns:a="http://ns.adobe.com/AdobeSVGViewerExtensions/3.0/"
	 x="0px" y="0px" width="54px" height="54px" viewBox="31 0.8 54 54" overflow="visible" enable-background="new 31 0.8 54 54"
	 xml:space="preserve">
<defs>
</defs>
<path d="M59.3,31.1c-1.2,0-2.4,0-3.6,0c-0.4,0-0.4,0.6,0,0.6c1.2,0,2.4,0,3.6,0C59.7,31.7,59.7,31.1,59.3,31.1L59.3,31.1z"/>
<path d="M66.3,31.1c-1.2,0-2.4,0-3.6,0c-0.4,0-0.4,0.6,0,0.6c1.2,0,2.4,0,3.6,0C66.7,31.7,66.7,31.1,66.3,31.1L66.3,31.1z"/>
<path d="M59.3,26.8c-1.2,0-2.4,0-3.6,0c-0.4,0-0.4,0.6,0,0.6c1.2,0,2.4,0,3.6,0C59.7,27.4,59.7,26.8,59.3,26.8L59.3,26.8z"/>
<path d="M66.3,26.8c-1.2,0-2.4,0-3.6,0c-0.4,0-0.4,0.6,0,0.6c1.2,0,2.4,0,3.6,0C66.7,27.4,66.7,26.8,66.3,26.8L66.3,26.8z"/>
<rect id="_x3C_Slice_x3E__103_" y="54.2" fill="none" width="31.3" height="54.2"/>
<rect id="_x3C_Slice_x3E__102_" x="31.3" y="54.2" fill="none" width="54.2" height="54.2"/>
<rect id="_x3C_Slice_x3E__101_" fill="none" width="31.3" height="54.2"/>
<rect id="_x3C_Slice_x3E__100_" x="31.3" fill="none" width="54.2" height="54.2"/>
</svg>
