<?xml version="1.0" encoding="utf-8"?>
<!-- Generator: Adobe Illustrator 15.0.2, SVG Export Plug-In  -->
<!DOCTYPE svg PUBLIC "-//W3C//DTD SVG 1.1//EN" "http://www.w3.org/Graphics/SVG/1.1/DTD/svg11.dtd" [
	<!ENTITY ns_flows "http://ns.adobe.com/Flows/1.0/">
]>
<svg version="1.1"
	 xmlns="http://www.w3.org/2000/svg" xmlns:xlink="http://www.w3.org/1999/xlink" xmlns:a="http://ns.adobe.com/AdobeSVGViewerExtensions/3.0/"
	 x="0px" y="0px" width="51px" height="51px" viewBox="60.5 0.4 51 51" overflow="visible" enable-background="new 60.5 0.4 51 51"
	 xml:space="preserve">
<defs>
</defs>
<path d="M84.6,29.6c-3.4,0-6.7,0-10.1,0c-0.4,0-0.4,0.6,0,0.6c3.4,0,6.7,0,10.1,0C85,30.2,85,29.6,84.6,29.6L84.6,29.6z"/>
<path d="M79.3,27.7c-0.7,1.2-1.5,2.4-2.2,3.7c-0.1,0.2,0,0.5,0.3,0.5c1.4,0,2.9,0,4.3,0c0.2,0,0.4-0.3,0.3-0.5
	c-0.7-1.2-1.4-2.4-2.1-3.7c-0.2-0.3-0.7,0-0.5,0.3c0.7,1.2,1.4,2.4,2.1,3.7c0.1-0.2,0.2-0.3,0.3-0.5c-1.4,0-2.9,0-4.3,0
	c0.1,0.2,0.2,0.3,0.3,0.5c0.7-1.2,1.5-2.4,2.2-3.7C80,27.6,79.5,27.3,79.3,27.7L79.3,27.7z"/>
<rect id="_x3C_Slice_x3E__103_" y="51.2" fill="none" width="61.3" height="59.3"/>
<rect id="_x3C_Slice_x3E__102_" x="61.3" y="51.2" fill="none" width="50.2" height="59.3"/>
<rect id="_x3C_Slice_x3E__101_" fill="none" width="61.3" height="51.2"/>
<rect id="_x3C_Slice_x3E__100_" x="61.3" fill="none" width="50.2" height="51.2"/>
</svg>
