<?xml version="1.0" encoding="utf-8"?>
<!-- Generator: Adobe Illustrator 15.0.2, SVG Export Plug-In  -->
<!DOCTYPE svg PUBLIC "-//W3C//DTD SVG 1.1//EN" "http://www.w3.org/Graphics/SVG/1.1/DTD/svg11.dtd" [
	<!ENTITY ns_flows "http://ns.adobe.com/Flows/1.0/">
]>
<svg version="1.1"
	 xmlns="http://www.w3.org/2000/svg" xmlns:xlink="http://www.w3.org/1999/xlink" xmlns:a="http://ns.adobe.com/AdobeSVGViewerExtensions/3.0/"
	 x="0px" y="0px" width="57px" height="63px" viewBox="57.4 0.9 57 63" overflow="visible" enable-background="new 57.4 0.9 57 63"
	 xml:space="preserve">
<defs>
</defs>
<polygon fill-rule="evenodd" clip-rule="evenodd" points="83,34.1 83.2,33.9 83.4,33.8 83.6,33.5 83.7,33.3 83.7,33.1 83.7,33 
	83.6,33 83.4,33 83.1,32.9 83,32.9 82.9,32.8 82.9,32.6 82.7,32.6 82.7,32.4 82.7,32.3 82.7,32.2 83,32 83.2,31.9 83.4,31.9 
	83.5,31.9 83.7,31.9 83.9,32 84,32.1 84.1,32.3 84.1,32.4 84.2,32.6 84.2,32.8 84.2,33 84.2,33.2 84.1,33.3 84,33.5 83.9,33.8 
	83.6,33.9 83.4,34.1 83.1,34.3 83,34.1 "/>
<path d="M83.2,34.3c0.2-0.2,0.4-0.3,0.6-0.5c0.2-0.2,0.2-0.5,0.2-0.8c0-0.2-0.1-0.3-0.3-0.3c-0.2,0-0.3,0-0.4,0
	c-0.1,0-0.2-0.1-0.2-0.1c-0.1,0-0.1,0,0.1,0.1c-0.2-0.2,0,0.2,0,0c0-0.2-0.1-0.3-0.3-0.3c0,0-0.1,0-0.1,0c0.1,0.1,0.2,0.2,0.3,0.3
	c0-0.1,0-0.1,0-0.2c0,0,0-0.1,0-0.1c0-0.2-0.2,0.2,0,0c0.1-0.1,0.1-0.1,0.2-0.2c0.1,0,0.1-0.1,0,0c0.1,0,0.1,0,0.2,0
	c0.1,0,0.1,0,0.2,0c0.1,0-0.2-0.2,0,0c0.1,0.1,0.1,0.3,0.1,0.1c0,0.1,0,0.2,0.1,0.3c0.1,0.2,0-0.1,0,0.1c0,0.1,0,0.2,0,0.3
	c0,0.2,0.2-0.2,0,0c-0.1,0.1-0.1,0.2-0.2,0.3c0,0.1-0.2,0.2,0,0.1c-0.1,0-0.2,0.1-0.3,0.2c-0.2,0.2-0.2,0.2-0.5,0.4
	c0.1,0,0.3,0.1,0.4,0.1c0-0.1-0.1-0.1-0.1-0.2c-0.2-0.4-0.7,0-0.5,0.3c0,0.1,0.1,0.1,0.1,0.2c0.1,0.1,0.3,0.2,0.4,0.1
	c0.4-0.3,0.8-0.5,1.1-1c0.1-0.2,0.2-0.3,0.2-0.6c0-0.1,0-0.3,0-0.4c0-0.1-0.1-0.1-0.1-0.2c-0.1-0.2,0,0.1,0-0.1
	c0-0.3-0.2-0.5-0.4-0.6c-0.2-0.2-0.5-0.1-0.7-0.1c-0.3,0-0.5,0.1-0.7,0.3c-0.2,0.2-0.2,0.5-0.2,0.7c0,0.2,0.1,0.3,0.3,0.3
	c0,0,0.1,0,0.1,0c-0.1-0.1-0.2-0.2-0.3-0.3c0,0.6,0.7,0.6,1.2,0.6c-0.1-0.1-0.2-0.2-0.3-0.3c0,0.1,0,0.2,0,0.3c0-0.2,0,0-0.1,0.1
	c0,0-0.1,0.1-0.1,0.1c-0.1,0.1-0.4,0.2-0.5,0.4C82.5,34.2,82.9,34.6,83.2,34.3z"/>
<polygon fill-rule="evenodd" clip-rule="evenodd" points="80.6,38.2 81,38.1 81.2,37.9 81.3,37.6 81.4,37.4 81.5,37.3 81.4,37.1 
	81.3,37.1 81.2,37.1 80.9,37 80.7,37 80.6,36.9 80.5,36.9 80.5,36.8 80.5,36.5 80.5,36.4 80.5,36.3 80.6,36.1 80.9,36 81.1,36 
	81.3,36 81.4,36.1 81.5,36.1 81.7,36.3 81.7,36.4 81.9,36.5 81.9,36.8 82,36.9 81.9,37.1 81.9,37.3 81.9,37.4 81.7,37.6 81.5,37.9 
	81.3,38.1 81.1,38.3 80.7,38.4 80.6,38.2 "/>
<path d="M80.7,38.5c0.3-0.1,0.5-0.2,0.7-0.4c0.2-0.2,0.2-0.4,0.4-0.6c0.1-0.1,0.1-0.3,0-0.4c0-0.1-0.1-0.1-0.1-0.2
	c0-0.1-0.2-0.2-0.3-0.2c-0.2,0-0.3,0-0.5-0.1c-0.3-0.1,0.1,0.2-0.1,0c-0.1-0.1-0.2-0.1-0.3-0.1c0.1,0.1,0.2,0.2,0.3,0.3
	c0-0.1,0-0.2,0-0.3c0-0.1,0-0.1,0-0.2c0,0.2,0,0,0.1-0.1c-0.1,0.1,0,0,0.1,0c-0.2,0.1,0,0,0.1,0c0,0,0.1,0,0.1,0c0.2,0-0.2-0.2,0,0
	c0.1,0.1,0.1,0.1,0.2,0.1c0.2,0-0.2-0.2,0,0c0.2,0.2,0.1,0.1,0.1,0c0,0.1,0,0.1,0,0.2c0,0.1,0.1,0.1,0.1,0.1c-0.1-0.1-0.1-0.2-0.1,0
	c0,0.2,0.1,0.3,0.2,0.4c0-0.1,0-0.3,0-0.4c-0.1,0.2-0.2,0.3-0.2,0.5c0,0.1,0,0.2,0,0.1c-0.1,0.1-0.1,0.2-0.2,0.3
	c-0.1,0.1-0.2,0.2-0.3,0.3C81,38,80.8,38.1,81,38c-0.1,0-0.2,0.1-0.3,0.1c0.1,0,0.2,0.1,0.4,0.1c0-0.1-0.1-0.1-0.1-0.2
	c-0.2-0.4-0.7,0-0.5,0.3c0,0.1,0.1,0.1,0.1,0.2c0.1,0.1,0.2,0.2,0.4,0.1c0.4-0.1,0.6-0.4,0.9-0.7c0.2-0.2,0.3-0.3,0.4-0.6
	c0-0.1,0-0.2,0-0.3c0-0.1,0-0.1,0,0c0-0.1,0.1-0.1,0.1-0.2c0.1-0.1,0.1-0.3,0-0.4c-0.1-0.1,0-0.1,0,0.1c0-0.1,0-0.2,0-0.3
	c0-0.1-0.1-0.2-0.2-0.2c0,0.2,0.1,0.2,0.1,0.1c0-0.1,0-0.1,0-0.2c-0.1-0.1-0.3-0.3-0.4-0.4c-0.3-0.1,0.1,0.2-0.1,0
	c-0.1-0.1-0.1-0.1-0.2-0.1c-0.3,0-0.8,0-0.9,0.3c-0.2,0.3-0.2,0.6-0.2,0.9c0,0.2,0.1,0.3,0.3,0.3c0.1,0-0.2-0.2,0,0
	c0.1,0.1,0.2,0.1,0.3,0.1c0.2,0.1,0.4,0.1,0.6,0.1c-0.1-0.1-0.2-0.1-0.3-0.2c0,0.1,0.1,0.1,0.1,0.2c0-0.1,0-0.3,0-0.4
	c-0.2,0.2-0.2,0.3-0.3,0.5c0,0.1-0.1,0.2-0.2,0.2c0.1-0.1,0.1,0-0.1,0c-0.1,0-0.1,0-0.2,0.1C80.2,38,80.3,38.6,80.7,38.5z"/>
<polygon fill-rule="evenodd" clip-rule="evenodd" points="85.2,38.2 85.5,38.1 85.7,37.9 85.9,37.6 86,37.4 86,37.3 86,37.1 
	85.9,37.1 85.6,37.1 85.4,37 85.3,37 85.2,36.9 85.1,36.9 85.1,36.8 85,36.5 85.1,36.4 85.1,36.3 85.2,36.1 85.4,36 85.6,36 
	85.9,36 86,36.1 86.1,36.1 86.2,36.3 86.3,36.4 86.4,36.5 86.4,36.8 86.4,36.9 86.4,37.1 86.4,37.3 86.3,37.4 86.2,37.6 86.1,37.9 
	85.9,38.1 85.6,38.3 85.3,38.4 85.2,38.2 "/>
<path d="M85.3,38.5c0.3-0.1,0.6-0.2,0.8-0.5c0.2-0.3,0.2-0.5,0.2-0.9c0-0.2-0.1-0.3-0.3-0.3c-0.1,0-0.2,0-0.3,0
	c0.2,0-0.1-0.1-0.2-0.1c-0.3-0.1,0.1,0.2-0.1,0c-0.1-0.1-0.2-0.1-0.3-0.1c0.1,0.1,0.2,0.2,0.3,0.3c0-0.2-0.1-0.3-0.2-0.5
	c0,0.1,0,0.3,0,0.4c0.1-0.1,0.2-0.2,0.2-0.4c0,0.2,0,0,0.1-0.1c-0.1,0.1-0.1,0.1,0,0c0.1,0,0.1-0.1,0,0c0.1,0,0.1,0,0.2,0
	c0.2,0,0.2,0.1,0-0.1c0.1,0.1,0.2,0.2,0.4,0.2c-0.1-0.1-0.2-0.1-0.3-0.2c0.1,0.1,0.1,0.2,0.2,0.3c0,0,0.1,0.1,0.1,0.1
	c0.2,0.2,0-0.3,0,0c0,0.1,0,0.2,0,0.3c0,0,0,0.1,0,0.1c0,0.2-0.1,0.1,0.1,0c-0.2,0.2-0.2,0.5-0.4,0.6c-0.1,0.1-0.2,0.2-0.3,0.3
	c-0.2,0.2,0.2,0,0,0c-0.1,0-0.2,0.1-0.2,0.1c0.1,0,0.2,0.1,0.4,0.1c0-0.1-0.1-0.1-0.1-0.2c-0.2-0.4-0.7,0-0.5,0.3
	c0,0.1,0.1,0.1,0.1,0.2c0.1,0.1,0.2,0.2,0.4,0.1c0.3-0.1,0.5-0.2,0.7-0.4c0.2-0.2,0.3-0.5,0.5-0.8c0.2-0.2,0.1-0.6,0.1-0.8
	c0-0.4-0.2-0.5-0.4-0.8c0-0.1-0.2-0.2-0.3-0.2c-0.1,0,0.2,0.2,0,0c-0.1-0.1-0.2-0.1-0.3-0.1c-0.2,0-0.3,0-0.5,0
	c-0.2,0-0.4,0.1-0.4,0.3c0,0.1-0.1,0.2-0.1,0.3c-0.1,0.3,0.2-0.1,0,0.1c-0.1,0.1-0.1,0.3,0,0.4c0,0,0,0.1,0.1,0.1
	c0.1,0.2,0-0.1,0,0.1c0,0.2,0.1,0.3,0.3,0.3c0.1,0,0.1,0-0.1-0.1c0,0,0.1,0.1,0.1,0.1c0,0,0.1,0,0.2,0c0.2,0-0.1-0.1,0.1,0
	c0.2,0.1,0.4,0.1,0.6,0.1c-0.1-0.1-0.2-0.2-0.3-0.3c0,0.1,0,0.2,0,0.3c0-0.1,0,0-0.1,0.1c0,0,0,0.1-0.1,0.1c0,0.1-0.1,0.2-0.2,0.2
	c0.1-0.1,0.1,0-0.1,0c-0.1,0-0.1,0-0.2,0.1C84.7,38,84.9,38.6,85.3,38.5z"/>
<rect id="_x3C_Slice_x3E__103_" y="63.3" fill="none" width="58.3" height="50.2"/>
<rect id="_x3C_Slice_x3E__102_" x="58.3" y="63.3" fill="none" width="56.2" height="50.2"/>
<rect id="_x3C_Slice_x3E__101_" fill="none" width="58.3" height="63.3"/>
<rect id="_x3C_Slice_x3E__100_" x="58.3" fill="none" width="56.2" height="63.3"/>
</svg>
