<?xml version="1.0" encoding="utf-8"?>
<!-- Generator: Adobe Illustrator 15.0.2, SVG Export Plug-In  -->
<!DOCTYPE svg PUBLIC "-//W3C//DTD SVG 1.1//EN" "http://www.w3.org/Graphics/SVG/1.1/DTD/svg11.dtd" [
	<!ENTITY ns_flows "http://ns.adobe.com/Flows/1.0/">
]>
<svg version="1.1"
	 xmlns="http://www.w3.org/2000/svg" xmlns:xlink="http://www.w3.org/1999/xlink" xmlns:a="http://ns.adobe.com/AdobeSVGViewerExtensions/3.0/"
	 x="0px" y="0px" width="54px" height="35px" viewBox="31 0 54 35" overflow="visible" enable-background="new 31 0 54 35"
	 xml:space="preserve">
<defs>
</defs>
<path d="M66.7,6.1c0-3.1-2.6-5.8-5.8-5.8c-3.1,0-5.6,2.7-5.6,5.8C55.3,13.4,66.7,13.4,66.7,6.1c0-0.4-0.6-0.4-0.6,0
	c0,6.5-10.2,6.5-10.2,0c0-6.6,10.2-6.6,10.2,0C66.1,6.5,66.7,6.5,66.7,6.1L66.7,6.1z"/>
<polygon fill-rule="evenodd" clip-rule="evenodd" points="60.2,11.4 60.6,11.4 61,11.4 61.4,11.4 61.9,11.4 61.6,11.4 61.4,11.5 
	61.2,11.6 61.2,11.8 61.1,11.9 61.1,12.1 61,12.6 61,12.1 61,11.9 60.9,11.8 60.9,11.6 60.6,11.5 60.4,11.4 60.2,11.4 "/>
<path d="M60.2,11.7c0.6,0,1.1,0,1.7,0c0.4,0,0.4-0.6,0-0.6c-0.3,0-0.5,0.1-0.8,0.3c-0.1,0-0.2,0.2-0.2,0.3c0,0,0,0.1,0,0.1
	c0-0.1,0.1-0.1,0.1-0.2c-0.1,0.1-0.2,0.1-0.2,0.2c0,0,0,0.4,0,0.2c0,0.2-0.1,0.4-0.1,0.5c0.2,0,0.4,0.1,0.6,0.1c0-0.2,0-0.4,0-0.5
	c0-0.2,0-0.4-0.2-0.6c0,0.1,0.1,0.1,0.1,0.2c0,0,0-0.1,0-0.1c0-0.1-0.1-0.2-0.2-0.3c-0.3-0.1-0.5-0.3-0.8-0.3
	C59.8,11.1,59.8,11.7,60.2,11.7c0.1,0,0.1,0,0.2,0c-0.1,0-0.2-0.1-0.1,0c0,0,0.1,0,0.1,0.1c0.1,0,0.2,0.1,0.3,0.1
	c-0.1-0.1-0.1-0.2-0.2-0.3c0,0.2,0.1,0.3,0.2,0.4c0-0.1-0.1-0.1-0.1-0.2c0,0.3,0,0.5,0,0.8c0,0.3,0.5,0.4,0.6,0.1
	c0.1-0.3,0.1-0.6,0.1-0.9c0,0.1-0.1,0.1-0.1,0.2c0.1-0.1,0.2-0.2,0.2-0.4c-0.1,0.1-0.1,0.2-0.2,0.3c0.1,0,0.2-0.1,0.3-0.1
	c0,0,0.1,0,0.1-0.1c0.1,0,0.1,0-0.1,0c0.1,0,0.1,0,0.2,0c0.4,0,0.4-0.6,0-0.6c-0.6,0-1.1,0-1.7,0C59.8,11.1,59.8,11.7,60.2,11.7z"/>
<path d="M61.3,13.9c0-0.8,0-1.6,0-2.4c0-0.4-0.6-0.4-0.6,0c0,0.8,0,1.6,0,2.4C60.7,14.3,61.3,14.3,61.3,13.9L61.3,13.9z"/>
<rect id="_x3C_Slice_x3E__103_" y="34.2" fill="none" width="31.3" height="54.2"/>
<rect id="_x3C_Slice_x3E__102_" x="31.3" y="34.2" fill="none" width="54.2" height="54.2"/>
<rect id="_x3C_Slice_x3E__101_" fill="none" width="31.3" height="34.2"/>
<rect id="_x3C_Slice_x3E__100_" x="31.3" fill="none" width="54.2" height="34.2"/>
</svg>
