<?xml version="1.0" encoding="utf-8"?>
<!-- Generator: Adobe Illustrator 15.0.2, SVG Export Plug-In  -->
<!DOCTYPE svg PUBLIC "-//W3C//DTD SVG 1.1//EN" "http://www.w3.org/Graphics/SVG/1.1/DTD/svg11.dtd" [
	<!ENTITY ns_flows "http://ns.adobe.com/Flows/1.0/">
]>
<svg version="1.1"
	 xmlns="http://www.w3.org/2000/svg" xmlns:xlink="http://www.w3.org/1999/xlink" xmlns:a="http://ns.adobe.com/AdobeSVGViewerExtensions/3.0/"
	 x="0px" y="0px" width="56px" height="35px" viewBox="48.9 0 56 35" overflow="visible" enable-background="new 48.9 0 56 35"
	 xml:space="preserve">
<defs>
</defs>
<path d="M70.5,7.3c0,2.2,3.7,2.9,5.1,1.6c0.8-0.8,2.5-2.5,3.5-2.8c1.3-0.3,3.7-0.7,3.7,1.3c0,1.7-2.5,1.7-3.6,1.2
	c-1.3-0.6-2.6-1.8-3.6-2.8C74.1,4.2,70.5,5.1,70.5,7.3c0,0.4,0.6,0.4,0.6,0c0-1.6,2.2-2,3.4-1.4c1.3,0.7,2.6,1.7,3.7,2.8
	c1.4,1.4,5.3,1,5.3-1.4c0-2.4-3.8-3-5.3-1.5c-1,1-2.2,2-3.4,2.7C73.6,9,71.1,9,71.1,7.3C71.1,6.9,70.5,6.9,70.5,7.3L70.5,7.3z"/>
<rect id="_x3C_Slice_x3E__103_" y="34.2" fill="none" width="49.2" height="54.2"/>
<rect id="_x3C_Slice_x3E__102_" x="49.2" y="34.2" fill="none" width="56.2" height="54.2"/>
<rect id="_x3C_Slice_x3E__101_" fill="none" width="49.2" height="34.2"/>
<rect id="_x3C_Slice_x3E__100_" x="49.2" fill="none" width="56.2" height="34.2"/>
</svg>
