<?xml version="1.0" encoding="utf-8"?>
<!-- Generator: Adobe Illustrator 15.0.2, SVG Export Plug-In  -->
<!DOCTYPE svg PUBLIC "-//W3C//DTD SVG 1.1//EN" "http://www.w3.org/Graphics/SVG/1.1/DTD/svg11.dtd" [
	<!ENTITY ns_flows "http://ns.adobe.com/Flows/1.0/">
]>
<svg version="1.1"
	 xmlns="http://www.w3.org/2000/svg" xmlns:xlink="http://www.w3.org/1999/xlink" xmlns:a="http://ns.adobe.com/AdobeSVGViewerExtensions/3.0/"
	 x="0px" y="0px" width="57px" height="60px" viewBox="57.4 0.2 57 60" overflow="visible" enable-background="new 57.4 0.2 57 60"
	 xml:space="preserve">
<defs>
</defs>
<path d="M83.7,39.3c-0.7-2.1-1.4-4.1-2.1-6.2c-0.1,0.1-0.2,0.3-0.3,0.4c1.4,0,2.9,0,4.3,0c-0.1-0.1-0.2-0.3-0.3-0.4
	c-0.7,2.1-1.5,4.1-2.2,6.2c-0.1,0.4,0.5,0.5,0.6,0.2c0.7-2.1,1.5-4.1,2.2-6.2c0.1-0.2-0.1-0.4-0.3-0.4c-1.4,0-2.9,0-4.3,0
	c-0.2,0-0.4,0.2-0.3,0.4c0.7,2.1,1.4,4.1,2.1,6.2C83.2,39.8,83.8,39.7,83.7,39.3L83.7,39.3z"/>
<polygon fill-rule="evenodd" clip-rule="evenodd" points="84.6,26.7 84.6,26.4 84.6,26.2 84.5,26.1 84.3,25.8 84.2,25.7 84,25.6 
	83.7,25.5 83.4,25.5 83.2,25.5 83,25.6 82.7,25.7 82.6,25.8 82.4,26.1 82.3,26.2 82.3,26.4 82.3,26.7 82.3,26.9 82.3,27.2 
	82.4,27.4 82.6,27.5 82.7,27.7 83,27.8 83.2,27.8 83.4,27.9 83.7,27.8 84,27.8 84.2,27.7 84.3,27.5 84.5,27.4 84.6,27.2 84.6,26.9 
	84.6,26.7 "/>
<path d="M84.9,26.7c0-0.2,0-0.4,0-0.6c0-0.2-0.3-0.4-0.4-0.5c-0.3-0.3-0.7-0.4-1.1-0.4c-0.4,0-0.8,0.2-1,0.4
	C82.2,25.8,82,26,82,26.2c0,0.2,0,0.4,0,0.6s0,0.4,0,0.6c0,0.1,0.1,0.2,0.2,0.3c0,0,0.1,0.1,0.1,0.1c0.1,0,0.2,0.2,0.1,0
	c0.1,0.2,0.2,0.4,0.5,0.4c0.1,0,0.4,0.1,0.2,0c0.1,0.1,0.2,0.1,0.3,0.1c0.2,0,0.4-0.1,0.6-0.1c0.2,0,0.5-0.2,0.5-0.4
	c0.1-0.1,0.1-0.1,0,0c0.1,0,0.1-0.1,0.2-0.1c0.1-0.1,0.2-0.2,0.2-0.3C85,27.2,84.9,26.9,84.9,26.7c0-0.4-0.6-0.4-0.6,0
	c0,0.1,0,0.3,0,0.4c0-0.1,0-0.1,0,0c-0.1,0.1-0.1,0.1,0,0c-0.1,0-0.2,0.1-0.3,0.1c-0.1,0.1-0.1,0.2-0.1,0.2c0.1-0.1,0.1-0.1,0,0
	c-0.1,0-0.1,0.1,0,0c-0.2,0-0.3,0-0.5,0.1c-0.1,0,0.3,0.1,0,0c-0.1,0-0.1-0.1-0.2-0.1c-0.2,0,0,0.1-0.1,0c-0.1-0.1-0.1-0.1,0,0
	c0-0.1-0.1-0.1-0.1-0.2c0-0.1-0.1-0.1-0.2-0.2c-0.1,0-0.1-0.1-0.2-0.1c0.1,0.1,0.1,0.1,0,0c-0.1-0.1,0,0.1,0-0.1c0-0.1,0-0.1,0-0.2
	c0-0.1,0-0.2,0-0.4c0-0.2,0.1-0.2-0.1,0c0.1-0.1,0.1-0.1,0.2-0.2c0.1-0.1,0.2-0.2,0.4-0.3c0.1,0,0.1-0.1,0.2-0.1c-0.2,0.1,0,0,0.1,0
	c0.1,0,0.2,0,0.2,0c0.1,0,0.1,0,0,0c0.1,0,0.1,0.1,0.2,0.1c0.1,0.1,0.2,0.1,0.3,0.2c0.1,0.1,0.1,0.1,0.2,0.2c0.2,0.2,0-0.2,0,0
	c0,0.1,0,0.3,0,0.4C84.3,27.1,84.9,27.1,84.9,26.7z"/>
<polygon fill-rule="evenodd" clip-rule="evenodd" points="83.9,30.7 83.9,30.5 83.7,30.3 83.5,30.3 83.4,30.2 83.2,30.3 83.1,30.3 
	83,30.5 82.9,30.7 83,30.8 83.1,31.1 83.2,31.2 83.4,31.2 83.5,31.2 83.7,31.1 83.9,30.8 83.9,30.7 "/>
<path d="M84.2,30.7c0-0.1,0-0.2,0-0.3c0-0.1-0.1-0.2-0.1-0.3c0-0.1-0.2-0.2-0.3-0.2c-0.1,0-0.1,0-0.2,0c0.1,0,0.1,0.1,0.2,0.1
	c0,0-0.1-0.1-0.1-0.1c-0.1-0.1-0.3-0.1-0.4,0c-0.1,0-0.1,0.1-0.2,0.1c-0.2,0.1,0.2,0,0,0c-0.1,0-0.2,0.1-0.3,0.2
	c-0.1,0.1-0.1,0.3-0.2,0.4c-0.1,0.1-0.1,0.3,0,0.4c0,0,0,0,0.1,0.1c0.1,0.1,0-0.1,0,0c0,0.1,0.1,0.2,0.1,0.2
	c0.2,0.2,0.3,0.2,0.6,0.2C83.9,31.5,84.2,31.1,84.2,30.7c0-0.4-0.6-0.4-0.6,0c0,0,0,0.1,0,0.1c0-0.2,0-0.2,0,0c0,0,0,0.1-0.1,0.1
	c0.1-0.1,0.1-0.1,0,0c0,0-0.1,0-0.1,0.1c0.2-0.1,0.1,0,0,0c-0.1,0-0.1,0-0.2,0c0.1,0,0.1,0.1,0.2,0.1c0,0-0.1-0.1-0.1-0.1
	c0.1,0.1,0-0.1,0-0.1c0-0.1-0.1-0.2-0.2-0.2c0,0.1,0,0.3,0,0.4c0.1-0.1,0.1-0.3,0.2-0.4c-0.1,0.1-0.2,0.1-0.3,0.2
	c0.2,0,0.3-0.1,0.5-0.2c-0.1,0-0.3,0-0.4,0c0.1,0.1,0.1,0.2,0.2,0.2c0.1,0,0.2,0,0.3,0c-0.1-0.1-0.2-0.1-0.3-0.2
	c0,0.1,0.1,0.1,0.1,0.2c-0.1-0.1,0-0.2,0-0.1c0,0,0,0.1,0,0.1C83.5,31.1,84.2,31.1,84.2,30.7z"/>
<path d="M84.9,30.4c-1,0-2,0-3,0c-0.4,0-0.4,0.6,0,0.6c1,0,2,0,3,0C85.3,31,85.3,30.4,84.9,30.4L84.9,30.4z"/>
<path d="M83.8,29.2c-0.5,0.9-1,1.7-1.4,2.6c-0.2,0.4,0.3,0.7,0.5,0.3c0.5-0.9,1-1.7,1.4-2.6C84.5,29.2,84,28.9,83.8,29.2L83.8,29.2z
	"/>
<path d="M84.3,31.8c-0.5-0.9-1-1.7-1.4-2.6c-0.2-0.3-0.7,0-0.5,0.3c0.5,0.9,1,1.7,1.4,2.6C84,32.4,84.5,32.1,84.3,31.8L84.3,31.8z"
	/>
<rect id="_x3C_Slice_x3E__103_" y="59.3" fill="none" width="58.3" height="34.9"/>
<rect id="_x3C_Slice_x3E__102_" x="58.3" y="59.3" fill="none" width="56.2" height="34.9"/>
<rect id="_x3C_Slice_x3E__101_" fill="none" width="58.3" height="59.3"/>
<rect id="_x3C_Slice_x3E__100_" x="58.3" fill="none" width="56.2" height="59.3"/>
</svg>
