<?xml version="1.0" encoding="utf-8"?>
<!-- Generator: Adobe Illustrator 15.0.2, SVG Export Plug-In  -->
<!DOCTYPE svg PUBLIC "-//W3C//DTD SVG 1.1//EN" "http://www.w3.org/Graphics/SVG/1.1/DTD/svg11.dtd" [
	<!ENTITY ns_flows "http://ns.adobe.com/Flows/1.0/">
]>
<svg version="1.1"
	 xmlns="http://www.w3.org/2000/svg" xmlns:xlink="http://www.w3.org/1999/xlink" xmlns:a="http://ns.adobe.com/AdobeSVGViewerExtensions/3.0/"
	 x="0px" y="0px" width="54px" height="63px" viewBox="31 0.9 54 63" overflow="visible" enable-background="new 31 0.9 54 63"
	 xml:space="preserve">
<defs>
</defs>
<polygon fill-rule="evenodd" clip-rule="evenodd" points="58.6,36.2 59,36 59.2,35.8 59.3,35.5 59.4,35.3 59.5,35.2 59.4,35.1 
	59.3,35 59.2,35 58.9,35 58.8,34.9 58.6,34.9 58.5,34.8 58.5,34.6 58.5,34.4 58.5,34.3 58.5,34.2 58.6,34.1 58.9,34 59.1,33.9 
	59.3,33.9 59.4,34 59.6,34.1 59.8,34.2 59.8,34.3 59.9,34.5 59.9,34.6 60,34.9 60,35 59.9,35.2 59.9,35.4 59.8,35.6 59.5,35.8 
	59.3,36 59.1,36.2 58.8,36.4 58.6,36.2 "/>
<path d="M58.8,36.5c0.2-0.1,0.4-0.3,0.6-0.5c0.2-0.2,0.2-0.4,0.4-0.6c0.1-0.1,0.1-0.3,0-0.4c-0.2-0.2-0.3-0.3-0.6-0.3
	c-0.1,0-0.2,0-0.3,0c0.2,0,0.2,0.1,0.1,0c-0.1-0.1-0.1-0.1-0.2-0.1c-0.1,0-0.1,0,0.1,0.1c-0.1-0.1-0.1-0.1,0,0.1c0-0.1,0-0.2,0-0.3
	c0-0.2,0-0.1-0.1,0c0.1-0.1,0,0,0.1-0.1c0,0,0.1,0,0.1-0.1c0.1,0,0.2-0.1,0.1-0.1c0.2,0,0.1,0.1,0-0.1c0.1,0.1,0.1,0.1,0.2,0.1
	c0,0,0.2,0.1,0.2,0.1c0.2,0.2,0-0.2,0,0c0,0.1,0,0.1,0.1,0.2c0,0.1,0.1,0.2,0.1,0.1c0,0.2,0.1,0.3,0.1,0.4c0-0.1,0-0.2,0-0.1
	c0,0.1-0.1,0.2-0.1,0.3c0,0.1,0,0.1,0,0.2c0-0.2,0,0-0.1,0.1c0.1-0.1,0,0-0.1,0c-0.1,0-0.1,0.1-0.2,0.1c-0.2,0.2-0.4,0.4-0.6,0.5
	c0.1,0,0.3,0.1,0.4,0.1c0-0.1-0.1-0.1-0.1-0.2c-0.2-0.4-0.7,0-0.5,0.3c0,0.1,0.1,0.1,0.1,0.2c0.1,0.1,0.3,0.2,0.4,0.1
	c0.3-0.2,0.6-0.4,0.8-0.7c0.1-0.1,0.3-0.1,0.3-0.3c0-0.1,0.1-0.2,0.1-0.3c0-0.1,0.1-0.3,0-0.1c0.1-0.2,0.2-0.3,0.1-0.5
	c0-0.1-0.1-0.2-0.1-0.3c0.1,0.2,0-0.1,0-0.1c0-0.1-0.1-0.3-0.1-0.1c0-0.1,0-0.2-0.1-0.3c-0.1-0.1-0.3-0.2-0.4-0.3
	c-0.3-0.3-0.6-0.2-0.9,0c-0.4,0.2-0.5,0.4-0.5,0.8c0,0.2,0,0.3,0.1,0.5c0.1,0.1,0.1,0.1,0.2,0.2c0.3,0.1-0.1-0.2,0.1,0
	c0.2,0.2,0.3,0.1,0.5,0.1c0.2,0-0.1-0.2,0,0c0,0,0.1,0.1,0.1,0.1c0-0.1,0-0.3,0-0.4c-0.2,0.2-0.2,0.3-0.3,0.5
	c-0.1,0.2-0.3,0.3-0.5,0.4C58.2,36.2,58.5,36.7,58.8,36.5z"/>
<polygon fill-rule="evenodd" clip-rule="evenodd" points="62.3,36.2 62.6,36 62.9,35.8 63,35.5 63.1,35.3 63.1,35.2 63.1,35.1 
	63,35 62.8,35 62.5,35 62.4,34.9 62.3,34.9 62.2,34.8 62.2,34.6 62.1,34.4 62.2,34.3 62.2,34.2 62.3,34.1 62.5,34 62.8,33.9 
	63,33.9 63.1,34 63.2,34.1 63.3,34.2 63.4,34.3 63.5,34.5 63.5,34.6 63.5,34.9 63.5,35 63.5,35.2 63.4,35.4 63.3,35.6 63.2,35.8 
	63,36 62.8,36.2 62.4,36.4 62.3,36.2 "/>
<path d="M62.5,36.5c0.3-0.2,0.6-0.4,0.7-0.7c0.1-0.2,0.4-0.7,0.1-0.9c-0.1-0.1-0.2-0.2-0.4-0.2c-0.1,0-0.1,0-0.2,0
	c-0.3,0,0.1,0.1,0,0c0,0-0.1-0.1-0.2-0.1c-0.3-0.1,0.1,0.2-0.1,0c0,0.2,0.1,0.2,0.1,0.1c0-0.1,0-0.1,0-0.2c0-0.1-0.1-0.1-0.1-0.2
	c0,0.1,0,0.3,0,0.4c0.1-0.1,0.1-0.1,0.2-0.2c0,0,0-0.1,0-0.2c0-0.1,0-0.1-0.1,0.1c0.1-0.1,0.1-0.1,0.2-0.1c0.1,0,0.3-0.1,0.1-0.1
	c0.3,0-0.1-0.1,0,0c0,0,0.1,0.1,0.1,0.1c0,0,0.1,0.1,0.1,0.1c0.1,0.1,0.1,0.3,0.1,0.1c0,0.1,0,0.3,0,0.4c0,0.2,0.1,0,0,0.1
	c0,0.1-0.1,0.2-0.1,0.3c-0.1,0.3-0.6,0.5-0.8,0.7c0.1,0,0.3,0.1,0.4,0.1c0-0.1-0.1-0.1-0.1-0.2c-0.2-0.4-0.7,0-0.5,0.3
	c0,0.1,0.1,0.1,0.1,0.2c0.1,0.1,0.3,0.2,0.4,0.1c0.3-0.2,0.8-0.6,1-0.9c0.2-0.4,0.4-1,0.2-1.4c-0.2-0.3-0.5-0.8-0.9-0.8
	c-0.3,0-0.5,0.1-0.7,0.2c-0.1,0-0.2,0.1-0.3,0.2c0,0.1,0,0.1,0,0.2c0-0.2,0.1-0.2,0-0.1c-0.1,0.1-0.1,0.3,0,0.4
	c0,0.1,0.1,0.1,0.1,0.2c-0.1-0.2,0,0,0,0.1c0,0.1,0.2,0.2,0.3,0.3c0.1,0,0.1,0,0.2,0c-0.2,0-0.2-0.1-0.1,0c0.1,0.1,0.3,0.1,0.4,0.1
	c0.1,0,0.1,0,0.2,0c-0.1,0-0.1,0-0.2-0.1c0.1,0.1,0.1,0.1,0-0.1c0,0.1,0,0.2,0,0c0,0.1-0.1,0.1-0.1,0.2c-0.1,0.3-0.3,0.4-0.6,0.6
	C61.8,36.2,62.1,36.7,62.5,36.5z"/>
<rect id="_x3C_Slice_x3E__103_" y="63.3" fill="none" width="31.3" height="50.2"/>
<rect id="_x3C_Slice_x3E__102_" x="31.3" y="63.3" fill="none" width="54.2" height="50.2"/>
<rect id="_x3C_Slice_x3E__101_" fill="none" width="31.3" height="63.3"/>
<rect id="_x3C_Slice_x3E__100_" x="31.3" fill="none" width="54.2" height="63.3"/>
</svg>
