<?xml version="1.0" encoding="utf-8"?>
<!-- Generator: Adobe Illustrator 15.0.2, SVG Export Plug-In  -->
<!DOCTYPE svg PUBLIC "-//W3C//DTD SVG 1.1//EN" "http://www.w3.org/Graphics/SVG/1.1/DTD/svg11.dtd" [
	<!ENTITY ns_flows "http://ns.adobe.com/Flows/1.0/">
]>
<svg version="1.1"
	 xmlns="http://www.w3.org/2000/svg" xmlns:xlink="http://www.w3.org/1999/xlink" xmlns:a="http://ns.adobe.com/AdobeSVGViewerExtensions/3.0/"
	 x="0px" y="0px" width="61px" height="54px" viewBox="55.7 0.6 61 54" overflow="visible" enable-background="new 55.7 0.6 61 54"
	 xml:space="preserve">
<defs>
</defs>
<path d="M82.9,21.3c0.7,0,1.4,0,2.1,0c0.6,0,0.1-0.2,0.1-0.2c0,0.2,0,0.5,0,0.7c0,1.7,0,3.4,0,5.1c0,1.7,0,3.4,0,5.1
	c0,0.8-0.1,0.5,0.2,0.5c-0.8,0-1.6,0-2.3,0c-0.4,0-0.4,0.6,0,0.6c0.8,0,1.6,0,2.4,0c0.2,0,0.3-0.1,0.3-0.3c0-3.9,0-7.8,0-11.7
	c0-0.2-0.1-0.3-0.3-0.3c-0.8,0-1.6,0-2.4,0C82.5,20.7,82.5,21.3,82.9,21.3L82.9,21.3z"/>
<path d="M80.6,32c-0.7-2.1-1.4-4.1-2.1-6.2c-0.1,0.1-0.2,0.3-0.3,0.4c1.4,0,2.9,0,4.3,0c-0.1-0.1-0.2-0.3-0.3-0.4
	c-0.7,2.1-1.5,4.1-2.2,6.2c-0.1,0.4,0.5,0.5,0.6,0.2c0.7-2.1,1.5-4.1,2.2-6.2c0.1-0.2-0.1-0.4-0.3-0.4c-1.4,0-2.9,0-4.3,0
	c-0.2,0-0.4,0.2-0.3,0.4c0.7,2.1,1.4,4.1,2.1,6.2C80.1,32.6,80.7,32.4,80.6,32L80.6,32z"/>
<polygon fill-rule="evenodd" clip-rule="evenodd" points="80.8,23.4 80.8,23.2 80.7,23 80.5,22.9 80.3,22.9 80.1,22.9 79.9,23 
	79.8,23.2 79.8,23.4 79.8,23.5 79.9,23.8 80.1,23.9 80.3,23.9 80.5,23.9 80.7,23.8 80.8,23.5 80.8,23.4 "/>
<path d="M81.1,23.4c0-0.1,0-0.2,0-0.3c0-0.1-0.1-0.2-0.1-0.3c-0.1-0.2-0.4-0.3-0.6-0.3c-0.2,0-0.4,0.1-0.6,0.1
	c-0.2,0.1-0.3,0.4-0.3,0.6c0,0.5,0.3,0.8,0.8,0.8c0.1,0,0.2,0,0.3,0c0.1,0,0.2-0.1,0.3-0.1C81,23.9,81.1,23.6,81.1,23.4
	c0-0.4-0.6-0.4-0.6,0c0,0.2,0.1-0.1,0,0c0,0,0,0.1-0.1,0.1c-0.1,0.1,0.2-0.1,0.1-0.1c0,0-0.1,0-0.1,0.1c-0.1,0.1-0.1,0,0.1,0
	c-0.1,0-0.1,0-0.2,0c-0.2,0,0.1,0.1,0,0c0,0-0.1,0-0.1-0.1c-0.1-0.1,0.1,0.2,0.1,0.1c0,0,0-0.1-0.1-0.1c-0.1-0.1,0-0.1,0,0.1
	c0-0.1,0-0.1,0-0.2c0,0,0-0.1,0-0.1c0,0.1-0.1,0.2,0,0.1c0,0,0-0.1,0.1-0.1c0.1-0.1-0.2,0.1-0.1,0.1c0,0,0.1,0,0.1-0.1
	c0.1-0.1,0.1,0-0.1,0c0.1,0,0.1,0,0.2,0c0,0,0.1,0,0.1,0c-0.1,0-0.2-0.1-0.1,0c0,0,0.1,0,0.1,0.1c0.1,0.1-0.1-0.2-0.1-0.1
	c0,0,0,0.1,0.1,0.1c0.1,0.1,0,0.1,0-0.1c0,0.1,0,0.1,0,0.2C80.5,23.8,81.1,23.8,81.1,23.4z"/>
<path d="M81.8,23.1c-1,0-2,0-3,0c-0.4,0-0.4,0.6,0,0.6c1,0,2,0,3,0C82.2,23.7,82.2,23.1,81.8,23.1L81.8,23.1z"/>
<path d="M80.8,21.8c-0.5,0.9-1,1.9-1.4,2.8c-0.2,0.4,0.4,0.7,0.5,0.3c0.5-0.9,1-1.9,1.4-2.8C81.5,21.8,81,21.5,80.8,21.8L80.8,21.8z
	"/>
<path d="M81.3,24.6c-0.5-0.9-1-1.9-1.4-2.8c-0.2-0.4-0.7,0-0.5,0.3c0.5,0.9,1,1.9,1.4,2.8C81,25.3,81.5,25,81.3,24.6L81.3,24.6z"/>
<rect id="_x3C_Slice_x3E__103_" y="54.2" fill="none" width="56.2" height="50.2"/>
<rect id="_x3C_Slice_x3E__102_" x="56.2" y="54.2" fill="none" width="61.3" height="50.2"/>
<rect id="_x3C_Slice_x3E__101_" fill="none" width="56.2" height="54.2"/>
<rect id="_x3C_Slice_x3E__100_" x="56.2" fill="none" width="61.3" height="54.2"/>
</svg>
