<?xml version="1.0" encoding="utf-8"?>
<!-- Generator: Adobe Illustrator 15.0.2, SVG Export Plug-In  -->
<!DOCTYPE svg PUBLIC "-//W3C//DTD SVG 1.1//EN" "http://www.w3.org/Graphics/SVG/1.1/DTD/svg11.dtd" [
	<!ENTITY ns_flows "http://ns.adobe.com/Flows/1.0/">
]>
<svg version="1.1"
	 xmlns="http://www.w3.org/2000/svg" xmlns:xlink="http://www.w3.org/1999/xlink" xmlns:a="http://ns.adobe.com/AdobeSVGViewerExtensions/3.0/"
	 x="0px" y="0px" width="57px" height="51px" viewBox="57.4 0.4 57 51" overflow="visible" enable-background="new 57.4 0.4 57 51"
	 xml:space="preserve">
<defs>
</defs>
<polygon fill-rule="evenodd" clip-rule="evenodd" points="84,27.6 84,27.4 83.9,27.3 83.6,27.2 83.4,27.2 83.3,27.2 83.1,27.3 
	83,27.4 83,27.6 83,27.8 83.1,28 83.3,28.2 83.4,28.2 83.6,28.2 83.9,28 84,27.8 84,27.6 "/>
<path d="M84.3,27.6c0-0.2,0-0.5-0.3-0.6c-0.1,0-0.1-0.1-0.2-0.1c-0.1-0.1-0.3,0-0.4,0c-0.2,0-0.4,0.1-0.6,0.2
	c-0.1,0.1-0.2,0.2-0.2,0.3c0,0.1,0,0.2,0,0.3c0,0.2,0.1,0.5,0.3,0.6c0.2,0.1,0.4,0.2,0.6,0.2c0.2,0,0.5-0.1,0.6-0.3
	c0-0.1,0.1-0.1,0.1-0.2C84.3,27.9,84.3,27.7,84.3,27.6c0-0.4-0.6-0.4-0.6,0c0,0,0,0.1,0,0.1c0,0.1,0,0.2,0,0c0,0,0,0.1-0.1,0.1
	c-0.1,0.1-0.1,0.1,0,0c0,0-0.1,0-0.1,0.1c-0.1,0.1-0.1,0,0,0c-0.1,0-0.2,0-0.3,0c-0.1,0,0.2,0.1,0.1,0c-0.1,0-0.1-0.1-0.2-0.1
	c-0.1-0.1,0.1,0.2,0.1,0.1c0-0.1-0.1-0.1-0.1-0.2c-0.1-0.1,0,0.2,0,0.1c0-0.1,0-0.1,0-0.2c0-0.1,0-0.2,0-0.2c0,0.1-0.1,0.1-0.1,0.2
	c0,0,0.1-0.1,0.1-0.1c-0.1,0.1,0,0,0.1,0c0.1-0.1,0.1,0,0,0c0,0,0.1,0,0.1,0c0.1,0,0.1,0,0.2,0c0.1,0-0.2-0.1,0,0c0,0,0.1,0,0.1,0.1
	c-0.1-0.1,0,0,0.1,0.1c0-0.1-0.1-0.1-0.1-0.2c0,0.1,0,0.1,0,0.2C83.7,28,84.3,28,84.3,27.6z"/>
<path d="M85,27.3c-1,0-2,0-3,0c-0.4,0-0.4,0.6,0,0.6c1,0,2,0,3,0C85.4,27.9,85.4,27.3,85,27.3L85,27.3z"/>
<path d="M83.9,26.1c-0.5,0.9-1,1.8-1.4,2.7c-0.2,0.4,0.3,0.7,0.5,0.3c0.5-0.9,1-1.8,1.4-2.7C84.6,26.1,84.1,25.8,83.9,26.1
	L83.9,26.1z"/>
<path d="M84.5,28.8c-0.5-0.9-1-1.8-1.4-2.7c-0.2-0.4-0.7,0-0.5,0.3c0.5,0.9,1,1.8,1.4,2.7C84.1,29.4,84.6,29.1,84.5,28.8L84.5,28.8z
	"/>
<polygon fill-rule="evenodd" clip-rule="evenodd" points="81.7,31.7 81.6,31.5 81.5,31.3 81.4,31.2 81.2,31.2 81,31.2 80.9,31.3 
	80.7,31.5 80.7,31.7 80.7,31.9 80.9,32 81,32.2 81.2,32.2 81.4,32.2 81.5,32 81.6,31.9 81.7,31.7 "/>
<path d="M82,31.6c-0.1-0.1-0.1-0.3-0.2-0.4c-0.1-0.2-0.4-0.3-0.6-0.3c-0.2,0-0.4,0-0.6,0.2c-0.2,0.1-0.2,0.4-0.2,0.6
	c0,0.2,0,0.4,0.1,0.6c0.1,0.1,0.1,0.1,0.2,0.2c0.1,0.1,0.3,0.1,0.4,0.1c0.2,0,0.4,0,0.6-0.2c0.1-0.1,0.2-0.3,0.3-0.4
	c0.2-0.4-0.4-0.7-0.5-0.3c0,0,0,0.1-0.1,0.1s-0.1,0.1,0,0.1c-0.1,0.1-0.1,0.1-0.2,0.2c0.1,0,0.1-0.1,0.2-0.1c-0.1,0-0.3,0-0.4,0
	c0.1,0,0.1,0.1,0.2,0.1c-0.1-0.1-0.1-0.1-0.2-0.2c0,0.1,0.1,0.1,0.1,0.2c0-0.1,0-0.3,0-0.4c0-0.1-0.1,0.2,0,0.1c0,0,0-0.1,0.1-0.1
	c0,0,0.1-0.1,0,0c0,0,0.1-0.1,0.1-0.1c-0.1,0-0.1,0.1-0.2,0.1c0.1,0,0.3,0,0.4,0c-0.1,0-0.1-0.1-0.2-0.1c0,0,0.1,0.2,0.1,0.1
	c0,0.1,0.1,0.1,0.1,0.2c0,0.1,0.1,0.2,0.1,0.3C81.7,32.2,82.2,31.9,82,31.6z"/>
<path d="M82.7,31.4c-1,0-2.1,0-3.1,0c-0.4,0-0.4,0.6,0,0.6c1,0,2.1,0,3.1,0C83.1,32,83.1,31.4,82.7,31.4L82.7,31.4z"/>
<path d="M81.7,30.2c-0.5,0.9-1,1.8-1.6,2.7c-0.2,0.3,0.3,0.7,0.5,0.3c0.5-0.9,1-1.8,1.6-2.7C82.4,30.2,81.9,29.9,81.7,30.2
	L81.7,30.2z"/>
<path d="M82.2,32.9c-0.5-0.9-1-1.8-1.6-2.7c-0.2-0.3-0.7,0-0.5,0.3c0.5,0.9,1,1.8,1.6,2.7C81.9,33.6,82.4,33.2,82.2,32.9L82.2,32.9z
	"/>
<polygon fill-rule="evenodd" clip-rule="evenodd" points="86.2,31.7 86.2,31.5 86.1,31.3 86,31.2 85.7,31.2 85.5,31.2 85.4,31.3 
	85.3,31.5 85.2,31.7 85.3,31.9 85.4,32 85.5,32.2 85.7,32.2 86,32.2 86.1,32 86.2,31.9 86.2,31.7 "/>
<path d="M86.5,31.7c0-0.1,0-0.2,0-0.3c0-0.1-0.1-0.2-0.1-0.3c-0.1-0.2-0.4-0.3-0.6-0.3c-0.1,0-0.2,0-0.2,0c-0.1,0-0.2,0.1-0.3,0.2
	c-0.1,0.1-0.2,0.3-0.3,0.5c-0.1,0.2,0,0.5,0.2,0.7c0.1,0.1,0.1,0.1,0.2,0.2c0.1,0.1,0.3,0.1,0.4,0.1c0.1,0,0.2,0,0.3,0
	c0.2,0,0.2-0.1,0.3-0.2c0.1-0.1,0.2-0.2,0.2-0.3C86.5,31.9,86.5,31.8,86.5,31.7c0-0.4-0.6-0.4-0.6,0c0,0.1,0,0.1,0,0.2
	c0-0.1,0.1-0.1,0.1-0.2c-0.1,0.1-0.1,0.1-0.2,0.2c0.1,0,0.1-0.1,0.2-0.1c-0.1,0-0.3,0-0.4,0c0.1,0,0.1,0.1,0.2,0.1
	c-0.1-0.1-0.1-0.1-0.2-0.2c-0.1-0.1,0,0.1,0,0c0-0.1-0.1-0.1-0.1-0.2c0,0.1,0,0.2,0,0.3c0-0.1,0.1-0.2,0.1-0.3
	c0-0.1,0.1-0.1,0.1-0.2c-0.1,0.1,0,0,0.1-0.1c-0.1,0-0.1,0.1-0.2,0.1c0.1,0,0.3,0,0.4,0c-0.1,0-0.1-0.1-0.2-0.1c0,0,0.1,0.1,0.1,0.1
	c-0.1-0.1,0,0.1,0,0.1c0.1,0.2,0-0.2,0,0c0,0.1,0,0.1,0,0.2C85.9,32.1,86.5,32.1,86.5,31.7z"/>
<path d="M87.3,31.4c-1,0-2.1,0-3.1,0c-0.4,0-0.4,0.6,0,0.6c1,0,2.1,0,3.1,0C87.7,32,87.7,31.4,87.3,31.4L87.3,31.4z"/>
<path d="M86.2,30.2c-0.5,0.9-1,1.8-1.6,2.7c-0.2,0.3,0.3,0.7,0.5,0.3c0.5-0.9,1-1.8,1.6-2.7C87,30.2,86.5,29.9,86.2,30.2L86.2,30.2z
	"/>
<path d="M86.8,32.9c-0.5-0.9-1-1.8-1.6-2.7c-0.2-0.3-0.7,0-0.5,0.3c0.5,0.9,1,1.8,1.6,2.7C86.5,33.6,87,33.2,86.8,32.9L86.8,32.9z"
	/>
<rect id="_x3C_Slice_x3E__103_" y="51.2" fill="none" width="58.3" height="59.3"/>
<rect id="_x3C_Slice_x3E__102_" x="58.3" y="51.2" fill="none" width="56.2" height="59.3"/>
<rect id="_x3C_Slice_x3E__101_" fill="none" width="58.3" height="51.2"/>
<rect id="_x3C_Slice_x3E__100_" x="58.3" fill="none" width="56.2" height="51.2"/>
</svg>
