<?xml version="1.0" encoding="utf-8"?>
<!-- Generator: Adobe Illustrator 15.0.2, SVG Export Plug-In  -->
<!DOCTYPE svg PUBLIC "-//W3C//DTD SVG 1.1//EN" "http://www.w3.org/Graphics/SVG/1.1/DTD/svg11.dtd" [
	<!ENTITY ns_flows "http://ns.adobe.com/Flows/1.0/">
]>
<svg version="1.1"
	 xmlns="http://www.w3.org/2000/svg" xmlns:xlink="http://www.w3.org/1999/xlink" xmlns:a="http://ns.adobe.com/AdobeSVGViewerExtensions/3.0/"
	 x="0px" y="0px" width="57px" height="50px" viewBox="57.4 0.6 57 50" overflow="visible" enable-background="new 57.4 0.6 57 50"
	 xml:space="preserve">
<defs>
</defs>
<polygon fill-rule="evenodd" clip-rule="evenodd" points="82.2,27.9 82.2,27.7 82.1,27.5 82,27.3 81.9,27 81.6,26.9 81.4,26.8 
	81.2,26.7 81,26.7 80.7,26.7 80.5,26.8 80.3,26.9 80.1,27 80,27.3 79.9,27.5 79.7,27.7 79.7,27.9 79.7,28.2 79.9,28.4 80,28.6 
	80.1,28.8 80.3,28.9 80.5,29 80.7,29.2 81,29.2 81.2,29.2 81.4,29 81.6,28.9 81.9,28.8 82,28.6 82.1,28.4 82.2,28.2 82.2,27.9 "/>
<path d="M82.5,27.9c0-0.8-0.7-1.5-1.5-1.5s-1.5,0.7-1.5,1.5s0.7,1.5,1.5,1.5S82.5,28.8,82.5,27.9c0-0.4-0.6-0.4-0.6,0
	c0,0.1,0,0.1,0,0.2c0-0.2,0,0-0.1,0.1c-0.1,0.1-0.1,0.3-0.2,0.4c0.1-0.1,0,0-0.1,0c-0.1,0-0.1,0.1-0.2,0.1s-0.1,0.1-0.2,0.1
	c0.2-0.1,0,0-0.1,0c-0.1,0-0.1,0-0.2,0c0.2,0,0,0-0.1-0.1c-0.1-0.1-0.3-0.1-0.4-0.2c0.1,0.1,0,0,0-0.1c0-0.1-0.1-0.1-0.1-0.2
	S80.1,28.1,80,28c0.1,0.2,0,0,0-0.1c0-0.1,0-0.1,0-0.2c0,0.2,0,0,0.1-0.1c0.1-0.1,0.1-0.3,0.2-0.4c-0.1,0.1,0,0,0.1,0
	c0.1,0,0.1-0.1,0.2-0.1s0.1-0.1,0.2-0.1c-0.2,0.1,0,0,0.1,0c0.1,0,0.1,0,0.2,0c-0.2,0,0,0,0.1,0.1c0.1,0.1,0.3,0.1,0.4,0.2
	c-0.1-0.1,0,0,0,0.1c0,0.1,0.1,0.1,0.1,0.2s0.1,0.1,0.1,0.2c-0.1-0.2,0,0,0,0.1C81.9,28.3,82.5,28.3,82.5,27.9z"/>
<polygon fill-rule="evenodd" clip-rule="evenodd" points="87.2,27.9 87.2,27.7 87.1,27.4 87,27.3 86.9,27 86.6,26.8 86.4,26.7 
	86.2,26.7 86,26.7 85.7,26.7 85.5,26.7 85.3,26.8 85.1,27 85,27.3 84.9,27.4 84.7,27.7 84.7,27.9 84.7,28.2 84.9,28.4 85,28.6 
	85.1,28.8 85.3,28.9 85.5,29 85.7,29.2 86,29.2 86.2,29.2 86.4,29 86.6,28.9 86.9,28.8 87,28.6 87.1,28.4 87.2,28.2 87.2,27.9 "/>
<path d="M87.5,27.9c0-0.4-0.2-0.7-0.4-1c-0.2-0.4-0.7-0.5-1.1-0.5c-0.4,0-0.7,0-1.1,0.3c-0.3,0.3-0.5,0.7-0.5,1.1
	c0,0.4,0.2,0.7,0.4,1.1c0.2,0.3,0.8,0.5,1.1,0.5c0.4,0,0.7-0.2,1.1-0.4C87.3,28.9,87.5,28.2,87.5,27.9c0-0.4-0.6-0.4-0.6,0
	c0,0.1,0,0.1,0,0.2c0-0.2,0,0-0.1,0.1c-0.1,0.1-0.1,0.3-0.2,0.4c0.1-0.1,0,0-0.1,0c-0.1,0-0.1,0.1-0.2,0.1s-0.1,0.1-0.2,0.1
	c0.2-0.1,0,0-0.1,0c-0.1,0-0.1,0-0.2,0c0.2,0,0,0-0.1-0.1c-0.1,0-0.1-0.1-0.2-0.1c-0.1,0-0.2-0.2-0.1,0c-0.1-0.1-0.1-0.3-0.2-0.4
	c0-0.1-0.1-0.3-0.1-0.1c0-0.1,0-0.1,0-0.2c0-0.2,0-0.2,0.1-0.4c-0.1,0.2,0.1-0.2,0.2-0.2c0.1-0.1,0.2-0.2,0.3-0.2
	c-0.2,0.1,0,0,0.1,0c0.1,0,0.1,0,0.2,0c0.1,0,0.3,0,0.4,0c-0.2,0,0,0,0.1,0c0,0,0.2,0.1,0.2,0.2c0,0.1,0.3,0.5,0.2,0.2
	c0.1,0.2,0.1,0.3,0.1,0.4C86.9,28.3,87.5,28.3,87.5,27.9z"/>
<polygon fill-rule="evenodd" clip-rule="evenodd" points="84.5,23.8 84.5,23.6 84.4,23.4 84.3,23.2 84.1,22.9 84,22.8 83.7,22.7 
	83.5,22.6 83.2,22.6 83,22.6 82.7,22.7 82.5,22.8 82.3,22.9 82.2,23.2 82.1,23.4 82,23.6 82,23.8 82,24 82.1,24.3 82.2,24.5 
	82.3,24.7 82.5,24.8 82.7,24.9 83,25 83.2,25 83.5,25 83.7,24.9 84,24.8 84.1,24.7 84.3,24.5 84.4,24.3 84.5,24 84.5,23.8 "/>
<path d="M84.8,23.8c0-0.8-0.8-1.5-1.6-1.5c-0.8,0-1.6,0.7-1.6,1.5c0,0.8,0.7,1.5,1.5,1.5C84,25.4,84.8,24.7,84.8,23.8
	c0-0.4-0.6-0.4-0.6,0c0,0.1,0,0.1,0,0.2c0-0.2,0,0-0.1,0.1c-0.1,0.2-0.1,0.2-0.3,0.4c-0.1,0.1-0.2,0.1-0.3,0.2
	c-0.1,0-0.3,0.1-0.1,0.1c-0.1,0-0.2,0-0.3,0c-0.1,0-0.1,0-0.2,0c0.2,0,0,0-0.1-0.1c-0.1-0.1-0.3-0.1-0.4-0.2c0.1,0.1,0,0,0-0.1
	c0-0.1-0.1-0.1-0.1-0.2c0-0.1-0.1-0.1-0.1-0.2c0.1,0.2,0,0,0-0.1c0-0.1,0-0.1,0-0.2c0,0.2,0,0,0.1-0.1c0.1-0.1,0.1-0.3,0.2-0.4
	c-0.1,0.1,0,0,0.1,0c0.1,0,0.1-0.1,0.2-0.1s0.1-0.1,0.2-0.1c-0.2,0.1,0,0,0.1,0c0.1,0,0.1,0,0.2,0c0.1,0,0.1,0,0,0
	c0.1,0,0.1,0.1,0.2,0.1c0.1,0.1,0.2,0.1,0.3,0.2c0.1,0.1,0.2,0.2,0.3,0.3c0,0.1,0.1,0.1,0.1,0.2c-0.1-0.2,0,0,0,0.1
	C84.2,24.2,84.8,24.2,84.8,23.8z"/>
<rect id="_x3C_Slice_x3E__103_" y="50.2" fill="none" width="58.3" height="51.2"/>
<rect id="_x3C_Slice_x3E__102_" x="58.3" y="50.2" fill="none" width="56.2" height="51.2"/>
<rect id="_x3C_Slice_x3E__101_" fill="none" width="58.3" height="50.2"/>
<rect id="_x3C_Slice_x3E__100_" x="58.3" fill="none" width="56.2" height="50.2"/>
</svg>
