<?xml version="1.0" encoding="utf-8"?>
<!-- Generator: Adobe Illustrator 15.0.2, SVG Export Plug-In  -->
<!DOCTYPE svg PUBLIC "-//W3C//DTD SVG 1.1//EN" "http://www.w3.org/Graphics/SVG/1.1/DTD/svg11.dtd" [
	<!ENTITY ns_flows "http://ns.adobe.com/Flows/1.0/">
]>
<svg version="1.1"
	 xmlns="http://www.w3.org/2000/svg" xmlns:xlink="http://www.w3.org/1999/xlink" xmlns:a="http://ns.adobe.com/AdobeSVGViewerExtensions/3.0/"
	 x="0px" y="0px" width="35px" height="50px" viewBox="48 0.6 35 50" overflow="visible" enable-background="new 48 0.6 35 50"
	 xml:space="preserve">
<defs>
</defs>
<polygon fill-rule="evenodd" clip-rule="evenodd" points="76.5,30 76.5,29.8 76.4,29.6 76.2,29.5 76.1,29.5 75.9,29.5 75.6,29.6 
	75.5,29.8 75.5,30 75.5,30.2 75.6,30.4 75.9,30.5 76.1,30.5 76.2,30.5 76.4,30.4 76.5,30.2 76.5,30 "/>
<path d="M76.8,30c0-0.1,0-0.2,0-0.3c0-0.1-0.1-0.2-0.1-0.3c-0.1-0.2-0.4-0.3-0.6-0.3c-0.1,0-0.2,0-0.3,0c-0.1,0-0.2,0.1-0.3,0.1
	c-0.2,0.1-0.3,0.4-0.3,0.6c0,0.2,0.1,0.4,0.1,0.6c0.1,0.2,0.4,0.3,0.6,0.3C76.5,30.8,76.8,30.5,76.8,30c0-0.4-0.6-0.4-0.6,0
	c0,0.2,0.1-0.1,0,0c0,0,0,0.1-0.1,0.1c-0.1,0.1,0.2-0.1,0.1-0.1c0,0-0.1,0-0.1,0.1c-0.1,0.1-0.1,0,0.1,0c-0.1,0-0.1,0-0.2,0
	c0,0-0.1,0-0.1,0c0.1,0,0.2,0.1,0.1,0c0,0-0.1,0-0.1-0.1c-0.1-0.1,0.1,0.2,0.1,0.1c0,0,0-0.1-0.1-0.1c-0.1-0.1,0-0.1,0,0.1
	c0-0.1,0-0.1,0-0.2c0,0,0-0.1,0-0.1c0,0.1-0.1,0.2,0,0.1c0,0,0-0.1,0.1-0.1c0.1-0.1-0.2,0.1-0.1,0.1c0,0,0.1,0,0.1-0.1
	c0.1-0.1,0.1,0-0.1,0c0.1,0,0.1,0,0.2,0c0.2,0-0.1-0.1,0,0c0,0,0.1,0,0.1,0.1c0.1,0.1-0.1-0.2-0.1-0.1c0,0,0,0.1,0.1,0.1
	c0.1,0.1,0,0.1,0-0.1c0,0.1,0,0.1,0,0.2C76.2,30.4,76.8,30.4,76.8,30z"/>
<path d="M77.5,29.7c-1,0-2,0-3,0c-0.4,0-0.4,0.6,0,0.6c1,0,2,0,3,0C77.9,30.4,77.9,29.7,77.5,29.7L77.5,29.7z"/>
<path d="M76.5,28.6c-0.5,0.9-1,1.8-1.4,2.7c-0.2,0.4,0.3,0.7,0.5,0.3c0.5-0.9,1-1.8,1.4-2.7C77.2,28.5,76.7,28.2,76.5,28.6
	L76.5,28.6z"/>
<path d="M77,31.2c-0.5-0.9-1-1.8-1.4-2.7c-0.2-0.4-0.7,0-0.5,0.3c0.5,0.9,1,1.8,1.4,2.7C76.7,31.9,77.2,31.6,77,31.2L77,31.2z"/>
<polygon fill-rule="evenodd" clip-rule="evenodd" points="77.3,25.9 77.3,25.6 77.2,25.4 77.1,25.2 76.9,25 76.8,24.8 76.5,24.7 
	76.3,24.6 76.1,24.6 75.8,24.6 75.5,24.7 75.3,24.8 75.2,25 75,25.2 74.9,25.4 74.8,25.6 74.8,25.9 74.8,26.2 74.9,26.4 75,26.6 
	75.2,26.7 75.3,26.9 75.5,27 75.8,27.2 76.1,27.2 76.3,27.2 76.5,27 76.8,26.9 76.9,26.7 77.1,26.6 77.2,26.4 77.3,26.2 77.3,25.9 
	"/>
<path d="M77.6,25.9c0-0.5-0.1-0.9-0.6-1.1c0.1,0.1,0.1,0.1,0,0c0-0.1-0.1-0.1-0.1-0.2c-0.1-0.1-0.2-0.1-0.3-0.2
	c-0.2-0.1-0.4-0.2-0.6-0.2c-0.5,0-0.9,0.1-1.1,0.6c0.1-0.1,0.1-0.1,0,0c-0.1,0-0.1,0.1-0.2,0.1c-0.1,0.1-0.1,0.2-0.2,0.3
	c-0.1,0.2-0.2,0.4-0.2,0.7c0,0.4,0.2,0.9,0.6,1.1c-0.1-0.1-0.1-0.1,0,0c0,0.1,0.1,0.1,0.1,0.2c0.1,0.1,0.2,0.1,0.3,0.2
	c0.2,0.1,0.4,0.2,0.7,0.2c0.4,0,0.9-0.2,1.1-0.6c-0.1,0.1-0.1,0.1,0,0c0.1,0,0.1-0.1,0.2-0.1c0.1-0.1,0.1-0.2,0.2-0.3
	C77.6,26.3,77.6,26.2,77.6,25.9c0-0.4-0.6-0.4-0.6,0c0,0.1,0,0.1,0,0.2c0-0.2,0,0-0.1,0.1c0,0.1-0.2,0.2,0,0.1
	c-0.1,0-0.2,0.1-0.2,0.1c-0.1,0.1-0.1,0.2-0.1,0.2c0.1-0.1,0,0-0.1,0c-0.1,0-0.3,0.1-0.1,0.1c-0.1,0-0.1,0-0.2,0c-0.1,0-0.2,0-0.3,0
	c0.2,0,0,0-0.1-0.1c-0.1,0-0.2-0.2-0.1,0c0-0.1-0.1-0.2-0.1-0.2s-0.2-0.1-0.2-0.1c0.1,0.1,0,0,0-0.1c0-0.1-0.1-0.3-0.1-0.1
	c0-0.1,0-0.1,0-0.2c0-0.1,0-0.2,0-0.3c0,0.2,0,0,0.1-0.1c0-0.1,0.2-0.2,0-0.1c0.1,0,0.2-0.1,0.2-0.1c0.1-0.1,0.1-0.2,0.1-0.3
	c-0.1,0.1,0,0,0.1,0c0.1,0,0.3-0.1,0.1-0.1c0.1,0,0.2,0,0.3,0c0.1,0,0.1,0,0.2,0c-0.2,0,0,0,0.1,0.1c0.1,0,0.2,0.2,0.1,0
	c0,0.1,0.1,0.2,0.1,0.3c0.1,0.1,0.2,0.1,0.2,0.1c-0.1-0.1,0,0,0,0.1c0,0.1,0.1,0.3,0.1,0.1c0,0.1,0,0.2,0,0.3
	C77,26.3,77.6,26.3,77.6,25.9z"/>
<polygon fill-rule="evenodd" clip-rule="evenodd" points="76.5,21.7 76.5,21.6 76.4,21.4 76.2,21.3 76.1,21.3 75.9,21.3 75.6,21.4 
	75.5,21.6 75.5,21.7 75.5,21.9 75.6,22.2 75.9,22.3 76.1,22.3 76.2,22.3 76.4,22.2 76.5,21.9 76.5,21.7 "/>
<path d="M76.8,21.7c0-0.5-0.4-0.8-0.8-0.8c-0.2,0-0.5,0.1-0.6,0.3c-0.1,0.2-0.2,0.4-0.2,0.6c0,0.2,0.1,0.5,0.3,0.6
	c0.1,0,0.1,0.1,0.2,0.1c0.1,0.1,0.3,0,0.4,0c0.2,0,0.5-0.1,0.6-0.3c0-0.1,0.1-0.1,0.1-0.2C76.9,22,76.8,21.8,76.8,21.7
	c0-0.4-0.6-0.4-0.6,0c0,0.1,0,0.1,0,0.2c0-0.1,0.1-0.2,0-0.1c0,0,0,0.1-0.1,0.1c-0.1,0.1,0.2-0.1,0.1-0.1c0,0-0.1,0-0.1,0.1
	c-0.2,0.1,0.2,0,0,0c-0.1,0-0.1,0-0.2,0c0.1,0,0.2,0.1,0.1,0c0,0-0.1,0-0.1-0.1c-0.1-0.1,0.1,0.2,0.1,0.1c0,0,0-0.1-0.1-0.1
	c-0.1-0.1,0-0.1,0,0.1c0,0,0-0.1,0-0.1c0-0.1,0-0.1,0-0.2c0,0.1-0.1,0.2,0,0.1c0,0,0-0.1,0.1-0.1c0.1-0.1-0.2,0.1-0.1,0.1
	c0,0,0.1,0,0.1-0.1c0.1-0.1,0.1,0-0.1,0c0,0,0.1,0,0.1,0c0.1,0,0.1,0,0.2,0c-0.1,0-0.2-0.1-0.1,0c0,0,0.1,0,0.1,0.1
	c0.1,0.1-0.1-0.2-0.1-0.1c0,0,0,0.1,0.1,0.1c0.1,0.2,0-0.2,0,0C76.2,22.1,76.8,22.1,76.8,21.7z"/>
<path d="M77.5,21.4c-1,0-2,0-3,0c-0.4,0-0.4,0.6,0,0.6c1,0,2,0,3,0C77.9,22,77.9,21.4,77.5,21.4L77.5,21.4z"/>
<path d="M76.5,20.2c-0.5,0.9-1,1.8-1.4,2.7c-0.2,0.4,0.3,0.7,0.5,0.3c0.5-0.9,1-1.8,1.4-2.7C77.2,20.2,76.7,19.9,76.5,20.2
	L76.5,20.2z"/>
<path d="M77,22.9c-0.5-0.9-1-1.8-1.4-2.7c-0.2-0.4-0.7,0-0.5,0.3c0.5,0.9,1,1.8,1.4,2.7C76.7,23.6,77.2,23.2,77,22.9L77,22.9z"/>
<rect id="_x3C_Slice_x3E__103_" y="50.2" fill="none" width="48.2" height="51.2"/>
<rect id="_x3C_Slice_x3E__102_" x="48.2" y="50.2" fill="none" width="34.8" height="51.2"/>
<rect id="_x3C_Slice_x3E__101_" fill="none" width="48.2" height="50.2"/>
<rect id="_x3C_Slice_x3E__100_" x="48.2" fill="none" width="34.8" height="50.2"/>
</svg>
