<?xml version="1.0" encoding="utf-8"?>
<!-- Generator: Adobe Illustrator 15.0.2, SVG Export Plug-In  -->
<!DOCTYPE svg PUBLIC "-//W3C//DTD SVG 1.1//EN" "http://www.w3.org/Graphics/SVG/1.1/DTD/svg11.dtd" [
	<!ENTITY ns_flows "http://ns.adobe.com/Flows/1.0/">
]>
<svg version="1.1"
	 xmlns="http://www.w3.org/2000/svg" xmlns:xlink="http://www.w3.org/1999/xlink" xmlns:a="http://ns.adobe.com/AdobeSVGViewerExtensions/3.0/"
	 x="0px" y="0px" width="57px" height="34px" viewBox="57.4 0.9 57 34" overflow="visible" enable-background="new 57.4 0.9 57 34"
	 xml:space="preserve">
<defs>
</defs>
<path d="M77.8,22.4c0,3.2,0,6.4,0,9.7c0,0.4,0.6,0.4,0.6,0c0-3.2,0-6.4,0-9.7C78.4,21.9,77.8,21.9,77.8,22.4L77.8,22.4z"/>
<path d="M84.5,30.5c-0.6-0.7-1.1-1.4-1.7-2.1c-0.4-0.4-0.7-0.9-1.1-1.3c-0.1-0.1-0.2-0.3-0.3-0.4c-0.2-0.2-0.2,0.5,0,0.3
	c1.2-1.5,2.5-2.9,3.7-4.4c0.2-0.2,0.1-0.5-0.2-0.5c-2.7,0-5.4,0-8.1,0c-0.4,0-0.4,0.6,0,0.6c2.7,0,5.4,0,8.1,0
	c-0.1-0.2-0.1-0.4-0.2-0.5c-1.3,1.5-2.5,3-3.8,4.4c-0.1,0.1-0.1,0.3,0,0.4c1.1,1.3,2.1,2.6,3.2,3.9C84.3,31.2,84.8,30.8,84.5,30.5
	L84.5,30.5z"/>
<polygon fill-rule="evenodd" clip-rule="evenodd" points="85.4,32 85.2,30.9 85,30.2 85,29.9 84.9,29.8 84.9,29.8 84.9,29.8 
	84.7,29.8 84.7,29.9 84.6,30 84.6,30.2 84.5,30.5 84.5,30.6 84.3,30.7 84.2,30.8 84.1,30.9 83.9,30.9 83.6,30.9 83.4,30.9 
	83.4,30.9 83.3,31 83.4,31.1 83.5,31.1 83.9,31.2 84.4,31.5 85.4,32 "/>
<path d="M85.7,31.9c-0.1-0.4-0.1-0.9-0.3-1.3c-0.1-0.4-0.2-0.4-0.2-0.7c0-0.3-0.3-0.4-0.5-0.4c-0.2,0-0.3,0.1-0.3,0.3
	c0,0,0,0.1,0,0.1c0-0.1,0.1-0.1,0.1-0.2c-0.2,0.2-0.2,0.3-0.2,0.5c0-0.2,0,0-0.1,0.1c0,0.1-0.1,0.2-0.1,0.3c0.1-0.1,0.1-0.2,0.2-0.3
	c-0.2,0.1-0.3,0.2-0.5,0.4c0.1,0,0.1-0.1,0.2-0.1c-0.4,0-0.7-0.1-1,0.2c-0.1,0.1-0.1,0.3,0,0.4c0.3,0.3,0.8,0.3,1.1,0.5
	c0.2,0.1,0,0,0.1,0c0.1,0.1,0.2,0.1,0.4,0.2c0.2,0.1,0.4,0.2,0.6,0.3c0.4,0.2,0.7-0.3,0.3-0.5c-0.6-0.3-1.4-0.9-2.2-0.9
	c0.1,0,0.1,0.1,0.2,0.1c0,0-0.1-0.1-0.1-0.1c0,0.1,0,0.3,0,0.4c0,0,0.1-0.1,0.1-0.1c-0.1,0-0.1,0.1-0.2,0.1c0.2,0,0.4,0,0.7,0
	c0.2,0,0.4-0.3,0.6-0.4c0.1,0,0.2-0.2,0.2-0.3c0-0.2-0.1,0.1,0,0c0,0,0-0.1,0.1-0.1c0.1-0.1,0-0.2,0-0.4c0,0.1-0.1,0.1-0.1,0.2
	c0.1-0.1,0.2-0.2,0.2-0.4c-0.1,0.1-0.2,0.2-0.3,0.3c0,0,0.1,0,0.1,0c-0.1,0-0.1-0.1-0.2-0.1c0,0,0.1,0.1,0.1,0.1
	c0-0.1-0.1-0.1-0.1-0.2c0,0.4,0.1,0.7,0.2,1.1c0.1,0.4,0.1,0.7,0.2,1.1C85.2,32.5,85.8,32.3,85.7,31.9z"/>
<path d="M84.1,21.7c0.7,0,1.4,0,2.1,0c0.6,0,0.1-0.2,0.1-0.2c0,0.2,0,0.5,0,0.7c0,1.7,0,3.4,0,5.1c0,1.7,0,3.4,0,5.1
	c0,0.8-0.1,0.5,0.2,0.5c-0.8,0-1.6,0-2.3,0c-0.4,0-0.4,0.6,0,0.6c0.8,0,1.6,0,2.4,0c0.2,0,0.3-0.1,0.3-0.3c0-3.9,0-7.8,0-11.7
	c0-0.2-0.1-0.3-0.3-0.3c-0.8,0-1.6,0-2.4,0C83.7,21,83.7,21.7,84.1,21.7L84.1,21.7z"/>
<polygon fill-rule="evenodd" clip-rule="evenodd" points="89.2,27.2 89.2,27 89.1,26.8 88.9,26.7 88.7,26.7 88.5,26.7 88.3,26.8 
	88.2,27 88.2,27.2 88.2,27.4 88.3,27.6 88.5,27.7 88.7,27.7 88.9,27.7 89.1,27.6 89.2,27.4 89.2,27.2 "/>
<path d="M89.5,27.2c0-0.1,0-0.2,0-0.3c0-0.1-0.1-0.2-0.1-0.3c-0.1-0.2-0.4-0.3-0.6-0.3c-0.1,0-0.2,0-0.3,0c-0.1,0-0.2,0.1-0.3,0.1
	c-0.2,0.1-0.3,0.4-0.3,0.6c0,0.2,0.1,0.4,0.1,0.6c0.1,0.2,0.4,0.3,0.6,0.3C89.1,28,89.5,27.7,89.5,27.2c0-0.4-0.6-0.4-0.6,0
	c0,0.2,0.1-0.1,0,0c0,0,0,0.1-0.1,0.1c-0.1,0.1,0.2-0.1,0.1-0.1c0,0-0.1,0-0.1,0.1c-0.1,0.1-0.1,0,0.1,0c-0.1,0-0.1,0-0.2,0
	c0,0-0.1,0-0.1,0c0.1,0,0.2,0.1,0.1,0c0,0-0.1,0-0.1-0.1c-0.1-0.1,0.1,0.2,0.1,0.1c0,0,0-0.1-0.1-0.1c-0.1-0.1,0-0.1,0,0.1
	c0-0.1,0-0.1,0-0.2c0,0,0-0.1,0-0.1c0,0.1-0.1,0.2,0,0.1c0,0,0-0.1,0.1-0.1c0.1-0.1-0.2,0.1-0.1,0.1c0,0,0.1,0,0.1-0.1
	c0.1-0.1,0.1,0-0.1,0c0.1,0,0.1,0,0.2,0c0.2,0-0.1-0.1,0,0c0,0,0.1,0,0.1,0.1c0.1,0.1-0.1-0.2-0.1-0.1c0,0,0,0.1,0.1,0.1
	c0.1,0.1,0,0.1,0-0.1c0,0.1,0,0.1,0,0.2C88.9,27.6,89.5,27.6,89.5,27.2z"/>
<path d="M90.2,26.9c-1,0-2,0-3,0c-0.4,0-0.4,0.6,0,0.6c1,0,2,0,3,0C90.6,27.6,90.6,26.9,90.2,26.9L90.2,26.9z"/>
<path d="M89.2,25.6c-0.5,0.9-1,1.9-1.6,2.8c-0.2,0.4,0.3,0.7,0.5,0.3c0.5-0.9,1-1.9,1.6-2.8C90,25.6,89.4,25.3,89.2,25.6L89.2,25.6z
	"/>
<path d="M89.8,28.4c-0.5-0.9-1-1.9-1.6-2.8c-0.2-0.4-0.7,0-0.5,0.3c0.5,0.9,1,1.9,1.6,2.8C89.4,29.1,90,28.8,89.8,28.4L89.8,28.4z"
	/>
<rect id="_x3C_Slice_x3E__101_" fill="none" width="58.3" height="34.9"/>
<rect id="_x3C_Slice_x3E__100_" x="58.3" fill="none" width="56.2" height="34.9"/>
</svg>
