<?xml version="1.0" encoding="utf-8"?>
<!-- Generator: Adobe Illustrator 15.0.2, SVG Export Plug-In  -->
<!DOCTYPE svg PUBLIC "-//W3C//DTD SVG 1.1//EN" "http://www.w3.org/Graphics/SVG/1.1/DTD/svg11.dtd" [
	<!ENTITY ns_flows "http://ns.adobe.com/Flows/1.0/">
]>
<svg version="1.1"
	 xmlns="http://www.w3.org/2000/svg" xmlns:xlink="http://www.w3.org/1999/xlink" xmlns:a="http://ns.adobe.com/AdobeSVGViewerExtensions/3.0/"
	 x="0px" y="0px" width="31px" height="50px" viewBox="0.1 0.1 31 50" overflow="visible" enable-background="new 0.1 0.1 31 50"
	 xml:space="preserve">
<defs>
</defs>
<path d="M1.9,35.6c-1.6-3.1-1.8-7.4,0-10.5c0.2-0.3-0.3-0.7-0.5-0.3c-2,3.3-1.7,7.8,0,11.1C1.5,36.3,2.1,36,1.9,35.6L1.9,35.6z"/>
<path d="M12.4,33.3c-3.5,0-7,0-10.6,0c-0.4,0-0.4,0.6,0,0.6c3.5,0,7,0,10.6,0C12.8,34,12.8,33.3,12.4,33.3L12.4,33.3z"/>
<path d="M12.4,30.1c-3.5,0-7,0-10.6,0c-0.4,0-0.4,0.6,0,0.6c3.5,0,7,0,10.6,0C12.8,30.7,12.8,30.1,12.4,30.1L12.4,30.1z"/>
<path d="M12.4,26.8c-3.5,0-7,0-10.6,0c-0.4,0-0.4,0.6,0,0.6c3.5,0,7,0,10.6,0C12.8,27.4,12.8,26.8,12.4,26.8L12.4,26.8z"/>
<path d="M12.9,35.9c1.8-3.5,1.8-7.6,0-11.1c-0.2-0.4-0.7,0-0.5,0.3c1.6,3.3,1.6,7.2,0,10.5C12.2,36,12.7,36.3,12.9,35.9L12.9,35.9z"
	/>
<rect id="_x3C_Slice_x3E__101_" x="0.1" y="49.2" fill="none" width="31.3" height="63.3"/>
<rect id="_x3C_Slice_x3E__100_" x="0.1" fill="none" width="31.3" height="49.2"/>
</svg>
