<?xml version="1.0" encoding="utf-8"?>
<!-- Generator: Adobe Illustrator 15.0.2, SVG Export Plug-In  -->
<!DOCTYPE svg PUBLIC "-//W3C//DTD SVG 1.1//EN" "http://www.w3.org/Graphics/SVG/1.1/DTD/svg11.dtd" [
	<!ENTITY ns_flows "http://ns.adobe.com/Flows/1.0/">
]>
<svg version="1.1"
	 xmlns="http://www.w3.org/2000/svg" xmlns:xlink="http://www.w3.org/1999/xlink" xmlns:a="http://ns.adobe.com/AdobeSVGViewerExtensions/3.0/"
	 x="0px" y="0px" width="51px" height="54px" viewBox="60.5 0.8 51 54" overflow="visible" enable-background="new 60.5 0.8 51 54"
	 xml:space="preserve">
<defs>
</defs>
<path d="M76.3,22.2c0,3.2,0,6.4,0,9.7c0,0.4,0.6,0.4,0.6,0c0-3.2,0-6.4,0-9.7C76.9,21.8,76.3,21.8,76.3,22.2L76.3,22.2z"/>
<path d="M83,30.3c-0.6-0.7-1.1-1.4-1.7-2.1c-0.4-0.4-0.7-0.9-1.1-1.3c-0.1-0.1-0.2-0.3-0.3-0.4c-0.2-0.2-0.2,0.5,0,0.3
	c1.2-1.5,2.5-2.9,3.7-4.4c0.2-0.2,0.1-0.5-0.2-0.5c-2.7,0-5.5,0-8.2,0c-0.4,0-0.4,0.6,0,0.6c2.7,0,5.5,0,8.2,0
	c-0.1-0.2-0.1-0.4-0.2-0.5c-1.3,1.5-2.5,3-3.8,4.4c-0.1,0.1-0.1,0.3,0,0.4c1.1,1.3,2.1,2.6,3.2,3.9C82.8,31.1,83.3,30.6,83,30.3
	L83,30.3z"/>
<polygon fill-rule="evenodd" clip-rule="evenodd" points="83.9,31.9 83.6,30.8 83.5,30.1 83.5,29.8 83.3,29.7 83.3,29.7 83.2,29.7 
	83.2,29.7 83.1,29.8 83.1,29.9 83.1,30.1 83,30.3 82.9,30.4 82.8,30.5 82.7,30.7 82.5,30.8 82.3,30.8 82.1,30.8 81.9,30.8 
	81.8,30.8 81.8,30.9 81.8,31 81.9,31 82.2,31.1 82.9,31.3 83.9,31.9 "/>
<path d="M84.2,31.8c-0.1-0.4-0.3-0.8-0.3-1.2c0-0.1,0-0.2-0.1-0.4c0-0.1,0-0.1,0-0.2c0-0.1,0,0.1,0-0.1c0-0.3,0-0.6-0.3-0.7
	c-0.2-0.1-0.5,0.1-0.6,0.3c0,0.1,0,0.2,0,0.3c0,0.2,0.1-0.1,0,0c0,0-0.1,0.2-0.1,0.1c-0.2,0.2-0.3,0.3-0.4,0.4c0.2-0.1-0.1,0-0.2,0
	c-0.1,0-0.2,0-0.3,0c-0.2,0-0.3,0.1-0.3,0.3c0,0.1,0,0.1,0,0.2c0,0.2,0.1,0.3,0.3,0.3c0.1,0,0.3,0.1,0.4,0.1c0.1,0,0.2,0.1,0.4,0.1
	c0,0,0.3,0.1,0.2,0.1c0.3,0.2,0.7,0.4,1,0.6c0.4,0.2,0.7-0.3,0.3-0.5c-0.3-0.2-0.7-0.5-1.1-0.6c-0.4-0.1-0.8-0.3-1.2-0.3
	c0.1,0.1,0.2,0.2,0.3,0.3c0-0.1,0-0.1,0-0.2c-0.1,0.1-0.2,0.2-0.3,0.3c0.4,0,0.8,0.1,1.1-0.2c0.3-0.3,0.5-0.6,0.5-1.1
	c0,0.1-0.1,0.1-0.1,0.2c0,0,0.1-0.1,0.1-0.1c-0.1,0-0.1,0.1-0.2,0.1c0,0,0.1,0,0.1,0c-0.1,0-0.1-0.1-0.2-0.1c0,0,0.1,0.1,0.1,0.1
	c0-0.1-0.1-0.1-0.1-0.2c0,0.8,0.2,1.5,0.5,2.2C83.7,32.3,84.3,32.2,84.2,31.8z"/>
<rect id="_x3C_Slice_x3E__103_" y="54.2" fill="none" width="61.3" height="54.2"/>
<rect id="_x3C_Slice_x3E__102_" x="61.3" y="54.2" fill="none" width="50.2" height="54.2"/>
<rect id="_x3C_Slice_x3E__101_" fill="none" width="61.3" height="54.2"/>
<rect id="_x3C_Slice_x3E__100_" x="61.3" fill="none" width="50.2" height="54.2"/>
</svg>
