<?xml version="1.0" encoding="utf-8"?>
<!-- Generator: Adobe Illustrator 15.0.2, SVG Export Plug-In  -->
<!DOCTYPE svg PUBLIC "-//W3C//DTD SVG 1.1//EN" "http://www.w3.org/Graphics/SVG/1.1/DTD/svg11.dtd" [
	<!ENTITY ns_flows "http://ns.adobe.com/Flows/1.0/">
]>
<svg version="1.1"
	 xmlns="http://www.w3.org/2000/svg" xmlns:xlink="http://www.w3.org/1999/xlink" xmlns:a="http://ns.adobe.com/AdobeSVGViewerExtensions/3.0/"
	 x="0px" y="0px" width="49px" height="50px" viewBox="56.2 0.3 49 50" overflow="visible" enable-background="new 56.2 0.3 49 50"
	 xml:space="preserve">
<defs>
</defs>
<path d="M77,31.1c1.3,0.8,2,1,3.4,0.3c1.4-0.7,1.4-2.9,0.7-4c-1-1.5-3.2-1.8-3.8-3.6c-0.3-0.9,1-2,1.8-2c0.7,0,1.2,0.3,1.7,0.8
	c0.3,0.3,0.7-0.2,0.4-0.4c-2.4-2.4-6.1,0.8-3.6,3.3c1.2,1.2,4,1.9,3.3,4.1c-0.6,1.9-2.1,1.9-3.5,0.9C77,30.4,76.7,30.9,77,31.1
	L77,31.1z"/>
<path d="M82.7,25c-2.7,0-5.5,0-8.2,0c-0.4,0-0.4,0.6,0,0.6c2.7,0,5.5,0,8.2,0C83.1,25.6,83.1,25,82.7,25L82.7,25z"/>
<path d="M82.7,26.3c-2.7,0-5.5,0-8.2,0c-0.4,0-0.4,0.6,0,0.6c2.7,0,5.5,0,8.2,0C83.1,26.9,83.1,26.3,82.7,26.3L82.7,26.3z"/>
<path d="M82.3,27.2c0.6-0.3,1.2-0.7,1.8-1c0.2-0.1,0.2-0.4,0-0.5c-0.6-0.3-1.2-0.7-1.8-1C82,24.5,81.6,25,82,25.2
	c0.6,0.3,1.2,0.7,1.8,1c0-0.2,0-0.4,0-0.5c-0.6,0.3-1.2,0.7-1.8,1C81.6,26.9,82,27.4,82.3,27.2L82.3,27.2z"/>
<rect id="_x3C_Slice_x3E__103_" y="50.2" fill="none" width="56.2" height="49.2"/>
<rect id="_x3C_Slice_x3E__102_" x="56.2" y="50.2" fill="none" width="49.2" height="49.2"/>
<rect id="_x3C_Slice_x3E__101_" fill="none" width="56.2" height="50.2"/>
<rect id="_x3C_Slice_x3E__100_" x="56.2" fill="none" width="49.2" height="50.2"/>
</svg>
