<?xml version="1.0" encoding="utf-8"?>
<!-- Generator: Adobe Illustrator 15.0.2, SVG Export Plug-In  -->
<!DOCTYPE svg PUBLIC "-//W3C//DTD SVG 1.1//EN" "http://www.w3.org/Graphics/SVG/1.1/DTD/svg11.dtd" [
	<!ENTITY ns_flows "http://ns.adobe.com/Flows/1.0/">
]>
<svg version="1.1"
	 xmlns="http://www.w3.org/2000/svg" xmlns:xlink="http://www.w3.org/1999/xlink" xmlns:a="http://ns.adobe.com/AdobeSVGViewerExtensions/3.0/"
	 x="0px" y="0px" width="51px" height="35px" viewBox="60.5 0 51 35" overflow="visible" enable-background="new 60.5 0 51 35"
	 xml:space="preserve">
<defs>
</defs>
<path d="M77.2,12.4c0.8,0.6,2.5,1.5,3.5,0.5c1.1-1.1,2.1-2.7,1-4.2c-0.9-1.4-4.2-2.4-4.2-4.1c0-1.9,2.4-2.9,3.5-1.3
	c0.2,0.3,0.8,0,0.5-0.3c-2-3-6.5,0.7-4,3.2c1.5,1.5,4.5,2.2,3.8,4.8c-0.5,2-2.5,1.9-3.9,0.9C77.2,11.6,76.9,12.1,77.2,12.4
	L77.2,12.4z"/>
<path d="M79.8,13.8c0-4.3,0-8.7,0-13c0-0.4-0.6-0.4-0.6,0c0,4.3,0,8.7,0,13C79.1,14.2,79.8,14.2,79.8,13.8L79.8,13.8z"/>
<rect id="_x3C_Slice_x3E__103_" y="34.2" fill="none" width="61.3" height="54.2"/>
<rect id="_x3C_Slice_x3E__102_" x="61.3" y="34.2" fill="none" width="50.2" height="54.2"/>
<rect id="_x3C_Slice_x3E__101_" fill="none" width="61.3" height="34.2"/>
<rect id="_x3C_Slice_x3E__100_" x="61.3" fill="none" width="50.2" height="34.2"/>
</svg>
